<?xml version="1.0" encoding="utf-8" standalone="no"?>
<!DOCTYPE svg PUBLIC "-//W3C//DTD SVG 1.1//EN"
  "http://www.w3.org/Graphics/SVG/1.1/DTD/svg11.dtd">
<!-- Created with matplotlib (https://matplotlib.org/) -->
<svg height="191.338583pt" version="1.1" viewBox="0 0 255.11811 191.338583" width="255.11811pt" xmlns="http://www.w3.org/2000/svg" xmlns:xlink="http://www.w3.org/1999/xlink">
 <metadata>
  <rdf:RDF xmlns:cc="http://creativecommons.org/ns#" xmlns:dc="http://purl.org/dc/elements/1.1/" xmlns:rdf="http://www.w3.org/1999/02/22-rdf-syntax-ns#">
   <cc:Work>
    <dc:type rdf:resource="http://purl.org/dc/dcmitype/StillImage"/>
    <dc:date>2020-12-06T11:37:18.829468</dc:date>
    <dc:format>image/svg+xml</dc:format>
    <dc:creator>
     <cc:Agent>
      <dc:title>Matplotlib v3.3.3, https://matplotlib.org/</dc:title>
     </cc:Agent>
    </dc:creator>
   </cc:Work>
  </rdf:RDF>
 </metadata>
 <defs>
  <style type="text/css">*{stroke-linecap:butt;stroke-linejoin:round;}</style>
 </defs>
 <g id="figure_1">
  <g id="patch_1">
   <path d="M 0 191.338583 
L 255.11811 191.338583 
L 255.11811 0 
L 0 0 
z
" style="fill:none;"/>
  </g>
  <g id="axes_1">
   <g id="patch_2">
    <path d="M 31.889764 167.42126 
L 229.606299 167.42126 
L 229.606299 22.96063 
L 31.889764 22.96063 
z
" style="fill:#ffffff;"/>
   </g>
   <g id="matplotlib.axis_1">
    <g id="text_1">
     <!-- t -->
     <g transform="translate(227.19827 175.779541)scale(0.11 -0.11)">
      <defs>
       <path d="M 10.796875 46.6875 
L 2.875 46.6875 
L 2.875 51.90625 
L 10.796875 51.90625 
L 10.796875 68.015625 
L 19.828125 68.015625 
L 19.828125 51.90625 
L 36.71875 51.90625 
L 36.71875 46.6875 
L 19.828125 46.6875 
L 19.828125 13.71875 
Q 19.828125 7.125 21.09375 5.265625 
Q 22.359375 3.421875 25.78125 3.421875 
Q 29.296875 3.421875 30.90625 5.484375 
Q 32.515625 7.5625 32.625 12.203125 
L 39.40625 12.203125 
Q 39.015625 5.125 35.546875 1.84375 
Q 32.078125 -1.421875 25 -1.421875 
Q 17.234375 -1.421875 14.015625 2.015625 
Q 10.796875 5.46875 10.796875 13.71875 
z
" id="DejaVuSerif-116"/>
      </defs>
      <use xlink:href="#DejaVuSerif-116"/>
     </g>
    </g>
   </g>
   <g id="matplotlib.axis_2">
    <g id="text_2">
     <!-- V -->
     <g transform="translate(27.917733 20.817434)scale(0.11 -0.11)">
      <defs>
       <path d="M 17.484375 67.671875 
L 39.015625 11.71875 
L 60.5 67.671875 
L 52.296875 67.671875 
L 52.296875 72.90625 
L 73.6875 72.90625 
L 73.6875 67.671875 
L 66.609375 67.671875 
L 40.578125 0 
L 32.171875 0 
L 6.296875 67.671875 
L -0.984375 67.671875 
L -0.984375 72.90625 
L 25.59375 72.90625 
L 25.59375 67.671875 
z
" id="DejaVuSerif-86"/>
      </defs>
      <use xlink:href="#DejaVuSerif-86"/>
     </g>
    </g>
   </g>
   <g id="line2d_1">
    <defs>
     <path d="M 2.902354 -0 
C 2.103843 -0.19483 -1.406197 -1.298915 -3.6 -2.500432 
L -3.6 2.500432 
C -1.406197 1.298915 2.103843 0.19483 2.902354 -0 
" id="m58de491b04" style="stroke:#000000;"/>
    </defs>
    <g>
     <use style="stroke:#000000;" x="229.606299" xlink:href="#m58de491b04" y="160.854868"/>
    </g>
   </g>
   <g id="line2d_2">
    <defs>
     <path d="M 0 -2.902354 
C -0.19483 -2.103843 -1.298915 1.406197 -2.500432 3.6 
L 2.500432 3.6 
C 1.298915 1.406197 0.19483 -2.103843 0 -2.902354 
" id="m51cb9bf9e6" style="stroke:#000000;"/>
    </defs>
    <g>
     <use style="stroke:#000000;" x="40.876879" xlink:href="#m51cb9bf9e6" y="22.96063"/>
    </g>
   </g>
   <g id="line2d_3">
    <path clip-path="url(#p3bf5ad8960)" d="M 40.876879 29.527022 
L 42.692458 29.527022 
L 44.508037 29.527022 
L 46.323616 29.527022 
L 48.139194 29.527022 
L 49.954773 29.527022 
L 51.770352 29.527022 
L 53.585931 29.527022 
L 55.40151 29.527022 
L 57.217089 29.527022 
L 59.032667 29.527022 
L 60.848246 29.527022 
L 62.663825 29.527022 
L 64.479404 29.527022 
L 66.294983 29.527022 
L 68.110562 29.527022 
L 69.92614 29.527022 
L 71.741719 29.527022 
L 73.557298 29.527022 
L 75.372877 29.527022 
L 77.188456 29.527022 
L 79.004035 73.302971 
L 80.819613 73.302971 
L 82.635192 73.302971 
L 84.450771 73.302971 
L 86.26635 73.302971 
L 88.081929 73.302971 
L 89.897508 73.302971 
L 91.713086 73.302971 
L 93.528665 73.302971 
L 95.344244 73.302971 
L 97.159823 73.302971 
L 98.975402 73.302971 
L 100.790981 73.302971 
L 102.60656 73.302971 
L 104.422138 73.302971 
L 106.237717 73.302971 
L 108.053296 73.302971 
L 109.868875 73.302971 
L 111.684454 73.302971 
L 113.500033 73.302971 
L 115.315611 29.527022 
L 117.13119 29.527022 
L 118.946769 29.527022 
L 120.762348 29.527022 
L 122.577927 29.527022 
L 124.393506 29.527022 
L 126.209084 29.527022 
L 128.024663 29.527022 
L 129.840242 29.527022 
L 131.655821 29.527022 
L 133.4714 29.527022 
L 135.286979 29.527022 
L 137.102557 29.527022 
L 138.918136 29.527022 
L 140.733715 29.527022 
L 142.549294 29.527022 
L 144.364873 29.527022 
L 146.180452 29.527022 
L 147.99603 29.527022 
L 149.811609 29.527022 
L 151.627188 73.302971 
L 153.442767 73.302971 
L 155.258346 73.302971 
L 157.073925 73.302971 
L 158.889503 73.302971 
L 160.705082 73.302971 
L 162.520661 73.302971 
L 164.33624 73.302971 
L 166.151819 73.302971 
L 167.967398 73.302971 
L 169.782977 73.302971 
L 171.598555 73.302971 
L 173.414134 73.302971 
L 175.229713 73.302971 
L 177.045292 73.302971 
L 178.860871 73.302971 
L 180.67645 73.302971 
L 182.492028 73.302971 
L 184.307607 73.302971 
L 186.123186 73.302971 
L 187.938765 29.527022 
L 189.754344 29.527022 
L 191.569923 29.527022 
L 193.385501 29.527022 
L 195.20108 29.527022 
L 197.016659 29.527022 
L 198.832238 29.527022 
L 200.647817 29.527022 
L 202.463396 29.527022 
L 204.278974 29.527022 
L 206.094553 29.527022 
L 207.910132 29.527022 
L 209.725711 29.527022 
L 211.54129 29.527022 
L 213.356869 29.527022 
L 215.172447 29.527022 
L 216.988026 29.527022 
L 218.803605 29.527022 
L 220.619184 29.527022 
" style="fill:none;stroke:#7fa3ae;stroke-dasharray:;stroke-dashoffset:0;stroke-width:2;"/>
   </g>
   <g id="line2d_4">
    <path clip-path="url(#p3bf5ad8960)" d="M 40.876879 117.078919 
L 42.692458 117.078919 
L 44.508037 117.078919 
L 46.323616 117.078919 
L 48.139194 117.078919 
L 49.954773 117.078919 
L 51.770352 117.078919 
L 53.585931 117.078919 
L 55.40151 117.078919 
L 57.217089 117.078919 
L 59.032667 117.078919 
L 60.848246 117.078919 
L 62.663825 117.078919 
L 64.479404 117.078919 
L 66.294983 117.078919 
L 68.110562 117.078919 
L 69.92614 117.078919 
L 71.741719 117.078919 
L 73.557298 117.078919 
L 75.372877 117.078919 
L 77.188456 117.078919 
L 79.004035 117.078919 
L 80.819613 117.078919 
L 82.635192 117.078919 
L 84.450771 117.078919 
L 86.26635 117.078919 
L 88.081929 117.078919 
L 89.897508 117.078919 
L 91.713086 117.078919 
L 93.528665 117.078919 
L 95.344244 117.078919 
L 97.159823 117.078919 
L 98.975402 117.078919 
L 100.790981 117.078919 
L 102.60656 117.078919 
L 104.422138 117.078919 
L 106.237717 117.078919 
L 108.053296 117.078919 
L 109.868875 117.078919 
L 111.684454 117.078919 
L 113.500033 117.078919 
L 115.315611 160.854868 
L 117.13119 160.854868 
L 118.946769 160.854868 
L 120.762348 160.854868 
L 122.577927 160.854868 
L 124.393506 160.854868 
L 126.209084 160.854868 
L 128.024663 160.854868 
L 129.840242 160.854868 
L 131.655821 160.854868 
L 133.4714 160.854868 
L 135.286979 160.854868 
L 137.102557 160.854868 
L 138.918136 160.854868 
L 140.733715 160.854868 
L 142.549294 160.854868 
L 144.364873 160.854868 
L 146.180452 160.854868 
L 147.99603 160.854868 
L 149.811609 160.854868 
L 151.627188 160.854868 
L 153.442767 160.854868 
L 155.258346 160.854868 
L 157.073925 160.854868 
L 158.889503 160.854868 
L 160.705082 160.854868 
L 162.520661 160.854868 
L 164.33624 160.854868 
L 166.151819 160.854868 
L 167.967398 160.854868 
L 169.782977 160.854868 
L 171.598555 160.854868 
L 173.414134 160.854868 
L 175.229713 160.854868 
L 177.045292 160.854868 
L 178.860871 160.854868 
L 180.67645 160.854868 
L 182.492028 160.854868 
L 184.307607 160.854868 
L 186.123186 160.854868 
L 187.938765 117.078919 
L 189.754344 117.078919 
L 191.569923 117.078919 
L 193.385501 117.078919 
L 195.20108 117.078919 
L 197.016659 117.078919 
L 198.832238 117.078919 
L 200.647817 117.078919 
L 202.463396 117.078919 
L 204.278974 117.078919 
L 206.094553 117.078919 
L 207.910132 117.078919 
L 209.725711 117.078919 
L 211.54129 117.078919 
L 213.356869 117.078919 
L 215.172447 117.078919 
L 216.988026 117.078919 
L 218.803605 117.078919 
L 220.619184 117.078919 
" style="fill:none;stroke:#d69e70;stroke-dasharray:6.4,4.8;stroke-dashoffset:0;stroke-width:2;"/>
   </g>
   <g id="patch_3">
    <path d="M 40.876879 167.42126 
L 40.876879 22.96063 
" style="fill:none;stroke:#000000;stroke-linecap:square;stroke-linejoin:miter;stroke-width:0.9;"/>
   </g>
   <g id="patch_4">
    <path d="M 31.889764 160.854868 
L 229.606299 160.854868 
" style="fill:none;stroke:#000000;stroke-linecap:square;stroke-linejoin:miter;stroke-width:0.9;"/>
   </g>
  </g>
 </g>
 <defs>
  <clipPath id="p3bf5ad8960">
   <rect height="144.46063" width="197.716535" x="31.889764" y="22.96063"/>
  </clipPath>
 </defs>
</svg>
