<?xml version="1.0" encoding="UTF-8" standalone="no"?>
<svg
   xlink:href="/path/to/svg/image"
   xmlns:dc="http://purl.org/dc/elements/1.1/"
   xmlns:cc="http://creativecommons.org/ns#"
   xmlns:rdf="http://www.w3.org/1999/02/22-rdf-syntax-ns#"
   xmlns:svg="http://www.w3.org/2000/svg"
   xmlns="http://www.w3.org/2000/svg"
   width="70.352783"
   height="82.852783"
   viewBox="0 0 70.352783 82.852783"
   version="1.1"
   id="svg8">
  <defs
     id="defs2" />
  <metadata
     id="metadata5">
    <rdf:RDF>
      <cc:Work
         rdf:about="">
        <dc:format>image/svg+xml</dc:format>
        <dc:type
           rdf:resource="http://purl.org/dc/dcmitype/StillImage" />
        <dc:title></dc:title>
      </cc:Work>
    </rdf:RDF>
  </metadata>
  <g
     id="layer1"
     transform="translate(-71.412897,-84.817655)">
    <path
       id="path967"
       style="fill:none;stroke:#000000;stroke-width:0.352777;stroke-linecap:butt;stroke-linejoin:miter;stroke-miterlimit:10;stroke-dasharray:none;stroke-opacity:1"
       d="m 110.08927,106.49405 h -3.49998 m -35.000004,15.99999 h 35.000004 m 35,0 h -35 m 22.49999,0 V 92.494064 m 0,0 h -15.99999 m -6.5,74.999986 h 19.00043 m -19.00043,-63 h 6.5 m 0,0 V 84.994044 m 0,0 h -6.5 m 2.79467,25.500006 h -2.79467 m -6.5,-6 V 84.994044 m 6.5,82.500006 H 87.588816 m 19.600474,-54.99999 h -0.6 m -2.79471,-2.00001 h 2.79471 m -0.60001,0 v 2.00001 m -34.399994,15 v -5.00002 m 12.499975,0 V 92.494064 m 3.499555,74.999986 -3.499555,-39.99999 m 19.000009,-21.00001 0.70531,4 m 37.79471,17.00001 v -5.00002 m -38.50002,-15.99999 h 3.50002 m 0,-2 h -6.5 m 5.89999,8.00001 h 0.60001 m 0.6,-2.00001 v 2.00001 m -4.10002,-8.00001 v 2 m 7,0 -0.70531,4 M 84.089261,127.49406 H 71.589286 M 100.08929,84.994044 h 6.5 m -22.500029,7.50002 h 16.000029 m 28.99999,34.999996 h 12.50001 m -15.99957,39.99999 3.49956,-39.99999 m 0,0 h -22.49999 m -22.500029,0 h 22.500029 m 3.49998,-23.00001 v 2" />
  </g>
</svg>
