<?xml version="1.0" encoding="UTF-8" standalone="no"?>
<svg
   xmlns:dc="http://purl.org/dc/elements/1.1/"
   xmlns:cc="http://creativecommons.org/ns#"
   xmlns:rdf="http://www.w3.org/1999/02/22-rdf-syntax-ns#"
   xmlns:svg="http://www.w3.org/2000/svg"
   xmlns="http://www.w3.org/2000/svg"
   xmlns:xlink="http://www.w3.org/1999/xlink"
   xmlns:sodipodi="http://sodipodi.sourceforge.net/DTD/sodipodi-0.dtd"
   xmlns:inkscape="http://www.inkscape.org/namespaces/inkscape"
   inkscape:version="1.0 (4035a4fb49, 2020-05-01)"
   sodipodi:docname="op_amp_transfer_curr.svg"
   id="svg319"
   width="268.09116pt"
   viewBox="0 0 268.09116 199.71314"
   version="1.1"
   height="199.71313pt">
  <sodipodi:namedview
     fit-margin-bottom="0"
     fit-margin-right="0"
     fit-margin-left="0"
     fit-margin-top="0"
     inkscape:current-layer="svg319"
     inkscape:window-maximized="1"
     inkscape:window-y="-8"
     inkscape:window-x="-8"
     inkscape:cy="127.55905"
     inkscape:cx="187.37613"
     inkscape:zoom="2.9839121"
     showgrid="false"
     id="namedview321"
     inkscape:window-height="1377"
     inkscape:window-width="2560"
     inkscape:pageshadow="2"
     inkscape:pageopacity="0"
     guidetolerance="10"
     gridtolerance="10"
     objecttolerance="10"
     borderopacity="1"
     bordercolor="#666666"
     pagecolor="#ffffff" />
  <metadata
     id="metadata2">
    <rdf:RDF>
      <cc:Work>
        <dc:type
           rdf:resource="http://purl.org/dc/dcmitype/StillImage" />
        <dc:date>2020-12-02T14:15:27.836395</dc:date>
        <dc:format>image/svg+xml</dc:format>
        <dc:creator>
          <cc:Agent>
            <dc:title>Matplotlib v3.3.3, https://matplotlib.org/</dc:title>
          </cc:Agent>
        </dc:creator>
        <dc:title></dc:title>
      </cc:Work>
    </rdf:RDF>
  </metadata>
  <defs
     id="defs6">
    <style
       id="style4"
       type="text/css">*{stroke-linecap:butt;stroke-linejoin:round;}</style>
  </defs>
  <path
     id="path8"
     style="fill:none"
     d="M 12.973049,191.33858 H 268.09116 V 0 H 12.973049 Z" />
  <g
     transform="translate(12.973049)"
     id="patch_2">
    <path
       id="path11"
       style="fill:#ffffff"
       d="M 31.889764,167.42126 H 229.6063 V 22.96063 H 31.889764 Z" />
  </g>
  <g
     transform="translate(12.973049)"
     id="matplotlib.axis_1">
    <g
       id="xtick_1">
      <g
         id="line2d_1">
        <path
           id="path17"
           style="fill:none;stroke:#b0b0b0;stroke-width:0.8;stroke-linecap:square"
           d="M 80.819613,167.42126 V 22.96063"
           clip-path="url(#p4d1b27ad7d)" />
      </g>
      <g
         id="line2d_2">
        <defs
           id="defs21">
          <path
             style="stroke:#000000;stroke-width:0.8"
             id="m515860e0d7"
             d="M 0,0 V 3.5" />
        </defs>
        <g
           id="g25">
          <use
             height="100%"
             width="100%"
             id="use23"
             y="167.42126"
             xlink:href="#m515860e0d7"
             x="80.819611"
             style="stroke:#000000;stroke-width:0.8" />
        </g>
      </g>
      <g
         id="text_1">
        <!-- −100 -->
        <g
           id="g41"
           transform="matrix(0.11,0,0,-0.11,65.71266,182.77954)">
          <defs
             id="defs31">
            <path
               id="DejaVuSerif-8722"
               d="M 10.59375,35.296875 H 73.1875 v -7.90625 H 10.59375 Z" />
            <path
               id="DejaVuSerif-49"
               d="M 14.203125,0 V 5.171875 H 26.90625 v 60.65625 l -14.703125,-9.53125 v 6.40625 L 29.984375,74.21875 H 36.71875 V 5.171875 H 49.421875 V 0 Z" />
            <path
               id="DejaVuSerif-48"
               d="m 31.78125,3.421875 q 7.484375,0 11.1875,8.203125 3.71875,8.203125 3.71875,24.75 0,16.609375 -3.71875,24.8125 -3.703125,8.203125 -11.1875,8.203125 -7.46875,0 -11.1875,-8.203125 -3.703125,-8.203125 -3.703125,-24.8125 0,-16.546875 3.703125,-24.75 3.71875,-8.203125 11.1875,-8.203125 z m 0,-4.84375 Q 19.921875,-1.421875 13.25,8.53125 6.59375,18.5 6.59375,36.375 q 0,17.921875 6.65625,27.875 6.671875,9.96875 18.53125,9.96875 11.921875,0 18.5625,-9.96875 6.640625,-9.953125 6.640625,-27.875 0,-17.875 -6.640625,-27.84375 -6.640625,-9.953125 -18.5625,-9.953125 z" />
          </defs>
          <use
             height="100%"
             width="100%"
             y="0"
             x="0"
             id="use33"
             xlink:href="#DejaVuSerif-8722" />
          <use
             height="100%"
             width="100%"
             y="0"
             id="use35"
             xlink:href="#DejaVuSerif-49"
             x="83.789062" />
          <use
             height="100%"
             width="100%"
             y="0"
             id="use37"
             xlink:href="#DejaVuSerif-48"
             x="147.41211" />
          <use
             height="100%"
             width="100%"
             y="0"
             id="use39"
             xlink:href="#DejaVuSerif-48"
             x="211.03516" />
        </g>
      </g>
    </g>
    <g
       id="xtick_2">
      <g
         id="line2d_3">
        <path
           id="path45"
           style="fill:none;stroke:#b0b0b0;stroke-width:0.8;stroke-linecap:square"
           d="M 130.74803,167.42126 V 22.96063"
           clip-path="url(#p4d1b27ad7d)" />
      </g>
      <g
         id="line2d_4">
        <g
           id="g50">
          <use
             height="100%"
             width="100%"
             id="use48"
             y="167.42126"
             xlink:href="#m515860e0d7"
             x="130.74803"
             style="stroke:#000000;stroke-width:0.8" />
        </g>
      </g>
      <g
         id="text_2">
        <!-- 0 -->
        <g
           id="g55"
           transform="matrix(0.11,0,0,-0.11,127.24866,182.77954)">
          <use
             height="100%"
             width="100%"
             y="0"
             x="0"
             id="use53"
             xlink:href="#DejaVuSerif-48" />
        </g>
      </g>
    </g>
    <g
       id="xtick_3">
      <g
         id="line2d_5">
        <path
           id="path59"
           style="fill:none;stroke:#b0b0b0;stroke-width:0.8;stroke-linecap:square"
           d="M 180.67645,167.42126 V 22.96063"
           clip-path="url(#p4d1b27ad7d)" />
      </g>
      <g
         id="line2d_6">
        <g
           id="g64">
          <use
             height="100%"
             width="100%"
             id="use62"
             y="167.42126"
             xlink:href="#m515860e0d7"
             x="180.67645"
             style="stroke:#000000;stroke-width:0.8" />
        </g>
      </g>
      <g
         id="text_3">
        <!-- 100 -->
        <g
           id="g73"
           transform="matrix(0.11,0,0,-0.11,170.17832,182.77954)">
          <use
             height="100%"
             width="100%"
             y="0"
             x="0"
             id="use67"
             xlink:href="#DejaVuSerif-49" />
          <use
             height="100%"
             width="100%"
             y="0"
             id="use69"
             xlink:href="#DejaVuSerif-48"
             x="63.623047" />
          <use
             height="100%"
             width="100%"
             y="0"
             id="use71"
             xlink:href="#DejaVuSerif-48"
             x="127.24609" />
        </g>
      </g>
    </g>
    <g
       id="text_4">
      <!-- $V_D$ [$\mu V$] -->
      <g
         id="g99"
         transform="matrix(0.11,0,0,-0.11,110.56303,197.4272)">
        <defs
           id="defs83">
          <path
             id="DejaVuSans-Oblique-86"
             d="M 20.609375,0 7.8125,72.90625 h 9.671875 L 28.078125,10.203125 63.484375,72.90625 H 74.21875 L 32.078125,0 Z" />
          <path
             id="DejaVuSans-Oblique-68"
             d="M 16.890625,72.90625 H 38.09375 q 16.890625,0 25.5,-7.15625 8.625,-7.15625 8.625,-21.265625 0,-9.328125 -3.28125,-17.953125 Q 65.671875,17.921875 59.90625,12.015625 54.109375,5.953125 45.171875,2.96875 36.234375,0 24.03125,0 H 2.6875 Z m 8.3125,-8.109375 -11,-56.6875 H 27.09375 q 16.5625,0 25.640625,9.515625 9.078125,9.53125 9.078125,26.859375 0,10.5 -5.859375,15.40625 -5.859375,4.90625 -18.359375,4.90625 z" />
          <path
             d=""
             id="DejaVuSerif-32" />
          <path
             id="DejaVuSerif-91"
             d="m 8.59375,75.984375 h 22.703125 v -5.1875 h -13.375 v -78.8125 h 13.375 V -13.1875 H 8.59375 Z" />
          <path
             id="DejaVuSans-Oblique-956"
             d="M -1.3125,-20.796875 13.375,54.6875 h 9.03125 L 15.765625,20.65625 q -0.1875,-1.03125 -0.34375,-2.296875 -0.140625,-1.265625 -0.140625,-2.53125 0,-4.546875 2.859375,-7 Q 21,6.390625 26.3125,6.390625 q 7.234375,0 11.671875,4.09375 Q 42.4375,14.59375 44,22.796875 L 50.203125,54.6875 H 59.1875 L 51.03125,12.640625 Q 50.828125,11.71875 50.75,11.03125 50.6875,10.359375 50.6875,9.8125 q 0,-1.515625 0.609375,-2.21875 0.609375,-0.703125 1.921875,-0.703125 0.5,0 1.34375,0.234375 0.859375,0.25 2.421875,0.890625 l -1.375,-7.234375 q -2.140625,-1.078125 -4.09375,-1.640625 -1.953125,-0.5625 -3.8125,-0.5625 -3.21875,0 -5.046875,2.046875 -1.828125,2.0625 -1.828125,5.671875 -2.734375,-3.90625 -6.53125,-5.8125 -3.78125,-1.90625 -8.90625,-1.90625 -4.546875,0 -7.9375,2.09375 -3.390625,2.109375 -4.46875,5.53125 l -5.265625,-27 z" />
          <path
             id="DejaVuSerif-93"
             d="M 30.421875,75.984375 V -13.1875 H 7.71875 v 5.171875 h 13.375 v 78.8125 h -13.375 v 5.1875 z" />
        </defs>
        <use
           height="100%"
           width="100%"
           y="0"
           x="0"
           id="use85"
           xlink:href="#DejaVuSans-Oblique-86"
           transform="translate(0,0.015625)" />
        <use
           height="100%"
           width="100%"
           y="0"
           x="0"
           id="use87"
           xlink:href="#DejaVuSans-Oblique-68"
           transform="matrix(0.7,0,0,0.7,68.408203,-16.390625)" />
        <use
           height="100%"
           width="100%"
           y="0"
           x="0"
           id="use89"
           xlink:href="#DejaVuSerif-32"
           transform="translate(125.04394,0.015625)" />
        <use
           height="100%"
           width="100%"
           y="0"
           x="0"
           id="use91"
           xlink:href="#DejaVuSerif-91"
           transform="translate(156.83105,0.015625)" />
        <use
           height="100%"
           width="100%"
           y="0"
           x="0"
           id="use93"
           xlink:href="#DejaVuSans-Oblique-956"
           transform="translate(195.84473,0.015625)" />
        <use
           height="100%"
           width="100%"
           y="0"
           x="0"
           id="use95"
           xlink:href="#DejaVuSans-Oblique-86"
           transform="translate(259.46777,0.015625)" />
        <use
           height="100%"
           width="100%"
           y="0"
           x="0"
           id="use97"
           xlink:href="#DejaVuSerif-93"
           transform="translate(327.87598,0.015625)" />
      </g>
    </g>
  </g>
  <g
     transform="translate(12.973049)"
     id="matplotlib.axis_2">
    <g
       id="ytick_1">
      <g
         id="line2d_7">
        <path
           id="path103"
           style="fill:none;stroke:#b0b0b0;stroke-width:0.8;stroke-linecap:square"
           d="M 31.889764,149.91091 H 229.6063"
           clip-path="url(#p4d1b27ad7d)" />
      </g>
      <g
         id="line2d_8">
        <defs
           id="defs107">
          <path
             style="stroke:#000000;stroke-width:0.8"
             id="m9c5a400069"
             d="M 0,0 H -3.5" />
        </defs>
        <g
           id="g111">
          <use
             height="100%"
             width="100%"
             id="use109"
             y="149.91092"
             xlink:href="#m9c5a400069"
             x="31.889765"
             style="stroke:#000000;stroke-width:0.8" />
        </g>
      </g>
      <g
         id="text_5">
        <!-- −10 -->
        <g
           id="g120"
           transform="matrix(0.11,0,0,-0.11,1.674608,154.09005)">
          <use
             height="100%"
             width="100%"
             y="0"
             x="0"
             id="use114"
             xlink:href="#DejaVuSerif-8722" />
          <use
             height="100%"
             width="100%"
             y="0"
             id="use116"
             xlink:href="#DejaVuSerif-49"
             x="83.789062" />
          <use
             height="100%"
             width="100%"
             y="0"
             id="use118"
             xlink:href="#DejaVuSerif-48"
             x="147.41211" />
        </g>
      </g>
    </g>
    <g
       id="ytick_2">
      <g
         id="line2d_9">
        <path
           id="path124"
           style="fill:none;stroke:#b0b0b0;stroke-width:0.8;stroke-linecap:square"
           d="M 31.889764,122.55093 H 229.6063"
           clip-path="url(#p4d1b27ad7d)" />
      </g>
      <g
         id="line2d_10">
        <g
           id="g129">
          <use
             height="100%"
             width="100%"
             id="use127"
             y="122.55093"
             xlink:href="#m9c5a400069"
             x="31.889765"
             style="stroke:#000000;stroke-width:0.8" />
        </g>
      </g>
      <g
         id="text_6">
        <!-- −5 -->
        <g
           id="g139"
           transform="matrix(0.11,0,0,-0.11,8.673358,126.73007)">
          <defs
             id="defs133">
            <path
               id="DejaVuSerif-53"
               d="M 50.296875,72.90625 V 64.890625 H 16.890625 V 44 q 2.546875,1.75 5.9375,2.625 3.390625,0.890625 7.59375,0.890625 11.8125,0 18.640625,-6.546875 6.84375,-6.546875 6.84375,-17.875 0,-11.5625 -6.90625,-18.046875 -6.90625,-6.46875 -19.40625,-6.46875 -5.03125,0 -10.3125,1.234375 Q 14.015625,1.03125 8.5,3.515625 v 14.15625 h 5.515625 q 0.4375,-6.921875 4.40625,-10.59375 3.984375,-3.65625 11.171875,-3.65625 7.71875,0 11.859375,5.078125 4.15625,5.078125 4.15625,14.59375 0,9.46875 -4.125,14.515625 -4.125,5.0625 -11.890625,5.0625 -4.390625,0 -7.75,-1.5625 Q 18.5,39.546875 15.921875,36.28125 H 11.71875 v 36.625 z" />
          </defs>
          <use
             height="100%"
             width="100%"
             y="0"
             x="0"
             id="use135"
             xlink:href="#DejaVuSerif-8722" />
          <use
             height="100%"
             width="100%"
             y="0"
             id="use137"
             xlink:href="#DejaVuSerif-53"
             x="83.789062" />
        </g>
      </g>
    </g>
    <g
       id="ytick_3">
      <g
         id="line2d_11">
        <path
           id="path143"
           style="fill:none;stroke:#b0b0b0;stroke-width:0.8;stroke-linecap:square"
           d="M 31.889764,95.190945 H 229.6063"
           clip-path="url(#p4d1b27ad7d)" />
      </g>
      <g
         id="line2d_12">
        <g
           id="g148">
          <use
             height="100%"
             width="100%"
             id="use146"
             y="95.190948"
             xlink:href="#m9c5a400069"
             x="31.889765"
             style="stroke:#000000;stroke-width:0.8" />
        </g>
      </g>
      <g
         id="text_7">
        <!-- 0 -->
        <g
           id="g153"
           transform="matrix(0.11,0,0,-0.11,17.891014,99.370086)">
          <use
             height="100%"
             width="100%"
             y="0"
             x="0"
             id="use151"
             xlink:href="#DejaVuSerif-48" />
        </g>
      </g>
    </g>
    <g
       id="ytick_4">
      <g
         id="line2d_13">
        <path
           id="path157"
           style="fill:none;stroke:#b0b0b0;stroke-width:0.8;stroke-linecap:square"
           d="M 31.889764,67.83096 H 229.6063"
           clip-path="url(#p4d1b27ad7d)" />
      </g>
      <g
         id="line2d_14">
        <g
           id="g162">
          <use
             height="100%"
             width="100%"
             id="use160"
             y="67.830963"
             xlink:href="#m9c5a400069"
             x="31.889765"
             style="stroke:#000000;stroke-width:0.8" />
        </g>
      </g>
      <g
         id="text_8">
        <!-- 5 -->
        <g
           id="g167"
           transform="matrix(0.11,0,0,-0.11,17.891014,72.010101)">
          <use
             height="100%"
             width="100%"
             y="0"
             x="0"
             id="use165"
             xlink:href="#DejaVuSerif-53" />
        </g>
      </g>
    </g>
    <g
       id="ytick_5">
      <g
         id="line2d_15">
        <path
           id="path171"
           style="fill:none;stroke:#b0b0b0;stroke-width:0.8;stroke-linecap:square"
           d="M 31.889764,40.470976 H 229.6063"
           clip-path="url(#p4d1b27ad7d)" />
      </g>
      <g
         id="line2d_16">
        <g
           id="g176">
          <use
             height="100%"
             width="100%"
             id="use174"
             y="40.470978"
             xlink:href="#m9c5a400069"
             x="31.889765"
             style="stroke:#000000;stroke-width:0.8" />
        </g>
      </g>
      <g
         id="text_9">
        <!-- 10 -->
        <g
           id="g183"
           transform="matrix(0.11,0,0,-0.11,10.892264,44.650117)">
          <use
             height="100%"
             width="100%"
             y="0"
             x="0"
             id="use179"
             xlink:href="#DejaVuSerif-49" />
          <use
             height="100%"
             width="100%"
             y="0"
             id="use181"
             xlink:href="#DejaVuSerif-48"
             x="63.623047" />
        </g>
      </g>
    </g>
    <g
       id="text_10">
      <!-- $I_o$ [$mA$] -->
      <g
         id="g207"
         transform="matrix(0,-0.11,-0.11,0,-4.613049,114.49595)">
        <defs
           id="defs191">
          <path
             id="DejaVuSans-Oblique-73"
             d="M 16.890625,72.90625 H 26.8125 L 12.59375,0 H 2.6875 Z" />
          <path
             id="DejaVuSans-Oblique-111"
             d="m 25.390625,-1.421875 q -9.625,0 -15.21875,5.9375 -5.578125,5.9375 -5.578125,16.1875 0,5.953125 1.921875,12.125 1.9375,6.1875 5.015625,10.390625 Q 16.359375,49.75 22.3125,52.875 28.265625,56 35.796875,56 q 9.328125,0 15.0625,-5.8125 5.734375,-5.796875 5.734375,-15.171875 0,-6.5 -1.90625,-12.953125 Q 52.78125,15.625 49.703125,11.375 44.921875,4.828125 38.96875,1.703125 q -5.953125,-3.125 -13.578125,-3.125 z M 13.921875,21 q 0,-7.421875 3.09375,-11.109375 3.109375,-3.6875 9.40625,-3.6875 9.03125,0 14.953125,7.875 5.9375,7.890625 5.9375,20 0,7.078125 -3.171875,10.6875 -3.171875,3.625 -9.328125,3.625 -5.078125,0 -9.03125,-2.375 Q 21.828125,43.65625 18.703125,38.8125 16.40625,35.203125 15.15625,30.5625 13.921875,25.921875 13.921875,21 Z" />
          <path
             id="DejaVuSans-Oblique-109"
             d="M 89.796875,33.015625 83.40625,0 h -8.984375 l 6.296875,32.71875 q 0.390625,2.09375 0.578125,3.609375 Q 81.5,37.84375 81.5,38.921875 81.5,43.3125 79.046875,45.75 q -2.4375,2.4375 -6.828125,2.4375 -6.546875,0 -11.671875,-4.90625 -5.125,-4.90625 -6.640625,-12.765625 L 47.90625,0 H 38.921875 L 45.3125,32.71875 q 0.390625,1.796875 0.578125,3.328125 0.203125,1.546875 0.203125,2.765625 0,4.453125 -2.4375,6.90625 -2.4375,2.46875 -6.734375,2.46875 -6.640625,0 -11.78125,-4.90625 Q 20.015625,38.375 18.5,30.515625 L 12.5,0 H 3.515625 l 10.6875,54.6875 H 23.1875 l -1.703125,-8.5 q 3.65625,4.796875 8.5625,7.296875 Q 34.96875,56 40.578125,56 q 5.953125,0 9.78125,-3.125 3.84375,-3.125 4.625,-8.6875 4.09375,5.765625 9.484375,8.78125 Q 69.875,56 75.875,56 q 7.03125,0 10.859375,-4.046875 3.84375,-4.046875 3.84375,-11.46875 0,-1.609375 -0.203125,-3.546875 -0.1875,-1.921875 -0.578125,-3.921875 z" />
          <path
             id="DejaVuSans-Oblique-65"
             d="M 36.8125,72.90625 H 48 L 61.53125,0 H 51.21875 L 48.1875,18.703125 H 15.375 L 5.078125,0 H -5.328125 Z M 40.375,63.1875 19.921875,26.90625 H 46.6875 Z" />
        </defs>
        <use
           height="100%"
           width="100%"
           y="0"
           x="0"
           id="use193"
           xlink:href="#DejaVuSans-Oblique-73"
           transform="translate(0,0.015625)" />
        <use
           height="100%"
           width="100%"
           y="0"
           x="0"
           id="use195"
           xlink:href="#DejaVuSans-Oblique-111"
           transform="matrix(0.7,0,0,0.7,29.492188,-16.390625)" />
        <use
           height="100%"
           width="100%"
           y="0"
           x="0"
           id="use197"
           xlink:href="#DejaVuSerif-32"
           transform="translate(75.053711,0.015625)" />
        <use
           height="100%"
           width="100%"
           y="0"
           x="0"
           id="use199"
           xlink:href="#DejaVuSerif-91"
           transform="translate(106.84082,0.015625)" />
        <use
           height="100%"
           width="100%"
           y="0"
           x="0"
           id="use201"
           xlink:href="#DejaVuSans-Oblique-109"
           transform="translate(145.85449,0.015625)" />
        <use
           height="100%"
           width="100%"
           y="0"
           x="0"
           id="use203"
           xlink:href="#DejaVuSans-Oblique-65"
           transform="translate(243.2666,0.015625)" />
        <use
           height="100%"
           width="100%"
           y="0"
           x="0"
           id="use205"
           xlink:href="#DejaVuSerif-93"
           transform="translate(311.6748,0.015625)" />
      </g>
    </g>
  </g>
  <g
     transform="translate(12.973049)"
     id="patch_4">
    <path
       id="path214"
       style="fill:none;stroke:#000000;stroke-width:0.8;stroke-linecap:square;stroke-linejoin:miter"
       d="M 31.889764,167.42126 V 22.96063" />
  </g>
  <g
     transform="translate(12.973049)"
     id="patch_5">
    <path
       id="path217"
       style="fill:none;stroke:#000000;stroke-width:0.8;stroke-linecap:square;stroke-linejoin:miter"
       d="M 229.6063,167.42126 V 22.96063" />
  </g>
  <g
     transform="translate(12.973049)"
     id="patch_6">
    <path
       id="path220"
       style="fill:none;stroke:#000000;stroke-width:0.8;stroke-linecap:square;stroke-linejoin:miter"
       d="M 31.889764,167.42126 H 229.6063" />
  </g>
  <g
     transform="translate(12.973049)"
     id="patch_7">
    <path
       id="path223"
       style="fill:none;stroke:#000000;stroke-width:0.8;stroke-linecap:square;stroke-linejoin:miter"
       d="M 31.889764,22.96063 H 229.6063" />
  </g>
  <g
     transform="translate(12.973049)"
     id="text_11">
    <g
       id="patch_8">
      <path
         id="path226"
         style="fill:#d3e3eb"
         d="m 40.832008,56.640412 h 43.910625 q 3.3,0 3.3,-3.3 V 30.376881 q 0,-3.3 -3.3,-3.3 H 40.832008 q -3.3,0 -3.3,3.3 v 22.963531 q 0,3.3 3.3,3.3 z" />
    </g>
    <!-- VC-OPA -->
    <g
       id="g249"
       transform="matrix(0.11,0,0,-0.11,40.832008,38.735162)">
      <defs
         id="defs235">
        <path
           id="DejaVuSerif-86"
           d="M 17.484375,67.671875 39.015625,11.71875 60.5,67.671875 H 52.296875 V 72.90625 H 73.6875 V 67.671875 H 66.609375 L 40.578125,0 h -8.40625 l -25.875,67.671875 h -7.28125 V 72.90625 H 25.59375 v -5.234375 z" />
        <path
           id="DejaVuSerif-67"
           d="M 70.515625,19.28125 Q 67.28125,9.078125 59.6875,3.828125 q -7.59375,-5.25 -19.203125,-5.25 -7.140625,0 -13.25,2.4375 -6.09375,2.453125 -10.828125,7.1875 -5.46875,5.46875 -8.140625,12.421875 -2.65625,6.96875 -2.65625,15.75 0,17 9.8125,27.421875 Q 25.25,74.21875 41.3125,74.21875 q 5.953125,0 12.6875,-1.5625 6.75,-1.5625 14.5,-4.734375 V 51.125 h -5.515625 q -1.796875,9.171875 -7.25,13.515625 Q 50.296875,69 40.484375,69 28.8125,69 22.796875,60.71875 q -6,-8.28125 -6,-24.34375 0,-16.015625 6,-24.296875 Q 28.8125,3.8125 40.484375,3.8125 q 8.15625,0 13.421875,3.875 5.28125,3.890625 7.625,11.59375 z" />
        <path
           id="DejaVuSerif-45"
           d="m 4.390625,30.609375 h 25 V 23 h -25 z" />
        <path
           id="DejaVuSerif-79"
           d="m 41.015625,3.8125 q 11.96875,0 18.0625,8.21875 6.109375,8.234375 6.109375,24.34375 0,16.171875 -6.109375,24.390625 Q 52.984375,69 41.015625,69 29,69 22.890625,60.765625 16.796875,52.546875 16.796875,36.375 q 0,-16.109375 6.09375,-24.34375 Q 29,3.8125 41.015625,3.8125 Z m 0,-5.234375 q -7.421875,0 -13.65625,2.4375 -6.21875,2.453125 -10.953125,7.1875 -5.46875,5.46875 -8.140625,12.40625 -2.65625,6.9375 -2.65625,15.765625 0,8.84375 2.65625,15.796875 2.671875,6.953125 8.140625,12.421875 4.78125,4.796875 10.9375,7.203125 6.15625,2.421875 13.671875,2.421875 15.875,0 25.640625,-10.40625 9.765625,-10.390625 9.765625,-27.4375 0,-8.734375 -2.6875,-15.75 -2.6875,-7 -8.15625,-12.421875 Q 60.796875,3.421875 54.640625,1 q -6.15625,-2.421875 -13.625,-2.421875 z" />
        <path
           id="DejaVuSerif-80"
           d="M 24.703125,37.109375 H 37.59375 q 7.28125,0 11.078125,3.921875 3.8125,3.9375 3.8125,11.359375 0,7.46875 -3.8125,11.375 -3.796875,3.90625 -11.078125,3.90625 H 24.703125 Z M 5.515625,0 v 5.171875 h 9.28125 v 62.5 h -9.28125 v 5.234375 h 34.46875 q 10.9375,0 17.328125,-5.546875 6.40625,-5.546875 6.40625,-14.96875 0,-9.375 -6.40625,-14.9375 -6.390625,-5.5625 -17.328125,-5.5625 H 24.703125 V 5.171875 h 11.28125 V 0 Z" />
        <path
           id="DejaVuSerif-65"
           d="M 20.015625,26.421875 H 46.78125 l -13.375,34.65625 z M -0.59375,0 V 5.171875 H 5.8125 L 31.78125,72.90625 h 8.203125 L 66.015625,5.171875 H 73.1875 V 0 h -26.5 v 5.171875 h 8.09375 L 48.6875,21.1875 H 18.015625 L 11.921875,5.171875 h 8 V 0 Z" />
      </defs>
      <use
         height="100%"
         width="100%"
         y="0"
         x="0"
         id="use237"
         xlink:href="#DejaVuSerif-86" />
      <use
         height="100%"
         width="100%"
         y="0"
         id="use239"
         xlink:href="#DejaVuSerif-67"
         x="72.216797" />
      <use
         height="100%"
         width="100%"
         y="0"
         id="use241"
         xlink:href="#DejaVuSerif-45"
         x="148.73047" />
      <use
         height="100%"
         width="100%"
         y="0"
         id="use243"
         xlink:href="#DejaVuSerif-79"
         x="182.51953" />
      <use
         height="100%"
         width="100%"
         y="0"
         id="use245"
         xlink:href="#DejaVuSerif-80"
         x="264.50195" />
      <use
         height="100%"
         width="100%"
         y="0"
         id="use247"
         xlink:href="#DejaVuSerif-65"
         x="322.66211" />
    </g>
    <!-- CC-OPA -->
    <g
       id="g263"
       transform="matrix(0.11,0,0,-0.11,40.832008,51.052756)">
      <use
         height="100%"
         width="100%"
         y="0"
         x="0"
         id="use251"
         xlink:href="#DejaVuSerif-67" />
      <use
         height="100%"
         width="100%"
         y="0"
         id="use253"
         xlink:href="#DejaVuSerif-67"
         x="76.513672" />
      <use
         height="100%"
         width="100%"
         y="0"
         id="use255"
         xlink:href="#DejaVuSerif-45"
         x="153.02734" />
      <use
         height="100%"
         width="100%"
         y="0"
         id="use257"
         xlink:href="#DejaVuSerif-79"
         x="186.81641" />
      <use
         height="100%"
         width="100%"
         y="0"
         id="use259"
         xlink:href="#DejaVuSerif-80"
         x="268.79883" />
      <use
         height="100%"
         width="100%"
         y="0"
         id="use261"
         xlink:href="#DejaVuSerif-65"
         x="326.95898" />
    </g>
  </g>
  <g
     transform="translate(12.973049)"
     id="text_12">
    <g
       id="patch_9">
      <path
         id="path266"
         style="fill:#ffffff"
         d="m 42.270404,156.61531 h 27.17 v -11.22 h -27.17 z" />
    </g>
    <!-- $I_{o,\min}$ -->
    <g
       id="g287"
       transform="matrix(0.11,0,0,-0.11,42.490404,153.64531)">
      <defs
         id="defs273">
        <path
           id="DejaVuSans-44"
           d="M 11.71875,12.40625 H 22.015625 V 4 l -8,-15.625 H 7.71875 l 4,15.625 z" />
        <path
           id="DejaVuSans-109"
           d="M 52,44.1875 Q 55.375,50.25 60.0625,53.125 64.75,56 71.09375,56 q 8.546875,0 13.1875,-5.984375 4.640625,-5.96875 4.640625,-17 V 0 h -9.03125 v 32.71875 q 0,7.859375 -2.796875,11.65625 -2.78125,3.8125 -8.484375,3.8125 -6.984375,0 -11.046875,-4.640625 -4.046875,-4.625 -4.046875,-12.640625 V 0 h -9.03125 v 32.71875 q 0,7.90625 -2.78125,11.6875 -2.78125,3.78125 -8.59375,3.78125 -6.890625,0 -10.953125,-4.65625 -4.046875,-4.65625 -4.046875,-12.625 V 0 h -9.03125 v 54.6875 h 9.03125 v -8.5 q 3.078125,5.03125 7.375,7.421875 Q 29.78125,56 35.6875,56 41.65625,56 45.828125,52.96875 50,49.953125 52,44.1875 Z" />
        <path
           id="DejaVuSans-105"
           d="M 9.421875,54.6875 H 18.40625 V 0 H 9.421875 Z m 0,21.296875 H 18.40625 V 64.59375 H 9.421875 Z" />
        <path
           id="DejaVuSans-110"
           d="M 54.890625,33.015625 V 0 H 45.90625 v 32.71875 q 0,7.765625 -3.03125,11.609375 -3.03125,3.859375 -9.078125,3.859375 -7.28125,0 -11.484375,-4.640625 -4.203125,-4.625 -4.203125,-12.640625 V 0 h -9.03125 v 54.6875 h 9.03125 v -8.5 q 3.234375,4.9375 7.59375,7.375 4.375,2.4375 10.09375,2.4375 9.421875,0 14.25,-5.828125 4.84375,-5.828125 4.84375,-17.15625 z" />
      </defs>
      <use
         height="100%"
         width="100%"
         y="0"
         x="0"
         id="use275"
         xlink:href="#DejaVuSans-Oblique-73"
         transform="translate(0,0.09375)" />
      <use
         height="100%"
         width="100%"
         y="0"
         x="0"
         id="use277"
         xlink:href="#DejaVuSans-Oblique-111"
         transform="matrix(0.7,0,0,0.7,29.492188,-16.3125)" />
      <use
         height="100%"
         width="100%"
         y="0"
         x="0"
         id="use279"
         xlink:href="#DejaVuSans-44"
         transform="matrix(0.7,0,0,0.7,72.319336,-16.3125)" />
      <use
         height="100%"
         width="100%"
         y="0"
         x="0"
         id="use281"
         xlink:href="#DejaVuSans-109"
         transform="matrix(0.7,0,0,0.7,108.20801,-16.3125)" />
      <use
         height="100%"
         width="100%"
         y="0"
         x="0"
         id="use283"
         xlink:href="#DejaVuSans-105"
         transform="matrix(0.7,0,0,0.7,176.39648,-16.3125)" />
      <use
         height="100%"
         width="100%"
         y="0"
         x="0"
         id="use285"
         xlink:href="#DejaVuSans-110"
         transform="matrix(0.7,0,0,0.7,195.84473,-16.3125)" />
    </g>
  </g>
  <g
     transform="translate(12.973049)"
     id="text_13">
    <g
       id="patch_10">
      <path
         id="path290"
         style="fill:#ffffff"
         d="m 190.90066,44.986577 h 29.48 v -11.22 h -29.48 z" />
    </g>
    <!-- $I_{o,\max}$ -->
    <g
       id="g309"
       transform="matrix(0.11,0,0,-0.11,191.12066,42.016577)">
      <defs
         id="defs295">
        <path
           id="DejaVuSans-97"
           d="m 34.28125,27.484375 q -10.890625,0 -15.09375,-2.484375 -4.203125,-2.484375 -4.203125,-8.5 0,-4.78125 3.15625,-7.59375 3.15625,-2.796875 8.5625,-2.796875 7.484375,0 12,5.296875 4.515625,5.296875 4.515625,14.078125 v 2 z m 17.921875,3.71875 V 0 H 43.21875 v 8.296875 q -3.078125,-4.96875 -7.671875,-7.34375 -4.59375,-2.375 -11.234375,-2.375 -8.390625,0 -13.359375,4.71875 Q 6,8.015625 6,15.921875 q 0,9.21875 6.171875,13.90625 6.1875,4.6875 18.4375,4.6875 H 43.21875 v 0.890625 q 0,6.203125 -4.078125,9.59375 -4.078125,3.390625 -11.453125,3.390625 -4.6875,0 -9.140625,-1.125 -4.4375,-1.125 -8.53125,-3.375 v 8.3125 q 4.921875,1.90625 9.5625,2.84375 Q 24.21875,56 28.609375,56 q 11.875,0 17.734375,-6.15625 5.859375,-6.140625 5.859375,-18.640625 z" />
        <path
           id="DejaVuSans-120"
           d="M 54.890625,54.6875 35.109375,28.078125 55.90625,0 H 45.3125 L 29.390625,21.484375 13.484375,0 H 2.875 L 24.125,28.609375 4.6875,54.6875 h 10.59375 l 14.5,-19.484375 14.5,19.484375 z" />
      </defs>
      <use
         height="100%"
         width="100%"
         y="0"
         x="0"
         id="use297"
         xlink:href="#DejaVuSans-Oblique-73"
         transform="translate(0,0.09375)" />
      <use
         height="100%"
         width="100%"
         y="0"
         x="0"
         id="use299"
         xlink:href="#DejaVuSans-Oblique-111"
         transform="matrix(0.7,0,0,0.7,29.492188,-16.3125)" />
      <use
         height="100%"
         width="100%"
         y="0"
         x="0"
         id="use301"
         xlink:href="#DejaVuSans-44"
         transform="matrix(0.7,0,0,0.7,72.319336,-16.3125)" />
      <use
         height="100%"
         width="100%"
         y="0"
         x="0"
         id="use303"
         xlink:href="#DejaVuSans-109"
         transform="matrix(0.7,0,0,0.7,108.20801,-16.3125)" />
      <use
         height="100%"
         width="100%"
         y="0"
         x="0"
         id="use305"
         xlink:href="#DejaVuSans-97"
         transform="matrix(0.7,0,0,0.7,176.39648,-16.3125)" />
      <use
         height="100%"
         width="100%"
         y="0"
         x="0"
         id="use307"
         xlink:href="#DejaVuSans-120"
         transform="matrix(0.7,0,0,0.7,219.29199,-16.3125)" />
    </g>
  </g>
  <defs
     id="defs317">
    <clipPath
       id="p4d1b27ad7d">
      <rect
         id="rect314"
         y="22.96063"
         x="31.889765"
         width="197.71654"
         height="144.46063" />
    </clipPath>
  </defs>
  <g
     transform="translate(12.973049)"
     id="patch_3">
    <path
       id="path14"
       style="fill:none;stroke:#000000;stroke-width:2;stroke-linejoin:miter;stroke-dasharray:2, 3.3;stroke-dashoffset:0"
       d="m 130.74803,95.190945 h 45.76774 V 40.470976 h -45.76774 z"
       clip-path="url(#p4d1b27ad7d)" />
  </g>
  <g
     transform="translate(12.973049)"
     id="line2d_17">
    <path
       id="path211"
       style="fill:none;stroke:#7fa3ae;stroke-width:2;stroke-dashoffset:0"
       d="m 40.876879,160.85487 17.191829,-0.11177 5.19366,-0.25984 3.709705,-0.40043 2.991813,-0.54085 2.558635,-0.68436 2.269967,-0.83454 2.067578,-0.99546 1.922346,-1.17194 1.817736,-1.36939 1.742783,-1.59332 1.690478,-1.84999 45.503791,-54.404358 49.626,-59.159778 1.77459,-1.617977 1.83733,-1.376277 1.92684,-1.166053 2.05158,-0.980809 2.22485,-0.814993 2.46769,-0.663515 2.81836,-0.522229 3.35472,-0.387845 4.27158,-0.25849 6.25,-0.134614 12.47844,-0.02902 v 0"
       clip-path="url(#p4d1b27ad7d)" />
  </g>
</svg>
