<?xml version="1.0" encoding="UTF-8" standalone="no"?>
<svg
   xmlns:dc="http://purl.org/dc/elements/1.1/"
   xmlns:cc="http://creativecommons.org/ns#"
   xmlns:rdf="http://www.w3.org/1999/02/22-rdf-syntax-ns#"
   xmlns:svg="http://www.w3.org/2000/svg"
   xmlns="http://www.w3.org/2000/svg"
   xmlns:xlink="http://www.w3.org/1999/xlink"
   xmlns:sodipodi="http://sodipodi.sourceforge.net/DTD/sodipodi-0.dtd"
   xmlns:inkscape="http://www.inkscape.org/namespaces/inkscape"
   inkscape:version="1.0 (4035a4fb49, 2020-05-01)"
   sodipodi:docname="plot_lsberr.svg"
   id="svg326"
   width="348.07111pt"
   viewBox="0 0 348.07112 255.11811"
   version="1.1"
   height="255.1181pt">
  <sodipodi:namedview
     inkscape:current-layer="svg326"
     inkscape:window-maximized="1"
     inkscape:window-y="-8"
     inkscape:window-x="-8"
     inkscape:cy="170.07874"
     inkscape:cx="237.32314"
     inkscape:zoom="2.3128994"
     fit-margin-bottom="0"
     fit-margin-right="0"
     fit-margin-left="0"
     fit-margin-top="0"
     showgrid="false"
     id="namedview328"
     inkscape:window-height="1377"
     inkscape:window-width="2560"
     inkscape:pageshadow="2"
     inkscape:pageopacity="0"
     guidetolerance="10"
     gridtolerance="10"
     objecttolerance="10"
     borderopacity="1"
     bordercolor="#666666"
     pagecolor="#ffffff" />
  <metadata
     id="metadata2">
    <rdf:RDF>
      <cc:Work>
        <dc:type
           rdf:resource="http://purl.org/dc/dcmitype/StillImage" />
        <dc:date>2020-11-16T14:18:04.845992</dc:date>
        <dc:format>image/svg+xml</dc:format>
        <dc:creator>
          <cc:Agent>
            <dc:title>Matplotlib v3.3.2, https://matplotlib.org/</dc:title>
          </cc:Agent>
        </dc:creator>
        <dc:title></dc:title>
      </cc:Work>
    </rdf:RDF>
  </metadata>
  <defs
     id="defs6">
    <style
       id="style4"
       type="text/css">*{stroke-linecap:butt;stroke-linejoin:round;}</style>
  </defs>
  <g
     transform="translate(7.913622)"
     id="figure_1">
    <g
       id="patch_1">
      <path
         id="path8"
         style="fill:none"
         d="M 0,255.11811 H 340.15748 V 0 H 0 Z" />
    </g>
    <g
       id="axes_1">
      <g
         id="patch_2">
        <path
           id="path11"
           style="fill:#ffffff"
           d="M 42.519685,153.67323 H 306.14173 V 30.614173 H 42.519685 Z" />
      </g>
      <g
         id="matplotlib.axis_1">
        <g
           id="xtick_1" />
        <g
           id="xtick_2" />
        <g
           id="xtick_3" />
        <g
           id="xtick_4" />
        <g
           id="xtick_5" />
        <g
           id="xtick_6" />
        <g
           id="xtick_7" />
      </g>
      <g
         id="matplotlib.axis_2">
        <g
           id="ytick_1">
          <g
             id="line2d_1">
            <defs
               id="defs23">
              <path
                 style="stroke:#000000;stroke-width:0.8"
                 id="maf03afebc1"
                 d="M 0,0 H -3.5" />
            </defs>
            <g
               id="g27">
              <use
                 height="100%"
                 width="100%"
                 id="use25"
                 y="148.07964"
                 xlink:href="#maf03afebc1"
                 x="42.519684"
                 style="stroke:#000000;stroke-width:0.8" />
            </g>
          </g>
          <g
             id="text_1">
            <!-- 0 -->
            <g
               id="g35"
               transform="matrix(0.11,0,0,-0.11,28.520935,152.25878)">
              <defs
                 id="defs31">
                <path
                   id="DejaVuSerif-48"
                   d="m 31.78125,3.421875 q 7.484375,0 11.1875,8.203125 3.71875,8.203125 3.71875,24.75 0,16.609375 -3.71875,24.8125 -3.703125,8.203125 -11.1875,8.203125 -7.46875,0 -11.1875,-8.203125 -3.703125,-8.203125 -3.703125,-24.8125 0,-16.546875 3.703125,-24.75 3.71875,-8.203125 11.1875,-8.203125 z m 0,-4.84375 Q 19.921875,-1.421875 13.25,8.53125 6.59375,18.5 6.59375,36.375 q 0,17.921875 6.65625,27.875 6.671875,9.96875 18.53125,9.96875 11.921875,0 18.5625,-9.96875 6.640625,-9.953125 6.640625,-27.875 0,-17.875 -6.640625,-27.84375 -6.640625,-9.953125 -18.5625,-9.953125 z" />
              </defs>
              <use
                 height="100%"
                 width="100%"
                 y="0"
                 x="0"
                 id="use33"
                 xlink:href="#DejaVuSerif-48" />
            </g>
          </g>
        </g>
        <g
           id="ytick_2">
          <g
             id="line2d_2">
            <g
               id="g41">
              <use
                 height="100%"
                 width="100%"
                 id="use39"
                 y="110.78901"
                 xlink:href="#maf03afebc1"
                 x="42.519684"
                 style="stroke:#000000;stroke-width:0.8" />
            </g>
          </g>
          <g
             id="text_2">
            <!-- 1 -->
            <g
               id="g49"
               transform="matrix(0.11,0,0,-0.11,28.520935,114.96815)">
              <defs
                 id="defs45">
                <path
                   id="DejaVuSerif-49"
                   d="M 14.203125,0 V 5.171875 H 26.90625 v 60.65625 l -14.703125,-9.53125 v 6.40625 L 29.984375,74.21875 H 36.71875 V 5.171875 H 49.421875 V 0 Z" />
              </defs>
              <use
                 height="100%"
                 width="100%"
                 y="0"
                 x="0"
                 id="use47"
                 xlink:href="#DejaVuSerif-49" />
            </g>
          </g>
        </g>
        <g
           id="ytick_3">
          <g
             id="line2d_3">
            <g
               id="g55">
              <use
                 height="100%"
                 width="100%"
                 id="use53"
                 y="73.49839"
                 xlink:href="#maf03afebc1"
                 x="42.519684"
                 style="stroke:#000000;stroke-width:0.8" />
            </g>
          </g>
          <g
             id="text_3">
            <!-- 2 -->
            <g
               id="g63"
               transform="matrix(0.11,0,0,-0.11,28.520935,77.67753)">
              <defs
                 id="defs59">
                <path
                   id="DejaVuSerif-50"
                   d="M 12.796875,55.515625 H 7.328125 V 68.5 q 5.21875,2.796875 10.515625,4.25 5.296875,1.46875 10.375,1.46875 11.375,0 17.96875,-5.515625 6.59375,-5.515625 6.59375,-14.984375 0,-10.703125 -14.9375,-25.59375 Q 36.671875,27 36.078125,26.421875 L 17.671875,8.015625 H 48.09375 V 17 H 53.8125 V 0 H 6.78125 v 5.328125 l 22.125,22.0625 q 7.328125,7.328125 10.453125,13.453125 3.125,6.125 3.125,12.875 0,7.359375 -3.84375,11.515625 -3.828125,4.15625 -10.5625,4.15625 -6.984375,0 -10.796875,-3.46875 -3.796875,-3.46875 -4.484375,-10.40625 z" />
              </defs>
              <use
                 height="100%"
                 width="100%"
                 y="0"
                 x="0"
                 id="use61"
                 xlink:href="#DejaVuSerif-50" />
            </g>
          </g>
        </g>
        <g
           id="ytick_4">
          <g
             id="line2d_4">
            <g
               id="g69">
              <use
                 height="100%"
                 width="100%"
                 id="use67"
                 y="36.207767"
                 xlink:href="#maf03afebc1"
                 x="42.519684"
                 style="stroke:#000000;stroke-width:0.8" />
            </g>
          </g>
          <g
             id="text_4">
            <!-- 3 -->
            <g
               id="g77"
               transform="matrix(0.11,0,0,-0.11,28.520935,40.386907)">
              <defs
                 id="defs73">
                <path
                   id="DejaVuSerif-51"
                   d="m 9.71875,69.828125 q 5.71875,2.140625 10.953125,3.265625 5.25,1.125 9.84375,1.125 10.703125,0 16.703125,-4.625 6,-4.609375 6,-12.8125 0,-6.578125 -4.15625,-11 -4.140625,-4.421875 -11.75,-5.984375 8.984375,-1.265625 13.9375,-6.515625 4.953125,-5.25 4.953125,-13.609375 0,-10.203125 -6.859375,-15.65625 -6.859375,-5.4375 -19.75,-5.4375 -5.71875,0 -11.171875,1.234375 Q 12.984375,1.03125 7.625,3.515625 v 14.15625 h 5.46875 q 0.484375,-7.03125 4.734375,-10.640625 4.25,-3.609375 11.953125,-3.609375 7.46875,0 11.796875,4.3125 4.328125,4.328125 4.328125,11.84375 0,8.59375 -4.453125,13.015625 -4.4375,4.421875 -13.03125,4.421875 H 23.78125 V 42 h 2.4375 q 8.546875,0 12.8125,3.53125 4.28125,3.546875 4.28125,10.671875 0,6.390625 -3.515625,9.78125 -3.515625,3.40625 -10.109375,3.40625 -6.59375,0 -10.234375,-3.125 -3.625,-3.125 -4.265625,-9.28125 H 9.71875 Z" />
              </defs>
              <use
                 height="100%"
                 width="100%"
                 y="0"
                 x="0"
                 id="use75"
                 xlink:href="#DejaVuSerif-51" />
            </g>
          </g>
        </g>
        <g
           id="text_5">
          <!-- Signal $[V]$ -->
          <g
             id="g113"
             transform="matrix(0,-0.11,-0.11,0,0.446378,119.5887)">
            <defs
               id="defs91">
              <path
                 id="DejaVuSerif-83"
                 d="M 9.28125,3.515625 V 20.125 l 5.609375,-0.0625 q 0.25,-8.296875 4.8125,-12.28125 4.5625,-3.96875 13.890625,-3.96875 8.6875,0 13.25,3.4375 4.578125,3.4375 4.578125,10.03125 0,5.28125 -2.765625,8.109375 -2.75,2.828125 -11.640625,5.515625 l -9.625,2.890625 Q 16.9375,36.96875 12.671875,41.703125 8.40625,46.4375 8.40625,54.6875 q 0,9.28125 6.578125,14.40625 6.59375,5.125 18.515625,5.125 5.078125,0 11.125,-1.109375 6.0625,-1.09375 12.890625,-3.1875 V 54.390625 H 52 q -0.828125,7.71875 -5.15625,11.15625 Q 42.53125,69 33.6875,69 q -7.703125,0 -11.734375,-3.15625 -4.03125,-3.140625 -4.03125,-9.15625 0,-5.21875 3.015625,-8.203125 3.03125,-2.96875 12.859375,-5.90625 l 9.03125,-2.6875 q 9.90625,-2.96875 14.125,-7.59375 4.234375,-4.609375 4.234375,-12.375 0,-10.59375 -6.796875,-15.96875 -6.78125,-5.375 -20.203125,-5.375 -6.015625,0 -12.25,1.234375 -6.21875,1.21875 -12.65625,3.703125 z" />
              <path
                 id="DejaVuSerif-105"
                 d="m 9.71875,68.015625 q 0,2.25 1.625,3.90625 1.640625,1.65625 3.9375,1.65625 2.25,0 3.875,-1.65625 1.640625,-1.65625 1.640625,-3.90625 0,-2.296875 -1.609375,-3.90625 Q 17.578125,62.5 15.28125,62.5 q -2.296875,0 -3.9375,1.609375 -1.625,1.609375 -1.625,3.90625 z M 21.1875,5.171875 h 8.5 V 0 H 3.609375 v 5.171875 h 8.59375 V 46.6875 h -8.59375 v 5.21875 H 21.1875 Z" />
              <path
                 id="DejaVuSerif-103"
                 d="M 52.484375,46.6875 V 1.125 q 0,-11.1875 -6.15625,-17.265625 Q 40.1875,-22.21875 28.8125,-22.21875 q -5.125,0 -9.8125,0.9375 -4.6875,0.921875 -8.984375,2.78125 v 10.875 h 4.6875 q 0.875,-5.078125 4.140625,-7.421875 3.28125,-2.34375 9.375,-2.34375 7.921875,0 11.59375,4.46875 Q 43.5,-8.453125 43.5,1.125 v 6.984375 q -2.625,-4.890625 -6.703125,-7.21875 -4.078125,-2.3125 -10.09375,-2.3125 -9.5625,0 -15.640625,7.59375 -6.078125,7.59375 -6.078125,19.8125 0,12.203125 6.046875,19.765625 6.0625,7.578125 15.671875,7.578125 6.015625,0 10.09375,-2.328125 Q 40.875,48.6875 43.5,43.796875 V 51.90625 H 61.078125 V 46.6875 Z M 43.5,28.515625 q 0,9.328125 -3.59375,14.25 -3.578125,4.9375 -10.40625,4.9375 -6.9375,0 -10.484375,-5.46875 -3.53125,-5.46875 -3.53125,-16.25 0,-10.75 3.53125,-16.265625 Q 22.5625,4.203125 29.5,4.203125 q 6.828125,0 10.40625,4.90625 Q 43.5,14.015625 43.5,23.390625 Z" />
              <path
                 id="DejaVuSerif-110"
                 d="m 4.109375,0 v 5.171875 h 8.09375 V 46.6875 h -8.59375 v 5.21875 H 21.1875 v -9.234375 q 2.5,5.28125 6.46875,7.96875 3.984375,2.6875 9.265625,2.6875 8.59375,0 12.640625,-4.9375 4.046875,-4.9375 4.046875,-15.375 V 5.171875 H 61.625 V 0 H 36.8125 v 5.171875 h 7.765625 v 25 q 0,9.53125 -2.34375,13.0625 -2.34375,3.546875 -8.25,3.546875 -6.25,0 -9.53125,-4.578125 Q 21.1875,37.640625 21.1875,28.90625 V 5.171875 H 29 V 0 Z" />
              <path
                 id="DejaVuSerif-97"
                 d="M 39.796875,16.3125 V 27.296875 H 28.21875 q -6.6875,0 -9.96875,-2.890625 -3.265625,-2.875 -3.265625,-8.828125 0,-5.421875 3.3125,-8.59375 3.328125,-3.171875 9,-3.171875 5.609375,0 9.046875,3.46875 3.453125,3.46875 3.453125,9.03125 z m 8.984375,16.109375 v -27.25 h 8 V 0 H 39.796875 V 5.609375 Q 36.8125,2 32.90625,0.28125 29,-1.421875 23.78125,-1.421875 q -8.640625,0 -13.71875,4.59375 -5.078125,4.59375 -5.078125,12.40625 0,8.0625 5.8125,12.5 5.8125,4.4375 16.40625,4.4375 h 12.59375 v 3.5625 q 0,5.921875 -3.59375,9.15625 -3.578125,3.25 -10.078125,3.25 -5.375,0 -8.546875,-2.4375 Q 14.40625,43.609375 13.625,38.8125 H 8.984375 v 10.5 q 4.6875,2 9.109375,3 4.421875,1.015625 8.609375,1.015625 10.796875,0 16.4375,-5.359375 Q 48.78125,42.625 48.78125,32.421875 Z" />
              <path
                 id="DejaVuSerif-108"
                 d="M 20.515625,5.171875 H 29 V 0 H 2.875 v 5.171875 h 8.65625 v 65.625 H 2.875 v 5.1875 h 17.640625 z" />
              <path
                 d=""
                 id="DejaVuSerif-32" />
              <path
                 id="DejaVuSans-91"
                 d="M 8.59375,75.984375 H 29.296875 V 69 H 17.578125 V -6.203125 h 11.71875 V -13.1875 H 8.59375 Z" />
              <path
                 id="DejaVuSans-Oblique-86"
                 d="M 20.609375,0 7.8125,72.90625 h 9.671875 L 28.078125,10.203125 63.484375,72.90625 H 74.21875 L 32.078125,0 Z" />
              <path
                 id="DejaVuSans-93"
                 d="M 30.421875,75.984375 V -13.1875 H 9.71875 v 6.984375 H 21.390625 V 69 H 9.71875 v 6.984375 z" />
            </defs>
            <use
               height="100%"
               width="100%"
               y="0"
               x="0"
               id="use93"
               xlink:href="#DejaVuSerif-83"
               transform="translate(0,0.015625)" />
            <use
               height="100%"
               width="100%"
               y="0"
               x="0"
               id="use95"
               xlink:href="#DejaVuSerif-105"
               transform="translate(68.505859,0.015625)" />
            <use
               height="100%"
               width="100%"
               y="0"
               x="0"
               id="use97"
               xlink:href="#DejaVuSerif-103"
               transform="translate(100.48828,0.015625)" />
            <use
               height="100%"
               width="100%"
               y="0"
               x="0"
               id="use99"
               xlink:href="#DejaVuSerif-110"
               transform="translate(164.50195,0.015625)" />
            <use
               height="100%"
               width="100%"
               y="0"
               x="0"
               id="use101"
               xlink:href="#DejaVuSerif-97"
               transform="translate(228.90625,0.015625)" />
            <use
               height="100%"
               width="100%"
               y="0"
               x="0"
               id="use103"
               xlink:href="#DejaVuSerif-108"
               transform="translate(288.52539,0.015625)" />
            <use
               height="100%"
               width="100%"
               y="0"
               x="0"
               id="use105"
               xlink:href="#DejaVuSerif-32"
               transform="translate(320.50781,0.015625)" />
            <use
               height="100%"
               width="100%"
               y="0"
               x="0"
               id="use107"
               xlink:href="#DejaVuSans-91"
               transform="translate(352.29492,0.015625)" />
            <use
               height="100%"
               width="100%"
               y="0"
               x="0"
               id="use109"
               xlink:href="#DejaVuSans-Oblique-86"
               transform="translate(391.30859,0.015625)" />
            <use
               height="100%"
               width="100%"
               y="0"
               x="0"
               id="use111"
               xlink:href="#DejaVuSans-93"
               transform="translate(459.7168,0.015625)" />
          </g>
        </g>
      </g>
      <g
         id="line2d_5">
        <path
           id="path117"
           style="fill:none;stroke:#7fa3ae;stroke-width:2;stroke-linecap:square"
           d="m 54.502505,92.143701 10.303699,-14.919872 5.724278,-7.88859 4.579421,-5.950215 4.197804,-5.09299 3.816185,-4.276434 3.434566,-3.524208 3.434566,-3.187051 3.052948,-2.528971 3.052948,-2.225974 2.671329,-1.687934 2.671331,-1.436753 2.67133,-1.178535 2.67133,-0.914546 2.28971,-0.570351 2.28971,-0.371033 2.28971,-0.170382 2.28971,0.03088 2.28971,0.232038 2.28971,0.432357 2.28971,0.631121 2.67133,0.984452 2.67133,1.247049 2.67133,1.503537 2.67133,1.752661 3.05295,2.297024 3.05295,2.596466 3.05294,2.879299 3.43457,3.554287 3.81619,4.306565 3.81618,4.641048 4.57942,5.945274 5.34266,7.345968 6.86913,9.870899 15.64636,22.651793 5.34266,7.27108 4.57942,5.85982 4.1978,4.99303 3.81619,4.1724 3.43457,3.42074 3.05294,2.75133 3.05295,2.46062 3.05295,2.15417 2.67133,1.62263 2.67133,1.36948 2.67133,1.10963 2.67133,0.84433 2.28971,0.50938 2.28971,0.30959 2.28971,0.10866 2.28971,-0.0926 2.28971,-0.29361 2.28971,-0.49354 2.28971,-0.69167 2.67133,-1.05403 2.67133,-1.31514 2.67133,-1.56981 2.67133,-1.81679 3.05295,-2.3673 3.05295,-2.66308 3.05294,-2.94184 3.43457,-3.61926 3.81619,-4.37147 4.1978,-5.18358 4.57942,-6.03113 5.34266,-7.41954 7.25075,-10.479365 2.28971,-3.353805 v 0"
           clip-path="url(#p6de2b94826)" />
      </g>
      <g
         id="line2d_6">
        <path
           id="path120"
           style="fill:none;stroke:#d69e70;stroke-width:2;stroke-linecap:square"
           d="m 54.502505,92.143701 h 4.579422 l 0.381619,-13.983984 h 9.540462 L 69.385626,64.175734 H 80.070944 L 80.452562,50.19175 h 14.501502 l 0.381619,-13.983983 h 38.161847 l 0.38162,13.983983 h 14.5015 l 0.38162,13.983984 h 10.68532 l 0.38162,13.983983 h 9.54046 l 0.38162,13.983984 h 9.15884 l 0.38162,13.983979 h 9.54046 l 0.38162,13.98399 h 10.68532 l 0.38161,13.98398 h 14.50151 l 0.38162,13.98398 h 38.16184 l 0.38162,-13.98398 h 14.50151 l 0.38161,-13.98398 h 10.68532 l 0.38162,-13.98399 h 9.54046 l 0.38162,-13.983979 h 4.57942 v 0"
           clip-path="url(#p6de2b94826)" />
      </g>
      <g
         id="patch_3">
        <path
           id="path123"
           style="fill:none;stroke:#000000;stroke-width:0.8;stroke-linecap:square;stroke-linejoin:miter"
           d="M 42.519685,153.67323 V 30.614173" />
      </g>
      <g
         id="patch_4">
        <path
           id="path126"
           style="fill:none;stroke:#000000;stroke-width:0.8;stroke-linecap:square;stroke-linejoin:miter"
           d="M 306.14173,153.67323 V 30.614173" />
      </g>
      <g
         id="patch_5">
        <path
           id="path129"
           style="fill:none;stroke:#000000;stroke-width:0.8;stroke-linecap:square;stroke-linejoin:miter"
           d="M 42.519685,153.67323 H 306.14173" />
      </g>
      <g
         id="patch_6">
        <path
           id="path132"
           style="fill:none;stroke:#000000;stroke-width:0.8;stroke-linecap:square;stroke-linejoin:miter"
           d="M 42.519685,30.614173 H 306.14173" />
      </g>
      <g
         id="legend_1">
        <g
           id="patch_7">
          <path
             id="path135"
             style="opacity:0.8;fill:#ffffff;stroke:#cccccc;stroke-linejoin:miter"
             d="m 224.47189,72.018861 h 73.96984 q 2.2,0 2.2,-2.2 V 38.314173 q 0,-2.2 -2.2,-2.2 h -73.96984 q -2.2,0 -2.2,2.2 v 31.504688 q 0,2.2 2.2,2.2 z" />
        </g>
        <g
           id="line2d_7">
          <path
             id="path138"
             style="fill:none;stroke:#7fa3ae;stroke-width:2;stroke-linecap:square"
             d="m 226.67189,45.022454 h 22" />
        </g>
        <g
           id="line2d_8" />
        <g
           id="text_6">
          <!-- Analog -->
          <g
             id="g158"
             transform="matrix(0.11,0,0,-0.11,257.47189,48.872454)">
            <defs
               id="defs144">
              <path
                 id="DejaVuSerif-65"
                 d="M 20.015625,26.421875 H 46.78125 l -13.375,34.65625 z M -0.59375,0 V 5.171875 H 5.8125 L 31.78125,72.90625 h 8.203125 L 66.015625,5.171875 H 73.1875 V 0 h -26.5 v 5.171875 h 8.09375 L 48.6875,21.1875 H 18.015625 L 11.921875,5.171875 h 8 V 0 Z" />
              <path
                 id="DejaVuSerif-111"
                 d="m 30.078125,3.421875 q 7.234375,0 10.90625,5.703125 3.6875,5.71875 3.6875,16.859375 0,11.125 -3.6875,16.8125 -3.671875,5.6875 -10.90625,5.6875 -7.21875,0 -10.90625,-5.6875 -3.6875,-5.6875 -3.6875,-16.8125 0,-11.140625 3.703125,-16.859375 3.71875,-5.703125 10.890625,-5.703125 z m 0,-4.84375 q -11.328125,0 -18.21875,7.5 -6.875,7.5 -6.875,19.90625 0,12.390625 6.859375,19.859375 6.859375,7.484375 18.234375,7.484375 11.375,0 18.234375,-7.484375 6.859375,-7.46875 6.859375,-19.859375 0,-12.40625 -6.859375,-19.90625 -6.859375,-7.5 -18.234375,-7.5 z" />
            </defs>
            <use
               height="100%"
               width="100%"
               y="0"
               x="0"
               id="use146"
               xlink:href="#DejaVuSerif-65" />
            <use
               height="100%"
               width="100%"
               y="0"
               id="use148"
               xlink:href="#DejaVuSerif-110"
               x="72.216797" />
            <use
               height="100%"
               width="100%"
               y="0"
               id="use150"
               xlink:href="#DejaVuSerif-97"
               x="136.62109" />
            <use
               height="100%"
               width="100%"
               y="0"
               id="use152"
               xlink:href="#DejaVuSerif-108"
               x="196.24023" />
            <use
               height="100%"
               width="100%"
               y="0"
               id="use154"
               xlink:href="#DejaVuSerif-111"
               x="228.22266" />
            <use
               height="100%"
               width="100%"
               y="0"
               id="use156"
               xlink:href="#DejaVuSerif-103"
               x="288.42773" />
          </g>
        </g>
        <g
           id="line2d_9">
          <path
             id="path161"
             style="fill:none;stroke:#d69e70;stroke-width:2;stroke-linecap:square"
             d="m 226.67189,61.324798 h 22" />
        </g>
        <g
           id="line2d_10" />
        <g
           id="text_7">
          <!-- Digital -->
          <g
             id="g183"
             transform="matrix(0.11,0,0,-0.11,257.47189,65.174798)">
            <defs
               id="defs167">
              <path
                 id="DejaVuSerif-68"
                 d="m 24.703125,5.171875 h 9.09375 q 14.203125,0 21.796875,8.109375 7.59375,8.109375 7.59375,23.25 0,15.125 -7.578125,23.125 -7.5625,8.015625 -21.8125,8.015625 h -9.09375 z M 5.515625,0 v 5.171875 h 9.28125 v 62.5 h -9.28125 v 5.234375 h 29 q 18.859375,0 29.375,-9.625 10.53125,-9.625 10.53125,-26.75 0,-17.1875 -10.546875,-26.859375 Q 53.328125,0 34.515625,0 Z" />
              <path
                 id="DejaVuSerif-116"
                 d="M 10.796875,46.6875 H 2.875 v 5.21875 h 7.921875 v 16.109375 h 9.03125 V 51.90625 H 36.71875 V 46.6875 H 19.828125 V 13.71875 q 0,-6.59375 1.265625,-8.453125 1.265625,-1.84375 4.6875,-1.84375 3.515625,0 5.125,2.0625 1.609375,2.078125 1.71875,6.71875 h 6.78125 Q 39.015625,5.125 35.546875,1.84375 32.078125,-1.421875 25,-1.421875 q -7.765625,0 -10.984375,3.4375 -3.21875,3.453125 -3.21875,11.703125 z" />
            </defs>
            <use
               height="100%"
               width="100%"
               y="0"
               x="0"
               id="use169"
               xlink:href="#DejaVuSerif-68" />
            <use
               height="100%"
               width="100%"
               y="0"
               id="use171"
               xlink:href="#DejaVuSerif-105"
               x="80.175781" />
            <use
               height="100%"
               width="100%"
               y="0"
               id="use173"
               xlink:href="#DejaVuSerif-103"
               x="112.1582" />
            <use
               height="100%"
               width="100%"
               y="0"
               id="use175"
               xlink:href="#DejaVuSerif-105"
               x="176.17188" />
            <use
               height="100%"
               width="100%"
               y="0"
               id="use177"
               xlink:href="#DejaVuSerif-116"
               x="208.1543" />
            <use
               height="100%"
               width="100%"
               y="0"
               id="use179"
               xlink:href="#DejaVuSerif-97"
               x="248.33984" />
            <use
               height="100%"
               width="100%"
               y="0"
               id="use181"
               xlink:href="#DejaVuSerif-108"
               x="307.95898" />
          </g>
        </g>
      </g>
    </g>
    <g
       id="axes_2">
      <g
         id="patch_8">
        <path
           id="path188"
           style="fill:#ffffff"
           d="M 42.519685,223.22835 H 306.14173 V 169.72441 H 42.519685 Z" />
      </g>
      <g
         id="matplotlib.axis_3">
        <g
           id="xtick_8" />
        <g
           id="xtick_9" />
        <g
           id="xtick_10" />
        <g
           id="xtick_11" />
        <g
           id="xtick_12" />
        <g
           id="xtick_13" />
        <g
           id="xtick_14" />
        <g
           id="text_8">
          <!-- Time -->
          <g
             id="g211"
             transform="matrix(0.11,0,0,-0.11,160.43204,235.58663)">
            <defs
               id="defs201">
              <path
                 id="DejaVuSerif-84"
                 d="m 19.09375,0 v 5.171875 h 9.328125 V 67.09375 h -21.4375 v -11.375 h -6 v 17.1875 H 65.71875 v -17.1875 h -6 v 11.375 H 38.28125 V 5.171875 h 9.328125 V 0 Z" />
              <path
                 id="DejaVuSerif-109"
                 d="m 51.8125,41.796875 q 2.578125,5.71875 6.609375,8.625 4.03125,2.90625 9.40625,2.90625 8.15625,0 12.15625,-5.0625 4,-5.046875 4,-15.25 V 5.171875 H 92.09375 V 0 H 67.1875 V 5.171875 H 75 v 26.8125 q 0,7.953125 -2.34375,11.328125 -2.34375,3.375 -7.765625,3.375 -6,0 -9.15625,-4.546875 Q 52.59375,37.59375 52.59375,28.90625 V 5.171875 h 7.8125 V 0 H 35.796875 v 5.171875 h 7.8125 v 27.15625 q 0,7.765625 -2.34375,11.0625 Q 38.921875,46.6875 33.5,46.6875 q -6.015625,0 -9.171875,-4.546875 Q 21.1875,37.59375 21.1875,28.90625 V 5.171875 H 29 V 0 H 4.109375 v 5.171875 h 8.09375 V 46.78125 h -8.59375 v 5.125 H 21.1875 v -9.234375 q 2.5,5.1875 6.34375,7.921875 3.859375,2.734375 8.75,2.734375 6.046875,0 10.09375,-3.015625 4.0625,-3 5.4375,-8.515625 z" />
              <path
                 id="DejaVuSerif-101"
                 d="m 54.203125,25 h -38.71875 v -0.390625 q 0,-10.5 3.953125,-15.84375 3.953125,-5.34375 11.671875,-5.34375 5.90625,0 9.6875,3.09375 3.78125,3.109375 5.296875,9.203125 h 7.234375 Q 51.171875,7.171875 45.375,2.875 39.59375,-1.421875 30.171875,-1.421875 q -11.375,0 -18.28125,7.5 -6.90625,7.5 -6.90625,19.90625 0,12.296875 6.78125,19.8125 6.796875,7.53125 17.828125,7.53125 11.765625,0 18.0625,-7.265625 6.296875,-7.25 6.546875,-21.0625 z m -10.59375,5.171875 q -0.296875,9.09375 -3.84375,13.703125 -3.53125,4.609375 -10.171875,4.609375 -6.203125,0 -9.765625,-4.640625 -3.5625,-4.640625 -4.34375,-13.671875 z" />
            </defs>
            <use
               height="100%"
               width="100%"
               y="0"
               x="0"
               id="use203"
               xlink:href="#DejaVuSerif-84" />
            <use
               height="100%"
               width="100%"
               y="0"
               id="use205"
               xlink:href="#DejaVuSerif-105"
               x="66.699219" />
            <use
               height="100%"
               width="100%"
               y="0"
               id="use207"
               xlink:href="#DejaVuSerif-109"
               x="98.681641" />
            <use
               height="100%"
               width="100%"
               y="0"
               id="use209"
               xlink:href="#DejaVuSerif-101"
               x="193.50586" />
          </g>
        </g>
      </g>
      <g
         id="matplotlib.axis_4">
        <g
           id="ytick_5">
          <g
             id="line2d_11">
            <g
               id="g217">
              <use
                 height="100%"
                 width="100%"
                 id="use215"
                 y="222.6488"
                 xlink:href="#maf03afebc1"
                 x="42.519684"
                 style="stroke:#000000;stroke-width:0.8" />
            </g>
          </g>
          <g
             id="text_9">
            <!-- −0.2 -->
            <g
               id="g232"
               transform="matrix(0.11,0,0,-0.11,8.808591,226.82795)">
              <defs
                 id="defs222">
                <path
                   id="DejaVuSerif-8722"
                   d="M 10.59375,35.296875 H 73.1875 v -7.90625 H 10.59375 Z" />
                <path
                   id="DejaVuSerif-46"
                   d="m 9.421875,5.078125 q 0,2.734375 1.859375,4.640625 1.859375,1.90625 4.640625,1.90625 2.6875,0 4.578125,-1.90625 1.90625,-1.90625 1.90625,-4.640625 0,-2.6875 -1.90625,-4.59375 -1.890625,-1.90625 -4.578125,-1.90625 -2.78125,0 -4.640625,1.875 -1.859375,1.890625 -1.859375,4.625 z" />
              </defs>
              <use
                 height="100%"
                 width="100%"
                 y="0"
                 x="0"
                 id="use224"
                 xlink:href="#DejaVuSerif-8722" />
              <use
                 height="100%"
                 width="100%"
                 y="0"
                 id="use226"
                 xlink:href="#DejaVuSerif-48"
                 x="83.789062" />
              <use
                 height="100%"
                 width="100%"
                 y="0"
                 id="use228"
                 xlink:href="#DejaVuSerif-46"
                 x="147.41211" />
              <use
                 height="100%"
                 width="100%"
                 y="0"
                 id="use230"
                 xlink:href="#DejaVuSerif-50"
                 x="179.19922" />
            </g>
          </g>
        </g>
        <g
           id="ytick_6">
          <g
             id="line2d_12">
            <g
               id="g238">
              <use
                 height="100%"
                 width="100%"
                 id="use236"
                 y="196.44267"
                 xlink:href="#maf03afebc1"
                 x="42.519684"
                 style="stroke:#000000;stroke-width:0.8" />
            </g>
          </g>
          <g
             id="text_10">
            <!-- 0.0 -->
            <g
               id="g247"
               transform="matrix(0.11,0,0,-0.11,18.026248,200.62181)">
              <use
                 height="100%"
                 width="100%"
                 y="0"
                 x="0"
                 id="use241"
                 xlink:href="#DejaVuSerif-48" />
              <use
                 height="100%"
                 width="100%"
                 y="0"
                 id="use243"
                 xlink:href="#DejaVuSerif-46"
                 x="63.623047" />
              <use
                 height="100%"
                 width="100%"
                 y="0"
                 id="use245"
                 xlink:href="#DejaVuSerif-48"
                 x="95.410156" />
            </g>
          </g>
        </g>
        <g
           id="ytick_7">
          <g
             id="line2d_13">
            <g
               id="g253">
              <use
                 height="100%"
                 width="100%"
                 id="use251"
                 y="170.23653"
                 xlink:href="#maf03afebc1"
                 x="42.519684"
                 style="stroke:#000000;stroke-width:0.8" />
            </g>
          </g>
          <g
             id="text_11">
            <!-- 0.2 -->
            <g
               id="g262"
               transform="matrix(0.11,0,0,-0.11,18.026248,174.41567)">
              <use
                 height="100%"
                 width="100%"
                 y="0"
                 x="0"
                 id="use256"
                 xlink:href="#DejaVuSerif-48" />
              <use
                 height="100%"
                 width="100%"
                 y="0"
                 id="use258"
                 xlink:href="#DejaVuSerif-46"
                 x="63.623047" />
              <use
                 height="100%"
                 width="100%"
                 y="0"
                 id="use260"
                 xlink:href="#DejaVuSerif-50"
                 x="95.410156" />
            </g>
          </g>
        </g>
        <g
           id="text_12">
          <!-- LSB error $[V]$ -->
          <g
             id="g297"
             transform="matrix(0,-0.11,-0.11,0,0.688722,233.98638)">
            <defs
               id="defs269">
              <path
                 id="DejaVuSerif-76"
                 d="m 5.515625,0 v 5.171875 h 9.28125 v 62.5 h -9.28125 v 5.234375 h 28.46875 v -5.234375 h -9.28125 V 6 h 33.3125 v 12.21875 h 6 V 0 Z" />
              <path
                 id="DejaVuSerif-66"
                 d="M 24.703125,5.171875 H 39.3125 q 8.78125,0 12.828125,3.8125 4.0625,3.8125 4.0625,12.109375 0,8.25 -4.03125,12.03125 -4.03125,3.796875 -12.859375,3.796875 H 24.703125 Z m 0,36.921875 h 12.40625 q 8.015625,0 11.6875,3.078125 3.6875,3.078125 3.6875,9.71875 0,6.6875 -3.6875,9.734375 -3.671875,3.046875 -11.6875,3.046875 H 24.703125 Z M 5.515625,0 v 5.171875 h 9.28125 v 62.5 H 5.515625 V 72.90625 H 41.5 q 11.046875,0 16.625,-4.515625 5.59375,-4.515625 5.59375,-13.5 0,-6.5 -3.890625,-10.359375 -3.875,-3.859375 -11.34375,-4.734375 9.28125,-1.171875 14.09375,-5.9375 4.8125,-4.75 4.8125,-12.765625 0,-10.84375 -6.84375,-15.96875 Q 53.71875,0 39.203125,0 Z" />
              <path
                 id="DejaVuSerif-114"
                 d="M 47.796875,52 V 39.015625 H 42.625 q -0.234375,3.859375 -2.140625,5.765625 -1.90625,1.90625 -5.578125,1.90625 -6.640625,0 -10.1875,-4.59375 Q 21.1875,37.5 21.1875,28.90625 V 5.171875 H 31.59375 V 0 H 4.109375 v 5.171875 h 8.09375 V 46.78125 h -8.59375 v 5.125 H 21.1875 v -9.234375 q 2.640625,5.421875 6.78125,8.03125 4.15625,2.625 10.125,2.625 2.1875,0 4.609375,-0.34375 Q 45.125,52.640625 47.796875,52 Z" />
            </defs>
            <use
               height="100%"
               width="100%"
               y="0"
               x="0"
               id="use271"
               xlink:href="#DejaVuSerif-76"
               transform="translate(0,0.015625)" />
            <use
               height="100%"
               width="100%"
               y="0"
               x="0"
               id="use273"
               xlink:href="#DejaVuSerif-83"
               transform="translate(66.40625,0.015625)" />
            <use
               height="100%"
               width="100%"
               y="0"
               x="0"
               id="use275"
               xlink:href="#DejaVuSerif-66"
               transform="translate(134.91211,0.015625)" />
            <use
               height="100%"
               width="100%"
               y="0"
               x="0"
               id="use277"
               xlink:href="#DejaVuSerif-32"
               transform="translate(208.39844,0.015625)" />
            <use
               height="100%"
               width="100%"
               y="0"
               x="0"
               id="use279"
               xlink:href="#DejaVuSerif-101"
               transform="translate(240.18555,0.015625)" />
            <use
               height="100%"
               width="100%"
               y="0"
               x="0"
               id="use281"
               xlink:href="#DejaVuSerif-114"
               transform="translate(299.36523,0.015625)" />
            <use
               height="100%"
               width="100%"
               y="0"
               x="0"
               id="use283"
               xlink:href="#DejaVuSerif-114"
               transform="translate(347.16797,0.015625)" />
            <use
               height="100%"
               width="100%"
               y="0"
               x="0"
               id="use285"
               xlink:href="#DejaVuSerif-111"
               transform="translate(394.9707,0.015625)" />
            <use
               height="100%"
               width="100%"
               y="0"
               x="0"
               id="use287"
               xlink:href="#DejaVuSerif-114"
               transform="translate(455.17578,0.015625)" />
            <use
               height="100%"
               width="100%"
               y="0"
               x="0"
               id="use289"
               xlink:href="#DejaVuSerif-32"
               transform="translate(502.97852,0.015625)" />
            <use
               height="100%"
               width="100%"
               y="0"
               x="0"
               id="use291"
               xlink:href="#DejaVuSans-91"
               transform="translate(534.76562,0.015625)" />
            <use
               height="100%"
               width="100%"
               y="0"
               x="0"
               id="use293"
               xlink:href="#DejaVuSans-Oblique-86"
               transform="translate(573.7793,0.015625)" />
            <use
               height="100%"
               width="100%"
               y="0"
               x="0"
               id="use295"
               xlink:href="#DejaVuSans-93"
               transform="translate(642.1875,0.015625)" />
          </g>
        </g>
      </g>
      <g
         id="line2d_14">
        <path
           id="path301"
           style="fill:none;stroke:#d69e70;stroke-width:2;stroke-linecap:square"
           d="m 54.502505,196.44267 4.579422,-23.52896 0.381619,47.18639 6.869132,-34.47899 2.67133,-12.94488 0.381618,47.31493 4.197803,-19.50466 3.816185,-16.74905 2.67133,-11.07409 0.381618,47.60206 3.052948,-11.818 3.052948,-10.95187 2.671329,-8.81718 2.67133,-8.05714 2.28971,-6.27116 0.763237,-1.95588 0.381619,48.18424 2.289711,-5.34835 1.908092,-3.96902 1.908094,-3.51479 1.90809,-3.05178 1.90809,-2.58115 1.52648,-1.72168 1.52647,-1.41356 1.52648,-1.1032 1.52647,-0.79105 1.52647,-0.47764 1.14486,-0.15208 1.14485,0.0248 1.14486,0.20163 1.14486,0.3783 1.52647,0.77859 1.52647,1.09079 1.52648,1.40125 1.52647,1.70947 1.52647,2.01494 1.9081,2.9433 1.90809,3.40818 1.90809,3.86454 2.28971,5.22618 0.38162,0.93227 0.38162,-48.18698 2.28971,6.05412 2.28971,6.64995 2.67133,8.47928 2.67133,9.21607 3.05295,11.37679 1.52647,6.0046 0.38162,-47.60403 3.43457,14.32391 3.81618,16.93522 3.43457,16.02446 0.38162,-47.31611 4.96104,24.26405 4.57942,23.14007 0.38162,-47.18679 9.15884,47.05786 0.38162,-47.186 6.86913,34.49122 2.67133,12.95228 0.38162,-47.31376 4.1978,19.51945 3.81619,16.76539 2.67133,11.08707 0.38161,-47.60011 3.05295,11.8345 3.05295,10.96982 2.67133,8.83398 2.67133,8.07488 2.28971,6.28706 0.76324,1.96131 0.38162,-48.1815 2.28971,5.36507 1.90809,3.98333 1.90809,3.5294 1.90809,3.06666 1.9081,2.59624 1.52647,1.73389 1.52647,1.42588 1.52648,1.11559 1.52647,0.80351 1.52648,0.49014 1.14485,0.16147 1.14486,-0.0154 1.14485,-0.19224 1.14486,-0.36893 1.52647,-0.76613 1.52648,-1.07839 1.52647,-1.38893 1.52647,-1.69724 1.52648,-2.00284 1.90809,-2.92836 1.90809,-3.3935 1.90809,-3.85015 1.9081,-4.29718 0.76323,-1.84167 0.38162,48.18972 2.28971,-6.038 2.28971,-6.63442 2.67133,-8.46203 2.67133,-9.1998 3.05295,-11.35949 1.52648,-5.99651 0.38161,47.60599 3.43457,-14.30738 3.81618,-16.91934 3.43457,-16.01252 0.38162,47.31729 4.96104,-24.25136 4.57942,-23.13289 0.38162,47.18718 4.57942,-23.52434 v 0"
           clip-path="url(#p9535afb4ff)" />
      </g>
      <g
         id="patch_9">
        <path
           id="path304"
           style="fill:none;stroke:#000000;stroke-width:0.8;stroke-linecap:square;stroke-linejoin:miter"
           d="M 42.519685,223.22835 V 169.72441" />
      </g>
      <g
         id="patch_10">
        <path
           id="path307"
           style="fill:none;stroke:#000000;stroke-width:0.8;stroke-linecap:square;stroke-linejoin:miter"
           d="M 306.14173,223.22835 V 169.72441" />
      </g>
      <g
         id="patch_11">
        <path
           id="path310"
           style="fill:none;stroke:#000000;stroke-width:0.8;stroke-linecap:square;stroke-linejoin:miter"
           d="M 42.519685,223.22835 H 306.14173" />
      </g>
      <g
         id="patch_12">
        <path
           id="path313"
           style="fill:none;stroke:#000000;stroke-width:0.8;stroke-linecap:square;stroke-linejoin:miter"
           d="M 42.519685,169.72441 H 306.14173" />
      </g>
    </g>
  </g>
  <defs
     id="defs324">
    <clipPath
       id="p6de2b94826">
      <rect
         id="rect318"
         y="30.614174"
         x="42.519684"
         width="263.62204"
         height="123.05905" />
    </clipPath>
    <clipPath
       id="p9535afb4ff">
      <rect
         id="rect321"
         y="169.72441"
         x="42.519684"
         width="263.62204"
         height="53.503937" />
    </clipPath>
  </defs>
</svg>
