<?xml version="1.0" encoding="UTF-8" standalone="no"?>
<svg
   xmlns:dc="http://purl.org/dc/elements/1.1/"
   xmlns:cc="http://creativecommons.org/ns#"
   xmlns:rdf="http://www.w3.org/1999/02/22-rdf-syntax-ns#"
   xmlns:svg="http://www.w3.org/2000/svg"
   xmlns="http://www.w3.org/2000/svg"
   xmlns:xlink="http://www.w3.org/1999/xlink"
   xmlns:sodipodi="http://sodipodi.sourceforge.net/DTD/sodipodi-0.dtd"
   xmlns:inkscape="http://www.inkscape.org/namespaces/inkscape"
   inkscape:version="1.0 (4035a4fb49, 2020-05-01)"
   sodipodi:docname="plot_thermerr.svg"
   id="svg512"
   width="353.23764pt"
   viewBox="0 0 353.23765 204.14313"
   version="1.1"
   height="204.14313pt">
  <sodipodi:namedview
     inkscape:current-layer="svg512"
     inkscape:window-maximized="1"
     inkscape:window-y="-8"
     inkscape:window-x="-8"
     inkscape:cy="127.25463"
     inkscape:cx="244.21186"
     inkscape:zoom="2.3128994"
     fit-margin-bottom="0"
     fit-margin-right="0"
     fit-margin-left="0"
     fit-margin-top="0"
     showgrid="false"
     id="namedview514"
     inkscape:window-height="1377"
     inkscape:window-width="2560"
     inkscape:pageshadow="2"
     inkscape:pageopacity="0"
     guidetolerance="10"
     gridtolerance="10"
     objecttolerance="10"
     borderopacity="1"
     bordercolor="#666666"
     pagecolor="#ffffff" />
  <metadata
     id="metadata2">
    <rdf:RDF>
      <cc:Work>
        <dc:type
           rdf:resource="http://purl.org/dc/dcmitype/StillImage" />
        <dc:date>2020-11-16T14:20:13.893836</dc:date>
        <dc:format>image/svg+xml</dc:format>
        <dc:creator>
          <cc:Agent>
            <dc:title>Matplotlib v3.3.2, https://matplotlib.org/</dc:title>
          </cc:Agent>
        </dc:creator>
        <dc:title></dc:title>
      </cc:Work>
    </rdf:RDF>
  </metadata>
  <defs
     id="defs6">
    <style
       id="style4"
       type="text/css">*{stroke-linecap:butt;stroke-linejoin:round;}</style>
  </defs>
  <g
     transform="translate(13.080159,10.401602)"
     id="figure_1">
    <g
       id="patch_1">
      <path
         id="path8"
         style="fill:none"
         d="M 0,170.07874 H 340.15748 V 0 H 0 Z" />
    </g>
    <g
       id="axes_1">
      <g
         id="patch_2">
        <path
           id="path11"
           style="fill:#ffffff"
           d="M 42.519685,148.8189 H 237.37076 V 20.409449 H 42.519685 Z" />
      </g>
      <g
         id="matplotlib.axis_1">
        <g
           id="xtick_1">
          <g
             id="line2d_1">
            <path
               id="path14"
               style="fill:none;stroke:#b0b0b0;stroke-width:0.8;stroke-linecap:square"
               d="M 51.376552,148.8189 V 20.409449"
               clip-path="url(#p2f6f0c1d65)" />
          </g>
          <g
             id="line2d_2">
            <defs
               id="defs18">
              <path
                 style="stroke:#000000;stroke-width:0.8"
                 id="m83b43eafa1"
                 d="M 0,0 V 3.5" />
            </defs>
            <g
               id="g22">
              <use
                 height="100%"
                 width="100%"
                 id="use20"
                 y="148.81889"
                 xlink:href="#m83b43eafa1"
                 x="51.376553"
                 style="stroke:#000000;stroke-width:0.8" />
            </g>
          </g>
          <g
             id="text_1">
            <!-- 0 -->
            <g
               id="g30"
               transform="matrix(0.11,0,0,-0.11,47.877177,164.17718)">
              <defs
                 id="defs26">
                <path
                   id="DejaVuSerif-48"
                   d="m 31.78125,3.421875 q 7.484375,0 11.1875,8.203125 3.71875,8.203125 3.71875,24.75 0,16.609375 -3.71875,24.8125 -3.703125,8.203125 -11.1875,8.203125 -7.46875,0 -11.1875,-8.203125 -3.703125,-8.203125 -3.703125,-24.8125 0,-16.546875 3.703125,-24.75 3.71875,-8.203125 11.1875,-8.203125 z m 0,-4.84375 Q 19.921875,-1.421875 13.25,8.53125 6.59375,18.5 6.59375,36.375 q 0,17.921875 6.65625,27.875 6.671875,9.96875 18.53125,9.96875 11.921875,0 18.5625,-9.96875 6.640625,-9.953125 6.640625,-27.875 0,-17.875 -6.640625,-27.84375 -6.640625,-9.953125 -18.5625,-9.953125 z" />
              </defs>
              <use
                 height="100%"
                 width="100%"
                 y="0"
                 x="0"
                 id="use28"
                 xlink:href="#DejaVuSerif-48" />
            </g>
          </g>
        </g>
        <g
           id="xtick_2">
          <g
             id="line2d_3">
            <path
               id="path34"
               style="fill:none;stroke:#b0b0b0;stroke-width:0.8;stroke-linecap:square"
               d="M 122.23149,148.8189 V 20.409449"
               clip-path="url(#p2f6f0c1d65)" />
          </g>
          <g
             id="line2d_4">
            <g
               id="g39">
              <use
                 height="100%"
                 width="100%"
                 id="use37"
                 y="148.81889"
                 xlink:href="#m83b43eafa1"
                 x="122.23149"
                 style="stroke:#000000;stroke-width:0.8" />
            </g>
          </g>
          <g
             id="text_2">
            <!-- 200 -->
            <g
               id="g51"
               transform="matrix(0.11,0,0,-0.11,111.73337,164.17718)">
              <defs
                 id="defs43">
                <path
                   id="DejaVuSerif-50"
                   d="M 12.796875,55.515625 H 7.328125 V 68.5 q 5.21875,2.796875 10.515625,4.25 5.296875,1.46875 10.375,1.46875 11.375,0 17.96875,-5.515625 6.59375,-5.515625 6.59375,-14.984375 0,-10.703125 -14.9375,-25.59375 Q 36.671875,27 36.078125,26.421875 L 17.671875,8.015625 H 48.09375 V 17 H 53.8125 V 0 H 6.78125 v 5.328125 l 22.125,22.0625 q 7.328125,7.328125 10.453125,13.453125 3.125,6.125 3.125,12.875 0,7.359375 -3.84375,11.515625 -3.828125,4.15625 -10.5625,4.15625 -6.984375,0 -10.796875,-3.46875 -3.796875,-3.46875 -4.484375,-10.40625 z" />
              </defs>
              <use
                 height="100%"
                 width="100%"
                 y="0"
                 x="0"
                 id="use45"
                 xlink:href="#DejaVuSerif-50" />
              <use
                 height="100%"
                 width="100%"
                 y="0"
                 id="use47"
                 xlink:href="#DejaVuSerif-48"
                 x="63.623047" />
              <use
                 height="100%"
                 width="100%"
                 y="0"
                 id="use49"
                 xlink:href="#DejaVuSerif-48"
                 x="127.24609" />
            </g>
          </g>
        </g>
        <g
           id="xtick_3">
          <g
             id="line2d_5">
            <path
               id="path55"
               style="fill:none;stroke:#b0b0b0;stroke-width:0.8;stroke-linecap:square"
               d="M 193.08643,148.8189 V 20.409449"
               clip-path="url(#p2f6f0c1d65)" />
          </g>
          <g
             id="line2d_6">
            <g
               id="g60">
              <use
                 height="100%"
                 width="100%"
                 id="use58"
                 y="148.81889"
                 xlink:href="#m83b43eafa1"
                 x="193.08643"
                 style="stroke:#000000;stroke-width:0.8" />
            </g>
          </g>
          <g
             id="text_3">
            <!-- 400 -->
            <g
               id="g72"
               transform="matrix(0.11,0,0,-0.11,182.5883,164.17718)">
              <defs
                 id="defs64">
                <path
                   id="DejaVuSerif-52"
                   d="m 34.90625,24.703125 v 38.78125 L 10.015625,24.703125 Z M 56.390625,0 H 23.1875 v 5.171875 h 11.71875 v 14.3125 H 3.078125 V 24.8125 l 31.9375,49.40625 h 9.65625 V 24.703125 H 58.59375 v -5.21875 H 44.671875 v -14.3125 h 11.71875 z" />
              </defs>
              <use
                 height="100%"
                 width="100%"
                 y="0"
                 x="0"
                 id="use66"
                 xlink:href="#DejaVuSerif-52" />
              <use
                 height="100%"
                 width="100%"
                 y="0"
                 id="use68"
                 xlink:href="#DejaVuSerif-48"
                 x="63.623047" />
              <use
                 height="100%"
                 width="100%"
                 y="0"
                 id="use70"
                 xlink:href="#DejaVuSerif-48"
                 x="127.24609" />
            </g>
          </g>
        </g>
        <g
           id="text_4">
          <!-- Time $[ms]$ -->
          <g
             id="g105"
             transform="matrix(0.11,0,0,-0.11,111.73022,178.82312)">
            <defs
               id="defs85">
              <path
                 id="DejaVuSerif-84"
                 d="m 19.09375,0 v 5.171875 h 9.328125 V 67.09375 h -21.4375 v -11.375 h -6 v 17.1875 H 65.71875 v -17.1875 h -6 v 11.375 H 38.28125 V 5.171875 h 9.328125 V 0 Z" />
              <path
                 id="DejaVuSerif-105"
                 d="m 9.71875,68.015625 q 0,2.25 1.625,3.90625 1.640625,1.65625 3.9375,1.65625 2.25,0 3.875,-1.65625 1.640625,-1.65625 1.640625,-3.90625 0,-2.296875 -1.609375,-3.90625 Q 17.578125,62.5 15.28125,62.5 q -2.296875,0 -3.9375,1.609375 -1.625,1.609375 -1.625,3.90625 z M 21.1875,5.171875 h 8.5 V 0 H 3.609375 v 5.171875 h 8.59375 V 46.6875 h -8.59375 v 5.21875 H 21.1875 Z" />
              <path
                 id="DejaVuSerif-109"
                 d="m 51.8125,41.796875 q 2.578125,5.71875 6.609375,8.625 4.03125,2.90625 9.40625,2.90625 8.15625,0 12.15625,-5.0625 4,-5.046875 4,-15.25 V 5.171875 H 92.09375 V 0 H 67.1875 V 5.171875 H 75 v 26.8125 q 0,7.953125 -2.34375,11.328125 -2.34375,3.375 -7.765625,3.375 -6,0 -9.15625,-4.546875 Q 52.59375,37.59375 52.59375,28.90625 V 5.171875 h 7.8125 V 0 H 35.796875 v 5.171875 h 7.8125 v 27.15625 q 0,7.765625 -2.34375,11.0625 Q 38.921875,46.6875 33.5,46.6875 q -6.015625,0 -9.171875,-4.546875 Q 21.1875,37.59375 21.1875,28.90625 V 5.171875 H 29 V 0 H 4.109375 v 5.171875 h 8.09375 V 46.78125 h -8.59375 v 5.125 H 21.1875 v -9.234375 q 2.5,5.1875 6.34375,7.921875 3.859375,2.734375 8.75,2.734375 6.046875,0 10.09375,-3.015625 4.0625,-3 5.4375,-8.515625 z" />
              <path
                 id="DejaVuSerif-101"
                 d="m 54.203125,25 h -38.71875 v -0.390625 q 0,-10.5 3.953125,-15.84375 3.953125,-5.34375 11.671875,-5.34375 5.90625,0 9.6875,3.09375 3.78125,3.109375 5.296875,9.203125 h 7.234375 Q 51.171875,7.171875 45.375,2.875 39.59375,-1.421875 30.171875,-1.421875 q -11.375,0 -18.28125,7.5 -6.90625,7.5 -6.90625,19.90625 0,12.296875 6.78125,19.8125 6.796875,7.53125 17.828125,7.53125 11.765625,0 18.0625,-7.265625 6.296875,-7.25 6.546875,-21.0625 z m -10.59375,5.171875 q -0.296875,9.09375 -3.84375,13.703125 -3.53125,4.609375 -10.171875,4.609375 -6.203125,0 -9.765625,-4.640625 -3.5625,-4.640625 -4.34375,-13.671875 z" />
              <path
                 d=""
                 id="DejaVuSerif-32" />
              <path
                 id="DejaVuSans-91"
                 d="M 8.59375,75.984375 H 29.296875 V 69 H 17.578125 V -6.203125 h 11.71875 V -13.1875 H 8.59375 Z" />
              <path
                 id="DejaVuSans-Oblique-109"
                 d="M 89.796875,33.015625 83.40625,0 h -8.984375 l 6.296875,32.71875 q 0.390625,2.09375 0.578125,3.609375 Q 81.5,37.84375 81.5,38.921875 81.5,43.3125 79.046875,45.75 q -2.4375,2.4375 -6.828125,2.4375 -6.546875,0 -11.671875,-4.90625 -5.125,-4.90625 -6.640625,-12.765625 L 47.90625,0 H 38.921875 L 45.3125,32.71875 q 0.390625,1.796875 0.578125,3.328125 0.203125,1.546875 0.203125,2.765625 0,4.453125 -2.4375,6.90625 -2.4375,2.46875 -6.734375,2.46875 -6.640625,0 -11.78125,-4.90625 Q 20.015625,38.375 18.5,30.515625 L 12.5,0 H 3.515625 l 10.6875,54.6875 H 23.1875 l -1.703125,-8.5 q 3.65625,4.796875 8.5625,7.296875 Q 34.96875,56 40.578125,56 q 5.953125,0 9.78125,-3.125 3.84375,-3.125 4.625,-8.6875 4.09375,5.765625 9.484375,8.78125 Q 69.875,56 75.875,56 q 7.03125,0 10.859375,-4.046875 3.84375,-4.046875 3.84375,-11.46875 0,-1.609375 -0.203125,-3.546875 -0.1875,-1.921875 -0.578125,-3.921875 z" />
              <path
                 id="DejaVuSans-Oblique-115"
                 d="m 50,53.078125 -1.703125,-8.5 Q 44.734375,46.53125 40.765625,47.5 36.8125,48.484375 32.625,48.484375 q -7.09375,0 -11.171875,-2.421875 -4.0625,-2.40625 -4.0625,-6.5625 0,-4.828125 9.46875,-7.421875 0.734375,-0.1875 1.078125,-0.296875 l 2.875,-0.875 q 8.984375,-2.484375 11.984375,-5.21875 3,-2.734375 3,-7.46875 0,-8.703125 -6.90625,-14.171875 -6.90625,-5.46875 -18.09375,-5.46875 -4.34375,0 -9.125,0.84375 Q 6.890625,0.25 1.125,2 l 1.75,9.28125 q 4.9375,-2.546875 9.71875,-3.859375 4.796875,-1.3125 9.1875,-1.3125 6.59375,0 10.71875,2.828125 4.125,2.828125 4.125,7.171875 0,4.6875 -10.84375,7.578125 l -0.921875,0.234375 -3.078125,0.78125 Q 14.9375,26.515625 11.765625,29.46875 8.59375,32.421875 8.59375,37.015625 8.59375,45.75 15.15625,50.875 21.734375,56 33.015625,56 q 4.4375,0 8.65625,-0.734375 Q 45.90625,54.546875 50,53.078125 Z" />
              <path
                 id="DejaVuSans-93"
                 d="M 30.421875,75.984375 V -13.1875 H 9.71875 v 6.984375 H 21.390625 V 69 H 9.71875 v 6.984375 z" />
            </defs>
            <use
               height="100%"
               width="100%"
               y="0"
               x="0"
               id="use87"
               xlink:href="#DejaVuSerif-84"
               transform="translate(0,0.015625)" />
            <use
               height="100%"
               width="100%"
               y="0"
               x="0"
               id="use89"
               xlink:href="#DejaVuSerif-105"
               transform="translate(66.699219,0.015625)" />
            <use
               height="100%"
               width="100%"
               y="0"
               x="0"
               id="use91"
               xlink:href="#DejaVuSerif-109"
               transform="translate(98.681641,0.015625)" />
            <use
               height="100%"
               width="100%"
               y="0"
               x="0"
               id="use93"
               xlink:href="#DejaVuSerif-101"
               transform="translate(193.50586,0.015625)" />
            <use
               height="100%"
               width="100%"
               y="0"
               x="0"
               id="use95"
               xlink:href="#DejaVuSerif-32"
               transform="translate(252.68555,0.015625)" />
            <use
               height="100%"
               width="100%"
               y="0"
               x="0"
               id="use97"
               xlink:href="#DejaVuSans-91"
               transform="translate(284.47266,0.015625)" />
            <use
               height="100%"
               width="100%"
               y="0"
               x="0"
               id="use99"
               xlink:href="#DejaVuSans-Oblique-109"
               transform="translate(323.48633,0.015625)" />
            <use
               height="100%"
               width="100%"
               y="0"
               x="0"
               id="use101"
               xlink:href="#DejaVuSans-Oblique-115"
               transform="translate(420.89844,0.015625)" />
            <use
               height="100%"
               width="100%"
               y="0"
               x="0"
               id="use103"
               xlink:href="#DejaVuSans-93"
               transform="translate(472.99805,0.015625)" />
          </g>
        </g>
      </g>
      <g
         id="matplotlib.axis_2">
        <g
           id="ytick_1">
          <g
             id="line2d_7">
            <path
               id="path109"
               style="fill:none;stroke:#b0b0b0;stroke-width:0.8;stroke-linecap:square"
               d="M 42.519685,119.19326 H 237.37076"
               clip-path="url(#p2f6f0c1d65)" />
          </g>
          <g
             id="line2d_8">
            <defs
               id="defs113">
              <path
                 style="stroke:#000000;stroke-width:0.8"
                 id="mc38514a576"
                 d="M 0,0 H -3.5" />
            </defs>
            <g
               id="g117">
              <use
                 height="100%"
                 width="100%"
                 id="use115"
                 y="119.19326"
                 xlink:href="#mc38514a576"
                 x="42.519684"
                 style="stroke:#000000;stroke-width:0.8" />
            </g>
          </g>
          <g
             id="text_5">
            <!-- −0.02 -->
            <g
               id="g134"
               transform="matrix(0.11,0,0,-0.11,1.809841,123.3724)">
              <defs
                 id="defs122">
                <path
                   id="DejaVuSerif-8722"
                   d="M 10.59375,35.296875 H 73.1875 v -7.90625 H 10.59375 Z" />
                <path
                   id="DejaVuSerif-46"
                   d="m 9.421875,5.078125 q 0,2.734375 1.859375,4.640625 1.859375,1.90625 4.640625,1.90625 2.6875,0 4.578125,-1.90625 1.90625,-1.90625 1.90625,-4.640625 0,-2.6875 -1.90625,-4.59375 -1.890625,-1.90625 -4.578125,-1.90625 -2.78125,0 -4.640625,1.875 -1.859375,1.890625 -1.859375,4.625 z" />
              </defs>
              <use
                 height="100%"
                 width="100%"
                 y="0"
                 x="0"
                 id="use124"
                 xlink:href="#DejaVuSerif-8722" />
              <use
                 height="100%"
                 width="100%"
                 y="0"
                 id="use126"
                 xlink:href="#DejaVuSerif-48"
                 x="83.789062" />
              <use
                 height="100%"
                 width="100%"
                 y="0"
                 id="use128"
                 xlink:href="#DejaVuSerif-46"
                 x="147.41211" />
              <use
                 height="100%"
                 width="100%"
                 y="0"
                 id="use130"
                 xlink:href="#DejaVuSerif-48"
                 x="179.19922" />
              <use
                 height="100%"
                 width="100%"
                 y="0"
                 id="use132"
                 xlink:href="#DejaVuSerif-50"
                 x="242.82227" />
            </g>
          </g>
        </g>
        <g
           id="ytick_2">
          <g
             id="line2d_9">
            <path
               id="path138"
               style="fill:none;stroke:#b0b0b0;stroke-width:0.8;stroke-linecap:square"
               d="M 42.519685,78.150655 H 237.37076"
               clip-path="url(#p2f6f0c1d65)" />
          </g>
          <g
             id="line2d_10">
            <g
               id="g143">
              <use
                 height="100%"
                 width="100%"
                 id="use141"
                 y="78.150658"
                 xlink:href="#mc38514a576"
                 x="42.519684"
                 style="stroke:#000000;stroke-width:0.8" />
            </g>
          </g>
          <g
             id="text_6">
            <!-- 0.00 -->
            <g
               id="g154"
               transform="matrix(0.11,0,0,-0.11,11.027498,82.329795)">
              <use
                 height="100%"
                 width="100%"
                 y="0"
                 x="0"
                 id="use146"
                 xlink:href="#DejaVuSerif-48" />
              <use
                 height="100%"
                 width="100%"
                 y="0"
                 id="use148"
                 xlink:href="#DejaVuSerif-46"
                 x="63.623047" />
              <use
                 height="100%"
                 width="100%"
                 y="0"
                 id="use150"
                 xlink:href="#DejaVuSerif-48"
                 x="95.410156" />
              <use
                 height="100%"
                 width="100%"
                 y="0"
                 id="use152"
                 xlink:href="#DejaVuSerif-48"
                 x="159.0332" />
            </g>
          </g>
        </g>
        <g
           id="ytick_3">
          <g
             id="line2d_11">
            <path
               id="path158"
               style="fill:none;stroke:#b0b0b0;stroke-width:0.8;stroke-linecap:square"
               d="M 42.519685,37.10805 H 237.37076"
               clip-path="url(#p2f6f0c1d65)" />
          </g>
          <g
             id="line2d_12">
            <g
               id="g163">
              <use
                 height="100%"
                 width="100%"
                 id="use161"
                 y="37.108051"
                 xlink:href="#mc38514a576"
                 x="42.519684"
                 style="stroke:#000000;stroke-width:0.8" />
            </g>
          </g>
          <g
             id="text_7">
            <!-- 0.02 -->
            <g
               id="g174"
               transform="matrix(0.11,0,0,-0.11,11.027498,41.287191)">
              <use
                 height="100%"
                 width="100%"
                 y="0"
                 x="0"
                 id="use166"
                 xlink:href="#DejaVuSerif-48" />
              <use
                 height="100%"
                 width="100%"
                 y="0"
                 id="use168"
                 xlink:href="#DejaVuSerif-46"
                 x="63.623047" />
              <use
                 height="100%"
                 width="100%"
                 y="0"
                 id="use170"
                 xlink:href="#DejaVuSerif-48"
                 x="95.410156" />
              <use
                 height="100%"
                 width="100%"
                 y="0"
                 id="use172"
                 xlink:href="#DejaVuSerif-50"
                 x="159.0332" />
            </g>
          </g>
        </g>
        <g
           id="text_8">
          <!-- Voltage $[V]$ -->
          <g
             id="g209"
             transform="matrix(0,-0.11,-0.11,0,-4.720159,115.74417)">
            <defs
               id="defs185">
              <path
                 id="DejaVuSerif-86"
                 d="M 17.484375,67.671875 39.015625,11.71875 60.5,67.671875 H 52.296875 V 72.90625 H 73.6875 V 67.671875 H 66.609375 L 40.578125,0 h -8.40625 l -25.875,67.671875 h -7.28125 V 72.90625 H 25.59375 v -5.234375 z" />
              <path
                 id="DejaVuSerif-111"
                 d="m 30.078125,3.421875 q 7.234375,0 10.90625,5.703125 3.6875,5.71875 3.6875,16.859375 0,11.125 -3.6875,16.8125 -3.671875,5.6875 -10.90625,5.6875 -7.21875,0 -10.90625,-5.6875 -3.6875,-5.6875 -3.6875,-16.8125 0,-11.140625 3.703125,-16.859375 3.71875,-5.703125 10.890625,-5.703125 z m 0,-4.84375 q -11.328125,0 -18.21875,7.5 -6.875,7.5 -6.875,19.90625 0,12.390625 6.859375,19.859375 6.859375,7.484375 18.234375,7.484375 11.375,0 18.234375,-7.484375 6.859375,-7.46875 6.859375,-19.859375 0,-12.40625 -6.859375,-19.90625 -6.859375,-7.5 -18.234375,-7.5 z" />
              <path
                 id="DejaVuSerif-108"
                 d="M 20.515625,5.171875 H 29 V 0 H 2.875 v 5.171875 h 8.65625 v 65.625 H 2.875 v 5.1875 h 17.640625 z" />
              <path
                 id="DejaVuSerif-116"
                 d="M 10.796875,46.6875 H 2.875 v 5.21875 h 7.921875 v 16.109375 h 9.03125 V 51.90625 H 36.71875 V 46.6875 H 19.828125 V 13.71875 q 0,-6.59375 1.265625,-8.453125 1.265625,-1.84375 4.6875,-1.84375 3.515625,0 5.125,2.0625 1.609375,2.078125 1.71875,6.71875 h 6.78125 Q 39.015625,5.125 35.546875,1.84375 32.078125,-1.421875 25,-1.421875 q -7.765625,0 -10.984375,3.4375 -3.21875,3.453125 -3.21875,11.703125 z" />
              <path
                 id="DejaVuSerif-97"
                 d="M 39.796875,16.3125 V 27.296875 H 28.21875 q -6.6875,0 -9.96875,-2.890625 -3.265625,-2.875 -3.265625,-8.828125 0,-5.421875 3.3125,-8.59375 3.328125,-3.171875 9,-3.171875 5.609375,0 9.046875,3.46875 3.453125,3.46875 3.453125,9.03125 z m 8.984375,16.109375 v -27.25 h 8 V 0 H 39.796875 V 5.609375 Q 36.8125,2 32.90625,0.28125 29,-1.421875 23.78125,-1.421875 q -8.640625,0 -13.71875,4.59375 -5.078125,4.59375 -5.078125,12.40625 0,8.0625 5.8125,12.5 5.8125,4.4375 16.40625,4.4375 h 12.59375 v 3.5625 q 0,5.921875 -3.59375,9.15625 -3.578125,3.25 -10.078125,3.25 -5.375,0 -8.546875,-2.4375 Q 14.40625,43.609375 13.625,38.8125 H 8.984375 v 10.5 q 4.6875,2 9.109375,3 4.421875,1.015625 8.609375,1.015625 10.796875,0 16.4375,-5.359375 Q 48.78125,42.625 48.78125,32.421875 Z" />
              <path
                 id="DejaVuSerif-103"
                 d="M 52.484375,46.6875 V 1.125 q 0,-11.1875 -6.15625,-17.265625 Q 40.1875,-22.21875 28.8125,-22.21875 q -5.125,0 -9.8125,0.9375 -4.6875,0.921875 -8.984375,2.78125 v 10.875 h 4.6875 q 0.875,-5.078125 4.140625,-7.421875 3.28125,-2.34375 9.375,-2.34375 7.921875,0 11.59375,4.46875 Q 43.5,-8.453125 43.5,1.125 v 6.984375 q -2.625,-4.890625 -6.703125,-7.21875 -4.078125,-2.3125 -10.09375,-2.3125 -9.5625,0 -15.640625,7.59375 -6.078125,7.59375 -6.078125,19.8125 0,12.203125 6.046875,19.765625 6.0625,7.578125 15.671875,7.578125 6.015625,0 10.09375,-2.328125 Q 40.875,48.6875 43.5,43.796875 V 51.90625 H 61.078125 V 46.6875 Z M 43.5,28.515625 q 0,9.328125 -3.59375,14.25 -3.578125,4.9375 -10.40625,4.9375 -6.9375,0 -10.484375,-5.46875 -3.53125,-5.46875 -3.53125,-16.25 0,-10.75 3.53125,-16.265625 Q 22.5625,4.203125 29.5,4.203125 q 6.828125,0 10.40625,4.90625 Q 43.5,14.015625 43.5,23.390625 Z" />
              <path
                 id="DejaVuSans-Oblique-86"
                 d="M 20.609375,0 7.8125,72.90625 h 9.671875 L 28.078125,10.203125 63.484375,72.90625 H 74.21875 L 32.078125,0 Z" />
            </defs>
            <use
               height="100%"
               width="100%"
               y="0"
               x="0"
               id="use187"
               xlink:href="#DejaVuSerif-86"
               transform="translate(0,0.015625)" />
            <use
               height="100%"
               width="100%"
               y="0"
               x="0"
               id="use189"
               xlink:href="#DejaVuSerif-111"
               transform="translate(72.216797,0.015625)" />
            <use
               height="100%"
               width="100%"
               y="0"
               x="0"
               id="use191"
               xlink:href="#DejaVuSerif-108"
               transform="translate(132.42187,0.015625)" />
            <use
               height="100%"
               width="100%"
               y="0"
               x="0"
               id="use193"
               xlink:href="#DejaVuSerif-116"
               transform="translate(164.4043,0.015625)" />
            <use
               height="100%"
               width="100%"
               y="0"
               x="0"
               id="use195"
               xlink:href="#DejaVuSerif-97"
               transform="translate(204.58984,0.015625)" />
            <use
               height="100%"
               width="100%"
               y="0"
               x="0"
               id="use197"
               xlink:href="#DejaVuSerif-103"
               transform="translate(264.20898,0.015625)" />
            <use
               height="100%"
               width="100%"
               y="0"
               x="0"
               id="use199"
               xlink:href="#DejaVuSerif-101"
               transform="translate(328.22266,0.015625)" />
            <use
               height="100%"
               width="100%"
               y="0"
               x="0"
               id="use201"
               xlink:href="#DejaVuSerif-32"
               transform="translate(387.40234,0.015625)" />
            <use
               height="100%"
               width="100%"
               y="0"
               x="0"
               id="use203"
               xlink:href="#DejaVuSans-91"
               transform="translate(419.18945,0.015625)" />
            <use
               height="100%"
               width="100%"
               y="0"
               x="0"
               id="use205"
               xlink:href="#DejaVuSans-Oblique-86"
               transform="translate(458.20312,0.015625)" />
            <use
               height="100%"
               width="100%"
               y="0"
               x="0"
               id="use207"
               xlink:href="#DejaVuSans-93"
               transform="translate(526.61133,0.015625)" />
          </g>
        </g>
      </g>
      <g
         id="line2d_13">
        <path
           id="path213"
           style="fill:none;stroke:#d69e70;stroke-width:2;stroke-linecap:square"
           d="m 51.376552,85.650043 0.354985,22.119257 1.064954,-53.112839 0.354985,29.642875 0.354984,-30.815042 0.354985,25.15367 0.709969,-50.579368 0.354985,71.218542 0.354984,-12.236268 0.354985,-19.317909 0.354985,29.626151 0.354984,-26.279104 0.354985,44.128062 0.354985,-53.843547 0.354984,11.300639 0.354985,5.171082 0.354985,-34.031115 0.354984,43.22387 0.70997,-1.842005 0.354984,43.332576 0.354985,-52.786583 0.354985,8.030791 0.354984,-1.881186 0.354985,24.735988 0.354985,-43.090064 0.354984,35.976464 0.354985,-7.016574 0.354985,2.680885 0.709969,20.734479 0.354985,-44.086672 0.354984,17.632845 0.354985,11.455057 0.354985,-3.252702 0.354984,5.987642 0.354985,-2.94729 0.354985,-25.661774 0.709969,15.619082 0.354985,-28.033267 0.354984,18.984706 0.354985,-9.11644 0.354984,1.11905 0.354985,-1.359172 0.354985,26.80111 0.354984,-0.375427 0.354985,-25.76453 0.354985,23.797447 0.354984,-20.16672 0.354985,3.215781 0.354985,63.239604 0.354984,-48.940145 0.354985,9.168285 0.354985,-5.279414 0.354984,1.602097 0.354985,-28.08845 0.354985,27.045197 0.354984,4.45501 0.354985,-41.850862 0.354985,5.63763 0.354984,-17.885266 0.354985,36.623051 0.354985,-12.356923 0.354984,-5.272128 0.354985,-17.003271 0.354985,60.210289 0.354984,-62.040482 0.354985,56.787722 0.709969,-29.662511 0.354985,14.743734 0.354985,-24.617639 0.354984,19.339081 0.354985,-2.345495 0.354985,-10.092383 0.354984,-24.595776 0.354985,42.66368 0.354984,-40.119004 0.354985,-8.081474 0.354985,23.13912 0.354984,7.924572 0.354985,12.424783 0.354985,-21.3441 0.354984,14.066891 0.354985,-5.009902 0.354985,19.781906 0.354984,-44.240282 0.354985,20.610942 0.354985,-2.038191 0.354984,28.048934 0.354985,-24.172443 0.354985,29.970147 0.354984,9.00028 0.354985,-51.668027 0.354985,32.920236 0.354984,-11.997445 0.354985,0.35652 0.354985,-6.453246 0.354984,31.448252 0.354985,4.38948 0.354985,-4.32334 0.354984,-30.327352 0.70997,48.879932 0.354984,-48.859916 0.354985,-8.983115 0.354985,2.798341 0.354984,21.852621 0.354985,-59.840885 0.354985,19.121507 0.354984,-6.226077 0.354985,41.452403 0.354984,3.153347 0.354985,-9.708932 0.354985,18.819276 0.354984,-35.590769 0.354985,2.445354 0.354985,16.935096 0.354984,-32.811868 0.354985,38.865129 0.354985,-0.986645 0.354984,-29.092262 0.354985,37.909316 0.354985,-28.456322 0.354984,22.642824 0.354985,6.543452 0.354985,-12.776243 0.354984,-1.87259 0.354985,33.180278 0.354985,-48.712682 0.354984,6.029423 0.354985,1.240855 0.354985,4.372361 0.354984,16.733404 0.35499,-24.271512 0.35498,19.282714 0.35498,-1.263358 0.35499,-14.964968 0.35498,-29.811213 0.35499,51.509694 0.35498,-67.612591 0.35499,47.48827 0.35498,19.930557 0.35499,3.229584 0.35498,-5.834966 0.35499,5.738312 0.70997,-19.763815 0.35498,-22.348758 0.35499,39.548082 0.35498,-0.883077 0.35498,-33.962689 0.35499,2.788275 0.35498,4.15126 0.35499,12.235426 0.35498,-20.810156 0.70997,45.334658 0.35499,-31.234163 0.70997,45.225453 0.35498,-44.511007 0.35499,19.30253 0.35498,-11.265961 0.35499,32.681758 0.35498,-53.456163 0.35498,35.695243 0.35499,14.35172 0.35498,-83.057507 0.35499,37.900801 0.35498,-12.815113 0.35499,14.925992 0.35498,6.521024 0.35499,-21.232665 0.35498,39.84503 0.35499,-11.915582 0.35498,2.770674 0.35499,3.669324 0.35498,-42.475946 0.35499,6.822492 0.70996,23.83799 0.35499,-17.844341 0.35498,16.93705 0.35499,6.166576 0.35498,12.703219 0.35499,-60.185274 0.35498,47.571154 0.35499,-8.559727 0.35498,-5.082815 0.70997,31.713239 0.35499,-35.962911 0.35498,11.708559 0.35498,-26.17722 0.35499,56.920227 0.35498,-30.267696 0.35499,8.231971 0.35498,-40.68163 0.35499,36.140325 0.35498,-17.414549 0.70997,46.854879 0.35499,4.45592 0.35498,-17.963335 0.35499,6.982315 0.35498,-43.447288 0.35499,-2.445693 0.35498,28.199786 0.35498,-57.904955 0.35499,29.876463 0.35498,13.502254 0.35499,3.13617 0.35498,55.846403 0.35499,-6.67176 0.35498,-62.67602 0.35499,36.976572 0.35498,-25.022061 0.35499,56.403129 0.70996,-54.829716 0.35499,30.149806 0.35498,-10.488677 0.35499,-30.923608 0.35498,-16.532509 0.35499,48.613067 0.35498,-11.270183 0.35499,50.03519 0.35498,-18.04086 0.35499,-49.430049 0.35498,23.115742 0.35499,11.393503 0.35498,-62.247586 0.35499,38.644492 0.35498,21.475797 0.35498,-37.475547 0.35499,-13.055232 0.35498,34.823655 0.35499,-18.033431 0.35498,36.254306 0.35499,-14.728054 0.35498,28.370144 0.35499,-2.80861 0.35498,-66.647982 0.35499,6.56821 0.35498,15.515954 0.35499,-10.449406 0.35498,42.28691 0.70997,-29.775752 0.35498,-14.113921 0.35499,44.365799 0.35498,10.586638 0.35499,-46.863258 0.35498,15.336097 0.35499,41.982041 0.35498,-52.148865 0.35499,17.263782 0.35498,5.268182 0.35499,2.978467 0.35498,-42.343394 0.35499,27.510732 0.35498,-4.563726 0.35499,-8.032095 0.35498,28.663411 0.35498,-3.64497 0.35499,-9.912273 0.35498,24.927619 0.35499,1.70151 0.35498,-13.374607 0.35499,-47.923884 0.35498,0.164475 0.35499,44.880082 0.35498,-34.59968 0.35499,22.918097 0.35498,-25.975412 0.35499,4.439137 0.70997,36.955661 0.35498,3.179121 0.35498,-34.998971 0.35499,-10.383655 0.35498,29.50401 0.35499,-11.226899 0.35498,11.814772 0.35499,-24.197613 0.35498,33.138525 0.35499,-13.687681 0.35498,-8.512393 0.35499,0.638458 0.35498,-0.65719 0.35499,20.188316 0.35498,-35.709919 0.35498,23.598751 0.35499,14.08099 0.35498,-14.26751 0.35499,-44.423119 0.35498,60.034619 0.35499,9.042409 0.35498,-43.482723 0.35499,12.679918 0.35498,-14.396943 0.35499,57.779828 0.35498,-24.722166 0.35499,23.761796 0.35498,-50.237341 0.35499,-4.425187 0.35498,38.710973 0.35498,-22.322896 0.35499,-9.260448 0.35498,10.194262 0.35499,0.106785 0.70997,8.549164 0.35498,-11.557625 0.35499,44.274243 0.35498,-66.336197 0.35499,35.555033 0.35498,-1.390362 0.35499,22.903976 0.35498,-27.058645 0.35499,-4.745701 0.35498,11.590615 0.35498,-5.255092 0.35499,-17.036003 0.35498,61.386416 0.35499,-91.392402 0.35498,36.914994 0.35499,23.892376 0.35498,-9.51872 0.35499,-25.863963 0.35498,31.380711 0.35499,-13.888912 0.35498,5.40543 0.35499,-14.094808 0.35498,13.600836 0.35499,-1.399855 0.35498,20.884693 0.35498,3.91697 0.35499,-7.52664 0.35498,-3.534658 0.35499,-21.827653 0.35498,-11.863875 0.35499,22.140804 0.35498,-5.127266 0.35499,22.943808 0.35498,-37.580807 0.35499,5.906717 0.35498,1.446766 0.35499,-16.137615 0.35498,18.56262 0.35499,7.251409 0.35498,1.402899 0.35498,-13.891165 0.70997,23.84347 0.35499,-37.213632 0.35498,43.514554 0.35499,-22.645271 0.35498,32.312655 0.35499,-12.923751 0.35498,-24.910474 0.35499,-12.658073 0.35498,-0.331385 0.35499,0.09351 0.35498,13.02272 0.35498,0.886513 0.35499,-12.256551 0.35498,49.711481 0.35499,-71.613626 0.70997,54.170236 0.35498,-34.474864 0.35499,25.738932 0.35498,15.365476 0.35499,-31.14668 0.35498,42.090796 0.35499,-56.945094 0.35498,-5.60725 0.35499,39.888686 0.35498,-26.787087 0.35498,-9.7863 0.35499,2.712328 0.35498,59.371837 0.35499,-30.63763 0.35498,-19.186398 0.35499,-7.2504 0.35498,24.323857 0.35499,-27.57139 0.35498,46.617867 0.35499,-55.588441 0.35498,65.424595 0.70997,-40.104659 0.35499,-3.779725 0.35498,11.817795 0.35498,-46.225293 0.35499,64.892093 0.35498,-40.377817 0.35499,32.132029 0.35498,-3.989074 0.35499,16.20838 0.35498,-52.863448 0.35499,29.857209 0.35498,-1.059897 0.35499,23.330148 0.35498,-4.116426 0.35499,-26.356444 0.35498,20.48362 0.35499,12.951579 0.35498,-33.591171 0.35498,27.297611 0.35499,2.479847 0.35498,-20.323526 0.35499,24.886449 0.35498,-22.004401 0.35499,-12.169579 0.35498,-5.045903 0.70997,23.559545 0.35499,-21.286699 0.35498,6.198923 0.35499,1.655519 0.35498,11.025964 0.35499,-13.31866 0.35498,-27.643246 0.35498,44.02827 0.35499,-14.094457 0.35498,48.386564 0.35499,-47.814459 0.35498,14.580386 0.35499,-30.677374 0.35498,22.886703 0.35499,-21.725475 0.35498,7.253432 0.35499,-31.134081 0.35498,27.552656 0.35499,62.196082 0.35498,-41.938743 0.70997,13.114706 0.35498,-11.537971 0.35499,-30.220683 0.35498,-2.833212 0.35499,-22.315274 0.70997,56.687116 0.35498,-5.735352 0.35499,9.755055 0.35498,-19.208723 0.35499,-37.520206 0.35498,20.552499 0.35499,58.880708 0.35498,-8.26969 0.35499,-36.906845 0.35498,29.507615 0.35498,-12.790401 0.35499,-41.310733 1.06495,46.486521 0.35499,-45.074399 0.35498,-3.715981 0.35499,35.663949 0.35498,-1.100153 0.35499,27.779887 0.35498,-16.412003 0.35499,26.516123 0.35498,-36.671616 0.35498,24.352426 0.35499,-10.11628 0.35498,-0.576665 0.35499,11.824355 0.35498,-37.759435 0.35499,41.974015 0.35498,-45.982577 0.35499,41.988647 0.35498,-17.79607 0.70997,-13.181976 0.35499,10.877924 0.35498,21.571322 0.35499,-42.598873 0.35498,25.806313 0.35498,3.093836 0.35499,-11.631737 0.35498,37.157921 0.35499,-49.465464 0.35498,-19.593553 0.35499,5.062058 0.35498,-24.940549 0.35499,56.931908 0.35498,-9.574698 0.35499,26.191328 0.35498,-36.690628 0.35499,24.937303 v 0"
           clip-path="url(#p2f6f0c1d65)" />
      </g>
      <g
         id="patch_3">
        <path
           id="path216"
           style="fill:none;stroke:#000000;stroke-width:0.8;stroke-linecap:square;stroke-linejoin:miter"
           d="M 42.519685,148.8189 V 20.409449" />
      </g>
      <g
         id="patch_4">
        <path
           id="path219"
           style="fill:none;stroke:#000000;stroke-width:0.8;stroke-linecap:square;stroke-linejoin:miter"
           d="M 237.37076,148.8189 V 20.409449" />
      </g>
      <g
         id="patch_5">
        <path
           id="path222"
           style="fill:none;stroke:#000000;stroke-width:0.8;stroke-linecap:square;stroke-linejoin:miter"
           d="M 42.519685,148.8189 H 237.37076" />
      </g>
      <g
         id="patch_6">
        <path
           id="path225"
           style="fill:none;stroke:#000000;stroke-width:0.8;stroke-linecap:square;stroke-linejoin:miter"
           d="M 42.519685,20.409449 H 237.37076" />
      </g>
      <g
         id="text_9">
        <!-- Time-domain -->
        <g
           id="g255"
           transform="matrix(0.132,0,0,-0.132,96.282099,-0.371664)">
          <defs
             id="defs231">
            <path
               id="DejaVuSerif-45"
               d="m 4.390625,30.609375 h 25 V 23 h -25 z" />
            <path
               id="DejaVuSerif-100"
               d="m 52.484375,5.171875 h 8.59375 V 0 H 43.5 v 8.109375 q -2.625,-4.890625 -6.703125,-7.21875 -4.078125,-2.3125 -10.09375,-2.3125 -9.5625,0 -15.640625,7.59375 -6.078125,7.59375 -6.078125,19.8125 0,12.203125 6.046875,19.765625 6.0625,7.578125 15.671875,7.578125 6.015625,0 10.09375,-2.328125 Q 40.875,48.6875 43.5,43.796875 v 27 h -8.484375 v 5.1875 h 17.46875 z M 43.5,23.390625 v 5.125 q 0,9.328125 -3.59375,14.25 -3.578125,4.9375 -10.40625,4.9375 -6.9375,0 -10.484375,-5.46875 -3.53125,-5.46875 -3.53125,-16.25 0,-10.75 3.53125,-16.265625 Q 22.5625,4.203125 29.5,4.203125 q 6.828125,0 10.40625,4.90625 Q 43.5,14.015625 43.5,23.390625 Z" />
            <path
               id="DejaVuSerif-110"
               d="m 4.109375,0 v 5.171875 h 8.09375 V 46.6875 h -8.59375 v 5.21875 H 21.1875 v -9.234375 q 2.5,5.28125 6.46875,7.96875 3.984375,2.6875 9.265625,2.6875 8.59375,0 12.640625,-4.9375 4.046875,-4.9375 4.046875,-15.375 V 5.171875 H 61.625 V 0 H 36.8125 v 5.171875 h 7.765625 v 25 q 0,9.53125 -2.34375,13.0625 -2.34375,3.546875 -8.25,3.546875 -6.25,0 -9.53125,-4.578125 Q 21.1875,37.640625 21.1875,28.90625 V 5.171875 H 29 V 0 Z" />
          </defs>
          <use
             height="100%"
             width="100%"
             y="0"
             x="0"
             id="use233"
             xlink:href="#DejaVuSerif-84" />
          <use
             height="100%"
             width="100%"
             y="0"
             id="use235"
             xlink:href="#DejaVuSerif-105"
             x="66.699219" />
          <use
             height="100%"
             width="100%"
             y="0"
             id="use237"
             xlink:href="#DejaVuSerif-109"
             x="98.681641" />
          <use
             height="100%"
             width="100%"
             y="0"
             id="use239"
             xlink:href="#DejaVuSerif-101"
             x="193.50586" />
          <use
             height="100%"
             width="100%"
             y="0"
             id="use241"
             xlink:href="#DejaVuSerif-45"
             x="252.68555" />
          <use
             height="100%"
             width="100%"
             y="0"
             id="use243"
             xlink:href="#DejaVuSerif-100"
             x="286.47461" />
          <use
             height="100%"
             width="100%"
             y="0"
             id="use245"
             xlink:href="#DejaVuSerif-111"
             x="350.48828" />
          <use
             height="100%"
             width="100%"
             y="0"
             id="use247"
             xlink:href="#DejaVuSerif-109"
             x="410.69336" />
          <use
             height="100%"
             width="100%"
             y="0"
             id="use249"
             xlink:href="#DejaVuSerif-97"
             x="505.51758" />
          <use
             height="100%"
             width="100%"
             y="0"
             id="use251"
             xlink:href="#DejaVuSerif-105"
             x="565.13672" />
          <use
             height="100%"
             width="100%"
             y="0"
             id="use253"
             xlink:href="#DejaVuSerif-110"
             x="597.11914" />
        </g>
        <!-- noise -->
        <g
           id="g270"
           transform="matrix(0.132,0,0,-0.132,122.31704,14.409449)">
          <defs
             id="defs258">
            <path
               id="DejaVuSerif-115"
               d="m 5.609375,2.875 v 12.109375 h 5.1875 q 0.1875,-5.796875 3.625,-8.6875 3.453125,-2.875 10.1875,-2.875 6.0625,0 9.234375,2.265625 3.171875,2.265625 3.171875,6.625 0,3.40625 -2.328125,5.5 -2.3125,2.109375 -9.78125,4.5 l -6.5,2.203125 q -6.6875,2.140625 -9.6875,5.359375 -3,3.234375 -3,8.21875 0,7.125 5.21875,11.171875 5.21875,4.0625 14.453125,4.0625 4.109375,0 8.640625,-1.078125 4.546875,-1.078125 9.375,-3.125 V 37.796875 h -5.171875 q -0.203125,5.03125 -3.53125,7.859375 -3.3125,2.828125 -9.015625,2.828125 -5.671875,0 -8.578125,-2 -2.90625,-2 -2.90625,-6 0,-3.28125 2.203125,-5.265625 2.203125,-1.96875 8.796875,-4.015625 L 32.328125,29 q 7.375,-2.296875 10.609375,-5.734375 3.25,-3.4375 3.25,-8.859375 0,-7.375 -5.640625,-11.609375 Q 34.90625,-1.421875 25,-1.421875 q -5.03125,0 -9.8125,1.078125 Q 10.40625,0.734375 5.609375,2.875 Z" />
          </defs>
          <use
             height="100%"
             width="100%"
             y="0"
             x="0"
             id="use260"
             xlink:href="#DejaVuSerif-110" />
          <use
             height="100%"
             width="100%"
             y="0"
             id="use262"
             xlink:href="#DejaVuSerif-111"
             x="64.404297" />
          <use
             height="100%"
             width="100%"
             y="0"
             id="use264"
             xlink:href="#DejaVuSerif-105"
             x="124.60938" />
          <use
             height="100%"
             width="100%"
             y="0"
             id="use266"
             xlink:href="#DejaVuSerif-115"
             x="156.5918" />
          <use
             height="100%"
             width="100%"
             y="0"
             id="use268"
             xlink:href="#DejaVuSerif-101"
             x="207.91016" />
        </g>
      </g>
    </g>
    <g
       id="axes_2">
      <g
         id="patch_7">
        <path
           id="path274"
           style="fill:#ffffff"
           d="m 248.83259,148.8189 h 57.30914 V 20.409449 h -57.30914 z" />
      </g>
      <g
         id="patch_8">
        <path
           id="path277"
           style="opacity:0.2;fill:#d69e70"
           d="m 248.83259,142.9821 h 0.92509 v -5.83679 h -0.92509 z"
           clip-path="url(#p865930896e)" />
      </g>
      <g
         id="patch_9">
        <path
           id="path280"
           style="opacity:0.2;fill:#d69e70"
           d="m 248.83259,137.14531 h 0.92509 v -5.83679 h -0.92509 z"
           clip-path="url(#p865930896e)" />
      </g>
      <g
         id="patch_10">
        <path
           id="path283"
           style="opacity:0.2;fill:#d69e70"
           d="m 248.83259,131.30852 h 3.70035 v -5.83679 h -3.70035 z"
           clip-path="url(#p865930896e)" />
      </g>
      <g
         id="patch_11">
        <path
           id="path286"
           style="opacity:0.2;fill:#d69e70"
           d="m 248.83259,125.47173 h 4.62544 v -5.8368 h -4.62544 z"
           clip-path="url(#p865930896e)" />
      </g>
      <g
         id="patch_12">
        <path
           id="path289"
           style="opacity:0.2;fill:#d69e70"
           d="m 248.83259,119.63493 h 8.32578 v -5.83679 h -8.32578 z"
           clip-path="url(#p865930896e)" />
      </g>
      <g
         id="patch_13">
        <path
           id="path292"
           style="opacity:0.2;fill:#d69e70"
           d="m 248.83259,113.79814 h 16.65157 v -5.83679 h -16.65157 z"
           clip-path="url(#p865930896e)" />
      </g>
      <g
         id="patch_14">
        <path
           id="path295"
           style="opacity:0.2;fill:#d69e70"
           d="m 248.83259,107.96135 h 23.12718 v -5.8368 h -23.12718 z"
           clip-path="url(#p865930896e)" />
      </g>
      <g
         id="patch_15">
        <path
           id="path298"
           style="opacity:0.2;fill:#d69e70"
           d="m 248.83259,102.12455 h 40.70383 v -5.836791 h -40.70383 z"
           clip-path="url(#p865930896e)" />
      </g>
      <g
         id="patch_16">
        <path
           id="path301"
           style="opacity:0.2;fill:#d69e70"
           d="m 248.83259,96.287759 h 37.92857 v -5.836793 h -37.92857 z"
           clip-path="url(#p865930896e)" />
      </g>
      <g
         id="patch_17">
        <path
           id="path304"
           style="opacity:0.2;fill:#d69e70"
           d="m 248.83259,90.450966 h 44.40418 v -5.836793 h -44.40418 z"
           clip-path="url(#p865930896e)" />
      </g>
      <g
         id="patch_18">
        <path
           id="path307"
           style="opacity:0.2;fill:#d69e70"
           d="m 248.83259,84.614173 h 54.58014 V 78.77738 h -54.58014 z"
           clip-path="url(#p865930896e)" />
      </g>
      <g
         id="patch_19">
        <path
           id="path310"
           style="opacity:0.2;fill:#d69e70"
           d="m 248.83259,78.77738 h 53.65505 v -5.836793 h -53.65505 z"
           clip-path="url(#p865930896e)" />
      </g>
      <g
         id="patch_20">
        <path
           id="path313"
           style="opacity:0.2;fill:#d69e70"
           d="m 248.83259,72.940587 h 45.32926 v -5.836793 h -45.32926 z"
           clip-path="url(#p865930896e)" />
      </g>
      <g
         id="patch_21">
        <path
           id="path316"
           style="opacity:0.2;fill:#d69e70"
           d="M 248.83259,67.103794 H 283.9859 V 61.267001 H 248.83259 Z"
           clip-path="url(#p865930896e)" />
      </g>
      <g
         id="patch_22">
        <path
           id="path319"
           style="opacity:0.2;fill:#d69e70"
           d="m 248.83259,61.267001 h 32.37805 v -5.836793 h -32.37805 z"
           clip-path="url(#p865930896e)" />
      </g>
      <g
         id="patch_23">
        <path
           id="path322"
           style="opacity:0.2;fill:#d69e70"
           d="m 248.83259,55.430208 h 24.05226 v -5.836794 h -24.05226 z"
           clip-path="url(#p865930896e)" />
      </g>
      <g
         id="patch_24">
        <path
           id="path325"
           style="opacity:0.2;fill:#d69e70"
           d="m 248.83259,49.593414 h 15.72648 v -5.836793 h -15.72648 z"
           clip-path="url(#p865930896e)" />
      </g>
      <g
         id="patch_25">
        <path
           id="path328"
           style="opacity:0.2;fill:#d69e70"
           d="m 248.83259,43.756621 h 7.4007 v -5.836793 h -7.4007 z"
           clip-path="url(#p865930896e)" />
      </g>
      <g
         id="patch_26">
        <path
           id="path331"
           style="opacity:0.2;fill:#d69e70"
           d="m 248.83259,37.919828 h 5.55052 v -5.836793 h -5.55052 z"
           clip-path="url(#p865930896e)" />
      </g>
      <g
         id="patch_27">
        <path
           id="path334"
           style="opacity:0.2;fill:#d69e70"
           d="m 248.83259,32.083035 h 7.4007 v -5.836793 h -7.4007 z"
           clip-path="url(#p865930896e)" />
      </g>
      <g
         id="matplotlib.axis_3">
        <g
           id="xtick_4">
          <g
             id="line2d_14">
            <path
               id="path337"
               style="fill:none;stroke:#b0b0b0;stroke-width:0.8;stroke-linecap:square"
               d="M 248.83259,148.8189 V 20.409449"
               clip-path="url(#p865930896e)" />
          </g>
          <g
             id="line2d_15">
            <g
               id="g342">
              <use
                 height="100%"
                 width="100%"
                 id="use340"
                 y="148.81889"
                 xlink:href="#m83b43eafa1"
                 x="248.8326"
                 style="stroke:#000000;stroke-width:0.8" />
            </g>
          </g>
          <g
             id="text_10">
            <!-- 0 -->
            <g
               id="g347"
               transform="matrix(0.11,0,0,-0.11,245.33322,164.17718)">
              <use
                 height="100%"
                 width="100%"
                 y="0"
                 x="0"
                 id="use345"
                 xlink:href="#DejaVuSerif-48" />
            </g>
          </g>
        </g>
        <g
           id="xtick_5">
          <g
             id="line2d_16">
            <path
               id="path351"
               style="fill:none;stroke:#b0b0b0;stroke-width:0.8;stroke-linecap:square"
               d="M 281.72245,148.8189 V 20.409449"
               clip-path="url(#p865930896e)" />
          </g>
          <g
             id="line2d_17">
            <g
               id="g356">
              <use
                 height="100%"
                 width="100%"
                 id="use354"
                 y="148.81889"
                 xlink:href="#m83b43eafa1"
                 x="281.72244"
                 style="stroke:#000000;stroke-width:0.8" />
            </g>
          </g>
          <g
             id="text_11">
            <!-- 25 -->
            <g
               id="g366"
               transform="matrix(0.11,0,0,-0.11,274.7237,164.17718)">
              <defs
                 id="defs360">
                <path
                   id="DejaVuSerif-53"
                   d="M 50.296875,72.90625 V 64.890625 H 16.890625 V 44 q 2.546875,1.75 5.9375,2.625 3.390625,0.890625 7.59375,0.890625 11.8125,0 18.640625,-6.546875 6.84375,-6.546875 6.84375,-17.875 0,-11.5625 -6.90625,-18.046875 -6.90625,-6.46875 -19.40625,-6.46875 -5.03125,0 -10.3125,1.234375 Q 14.015625,1.03125 8.5,3.515625 v 14.15625 h 5.515625 q 0.4375,-6.921875 4.40625,-10.59375 3.984375,-3.65625 11.171875,-3.65625 7.71875,0 11.859375,5.078125 4.15625,5.078125 4.15625,14.59375 0,9.46875 -4.125,14.515625 -4.125,5.0625 -11.890625,5.0625 -4.390625,0 -7.75,-1.5625 Q 18.5,39.546875 15.921875,36.28125 H 11.71875 v 36.625 z" />
              </defs>
              <use
                 height="100%"
                 width="100%"
                 y="0"
                 x="0"
                 id="use362"
                 xlink:href="#DejaVuSerif-50" />
              <use
                 height="100%"
                 width="100%"
                 y="0"
                 id="use364"
                 xlink:href="#DejaVuSerif-53"
                 x="63.623047" />
            </g>
          </g>
        </g>
        <g
           id="text_12">
          <!-- Probability -->
          <g
             id="g398"
             transform="matrix(0.11,0,0,-0.11,246.93036,178.82312)">
            <defs
               id="defs374">
              <path
                 id="DejaVuSerif-80"
                 d="M 24.703125,37.109375 H 37.59375 q 7.28125,0 11.078125,3.921875 3.8125,3.9375 3.8125,11.359375 0,7.46875 -3.8125,11.375 -3.796875,3.90625 -11.078125,3.90625 H 24.703125 Z M 5.515625,0 v 5.171875 h 9.28125 v 62.5 h -9.28125 v 5.234375 h 34.46875 q 10.9375,0 17.328125,-5.546875 6.40625,-5.546875 6.40625,-14.96875 0,-9.375 -6.40625,-14.9375 -6.390625,-5.5625 -17.328125,-5.5625 H 24.703125 V 5.171875 h 11.28125 V 0 Z" />
              <path
                 id="DejaVuSerif-114"
                 d="M 47.796875,52 V 39.015625 H 42.625 q -0.234375,3.859375 -2.140625,5.765625 -1.90625,1.90625 -5.578125,1.90625 -6.640625,0 -10.1875,-4.59375 Q 21.1875,37.5 21.1875,28.90625 V 5.171875 H 31.59375 V 0 H 4.109375 v 5.171875 h 8.09375 V 46.78125 h -8.59375 v 5.125 H 21.1875 v -9.234375 q 2.640625,5.421875 6.78125,8.03125 4.15625,2.625 10.125,2.625 2.1875,0 4.609375,-0.34375 Q 45.125,52.640625 47.796875,52 Z" />
              <path
                 id="DejaVuSerif-98"
                 d="m 11.53125,5.171875 v 65.625 H 2.875 v 5.1875 h 17.640625 v -32.1875 Q 23.140625,48.6875 27.21875,51 q 4.078125,2.328125 10.09375,2.328125 9.5625,0 15.609375,-7.578125 6.0625,-7.5625 6.0625,-19.765625 0,-12.21875 -6.0625,-19.8125 -6.046875,-7.59375 -15.609375,-7.59375 -6.015625,0 -10.09375,2.3125 -4.078125,2.328125 -6.703125,7.21875 V 0 H 2.875 v 5.171875 z m 8.984375,18.21875 q 0,-9.375 3.578125,-14.28125 3.59375,-4.90625 10.421875,-4.90625 6.890625,0 10.421875,5.515625 3.546875,5.515625 3.546875,16.265625 0,10.78125 -3.546875,16.25 -3.53125,5.46875 -10.421875,5.46875 -6.828125,0 -10.421875,-4.9375 -3.578125,-4.921875 -3.578125,-14.25 z" />
              <path
                 id="DejaVuSerif-121"
                 d="M 21.578125,-9.515625 25,-0.875 5.609375,46.6875 h -5.90625 v 5.21875 h 23.875 V 46.6875 H 15.28125 L 29.890625,10.984375 44.484375,46.6875 H 36.71875 v 5.21875 H 56.203125 V 46.6875 h -5.8125 L 26.609375,-11.71875 Q 24.171875,-17.78125 21.1875,-20 q -2.96875,-2.21875 -8.390625,-2.21875 -2.296875,0 -4.71875,0.390625 -2.40625,0.390625 -4.859375,1.125 v 9.90625 H 7.8125 q 0.296875,-3.3125 1.6875,-4.75 Q 10.890625,-17 13.8125,-17 q 2.6875,0 4.328125,1.5 1.640625,1.484375 3.4375,5.984375 z" />
            </defs>
            <use
               height="100%"
               width="100%"
               y="0"
               x="0"
               id="use376"
               xlink:href="#DejaVuSerif-80" />
            <use
               height="100%"
               width="100%"
               y="0"
               id="use378"
               xlink:href="#DejaVuSerif-114"
               x="67.285156" />
            <use
               height="100%"
               width="100%"
               y="0"
               id="use380"
               xlink:href="#DejaVuSerif-111"
               x="115.08789" />
            <use
               height="100%"
               width="100%"
               y="0"
               id="use382"
               xlink:href="#DejaVuSerif-98"
               x="175.29297" />
            <use
               height="100%"
               width="100%"
               y="0"
               id="use384"
               xlink:href="#DejaVuSerif-97"
               x="239.30664" />
            <use
               height="100%"
               width="100%"
               y="0"
               id="use386"
               xlink:href="#DejaVuSerif-98"
               x="298.92578" />
            <use
               height="100%"
               width="100%"
               y="0"
               id="use388"
               xlink:href="#DejaVuSerif-105"
               x="362.93945" />
            <use
               height="100%"
               width="100%"
               y="0"
               id="use390"
               xlink:href="#DejaVuSerif-108"
               x="394.92188" />
            <use
               height="100%"
               width="100%"
               y="0"
               id="use392"
               xlink:href="#DejaVuSerif-105"
               x="426.9043" />
            <use
               height="100%"
               width="100%"
               y="0"
               id="use394"
               xlink:href="#DejaVuSerif-116"
               x="458.88672" />
            <use
               height="100%"
               width="100%"
               y="0"
               id="use396"
               xlink:href="#DejaVuSerif-121"
               x="499.07227" />
          </g>
          <!-- density $[-]$ -->
          <g
             id="g425"
             transform="matrix(0.11,0,0,-0.11,246.57716,191.29918)">
            <defs
               id="defs401">
              <path
                 id="DejaVuSans-8722"
                 d="M 10.59375,35.5 H 73.1875 V 27.203125 H 10.59375 Z" />
            </defs>
            <use
               height="100%"
               width="100%"
               y="0"
               x="0"
               id="use403"
               xlink:href="#DejaVuSerif-100"
               transform="translate(0,0.015625)" />
            <use
               height="100%"
               width="100%"
               y="0"
               x="0"
               id="use405"
               xlink:href="#DejaVuSerif-101"
               transform="translate(64.013672,0.015625)" />
            <use
               height="100%"
               width="100%"
               y="0"
               x="0"
               id="use407"
               xlink:href="#DejaVuSerif-110"
               transform="translate(123.19336,0.015625)" />
            <use
               height="100%"
               width="100%"
               y="0"
               x="0"
               id="use409"
               xlink:href="#DejaVuSerif-115"
               transform="translate(187.59766,0.015625)" />
            <use
               height="100%"
               width="100%"
               y="0"
               x="0"
               id="use411"
               xlink:href="#DejaVuSerif-105"
               transform="translate(238.91602,0.015625)" />
            <use
               height="100%"
               width="100%"
               y="0"
               x="0"
               id="use413"
               xlink:href="#DejaVuSerif-116"
               transform="translate(270.89844,0.015625)" />
            <use
               height="100%"
               width="100%"
               y="0"
               x="0"
               id="use415"
               xlink:href="#DejaVuSerif-121"
               transform="translate(311.08398,0.015625)" />
            <use
               height="100%"
               width="100%"
               y="0"
               x="0"
               id="use417"
               xlink:href="#DejaVuSerif-32"
               transform="translate(367.57812,0.015625)" />
            <use
               height="100%"
               width="100%"
               y="0"
               x="0"
               id="use419"
               xlink:href="#DejaVuSans-91"
               transform="translate(399.36523,0.015625)" />
            <use
               height="100%"
               width="100%"
               y="0"
               x="0"
               id="use421"
               xlink:href="#DejaVuSans-8722"
               transform="translate(438.37891,0.015625)" />
            <use
               height="100%"
               width="100%"
               y="0"
               x="0"
               id="use423"
               xlink:href="#DejaVuSans-93"
               transform="translate(522.16797,0.015625)" />
          </g>
        </g>
      </g>
      <g
         id="matplotlib.axis_4">
        <g
           id="ytick_4">
          <g
             id="line2d_18">
            <path
               id="path429"
               style="fill:none;stroke:#b0b0b0;stroke-width:0.8;stroke-linecap:square"
               d="m 248.83259,119.19326 h 57.30914"
               clip-path="url(#p865930896e)" />
          </g>
        </g>
        <g
           id="ytick_5">
          <g
             id="line2d_19">
            <path
               id="path433"
               style="fill:none;stroke:#b0b0b0;stroke-width:0.8;stroke-linecap:square"
               d="m 248.83259,78.150655 h 57.30914"
               clip-path="url(#p865930896e)" />
          </g>
        </g>
        <g
           id="ytick_6">
          <g
             id="line2d_20">
            <path
               id="path437"
               style="fill:none;stroke:#b0b0b0;stroke-width:0.8;stroke-linecap:square"
               d="m 248.83259,37.10805 h 57.30914"
               clip-path="url(#p865930896e)" />
          </g>
        </g>
      </g>
      <g
         id="line2d_21">
        <path
           id="path442"
           style="fill:none;stroke:#d69e70;stroke-width:2;stroke-linecap:square"
           d="m 249.18966,142.9821 1.18461,-10.32314 1.23512,-4.75337 0.2111,-0.62408 1.14638,-2.86719 1.39892,-2.73378 2.21446,-3.38852 1.92364,-2.39825 2.09807,-2.25823 2.75235,-2.58834 2.86185,-2.38951 3.79977,-2.8633 4.51863,-3.12181 8.18073,-5.323468 6.55059,-4.375691 3.46532,-2.556671 2.67085,-2.230561 1.94506,-1.896207 1.56485,-1.85358 1.04146,-1.576735 0.73324,-1.518392 0.42766,-1.384486 0.18809,-1.318825 -0.024,-1.276043 -0.32723,-1.638934 -0.52772,-1.375639 -0.79901,-1.45136 -1.08076,-1.507461 -1.28915,-1.47537 -2.05092,-1.975604 -2.45901,-2.042459 -3.39112,-2.505552 -4.40194,-2.980047 -14.94131,-9.906622 -4.21408,-3.194977 -2.47357,-2.081724 -2.67848,-2.517896 -2.14299,-2.303859 -2.32608,-2.954707 -1.55974,-2.400038 -1.14817,-2.11087 -1.07362,-2.391264 -1.07745,-3.087771 -0.34127,-1.213525 v 0"
           clip-path="url(#p865930896e)" />
      </g>
      <g
         id="patch_28">
        <path
           id="path445"
           style="fill:none;stroke:#000000;stroke-width:0.8;stroke-linecap:square;stroke-linejoin:miter"
           d="M 248.83259,148.8189 V 20.409449" />
      </g>
      <g
         id="patch_29">
        <path
           id="path448"
           style="fill:none;stroke:#000000;stroke-width:0.8;stroke-linecap:square;stroke-linejoin:miter"
           d="M 306.14173,148.8189 V 20.409449" />
      </g>
      <g
         id="patch_30">
        <path
           id="path451"
           style="fill:none;stroke:#000000;stroke-width:0.8;stroke-linecap:square;stroke-linejoin:miter"
           d="m 248.83259,148.8189 h 57.30914" />
      </g>
      <g
         id="patch_31">
        <path
           id="path454"
           style="fill:none;stroke:#000000;stroke-width:0.8;stroke-linecap:square;stroke-linejoin:miter"
           d="m 248.83259,20.409449 h 57.30914" />
      </g>
      <g
         id="text_13">
        <!-- Noise -->
        <g
           id="g470"
           transform="matrix(0.132,0,0,-0.132,258.33479,-0.371664)">
          <defs
             id="defs458">
            <path
               id="DejaVuSerif-78"
               d="m 4.890625,0 v 5.171875 h 9.8125 v 62.5 h -9.8125 v 5.234375 h 18.6875 L 67.28125,15.375 v 52.296875 h -9.765625 v 5.234375 h 25.59375 v -5.234375 h -9.8125 v -69.09375 h -5.90625 l -46.6875,61.4375 V 5.171875 h 9.8125 V 0 Z" />
          </defs>
          <use
             height="100%"
             width="100%"
             y="0"
             x="0"
             id="use460"
             xlink:href="#DejaVuSerif-78" />
          <use
             height="100%"
             width="100%"
             y="0"
             id="use462"
             xlink:href="#DejaVuSerif-111"
             x="87.5" />
          <use
             height="100%"
             width="100%"
             y="0"
             id="use464"
             xlink:href="#DejaVuSerif-105"
             x="147.70508" />
          <use
             height="100%"
             width="100%"
             y="0"
             id="use466"
             xlink:href="#DejaVuSerif-115"
             x="179.6875" />
          <use
             height="100%"
             width="100%"
             y="0"
             id="use468"
             xlink:href="#DejaVuSerif-101"
             x="231.00586" />
        </g>
        <!-- distribution -->
        <g
           id="g499"
           transform="matrix(0.132,0,0,-0.132,238.38319,14.409449)">
          <defs
             id="defs473">
            <path
               id="DejaVuSerif-117"
               d="M 35.40625,51.90625 H 52.203125 V 5.171875 H 60.6875 V 0 H 43.21875 V 9.1875 Q 40.71875,4 36.765625,1.28125 32.8125,-1.421875 27.59375,-1.421875 q -8.640625,0 -12.71875,4.90625 -4.078125,4.921875 -4.078125,15.40625 V 46.6875 H 2.6875 v 5.21875 H 19.828125 V 21.6875 q 0,-9.484375 2.3125,-13 2.328125,-3.515625 8.28125,-3.515625 6.25,0 9.515625,4.59375 3.28125,4.59375 3.28125,13.328125 V 46.6875 h -7.8125 z" />
          </defs>
          <use
             height="100%"
             width="100%"
             y="0"
             x="0"
             id="use475"
             xlink:href="#DejaVuSerif-100" />
          <use
             height="100%"
             width="100%"
             y="0"
             id="use477"
             xlink:href="#DejaVuSerif-105"
             x="64.013672" />
          <use
             height="100%"
             width="100%"
             y="0"
             id="use479"
             xlink:href="#DejaVuSerif-115"
             x="95.996094" />
          <use
             height="100%"
             width="100%"
             y="0"
             id="use481"
             xlink:href="#DejaVuSerif-116"
             x="147.31445" />
          <use
             height="100%"
             width="100%"
             y="0"
             id="use483"
             xlink:href="#DejaVuSerif-114"
             x="187.5" />
          <use
             height="100%"
             width="100%"
             y="0"
             id="use485"
             xlink:href="#DejaVuSerif-105"
             x="235.30273" />
          <use
             height="100%"
             width="100%"
             y="0"
             id="use487"
             xlink:href="#DejaVuSerif-98"
             x="267.28516" />
          <use
             height="100%"
             width="100%"
             y="0"
             id="use489"
             xlink:href="#DejaVuSerif-117"
             x="331.29883" />
          <use
             height="100%"
             width="100%"
             y="0"
             id="use491"
             xlink:href="#DejaVuSerif-116"
             x="395.70312" />
          <use
             height="100%"
             width="100%"
             y="0"
             id="use493"
             xlink:href="#DejaVuSerif-105"
             x="435.88867" />
          <use
             height="100%"
             width="100%"
             y="0"
             id="use495"
             xlink:href="#DejaVuSerif-111"
             x="467.87109" />
          <use
             height="100%"
             width="100%"
             y="0"
             id="use497"
             xlink:href="#DejaVuSerif-110"
             x="528.07617" />
        </g>
      </g>
    </g>
  </g>
  <defs
     id="defs510">
    <clipPath
       id="p2f6f0c1d65">
      <rect
         id="rect504"
         y="20.409449"
         x="42.519684"
         width="194.85107"
         height="128.40945" />
    </clipPath>
    <clipPath
       id="p865930896e">
      <rect
         id="rect507"
         y="20.409449"
         x="248.8326"
         width="57.309139"
         height="128.40945" />
    </clipPath>
  </defs>
</svg>
