<?xml version="1.0" encoding="UTF-8" standalone="no"?>
<svg
   xmlns:dc="http://purl.org/dc/elements/1.1/"
   xmlns:cc="http://creativecommons.org/ns#"
   xmlns:rdf="http://www.w3.org/1999/02/22-rdf-syntax-ns#"
   xmlns:svg="http://www.w3.org/2000/svg"
   xmlns="http://www.w3.org/2000/svg"
   xmlns:xlink="http://www.w3.org/1999/xlink"
   xmlns:sodipodi="http://sodipodi.sourceforge.net/DTD/sodipodi-0.dtd"
   xmlns:inkscape="http://www.inkscape.org/namespaces/inkscape"
   inkscape:version="1.0 (4035a4fb49, 2020-05-01)"
   sodipodi:docname="plot_opamp_railrail.svg"
   id="svg277"
   width="271.82944pt"
   viewBox="0 0 271.82944 127.55906"
   version="1.1"
   height="127.55905pt">
  <sodipodi:namedview
     fit-margin-bottom="0"
     fit-margin-right="0"
     fit-margin-left="0"
     fit-margin-top="0"
     inkscape:current-layer="svg277"
     inkscape:window-maximized="1"
     inkscape:window-y="-8"
     inkscape:window-x="-8"
     inkscape:cy="85.039368"
     inkscape:cx="192.36051"
     inkscape:zoom="2.9839121"
     showgrid="false"
     id="namedview279"
     inkscape:window-height="1377"
     inkscape:window-width="2560"
     inkscape:pageshadow="2"
     inkscape:pageopacity="0"
     guidetolerance="10"
     gridtolerance="10"
     objecttolerance="10"
     borderopacity="1"
     bordercolor="#666666"
     pagecolor="#ffffff" />
  <metadata
     id="metadata2">
    <rdf:RDF>
      <cc:Work>
        <dc:type
           rdf:resource="http://purl.org/dc/dcmitype/StillImage" />
        <dc:date>2020-12-06T23:20:33.172481</dc:date>
        <dc:format>image/svg+xml</dc:format>
        <dc:creator>
          <cc:Agent>
            <dc:title>Matplotlib v3.3.3, https://matplotlib.org/</dc:title>
          </cc:Agent>
        </dc:creator>
        <dc:title></dc:title>
      </cc:Work>
    </rdf:RDF>
  </metadata>
  <defs
     id="defs6">
    <style
       id="style4"
       type="text/css">*{stroke-linecap:butt;stroke-linejoin:round;}</style>
  </defs>
  <g
     transform="translate(16.71133)"
     id="figure_1">
    <g
       id="patch_1">
      <path
         id="path8"
         style="fill:none"
         d="M 0,127.55906 H 255.11811 V 0 H 0 Z" />
    </g>
    <g
       id="axes_1">
      <g
         id="patch_2">
        <path
           id="path11"
           style="fill:#ffffff"
           d="M 31.889764,111.61417 H 229.6063 V 15.307087 H 31.889764 Z" />
      </g>
      <g
         id="matplotlib.axis_1">
        <g
           id="xtick_1">
          <g
             id="line2d_1">
            <path
               id="path14"
               style="fill:none;stroke:#b0b0b0;stroke-width:0.8;stroke-linecap:square"
               d="M 40.876879,111.61417 V 15.307087"
               clip-path="url(#p0126000199)" />
          </g>
        </g>
        <g
           id="xtick_2">
          <g
             id="line2d_2">
            <path
               id="path18"
               style="fill:none;stroke:#b0b0b0;stroke-width:0.8;stroke-linecap:square"
               d="M 98.090632,111.61417 V 15.307087"
               clip-path="url(#p0126000199)" />
          </g>
        </g>
        <g
           id="xtick_3">
          <g
             id="line2d_3">
            <path
               id="path22"
               style="fill:none;stroke:#b0b0b0;stroke-width:0.8;stroke-linecap:square"
               d="M 155.30438,111.61417 V 15.307087"
               clip-path="url(#p0126000199)" />
          </g>
        </g>
        <g
           id="xtick_4">
          <g
             id="line2d_4">
            <path
               id="path26"
               style="fill:none;stroke:#b0b0b0;stroke-width:0.8;stroke-linecap:square"
               d="M 212.51814,111.61417 V 15.307087"
               clip-path="url(#p0126000199)" />
          </g>
        </g>
        <g
           id="text_1">
          <!-- Time -->
          <g
             id="g44"
             transform="matrix(0.11,0,0,-0.11,116.84936,123.97245)">
            <defs
               id="defs34">
              <path
                 id="DejaVuSerif-84"
                 d="m 19.09375,0 v 5.171875 h 9.328125 V 67.09375 h -21.4375 v -11.375 h -6 v 17.1875 H 65.71875 v -17.1875 h -6 v 11.375 H 38.28125 V 5.171875 h 9.328125 V 0 Z" />
              <path
                 id="DejaVuSerif-105"
                 d="m 9.71875,68.015625 q 0,2.25 1.625,3.90625 1.640625,1.65625 3.9375,1.65625 2.25,0 3.875,-1.65625 1.640625,-1.65625 1.640625,-3.90625 0,-2.296875 -1.609375,-3.90625 Q 17.578125,62.5 15.28125,62.5 q -2.296875,0 -3.9375,1.609375 -1.625,1.609375 -1.625,3.90625 z M 21.1875,5.171875 h 8.5 V 0 H 3.609375 v 5.171875 h 8.59375 V 46.6875 h -8.59375 v 5.21875 H 21.1875 Z" />
              <path
                 id="DejaVuSerif-109"
                 d="m 51.8125,41.796875 q 2.578125,5.71875 6.609375,8.625 4.03125,2.90625 9.40625,2.90625 8.15625,0 12.15625,-5.0625 4,-5.046875 4,-15.25 V 5.171875 H 92.09375 V 0 H 67.1875 V 5.171875 H 75 v 26.8125 q 0,7.953125 -2.34375,11.328125 -2.34375,3.375 -7.765625,3.375 -6,0 -9.15625,-4.546875 Q 52.59375,37.59375 52.59375,28.90625 V 5.171875 h 7.8125 V 0 H 35.796875 v 5.171875 h 7.8125 v 27.15625 q 0,7.765625 -2.34375,11.0625 Q 38.921875,46.6875 33.5,46.6875 q -6.015625,0 -9.171875,-4.546875 Q 21.1875,37.59375 21.1875,28.90625 V 5.171875 H 29 V 0 H 4.109375 v 5.171875 h 8.09375 V 46.78125 h -8.59375 v 5.125 H 21.1875 v -9.234375 q 2.5,5.1875 6.34375,7.921875 3.859375,2.734375 8.75,2.734375 6.046875,0 10.09375,-3.015625 4.0625,-3 5.4375,-8.515625 z" />
              <path
                 id="DejaVuSerif-101"
                 d="m 54.203125,25 h -38.71875 v -0.390625 q 0,-10.5 3.953125,-15.84375 3.953125,-5.34375 11.671875,-5.34375 5.90625,0 9.6875,3.09375 3.78125,3.109375 5.296875,9.203125 h 7.234375 Q 51.171875,7.171875 45.375,2.875 39.59375,-1.421875 30.171875,-1.421875 q -11.375,0 -18.28125,7.5 -6.90625,7.5 -6.90625,19.90625 0,12.296875 6.78125,19.8125 6.796875,7.53125 17.828125,7.53125 11.765625,0 18.0625,-7.265625 6.296875,-7.25 6.546875,-21.0625 z m -10.59375,5.171875 q -0.296875,9.09375 -3.84375,13.703125 -3.53125,4.609375 -10.171875,4.609375 -6.203125,0 -9.765625,-4.640625 -3.5625,-4.640625 -4.34375,-13.671875 z" />
            </defs>
            <use
               height="100%"
               width="100%"
               y="0"
               x="0"
               id="use36"
               xlink:href="#DejaVuSerif-84" />
            <use
               height="100%"
               width="100%"
               y="0"
               id="use38"
               xlink:href="#DejaVuSerif-105"
               x="66.699219" />
            <use
               height="100%"
               width="100%"
               y="0"
               id="use40"
               xlink:href="#DejaVuSerif-109"
               x="98.681641" />
            <use
               height="100%"
               width="100%"
               y="0"
               id="use42"
               xlink:href="#DejaVuSerif-101"
               x="193.50586" />
          </g>
        </g>
      </g>
      <g
         id="matplotlib.axis_2">
        <g
           id="ytick_1">
          <g
             id="line2d_5">
            <path
               id="path48"
               style="fill:none;stroke:#6f64a3;stroke-width:0.8;stroke-linecap:square"
               d="M 31.889764,107.2368 H 229.6063"
               clip-path="url(#p0126000199)" />
          </g>
          <g
             id="line2d_6">
            <defs
               id="defs52">
              <path
                 style="stroke:#000000;stroke-width:0.8"
                 id="m680f3971b4"
                 d="M 0,0 H -3.5" />
            </defs>
            <g
               id="g56">
              <use
                 height="100%"
                 width="100%"
                 id="use54"
                 y="107.23679"
                 xlink:href="#m680f3971b4"
                 x="31.889765"
                 style="stroke:#000000;stroke-width:0.8" />
            </g>
          </g>
          <g
             id="text_2">
            <!-- −5.0 -->
            <g
               id="g73"
               transform="matrix(0.11,0,0,-0.11,-1.82133,111.41594)"
               style="fill:#6f64a3">
              <defs
                 id="defs63">
                <path
                   id="DejaVuSerif-8722"
                   d="M 10.59375,35.296875 H 73.1875 v -7.90625 H 10.59375 Z" />
                <path
                   id="DejaVuSerif-53"
                   d="M 50.296875,72.90625 V 64.890625 H 16.890625 V 44 q 2.546875,1.75 5.9375,2.625 3.390625,0.890625 7.59375,0.890625 11.8125,0 18.640625,-6.546875 6.84375,-6.546875 6.84375,-17.875 0,-11.5625 -6.90625,-18.046875 -6.90625,-6.46875 -19.40625,-6.46875 -5.03125,0 -10.3125,1.234375 Q 14.015625,1.03125 8.5,3.515625 v 14.15625 h 5.515625 q 0.4375,-6.921875 4.40625,-10.59375 3.984375,-3.65625 11.171875,-3.65625 7.71875,0 11.859375,5.078125 4.15625,5.078125 4.15625,14.59375 0,9.46875 -4.125,14.515625 -4.125,5.0625 -11.890625,5.0625 -4.390625,0 -7.75,-1.5625 Q 18.5,39.546875 15.921875,36.28125 H 11.71875 v 36.625 z" />
                <path
                   id="DejaVuSerif-46"
                   d="m 9.421875,5.078125 q 0,2.734375 1.859375,4.640625 1.859375,1.90625 4.640625,1.90625 2.6875,0 4.578125,-1.90625 1.90625,-1.90625 1.90625,-4.640625 0,-2.6875 -1.90625,-4.59375 -1.890625,-1.90625 -4.578125,-1.90625 -2.78125,0 -4.640625,1.875 -1.859375,1.890625 -1.859375,4.625 z" />
                <path
                   id="DejaVuSerif-48"
                   d="m 31.78125,3.421875 q 7.484375,0 11.1875,8.203125 3.71875,8.203125 3.71875,24.75 0,16.609375 -3.71875,24.8125 -3.703125,8.203125 -11.1875,8.203125 -7.46875,0 -11.1875,-8.203125 -3.703125,-8.203125 -3.703125,-24.8125 0,-16.546875 3.703125,-24.75 3.71875,-8.203125 11.1875,-8.203125 z m 0,-4.84375 Q 19.921875,-1.421875 13.25,8.53125 6.59375,18.5 6.59375,36.375 q 0,17.921875 6.65625,27.875 6.671875,9.96875 18.53125,9.96875 11.921875,0 18.5625,-9.96875 6.640625,-9.953125 6.640625,-27.875 0,-17.875 -6.640625,-27.84375 -6.640625,-9.953125 -18.5625,-9.953125 z" />
              </defs>
              <use
                 height="100%"
                 width="100%"
                 y="0"
                 x="0"
                 id="use65"
                 xlink:href="#DejaVuSerif-8722" />
              <use
                 height="100%"
                 width="100%"
                 y="0"
                 id="use67"
                 xlink:href="#DejaVuSerif-53"
                 x="83.789062" />
              <use
                 height="100%"
                 width="100%"
                 y="0"
                 id="use69"
                 xlink:href="#DejaVuSerif-46"
                 x="147.41211" />
              <use
                 height="100%"
                 width="100%"
                 y="0"
                 id="use71"
                 xlink:href="#DejaVuSerif-48"
                 x="179.19922" />
            </g>
          </g>
        </g>
        <g
           id="ytick_2">
          <g
             id="line2d_7">
            <path
               id="path77"
               style="fill:none;stroke:#b0b0b0;stroke-width:0.8;stroke-linecap:square"
               d="M 31.889764,85.348713 H 229.6063"
               clip-path="url(#p0126000199)" />
          </g>
          <g
             id="line2d_8">
            <g
               id="g82">
              <use
                 height="100%"
                 width="100%"
                 id="use80"
                 y="85.348717"
                 xlink:href="#m680f3971b4"
                 x="31.889765"
                 style="stroke:#000000;stroke-width:0.8" />
            </g>
          </g>
          <g
             id="text_3">
            <!-- −2.5 -->
            <g
               id="g96"
               transform="matrix(0.11,0,0,-0.11,-1.82133,89.527853)">
              <defs
                 id="defs86">
                <path
                   id="DejaVuSerif-50"
                   d="M 12.796875,55.515625 H 7.328125 V 68.5 q 5.21875,2.796875 10.515625,4.25 5.296875,1.46875 10.375,1.46875 11.375,0 17.96875,-5.515625 6.59375,-5.515625 6.59375,-14.984375 0,-10.703125 -14.9375,-25.59375 Q 36.671875,27 36.078125,26.421875 L 17.671875,8.015625 H 48.09375 V 17 H 53.8125 V 0 H 6.78125 v 5.328125 l 22.125,22.0625 q 7.328125,7.328125 10.453125,13.453125 3.125,6.125 3.125,12.875 0,7.359375 -3.84375,11.515625 -3.828125,4.15625 -10.5625,4.15625 -6.984375,0 -10.796875,-3.46875 -3.796875,-3.46875 -4.484375,-10.40625 z" />
              </defs>
              <use
                 height="100%"
                 width="100%"
                 y="0"
                 x="0"
                 id="use88"
                 xlink:href="#DejaVuSerif-8722" />
              <use
                 height="100%"
                 width="100%"
                 y="0"
                 id="use90"
                 xlink:href="#DejaVuSerif-50"
                 x="83.789062" />
              <use
                 height="100%"
                 width="100%"
                 y="0"
                 id="use92"
                 xlink:href="#DejaVuSerif-46"
                 x="147.41211" />
              <use
                 height="100%"
                 width="100%"
                 y="0"
                 id="use94"
                 xlink:href="#DejaVuSerif-53"
                 x="179.19922" />
            </g>
          </g>
        </g>
        <g
           id="ytick_3">
          <g
             id="line2d_9">
            <path
               id="path100"
               style="fill:none;stroke:#b0b0b0;stroke-width:0.8;stroke-linecap:square"
               d="M 31.889764,63.46063 H 229.6063"
               clip-path="url(#p0126000199)" />
          </g>
          <g
             id="line2d_10">
            <g
               id="g105">
              <use
                 height="100%"
                 width="100%"
                 id="use103"
                 y="63.460629"
                 xlink:href="#m680f3971b4"
                 x="31.889765"
                 style="stroke:#000000;stroke-width:0.8" />
            </g>
          </g>
          <g
             id="text_4">
            <!-- 0.0 -->
            <g
               id="g114"
               transform="matrix(0.11,0,0,-0.11,7.396326,67.639771)">
              <use
                 height="100%"
                 width="100%"
                 y="0"
                 x="0"
                 id="use108"
                 xlink:href="#DejaVuSerif-48" />
              <use
                 height="100%"
                 width="100%"
                 y="0"
                 id="use110"
                 xlink:href="#DejaVuSerif-46"
                 x="63.623047" />
              <use
                 height="100%"
                 width="100%"
                 y="0"
                 id="use112"
                 xlink:href="#DejaVuSerif-48"
                 x="95.410156" />
            </g>
          </g>
        </g>
        <g
           id="ytick_4">
          <g
             id="line2d_11">
            <path
               id="path118"
               style="fill:none;stroke:#b0b0b0;stroke-width:0.8;stroke-linecap:square"
               d="M 31.889764,41.572547 H 229.6063"
               clip-path="url(#p0126000199)" />
          </g>
          <g
             id="line2d_12">
            <g
               id="g123">
              <use
                 height="100%"
                 width="100%"
                 id="use121"
                 y="41.572548"
                 xlink:href="#m680f3971b4"
                 x="31.889765"
                 style="stroke:#000000;stroke-width:0.8" />
            </g>
          </g>
          <g
             id="text_5">
            <!-- 2.5 -->
            <g
               id="g132"
               transform="matrix(0.11,0,0,-0.11,7.396326,45.751688)">
              <use
                 height="100%"
                 width="100%"
                 y="0"
                 x="0"
                 id="use126"
                 xlink:href="#DejaVuSerif-50" />
              <use
                 height="100%"
                 width="100%"
                 y="0"
                 id="use128"
                 xlink:href="#DejaVuSerif-46"
                 x="63.623047" />
              <use
                 height="100%"
                 width="100%"
                 y="0"
                 id="use130"
                 xlink:href="#DejaVuSerif-53"
                 x="95.410156" />
            </g>
          </g>
        </g>
        <g
           id="ytick_5">
          <g
             id="line2d_13">
            <path
               id="path136"
               style="fill:none;stroke:#6f64a3;stroke-width:0.8;stroke-linecap:square"
               d="M 31.889764,19.684465 H 229.6063"
               clip-path="url(#p0126000199)" />
          </g>
          <g
             id="line2d_14">
            <g
               id="g141">
              <use
                 height="100%"
                 width="100%"
                 id="use139"
                 y="19.684465"
                 xlink:href="#m680f3971b4"
                 x="31.889765"
                 style="stroke:#000000;stroke-width:0.8" />
            </g>
          </g>
          <g
             id="text_6">
            <!-- 5.0 -->
            <g
               id="g150"
               transform="matrix(0.11,0,0,-0.11,7.396326,23.863605)"
               style="fill:#6f64a3">
              <use
                 height="100%"
                 width="100%"
                 y="0"
                 x="0"
                 id="use144"
                 xlink:href="#DejaVuSerif-53" />
              <use
                 height="100%"
                 width="100%"
                 y="0"
                 id="use146"
                 xlink:href="#DejaVuSerif-46"
                 x="63.623047" />
              <use
                 height="100%"
                 width="100%"
                 y="0"
                 id="use148"
                 xlink:href="#DejaVuSerif-48"
                 x="95.410156" />
            </g>
          </g>
        </g>
        <g
           id="text_7">
          <!-- Signal [$V$] -->
          <g
             id="g185"
             transform="matrix(0,-0.11,-0.11,0,-8.35133,90.90563)">
            <defs
               id="defs163">
              <path
                 id="DejaVuSerif-83"
                 d="M 9.28125,3.515625 V 20.125 l 5.609375,-0.0625 q 0.25,-8.296875 4.8125,-12.28125 4.5625,-3.96875 13.890625,-3.96875 8.6875,0 13.25,3.4375 4.578125,3.4375 4.578125,10.03125 0,5.28125 -2.765625,8.109375 -2.75,2.828125 -11.640625,5.515625 l -9.625,2.890625 Q 16.9375,36.96875 12.671875,41.703125 8.40625,46.4375 8.40625,54.6875 q 0,9.28125 6.578125,14.40625 6.59375,5.125 18.515625,5.125 5.078125,0 11.125,-1.109375 6.0625,-1.09375 12.890625,-3.1875 V 54.390625 H 52 q -0.828125,7.71875 -5.15625,11.15625 Q 42.53125,69 33.6875,69 q -7.703125,0 -11.734375,-3.15625 -4.03125,-3.140625 -4.03125,-9.15625 0,-5.21875 3.015625,-8.203125 3.03125,-2.96875 12.859375,-5.90625 l 9.03125,-2.6875 q 9.90625,-2.96875 14.125,-7.59375 4.234375,-4.609375 4.234375,-12.375 0,-10.59375 -6.796875,-15.96875 -6.78125,-5.375 -20.203125,-5.375 -6.015625,0 -12.25,1.234375 -6.21875,1.21875 -12.65625,3.703125 z" />
              <path
                 id="DejaVuSerif-103"
                 d="M 52.484375,46.6875 V 1.125 q 0,-11.1875 -6.15625,-17.265625 Q 40.1875,-22.21875 28.8125,-22.21875 q -5.125,0 -9.8125,0.9375 -4.6875,0.921875 -8.984375,2.78125 v 10.875 h 4.6875 q 0.875,-5.078125 4.140625,-7.421875 3.28125,-2.34375 9.375,-2.34375 7.921875,0 11.59375,4.46875 Q 43.5,-8.453125 43.5,1.125 v 6.984375 q -2.625,-4.890625 -6.703125,-7.21875 -4.078125,-2.3125 -10.09375,-2.3125 -9.5625,0 -15.640625,7.59375 -6.078125,7.59375 -6.078125,19.8125 0,12.203125 6.046875,19.765625 6.0625,7.578125 15.671875,7.578125 6.015625,0 10.09375,-2.328125 Q 40.875,48.6875 43.5,43.796875 V 51.90625 H 61.078125 V 46.6875 Z M 43.5,28.515625 q 0,9.328125 -3.59375,14.25 -3.578125,4.9375 -10.40625,4.9375 -6.9375,0 -10.484375,-5.46875 -3.53125,-5.46875 -3.53125,-16.25 0,-10.75 3.53125,-16.265625 Q 22.5625,4.203125 29.5,4.203125 q 6.828125,0 10.40625,4.90625 Q 43.5,14.015625 43.5,23.390625 Z" />
              <path
                 id="DejaVuSerif-110"
                 d="m 4.109375,0 v 5.171875 h 8.09375 V 46.6875 h -8.59375 v 5.21875 H 21.1875 v -9.234375 q 2.5,5.28125 6.46875,7.96875 3.984375,2.6875 9.265625,2.6875 8.59375,0 12.640625,-4.9375 4.046875,-4.9375 4.046875,-15.375 V 5.171875 H 61.625 V 0 H 36.8125 v 5.171875 h 7.765625 v 25 q 0,9.53125 -2.34375,13.0625 -2.34375,3.546875 -8.25,3.546875 -6.25,0 -9.53125,-4.578125 Q 21.1875,37.640625 21.1875,28.90625 V 5.171875 H 29 V 0 Z" />
              <path
                 id="DejaVuSerif-97"
                 d="M 39.796875,16.3125 V 27.296875 H 28.21875 q -6.6875,0 -9.96875,-2.890625 -3.265625,-2.875 -3.265625,-8.828125 0,-5.421875 3.3125,-8.59375 3.328125,-3.171875 9,-3.171875 5.609375,0 9.046875,3.46875 3.453125,3.46875 3.453125,9.03125 z m 8.984375,16.109375 v -27.25 h 8 V 0 H 39.796875 V 5.609375 Q 36.8125,2 32.90625,0.28125 29,-1.421875 23.78125,-1.421875 q -8.640625,0 -13.71875,4.59375 -5.078125,4.59375 -5.078125,12.40625 0,8.0625 5.8125,12.5 5.8125,4.4375 16.40625,4.4375 h 12.59375 v 3.5625 q 0,5.921875 -3.59375,9.15625 -3.578125,3.25 -10.078125,3.25 -5.375,0 -8.546875,-2.4375 Q 14.40625,43.609375 13.625,38.8125 H 8.984375 v 10.5 q 4.6875,2 9.109375,3 4.421875,1.015625 8.609375,1.015625 10.796875,0 16.4375,-5.359375 Q 48.78125,42.625 48.78125,32.421875 Z" />
              <path
                 id="DejaVuSerif-108"
                 d="M 20.515625,5.171875 H 29 V 0 H 2.875 v 5.171875 h 8.65625 v 65.625 H 2.875 v 5.1875 h 17.640625 z" />
              <path
                 d=""
                 id="DejaVuSerif-32" />
              <path
                 id="DejaVuSerif-91"
                 d="m 8.59375,75.984375 h 22.703125 v -5.1875 h -13.375 v -78.8125 h 13.375 V -13.1875 H 8.59375 Z" />
              <path
                 id="DejaVuSans-Oblique-86"
                 d="M 20.609375,0 7.8125,72.90625 h 9.671875 L 28.078125,10.203125 63.484375,72.90625 H 74.21875 L 32.078125,0 Z" />
              <path
                 id="DejaVuSerif-93"
                 d="M 30.421875,75.984375 V -13.1875 H 7.71875 v 5.171875 h 13.375 v 78.8125 h -13.375 v 5.1875 z" />
            </defs>
            <use
               height="100%"
               width="100%"
               y="0"
               x="0"
               id="use165"
               xlink:href="#DejaVuSerif-83"
               transform="translate(0,0.015625)" />
            <use
               height="100%"
               width="100%"
               y="0"
               x="0"
               id="use167"
               xlink:href="#DejaVuSerif-105"
               transform="translate(68.505859,0.015625)" />
            <use
               height="100%"
               width="100%"
               y="0"
               x="0"
               id="use169"
               xlink:href="#DejaVuSerif-103"
               transform="translate(100.48828,0.015625)" />
            <use
               height="100%"
               width="100%"
               y="0"
               x="0"
               id="use171"
               xlink:href="#DejaVuSerif-110"
               transform="translate(164.50195,0.015625)" />
            <use
               height="100%"
               width="100%"
               y="0"
               x="0"
               id="use173"
               xlink:href="#DejaVuSerif-97"
               transform="translate(228.90625,0.015625)" />
            <use
               height="100%"
               width="100%"
               y="0"
               x="0"
               id="use175"
               xlink:href="#DejaVuSerif-108"
               transform="translate(288.52539,0.015625)" />
            <use
               height="100%"
               width="100%"
               y="0"
               x="0"
               id="use177"
               xlink:href="#DejaVuSerif-32"
               transform="translate(320.50781,0.015625)" />
            <use
               height="100%"
               width="100%"
               y="0"
               x="0"
               id="use179"
               xlink:href="#DejaVuSerif-91"
               transform="translate(352.29492,0.015625)" />
            <use
               height="100%"
               width="100%"
               y="0"
               x="0"
               id="use181"
               xlink:href="#DejaVuSans-Oblique-86"
               transform="translate(391.30859,0.015625)" />
            <use
               height="100%"
               width="100%"
               y="0"
               x="0"
               id="use183"
               xlink:href="#DejaVuSerif-93"
               transform="translate(459.7168,0.015625)" />
          </g>
        </g>
      </g>
      <g
         id="line2d_15">
        <path
           id="path189"
           style="fill:none;stroke:#7fa3ae;stroke-width:1.5;stroke-linecap:square"
           d="m 40.876879,63.46063 9.365331,-7.038412 5.04287,-3.525568 4.32246,-2.765195 3.962255,-2.269358 3.60205,-1.804827 3.241846,-1.389467 3.241845,-1.148381 3.241845,-0.892563 2.88164,-0.569296 2.88164,-0.352303 2.88164,-0.131737 2.881641,0.09016 2.88164,0.311151 2.88164,0.528984 2.88164,0.741453 3.241848,1.078662 3.24184,1.324158 3.24185,1.552667 3.60205,1.968873 3.96225,2.425804 4.32246,2.903795 5.40308,3.90869 9.36533,7.116671 7.56431,5.623269 5.04286,3.474863 4.32247,2.706904 3.96225,2.205079 3.60205,1.738453 3.24185,1.324158 3.24184,1.078661 2.88164,0.741454 2.88164,0.528984 2.88164,0.311151 2.88164,0.09016 2.88164,-0.131737 2.88164,-0.352303 2.88164,-0.569296 2.88164,-0.780518 3.24185,-1.120626 3.24184,-1.363505 3.60205,-1.778489 3.60205,-2.028514 3.96226,-2.481706 4.68266,-3.2075 5.76328,-4.234396 5.04287,-3.838517 v 0"
           clip-path="url(#p0126000199)" />
      </g>
      <g
         id="line2d_16">
        <path
           id="path192"
           style="fill:none;stroke:#d69e70;stroke-width:1.5;stroke-dasharray:5.55, 2.4;stroke-dashoffset:0"
           d="m 40.876879,63.46063 8.644921,-13.028603 4.682665,-6.636346 3.60205,-4.755949 3.241845,-3.951772 3.241845,-3.587791 2.88164,-2.846259 2.521436,-2.2019 2.521435,-1.914573 2.521435,-1.612382 2.16123,-1.131967 2.16123,-0.894254 2.16123,-0.65144 2.16123,-0.404909 2.16123,-0.156068 2.161231,0.09366 2.16123,0.34286 2.16123,0.590101 2.16123,0.833975 2.16123,1.073092 2.16123,1.306087 2.521438,1.808234 2.52143,2.101132 2.52144,2.377718 2.88164,3.032294 3.24184,3.775841 3.24185,4.115019 3.96225,5.412773 4.68267,6.806013 7.2041,10.932177 7.92451,11.938464 4.68266,6.653099 3.96226,5.230818 3.24184,3.932841 2.88164,3.189505 2.88164,2.867393 2.52144,2.221797 2.52144,1.93562 2.52143,1.63441 2.16123,1.1515 2.16123,0.91428 2.16123,0.67183 2.16123,0.42556 2.16123,0.17686 2.16123,-0.0729 2.16123,-0.32215 2.16123,-0.56961 2.16123,-0.81381 2.16123,-1.05338 2.16123,-1.28694 2.52144,-1.78675 2.52143,-2.080725 2.52144,-2.358549 2.88164,-3.012094 2.88164,-3.320443 3.24184,-4.062046 3.60205,-4.857516 4.32246,-6.201761 6.12349,-9.21789 1.80102,-2.754229 v 0"
           clip-path="url(#p0126000199)" />
      </g>
      <g
         id="patch_3">
        <path
           id="path195"
           style="fill:none;stroke:#000000;stroke-width:0.8;stroke-linecap:square;stroke-linejoin:miter"
           d="M 31.889764,111.61417 V 15.307087" />
      </g>
      <g
         id="patch_4">
        <path
           id="path198"
           style="fill:none;stroke:#000000;stroke-width:0.8;stroke-linecap:square;stroke-linejoin:miter"
           d="M 229.6063,111.61417 V 15.307087" />
      </g>
      <g
         id="patch_5">
        <path
           id="path201"
           style="fill:none;stroke:#000000;stroke-width:0.8;stroke-linecap:square;stroke-linejoin:miter"
           d="M 31.889764,111.61417 H 229.6063" />
      </g>
      <g
         id="patch_6">
        <path
           id="path204"
           style="fill:none;stroke:#000000;stroke-width:0.8;stroke-linecap:square;stroke-linejoin:miter"
           d="M 31.889764,15.307087 H 229.6063" />
      </g>
      <g
         id="legend_1">
        <g
           id="patch_7">
          <path
             id="path207"
             style="opacity:0.8;fill:#ffffff;stroke:#cccccc;stroke-linejoin:miter"
             d="m 138.69302,56.398962 h 83.21328 q 2.2,0 2.2,-2.2 V 23.007087 q 0,-2.2 -2.2,-2.2 h -83.21328 q -2.2,0 -2.2,2.2 v 31.191875 q 0,2.2 2.2,2.2 z" />
        </g>
        <g
           id="line2d_17">
          <path
             id="path210"
             style="fill:none;stroke:#7fa3ae;stroke-width:1.5;stroke-linecap:square"
             d="m 140.89302,29.715368 h 11" />
        </g>
        <g
           id="line2d_18" />
        <g
           id="text_8">
          <!-- Normal -->
          <g
             id="g231"
             transform="matrix(0.11,0,0,-0.11,160.69302,33.565368)">
            <defs
               id="defs217">
              <path
                 id="DejaVuSerif-78"
                 d="m 4.890625,0 v 5.171875 h 9.8125 v 62.5 h -9.8125 v 5.234375 h 18.6875 L 67.28125,15.375 v 52.296875 h -9.765625 v 5.234375 h 25.59375 v -5.234375 h -9.8125 v -69.09375 h -5.90625 l -46.6875,61.4375 V 5.171875 h 9.8125 V 0 Z" />
              <path
                 id="DejaVuSerif-111"
                 d="m 30.078125,3.421875 q 7.234375,0 10.90625,5.703125 3.6875,5.71875 3.6875,16.859375 0,11.125 -3.6875,16.8125 -3.671875,5.6875 -10.90625,5.6875 -7.21875,0 -10.90625,-5.6875 -3.6875,-5.6875 -3.6875,-16.8125 0,-11.140625 3.703125,-16.859375 3.71875,-5.703125 10.890625,-5.703125 z m 0,-4.84375 q -11.328125,0 -18.21875,7.5 -6.875,7.5 -6.875,19.90625 0,12.390625 6.859375,19.859375 6.859375,7.484375 18.234375,7.484375 11.375,0 18.234375,-7.484375 6.859375,-7.46875 6.859375,-19.859375 0,-12.40625 -6.859375,-19.90625 -6.859375,-7.5 -18.234375,-7.5 z" />
              <path
                 id="DejaVuSerif-114"
                 d="M 47.796875,52 V 39.015625 H 42.625 q -0.234375,3.859375 -2.140625,5.765625 -1.90625,1.90625 -5.578125,1.90625 -6.640625,0 -10.1875,-4.59375 Q 21.1875,37.5 21.1875,28.90625 V 5.171875 H 31.59375 V 0 H 4.109375 v 5.171875 h 8.09375 V 46.78125 h -8.59375 v 5.125 H 21.1875 v -9.234375 q 2.640625,5.421875 6.78125,8.03125 4.15625,2.625 10.125,2.625 2.1875,0 4.609375,-0.34375 Q 45.125,52.640625 47.796875,52 Z" />
            </defs>
            <use
               height="100%"
               width="100%"
               y="0"
               x="0"
               id="use219"
               xlink:href="#DejaVuSerif-78" />
            <use
               height="100%"
               width="100%"
               y="0"
               id="use221"
               xlink:href="#DejaVuSerif-111"
               x="87.5" />
            <use
               height="100%"
               width="100%"
               y="0"
               id="use223"
               xlink:href="#DejaVuSerif-114"
               x="147.70508" />
            <use
               height="100%"
               width="100%"
               y="0"
               id="use225"
               xlink:href="#DejaVuSerif-109"
               x="195.50781" />
            <use
               height="100%"
               width="100%"
               y="0"
               id="use227"
               xlink:href="#DejaVuSerif-97"
               x="290.33203" />
            <use
               height="100%"
               width="100%"
               y="0"
               id="use229"
               xlink:href="#DejaVuSerif-108"
               x="349.95117" />
          </g>
        </g>
        <g
           id="line2d_19">
          <path
             id="path234"
             style="fill:none;stroke:#d69e70;stroke-width:1.5;stroke-dasharray:5.55, 2.4;stroke-dashoffset:0"
             d="m 140.89302,45.861305 h 11" />
        </g>
        <g
           id="line2d_20" />
        <g
           id="text_9">
          <!-- Rail to rail -->
          <g
             id="g266"
             transform="matrix(0.11,0,0,-0.11,160.69302,49.711305)">
            <defs
               id="defs240">
              <path
                 id="DejaVuSerif-82"
                 d="M 47.90625,36.1875 Q 51.3125,35.25 53.78125,33.03125 56.25,30.8125 58.203125,26.8125 L 68.796875,5.171875 H 77.6875 V 0 H 60.5 L 49.125,23.1875 q -3.28125,6.75 -6.015625,8.71875 Q 40.375,33.890625 35.59375,33.890625 H 24.703125 V 5.171875 h 10.3125 V 0 h -29.5 v 5.171875 h 9.28125 v 62.5 h -9.28125 v 5.234375 h 36.96875 q 10.640625,0 16.421875,-5.078125 5.796875,-5.078125 5.796875,-14.40625 0,-7.515625 -4.234375,-11.84375 Q 56.25,37.25 47.90625,36.1875 Z m -23.203125,2.921875 h 14.40625 q 7.375,0 10.890625,3.484375 3.515625,3.5 3.515625,10.828125 0,7.328125 -3.515625,10.78125 -3.515625,3.46875 -10.890625,3.46875 h -14.40625 z" />
              <path
                 id="DejaVuSerif-116"
                 d="M 10.796875,46.6875 H 2.875 v 5.21875 h 7.921875 v 16.109375 h 9.03125 V 51.90625 H 36.71875 V 46.6875 H 19.828125 V 13.71875 q 0,-6.59375 1.265625,-8.453125 1.265625,-1.84375 4.6875,-1.84375 3.515625,0 5.125,2.0625 1.609375,2.078125 1.71875,6.71875 h 6.78125 Q 39.015625,5.125 35.546875,1.84375 32.078125,-1.421875 25,-1.421875 q -7.765625,0 -10.984375,3.4375 -3.21875,3.453125 -3.21875,11.703125 z" />
            </defs>
            <use
               height="100%"
               width="100%"
               y="0"
               x="0"
               id="use242"
               xlink:href="#DejaVuSerif-82" />
            <use
               height="100%"
               width="100%"
               y="0"
               id="use244"
               xlink:href="#DejaVuSerif-97"
               x="77.542969" />
            <use
               height="100%"
               width="100%"
               y="0"
               id="use246"
               xlink:href="#DejaVuSerif-105"
               x="137.16211" />
            <use
               height="100%"
               width="100%"
               y="0"
               id="use248"
               xlink:href="#DejaVuSerif-108"
               x="169.14453" />
            <use
               height="100%"
               width="100%"
               y="0"
               id="use250"
               xlink:href="#DejaVuSerif-32"
               x="201.12695" />
            <use
               height="100%"
               width="100%"
               y="0"
               id="use252"
               xlink:href="#DejaVuSerif-116"
               x="232.91406" />
            <use
               height="100%"
               width="100%"
               y="0"
               id="use254"
               xlink:href="#DejaVuSerif-111"
               x="273.09961" />
            <use
               height="100%"
               width="100%"
               y="0"
               id="use256"
               xlink:href="#DejaVuSerif-32"
               x="333.30469" />
            <use
               height="100%"
               width="100%"
               y="0"
               id="use258"
               xlink:href="#DejaVuSerif-114"
               x="365.0918" />
            <use
               height="100%"
               width="100%"
               y="0"
               id="use260"
               xlink:href="#DejaVuSerif-97"
               x="412.89453" />
            <use
               height="100%"
               width="100%"
               y="0"
               id="use262"
               xlink:href="#DejaVuSerif-105"
               x="472.51367" />
            <use
               height="100%"
               width="100%"
               y="0"
               id="use264"
               xlink:href="#DejaVuSerif-108"
               x="504.49609" />
          </g>
        </g>
      </g>
    </g>
  </g>
  <defs
     id="defs275">
    <clipPath
       id="p0126000199">
      <rect
         id="rect272"
         y="15.307087"
         x="31.889765"
         width="197.71654"
         height="96.307091" />
    </clipPath>
  </defs>
</svg>
