<?xml version="1.0" encoding="utf-8" standalone="no"?>
<!DOCTYPE svg PUBLIC "-//W3C//DTD SVG 1.1//EN"
  "http://www.w3.org/Graphics/SVG/1.1/DTD/svg11.dtd">
<!-- Created with matplotlib (https://matplotlib.org/) -->
<svg height="255.11811pt" version="1.1" viewBox="0 0 340.15748 255.11811" width="340.15748pt" xmlns="http://www.w3.org/2000/svg" xmlns:xlink="http://www.w3.org/1999/xlink">
 <metadata>
  <rdf:RDF xmlns:cc="http://creativecommons.org/ns#" xmlns:dc="http://purl.org/dc/elements/1.1/" xmlns:rdf="http://www.w3.org/1999/02/22-rdf-syntax-ns#">
   <cc:Work>
    <dc:type rdf:resource="http://purl.org/dc/dcmitype/StillImage"/>
    <dc:date>2020-11-16T22:37:46.441809</dc:date>
    <dc:format>image/svg+xml</dc:format>
    <dc:creator>
     <cc:Agent>
      <dc:title>Matplotlib v3.3.2, https://matplotlib.org/</dc:title>
     </cc:Agent>
    </dc:creator>
   </cc:Work>
  </rdf:RDF>
 </metadata>
 <defs>
  <style type="text/css">*{stroke-linecap:butt;stroke-linejoin:round;}</style>
 </defs>
 <g id="figure_1">
  <g id="patch_1">
   <path d="M 0 255.11811 
L 340.15748 255.11811 
L 340.15748 0 
L 0 0 
z
" style="fill:none;"/>
  </g>
  <g id="axes_1">
   <g id="patch_2">
    <path d="M 42.519685 223.228346 
L 306.141732 223.228346 
L 306.141732 30.614173 
L 42.519685 30.614173 
z
" style="fill:#ffffff;"/>
   </g>
   <g id="matplotlib.axis_1">
    <g id="xtick_1">
     <g id="line2d_1">
      <path clip-path="url(#p65ce74c771)" d="M 54.502505 223.228346 
L 54.502505 30.614173 
" style="fill:none;stroke:#b0b0b0;stroke-linecap:square;stroke-width:0.8;"/>
     </g>
    </g>
    <g id="xtick_2">
     <g id="line2d_2">
      <path clip-path="url(#p65ce74c771)" d="M 122.311397 223.228346 
L 122.311397 30.614173 
" style="fill:none;stroke:#b0b0b0;stroke-linecap:square;stroke-width:0.8;"/>
     </g>
    </g>
    <g id="xtick_3">
     <g id="line2d_3">
      <path clip-path="url(#p65ce74c771)" d="M 190.120289 223.228346 
L 190.120289 30.614173 
" style="fill:none;stroke:#b0b0b0;stroke-linecap:square;stroke-width:0.8;"/>
     </g>
    </g>
    <g id="xtick_4">
     <g id="line2d_4">
      <path clip-path="url(#p65ce74c771)" d="M 257.929181 223.228346 
L 257.929181 30.614173 
" style="fill:none;stroke:#b0b0b0;stroke-linecap:square;stroke-width:0.8;"/>
     </g>
    </g>
    <g id="text_1">
     <!-- Time -->
     <g transform="translate(160.432037 235.586628)scale(0.11 -0.11)">
      <defs>
       <path d="M 19.09375 0 
L 19.09375 5.171875 
L 28.421875 5.171875 
L 28.421875 67.09375 
L 6.984375 67.09375 
L 6.984375 55.71875 
L 0.984375 55.71875 
L 0.984375 72.90625 
L 65.71875 72.90625 
L 65.71875 55.71875 
L 59.71875 55.71875 
L 59.71875 67.09375 
L 38.28125 67.09375 
L 38.28125 5.171875 
L 47.609375 5.171875 
L 47.609375 0 
z
" id="DejaVuSerif-84"/>
       <path d="M 9.71875 68.015625 
Q 9.71875 70.265625 11.34375 71.921875 
Q 12.984375 73.578125 15.28125 73.578125 
Q 17.53125 73.578125 19.15625 71.921875 
Q 20.796875 70.265625 20.796875 68.015625 
Q 20.796875 65.71875 19.1875 64.109375 
Q 17.578125 62.5 15.28125 62.5 
Q 12.984375 62.5 11.34375 64.109375 
Q 9.71875 65.71875 9.71875 68.015625 
z
M 21.1875 5.171875 
L 29.6875 5.171875 
L 29.6875 0 
L 3.609375 0 
L 3.609375 5.171875 
L 12.203125 5.171875 
L 12.203125 46.6875 
L 3.609375 46.6875 
L 3.609375 51.90625 
L 21.1875 51.90625 
z
" id="DejaVuSerif-105"/>
       <path d="M 51.8125 41.796875 
Q 54.390625 47.515625 58.421875 50.421875 
Q 62.453125 53.328125 67.828125 53.328125 
Q 75.984375 53.328125 79.984375 48.265625 
Q 83.984375 43.21875 83.984375 33.015625 
L 83.984375 5.171875 
L 92.09375 5.171875 
L 92.09375 0 
L 67.1875 0 
L 67.1875 5.171875 
L 75 5.171875 
L 75 31.984375 
Q 75 39.9375 72.65625 43.3125 
Q 70.3125 46.6875 64.890625 46.6875 
Q 58.890625 46.6875 55.734375 42.140625 
Q 52.59375 37.59375 52.59375 28.90625 
L 52.59375 5.171875 
L 60.40625 5.171875 
L 60.40625 0 
L 35.796875 0 
L 35.796875 5.171875 
L 43.609375 5.171875 
L 43.609375 32.328125 
Q 43.609375 40.09375 41.265625 43.390625 
Q 38.921875 46.6875 33.5 46.6875 
Q 27.484375 46.6875 24.328125 42.140625 
Q 21.1875 37.59375 21.1875 28.90625 
L 21.1875 5.171875 
L 29 5.171875 
L 29 0 
L 4.109375 0 
L 4.109375 5.171875 
L 12.203125 5.171875 
L 12.203125 46.78125 
L 3.609375 46.78125 
L 3.609375 51.90625 
L 21.1875 51.90625 
L 21.1875 42.671875 
Q 23.6875 47.859375 27.53125 50.59375 
Q 31.390625 53.328125 36.28125 53.328125 
Q 42.328125 53.328125 46.375 50.3125 
Q 50.4375 47.3125 51.8125 41.796875 
z
" id="DejaVuSerif-109"/>
       <path d="M 54.203125 25 
L 15.484375 25 
L 15.484375 24.609375 
Q 15.484375 14.109375 19.4375 8.765625 
Q 23.390625 3.421875 31.109375 3.421875 
Q 37.015625 3.421875 40.796875 6.515625 
Q 44.578125 9.625 46.09375 15.71875 
L 53.328125 15.71875 
Q 51.171875 7.171875 45.375 2.875 
Q 39.59375 -1.421875 30.171875 -1.421875 
Q 18.796875 -1.421875 11.890625 6.078125 
Q 4.984375 13.578125 4.984375 25.984375 
Q 4.984375 38.28125 11.765625 45.796875 
Q 18.5625 53.328125 29.59375 53.328125 
Q 41.359375 53.328125 47.65625 46.0625 
Q 53.953125 38.8125 54.203125 25 
z
M 43.609375 30.171875 
Q 43.3125 39.265625 39.765625 43.875 
Q 36.234375 48.484375 29.59375 48.484375 
Q 23.390625 48.484375 19.828125 43.84375 
Q 16.265625 39.203125 15.484375 30.171875 
z
" id="DejaVuSerif-101"/>
      </defs>
      <use xlink:href="#DejaVuSerif-84"/>
      <use x="66.699219" xlink:href="#DejaVuSerif-105"/>
      <use x="98.681641" xlink:href="#DejaVuSerif-109"/>
      <use x="193.505859" xlink:href="#DejaVuSerif-101"/>
     </g>
    </g>
   </g>
   <g id="matplotlib.axis_2">
    <g id="ytick_1">
     <g id="line2d_5">
      <path clip-path="url(#p65ce74c771)" d="M 42.519685 217.209154 
L 306.141732 217.209154 
" style="fill:none;stroke:#b0b0b0;stroke-linecap:square;stroke-width:0.8;"/>
     </g>
    </g>
    <g id="ytick_2">
     <g id="line2d_6">
      <path clip-path="url(#p65ce74c771)" d="M 42.519685 187.113189 
L 306.141732 187.113189 
" style="fill:none;stroke:#b0b0b0;stroke-linecap:square;stroke-width:0.8;"/>
     </g>
    </g>
    <g id="ytick_3">
     <g id="line2d_7">
      <path clip-path="url(#p65ce74c771)" d="M 42.519685 157.017224 
L 306.141732 157.017224 
" style="fill:none;stroke:#b0b0b0;stroke-linecap:square;stroke-width:0.8;"/>
     </g>
    </g>
    <g id="ytick_4">
     <g id="line2d_8">
      <path clip-path="url(#p65ce74c771)" d="M 42.519685 126.92126 
L 306.141732 126.92126 
" style="fill:none;stroke:#b0b0b0;stroke-linecap:square;stroke-width:0.8;"/>
     </g>
    </g>
    <g id="ytick_5">
     <g id="line2d_9">
      <path clip-path="url(#p65ce74c771)" d="M 42.519685 96.825295 
L 306.141732 96.825295 
" style="fill:none;stroke:#b0b0b0;stroke-linecap:square;stroke-width:0.8;"/>
     </g>
    </g>
    <g id="ytick_6">
     <g id="line2d_10">
      <path clip-path="url(#p65ce74c771)" d="M 42.519685 66.729331 
L 306.141732 66.729331 
" style="fill:none;stroke:#b0b0b0;stroke-linecap:square;stroke-width:0.8;"/>
     </g>
    </g>
    <g id="ytick_7">
     <g id="line2d_11">
      <path clip-path="url(#p65ce74c771)" d="M 42.519685 36.633366 
L 306.141732 36.633366 
" style="fill:none;stroke:#b0b0b0;stroke-linecap:square;stroke-width:0.8;"/>
     </g>
    </g>
    <g id="text_2">
     <!-- Signal -->
     <g transform="translate(36.075623 144.549619)rotate(-90)scale(0.11 -0.11)">
      <defs>
       <path d="M 9.28125 3.515625 
L 9.28125 20.125 
L 14.890625 20.0625 
Q 15.140625 11.765625 19.703125 7.78125 
Q 24.265625 3.8125 33.59375 3.8125 
Q 42.28125 3.8125 46.84375 7.25 
Q 51.421875 10.6875 51.421875 17.28125 
Q 51.421875 22.5625 48.65625 25.390625 
Q 45.90625 28.21875 37.015625 30.90625 
L 27.390625 33.796875 
Q 16.9375 36.96875 12.671875 41.703125 
Q 8.40625 46.4375 8.40625 54.6875 
Q 8.40625 63.96875 14.984375 69.09375 
Q 21.578125 74.21875 33.5 74.21875 
Q 38.578125 74.21875 44.625 73.109375 
Q 50.6875 72.015625 57.515625 69.921875 
L 57.515625 54.390625 
L 52 54.390625 
Q 51.171875 62.109375 46.84375 65.546875 
Q 42.53125 69 33.6875 69 
Q 25.984375 69 21.953125 65.84375 
Q 17.921875 62.703125 17.921875 56.6875 
Q 17.921875 51.46875 20.9375 48.484375 
Q 23.96875 45.515625 33.796875 42.578125 
L 42.828125 39.890625 
Q 52.734375 36.921875 56.953125 32.296875 
Q 61.1875 27.6875 61.1875 19.921875 
Q 61.1875 9.328125 54.390625 3.953125 
Q 47.609375 -1.421875 34.1875 -1.421875 
Q 28.171875 -1.421875 21.9375 -0.1875 
Q 15.71875 1.03125 9.28125 3.515625 
z
" id="DejaVuSerif-83"/>
       <path d="M 52.484375 46.6875 
L 52.484375 1.125 
Q 52.484375 -10.0625 46.328125 -16.140625 
Q 40.1875 -22.21875 28.8125 -22.21875 
Q 23.6875 -22.21875 19 -21.28125 
Q 14.3125 -20.359375 10.015625 -18.5 
L 10.015625 -7.625 
L 14.703125 -7.625 
Q 15.578125 -12.703125 18.84375 -15.046875 
Q 22.125 -17.390625 28.21875 -17.390625 
Q 36.140625 -17.390625 39.8125 -12.921875 
Q 43.5 -8.453125 43.5 1.125 
L 43.5 8.109375 
Q 40.875 3.21875 36.796875 0.890625 
Q 32.71875 -1.421875 26.703125 -1.421875 
Q 17.140625 -1.421875 11.0625 6.171875 
Q 4.984375 13.765625 4.984375 25.984375 
Q 4.984375 38.1875 11.03125 45.75 
Q 17.09375 53.328125 26.703125 53.328125 
Q 32.71875 53.328125 36.796875 51 
Q 40.875 48.6875 43.5 43.796875 
L 43.5 51.90625 
L 61.078125 51.90625 
L 61.078125 46.6875 
z
M 43.5 28.515625 
Q 43.5 37.84375 39.90625 42.765625 
Q 36.328125 47.703125 29.5 47.703125 
Q 22.5625 47.703125 19.015625 42.234375 
Q 15.484375 36.765625 15.484375 25.984375 
Q 15.484375 15.234375 19.015625 9.71875 
Q 22.5625 4.203125 29.5 4.203125 
Q 36.328125 4.203125 39.90625 9.109375 
Q 43.5 14.015625 43.5 23.390625 
z
" id="DejaVuSerif-103"/>
       <path d="M 4.109375 0 
L 4.109375 5.171875 
L 12.203125 5.171875 
L 12.203125 46.6875 
L 3.609375 46.6875 
L 3.609375 51.90625 
L 21.1875 51.90625 
L 21.1875 42.671875 
Q 23.6875 47.953125 27.65625 50.640625 
Q 31.640625 53.328125 36.921875 53.328125 
Q 45.515625 53.328125 49.5625 48.390625 
Q 53.609375 43.453125 53.609375 33.015625 
L 53.609375 5.171875 
L 61.625 5.171875 
L 61.625 0 
L 36.8125 0 
L 36.8125 5.171875 
L 44.578125 5.171875 
L 44.578125 30.171875 
Q 44.578125 39.703125 42.234375 43.234375 
Q 39.890625 46.78125 33.984375 46.78125 
Q 27.734375 46.78125 24.453125 42.203125 
Q 21.1875 37.640625 21.1875 28.90625 
L 21.1875 5.171875 
L 29 5.171875 
L 29 0 
z
" id="DejaVuSerif-110"/>
       <path d="M 39.796875 16.3125 
L 39.796875 27.296875 
L 28.21875 27.296875 
Q 21.53125 27.296875 18.25 24.40625 
Q 14.984375 21.53125 14.984375 15.578125 
Q 14.984375 10.15625 18.296875 6.984375 
Q 21.625 3.8125 27.296875 3.8125 
Q 32.90625 3.8125 36.34375 7.28125 
Q 39.796875 10.75 39.796875 16.3125 
z
M 48.78125 32.421875 
L 48.78125 5.171875 
L 56.78125 5.171875 
L 56.78125 0 
L 39.796875 0 
L 39.796875 5.609375 
Q 36.8125 2 32.90625 0.28125 
Q 29 -1.421875 23.78125 -1.421875 
Q 15.140625 -1.421875 10.0625 3.171875 
Q 4.984375 7.765625 4.984375 15.578125 
Q 4.984375 23.640625 10.796875 28.078125 
Q 16.609375 32.515625 27.203125 32.515625 
L 39.796875 32.515625 
L 39.796875 36.078125 
Q 39.796875 42 36.203125 45.234375 
Q 32.625 48.484375 26.125 48.484375 
Q 20.75 48.484375 17.578125 46.046875 
Q 14.40625 43.609375 13.625 38.8125 
L 8.984375 38.8125 
L 8.984375 49.3125 
Q 13.671875 51.3125 18.09375 52.3125 
Q 22.515625 53.328125 26.703125 53.328125 
Q 37.5 53.328125 43.140625 47.96875 
Q 48.78125 42.625 48.78125 32.421875 
z
" id="DejaVuSerif-97"/>
       <path d="M 20.515625 5.171875 
L 29 5.171875 
L 29 0 
L 2.875 0 
L 2.875 5.171875 
L 11.53125 5.171875 
L 11.53125 70.796875 
L 2.875 70.796875 
L 2.875 75.984375 
L 20.515625 75.984375 
z
" id="DejaVuSerif-108"/>
      </defs>
      <use xlink:href="#DejaVuSerif-83"/>
      <use x="68.505859" xlink:href="#DejaVuSerif-105"/>
      <use x="100.488281" xlink:href="#DejaVuSerif-103"/>
      <use x="164.501953" xlink:href="#DejaVuSerif-110"/>
      <use x="228.90625" xlink:href="#DejaVuSerif-97"/>
      <use x="288.525391" xlink:href="#DejaVuSerif-108"/>
     </g>
    </g>
   </g>
   <g id="LineCollection_1">
    <path clip-path="url(#p65ce74c771)" d="M 54.502505 157.017224 
L 54.502505 157.017224 
" style="fill:none;stroke:#7fa3ae;stroke-width:1.5;"/>
    <path clip-path="url(#p65ce74c771)" d="M 86.456693 157.017224 
L 86.456693 217.209154 
" style="fill:none;stroke:#7fa3ae;stroke-width:1.5;"/>
    <path clip-path="url(#p65ce74c771)" d="M 118.41088 157.017224 
L 118.41088 157.017224 
" style="fill:none;stroke:#7fa3ae;stroke-width:1.5;"/>
    <path clip-path="url(#p65ce74c771)" d="M 150.365068 157.017224 
L 150.365068 96.825295 
" style="fill:none;stroke:#7fa3ae;stroke-width:1.5;"/>
    <path clip-path="url(#p65ce74c771)" d="M 182.319256 157.017224 
L 182.319256 157.017224 
" style="fill:none;stroke:#7fa3ae;stroke-width:1.5;"/>
    <path clip-path="url(#p65ce74c771)" d="M 214.273443 157.017224 
L 214.273443 217.209154 
" style="fill:none;stroke:#7fa3ae;stroke-width:1.5;"/>
    <path clip-path="url(#p65ce74c771)" d="M 246.227631 157.017224 
L 246.227631 157.017224 
" style="fill:none;stroke:#7fa3ae;stroke-width:1.5;"/>
    <path clip-path="url(#p65ce74c771)" d="M 278.181818 157.017224 
L 278.181818 96.825295 
" style="fill:none;stroke:#7fa3ae;stroke-width:1.5;"/>
   </g>
   <g id="LineCollection_2">
    <path clip-path="url(#p65ce74c771)" d="M 54.502505 157.017224 
L 54.502505 157.017224 
" style="fill:none;stroke:#d69e70;stroke-width:1.5;"/>
    <path clip-path="url(#p65ce74c771)" d="M 86.456693 157.017224 
L 86.456693 108.320931 
" style="fill:none;stroke:#d69e70;stroke-width:1.5;"/>
    <path clip-path="url(#p65ce74c771)" d="M 118.41088 157.017224 
L 118.41088 99.771298 
" style="fill:none;stroke:#d69e70;stroke-width:1.5;"/>
    <path clip-path="url(#p65ce74c771)" d="M 150.365068 157.017224 
L 150.365068 138.416895 
" style="fill:none;stroke:#d69e70;stroke-width:1.5;"/>
    <path clip-path="url(#p65ce74c771)" d="M 182.319256 157.017224 
L 182.319256 192.397153 
" style="fill:none;stroke:#d69e70;stroke-width:1.5;"/>
    <path clip-path="url(#p65ce74c771)" d="M 214.273443 157.017224 
L 214.273443 217.209154 
" style="fill:none;stroke:#d69e70;stroke-width:1.5;"/>
    <path clip-path="url(#p65ce74c771)" d="M 246.227631 157.017224 
L 246.227631 192.397153 
" style="fill:none;stroke:#d69e70;stroke-width:1.5;"/>
    <path clip-path="url(#p65ce74c771)" d="M 278.181818 157.017224 
L 278.181818 138.416895 
" style="fill:none;stroke:#d69e70;stroke-width:1.5;"/>
   </g>
   <g id="line2d_12">
    <path clip-path="url(#p65ce74c771)" d="M 54.502505 157.017224 
L 57.621157 130.299563 
L 59.300431 117.893318 
L 60.499913 110.454479 
L 61.699394 104.468821 
L 62.65898 100.853799 
L 63.378669 98.876286 
L 64.098357 97.553092 
L 64.57815 97.042137 
L 65.057943 96.831322 
L 65.537735 96.921702 
L 66.017528 97.312824 
L 66.497321 98.002731 
L 67.217009 99.589856 
L 67.936698 101.823272 
L 68.896284 105.762043 
L 69.855869 110.725537 
L 71.05535 118.217954 
L 72.494728 128.783898 
L 74.413899 144.752685 
L 79.451721 187.847827 
L 80.891099 198.047251 
L 82.09058 205.156901 
L 83.050165 209.772019 
L 84.009751 213.332433 
L 84.72944 215.266937 
L 85.449128 216.545897 
L 85.928921 217.026928 
L 86.408714 217.207647 
L 86.888506 217.087148 
L 87.368299 216.666034 
L 87.848091 215.946414 
L 88.56778 214.315565 
L 89.287469 212.039878 
L 90.247054 208.047824 
L 91.20664 203.035535 
L 92.406121 195.489917 
L 93.845499 184.873708 
L 95.764669 168.864497 
L 100.802492 125.821609 
L 102.24187 115.676608 
L 103.441351 108.623086 
L 104.400936 104.05868 
L 105.360522 100.553052 
L 106.08021 98.661654 
L 106.799899 97.426991 
L 107.279692 96.975908 
L 107.759485 96.825295 
L 108.239277 96.975908 
L 108.71907 97.426991 
L 109.198862 98.176289 
L 109.918551 99.850779 
L 110.63824 102.168624 
L 111.597825 106.213762 
L 112.557411 111.274594 
L 113.756892 118.873037 
L 115.19627 129.538979 
L 117.11544 145.587811 
L 121.913366 186.743601 
L 123.352744 197.103222 
L 124.552226 204.379105 
L 125.511811 209.144964 
L 126.471396 212.868655 
L 127.191085 214.931888 
L 127.910774 216.343347 
L 128.390567 216.914071 
L 128.870359 217.185047 
L 129.350152 217.154919 
L 129.829944 216.823837 
L 130.309737 216.193458 
L 131.029426 214.694016 
L 131.749115 212.545476 
L 132.7087 208.713861 
L 133.668285 203.848697 
L 134.867767 196.463808 
L 136.307145 185.999978 
L 138.226315 170.114434 
L 143.504034 125.096286 
L 144.943412 115.061655 
L 146.142893 108.121443 
L 147.102478 103.659145 
L 148.062063 100.263612 
L 148.781752 98.458708 
L 149.501441 97.312824 
L 149.981234 96.921702 
L 150.461027 96.831322 
L 150.940819 97.042137 
L 151.420612 97.553092 
L 151.900404 98.36163 
L 152.620093 100.12315 
L 153.339782 102.524959 
L 154.299367 106.675656 
L 155.258953 111.83281 
L 156.458434 119.535758 
L 157.897812 130.299563 
L 159.816982 146.425226 
L 164.375012 185.62598 
L 165.81439 196.141131 
L 167.013871 203.57997 
L 168.213353 209.565628 
L 169.172938 213.180649 
L 169.892627 215.158163 
L 170.612316 216.481356 
L 171.092109 216.992311 
L 171.571901 217.203127 
L 172.051694 217.112747 
L 172.531486 216.721625 
L 173.011279 216.031718 
L 173.730968 214.444593 
L 174.450657 212.211177 
L 175.410242 208.272406 
L 176.369827 203.308911 
L 177.569309 195.816495 
L 179.008687 185.250551 
L 180.927857 169.281764 
L 185.965679 126.186622 
L 187.405057 115.987197 
L 188.604539 108.877548 
L 189.564124 104.26243 
L 190.523709 100.702016 
L 191.243398 98.767511 
L 191.963087 97.488552 
L 192.44288 97.00752 
L 192.922672 96.826802 
L 193.402465 96.947301 
L 193.882257 97.368414 
L 194.36205 98.088035 
L 195.081739 99.718883 
L 195.801428 101.99457 
L 196.761013 105.986625 
L 197.720598 110.998914 
L 198.92008 118.544532 
L 200.359458 129.160741 
L 202.278628 145.169951 
L 207.31645 188.21284 
L 208.755828 198.35784 
L 209.95531 205.411363 
L 210.914895 209.975769 
L 211.87448 213.481397 
L 212.594169 215.372795 
L 213.313858 216.607457 
L 213.79365 217.058541 
L 214.273443 217.209154 
L 214.753236 217.058541 
L 215.233028 216.607457 
L 215.712821 215.85816 
L 216.43251 214.183669 
L 217.152199 211.865825 
L 218.111784 207.820686 
L 219.071369 202.759855 
L 220.270851 195.161412 
L 221.710228 184.49547 
L 223.629399 168.446638 
L 228.427325 127.290848 
L 229.866703 116.931227 
L 231.066184 109.655344 
L 232.02577 104.889485 
L 232.985355 101.165794 
L 233.705044 99.102561 
L 234.424733 97.691101 
L 234.904525 97.120377 
L 235.384318 96.849402 
L 235.86411 96.87953 
L 236.343903 97.210612 
L 236.823696 97.840991 
L 237.543384 99.340433 
L 238.263073 101.488973 
L 239.222659 105.320587 
L 240.182244 110.185751 
L 241.381725 117.570641 
L 242.821103 128.034471 
L 244.740274 143.920015 
L 250.017992 188.938162 
L 251.45737 198.972794 
L 252.656852 205.913006 
L 253.616437 210.375304 
L 254.576022 213.770837 
L 255.295711 215.575741 
L 256.0154 216.721625 
L 256.495192 217.112747 
L 256.974985 217.203127 
L 257.454778 216.992311 
L 257.93457 216.481356 
L 258.414363 215.672819 
L 259.134052 213.911298 
L 259.853741 211.509489 
L 260.813326 207.358793 
L 261.772911 202.201639 
L 262.972393 194.498691 
L 264.41177 183.734886 
L 266.330941 167.609223 
L 270.888971 128.408469 
L 272.328348 117.893318 
L 273.52783 110.454479 
L 274.727311 104.468821 
L 275.686897 100.853799 
L 276.406586 98.876286 
L 277.126274 97.553092 
L 277.606067 97.042137 
L 278.08586 96.831322 
L 278.565652 96.921702 
L 279.045445 97.312824 
L 279.525237 98.002731 
L 280.244926 99.589856 
L 280.964615 101.823272 
L 281.924201 105.762043 
L 282.883786 110.725537 
L 284.083267 118.217954 
L 285.522645 128.783898 
L 287.441815 144.752685 
L 292.479638 187.847827 
L 293.919016 198.047251 
L 294.158912 199.579346 
L 294.158912 199.579346 
" style="fill:none;stroke:#7fa3ae;stroke-linecap:square;stroke-width:1.5;"/>
   </g>
   <g id="line2d_13">
    <path clip-path="url(#p65ce74c771)" d="M 54.502505 157.017224 
L 64.098357 140.207853 
L 69.13618 131.836628 
L 73.214417 125.458158 
L 76.812862 120.205986 
L 80.17141 115.676608 
L 83.290062 111.83281 
L 86.168817 108.623086 
L 88.807677 105.986625 
L 91.446536 103.659145 
L 93.845499 101.823272 
L 96.244462 100.263612 
L 98.403529 99.102561 
L 100.562596 98.176289 
L 102.721662 97.488552 
L 104.880729 97.042137 
L 107.039796 96.838856 
L 109.198862 96.87953 
L 111.357929 97.163997 
L 113.516996 97.691101 
L 115.676063 98.458708 
L 117.835129 99.463704 
L 119.994196 100.702016 
L 122.393159 102.345423 
L 124.792122 104.26243 
L 127.430981 106.675656 
L 130.069841 109.39369 
L 132.948596 112.687065 
L 136.067248 116.614522 
L 139.425797 121.225106 
L 143.024241 126.553178 
L 147.102478 133.00273 
L 151.900404 141.027415 
L 158.377605 152.33708 
L 171.332005 175.049576 
L 176.129931 182.968952 
L 180.208168 189.298435 
L 183.806613 194.498691 
L 187.165161 198.972794 
L 190.283813 202.759855 
L 193.162568 205.913006 
L 195.801428 208.494422 
L 198.440287 210.764154 
L 200.83925 212.545476 
L 203.238213 214.048912 
L 205.39728 215.158163 
L 207.556347 216.031718 
L 209.715413 216.666034 
L 211.87448 217.058541 
L 214.033547 217.207647 
L 216.192614 217.112747 
L 218.35168 216.774227 
L 220.510747 216.193458 
L 222.669814 215.372795 
L 224.82888 214.315565 
L 226.987947 213.026054 
L 229.38691 211.327225 
L 231.785873 209.356606 
L 234.424733 206.886819 
L 237.063592 204.11508 
L 239.942348 200.766759 
L 243.060999 196.784511 
L 246.419548 192.120941 
L 250.017992 186.743601 
L 254.096229 180.248273 
L 258.894155 172.18427 
L 265.611252 160.422586 
L 277.366171 139.799324 
L 282.403993 131.450422 
L 286.48223 125.096286 
L 290.080675 119.869942 
L 293.439223 115.368089 
L 294.158912 114.455103 
L 294.158912 114.455103 
" style="fill:none;stroke:#d69e70;stroke-dasharray:5.55,2.4;stroke-dashoffset:0;stroke-width:1.5;"/>
   </g>
   <g id="line2d_14">
    <defs>
     <path d="M 0 3 
C 0.795609 3 1.55874 2.683901 2.12132 2.12132 
C 2.683901 1.55874 3 0.795609 3 0 
C 3 -0.795609 2.683901 -1.55874 2.12132 -2.12132 
C 1.55874 -2.683901 0.795609 -3 0 -3 
C -0.795609 -3 -1.55874 -2.683901 -2.12132 -2.12132 
C -2.683901 -1.55874 -3 -0.795609 -3 0 
C -3 0.795609 -2.683901 1.55874 -2.12132 2.12132 
C -1.55874 2.683901 -0.795609 3 0 3 
z
" id="m16dec3f3a3" style="stroke:#7fa3ae;"/>
    </defs>
    <g clip-path="url(#p65ce74c771)">
     <use style="fill:#7fa3ae;stroke:#7fa3ae;" x="54.502505" xlink:href="#m16dec3f3a3" y="157.017224"/>
     <use style="fill:#7fa3ae;stroke:#7fa3ae;" x="86.456693" xlink:href="#m16dec3f3a3" y="217.209154"/>
     <use style="fill:#7fa3ae;stroke:#7fa3ae;" x="118.41088" xlink:href="#m16dec3f3a3" y="157.017224"/>
     <use style="fill:#7fa3ae;stroke:#7fa3ae;" x="150.365068" xlink:href="#m16dec3f3a3" y="96.825295"/>
     <use style="fill:#7fa3ae;stroke:#7fa3ae;" x="182.319256" xlink:href="#m16dec3f3a3" y="157.017224"/>
     <use style="fill:#7fa3ae;stroke:#7fa3ae;" x="214.273443" xlink:href="#m16dec3f3a3" y="217.209154"/>
     <use style="fill:#7fa3ae;stroke:#7fa3ae;" x="246.227631" xlink:href="#m16dec3f3a3" y="157.017224"/>
     <use style="fill:#7fa3ae;stroke:#7fa3ae;" x="278.181818" xlink:href="#m16dec3f3a3" y="96.825295"/>
    </g>
   </g>
   <g id="line2d_15"/>
   <g id="line2d_16">
    <defs>
     <path d="M 0 3 
C 0.795609 3 1.55874 2.683901 2.12132 2.12132 
C 2.683901 1.55874 3 0.795609 3 0 
C 3 -0.795609 2.683901 -1.55874 2.12132 -2.12132 
C 1.55874 -2.683901 0.795609 -3 0 -3 
C -0.795609 -3 -1.55874 -2.683901 -2.12132 -2.12132 
C -2.683901 -1.55874 -3 -0.795609 -3 0 
C -3 0.795609 -2.683901 1.55874 -2.12132 2.12132 
C -1.55874 2.683901 -0.795609 3 0 3 
z
" id="mca332822e1" style="stroke:#d69e70;"/>
    </defs>
    <g clip-path="url(#p65ce74c771)">
     <use style="fill:#d69e70;stroke:#d69e70;" x="54.502505" xlink:href="#mca332822e1" y="157.017224"/>
     <use style="fill:#d69e70;stroke:#d69e70;" x="86.456693" xlink:href="#mca332822e1" y="108.320931"/>
     <use style="fill:#d69e70;stroke:#d69e70;" x="118.41088" xlink:href="#mca332822e1" y="99.771298"/>
     <use style="fill:#d69e70;stroke:#d69e70;" x="150.365068" xlink:href="#mca332822e1" y="138.416895"/>
     <use style="fill:#d69e70;stroke:#d69e70;" x="182.319256" xlink:href="#mca332822e1" y="192.397153"/>
     <use style="fill:#d69e70;stroke:#d69e70;" x="214.273443" xlink:href="#mca332822e1" y="217.209154"/>
     <use style="fill:#d69e70;stroke:#d69e70;" x="246.227631" xlink:href="#mca332822e1" y="192.397153"/>
     <use style="fill:#d69e70;stroke:#d69e70;" x="278.181818" xlink:href="#mca332822e1" y="138.416895"/>
    </g>
   </g>
   <g id="line2d_17"/>
   <g id="patch_3">
    <path d="M 42.519685 223.228346 
L 42.519685 30.614173 
" style="fill:none;stroke:#000000;stroke-linecap:square;stroke-linejoin:miter;stroke-width:0.8;"/>
   </g>
   <g id="patch_4">
    <path d="M 306.141732 223.228346 
L 306.141732 30.614173 
" style="fill:none;stroke:#000000;stroke-linecap:square;stroke-linejoin:miter;stroke-width:0.8;"/>
   </g>
   <g id="patch_5">
    <path d="M 42.519685 223.228346 
L 306.141732 223.228346 
" style="fill:none;stroke:#000000;stroke-linecap:square;stroke-linejoin:miter;stroke-width:0.8;"/>
   </g>
   <g id="patch_6">
    <path d="M 42.519685 30.614173 
L 306.141732 30.614173 
" style="fill:none;stroke:#000000;stroke-linecap:square;stroke-linejoin:miter;stroke-width:0.8;"/>
   </g>
   <g id="legend_1">
    <g id="patch_7">
     <path d="M 224.851732 71.706048 
L 298.441732 71.706048 
Q 300.641732 71.706048 300.641732 69.506048 
L 300.641732 38.314173 
Q 300.641732 36.114173 298.441732 36.114173 
L 224.851732 36.114173 
Q 222.651732 36.114173 222.651732 38.314173 
L 222.651732 69.506048 
Q 222.651732 71.706048 224.851732 71.706048 
z
" style="fill:#ffffff;opacity:0.8;stroke:#cccccc;stroke-linejoin:miter;"/>
    </g>
    <g id="line2d_18">
     <path d="M 227.051732 45.022454 
L 249.051732 45.022454 
" style="fill:none;stroke:#7fa3ae;stroke-linecap:square;stroke-width:1.5;"/>
    </g>
    <g id="line2d_19"/>
    <g id="text_3">
     <!-- $f&gt;f_{\max}$ -->
     <g transform="translate(257.851732 48.872454)scale(0.11 -0.11)">
      <defs>
       <path d="M 47.796875 75.984375 
L 46.390625 68.5 
L 37.796875 68.5 
Q 32.90625 68.5 30.6875 66.578125 
Q 28.46875 64.65625 27.390625 59.515625 
L 26.421875 54.6875 
L 41.21875 54.6875 
L 39.890625 47.703125 
L 25.09375 47.703125 
L 15.828125 0 
L 6.78125 0 
L 16.109375 47.703125 
L 7.515625 47.703125 
L 8.796875 54.6875 
L 17.390625 54.6875 
L 18.109375 58.5 
Q 19.96875 68.171875 24.625 72.078125 
Q 29.296875 75.984375 39.3125 75.984375 
z
" id="DejaVuSans-Oblique-102"/>
       <path d="M 10.59375 49.21875 
L 10.59375 58.109375 
L 73.1875 35.40625 
L 73.1875 27.296875 
L 10.59375 4.59375 
L 10.59375 13.484375 
L 60.890625 31.296875 
z
" id="DejaVuSans-62"/>
       <path d="M 52 44.1875 
Q 55.375 50.25 60.0625 53.125 
Q 64.75 56 71.09375 56 
Q 79.640625 56 84.28125 50.015625 
Q 88.921875 44.046875 88.921875 33.015625 
L 88.921875 0 
L 79.890625 0 
L 79.890625 32.71875 
Q 79.890625 40.578125 77.09375 44.375 
Q 74.3125 48.1875 68.609375 48.1875 
Q 61.625 48.1875 57.5625 43.546875 
Q 53.515625 38.921875 53.515625 30.90625 
L 53.515625 0 
L 44.484375 0 
L 44.484375 32.71875 
Q 44.484375 40.625 41.703125 44.40625 
Q 38.921875 48.1875 33.109375 48.1875 
Q 26.21875 48.1875 22.15625 43.53125 
Q 18.109375 38.875 18.109375 30.90625 
L 18.109375 0 
L 9.078125 0 
L 9.078125 54.6875 
L 18.109375 54.6875 
L 18.109375 46.1875 
Q 21.1875 51.21875 25.484375 53.609375 
Q 29.78125 56 35.6875 56 
Q 41.65625 56 45.828125 52.96875 
Q 50 49.953125 52 44.1875 
z
" id="DejaVuSans-109"/>
       <path d="M 34.28125 27.484375 
Q 23.390625 27.484375 19.1875 25 
Q 14.984375 22.515625 14.984375 16.5 
Q 14.984375 11.71875 18.140625 8.90625 
Q 21.296875 6.109375 26.703125 6.109375 
Q 34.1875 6.109375 38.703125 11.40625 
Q 43.21875 16.703125 43.21875 25.484375 
L 43.21875 27.484375 
z
M 52.203125 31.203125 
L 52.203125 0 
L 43.21875 0 
L 43.21875 8.296875 
Q 40.140625 3.328125 35.546875 0.953125 
Q 30.953125 -1.421875 24.3125 -1.421875 
Q 15.921875 -1.421875 10.953125 3.296875 
Q 6 8.015625 6 15.921875 
Q 6 25.140625 12.171875 29.828125 
Q 18.359375 34.515625 30.609375 34.515625 
L 43.21875 34.515625 
L 43.21875 35.40625 
Q 43.21875 41.609375 39.140625 45 
Q 35.0625 48.390625 27.6875 48.390625 
Q 23 48.390625 18.546875 47.265625 
Q 14.109375 46.140625 10.015625 43.890625 
L 10.015625 52.203125 
Q 14.9375 54.109375 19.578125 55.046875 
Q 24.21875 56 28.609375 56 
Q 40.484375 56 46.34375 49.84375 
Q 52.203125 43.703125 52.203125 31.203125 
z
" id="DejaVuSans-97"/>
       <path d="M 54.890625 54.6875 
L 35.109375 28.078125 
L 55.90625 0 
L 45.3125 0 
L 29.390625 21.484375 
L 13.484375 0 
L 2.875 0 
L 24.125 28.609375 
L 4.6875 54.6875 
L 15.28125 54.6875 
L 29.78125 35.203125 
L 44.28125 54.6875 
z
" id="DejaVuSans-120"/>
      </defs>
      <use transform="translate(0 0.015625)" xlink:href="#DejaVuSans-Oblique-102"/>
      <use transform="translate(54.6875 0.015625)" xlink:href="#DejaVuSans-62"/>
      <use transform="translate(157.958984 0.015625)" xlink:href="#DejaVuSans-Oblique-102"/>
      <use transform="translate(193.164062 -16.390625)scale(0.7)" xlink:href="#DejaVuSans-109"/>
      <use transform="translate(261.352539 -16.390625)scale(0.7)" xlink:href="#DejaVuSans-97"/>
      <use transform="translate(304.248047 -16.390625)scale(0.7)" xlink:href="#DejaVuSans-120"/>
     </g>
    </g>
    <g id="line2d_20">
     <path d="M 227.051732 61.168392 
L 249.051732 61.168392 
" style="fill:none;stroke:#d69e70;stroke-dasharray:5.55,2.4;stroke-dashoffset:0;stroke-width:1.5;"/>
    </g>
    <g id="line2d_21"/>
    <g id="text_4">
     <!-- $f&lt;f_{\max}$ -->
     <g transform="translate(257.851732 65.018392)scale(0.11 -0.11)">
      <defs>
       <path d="M 73.1875 49.21875 
L 22.796875 31.296875 
L 73.1875 13.484375 
L 73.1875 4.59375 
L 10.59375 27.296875 
L 10.59375 35.40625 
L 73.1875 58.109375 
z
" id="DejaVuSans-60"/>
      </defs>
      <use transform="translate(0 0.015625)" xlink:href="#DejaVuSans-Oblique-102"/>
      <use transform="translate(54.6875 0.015625)" xlink:href="#DejaVuSans-60"/>
      <use transform="translate(157.958984 0.015625)" xlink:href="#DejaVuSans-Oblique-102"/>
      <use transform="translate(193.164062 -16.390625)scale(0.7)" xlink:href="#DejaVuSans-109"/>
      <use transform="translate(261.352539 -16.390625)scale(0.7)" xlink:href="#DejaVuSans-97"/>
      <use transform="translate(304.248047 -16.390625)scale(0.7)" xlink:href="#DejaVuSans-120"/>
     </g>
    </g>
   </g>
  </g>
 </g>
 <defs>
  <clipPath id="p65ce74c771">
   <rect height="192.614173" width="263.622047" x="42.519685" y="30.614173"/>
  </clipPath>
 </defs>
</svg>
