<?xml version="1.0" encoding="UTF-8" standalone="no"?>
<svg
   xmlns:dc="http://purl.org/dc/elements/1.1/"
   xmlns:cc="http://creativecommons.org/ns#"
   xmlns:rdf="http://www.w3.org/1999/02/22-rdf-syntax-ns#"
   xmlns:svg="http://www.w3.org/2000/svg"
   xmlns="http://www.w3.org/2000/svg"
   xmlns:sodipodi="http://sodipodi.sourceforge.net/DTD/sodipodi-0.dtd"
   xmlns:inkscape="http://www.inkscape.org/namespaces/inkscape"
   sodipodi:docname="piezo_current_amp.svg"
   inkscape:version="1.0 (4035a4fb49, 2020-05-01)"
   id="svg3598"
   version="1.1"
   viewBox="0 0 73.780907 43.049828"
   height="43.049828mm"
   width="73.780907mm">
  <defs
     id="defs3592" />
  <sodipodi:namedview
     inkscape:window-maximized="1"
     inkscape:window-y="-8"
     inkscape:window-x="-8"
     inkscape:window-height="1377"
     inkscape:window-width="2560"
     fit-margin-bottom="0"
     fit-margin-right="0"
     fit-margin-left="0"
     fit-margin-top="0"
     showgrid="false"
     inkscape:document-rotation="0"
     inkscape:current-layer="layer1"
     inkscape:document-units="mm"
     inkscape:cy="415.63972"
     inkscape:cx="19.42848"
     inkscape:zoom="0.35"
     inkscape:pageshadow="2"
     inkscape:pageopacity="0.0"
     borderopacity="1.0"
     bordercolor="#666666"
     pagecolor="#ffffff"
     id="base" />
  <metadata
     id="metadata3595">
    <rdf:RDF>
      <cc:Work
         rdf:about="">
        <dc:format>image/svg+xml</dc:format>
        <dc:type
           rdf:resource="http://purl.org/dc/dcmitype/StillImage" />
        <dc:title></dc:title>
      </cc:Work>
    </rdf:RDF>
  </metadata>
  <g
     transform="translate(-100.69288,-38.195324)"
     id="layer1"
     inkscape:groupmode="layer"
     inkscape:label="Layer 1">
    <g
       id="g3372"
       transform="translate(70.07962,-99.893256)">
      <text
         y="167.17987"
         x="30.429895"
         id="text1417"
         style="font-style:italic;font-variant:normal;font-size:2.82356px;font-family:WarnockPro;-inkscape-font-specification:WarnockPro-It;writing-mode:lr-tb;fill:#000000;fill-opacity:1;fill-rule:nonzero;stroke:none;stroke-width:0.352778"><tspan
           style="stroke-width:0.352778"
           id="tspan1415"
           y="167.17987"
           x="30.429895">Q</tspan></text>
      <text
         y="167.17987"
         x="33.075573"
         id="text1421"
         style="font-variant:normal;font-weight:normal;font-size:2.82356px;font-family:WarnockPro;-inkscape-font-specification:WarnockPro-Regular;writing-mode:lr-tb;fill:#000000;fill-opacity:1;fill-rule:nonzero;stroke:none;stroke-width:0.352778"><tspan
           style="stroke-width:0.352778"
           id="tspan1419"
           y="167.17987"
           x="33.075573">=</tspan></text>
      <text
         y="167.17987"
         x="35.164879"
         id="text1425"
         style="font-style:italic;font-variant:normal;font-size:2.82222px;font-family:WarnockPro;-inkscape-font-specification:WarnockPro-It;writing-mode:lr-tb;fill:#000000;fill-opacity:1;fill-rule:nonzero;stroke:none;stroke-width:0.352778"><tspan
           style="stroke-width:0.352778"
           id="tspan1423"
           y="167.17987"
           x="35.164879">d</tspan></text>
      <text
         y="167.88577"
         x="36.700169"
         id="text1429"
         style="font-variant:normal;font-weight:normal;font-size:2.11769px;font-family:WarnockPro;-inkscape-font-specification:WarnockPro-Regular;writing-mode:lr-tb;fill:#000000;fill-opacity:1;fill-rule:nonzero;stroke:none;stroke-width:0.352778"><tspan
           style="stroke-width:0.352778"
           id="tspan1427"
           sodipodi:role="line"
           y="167.88577"
           x="36.700169 37.763248 38.826328">33</tspan></text>
      <text
         y="167.17987"
         x="39.324127"
         id="text1433"
         style="font-style:italic;font-variant:normal;font-size:2.82356px;font-family:WarnockPro;-inkscape-font-specification:WarnockPro-It;writing-mode:lr-tb;fill:#000000;fill-opacity:1;fill-rule:nonzero;stroke:none;stroke-width:0.352778"><tspan
           style="stroke-width:0.352778"
           id="tspan1431"
           y="167.17987"
           x="39.324127">F</tspan></text>
      <text
         y="172.89204"
         x="101.89738"
         id="text1439"
         style="font-style:italic;font-variant:normal;font-size:2.82222px;font-family:WarnockPro;-inkscape-font-specification:WarnockPro-It;writing-mode:lr-tb;fill:#000000;fill-opacity:1;fill-rule:nonzero;stroke:none;stroke-width:0.352778"><tspan
           style="stroke-width:0.352778"
           id="tspan1435"
           y="172.89204"
           x="101.89738">V</tspan><tspan
           style="stroke-width:0.352778"
           id="tspan1437"
           y="170.96165"
           x="53.68536">R</tspan></text>
      <text
         y="170.96165"
         x="62.801136"
         id="text1443"
         style="font-style:italic;font-variant:normal;font-size:2.82222px;font-family:WarnockPro;-inkscape-font-specification:WarnockPro-It;writing-mode:lr-tb;fill:#000000;fill-opacity:1;fill-rule:nonzero;stroke:none;stroke-width:0.352778"><tspan
           style="stroke-width:0.352778"
           id="tspan1441"
           y="170.96165"
           x="62.801136">C</tspan></text>
      <text
         y="152.85709"
         x="76.445526"
         id="text1447"
         style="font-style:italic;font-variant:normal;font-size:2.82356px;font-family:WarnockPro;-inkscape-font-specification:WarnockPro-It;writing-mode:lr-tb;fill:#000000;fill-opacity:1;fill-rule:nonzero;stroke:none;stroke-width:0.352778"><tspan
           style="stroke-width:0.352778"
           id="tspan1445"
           y="152.85709"
           x="76.445526">C</tspan></text>
      <text
         y="153.56265"
         x="78.611229"
         id="text1451"
         style="font-variant:normal;font-weight:normal;font-size:2.11667px;font-family:WarnockPro;-inkscape-font-specification:WarnockPro-Regular;writing-mode:lr-tb;fill:#000000;fill-opacity:1;fill-rule:nonzero;stroke:none;stroke-width:0.352778"><tspan
           style="stroke-width:0.352778"
           id="tspan1449"
           y="153.56265"
           x="78.611229">f</tspan></text>
      <text
         y="144.00626"
         x="76.462807"
         id="text1455"
         style="font-style:italic;font-variant:normal;font-size:2.82356px;font-family:WarnockPro;-inkscape-font-specification:WarnockPro-It;writing-mode:lr-tb;fill:#000000;fill-opacity:1;fill-rule:nonzero;stroke:none;stroke-width:0.352778"><tspan
           style="stroke-width:0.352778"
           id="tspan1453"
           y="144.00626"
           x="76.462807">R</tspan></text>
      <text
         y="144.71181"
         x="78.444717"
         id="text1459"
         style="font-variant:normal;font-weight:normal;font-size:2.11667px;font-family:WarnockPro;-inkscape-font-specification:WarnockPro-Regular;writing-mode:lr-tb;fill:#000000;fill-opacity:1;fill-rule:nonzero;stroke:none;stroke-width:0.352778"><tspan
           style="stroke-width:0.352778"
           id="tspan1457"
           y="144.71181"
           x="78.444717">f</tspan></text>
      <g
         transform="matrix(0.35277777,0,0,-0.35277777,-21.488054,206.89136)"
         id="g1461">
        <path
           id="path1463"
           style="fill:none;stroke:#000000;stroke-width:0.583;stroke-linecap:butt;stroke-linejoin:miter;stroke-miterlimit:10;stroke-dasharray:none;stroke-opacity:1"
           d="M 284.339,75.239 H 181.793 v 58.049 h 102.546 z m 0,0 h 68.117" />
      </g>
      <g
         transform="matrix(0.35277777,0,0,-0.35277777,52.073874,159.87032)"
         id="g1465">
        <path
           id="path1467"
           style="fill:#000000;fill-opacity:1;fill-rule:nonzero;stroke:none"
           d="m 0,0 c 0,-0.975 -0.79,-1.765 -1.766,-1.765 -0.974,0 -1.765,0.79 -1.765,1.765 0,0.975 0.791,1.766 1.765,1.766 C -0.79,1.766 0,0.975 0,0" />
      </g>
      <g
         transform="matrix(0.35277777,0,0,-0.35277777,60.920126,159.87032)"
         id="g1469">
        <path
           id="path1471"
           style="fill:#000000;fill-opacity:1;fill-rule:nonzero;stroke:none"
           d="m 0,0 c 0,-0.975 -0.79,-1.765 -1.766,-1.765 -0.974,0 -1.764,0.79 -1.764,1.765 0,0.975 0.79,1.766 1.764,1.766 C -0.79,1.766 0,0.975 0,0" />
      </g>
      <g
         transform="matrix(0.35277777,0,0,-0.35277777,68.521076,159.87032)"
         id="g1473">
        <path
           id="path1475"
           style="fill:#000000;fill-opacity:1;fill-rule:nonzero;stroke:none"
           d="m 0,0 c 0,-0.975 -0.789,-1.765 -1.765,-1.765 -0.974,0 -1.764,0.79 -1.764,1.765 0,0.975 0.79,1.766 1.764,1.766 C -0.789,1.766 0,0.975 0,0" />
      </g>
      <g
         transform="matrix(0.35277777,0,0,-0.35277777,68.470276,148.16974)"
         id="g1477">
        <path
           id="path1479"
           style="fill:#000000;fill-opacity:1;fill-rule:nonzero;stroke:none"
           d="m 0,0 c 0,-0.975 -0.789,-1.765 -1.765,-1.765 -0.975,0 -1.765,0.79 -1.765,1.765 0,0.975 0.79,1.766 1.765,1.766 C -0.789,1.766 0,0.975 0,0" />
      </g>
      <g
         transform="matrix(0.35277777,0,0,-0.35277777,88.297798,148.32037)"
         id="g1481">
        <path
           id="path1483"
           style="fill:#000000;fill-opacity:1;fill-rule:nonzero;stroke:none"
           d="m 0,0 c 0,-0.975 -0.791,-1.765 -1.766,-1.765 -0.974,0 -1.765,0.79 -1.765,1.765 0,0.975 0.791,1.766 1.765,1.766 C -0.791,1.766 0,0.975 0,0" />
      </g>
      <g
         transform="matrix(0.35277777,0,0,-0.35277777,88.297798,162.79661)"
         id="g1485">
        <path
           id="path1487"
           style="fill:#000000;fill-opacity:1;fill-rule:nonzero;stroke:none"
           d="m 0,0 c 0,-0.976 -0.791,-1.767 -1.766,-1.767 -0.974,0 -1.765,0.791 -1.765,1.767 0,0.976 0.791,1.765 1.765,1.765 C -0.791,1.765 0,0.976 0,0" />
      </g>
      <g
         transform="matrix(0.35277777,0,0,-0.35277777,102.36481,162.17396)"
         id="g1489">
        <path
           id="path1491"
           style="fill:#000000;fill-opacity:1;fill-rule:nonzero;stroke:none"
           d="m 0,0 c -0.974,0 -1.765,-0.789 -1.765,-1.766 0,-0.974 0.791,-1.765 1.765,-1.765 0.974,0 1.765,0.791 1.765,1.765 C 1.765,-0.789 0.974,0 0,0 m 0,-0.584 c 0.652,0 1.182,-0.529 1.182,-1.182 0,-0.651 -0.53,-1.182 -1.182,-1.182 -0.652,0 -1.182,0.531 -1.182,1.182 0,0.653 0.53,1.182 1.182,1.182" />
      </g>
      <g
         transform="matrix(0.35277777,0,0,-0.35277777,103.47289,179.72606)"
         id="g1493">
        <path
           id="path1495"
           style="fill:#000000;fill-opacity:1;fill-rule:nonzero;stroke:none"
           d="m 0,0 c -0.973,0 -1.764,-0.79 -1.764,-1.765 0,-0.976 0.791,-1.766 1.764,-1.766 0.975,0 1.766,0.79 1.766,1.766 C 1.766,-0.79 0.975,0 0,0 m 0,-0.583 c 0.653,0 1.183,-0.53 1.183,-1.182 0,-0.652 -0.53,-1.183 -1.183,-1.183 -0.651,0 -1.181,0.531 -1.181,1.183 0,0.652 0.53,1.182 1.181,1.182" />
      </g>
      <g
         transform="matrix(0.35277777,0,0,-0.35277777,79.547498,180.25805)"
         id="g1497">
        <path
           id="path1499"
           style="fill:#000000;fill-opacity:1;fill-rule:nonzero;stroke:none"
           d="m 0,0 c 0,-0.974 -0.791,-1.763 -1.767,-1.763 -0.972,0 -1.763,0.789 -1.763,1.763 0,0.976 0.791,1.767 1.763,1.767 C -0.791,1.767 0,0.976 0,0" />
      </g>
      <g
         transform="matrix(0.35277777,0,0,-0.35277777,52.073874,180.25805)"
         id="g1501">
        <path
           id="path1503"
           style="fill:#000000;fill-opacity:1;fill-rule:nonzero;stroke:none"
           d="m 0,0 c 0,-0.975 -0.79,-1.764 -1.766,-1.764 -0.974,0 -1.765,0.789 -1.765,1.764 0,0.976 0.791,1.767 1.765,1.767 C -0.79,1.767 0,0.976 0,0" />
      </g>
      <g
         transform="matrix(0.35277777,0,0,-0.35277777,60.920126,180.25805)"
         id="g1505">
        <path
           id="path1507"
           style="fill:#000000;fill-opacity:1;fill-rule:nonzero;stroke:none"
           d="m 0,0 c 0,-0.975 -0.79,-1.764 -1.766,-1.764 -0.974,0 -1.764,0.789 -1.764,1.764 0,0.976 0.79,1.767 1.764,1.767 C -0.79,1.767 0,0.976 0,0" />
      </g>
      <g
         transform="matrix(0.35277777,0,0,-0.35277777,69.542015,180.25805)"
         id="g1509">
        <path
           id="path1511"
           style="fill:#000000;fill-opacity:1;fill-rule:nonzero;stroke:none"
           d="m 0,0 c 0,-0.975 -0.79,-1.764 -1.766,-1.764 -0.974,0 -1.765,0.789 -1.765,1.764 0,0.976 0.791,1.767 1.765,1.767 C -0.79,1.767 0,0.976 0,0" />
      </g>
      <g
         transform="matrix(0.35277777,0,0,-0.35277777,51.451222,180.25805)"
         id="g1513">
        <path
           id="path1515"
           style="fill:none;stroke:#000000;stroke-width:0.583;stroke-linecap:round;stroke-linejoin:round;stroke-miterlimit:10;stroke-dasharray:none;stroke-opacity:1"
           d="m 0,0 v 15.757 l -4.02,2.313 8.125,4.259 -8.238,4.628 7.561,4.627 -7.702,4.543 L 3.484,41.29 0,42.974 v 14.818" />
      </g>
      <g
         transform="matrix(0.35277777,0,0,-0.35277777,60.297473,159.87032)"
         id="g1517">
        <path
           id="path1519"
           style="fill:none;stroke:#000000;stroke-width:0.583;stroke-linecap:round;stroke-linejoin:round;stroke-miterlimit:10;stroke-dasharray:none;stroke-opacity:1"
           d="M 0,0 V -27.311" />
      </g>
      <g
         transform="matrix(0.35277777,0,0,-0.35277777,60.297473,170.60464)"
         id="g1521">
        <path
           id="path1523"
           style="fill:none;stroke:#000000;stroke-width:0.583;stroke-linecap:round;stroke-linejoin:round;stroke-miterlimit:10;stroke-dasharray:none;stroke-opacity:1"
           d="M 0,0 V -27.621" />
      </g>
      <g
         transform="matrix(0.35277777,0,0,-0.35277777,58.732904,169.50503)"
         id="g1525">
        <path
           id="path1527"
           style="fill:none;stroke:#000000;stroke-width:0.583;stroke-linecap:round;stroke-linejoin:round;stroke-miterlimit:10;stroke-dasharray:none;stroke-opacity:1"
           d="M 0,0 H 9.048" />
      </g>
      <g
         transform="matrix(0.35277777,0,0,-0.35277777,58.732904,170.60464)"
         id="g1529">
        <path
           id="path1531"
           style="fill:none;stroke:#000000;stroke-width:0.583;stroke-linecap:round;stroke-linejoin:round;stroke-miterlimit:10;stroke-dasharray:none;stroke-opacity:1"
           d="M 0,0 H 9.048" />
      </g>
      <g
         transform="matrix(0.35277777,0,0,-0.35277777,78.659913,146.63304)"
         id="g1533">
        <path
           id="path1535"
           style="fill:none;stroke:#000000;stroke-width:0.583;stroke-linecap:round;stroke-linejoin:round;stroke-miterlimit:10;stroke-dasharray:none;stroke-opacity:1"
           d="M 0,0 V -9.047" />
      </g>
      <g
         transform="matrix(0.35277777,0,0,-0.35277777,77.559945,146.63304)"
         id="g1537">
        <path
           id="path1539"
           style="fill:none;stroke:#000000;stroke-width:0.583;stroke-linecap:round;stroke-linejoin:round;stroke-miterlimit:10;stroke-dasharray:none;stroke-opacity:1"
           d="M 0,0 V -9.047" />
      </g>
      <g
         transform="matrix(0.35277777,0,0,-0.35277777,68.851629,180.34871)"
         id="g1541">
        <path
           id="path1543"
           style="fill:none;stroke:#000000;stroke-width:0.583;stroke-linecap:round;stroke-linejoin:round;stroke-miterlimit:10;stroke-dasharray:none;stroke-opacity:1"
           d="M 0,0 V 40.179 H 12.647" />
      </g>
      <g
         transform="matrix(0.35277777,0,0,-0.35277777,73.313209,154.90497)"
         id="g1545">
        <path
           id="path1547"
           style="fill:#ffffff;fill-opacity:1;fill-rule:nonzero;stroke:none"
           d="m 0,0 v -44.741 l 37.924,22.364" />
      </g>
      <g
         transform="matrix(0.35277777,0,0,-0.35277777,73.313209,154.90497)"
         id="g1549">
        <path
           id="path1551"
           style="fill:none;stroke:#000000;stroke-width:0.583;stroke-linecap:round;stroke-linejoin:round;stroke-miterlimit:10;stroke-dasharray:none;stroke-opacity:1"
           d="m 0,0 v -44.741 l 37.924,22.364 z" />
      </g>
      <text
         y="166.95656"
         x="73.88118"
         id="text1557"
         style="font-variant:normal;font-weight:normal;font-size:2.82356px;font-family:WarnockPro;-inkscape-font-specification:WarnockPro-Regular;writing-mode:lr-tb;fill:#000000;fill-opacity:1;fill-rule:nonzero;stroke:none;stroke-width:0.352778"><tspan
           style="stroke-width:0.352778"
           id="tspan1553"
           y="166.95656"
           x="73.88118">+</tspan><tspan
           style="stroke-width:0.352778"
           id="tspan1555"
           y="160.18848"
           x="73.88118">–</tspan></text>
      <g
         transform="matrix(0.35277777,0,0,-0.35277777,78.659913,148.11858)"
         id="g1559">
        <path
           id="path1561"
           style="fill:none;stroke:#000000;stroke-width:0.583;stroke-linecap:butt;stroke-linejoin:miter;stroke-miterlimit:10;stroke-dasharray:none;stroke-opacity:1"
           d="M 0,0 H 25.732 V -41.607" />
      </g>
      <g
         transform="matrix(0.35277777,0,0,-0.35277777,67.776715,159.87032)"
         id="g1563">
        <path
           id="path1565"
           style="fill:none;stroke:#000000;stroke-width:0.583;stroke-linecap:butt;stroke-linejoin:miter;stroke-miterlimit:10;stroke-dasharray:none;stroke-opacity:1"
           d="M 0,0 V 33.312 H 27.732" />
      </g>
      <g
         transform="matrix(0.35277777,0,0,-0.35277777,86.691953,162.79908)"
         id="g1567">
        <path
           id="path1569"
           style="fill:none;stroke:#000000;stroke-width:0.583;stroke-linecap:butt;stroke-linejoin:miter;stroke-miterlimit:10;stroke-dasharray:none;stroke-opacity:1"
           d="M 0,0 H 43.102" />
      </g>
      <g
         transform="matrix(0.35277777,0,0,-0.35277777,87.747814,139.89428)"
         id="g1571">
        <path
           id="path1573"
           style="fill:none;stroke:#000000;stroke-width:0.583;stroke-linecap:butt;stroke-linejoin:miter;stroke-miterlimit:10;stroke-dasharray:4.667, 4.667;stroke-dashoffset:0;stroke-opacity:1"
           d="m 0,0 -0.029,-23.313 m -56.597,0 0.03,23.313 m 42.584,0 H 0 m -56.596,0 h 14.22" />
      </g>
      <g
         transform="matrix(0.35277777,0,0,-0.35277777,81.234481,140.20648)"
         id="g1575">
        <path
           id="path1577"
           style="fill:none;stroke:#000000;stroke-width:0.583;stroke-linecap:round;stroke-linejoin:round;stroke-miterlimit:10;stroke-dasharray:none;stroke-opacity:1"
           d="M 0,0 1.471,-2.844 3.06,0.24 c 0.487,0.711 0.845,0.646 1.975,0.646" />
      </g>
      <g
         transform="matrix(0.35277777,0,0,-0.35277777,80.369827,138.53467)"
         id="g1579">
        <path
           id="path1581"
           style="fill:none;stroke:#000000;stroke-width:0.583;stroke-linecap:round;stroke-linejoin:round;stroke-miterlimit:10;stroke-dasharray:none;stroke-opacity:1"
           d="M 0,0 1.394,-2.695" />
      </g>
      <g
         transform="matrix(0.35277777,0,0,-0.35277777,79.727418,139.15979)"
         id="g1583">
        <path
           id="path1585"
           style="fill:none;stroke:#000000;stroke-width:0.583;stroke-linecap:round;stroke-linejoin:round;stroke-miterlimit:10;stroke-dasharray:none;stroke-opacity:1"
           d="M 0,0 1.319,2.745" />
      </g>
      <g
         transform="matrix(0.35277777,0,0,-0.35277777,78.911792,140.857)"
         id="g1587">
        <path
           id="path1589"
           style="fill:none;stroke:#000000;stroke-width:0.583;stroke-linecap:round;stroke-linejoin:round;stroke-miterlimit:10;stroke-dasharray:none;stroke-opacity:1"
           d="M 0,0 1.282,2.669" />
      </g>
      <g
         transform="matrix(0.35277777,0,0,-0.35277777,78.151909,140.42168)"
         id="g1591">
        <path
           id="path1593"
           style="fill:none;stroke:#000000;stroke-width:0.583;stroke-linecap:round;stroke-linejoin:round;stroke-miterlimit:10;stroke-dasharray:none;stroke-opacity:1"
           d="M 0,0 1.44,-2.72" />
      </g>
      <g
         transform="matrix(0.35277777,0,0,-0.35277777,77.250562,138.71988)"
         id="g1595">
        <path
           id="path1597"
           style="fill:none;stroke:#000000;stroke-width:0.583;stroke-linecap:round;stroke-linejoin:round;stroke-miterlimit:10;stroke-dasharray:none;stroke-opacity:1"
           d="M 0,0 1.476,-2.787" />
      </g>
      <g
         transform="matrix(0.35277777,0,0,-0.35277777,76.586638,139.30231)"
         id="g1599">
        <path
           id="path1601"
           style="fill:none;stroke:#000000;stroke-width:0.583;stroke-linecap:round;stroke-linejoin:round;stroke-miterlimit:10;stroke-dasharray:none;stroke-opacity:1"
           d="M 0,0 1.449,2.469" />
      </g>
      <g
         transform="matrix(0.35277777,0,0,-0.35277777,74.871076,140.44602)"
         id="g1603">
        <path
           id="path1605"
           style="fill:none;stroke:#000000;stroke-width:0.583;stroke-linecap:round;stroke-linejoin:round;stroke-miterlimit:10;stroke-dasharray:none;stroke-opacity:1"
           d="m 0,0 1.521,-2.457 0.657,1.121 1.55,2.641" />
      </g>
      <g
         transform="matrix(0.35277777,0,0,-0.35277777,73.881181,138.84299)"
         id="g1607">
        <path
           id="path1609"
           style="fill:none;stroke:#000000;stroke-width:0.583;stroke-linecap:round;stroke-linejoin:round;stroke-miterlimit:10;stroke-dasharray:none;stroke-opacity:1"
           d="M 0,0 1.535,-2.484" />
      </g>
      <g
         transform="matrix(0.35277777,0,0,-0.35277777,73.080027,139.7193)"
         id="g1611">
        <path
           id="path1613"
           style="fill:none;stroke:#000000;stroke-width:0.583;stroke-linecap:round;stroke-linejoin:round;stroke-miterlimit:10;stroke-dasharray:none;stroke-opacity:1"
           d="M 0,0 1.155,2.417" />
      </g>
      <g
         transform="matrix(0.35277777,0,0,-0.35277777,44.911424,170.21623)"
         id="g1615">
        <path
           id="path1617"
           style="fill:#ffffff;fill-opacity:1;fill-rule:nonzero;stroke:none"
           d="m 0,0 c 0,-3.532 -2.878,-6.395 -6.427,-6.395 -3.55,0 -6.427,2.863 -6.427,6.395 0,3.53 2.877,6.394 6.427,6.394 C -2.878,6.394 0,3.53 0,0" />
      </g>
      <g
         transform="matrix(0.35277777,0,0,-0.35277777,44.911424,170.21623)"
         id="g1619">
        <path
           id="path1621"
           style="fill:none;stroke:#000000;stroke-width:0.583;stroke-linecap:butt;stroke-linejoin:miter;stroke-miterlimit:10;stroke-dasharray:none;stroke-opacity:1"
           d="m 0,0 c 0,-3.532 -2.878,-6.395 -6.427,-6.395 -3.55,0 -6.427,2.863 -6.427,6.395 0,3.53 2.877,6.394 6.427,6.394 C -2.878,6.394 0,3.53 0,0 Z" />
      </g>
      <g
         transform="matrix(0.35277777,0,0,-0.35277777,103.11482,162.79696)"
         id="g1623">
        <path
           id="path1625"
           style="fill:#fcfcfc;fill-opacity:1;fill-rule:nonzero;stroke:none"
           d="m 0,0 c 0,-1.073 -0.869,-1.944 -1.946,-1.944 -1.075,0 -1.945,0.871 -1.945,1.944 0,1.075 0.87,1.946 1.945,1.946 C -0.869,1.946 0,1.075 0,0" />
      </g>
      <g
         transform="matrix(0.35277777,0,0,-0.35277777,103.11482,162.79696)"
         id="g1627">
        <path
           id="path1629"
           style="fill:none;stroke:#000000;stroke-width:0.583;stroke-linecap:butt;stroke-linejoin:miter;stroke-miterlimit:10;stroke-dasharray:none;stroke-opacity:1"
           d="m 0,0 c 0,-1.073 -0.869,-1.944 -1.946,-1.944 -1.075,0 -1.945,0.871 -1.945,1.944 0,1.075 0.87,1.946 1.945,1.946 C -0.869,1.946 0,1.075 0,0 Z" />
      </g>
      <g
         transform="matrix(0.35277777,0,0,-0.35277777,104.29133,180.34942)"
         id="g1631">
        <path
           id="path1633"
           style="fill:#fcfcfc;fill-opacity:1;fill-rule:nonzero;stroke:none"
           d="m 0,0 c 0,-1.074 -0.87,-1.945 -1.946,-1.945 -1.075,0 -1.944,0.871 -1.944,1.945 0,1.075 0.869,1.946 1.944,1.946 C -0.87,1.946 0,1.075 0,0" />
      </g>
      <g
         transform="matrix(0.35277777,0,0,-0.35277777,104.29133,180.34942)"
         id="g1635">
        <path
           id="path1637"
           style="fill:none;stroke:#000000;stroke-width:0.583;stroke-linecap:butt;stroke-linejoin:miter;stroke-miterlimit:10;stroke-dasharray:none;stroke-opacity:1"
           d="m 0,0 c 0,-1.074 -0.87,-1.945 -1.946,-1.945 -1.075,0 -1.944,0.871 -1.944,1.945 0,1.075 0.869,1.946 1.944,1.946 C -0.87,1.946 0,1.075 0,0 Z" />
      </g>
    </g>
  </g>
</svg>
