<?xml version="1.0" encoding="UTF-8" standalone="no"?>
<svg
   xmlns:dc="http://purl.org/dc/elements/1.1/"
   xmlns:cc="http://creativecommons.org/ns#"
   xmlns:rdf="http://www.w3.org/1999/02/22-rdf-syntax-ns#"
   xmlns:svg="http://www.w3.org/2000/svg"
   xmlns="http://www.w3.org/2000/svg"
   xmlns:sodipodi="http://sodipodi.sourceforge.net/DTD/sodipodi-0.dtd"
   xmlns:inkscape="http://www.inkscape.org/namespaces/inkscape"
   sodipodi:docname="impulse_hammer_scheme.svg"
   inkscape:version="1.0 (4035a4fb49, 2020-05-01)"
   id="svg8"
   version="1.1"
   viewBox="0 0 24.000001 34.836994"
   height="34.836994mm"
   width="24mm">
  <defs
     id="defs2">
    <clipPath
       id="clipPath863"
       clipPathUnits="userSpaceOnUse">
      <path
         id="path861"
         clip-rule="evenodd"
         d="M 404.79999,0.32 H 716.64001 V 792.64001 H 404.79999 Z" />
    </clipPath>
    <clipPath
       id="clipPath873"
       clipPathUnits="userSpaceOnUse">
      <path
         id="path871"
         clip-rule="evenodd"
         d="M 404.79999,0.32 V 792.64001 H 716.64001 V 0.32 Z" />
    </clipPath>
    <clipPath
       id="clipPath1738"
       clipPathUnits="userSpaceOnUse">
      <path
         id="path1736"
         clip-rule="evenodd"
         d="M 404.79999,0.32 H 716.64001 V 792.64001 H 404.79999 Z" />
    </clipPath>
    <clipPath
       id="clipPath1748"
       clipPathUnits="userSpaceOnUse">
      <path
         id="path1746"
         clip-rule="evenodd"
         d="M 404.79999,0.32 V 792.64001 H 716.64001 V 0.32 Z" />
    </clipPath>
  </defs>
  <sodipodi:namedview
     inkscape:window-maximized="0"
     inkscape:window-y="0"
     inkscape:window-x="0"
     inkscape:window-height="1334"
     inkscape:window-width="1896"
     fit-margin-bottom="0"
     fit-margin-right="0"
     fit-margin-left="0"
     fit-margin-top="0"
     showgrid="false"
     inkscape:document-rotation="0"
     inkscape:current-layer="layer1"
     inkscape:document-units="mm"
     inkscape:cy="103.05024"
     inkscape:cx="169.29029"
     inkscape:zoom="2.49"
     inkscape:pageshadow="2"
     inkscape:pageopacity="0.0"
     borderopacity="1.0"
     bordercolor="#666666"
     pagecolor="#ffffff"
     id="base" />
  <metadata
     id="metadata5">
    <rdf:RDF>
      <cc:Work
         rdf:about="">
        <dc:format>image/svg+xml</dc:format>
        <dc:type
           rdf:resource="http://purl.org/dc/dcmitype/StillImage" />
        <dc:title></dc:title>
      </cc:Work>
    </rdf:RDF>
  </metadata>
  <g
     transform="translate(-95.968966,-102.16462)"
     id="layer1"
     inkscape:groupmode="layer"
     inkscape:label="Ebene 1">
    <g
       transform="matrix(0.69364192,0,0,0.69364192,29.40087,31.298955)"
       id="g850">
      <g
         id="g2164"
         style="stroke-width:0.423333;stroke-miterlimit:4;stroke-dasharray:none">
        <g
           id="g901"
           transform="matrix(0.35277777,0,0,-0.35277777,93.011768,157.65547)"
           style="stroke-width:1.2;stroke-miterlimit:4;stroke-dasharray:none">
          <path
             d="M 74.9968,15.5316 V 43.878 72.2245 m -18.1418,0 V 43.878 15.5316 m 18.1418,56.6929 h -0.0202 -0.0597 -0.0976 -0.1327 -0.1645 -0.193 -0.2181 -0.2401 -0.2591 -0.2756 -0.2899 -0.3024 -0.3131 -0.3226 -0.3306 -0.3378 -0.6935 -0.7129 -0.3621 -0.3653 -0.368 -0.3704 -0.0929 -0.0931 -0.0931 -0.0933 -0.0934 -0.0934 -0.0936 -0.0937 -0.3754 -0.3765 -0.7551 -0.7561 -0.7552 -0.752 -0.3741 -0.3727 -0.3708 -0.3678 -0.3643 -0.3637 -0.1818 -0.1768 -0.0849 -0.0828 -0.0408 -0.0404 -0.0403 -0.0401 -0.1596 -0.1585 -0.1573 -0.1559 -0.308 -0.3025 -0.2963 -0.2894 -0.2814 -0.2721 -0.2618 -0.25 -0.2365 -0.2213 -0.2039 -0.1842 -0.1621 -0.1373 -0.11 -0.0806 -0.0492 -0.0166 m 0,-56.6929 h 0.0166 0.0492 0.0806 0.11 0.1373 0.1621 0.1842 0.2039 0.2213 0.2365 0.25 0.2618 0.2721 0.2814 0.2894 0.2963 0.3025 0.308 0.1559 0.1573 0.1585 0.1596 0.0401 0.0403 0.0404 0.0408 0.0828 0.0849 0.1768 0.1818 0.3637 0.3643 0.3678 0.3708 0.3727 0.3741 0.752 0.7552 0.7561 0.7551 0.3765 0.3754 0.0937 0.0936 0.0934 0.0934 0.0933 0.0931 0.0931 0.0929 0.3704 0.368 0.3653 0.3621 0.7129 0.6935 0.3378 0.3306 0.3226 0.3131 0.3024 0.2899 0.2756 0.2591 0.2401 0.2181 0.193 0.1645 0.1327 0.0976 0.0597 0.0202 m 0,56.6929 -1.4174,11.3386 -1.4173,11.3386 m -12.4724,0 L 58.2724,83.5631 56.855,72.2245 M 72.1621,94.9017 H 72.1543 72.1309 72.092 72.0378 71.9684 71.8841 71.7854 71.6726 71.546 71.4062 71.2538 71.0894 70.9135 70.7269 70.5304 70.3247 69.8889 69.4265 69.1875 68.9447 68.6989 68.451 68.3889 68.3267 68.2645 68.2022 68.14 h -0.0623 -0.0622 -0.0623 -0.249 -0.249 -0.4981 -0.4979 -0.4973 -0.4972 -0.2489 -0.2491 -0.2496 -0.2502 -0.2503 -0.2474 -0.1225 -0.127 -0.0671 -0.0705 -0.0367 -0.0374 -0.0376 -0.0377 -0.1501 -0.1491 -0.1483 -0.1475 -0.2913 -0.2849 -0.2769 -0.2673 -0.2562 -0.2437 -0.2297 -0.2143 -0.1978 -0.1802 -0.1615 -0.1419 -0.1214 -0.1004 -0.0786 -0.0565 -0.034 -0.0114 m 40.2519,61.7952 h -87.874 m 58.9607,-10.2047 h 28.9133 m -87.874,0 H 60.83 m 10.1983,0 -0.0021,0.001 -0.0059,0.003 -0.0099,0.006 -0.0137,0.008 -0.0176,0.01 -0.0213,0.0117 -0.0251,0.0137 -0.029,0.0156 -0.0078,0.004 -0.0081,0.004 -0.0083,0.004 -0.0085,0.005 -0.0177,0.009 -0.0185,0.01 -0.0395,0.0207 -0.0427,0.0222 -0.0459,0.0236 -0.0492,0.0249 -0.0523,0.0261 -0.0556,0.0272 -0.029,0.014 -0.0297,0.0142 -0.0304,0.0144 -0.0311,0.0146 -0.064,0.0295 -0.0666,0.0299 -0.0691,0.0303 -0.0716,0.0306 -0.0741,0.0307 -0.0768,0.0307 -0.0393,0.0153 -0.0401,0.0153 -0.0407,0.0152 -0.0413,0.0152 -0.0839,0.0298 -0.0858,0.029 -0.0875,0.0281 -0.0894,0.0271 -0.0913,0.026 -0.0932,0.0247 -0.0952,0.0234 -0.0973,0.0218 -0.0494,0.0103 -0.0499,0.01 -0.0252,0.005 -0.0253,0.005 -0.0253,0.004 -0.0254,0.004 -0.1019,0.0161 -0.1025,0.0138 -0.1032,0.0114 -0.1038,0.009 -0.1045,0.006 -0.1052,0.004 -0.0264,6e-4 -0.0264,4e-4 -0.0265,3e-4 -0.0265,2e-4 h -0.0265 -0.0266 -0.0265 -0.0266 -0.2123 -0.2124 -0.8494 -0.8494 l -0.8494,-1e-4 -0.8495,1e-4 h -0.2123 -0.2124 -0.053 -0.0531 -0.0531 l -0.0531,-2e-4 -0.1061,-0.002 -0.1059,-0.005 -0.1058,-0.007 -0.1057,-0.01 -0.0264,-0.003 -0.0263,-0.003 -0.0263,-0.003 -0.0261,-0.003 -0.0519,-0.007 -0.0515,-0.008 -0.1017,-0.0167 -0.1,-0.0189 -0.0984,-0.0206 -0.0967,-0.0224 -0.0953,-0.024 -0.0936,-0.0255 -0.0463,-0.0133 -0.0459,-0.0136 -0.0228,-0.007 -0.0227,-0.007 -0.0225,-0.007 -0.0224,-0.007 -0.088,-0.0289 -0.0855,-0.0295 -0.0831,-0.03 -0.0808,-0.0304 -0.0784,-0.0307 -0.076,-0.0309 -0.0738,-0.0309 -0.0715,-0.0309 -0.0176,-0.008 -0.0173,-0.008 -0.0172,-0.008 -0.017,-0.008 -0.0334,-0.0151 -0.0326,-0.015 -0.063,-0.0293 -0.0601,-0.0285 -0.111,-0.0543 -0.0989,-0.0501 -0.0449,-0.0232 -0.0418,-0.0218 -0.0099,-0.005 -0.0097,-0.005 -0.0095,-0.005 -0.0092,-0.005 -0.0178,-0.01 -0.0168,-0.009 -0.0578,-0.0313 -0.0427,-0.0234 -0.0158,-0.009 -0.0119,-0.006 -0.0045,-0.002 -0.0035,-0.002 -0.0013,-7e-4 -0.0012,-6e-4 -8e-4,-5e-4 -6e-4,-3e-4 -5e-4,-3e-4 m 39.1181,10.2047 v -0.3077 -0.886 -1.3574 -1.6652 -1.772 -1.6652 -1.3575 -0.886 -0.3077 m -87.874,10.2047 v -0.3077 -0.886 -1.3574 -1.6652 -1.772 -1.6652 -1.3575 -0.886 -0.3077 M 71.0283,94.9005 v 1.6544 1.6544 1.5408 1.5408 1.4273 1.4273 1.3136 1.3137 1.2001 1.2002 1.0865 1.0865 0.7741 0.774 0.7039 0.704 0.6338 0.6338 0.5637 0.5637 0.5028 0.5029 0.5448 0.5449 0.7952 0.7952 0.9093 0.9093 1.0233 1.0233 1.1374 1.1374 1.2514 1.2514 1.3654 1.3655 1.3918 1.3919 1.4933 1.4932 1.5946 1.5947 1.696 1.696 1.1915 1.1914 m -10.2048,-4e-4 v -2.0965 -1.5408 -1.5409 -1.4272 -1.4273 -1.3137 -1.3137 -1.2001 -1.2001 -1.0865 -1.0866 -0.774 -0.774 -0.704 -0.7039 -0.6338 -0.6338 -0.5637 -0.5637 -0.5029 -0.5029 -0.5448 -0.5448 -0.7953 -0.7952 -0.9093 -0.9092 -1.0234 -1.0233 -1.1373 -1.1374 -1.2514 -1.2514 -1.3655 -1.3654 -1.3919 -1.3918 -1.4933 -1.4933 -1.5946 -1.5946 -1.696 -1.6961 -1.7973 -1.7974 m 41.9528,59.5275 h -2.8347 m 0,-5.6693 h 2.8347 m 0,5.6693 v -0.3798 -1.0375 -1.4173 -1.4173 -1.0376 -0.3798"
             style="fill:none;stroke:#000000;stroke-width:1.2;stroke-linecap:butt;stroke-linejoin:miter;stroke-miterlimit:4;stroke-dasharray:none;stroke-opacity:1"
             id="path903" />
        </g>
      </g>
      <g
         id="g2160"
         style="stroke-width:0.246944;stroke-miterlimit:4;stroke-dasharray:none">
        <g
           id="g905"
           transform="matrix(0.35277777,0,0,-0.35277777,93.011768,157.65547)"
           style="stroke-width:0.7;stroke-miterlimit:4;stroke-dasharray:none">
          <path
             d="m 8.3826,151.5946 h 1.4173 1.4173 40.5355 m 2.8346,0 h 5.6693 m 2.8347,0 h 40.5354 1.4173 1.4173"
             style="fill:none;stroke:#000000;stroke-width:0.7;stroke-linecap:butt;stroke-linejoin:miter;stroke-miterlimit:4;stroke-dasharray:none;stroke-opacity:1"
             id="path907" />
        </g>
      </g>
    </g>
  </g>
</svg>
