<?xml version="1.0" encoding="UTF-8" standalone="no"?>
<svg
   xmlns:dc="http://purl.org/dc/elements/1.1/"
   xmlns:cc="http://creativecommons.org/ns#"
   xmlns:rdf="http://www.w3.org/1999/02/22-rdf-syntax-ns#"
   xmlns:svg="http://www.w3.org/2000/svg"
   xmlns="http://www.w3.org/2000/svg"
   xmlns:sodipodi="http://sodipodi.sourceforge.net/DTD/sodipodi-0.dtd"
   xmlns:inkscape="http://www.inkscape.org/namespaces/inkscape"
   sodipodi:docname="drawing.svg"
   inkscape:version="1.0 (4035a4fb49, 2020-05-01)"
   id="svg8"
   version="1.1"
   viewBox="0 0 210 297"
   height="297mm"
   width="210mm">
  <defs
     id="defs2" />
  <sodipodi:namedview
     inkscape:window-maximized="0"
     inkscape:window-y="0"
     inkscape:window-x="-7"
     inkscape:window-height="1368"
     inkscape:window-width="1278"
     showgrid="false"
     inkscape:document-rotation="0"
     inkscape:current-layer="layer1"
     inkscape:document-units="mm"
     inkscape:cy="-195.31722"
     inkscape:cx="-3943.2765"
     inkscape:zoom="0.056568542"
     inkscape:pageshadow="2"
     inkscape:pageopacity="0.0"
     borderopacity="1.0"
     bordercolor="#666666"
     pagecolor="#ffffff"
     id="base" />
  <metadata
     id="metadata5">
    <rdf:RDF>
      <cc:Work
         rdf:about="">
        <dc:format>image/svg+xml</dc:format>
        <dc:type
           rdf:resource="http://purl.org/dc/dcmitype/StillImage" />
        <dc:title></dc:title>
      </cc:Work>
    </rdf:RDF>
  </metadata>
  <g
     id="layer1"
     inkscape:groupmode="layer"
     inkscape:label="Layer 1">
    <g
       id="g843"
       transform="matrix(0.35277777,0,0,-0.35277777,-1443.2454,543.68094)">
      <path
         id="path845"
         style="fill:#000000;fill-opacity:1;fill-rule:nonzero;stroke:none"
         d="m 7.5,639.75 v 303 H 201 V 901.5 H 53.25 V 813 h 126 v -41.25 h -126 V 681 H 201 v -41.25 z" />
      <path
         id="path847"
         style="fill:#000000;fill-opacity:1;fill-rule:nonzero;stroke:none"
         d="m 258,897.75 v 45.75 h 45.75 v -45.75 z m 0.75,-258 v 216 h 43.5 v -216 z" />
      <path
         id="path849"
         style="fill:#000000;fill-opacity:1;fill-rule:nonzero;stroke:none"
         d="m 495,639.75 c 0,23.25 0,23.25 0,23.25 -15.75,-19.5 -33,-25.5 -57,-25.5 -21,0 -40.5,6.75 -52.5,18.75 -21,21.75 -24,56.25 -24,91.5 0,35.25 3,69.75 24,90.75 12,12 30.75,19.5 52.5,19.5 22.5,0 40.5,-5.25 56.25,-24 0,108.75 0,108.75 0,108.75 43.5,0 43.5,0 43.5,0 0,-303 0,-303 0,-303 z M 450,819 c -39.75,0 -45,-33 -45,-71.25 0,-38.25 5.25,-72 45,-72 39,0 44.25,33.75 44.25,72 C 494.25,786 489,819 450,819 Z" />
      <path
         id="path851"
         style="fill:#000000;fill-opacity:1;fill-rule:nonzero;stroke:none"
         d="m 679.5,550.5 c -33,0 -54,7.5 -76.5,28.5 27.75,27 27.75,27 27.75,27 13.5,-12 25.5,-18.75 46.5,-18.75 36.75,0 51,26.25 51,54.75 0,27.75 0,27.75 0,27.75 C 712.5,651 694.5,645 672.75,645 651,645 633,652.5 621,664.5 c -21,20.25 -24,51 -24,87 0,36.75 3,66.75 24,87.75 12,12 30,18.75 51.75,18.75 23.25,0 40.5,-6 57,-25.5 0,23.25 0,23.25 0,23.25 42,0 42,0 42,0 0,-214.5 0,-214.5 0,-214.5 0,-52.5 -35.25,-90.75 -92.25,-90.75 z M 684.75,819 C 645,819 640.5,786 640.5,751.5 c 0,-33.75 4.5,-67.5 44.25,-67.5 39,0 43.5,33.75 43.5,67.5 0,34.5 -4.5,67.5 -43.5,67.5 z" />
      <path
         id="path853"
         style="fill:#000000;fill-opacity:1;fill-rule:nonzero;stroke:none"
         d="m 873,735 c 0,-37.5 18.75,-60 54.75,-60 24,0 36.75,6.75 51.75,21.75 27.75,-25.5 27.75,-25.5 27.75,-25.5 C 985.5,648.75 964.5,637.5 927,637.5 c -54,0 -97.5,28.5 -97.5,110.25 0,70.5 36.75,110.25 91.5,110.25 57.75,0 91.5,-42 91.5,-104.25 0,-18.75 0,-18.75 0,-18.75 z m 90.75,60 c -7.5,15.75 -22.5,27 -42.75,27 -21,0 -35.25,-11.25 -42.75,-27 -4.5,-9.75 -5.25,-16.5 -5.25,-30 96.75,0 96.75,0 96.75,0 -0.75,13.5 -1.5,20.25 -6,30 z" />
      <path
         id="path855"
         style="fill:#000000;fill-opacity:1;fill-rule:nonzero;stroke:none"
         d="m 1201.5,639.75 c 0,131.25 0,131.25 0,131.25 0,33.75 -18.75,48 -43.5,48 -24,0 -44.25,-14.25 -44.25,-48 0,-131.25 0,-131.25 0,-131.25 -43.5,0 -43.5,0 -43.5,0 0,216 0,216 0,216 42.75,0 42.75,0 42.75,0 0,-21.75 0,-21.75 0,-21.75 15,15.75 35.25,24 57,24 22.5,0 40.5,-7.5 53.25,-19.5 16.5,-16.5 21.75,-36.75 21.75,-60.75 0,-138 0,-138 0,-138 z" />
      <path
         id="path857"
         style="fill:#000000;fill-opacity:1;fill-rule:nonzero;stroke:none"
         d="m 1456.5,663 c -14.25,-14.25 -35.25,-25.5 -64.5,-25.5 -30,0 -50.25,11.25 -64.5,25.5 -20.25,21 -25.5,48 -25.5,84.75 0,36 5.25,63.75 25.5,84.75 14.25,14.25 34.5,25.5 64.5,25.5 29.25,0 50.25,-11.25 64.5,-25.5 20.25,-21 25.5,-48.75 25.5,-84.75 C 1482,711 1476.75,684 1456.5,663 Z M 1326,896.25 c 0,46.5 0,46.5 0,46.5 39,0 39,0 39,0 0,-46.5 0,-46.5 0,-46.5 z M 1423.5,807 c -8.25,8.25 -19.5,12 -31.5,12 -12.75,0 -24,-3.75 -31.5,-12 -13.5,-13.5 -15,-36 -15,-59.25 0,-23.25 1.5,-45.75 15,-59.25 7.5,-7.5 18.75,-12.75 31.5,-12.75 12,0 23.25,5.25 31.5,12.75 13.5,13.5 15,36 15,59.25 0,23.25 -1.5,45.75 -15,59.25 z m -5.25,89.25 c 0,46.5 0,46.5 0,46.5 39,0 39,0 39,0 0,-46.5 0,-46.5 0,-46.5 z" />
      <path
         id="path859"
         style="fill:#000000;fill-opacity:1;fill-rule:nonzero;stroke:none"
         d="m 1610.25,637.5 c -35.25,0 -64.5,6 -90,30.75 28.5,28.5 28.5,28.5 28.5,28.5 17.25,-18 40.5,-22.5 61.5,-22.5 27,0 47.25,9.75 47.25,30 0,15 -8.25,23.25 -28.5,25.5 -34.5,3 -34.5,3 -34.5,3 -41.25,3.75 -63.75,21.75 -63.75,59.25 0,42.75 36,66 81,66 33,0 60,-6.75 80.25,-24 -27.75,-27.75 -27.75,-27.75 -27.75,-27.75 C 1650.75,817.5 1632,822 1611,822 c -26.25,0 -39,-11.25 -39,-27.75 0,-15 9,-22.5 30,-24.75 30,-2.25 30,-2.25 30,-2.25 45,-3.75 68.25,-23.25 68.25,-61.5 0,-45 -38.25,-68.25 -90,-68.25 z" />
      <path
         id="path861"
         style="fill:#000000;fill-opacity:1;fill-rule:nonzero;stroke:none"
         d="m 1821,637.5 c -35.25,0 -65.25,6 -90.75,30.75 28.5,28.5 28.5,28.5 28.5,28.5 17.25,-18 40.5,-22.5 62.25,-22.5 27,0 47.25,9.75 47.25,30 0,15 -8.25,23.25 -29.25,25.5 -34.5,3 -34.5,3 -34.5,3 -40.5,3.75 -63.75,21.75 -63.75,59.25 0,42.75 36,66 81.75,66 32.25,0 59.25,-6.75 79.5,-24 -27,-27.75 -27,-27.75 -27,-27.75 -13.5,11.25 -33,15.75 -53.25,15.75 -26.25,0 -39,-11.25 -39,-27.75 0,-15 8.25,-22.5 29.25,-24.75 30.75,-2.25 30.75,-2.25 30.75,-2.25 44.25,-3.75 67.5,-23.25 67.5,-61.5 0,-45 -38.25,-68.25 -89.25,-68.25 z" />
      <path
         id="path863"
         style="fill:#000000;fill-opacity:1;fill-rule:nonzero;stroke:none"
         d="m 1962.75,897.75 v 45.75 h 45.75 v -45.75 z m 0.75,-258 v 216 h 43.5 v -216 z" />
      <path
         id="path865"
         style="fill:#000000;fill-opacity:1;fill-rule:nonzero;stroke:none"
         d="m 2145.75,637.5 c -35.25,0 -64.5,6 -90,30.75 28.5,28.5 28.5,28.5 28.5,28.5 17.25,-18 40.5,-22.5 61.5,-22.5 27,0 47.25,9.75 47.25,30 0,15 -8.25,23.25 -28.5,25.5 -34.5,3 -34.5,3 -34.5,3 -41.25,3.75 -63.75,21.75 -63.75,59.25 0,42.75 36,66 81,66 33,0 60,-6.75 80.25,-24 -27.75,-27.75 -27.75,-27.75 -27.75,-27.75 -13.5,11.25 -32.25,15.75 -53.25,15.75 -26.25,0 -39,-11.25 -39,-27.75 0,-15 9,-22.5 30,-24.75 30,-2.25 30,-2.25 30,-2.25 45,-3.75 68.25,-23.25 68.25,-61.5 0,-45 -38.25,-68.25 -90,-68.25 z" />
      <path
         id="path867"
         style="fill:#000000;fill-opacity:1;fill-rule:nonzero;stroke:none"
         d="m 2373.75,637.5 c -48.75,0 -96,30 -96,110.25 0,81 47.25,110.25 96,110.25 30,0 50.25,-8.25 71.25,-30 -30,-29.25 -30,-29.25 -30,-29.25 -13.5,15 -24,20.25 -41.25,20.25 -16.5,0 -30.75,-6.75 -39.75,-18.75 -9.75,-12 -12.75,-27 -12.75,-52.5 0,-24.75 3,-40.5 12.75,-52.5 9,-12.75 23.25,-19.5 39.75,-19.5 17.25,0 27.75,6 41.25,21 30,-28.5 30,-28.5 30,-28.5 -21,-21.75 -41.25,-30.75 -71.25,-30.75 z" />
      <path
         id="path869"
         style="fill:#000000;fill-opacity:1;fill-rule:nonzero;stroke:none"
         d="m 2626.5,639.75 c 0,131.25 0,131.25 0,131.25 0,33.75 -18.75,48 -43.5,48 -24,0 -44.25,-14.25 -44.25,-48 0,-131.25 0,-131.25 0,-131.25 -43.5,0 -43.5,0 -43.5,0 0,303 0,303 0,303 43.5,0 43.5,0 43.5,0 0,-108.75 0,-108.75 0,-108.75 14.25,15.75 34.5,24 56.25,24 22.5,0 40.5,-7.5 53.25,-19.5 16.5,-16.5 21.75,-36.75 21.75,-60.75 0,-138 0,-138 0,-138 z" />
      <path
         id="path871"
         style="fill:#000000;fill-opacity:1;fill-rule:nonzero;stroke:none"
         d="m 2769,735 c 0,-37.5 19.5,-60 54.75,-60 24,0 36.75,6.75 52.5,21.75 27.75,-25.5 27.75,-25.5 27.75,-25.5 -22.5,-22.5 -43.5,-33.75 -81,-33.75 -54,0 -96.75,28.5 -96.75,110.25 0,70.5 36,110.25 91.5,110.25 57.75,0 90.75,-42 90.75,-104.25 0,-18.75 0,-18.75 0,-18.75 z m 90.75,60 c -6.75,15.75 -21.75,27 -42,27 -21,0 -36,-11.25 -43.5,-27 -3.75,-9.75 -4.5,-16.5 -5.25,-30 96.75,0 96.75,0 96.75,0 -0.75,13.5 -1.5,20.25 -6,30 z" />
      <path
         id="path873"
         style="fill:#000000;fill-opacity:1;fill-rule:nonzero;stroke:none"
         d="M 3176.25,901.5 V 639.75 H 3130.5 V 901.5 h -83.25 v 41.25 h 213 V 901.5 Z" />
      <path
         id="path875"
         style="fill:#000000;fill-opacity:1;fill-rule:nonzero;stroke:none"
         d="m 3305.25,735 c 0,-37.5 19.5,-60 54.75,-60 24.75,0 37.5,6.75 52.5,21.75 27.75,-25.5 27.75,-25.5 27.75,-25.5 -22.5,-22.5 -42.75,-33.75 -81,-33.75 -54,0 -96.75,28.5 -96.75,110.25 0,70.5 36,110.25 91.5,110.25 57.75,0 91.5,-42 91.5,-104.25 0,-18.75 0,-18.75 0,-18.75 z m 90.75,60 c -6.75,15.75 -21.75,27 -42,27 -21,0 -36,-11.25 -42.75,-27 -4.5,-9.75 -5.25,-16.5 -6,-30 96.75,0 96.75,0 96.75,0 -0.75,13.5 -1.5,20.25 -6,30 z" />
      <path
         id="path877"
         style="fill:#000000;fill-opacity:1;fill-rule:nonzero;stroke:none"
         d="m 3588,637.5 c -48.75,0 -96,30 -96,110.25 0,81 47.25,110.25 96,110.25 30,0 50.25,-8.25 71.25,-30 -30,-29.25 -30,-29.25 -30,-29.25 -13.5,15 -24,20.25 -41.25,20.25 -16.5,0 -30.75,-6.75 -39.75,-18.75 -9.75,-12 -12.75,-27 -12.75,-52.5 0,-24.75 3,-40.5 12.75,-52.5 9,-12.75 23.25,-19.5 39.75,-19.5 17.25,0 27.75,6 41.25,21 30,-28.5 30,-28.5 30,-28.5 C 3638.25,646.5 3618,637.5 3588,637.5 Z" />
      <path
         id="path879"
         style="fill:#000000;fill-opacity:1;fill-rule:nonzero;stroke:none"
         d="m 3840.75,639.75 c 0,131.25 0,131.25 0,131.25 0,33.75 -18.75,48 -43.5,48 -24,0 -44.25,-14.25 -44.25,-48 0,-131.25 0,-131.25 0,-131.25 -43.5,0 -43.5,0 -43.5,0 0,303 0,303 0,303 43.5,0 43.5,0 43.5,0 0,-108.75 0,-108.75 0,-108.75 14.25,15.75 34.5,24 56.25,24 22.5,0 40.5,-7.5 53.25,-19.5 16.5,-16.5 21.75,-36.75 21.75,-60.75 0,-138 0,-138 0,-138 z" />
      <path
         id="path881"
         style="fill:#000000;fill-opacity:1;fill-rule:nonzero;stroke:none"
         d="m 4083,639.75 c 0,131.25 0,131.25 0,131.25 0,33.75 -19.5,48 -43.5,48 -24,0 -45,-14.25 -45,-48 0,-131.25 0,-131.25 0,-131.25 -42.75,0 -42.75,0 -42.75,0 0,216 0,216 0,216 42,0 42,0 42,0 0,-21.75 0,-21.75 0,-21.75 15,15.75 36,24 57.75,24 21.75,0 40.5,-7.5 53.25,-19.5 16.5,-16.5 21,-36.75 21,-60.75 0,-138 0,-138 0,-138 z" />
      <path
         id="path883"
         style="fill:#000000;fill-opacity:1;fill-rule:nonzero;stroke:none"
         d="m 4191.75,897.75 v 45.75 h 46.5 v -45.75 z m 1.5,-258 v 216 h 43.5 v -216 z" />
      <path
         id="path885"
         style="fill:#000000;fill-opacity:1;fill-rule:nonzero;stroke:none"
         d="m 4375.5,637.5 c -35.25,0 -65.25,6 -90.75,30.75 28.5,28.5 28.5,28.5 28.5,28.5 18,-18 41.25,-22.5 62.25,-22.5 27,0 47.25,9.75 47.25,30 0,15 -8.25,23.25 -28.5,25.5 -34.5,3 -34.5,3 -34.5,3 C 4318.5,736.5 4296,754.5 4296,792 c 0,42.75 36,66 81,66 32.25,0 60,-6.75 79.5,-24 -27,-27.75 -27,-27.75 -27,-27.75 -13.5,11.25 -33,15.75 -53.25,15.75 -26.25,0 -39,-11.25 -39,-27.75 0,-15 8.25,-22.5 30,-24.75 30,-2.25 30,-2.25 30,-2.25 45,-3.75 68.25,-23.25 68.25,-61.5 0,-45 -38.25,-68.25 -90,-68.25 z" />
      <path
         id="path887"
         style="fill:#000000;fill-opacity:1;fill-rule:nonzero;stroke:none"
         d="m 4603.5,637.5 c -48.75,0 -96,30 -96,110.25 0,81 47.25,110.25 96,110.25 30,0 50.25,-8.25 70.5,-30 -29.25,-29.25 -29.25,-29.25 -29.25,-29.25 -13.5,15 -24.75,20.25 -41.25,20.25 -16.5,0 -30.75,-6.75 -39.75,-18.75 -9.75,-12 -12.75,-27 -12.75,-52.5 0,-24.75 3,-40.5 12.75,-52.5 9,-12.75 23.25,-19.5 39.75,-19.5 16.5,0 27.75,6 41.25,21 29.25,-28.5 29.25,-28.5 29.25,-28.5 -20.25,-21.75 -40.5,-30.75 -70.5,-30.75 z" />
      <path
         id="path889"
         style="fill:#000000;fill-opacity:1;fill-rule:nonzero;stroke:none"
         d="m 4856.25,639.75 c 0,131.25 0,131.25 0,131.25 0,33.75 -19.5,48 -43.5,48 -24,0 -44.25,-14.25 -44.25,-48 0,-131.25 0,-131.25 0,-131.25 -43.5,0 -43.5,0 -43.5,0 0,303 0,303 0,303 43.5,0 43.5,0 43.5,0 0,-108.75 0,-108.75 0,-108.75 14.25,15.75 34.5,24 56.25,24 22.5,0 40.5,-7.5 53.25,-19.5 16.5,-16.5 21.75,-36.75 21.75,-60.75 0,-138 0,-138 0,-138 z" />
      <path
         id="path891"
         style="fill:#000000;fill-opacity:1;fill-rule:nonzero;stroke:none"
         d="m 4998.75,735 c 0,-37.5 18.75,-60 54.75,-60 24,0 36.75,6.75 52.5,21.75 27,-25.5 27,-25.5 27,-25.5 -21.75,-22.5 -42.75,-33.75 -80.25,-33.75 -54,0 -96.75,28.5 -96.75,110.25 0,70.5 36,110.25 90.75,110.25 58.5,0 91.5,-42 91.5,-104.25 0,-18.75 0,-18.75 0,-18.75 z m 90.75,60 c -7.5,15.75 -21.75,27 -42.75,27 -20.25,0 -35.25,-11.25 -42.75,-27 -3.75,-9.75 -5.25,-16.5 -5.25,-30 96.75,0 96.75,0 96.75,0 -0.75,13.5 -1.5,20.25 -6,30 z" />
      <path
         id="path893"
         style="fill:#000000;fill-opacity:1;fill-rule:nonzero;stroke:none"
         d="m 5472.75,639.75 v 132 h -123 v -132 H 5304 v 303 h 45.75 V 813 h 123 v 129.75 h 45.75 v -303 z" />
      <path
         id="path895"
         style="fill:#000000;fill-opacity:1;fill-rule:nonzero;stroke:none"
         d="m 5736.75,663 c -14.25,-14.25 -35.25,-25.5 -64.5,-25.5 -29.25,0 -50.25,11.25 -64.5,25.5 -20.25,21 -25.5,48 -25.5,84.75 0,36 5.25,63.75 25.5,84.75 14.25,14.25 35.25,25.5 64.5,25.5 29.25,0 50.25,-11.25 64.5,-25.5 20.25,-21 25.5,-48.75 25.5,-84.75 0,-36.75 -5.25,-63.75 -25.5,-84.75 z m -32.25,144 c -8.25,8.25 -19.5,12 -32.25,12 -12.75,0 -23.25,-3.75 -31.5,-12 -12.75,-13.5 -15,-36 -15,-59.25 0,-23.25 2.25,-45.75 15,-59.25 8.25,-7.5 18.75,-12.75 31.5,-12.75 12.75,0 24,5.25 32.25,12.75 12.75,13.5 14.25,36 14.25,59.25 0,23.25 -1.5,45.75 -14.25,59.25 z" />
      <path
         id="path897"
         style="fill:#000000;fill-opacity:1;fill-rule:nonzero;stroke:none"
         d="m 5906.25,637.5 c -48,0 -96,30 -96,110.25 0,81 48,110.25 96,110.25 30,0 51,-8.25 71.25,-30 -30,-29.25 -30,-29.25 -30,-29.25 -13.5,15 -24,20.25 -41.25,20.25 -16.5,0 -30.75,-6.75 -39.75,-18.75 -9,-12 -12.75,-27 -12.75,-52.5 0,-24.75 3.75,-40.5 12.75,-52.5 9,-12.75 23.25,-19.5 39.75,-19.5 17.25,0 27.75,6 41.25,21 30,-28.5 30,-28.5 30,-28.5 -20.25,-21.75 -41.25,-30.75 -71.25,-30.75 z" />
      <path
         id="path899"
         style="fill:#000000;fill-opacity:1;fill-rule:nonzero;stroke:none"
         d="m 6159,639.75 c 0,131.25 0,131.25 0,131.25 0,33.75 -18.75,48 -42.75,48 -24.75,0 -45,-14.25 -45,-48 0,-131.25 0,-131.25 0,-131.25 -43.5,0 -43.5,0 -43.5,0 0,303 0,303 0,303 43.5,0 43.5,0 43.5,0 0,-108.75 0,-108.75 0,-108.75 14.25,15.75 34.5,24 56.25,24 22.5,0 40.5,-7.5 53.25,-19.5 16.5,-16.5 21.75,-36.75 21.75,-60.75 0,-138 0,-138 0,-138 z" />
      <path
         id="path901"
         style="fill:#000000;fill-opacity:1;fill-rule:nonzero;stroke:none"
         d="m 6339.75,637.5 c -35.25,0 -65.25,6 -90.75,30.75 28.5,28.5 28.5,28.5 28.5,28.5 17.25,-18 40.5,-22.5 62.25,-22.5 26.25,0 47.25,9.75 47.25,30 0,15 -8.25,23.25 -29.25,25.5 -34.5,3 -34.5,3 -34.5,3 -40.5,3.75 -63.75,21.75 -63.75,59.25 0,42.75 36,66 81,66 33,0 60,-6.75 80.25,-24 -27,-27.75 -27,-27.75 -27,-27.75 -14.25,11.25 -33,15.75 -53.25,15.75 -26.25,0 -39,-11.25 -39,-27.75 0,-15 8.25,-22.5 29.25,-24.75 30.75,-2.25 30.75,-2.25 30.75,-2.25 44.25,-3.75 67.5,-23.25 67.5,-61.5 0,-45 -38.25,-68.25 -89.25,-68.25 z" />
      <path
         id="path903"
         style="fill:#000000;fill-opacity:1;fill-rule:nonzero;stroke:none"
         d="m 6567,637.5 c -48,0 -96,30 -96,110.25 0,81 48,110.25 96,110.25 30,0 51,-8.25 71.25,-30 -30,-29.25 -30,-29.25 -30,-29.25 -13.5,15 -24,20.25 -41.25,20.25 -16.5,0 -30,-6.75 -39.75,-18.75 -9,-12 -12.75,-27 -12.75,-52.5 0,-24.75 3.75,-40.5 12.75,-52.5 9.75,-12.75 23.25,-19.5 39.75,-19.5 17.25,0 27.75,6 41.25,21 30,-28.5 30,-28.5 30,-28.5 C 6618,646.5 6597,637.5 6567,637.5 Z" />
      <path
         id="path905"
         style="fill:#000000;fill-opacity:1;fill-rule:nonzero;stroke:none"
         d="m 6819.75,639.75 c 0,131.25 0,131.25 0,131.25 0,33.75 -18.75,48 -42.75,48 -24.75,0 -45,-14.25 -45,-48 0,-131.25 0,-131.25 0,-131.25 -43.5,0 -43.5,0 -43.5,0 0,303 0,303 0,303 43.5,0 43.5,0 43.5,0 0,-108.75 0,-108.75 0,-108.75 15,15.75 34.5,24 57,24 21.75,0 39.75,-7.5 52.5,-19.5 17.25,-16.5 21.75,-36.75 21.75,-60.75 0,-138 0,-138 0,-138 z" />
      <path
         id="path907"
         style="fill:#000000;fill-opacity:1;fill-rule:nonzero;stroke:none"
         d="m 7060.5,639.75 c 0,21.75 0,21.75 0,21.75 -15,-15.75 -35.25,-24 -57,-24 -22.5,0 -40.5,6.75 -53.25,19.5 -16.5,15.75 -21.75,36.75 -21.75,60.75 0,138 0,138 0,138 43.5,0 43.5,0 43.5,0 0,-132 0,-132 0,-132 0,-33 18.75,-48 43.5,-48 24,0 44.25,15 44.25,48 0,132 0,132 0,132 43.5,0 43.5,0 43.5,0 0,-216 0,-216 0,-216 z" />
      <path
         id="path909"
         style="fill:#000000;fill-opacity:1;fill-rule:nonzero;stroke:none"
         d="m 7230,639.75 c -41.25,0 -58.5,27.75 -58.5,60 0,243 0,243 0,243 42.75,0 42.75,0 42.75,0 0,-240.75 0,-240.75 0,-240.75 0,-16.5 6,-24.75 24,-24.75 18.75,0 18.75,0 18.75,0 0,-37.5 0,-37.5 0,-37.5 z" />
      <path
         id="path911"
         style="fill:#000000;fill-opacity:1;fill-rule:nonzero;stroke:none"
         d="m 7332.75,735 c 0,-37.5 18.75,-60 54.75,-60 24,0 36.75,6.75 52.5,21.75 27.75,-25.5 27.75,-25.5 27.75,-25.5 -22.5,-22.5 -43.5,-33.75 -81,-33.75 -54,0 -96.75,28.5 -96.75,110.25 0,70.5 36,110.25 91.5,110.25 57.75,0 90.75,-42 90.75,-104.25 0,-18.75 0,-18.75 0,-18.75 z m 90.75,60 c -6.75,15.75 -21.75,27 -42,27 -21,0 -36,-11.25 -43.5,-27 -3.75,-9.75 -5.25,-16.5 -5.25,-30 96.75,0 96.75,0 96.75,0 -0.75,13.5 -1.5,20.25 -6,30 z" />
      <path
         id="path913"
         style="fill:#000000;fill-opacity:1;fill-rule:nonzero;stroke:none"
         d="m 7618.5,639.75 v 39.75 l 140.25,222 H 7624.5 v 41.25 h 188.25 v -37.5 L 7671.75,681 h 141 v -41.25 z" />
      <path
         id="path915"
         style="fill:#000000;fill-opacity:1;fill-rule:nonzero;stroke:none"
         d="m 7998,639.75 c 0,21.75 0,21.75 0,21.75 -15,-15.75 -36,-24 -57.75,-24 -21.75,0 -40.5,6.75 -53.25,19.5 -16.5,15.75 -21.75,36.75 -21.75,60.75 0,138 0,138 0,138 43.5,0 43.5,0 43.5,0 0,-132 0,-132 0,-132 0,-33 19.5,-48 43.5,-48 24,0 45,15 45,48 0,132 0,132 0,132 42.75,0 42.75,0 42.75,0 0,-216 0,-216 0,-216 z m -111,256.5 c 0,46.5 0,46.5 0,46.5 39,0 39,0 39,0 0,-46.5 0,-46.5 0,-46.5 z m 91.5,0 c 0,46.5 0,46.5 0,46.5 39,0 39,0 39,0 0,-46.5 0,-46.5 0,-46.5 z" />
      <path
         id="path917"
         style="fill:#000000;fill-opacity:1;fill-rule:nonzero;stroke:none"
         d="M 8228.25,804.75 C 8218.5,814.5 8211,819 8196,819 c -23.25,0 -42.75,-18.75 -42.75,-48 0,-131.25 0,-131.25 0,-131.25 -43.5,0 -43.5,0 -43.5,0 0,216 0,216 0,216 42,0 42,0 42,0 0,-24 0,-24 0,-24 11.25,15.75 33.75,26.25 57.75,26.25 21,0 36.75,-5.25 51,-20.25 z" />
      <path
         id="path919"
         style="fill:#000000;fill-opacity:1;fill-rule:nonzero;stroke:none"
         d="m 8295,897.75 v 45.75 h 46.5 v -45.75 z m 1.5,-258 v 216 h 43.5 v -216 z" />
      <path
         id="path921"
         style="fill:#000000;fill-opacity:1;fill-rule:nonzero;stroke:none"
         d="m 8494.5,637.5 c -48.75,0 -96,30 -96,110.25 0,81 47.25,110.25 96,110.25 29.25,0 50.25,-8.25 70.5,-30 -29.25,-29.25 -29.25,-29.25 -29.25,-29.25 -14.25,15 -24.75,20.25 -41.25,20.25 -17.25,0 -30.75,-6.75 -40.5,-18.75 -9,-12 -12.75,-27 -12.75,-52.5 0,-24.75 3.75,-40.5 12.75,-52.5 9.75,-12.75 23.25,-19.5 40.5,-19.5 16.5,0 27,6 41.25,21 29.25,-28.5 29.25,-28.5 29.25,-28.5 -20.25,-21.75 -41.25,-30.75 -70.5,-30.75 z" />
      <path
         id="path923"
         style="fill:#000000;fill-opacity:1;fill-rule:nonzero;stroke:none"
         d="m 8747.25,639.75 c 0,131.25 0,131.25 0,131.25 0,33.75 -19.5,48 -43.5,48 -24,0 -45,-14.25 -45,-48 0,-131.25 0,-131.25 0,-131.25 -42.75,0 -42.75,0 -42.75,0 0,303 0,303 0,303 42.75,0 42.75,0 42.75,0 0,-108.75 0,-108.75 0,-108.75 15,15.75 34.5,24 57,24 21.75,0 40.5,-7.5 53.25,-19.5 16.5,-16.5 21.75,-36.75 21.75,-60.75 0,-138 0,-138 0,-138 z" />
      <path
         id="path925"
         style="fill:#000000;fill-opacity:1;fill-rule:nonzero;stroke:none"
         d="m 106.5,87.75 c -45,0 -77.25,10.5 -106.5,39.75 30,30 30,30 30,30 21.75,-21.75 47.25,-29.25 78,-29.25 39.75,0 62.25,17.25 62.25,46.5 0,13.5 -3.75,24.75 -12,31.5 -7.5,6.75 -18,10.5 -33,12.75 -36,5.25 -36,5.25 -36,5.25 -24.75,3.75 -43.5,11.25 -57,24 -15,13.5 -22.5,33 -22.5,58.5 0,52.5 38.25,88.5 101.25,88.5 40.5,0 68.25,-10.5 93.75,-34.5 -28.5,-29.25 -28.5,-29.25 -28.5,-29.25 -18.75,18 -41.25,23.25 -66.75,23.25 -36,0 -54.75,-19.5 -54.75,-46.5 0,-11.25 3,-21.75 10.5,-28.5 C 73.5,273 82.5,268.5 99,266.25 135,261 135,261 135,261 c 27.75,-4.5 42.75,-10.5 56.25,-22.5 15.75,-15 24.75,-36 24.75,-62.25 0,-55.5 -45.75,-88.5 -109.5,-88.5 z" />
      <path
         id="path927"
         style="fill:#000000;fill-opacity:1;fill-rule:nonzero;stroke:none"
         d="m 483.75,90 h -37.5 L 396,240.75 345.75,90 h -37.5 L 241.5,305.25 h 45.75 l 42,-151.5 50.25,151.5 h 33 l 50.25,-151.5 41.25,151.5 h 46.5 z" />
      <path
         id="path929"
         style="fill:#000000;fill-opacity:1;fill-rule:nonzero;stroke:none"
         d="m 587.25,348 v 45.75 h 46.5 V 348 Z m 1.5,-258 v 215.25 h 43.5 V 90 Z" />
      <path
         id="path931"
         style="fill:#000000;fill-opacity:1;fill-rule:nonzero;stroke:none"
         d="m 771,87.75 c -35.25,0 -65.25,5.25 -90.75,30.75 28.5,28.5 28.5,28.5 28.5,28.5 18,-18 41.25,-22.5 62.25,-22.5 27,0 47.25,9 47.25,29.25 0,15 -8.25,24 -28.5,25.5 -34.5,3 -34.5,3 -34.5,3 -41.25,4.5 -63.75,21.75 -63.75,60 0,42 36,66 81,66 33,0 60,-6.75 79.5,-24.75 -27,-27.75 -27,-27.75 -27,-27.75 -13.5,12 -32.25,15.75 -53.25,15.75 -26.25,0 -39,-10.5 -39,-27 0,-15 9,-22.5 30,-24.75 30,-3 30,-3 30,-3 C 837.75,213 861,193.5 861,156 861,111 822.75,87.75 771,87.75 Z" />
      <path
         id="path933"
         style="fill:#000000;fill-opacity:1;fill-rule:nonzero;stroke:none"
         d="M 981.75,87.75 C 946.5,87.75 916.5,93 891,118.5 c 28.5,28.5 28.5,28.5 28.5,28.5 17.25,-18 40.5,-22.5 62.25,-22.5 26.25,0 47.25,9 47.25,29.25 0,15 -8.25,24 -29.25,25.5 -34.5,3 -34.5,3 -34.5,3 -40.5,4.5 -63.75,21.75 -63.75,60 0,42 36,66 81,66 33,0 60,-6.75 80.25,-24.75 -27,-27.75 -27,-27.75 -27,-27.75 -14.25,12 -33,15.75 -53.25,15.75 -26.25,0 -39,-10.5 -39,-27 0,-15 8.25,-22.5 29.25,-24.75 30.75,-3 30.75,-3 30.75,-3 44.25,-3.75 67.5,-23.25 67.5,-60.75 0,-45 -38.25,-68.25 -89.25,-68.25 z" />
      <path
         id="path935"
         style="fill:#000000;fill-opacity:1;fill-rule:nonzero;stroke:none"
         d="m 1278,351 v -92.25 h 125.25 V 217.5 H 1278 V 90 h -46.5 V 392.25 H 1425 V 351 Z" />
      <path
         id="path937"
         style="fill:#000000;fill-opacity:1;fill-rule:nonzero;stroke:none"
         d="m 1494.75,185.25 c 0,-37.5 19.5,-60.75 54.75,-60.75 24.75,0 37.5,6.75 52.5,22.5 27.75,-26.25 27.75,-26.25 27.75,-26.25 -22.5,-21.75 -42.75,-33 -81,-33 -54,0 -96.75,27.75 -96.75,110.25 0,69.75 36,110.25 91.5,110.25 57.75,0 91.5,-42 91.5,-105 0,-18 0,-18 0,-18 z m 90.75,59.25 c -6.75,16.5 -21.75,27 -42,27 -21,0 -36,-10.5 -42.75,-27 -4.5,-9 -5.25,-15.75 -6,-29.25 96.75,0 96.75,0 96.75,0 -0.75,13.5 -1.5,20.25 -6,29.25 z" />
      <path
         id="path939"
         style="fill:#000000;fill-opacity:1;fill-rule:nonzero;stroke:none"
         d="m 1816.5,90 c 0,23.25 0,23.25 0,23.25 -16.5,-20.25 -33.75,-25.5 -57,-25.5 -21.75,0 -41.25,6.75 -53.25,18.75 -20.25,21 -24,55.5 -24,91.5 0,35.25 3.75,69.75 24,90.75 12,12 30.75,19.5 52.5,19.5 23.25,0 40.5,-6 56.25,-24.75 0,108.75 0,108.75 0,108.75 43.5,0 43.5,0 43.5,0 0,-302.25 0,-302.25 0,-302.25 z m -45.75,179.25 c -39.75,0 -45,-33 -45,-71.25 0,-38.25 5.25,-72 45,-72 39,0 44.25,33.75 44.25,72 0,38.25 -5.25,71.25 -44.25,71.25 z" />
      <path
         id="path941"
         style="fill:#000000;fill-opacity:1;fill-rule:nonzero;stroke:none"
         d="m 1959.75,185.25 c 0,-37.5 19.5,-60.75 54.75,-60.75 24,0 36.75,6.75 52.5,22.5 27.75,-26.25 27.75,-26.25 27.75,-26.25 -22.5,-21.75 -43.5,-33 -81,-33 -54,0 -96.75,27.75 -96.75,110.25 0,69.75 36,110.25 91.5,110.25 57.75,0 91.5,-42 91.5,-105 0,-18 0,-18 0,-18 z m 90.75,59.25 c -6.75,16.5 -21.75,27 -42,27 -21,0 -36,-10.5 -43.5,-27 -3.75,-9 -4.5,-15.75 -5.25,-29.25 96.75,0 96.75,0 96.75,0 -0.75,13.5 -1.5,20.25 -6,29.25 z" />
      <path
         id="path943"
         style="fill:#000000;fill-opacity:1;fill-rule:nonzero;stroke:none"
         d="m 2276.25,255 c -9.75,9.75 -18,14.25 -32.25,14.25 -24,0 -43.5,-18.75 -43.5,-48.75 0,-130.5 0,-130.5 0,-130.5 -42.75,0 -42.75,0 -42.75,0 0,215.25 0,215.25 0,215.25 42,0 42,0 42,0 0,-23.25 0,-23.25 0,-23.25 11.25,15 33,26.25 57.75,26.25 21,0 36,-6 51,-21 z" />
      <path
         id="path945"
         style="fill:#000000;fill-opacity:1;fill-rule:nonzero;stroke:none"
         d="m 2456.25,90 c 0,19.5 0,19.5 0,19.5 -15.75,-15.75 -30.75,-21.75 -57.75,-21.75 -26.25,0 -44.25,6 -57.75,19.5 -10.5,11.25 -16.5,27.75 -16.5,45.75 0,36.75 24.75,62.25 74.25,62.25 57,0 57,0 57,0 0,15 0,15 0,15 0,27.75 -13.5,40.5 -47.25,40.5 -23.25,0 -35.25,-6 -47.25,-21 -27.75,27 -27.75,27 -27.75,27 19.5,23.25 40.5,31.5 76.5,31.5 60,0 89.25,-25.5 89.25,-74.25 0,-144 0,-144 0,-144 z m -0.75,95.25 c -49.5,0 -49.5,0 -49.5,0 -27,0 -39.75,-11.25 -39.75,-31.5 0,-19.5 12,-30 40.5,-30 15.75,0 27.75,1.5 39,12 6.75,6.75 9.75,16.5 9.75,32.25 z" />
      <path
         id="path947"
         style="fill:#000000;fill-opacity:1;fill-rule:nonzero;stroke:none"
         d="m 2623.5,90 c -41.25,0 -59.25,27.75 -59.25,59.25 0,243 0,243 0,243 43.5,0 43.5,0 43.5,0 0,-240 0,-240 0,-240 0,-16.5 6,-25.5 23.25,-25.5 19.5,0 19.5,0 19.5,0 0,-36.75 0,-36.75 0,-36.75 z" />
      <path
         id="path949"
         style="fill:#000000;fill-opacity:1;fill-rule:nonzero;stroke:none"
         d="m 2805.75,392.25 h 46.5 V 90 h -46.5 z" />
      <path
         id="path951"
         style="fill:#000000;fill-opacity:1;fill-rule:nonzero;stroke:none"
         d="m 3057.75,90 c 0,131.25 0,131.25 0,131.25 0,33.75 -19.5,48 -43.5,48 -24,0 -44.25,-15 -44.25,-48 C 2970,90 2970,90 2970,90 c -43.5,0 -43.5,0 -43.5,0 0,215.25 0,215.25 0,215.25 42,0 42,0 42,0 0,-21.75 0,-21.75 0,-21.75 15,16.5 36,24.75 57.75,24.75 21.75,0 40.5,-7.5 53.25,-19.5 16.5,-16.5 21.75,-36.75 21.75,-60.75 0,-138 0,-138 0,-138 z" />
      <path
         id="path953"
         style="fill:#000000;fill-opacity:1;fill-rule:nonzero;stroke:none"
         d="m 3237.75,87.75 c -35.25,0 -65.25,5.25 -90.75,30.75 28.5,28.5 28.5,28.5 28.5,28.5 18,-18 41.25,-22.5 62.25,-22.5 27,0 47.25,9 47.25,29.25 0,15 -8.25,24 -29.25,25.5 -33.75,3 -33.75,3 -33.75,3 -41.25,4.5 -63.75,21.75 -63.75,60 0,42 36,66 81,66 32.25,0 60,-6.75 79.5,-24.75 -27,-27.75 -27,-27.75 -27,-27.75 -13.5,12 -33,15.75 -53.25,15.75 -26.25,0 -39,-10.5 -39,-27 0,-15 8.25,-22.5 30,-24.75 30,-3 30,-3 30,-3 44.25,-3.75 68.25,-23.25 68.25,-60.75 0,-45 -38.25,-68.25 -90,-68.25 z" />
      <path
         id="path955"
         style="fill:#000000;fill-opacity:1;fill-rule:nonzero;stroke:none"
         d="m 3440.25,90 c -39.75,0 -58.5,28.5 -58.5,60 0,122.25 0,122.25 0,122.25 -24.75,0 -24.75,0 -24.75,0 0,33 0,33 0,33 24.75,0 24.75,0 24.75,0 0,61.5 0,61.5 0,61.5 42.75,0 42.75,0 42.75,0 0,-61.5 0,-61.5 0,-61.5 42,0 42,0 42,0 0,-33 0,-33 0,-33 -42,0 -42,0 -42,0 0,-120 0,-120 0,-120 0,-15.75 8.25,-25.5 24,-25.5 18,0 18,0 18,0 0,-36.75 0,-36.75 0,-36.75 z" />
      <path
         id="path957"
         style="fill:#000000;fill-opacity:1;fill-rule:nonzero;stroke:none"
         d="m 3520.5,348 v 45.75 H 3567 V 348 Z M 3522,90 v 215.25 h 43.5 V 90 Z" />
      <path
         id="path959"
         style="fill:#000000;fill-opacity:1;fill-rule:nonzero;stroke:none"
         d="m 3699,90 c -40.5,0 -59.25,28.5 -59.25,60 0,122.25 0,122.25 0,122.25 -24.75,0 -24.75,0 -24.75,0 0,33 0,33 0,33 24.75,0 24.75,0 24.75,0 0,61.5 0,61.5 0,61.5 43.5,0 43.5,0 43.5,0 0,-61.5 0,-61.5 0,-61.5 41.25,0 41.25,0 41.25,0 0,-33 0,-33 0,-33 -41.25,0 -41.25,0 -41.25,0 0,-120 0,-120 0,-120 0,-15.75 7.5,-25.5 24,-25.5 17.25,0 17.25,0 17.25,0 0,-36.75 0,-36.75 0,-36.75 z" />
      <path
         id="path961"
         style="fill:#000000;fill-opacity:1;fill-rule:nonzero;stroke:none"
         d="m 3910.5,90 c 0,21.75 0,21.75 0,21.75 -15,-16.5 -36,-24 -57,-24 -22.5,0 -40.5,6.75 -53.25,19.5 -16.5,15.75 -21.75,36 -21.75,60.75 0,137.25 0,137.25 0,137.25 43.5,0 43.5,0 43.5,0 0,-131.25 0,-131.25 0,-131.25 0,-33.75 18.75,-48 42.75,-48 24.75,0 45,15 45,48 0,131.25 0,131.25 0,131.25 43.5,0 43.5,0 43.5,0 0,-215.25 0,-215.25 0,-215.25 z" />
      <path
         id="path963"
         style="fill:#000000;fill-opacity:1;fill-rule:nonzero;stroke:none"
         d="m 4086.75,90 c -40.5,0 -59.25,28.5 -59.25,60 0,122.25 0,122.25 0,122.25 -24.75,0 -24.75,0 -24.75,0 0,33 0,33 0,33 24.75,0 24.75,0 24.75,0 0,61.5 0,61.5 0,61.5 43.5,0 43.5,0 43.5,0 0,-61.5 0,-61.5 0,-61.5 41.25,0 41.25,0 41.25,0 0,-33 0,-33 0,-33 -41.25,0 -41.25,0 -41.25,0 0,-120 0,-120 0,-120 0,-15.75 7.5,-25.5 23.25,-25.5 18,0 18,0 18,0 0,-36.75 0,-36.75 0,-36.75 z" />
      <path
         id="path965"
         style="fill:#000000;fill-opacity:1;fill-rule:nonzero;stroke:none"
         d="m 4197.75,185.25 c 0,-37.5 19.5,-60.75 54.75,-60.75 24.75,0 37.5,6.75 52.5,22.5 27.75,-26.25 27.75,-26.25 27.75,-26.25 -22.5,-21.75 -42.75,-33 -81,-33 -54,0 -96.75,27.75 -96.75,110.25 0,69.75 36,110.25 91.5,110.25 57.75,0 91.5,-42 91.5,-105 0,-18 0,-18 0,-18 z m 90.75,59.25 c -6.75,16.5 -21.75,27 -42,27 -21,0 -36,-10.5 -42.75,-27 -4.5,-9 -5.25,-15.75 -6,-29.25 96.75,0 96.75,0 96.75,0 -0.75,13.5 -1.5,20.25 -6,29.25 z" />
      <path
         id="path967"
         style="fill:#000000;fill-opacity:1;fill-rule:nonzero;stroke:none"
         d="m 4641.75,113.25 c -13.5,-15 -35.25,-25.5 -64.5,-25.5 -29.25,0 -50.25,10.5 -63.75,25.5 -21,21 -25.5,48 -25.5,84.75 0,36 4.5,63 25.5,84.75 13.5,14.25 34.5,25.5 63.75,25.5 29.25,0 51,-11.25 64.5,-25.5 21,-21.75 25.5,-48.75 25.5,-84.75 0,-36.75 -4.5,-63.75 -25.5,-84.75 z m -32.25,144 c -8.25,7.5 -19.5,12 -32.25,12 -12.75,0 -23.25,-4.5 -31.5,-12 -12.75,-13.5 -15,-36 -15,-59.25 0,-23.25 2.25,-45.75 15,-59.25 8.25,-8.25 18.75,-12.75 31.5,-12.75 12.75,0 24,4.5 32.25,12.75 12.75,13.5 15,36 15,59.25 0,23.25 -2.25,45.75 -15,59.25 z" />
      <path
         id="path969"
         style="fill:#000000;fill-opacity:1;fill-rule:nonzero;stroke:none"
         d="m 4776.75,272.25 c 0,-182.25 0,-182.25 0,-182.25 -43.5,0 -43.5,0 -43.5,0 0,182.25 0,182.25 0,182.25 -24.75,0 -24.75,0 -24.75,0 0,33 0,33 0,33 24.75,0 24.75,0 24.75,0 0,29.25 0,29.25 0,29.25 0,31.5 18.75,60 59.25,60 27,0 27,0 27,0 0,-36.75 0,-36.75 0,-36.75 -18.75,0 -18.75,0 -18.75,0 -16.5,0 -24,-9.75 -24,-25.5 0,-27 0,-27 0,-27 42.75,0 42.75,0 42.75,0 0,-33 0,-33 0,-33 z" />
      <path
         id="path971"
         style="fill:#000000;fill-opacity:1;fill-rule:nonzero;stroke:none"
         d="M 5076,351 V 90 h -45.75 V 351 H 4947 v 41.25 h 213 V 351 Z" />
      <path
         id="path973"
         style="fill:#000000;fill-opacity:1;fill-rule:nonzero;stroke:none"
         d="m 5205,185.25 c 0,-37.5 19.5,-60.75 54.75,-60.75 24.75,0 37.5,6.75 52.5,22.5 27.75,-26.25 27.75,-26.25 27.75,-26.25 -22.5,-21.75 -42.75,-33 -81,-33 -54,0 -96.75,27.75 -96.75,110.25 0,69.75 36,110.25 91.5,110.25 57.75,0 91.5,-42 91.5,-105 0,-18 0,-18 0,-18 z m 90.75,59.25 c -6.75,16.5 -21.75,27 -42,27 -21,0 -36,-10.5 -42.75,-27 -4.5,-9 -5.25,-15.75 -6,-29.25 96.75,0 96.75,0 96.75,0 -0.75,13.5 -1.5,20.25 -6,29.25 z" />
      <path
         id="path975"
         style="fill:#000000;fill-opacity:1;fill-rule:nonzero;stroke:none"
         d="m 5487.75,87.75 c -48.75,0 -96,29.25 -96,110.25 0,80.25 47.25,110.25 96,110.25 30,0 50.25,-9 71.25,-30.75 -30,-28.5 -30,-28.5 -30,-28.5 -13.5,15 -24,20.25 -41.25,20.25 -16.5,0 -30.75,-6.75 -39.75,-18.75 -9.75,-12 -12.75,-27.75 -12.75,-52.5 0,-25.5 3,-41.25 12.75,-52.5 9,-12.75 23.25,-19.5 39.75,-19.5 17.25,0 27.75,5.25 41.25,20.25 30,-28.5 30,-28.5 30,-28.5 -21,-21.75 -41.25,-30 -71.25,-30 z" />
      <path
         id="path977"
         style="fill:#000000;fill-opacity:1;fill-rule:nonzero;stroke:none"
         d="m 5740.5,90 c 0,131.25 0,131.25 0,131.25 0,33.75 -18.75,48 -43.5,48 -24,0 -44.25,-15 -44.25,-48 0,-131.25 0,-131.25 0,-131.25 -43.5,0 -43.5,0 -43.5,0 0,302.25 0,302.25 0,302.25 43.5,0 43.5,0 43.5,0 0,-108.75 0,-108.75 0,-108.75 14.25,16.5 34.5,24.75 56.25,24.75 22.5,0 40.5,-7.5 53.25,-19.5 16.5,-16.5 21.75,-36.75 21.75,-60.75 0,-138 0,-138 0,-138 z" />
      <path
         id="path979"
         style="fill:#000000;fill-opacity:1;fill-rule:nonzero;stroke:none"
         d="m 5982.75,90 c 0,131.25 0,131.25 0,131.25 0,33.75 -19.5,48 -43.5,48 -24,0 -45,-15 -45,-48 0,-131.25 0,-131.25 0,-131.25 -42.75,0 -42.75,0 -42.75,0 0,215.25 0,215.25 0,215.25 42,0 42,0 42,0 0,-21.75 0,-21.75 0,-21.75 15,16.5 36,24.75 57.75,24.75 21.75,0 39.75,-7.5 53.25,-19.5 16.5,-16.5 21,-36.75 21,-60.75 0,-138 0,-138 0,-138 z" />
      <path
         id="path981"
         style="fill:#000000;fill-opacity:1;fill-rule:nonzero;stroke:none"
         d="m 6237,113.25 c -14.25,-15 -35.25,-25.5 -64.5,-25.5 -29.25,0 -50.25,10.5 -64.5,25.5 -20.25,21 -25.5,48 -25.5,84.75 0,36 5.25,63 25.5,84.75 14.25,14.25 35.25,25.5 64.5,25.5 29.25,0 50.25,-11.25 64.5,-25.5 20.25,-21.75 25.5,-48.75 25.5,-84.75 0,-36.75 -5.25,-63.75 -25.5,-84.75 z m -33,144 c -7.5,7.5 -18.75,12 -31.5,12 -12.75,0 -23.25,-4.5 -31.5,-12 -13.5,-13.5 -15,-36 -15,-59.25 0,-23.25 1.5,-45.75 15,-59.25 8.25,-8.25 18.75,-12.75 31.5,-12.75 12.75,0 24,4.5 31.5,12.75 13.5,13.5 15,36 15,59.25 0,23.25 -1.5,45.75 -15,59.25 z" />
      <path
         id="path983"
         style="fill:#000000;fill-opacity:1;fill-rule:nonzero;stroke:none"
         d="m 6379.5,90 c -41.25,0 -59.25,27.75 -59.25,59.25 0,243 0,243 0,243 43.5,0 43.5,0 43.5,0 0,-240 0,-240 0,-240 0,-16.5 6,-25.5 23.25,-25.5 19.5,0 19.5,0 19.5,0 0,-36.75 0,-36.75 0,-36.75 z" />
      <path
         id="path985"
         style="fill:#000000;fill-opacity:1;fill-rule:nonzero;stroke:none"
         d="m 6594,113.25 c -14.25,-15 -35.25,-25.5 -64.5,-25.5 -29.25,0 -50.25,10.5 -64.5,25.5 -20.25,21 -25.5,48 -25.5,84.75 0,36 5.25,63 25.5,84.75 14.25,14.25 35.25,25.5 64.5,25.5 29.25,0 50.25,-11.25 64.5,-25.5 20.25,-21.75 25.5,-48.75 25.5,-84.75 0,-36.75 -5.25,-63.75 -25.5,-84.75 z m -33,144 c -7.5,7.5 -18.75,12 -31.5,12 -12.75,0 -23.25,-4.5 -31.5,-12 -13.5,-13.5 -15,-36 -15,-59.25 0,-23.25 1.5,-45.75 15,-59.25 8.25,-8.25 18.75,-12.75 31.5,-12.75 12.75,0 24,4.5 31.5,12.75 13.5,13.5 15,36 15,59.25 0,23.25 -1.5,45.75 -15,59.25 z" />
      <path
         id="path987"
         style="fill:#000000;fill-opacity:1;fill-rule:nonzero;stroke:none"
         d="m 6750.75,0 c -33,0 -53.25,8.25 -75.75,28.5 27,27.75 27,27.75 27,27.75 14.25,-12.75 26.25,-18.75 47.25,-18.75 36.75,0 50.25,25.5 50.25,54.75 0,27.75 0,27.75 0,27.75 -15.75,-18.75 -33.75,-24.75 -55.5,-24.75 -21.75,0 -39.75,6.75 -51.75,18.75 -20.25,21 -24,51 -24,87.75 0,36.75 3.75,66.75 24,87.75 12,12 30.75,18.75 52.5,18.75 22.5,0 39.75,-6 56.25,-25.5 0,22.5 0,22.5 0,22.5 42,0 42,0 42,0 C 6843,91.5 6843,91.5 6843,91.5 6843,38.25 6808.5,0 6750.75,0 Z m 5.25,269.25 c -39,0 -44.25,-33.75 -44.25,-67.5 0,-33.75 5.25,-67.5 44.25,-67.5 39,0 43.5,33.75 43.5,67.5 0,33.75 -4.5,67.5 -43.5,67.5 z" />
      <path
         id="path989"
         style="fill:#000000;fill-opacity:1;fill-rule:nonzero;stroke:none"
         d="m 6980.25,47.25 c -4.5,-12 -9.75,-21 -15.75,-27 -12,-12 -27.75,-15.75 -44.25,-15.75 -18,0 -18,0 -18,0 0,39 0,39 0,39 11.25,0 11.25,0 11.25,0 18,0 24.75,6 30.75,23.25 12,33.75 12,33.75 12,33.75 -75,204.75 -75,204.75 -75,204.75 45.75,0 45.75,0 45.75,0 51.75,-151.5 51.75,-151.5 51.75,-151.5 50.25,151.5 50.25,151.5 50.25,151.5 45.75,0 45.75,0 45.75,0 z" />
      <path
         id="path991"
         style="fill:#000000;fill-opacity:1;fill-rule:nonzero;stroke:none"
         d="m 7200,90 v 39.75 L 7339.5,351 H 7206 v 41.25 h 187.5 v -37.5 L 7253.25,131.25 H 7393.5 V 90 Z" />
      <path
         id="path993"
         style="fill:#000000;fill-opacity:1;fill-rule:nonzero;stroke:none"
         d="m 7578.75,90 c 0,21.75 0,21.75 0,21.75 -14.25,-16.5 -35.25,-24 -57,-24 -22.5,0 -40.5,6.75 -53.25,19.5 -16.5,15.75 -21.75,36 -21.75,60.75 0,137.25 0,137.25 0,137.25 43.5,0 43.5,0 43.5,0 0,-131.25 0,-131.25 0,-131.25 0,-33.75 19.5,-48 43.5,-48 24,0 44.25,15 44.25,48 0,131.25 0,131.25 0,131.25 43.5,0 43.5,0 43.5,0 0,-215.25 0,-215.25 0,-215.25 z" />
      <path
         id="path995"
         style="fill:#000000;fill-opacity:1;fill-rule:nonzero;stroke:none"
         d="m 7809.75,255 c -9.75,9.75 -18,14.25 -32.25,14.25 -24,0 -43.5,-18.75 -43.5,-48.75 0,-130.5 0,-130.5 0,-130.5 -42.75,0 -42.75,0 -42.75,0 0,215.25 0,215.25 0,215.25 42,0 42,0 42,0 0,-23.25 0,-23.25 0,-23.25 11.25,15 33,26.25 57.75,26.25 20.25,0 36,-6 51,-21 z" />
      <path
         id="path997"
         style="fill:#000000;fill-opacity:1;fill-rule:nonzero;stroke:none"
         d="m 7876.5,348 v 45.75 h 45.75 V 348 Z M 7878,90 v 215.25 h 43.5 V 90 Z" />
      <path
         id="path999"
         style="fill:#000000;fill-opacity:1;fill-rule:nonzero;stroke:none"
         d="m 8075.25,87.75 c -48,0 -96,29.25 -96,110.25 0,80.25 48,110.25 96,110.25 30,0 51,-9 71.25,-30.75 -30,-28.5 -30,-28.5 -30,-28.5 -13.5,15 -24,20.25 -41.25,20.25 -16.5,0 -30,-6.75 -39.75,-18.75 -9,-12 -12.75,-27.75 -12.75,-52.5 0,-25.5 3.75,-41.25 12.75,-52.5 9.75,-12.75 23.25,-19.5 39.75,-19.5 17.25,0 27.75,5.25 41.25,20.25 30,-28.5 30,-28.5 30,-28.5 -20.25,-21.75 -41.25,-30 -71.25,-30 z" />
      <path
         id="path1001"
         style="fill:#000000;fill-opacity:1;fill-rule:nonzero;stroke:none"
         d="m 8328,90 c 0,131.25 0,131.25 0,131.25 0,33.75 -18.75,48 -42.75,48 -24.75,0 -45,-15 -45,-48 0,-131.25 0,-131.25 0,-131.25 -43.5,0 -43.5,0 -43.5,0 0,302.25 0,302.25 0,302.25 43.5,0 43.5,0 43.5,0 0,-108.75 0,-108.75 0,-108.75 14.25,16.5 34.5,24.75 57,24.75 21.75,0 39.75,-7.5 52.5,-19.5 16.5,-16.5 21.75,-36.75 21.75,-60.75 0,-138 0,-138 0,-138 z" />
      <path
         id="path1003"
         style="fill:#000000;fill-opacity:1;fill-rule:nonzero;stroke:none"
         d="m 2247,1973.25 h -222.75 l 78,384.75 H 205.5 L 6,1365.75 h 756.75 l 49.5,247.5 h -447 l 27,136.5 h 447 l 45,223.5 h -447 l 27,136.5 h 708 l -149.25,-744 h 309.75 l 149.25,744 h 261 l -150,-744 h 310.5 l 76.5,384 h 222.75 l -76.5,-384 h 310.5 L 2635.5,2358 h -309.75 z" />
    </g>
  </g>
</svg>
