<?xml version="1.0" encoding="UTF-8" standalone="no"?>
<svg
   xmlns:dc="http://purl.org/dc/elements/1.1/"
   xmlns:cc="http://creativecommons.org/ns#"
   xmlns:rdf="http://www.w3.org/1999/02/22-rdf-syntax-ns#"
   xmlns:svg="http://www.w3.org/2000/svg"
   xmlns="http://www.w3.org/2000/svg"
   xmlns:sodipodi="http://sodipodi.sourceforge.net/DTD/sodipodi-0.dtd"
   xmlns:inkscape="http://www.inkscape.org/namespaces/inkscape"
   sodipodi:docname="ball_screw_simple.svg"
   inkscape:version="1.0.1 (3bc2e813f5, 2020-09-07)"
   id="svg853"
   version="1.1"
   viewBox="0 0 65.139183 16.923029"
   height="16.923029mm"
   width="65.139183mm">
  <defs
     id="defs847">
    <clipPath
       clipPathUnits="userSpaceOnUse"
       id="clipPath1432">
      <path
         d="m 0.32,15.04 h 1120.8 V 776.47998 H 0.32 Z"
         clip-rule="evenodd"
         id="path1430" />
    </clipPath>
    <clipPath
       clipPathUnits="userSpaceOnUse"
       id="clipPath1442">
      <path
         d="m 0.32,15.04 v 761.43998 h 1120.8 V 15.04 Z"
         clip-rule="evenodd"
         id="path1440" />
    </clipPath>
    <clipPath
       clipPathUnits="userSpaceOnUse"
       id="clipPath1542">
      <path
         d="m 0.32,15.04 v 761.43998 h 1120.8 V 15.04 Z"
         clip-rule="evenodd"
         id="path1540" />
    </clipPath>
  </defs>
  <sodipodi:namedview
     inkscape:window-maximized="1"
     inkscape:window-y="-11"
     inkscape:window-x="-11"
     inkscape:window-height="1346"
     inkscape:window-width="2560"
     fit-margin-bottom="0"
     fit-margin-right="0"
     fit-margin-left="0"
     fit-margin-top="0"
     showgrid="false"
     inkscape:document-rotation="0"
     inkscape:current-layer="layer1"
     inkscape:document-units="mm"
     inkscape:cy="75.766124"
     inkscape:cx="61.694644"
     inkscape:zoom="4.57"
     inkscape:pageshadow="2"
     inkscape:pageopacity="0.0"
     borderopacity="1.0"
     bordercolor="#666666"
     pagecolor="#ffffff"
     id="base" />
  <metadata
     id="metadata850">
    <rdf:RDF>
      <cc:Work
         rdf:about="">
        <dc:format>image/svg+xml</dc:format>
        <dc:type
           rdf:resource="http://purl.org/dc/dcmitype/StillImage" />
        <dc:title />
      </cc:Work>
    </rdf:RDF>
  </metadata>
  <g
     transform="translate(-11.298315,-17.92466)"
     id="layer1"
     inkscape:groupmode="layer"
     inkscape:label="Layer 1">
    <g
       style="stroke-width:0.42333333;stroke-miterlimit:4;stroke-dasharray:none"
       id="g3410">
      <g
         style="stroke:#000000;stroke-width:6.58795872;stroke-miterlimit:4;stroke-dasharray:none;stroke-opacity:1"
         id="g1436"
         transform="matrix(0.06425865,0,0,0.06425865,8.0456376,0.8796673)">
        <g
           style="stroke:#000000;stroke-width:6.58795872;stroke-miterlimit:4;stroke-dasharray:none;stroke-opacity:1"
           id="g1438"
           clip-path="url(#clipPath1442)">
          <g
             style="stroke:#000000;stroke-width:6.58795872;stroke-miterlimit:4;stroke-dasharray:none;stroke-opacity:1"
             id="g1444"
             transform="translate(589.66998,525.32001)">
            <path
               d="m 0,0 v -7.35 -7.7 -8.19 -8.42 -8.790001 -9.029999 -9.27 -9.510002 -9.75 -9.869995 -9.990006 -10.109997 -10.23 -10.24 -10.11 -10.22999 -10.11 -9.99001 -9.86999 -9.75 -9.51001 -9.26999 -9.03002 -8.78999 -8.42 -8.19 -7.7 -7.34999"
               style="fill:none;stroke:#000000;stroke-width:6.58795872;stroke-linecap:round;stroke-linejoin:bevel;stroke-miterlimit:4;stroke-dasharray:none;stroke-opacity:1"
               id="path1446" />
          </g>
          <g
             style="stroke:#000000;stroke-width:6.58795872;stroke-miterlimit:4;stroke-dasharray:none;stroke-opacity:1"
             id="g1448">
            <path
               d="m 666.84998,268.54999 h -77.18"
               style="fill:none;stroke:#000000;stroke-width:6.58795872;stroke-linecap:round;stroke-linejoin:bevel;stroke-miterlimit:4;stroke-dasharray:none;stroke-opacity:1"
               id="path1450" />
          </g>
          <g
             style="stroke:#000000;stroke-width:6.58795872;stroke-miterlimit:4;stroke-dasharray:none;stroke-opacity:1"
             id="g1452"
             transform="translate(666.84998,525.32001)">
            <path
               d="m 0,0 v -7.35 -7.7 -8.19 -8.42 -8.790001 -9.029999 -9.27 -9.510002 -9.75 -9.869995 -9.990006 -10.109997 -10.23 -10.24 -10.11 -10.22999 -10.11 -9.99001 -9.86999 -9.75 -9.51001 -9.26999 -9.03002 -8.78999 -8.42 -8.19 -7.7 -7.34999"
               style="fill:none;stroke:#000000;stroke-width:6.58795872;stroke-linecap:round;stroke-linejoin:bevel;stroke-miterlimit:4;stroke-dasharray:none;stroke-opacity:1"
               id="path1454" />
          </g>
          <g
             style="stroke:#000000;stroke-width:6.58795872;stroke-miterlimit:4;stroke-dasharray:none;stroke-opacity:1"
             id="g1456">
            <path
               d="m 666.84998,525.32001 h -77.18"
               style="fill:none;stroke:#000000;stroke-width:6.58795872;stroke-linecap:round;stroke-linejoin:bevel;stroke-miterlimit:4;stroke-dasharray:none;stroke-opacity:1"
               id="path1458" />
          </g>
          <g
             style="stroke:#000000;stroke-width:6.58795872;stroke-miterlimit:4;stroke-dasharray:none;stroke-opacity:1"
             id="g1460">
            <path
               d="M 666.84998,486.79999 H 859.79999"
               style="fill:none;stroke:#000000;stroke-width:6.58795872;stroke-linecap:round;stroke-linejoin:bevel;stroke-miterlimit:4;stroke-dasharray:none;stroke-opacity:1"
               id="path1462" />
          </g>
          <g
             style="stroke:#000000;stroke-width:6.58795872;stroke-miterlimit:4;stroke-dasharray:none;stroke-opacity:1"
             id="g1464">
            <path
               d="M 859.79999,307.07001 H 666.84998"
               style="fill:none;stroke:#000000;stroke-width:6.58795872;stroke-linecap:round;stroke-linejoin:bevel;stroke-miterlimit:4;stroke-dasharray:none;stroke-opacity:1"
               id="path1466" />
          </g>
          <g
             style="stroke:#000000;stroke-width:6.58795872;stroke-miterlimit:4;stroke-dasharray:none;stroke-opacity:1"
             id="g1468"
             transform="translate(859.79999,486.79999)">
            <path
               d="m 0,0 v -0.25 -0.84 -1.56 -1.93 -2.65 -3.01 -3.61 -4.209999 -4.58 V -27.57 -32.990002 -38.77 v -6.130002 -6.379997 -6.75 -6.86 -6.980004 -7.219993 -7.100006 -7.349999 -7.219999 -7.1 -6.98 -6.87 -6.74 -6.38 -6.14 -5.77 -5.42 -4.94001 -4.56999 -4.21 -3.61 -3.01 -2.64999 -2.05001 -1.44 -0.85 -0.24"
               style="fill:none;stroke:#000000;stroke-width:6.58795872;stroke-linecap:round;stroke-linejoin:bevel;stroke-miterlimit:4;stroke-dasharray:none;stroke-opacity:1"
               id="path1470" />
          </g>
          <g
             style="stroke:#000000;stroke-width:6.58795872;stroke-miterlimit:4;stroke-dasharray:none;stroke-opacity:1"
             id="g1472"
             transform="translate(972.91998,349.57001)">
            <path
               d="M 0,0 -0.24,0.12 -0.48,0.36 -0.72,0.48 -1.08,0.72 -1.32,0.84 -1.69,0.96 -2.17,1.2 -2.53,1.32 -3.01,1.44 -3.49,1.56 -4.22,1.68 -4.82,1.8 H -6.15 L -7.47,1.56 -8.08,1.32 -8.8,1.08 -9.4,0.84 -9.89,0.6 l -0.6,-0.36 -0.48,-0.36 -0.36,-0.37 -0.37,-0.36 -0.24,-0.24 -0.24,-0.24 -0.24,-0.24 -0.12,-0.24 -0.12,-0.24 -0.12,-0.12 -0.12,-0.12"
               style="fill:none;stroke:#000000;stroke-width:6.58795872;stroke-linecap:round;stroke-linejoin:bevel;stroke-miterlimit:4;stroke-dasharray:none;stroke-opacity:1"
               id="path1474" />
          </g>
          <g
             style="stroke:#000000;stroke-width:6.58795872;stroke-miterlimit:4;stroke-dasharray:none;stroke-opacity:1"
             id="g1476"
             transform="translate(941.45001,347.39999)">
            <path
               d="m 0,0 -0.12,0.24 -0.24,0.24 -0.25,0.48 -0.24,0.24 -0.24,0.24 -0.24,0.24 -0.36,0.37 -0.36,0.36 -0.49,0.24 -0.48,0.36 -0.6,0.36 -1.21,0.48 -1.2,0.24 -1.45,0.12 h -1.33 l -0.72,-0.12 -0.6,-0.24 -0.49,-0.12 -0.6,-0.24 -0.24,-0.12 -0.24,-0.12 h -0.12 l -0.24,-0.12 -0.12,-0.12 -0.24,-0.12 -0.12,-0.12 -0.13,-0.12 h -0.12 l -0.24,-0.12 -0.12,-0.12 -0.12,-0.12 v 0 h -0.12 V 2.17 h -0.12 L -13.63,2.05 -13.75,1.93 -13.99,1.68 -14.11,1.56 -14.35,1.32 -14.47,1.08 -14.72,0.72 -14.96,0.48 -15.08,0.24 V 0.12 L -15.2,0 v 0 0"
               style="fill:none;stroke:#000000;stroke-width:6.58795872;stroke-linecap:round;stroke-linejoin:bevel;stroke-miterlimit:4;stroke-dasharray:none;stroke-opacity:1"
               id="path1478" />
          </g>
          <g
             style="stroke:#000000;stroke-width:6.58795872;stroke-miterlimit:4;stroke-dasharray:none;stroke-opacity:1"
             id="g1480"
             transform="translate(908.65002,348)">
            <path
               d="M 0,0 -0.25,0.12 -0.37,0.36 -0.49,0.6 -0.61,0.72 -0.85,0.96 -0.97,1.08 -1.09,1.33 -1.21,1.45 -1.45,1.57 -1.81,1.93 -2.3,2.29 -2.66,2.53 -3.02,2.77 -3.62,3.01 -4.11,3.25 -4.47,3.49 -4.83,3.61 -5.43,3.73 -5.91,3.85 -6.64,3.97 H -7.36 -8.08 -8.81 L -10.13,3.61 -11.46,3.13 -12.06,2.77 -12.67,2.53 -13.15,2.17 -13.51,1.81 -13.87,1.45 -14.24,1.21 -14.48,0.84 -14.6,0.6 -14.96,0.24 -15.08,0 -15.2,-0.24 v 0 0"
               style="fill:none;stroke:#000000;stroke-width:6.58795872;stroke-linecap:round;stroke-linejoin:bevel;stroke-miterlimit:4;stroke-dasharray:none;stroke-opacity:1"
               id="path1482" />
          </g>
          <g
             style="stroke:#000000;stroke-width:6.58795872;stroke-miterlimit:4;stroke-dasharray:none;stroke-opacity:1"
             id="g1484"
             transform="translate(876.08002,348)">
            <path
               d="M 0,0 V 0 0.12 0.24 L -0.12,0.36 -0.36,0.6 -0.6,1.08 -1.08,1.57 -1.32,1.81 -1.56,2.05 -1.93,2.29 -2.29,2.53 -2.77,2.89 -3.25,3.25 -3.85,3.49 -4.46,3.73 -5.78,4.09 -7.23,4.33 -8.68,4.21 -10.01,3.97 -10.61,3.73 -11.21,3.61 -11.69,3.37 -12.18,3.13 -12.3,3.01 -12.54,2.89 -12.66,2.77 -12.9,2.65 -13.14,2.41 -13.38,2.29 -13.5,2.17 -13.62,2.05 h -0.12 V 1.93 h -0.12 V 1.81 h -0.12 v 0 -0.12 h -0.13 L -14.23,1.57 V 1.45 L -14.47,1.21 -14.59,1.08 -14.71,0.84 -14.83,0.72 -14.95,0.36 -15.07,0.24 -15.19,0"
               style="fill:none;stroke:#000000;stroke-width:6.58795872;stroke-linecap:round;stroke-linejoin:bevel;stroke-miterlimit:4;stroke-dasharray:none;stroke-opacity:1"
               id="path1486" />
          </g>
          <g
             style="stroke:#000000;stroke-width:6.58795872;stroke-miterlimit:4;stroke-dasharray:none;stroke-opacity:1"
             id="g1488"
             transform="translate(589.66998,356.19)">
            <path
               d="M 0,0 -0.12,0.12 -0.36,0.36 -0.72,0.48 -1.33,0.84 -1.93,1.2 -2.89,1.44 -3.86,1.68 -5.06,1.8 H -6.27 L -7.6,1.56 -8.8,1.2 -9.41,0.96 -9.89,0.72 l -0.6,-0.36 -0.36,-0.24 -0.61,-0.48"
               style="fill:none;stroke:#000000;stroke-width:6.58795872;stroke-linecap:round;stroke-linejoin:bevel;stroke-miterlimit:4;stroke-dasharray:none;stroke-opacity:1"
               id="path1490" />
          </g>
          <g
             style="stroke:#000000;stroke-width:6.58795872;stroke-miterlimit:4;stroke-dasharray:none;stroke-opacity:1"
             id="g1492"
             transform="translate(559.88,353.66)">
            <path
               d="m 0,0 -0.12,0.24 -0.24,0.24 -0.36,0.48 -0.24,0.24 -0.24,0.36 -0.36,0.37 -0.49,0.24 -0.48,0.48 -0.6,0.24 -0.61,0.36 -0.6,0.24 -0.72,0.24 -0.73,0.24 h -0.6 L -7.11,4.09 H -7.59 -8.2 -8.56 L -9.04,3.97 -9.89,3.85 -10.61,3.49 -11.21,3.37 -11.69,3.13 -12.06,2.89 -12.42,2.65 -12.66,2.53 -12.9,2.29 -13.26,2.05 -13.62,1.8 -13.74,1.68"
               style="fill:none;stroke:#000000;stroke-width:6.58795872;stroke-linecap:round;stroke-linejoin:bevel;stroke-miterlimit:4;stroke-dasharray:none;stroke-opacity:1"
               id="path1494" />
          </g>
          <g
             style="stroke:#000000;stroke-width:6.58795872;stroke-miterlimit:4;stroke-dasharray:none;stroke-opacity:1"
             id="g1496"
             transform="translate(527.92999,353.29999)">
            <path
               d="M 0,0 V 0.12 L -0.13,0.24 -0.25,0.48 -0.49,0.72 -0.85,1.2 -1.21,1.56 -1.69,1.92 -2.05,2.29 -2.42,2.53 -2.9,2.89 -3.38,3.13 -4.11,3.49 -4.95,3.73 -6.03,3.97 -7.12,4.09 -8.57,3.97 -9.89,3.73 -10.5,3.49 -11.1,3.25 -11.7,3.01 -12.18,2.77 -12.91,2.16 -13.63,1.68 -13.87,1.44"
               style="fill:none;stroke:#000000;stroke-width:6.58795872;stroke-linecap:round;stroke-linejoin:bevel;stroke-miterlimit:4;stroke-dasharray:none;stroke-opacity:1"
               id="path1498" />
          </g>
          <g
             style="stroke:#000000;stroke-width:6.58795872;stroke-miterlimit:4;stroke-dasharray:none;stroke-opacity:1"
             id="g1500"
             transform="translate(496.20999,352.45999)">
            <path
               d="M 0,0 V 0.12 L -0.12,0.36 -0.36,0.72 -0.6,0.96 -0.72,1.2 -0.97,1.44 -1.33,1.8 -1.69,2.04 -2.05,2.4 l -0.48,0.36 -0.61,0.37 -0.6,0.36 -0.6,0.24 -0.61,0.24 -0.6,0.12 -0.48,0.12 h -0.6 L -7.12,4.33 H -7.6 L -8.32,4.21 H -9.17 L -9.65,4.09 -10.13,3.97 -10.98,3.61 -11.82,3.25 -12.18,3 -12.66,2.76 -13.03,2.4 -13.39,2.16 -14.23,1.32"
               style="fill:none;stroke:#000000;stroke-width:6.58795872;stroke-linecap:round;stroke-linejoin:bevel;stroke-miterlimit:4;stroke-dasharray:none;stroke-opacity:1"
               id="path1502" />
          </g>
          <g
             style="stroke:#000000;stroke-width:6.58795872;stroke-miterlimit:4;stroke-dasharray:none;stroke-opacity:1"
             id="g1504"
             transform="translate(464.37,351.13)">
            <path
               d="M 0,0 -0.12,0.12 -0.24,0.48 -0.48,0.84 -0.84,1.2 -1.33,1.69 -1.81,2.05 -2.17,2.41 -2.53,2.77 -3.01,3.01 -3.5,3.25 -3.98,3.49 -4.82,3.73 -5.67,3.97 -6.75,4.21 h -1.09 -0.6 L -9.16,4.09 -9.77,3.97 -10.49,3.73 -11.58,3.25 -12.66,2.65 -13.38,2.05 -13.99,1.57 -14.35,1.08 -14.59,0.84 -14.71,0.6"
               style="fill:none;stroke:#000000;stroke-width:6.58795872;stroke-linecap:round;stroke-linejoin:bevel;stroke-miterlimit:4;stroke-dasharray:none;stroke-opacity:1"
               id="path1506" />
          </g>
          <g
             style="stroke:#000000;stroke-width:6.58795872;stroke-miterlimit:4;stroke-dasharray:none;stroke-opacity:1"
             id="g1508"
             transform="translate(430.48001,348.35999)">
            <path
               d="M 0,0 V 0 0 0.12 H -0.12 V 0.24 L -0.24,0.36 -0.36,0.6 -0.6,0.72 -0.84,1.09 -1.08,1.33 -1.44,1.57 -1.8,1.93 -2.17,2.29 -2.65,2.53 -3.25,2.89 -4.1,3.25 -5.18,3.61 -6.15,3.73 -6.99,3.85 H -7.47 L -8.08,3.73"
               style="fill:none;stroke:#000000;stroke-width:6.58795872;stroke-linecap:round;stroke-linejoin:bevel;stroke-miterlimit:4;stroke-dasharray:none;stroke-opacity:1"
               id="path1510" />
          </g>
          <g
             style="stroke:#000000;stroke-width:6.58795872;stroke-miterlimit:4;stroke-dasharray:none;stroke-opacity:1"
             id="g1512"
             transform="translate(433.01999,444.06)">
            <path
               d="m 0,0 v 0 -0.12 l 0.24,-0.24 0.12,-0.36 0.36,-0.36 0.24,-0.24 0.24,-0.24 0.36,-0.36 0.49,-0.37 0.48,-0.36 0.6,-0.36 0.61,-0.24 0.72,-0.36 0.72,-0.12 0.73,-0.24 0.6,-0.12 h 0.72 0.73 l 0.72,0.12 0.48,0.12 h 0.48 l 0.49,0.12 0.36,0.12 0.24,0.12 0.36,0.12 0.24,0.24 0.36,0.12 0.25,0.12 0.24,0.12 0.24,0.12 0.12,0.12 0.36,0.24 0.24,0.25 0.36,0.24 0.24,0.24 0.37,0.36 0.24,0.36 0.24,0.24 0.12,0.24 0.12,0.12"
               style="fill:none;stroke:#000000;stroke-width:6.58795872;stroke-linecap:round;stroke-linejoin:bevel;stroke-miterlimit:4;stroke-dasharray:none;stroke-opacity:1"
               id="path1514" />
          </g>
          <g
             style="stroke:#000000;stroke-width:6.58795872;stroke-miterlimit:4;stroke-dasharray:none;stroke-opacity:1"
             id="g1516"
             transform="translate(465.22,441.76999)">
            <path
               d="m 0,0 v 0 l 0.12,-0.12 0.12,-0.24 0.24,-0.36 0.36,-0.36 0.24,-0.36 0.24,-0.24 0.36,-0.24 0.25,-0.24 0.36,-0.36 0.48,-0.24 0.24,-0.12 0.36,-0.25 0.24,-0.12 0.24,-0.12 0.61,-0.24 0.48,-0.12 0.84,-0.24 0.97,-0.12 h 0.48 0.6 0.73 l 0.6,0.12 0.72,0.12 0.61,0.24 0.72,0.24 0.6,0.24 0.49,0.37 0.6,0.36 0.36,0.36 0.36,0.24 0.36,0.36 0.25,0.24 0.24,0.36"
               style="fill:none;stroke:#000000;stroke-width:6.58795872;stroke-linecap:round;stroke-linejoin:bevel;stroke-miterlimit:4;stroke-dasharray:none;stroke-opacity:1"
               id="path1518" />
          </g>
          <g
             style="stroke:#000000;stroke-width:6.58795872;stroke-miterlimit:4;stroke-dasharray:none;stroke-opacity:1"
             id="g1520"
             transform="translate(497.04999,440.81)">
            <path
               d="m 0,0 0.12,-0.12 0.12,-0.24 0.25,-0.24 0.12,-0.24 0.12,-0.24 0.24,-0.24 0.36,-0.24 0.36,-0.36 0.48,-0.37 0.49,-0.36 0.6,-0.36 0.6,-0.24 0.6,-0.24 0.61,-0.24 0.72,-0.12 0.72,-0.12 0.73,-0.12 h 0.6 l 0.6,0.12 h 0.37 l 0.48,0.12 0.6,0.12 0.48,0.12 0.49,0.12 0.36,0.24 0.36,0.12 0.36,0.24 0.48,0.24 0.37,0.24 0.6,0.49 0.48,0.48 0.12,0.12"
               style="fill:none;stroke:#000000;stroke-width:6.58795872;stroke-linecap:round;stroke-linejoin:bevel;stroke-miterlimit:4;stroke-dasharray:none;stroke-opacity:1"
               id="path1522" />
          </g>
          <g
             style="stroke:#000000;stroke-width:6.58795872;stroke-miterlimit:4;stroke-dasharray:none;stroke-opacity:1"
             id="g1524"
             transform="translate(528.89001,440.45001)">
            <path
               d="M 0,0 V 0 -0.12 L 0.12,-0.24 0.24,-0.36 0.36,-0.6 0.48,-0.72 0.6,-0.96 0.84,-1.2 1.09,-1.56 1.45,-1.81 1.69,-2.05 2.05,-2.29 2.41,-2.65 2.65,-2.77 3.01,-3.01 3.26,-3.13 3.5,-3.25 l 0.6,-0.24 0.48,-0.24 0.97,-0.24 0.96,-0.12 1.21,-0.12 1.2,0.12 0.73,0.12 0.72,0.24 0.6,0.24 0.61,0.24 0.6,0.36 0.48,0.36 0.48,0.24 0.37,0.36 0.36,0.37"
               style="fill:none;stroke:#000000;stroke-width:6.58795872;stroke-linecap:round;stroke-linejoin:bevel;stroke-miterlimit:4;stroke-dasharray:none;stroke-opacity:1"
               id="path1526" />
          </g>
          <g
             style="stroke:#000000;stroke-width:6.58795872;stroke-miterlimit:4;stroke-dasharray:none;stroke-opacity:1"
             id="g1528"
             transform="translate(560.72998,440.09)">
            <path
               d="m 0,0 v 0 l 0.12,-0.24 0.24,-0.36 0.36,-0.36 0.48,-0.61 0.36,-0.24 0.25,-0.36 0.48,-0.36 0.48,-0.24 0.6,-0.36 0.61,-0.24 0.6,-0.24 0.6,-0.24 1.09,-0.24 H 7.35 8.2 l 0.84,0.12 0.6,0.12 0.61,0.12 0.96,0.36 0.97,0.48 0.36,0.24 0.36,0.24 0.72,0.6"
               style="fill:none;stroke:#000000;stroke-width:6.58795872;stroke-linecap:round;stroke-linejoin:bevel;stroke-miterlimit:4;stroke-dasharray:none;stroke-opacity:1"
               id="path1530" />
          </g>
        </g>
      </g>
      <g
         style="stroke:#000000;stroke-width:6.58795872;stroke-miterlimit:4;stroke-dasharray:none;stroke-opacity:1"
         id="g1532"
         transform="matrix(0.06425865,0,0,0.06425865,8.0456376,0.8796673)">
        <path
           d="M 859.84003,445.44 H 860 v 0.16001 h -0.15997 z"
           style="fill:#000000;fill-opacity:1;fill-rule:nonzero;stroke:#000000;stroke-width:6.58795872;stroke-miterlimit:4;stroke-dasharray:none;stroke-opacity:1"
           id="path1534" />
      </g>
      <g
         style="stroke:#000000;stroke-width:6.58795872;stroke-miterlimit:4;stroke-dasharray:none;stroke-opacity:1"
         id="g1544"
         transform="matrix(0.06425865,0,0,0.06425865,64.411396,29.538382)">
        <path
           d="m 0,0 v 0 -0.12 l 0.12,-0.24 0.12,-0.24 0.24,-0.24 0.24,-0.37 0.37,-0.36 0.48,-0.36 0.36,-0.48 0.48,-0.24 0.48,-0.36 0.49,-0.24 0.6,-0.36 0.6,-0.12 0.48,-0.24 h 0.37 l 0.36,-0.12 0.6,-0.13 h 0.48 l 0.61,-0.12 0.6,0.12 h 0.84 l 0.73,0.13 0.6,0.24 0.72,0.24 0.73,0.36 0.72,0.36 0.36,0.24 0.36,0.24 0.37,0.36 0.24,0.24 0.36,0.36 0.24,0.24 0.24,0.24 0.24,0.37 0.24,0.36 0.12,0.12 V 0"
           style="fill:none;stroke:#000000;stroke-width:6.58795872;stroke-linecap:round;stroke-linejoin:bevel;stroke-miterlimit:4;stroke-dasharray:none;stroke-opacity:1"
           id="path1546" />
      </g>
      <g
         style="stroke:#000000;stroke-width:6.58795872;stroke-miterlimit:4;stroke-dasharray:none;stroke-opacity:1"
         id="g1548"
         transform="matrix(0.06425865,0,0,0.06425865,66.511369,29.553805)">
        <path
           d="m 0,0 0.12,-0.12 0.12,-0.24 0.24,-0.36 0.24,-0.36 0.37,-0.37 0.36,-0.48 0.6,-0.36 0.72,-0.6 0.85,-0.48 1.2,-0.48 1.33,-0.24 1.33,-0.12 1.45,0.12 0.72,0.12 0.6,0.12 0.48,0.24 0.61,0.24 0.48,0.24 0.36,0.24 0.36,0.12 0.36,0.24 0.25,0.24 0.24,0.24 0.24,0.12 0.12,0.24 0.48,0.36 0.24,0.37 0.24,0.24 0.12,0.24 0.12,0.24 0.13,0.12 L 15.2,0 v 0 0"
           style="fill:none;stroke:#000000;stroke-width:6.58795872;stroke-linecap:round;stroke-linejoin:bevel;stroke-miterlimit:4;stroke-dasharray:none;stroke-opacity:1"
           id="path1550" />
      </g>
      <g
         style="stroke:#000000;stroke-width:6.58795872;stroke-miterlimit:4;stroke-dasharray:none;stroke-opacity:1"
         id="g1552"
         transform="matrix(0.06425865,0,0,0.06425865,68.634477,29.584648)">
        <path
           d="M 0,0 V 0 0 -0.12 H 0.12 V -0.24 L 0.25,-0.36 0.37,-0.6 0.61,-0.96 0.85,-1.32 1.21,-1.69 1.57,-2.05 1.93,-2.29 2.3,-2.53 2.66,-2.89 2.9,-3.01 3.26,-3.25 3.98,-3.49 4.71,-3.85 5.31,-3.97 5.79,-4.09 6.15,-4.21 h 0.37 l 0.84,-0.12 h 0.72 0.25 l 0.36,0.12 h 0.36 l 0.36,0.12 0.48,0.12 0.49,0.12 0.36,0.12 0.48,0.12 0.6,0.36 0.61,0.24 0.48,0.36 0.48,0.48 0.48,0.36 0.36,0.37 0.25,0.24 0.24,0.36 0.12,0.24 0.12,0.12 0.12,0.24 h 0.12"
           style="fill:none;stroke:#000000;stroke-width:6.58795872;stroke-linecap:round;stroke-linejoin:bevel;stroke-miterlimit:4;stroke-dasharray:none;stroke-opacity:1"
           id="path1554" />
      </g>
      <g
         style="stroke:#000000;stroke-width:6.58795872;stroke-miterlimit:4;stroke-dasharray:none;stroke-opacity:1"
         id="g1556"
         transform="matrix(0.06425865,0,0,0.06425865,35.188491,23.636226)">
        <path
           d="M 0,0 V 0.6 L 0.12,1.2 V 1.81 2.65 L 0.25,3.37 V 4.33 L 0.37,5.18 V 6.26 6.5 6.74 6.98 l 0.12,0.36 v 0.49 0.6 l 0.12,1.08 v 1.32 l 0.12,1.21 v 1.32 l 0.12,1.33 v 1.439999 L 0.97,16.85 v 0.73 0.360001 0.359998 L 1.09,18.66 v 0.36 1.57 l 0.12,1.56 0.12,3.25 0.24,3.25 0.12,1.809999 v 1.68 l 0.12,0.48 V 32.98 v 0.490001 0.48 0.84 l 0.12,0.84 0.12,1.809998 0.12,1.800003 v 1.809997 L 2.3,42.849998 2.42,44.66 2.54,46.470001 v 0.84 L 2.66,48.27 v 0.96 l 0.12,0.850002 0.12,1.799999 0.12,1.809998 v 1.800003 L 3.14,57.18 l 0.24,3.489998 0.24,3.370003 0.12,0.839996 v 0.850006 L 3.86,66.57 v 0.840004 l 0.12,1.569999 0.12,1.559998 0.25,1.57 0.12,1.440002 0.12,1.57 0.12,1.319999 v 0.720002 l 0.12,0.719993 V 78.25 l 0.12,0.360001 v 0.36 0.239998 l 0.12,1.32 0.12,1.330002 0.24,1.199997 0.12,1.200004 0.12,1.089996 0.12,1.080002 0.24,0.959999 0.12,0.970002 v 0.239997 0.239998 l 0.13,0.240006 V 89.32 l 0.12,0.480003 v 0.360001"
           style="fill:none;stroke:#000000;stroke-width:6.58795872;stroke-linecap:round;stroke-linejoin:bevel;stroke-miterlimit:4;stroke-dasharray:none;stroke-opacity:1"
           id="path1558" />
      </g>
      <g
         style="stroke:#000000;stroke-width:6.58795872;stroke-miterlimit:4;stroke-dasharray:none;stroke-opacity:1"
         id="g1560"
         transform="matrix(0.06425865,0,0,0.06425865,35.188491,23.512206)">
        <path
           d="M 0,0 V 0 0.12 0.37 0.73 0.97 1.09 1.21 1.33 1.45 1.69 1.93"
           style="fill:none;stroke:#000000;stroke-width:6.58795872;stroke-linecap:round;stroke-linejoin:bevel;stroke-miterlimit:4;stroke-dasharray:none;stroke-opacity:1"
           id="path1562" />
      </g>
      <g
         style="stroke:#000000;stroke-width:6.58795872;stroke-miterlimit:4;stroke-dasharray:none;stroke-opacity:1"
         id="g1564"
         transform="matrix(0.06425865,0,0,0.06425865,69.69667,29.685535)">
        <path
           d="m 0,0 -0.25,-0.13 -0.36,-0.12 -0.24,-0.36 -0.12,-0.24 -0.12,-0.24 -0.12,-0.24 v -0.12 l -0.12,-0.12 v -0.24 l -0.36,-0.72 -0.24,-0.85 -0.24,-1.08 -0.37,-1.08 -0.12,-0.6 -0.12,-0.73 V -7.23 L -2.9,-7.59 v -0.12 l -0.12,-0.12 v -0.24 -0.12 l -0.24,-1.57 -0.36,-1.56 -0.24,-1.81 -0.24,-1.8 -0.25,-1.930001 -0.36,-1.92 v -0.359998 -0.25 l -0.12,-0.24 v -0.240002 -0.599998 l -0.12,-0.480002 -0.12,-1.08 -0.12,-1.09 L -5.55,-25.4 -5.79,-27.690001 -6.03,-30.1 -6.28,-32.509998 -6.4,-33.23 -6.52,-33.830002 V -34.43 l -0.12,-0.599999 -0.12,-1.330002 -0.12,-1.2 -0.24,-2.649998 -0.24,-2.530003 -0.36,-2.649997 -0.24,-2.650002 -0.12,-1.32 L -8.2,-50.68 -8.33,-51.41 v -0.599998 L -8.45,-52.73 -8.57,-53.450001 -8.81,-56.099998 -9.05,-58.75 l -0.24,-2.529999 -0.36,-2.639999 -0.24,-2.529999 -0.24,-2.530006 -0.12,-0.599999 V -70.18 l -0.13,-0.730004 v -0.599998 l -0.24,-1.199997 -0.12,-1.209999 -0.24,-2.279999 -0.24,-2.290001 -0.24,-2.290001 -0.36,-2.160003 V -83.43 l -0.12,-0.480004 v -0.239998 -0.239997 L -12.06,-84.75 v -0.239998 l -0.12,-0.959999 -0.12,-0.970001 -0.25,-1.919998 -0.36,-1.690003 -0.24,-1.68 -0.24,-1.57 -0.12,-0.720001 -0.12,-0.720001 -0.12,-0.119995 v -0.240006 -0.119995 l -0.12,-0.25 v -0.240005 l -0.12,-0.360001 -0.24,-1.199997 -0.25,-1.080002 -0.24,-0.970001 -0.36,-0.839997 -0.12,-0.36 -0.12,-0.24 -0.12,-0.24 v -0.12 l -0.12,-0.12 v -0.12 l -0.24,-0.36 -0.36,-0.37 -0.25,-0.12 h -0.24 l -0.239999,0.12 -0.360001,0.25 v 0.12 l -0.120001,0.12 v 0.12 l -0.119999,0.12 -0.120001,0.24 -0.119999,0.24 -0.239999,0.6"
           style="fill:none;stroke:#000000;stroke-width:6.58795872;stroke-linecap:round;stroke-linejoin:bevel;stroke-miterlimit:4;stroke-dasharray:none;stroke-opacity:1"
           id="path1566" />
      </g>
      <g
         style="stroke:#000000;stroke-width:6.58795872;stroke-miterlimit:4;stroke-dasharray:none;stroke-opacity:1"
         id="g1568"
         transform="matrix(0.06425865,0,0,0.06425865,67.580634,29.685535)">
        <path
           d="m 0,0 h -0.24 v 0 l -0.12,-0.13 h -0.12 v -0.12 l -0.24,-0.24 -0.36,-0.48 -0.24,-0.6 -0.24,-0.72 -0.13,-0.36 -0.12,-0.48 -0.12,-0.25 V -3.62 L -2.05,-3.86 V -4.1 l -0.36,-1.08 -0.24,-1.33 -0.24,-1.32 -0.24,-1.44 -0.36,-1.57 -0.25,-1.68 v -0.49 l -0.12,-0.36 -0.12,-0.48 v -0.48 l -0.12,-0.96 -0.12,-0.97 -0.36,-1.92 -0.24,-2.05 -0.24,-2.159999 L -5.3,-24.68 -5.42,-25.280001 V -25.77 l -0.12,-0.600001 v -0.599998 L -5.79,-28.17 l -0.12,-1.209999 -0.24,-2.400002 -0.24,-2.53 -0.24,-2.529999 -0.36,-2.529999 -0.12,-1.32 L -7.23,-42.02 v -0.239998 -0.360001 L -7.35,-42.98 v -0.36 l -0.12,-0.599999 V -44.66 l -0.24,-2.650001 -0.37,-2.649998 -0.24,-2.650002 -0.24,-2.649997 -0.12,-1.320004 L -8.8,-57.91 -8.92,-58.509998 V -59.23 l -0.12,-0.240001 v -0.360001 -0.359997 -0.36 l -0.36,-2.530003 -0.24,-2.650001 -0.25,-2.529999 -0.24,-2.409996 -0.36,-2.400002 -0.24,-2.410003 v -0.599999 L -10.85,-76.68 v -0.610001 l -0.12,-0.599998 -0.12,-1.080002 -0.12,-1.089997 -0.24,-2.160003 -0.37,-2.049996 -0.24,-2.040001 -0.24,-1.93 -0.12,-0.840004 -0.12,-0.970001 -0.12,-0.839996 -0.24,-0.840004 -0.24,-1.57 -0.24,-1.439995 -0.24,-1.450004 -0.25,-1.199997 -0.24,-0.599999 -0.12,-0.480003 v -0.239998 L -14.35,-99.07 v -0.25 l -0.12,-0.239998 -0.24,-0.840002 -0.24,-0.72 -0.36,-0.6 -0.24,-0.36 -0.24,-0.37 -0.250001,-0.24 H -16.16 v 0 0 0 H -16.280001 -16.4 -16.52 l -0.119999,0.12 -0.24,0.12 -0.240002,0.37 -0.24,0.48 -0.359998,0.72 v 0.12 l -0.120001,0.24 v 0.12 0 l -0.129999,0.12"
           style="fill:none;stroke:#000000;stroke-width:6.58795872;stroke-linecap:round;stroke-linejoin:bevel;stroke-miterlimit:4;stroke-dasharray:none;stroke-opacity:1"
           id="path1570" />
      </g>
      <g
         style="stroke:#000000;stroke-width:6.58795872;stroke-miterlimit:4;stroke-dasharray:none;stroke-opacity:1"
         id="g1572"
         transform="matrix(0.06425865,0,0,0.06425865,65.488372,29.685535)">
        <path
           d="M 0,0 H -0.12 L -0.36,-0.13 -0.6,-0.37 -0.72,-0.61 -0.96,-0.85 v -0.12 l -0.12,-0.12 v -0.12 l -0.12,-0.12 -0.24,-0.72 -0.25,-0.84 -0.24,-0.85 -0.36,-1.08 -0.24,-1.2 -0.24,-1.33 v -0.24 l -0.12,-0.12 v -0.24 -0.12 l -0.12,-0.36 v -0.36 l -0.12,-0.85 -0.24,-0.72 -0.25,-1.68 -0.24,-1.69 -0.24,-1.92 -0.24,-1.93 -0.12,-0.479999 L -4.58,-18.66 v -0.24 -0.239999 -0.25 l -0.12,-0.24 -0.12,-1.08 -0.12,-1.080002 -0.24,-2.169998 -0.24,-2.290001 -0.37,-2.4 -0.24,-2.409999 -0.12,-1.210001 -0.12,-1.200001 -0.12,-0.719998 v -0.600002 l -0.12,-0.610001 V -36 l -0.24,-2.650002 -0.36,-2.519996 -0.24,-2.650002 -0.25,-2.650001 -0.12,-1.32 -0.12,-1.329998 -0.12,-0.600002 v -0.719998 l -0.12,-0.600002 V -51.77 l -0.36,-2.649998 -0.24,-2.640003 -0.24,-2.649998 -0.24,-2.650002 -0.36,-2.529998 -0.25,-2.529999 v -0.720001 l -0.12,-0.599999 v -0.599998 l -0.12,-0.600006 -0.12,-1.21 -0.12,-1.319999 -0.24,-2.290001 -0.36,-2.409996 -0.24,-2.279999 -0.24,-2.170006 -0.12,-0.479995 v -0.599999 l -0.12,-0.490005 v -0.479996 L -11.7,-84.75 l -0.12,-0.959999 -0.36,-1.93 -0.24,-1.800003 -0.24,-1.809998 -0.24,-1.57 -0.12,-0.840004 -0.24,-0.719993 V -94.5 v -0.239998 -0.120003 l -0.12,-0.239997 v -0.360001 l -0.12,-0.239998 -0.25,-1.330002 -0.24,-1.200004 -0.24,-0.969994 -0.36,-0.960003 -0.12,-0.36 -0.12,-0.36 V -101 l -0.12,-0.24 v 0 l -0.12,-0.12 v -0.12 0 l -0.24,-0.6 -0.36,-0.37 -0.25,-0.12 -0.24,-0.12 h -0.24 l -0.239999,0.24 H -16.76 v 0.13 l -0.119999,0.12 H -17 l -0.120001,0.24 -0.119999,0.24 -0.24,0.6 -0.25,0.72 -0.239999,0.599997"
           style="fill:none;stroke:#000000;stroke-width:6.58795872;stroke-linecap:round;stroke-linejoin:bevel;stroke-miterlimit:4;stroke-dasharray:none;stroke-opacity:1"
           id="path1574" />
      </g>
      <g
         style="stroke:#000000;stroke-width:6.58795872;stroke-miterlimit:4;stroke-dasharray:none;stroke-opacity:1"
         id="g1576"
         transform="matrix(0.06425865,0,0,0.06425865,63.403821,29.685535)">
        <path
           d="m 0,0 v 0 0 h -0.12 v 0 0 h -0.12 v -0.13 l -0.24,-0.24 -0.36,-0.36 -0.24,-0.48 -0.24,-0.6 -0.12,-0.36 -0.13,-0.48 -0.12,-0.12"
           style="fill:none;stroke:#000000;stroke-width:6.58795872;stroke-linecap:round;stroke-linejoin:bevel;stroke-miterlimit:4;stroke-dasharray:none;stroke-opacity:1"
           id="path1578" />
      </g>
      <g
         style="stroke:#000000;stroke-width:6.58795872;stroke-miterlimit:4;stroke-dasharray:none;stroke-opacity:1"
         id="g1580"
         transform="matrix(0.06425865,0,0,0.06425865,45.162076,29.685535)">
        <path
           d="M 0,0 H -0.24 V 0 L -0.36,-0.13 H -0.48 V -0.25 L -0.72,-0.49 -0.96,-0.97 -1.33,-1.57 -1.57,-2.29 -1.81,-3.13 -2.05,-4.1 -2.17,-4.34 V -4.7 l -0.12,-0.24 v -0.24 l -0.12,-0.6 -0.24,-0.73 -0.24,-1.32 -0.24,-1.44 -0.25,-1.57 -0.24,-1.68 -0.12,-0.97 -0.12,-0.84 -0.12,-0.48 v -0.48 l -0.12,-0.48 -0.12,-0.49 -0.24,-2.039999 -0.24,-2.050001 -0.24,-2.17 -0.25,-2.16 -0.12,-1.209999 -0.12,-1.08 -0.12,-0.600001 -0.12,-0.6 V -28.530001 -28.77 -29.139999 l -0.12,-0.24 L -6.03,-31.9 -6.27,-34.310001 -6.51,-36.84 -6.75,-39.369999 -6.99,-42.02 -7.36,-44.66 V -45.029999 -45.27 -45.630001 l -0.12,-0.360001 v -0.719997 l -0.12,-0.600002 -0.12,-1.329998 -0.12,-1.32 -0.24,-2.650002 -0.24,-2.649997 L -8.56,-57.91 -8.92,-60.549999 V -61.16 l -0.12,-0.720001 V -62.48 l -0.12,-0.720001 -0.13,-1.210003 -0.12,-1.319999 -0.24,-2.529999 -0.24,-2.529999 -0.36,-2.400001 -0.24,-2.409996 -0.12,-1.080002 -0.12,-1.209999 v -0.599999 l -0.12,-0.480003 -0.12,-0.599999 v -0.61 l -0.24,-2.159996 -0.25,-2.050003 -0.36,-1.919999 -0.24,-1.93 -0.12,-0.959999 -0.12,-0.850006 v -0.479996 l -0.12,-0.36 -0.12,-0.480004 v -0.36 l -0.24,-1.689995 -0.24,-1.440003 -0.37,-1.330001 -0.24,-1.199997 -0.24,-1.080002 -0.24,-1.089997 -0.12,-0.240005 v -0.119995 L -14.35,-100.16 v -0.24 l -0.12,-0.36 -0.12,-0.36 -0.36,-0.6 -0.24,-0.48 -0.25,-0.25 -0.24,-0.24 h -0.12 v 0 h -0.12 v 0 0 0 h -0.120001 l -0.24,0.12 -0.239999,0.12 -0.24,0.37 -0.24,0.6 -0.24,0.6 -0.130001,0.36 -0.119999,0.36 -0.120001,0.12 v 0.120002 0.119995 0.120003 l -0.119999,0.239998 -0.12,0.240005 -0.24,0.969994 -0.24,1.200004 -0.24,1.330002 -0.239999,1.32 -0.24,1.319999"
           style="fill:none;stroke:#000000;stroke-width:6.58795872;stroke-linecap:round;stroke-linejoin:bevel;stroke-miterlimit:4;stroke-dasharray:none;stroke-opacity:1"
           id="path1582" />
      </g>
      <g
         style="stroke:#000000;stroke-width:6.58795872;stroke-miterlimit:4;stroke-dasharray:none;stroke-opacity:1"
         id="g1584"
         transform="matrix(0.06425865,0,0,0.06425865,43.116082,29.685535)">
        <path
           d="M 0,0 H -0.12 L -0.36,-0.13 -0.6,-0.37 -0.84,-0.85 -1.2,-1.33 v -0.24 l -0.12,-0.12 v -0.24 l -0.12,-0.12 -0.12,-0.36 -0.12,-0.48 -0.25,-0.97 -0.24,-1.08 -0.24,-1.2 -0.36,-1.33 v -0.36 l -0.12,-0.36 v -0.36 l -0.12,-0.36 -0.12,-0.73 -0.12,-0.84 -0.24,-1.56 -0.25,-1.81 -0.24,-1.92 -0.36,-1.930001 -0.12,-0.959999 -0.12,-1.09 v -0.24 -0.24 l -0.12,-0.36 v -0.24 -0.479999 L -4.82,-21.91 -5.06,-24.08 -5.3,-26.370001 -5.54,-28.77 -5.91,-31.18 -6.03,-32.389999 -6.15,-33.59 v -0.720001 L -6.27,-34.91 V -35.150002 -35.52 l -0.12,-0.360001 v -0.239998 L -6.63,-38.77 -6.87,-41.290001 -7.23,-43.939999 -7.47,-46.59 l -0.24,-2.650002 -0.25,-2.649997 -0.12,-0.720002 v -0.599998 L -8.2,-53.93 v -0.610001 l -0.12,-1.32 L -8.44,-57.18 -8.8,-59.830002 -9.04,-62.48 l -0.24,-2.530002 -0.24,-2.529999 -0.12,-1.32 -0.12,-1.199997 -0.13,-1.209999 -0.12,-1.319999 L -10.37,-75 l -0.24,-2.290001 -0.24,-2.279999 -0.24,-2.169998 -0.12,-0.959999 -0.12,-1.090004 -0.12,-0.479996 v -0.600006 l -0.12,-0.479995 v -0.480004 l -0.37,-1.93 -0.24,-1.809998 -0.24,-1.68 -0.24,-1.690002 -0.24,-1.439995 -0.24,-1.440003 -0.12,-0.129997 v -0.240005 -0.119996 L -13.38,-96.43 v -0.360001 l -0.12,-0.360001 -0.12,-0.479995 -0.12,-0.600006 -0.25,-1.089997 -0.24,-0.84 -0.24,-0.72 -0.24,-0.72 -0.12,-0.12 -0.12,-0.12 v 0 -0.12 0 l -0.12,-0.12 -0.12,-0.12 -0.12,-0.25 -0.24,-0.24 h -0.24 -0.250001 l -0.24,0.24 -0.239999,0.13 -0.119999,0.24 v 0 0 0.12 H -16.76 v 0.12 l -0.119999,0.12 -0.240002,0.6 -0.24,0.72 -0.239999,0.959998 -0.24,0.970001 -0.25,0.480003 -0.119999,0.599999 v 0.36 L -18.33,-96.790001 V -96.43 l -0.120001,0.36 -0.479999,2.409996"
           style="fill:none;stroke:#000000;stroke-width:6.58795872;stroke-linecap:round;stroke-linejoin:bevel;stroke-miterlimit:4;stroke-dasharray:none;stroke-opacity:1"
           id="path1586" />
      </g>
      <g
         style="stroke:#000000;stroke-width:6.58795872;stroke-miterlimit:4;stroke-dasharray:none;stroke-opacity:1"
         id="g1588"
         transform="matrix(0.06425865,0,0,0.06425865,41.078439,29.685535)">
        <path
           d="m 0,0 -0.37,-0.13 v 0 l -0.12,-0.12 v 0 L -0.61,-0.37 -0.73,-0.49 -0.85,-0.73 -1.09,-1.21 -1.33,-1.93 -1.57,-2.65 -1.93,-3.62 V -3.86 L -2.05,-4.1 v -0.12 -0.12 -0.12 l -0.12,-0.12 -0.12,-0.6 -0.13,-0.6 -0.24,-1.33 -0.24,-1.32 -0.24,-1.57 -0.36,-1.56 -0.12,-0.96 -0.12,-0.85 v -0.24 -0.24 l -0.12,-0.24 v -0.24 -0.36 l -0.12,-0.48 -0.24,-1.93 -0.25,-2.039999 -0.24,-2.17 L -5.07,-23.48 -5.19,-24.559999 -5.31,-25.77 v -0.600001 l -0.12,-0.599998 V -27.57 l -0.12,-0.479999 -0.24,-2.41 -0.24,-2.530003 L -6.27,-35.52 -6.64,-38.040001 -6.88,-40.57 -7.12,-43.220001 v -0.719998 L -7.24,-44.540001 -7.36,-45.27 v -0.599999 l -0.12,-1.32 -0.12,-1.330001 -0.24,-2.64 -0.36,-2.650001 -0.24,-2.649998 -0.25,-2.650002 v -0.720001 L -8.81,-60.43 -8.93,-61.040001 v -0.719997 l -0.12,-1.320004 -0.12,-1.330002 -0.24,-2.519996 -0.36,-2.529999 -0.24,-2.410004 -0.24,-2.409996 -0.12,-1.200004 -0.13,-1.199997 -0.12,-0.489998 v -0.599999 l -0.12,-0.600006 v -0.599998 l -0.24,-2.169998 -0.36,-2.169999 -0.24,-1.920005 -0.24,-2.049996 -0.12,-0.840004 -0.12,-0.959999 -0.12,-0.489998 v -0.36 -0.239998 l -0.12,-0.240006 v -0.239998 -0.239997 l -0.25,-1.559998 -0.36,-1.57 -0.24,-1.440002 -0.24,-1.330002 -0.24,-1.199997 -0.24,-0.959999 V -99.07 l -0.12,-0.129997 V -99.32 -99.440002 L -14.11,-99.68 v -0.239998 l -0.12,-0.480002 -0.24,-0.36 -0.25,-0.6 -0.24,-0.6 -0.24,-0.36 -0.24,-0.25 h -0.12 v -0.12 h -0.12 v 0 h -0.12 -0.240001 l -0.24,0.12 -0.239999,0.37 -0.25,0.36 -0.24,0.6 -0.119999,0.36 -0.120001,0.36 -0.120001,0.12 v 0.24 L -17.49,-99.919998 V -99.68 l -0.36,0.970001 -0.24,1.080002 -0.24,1.199997 -0.24,1.330002 -0.130001,0.599998"
           style="fill:none;stroke:#000000;stroke-width:6.58795872;stroke-linecap:round;stroke-linejoin:bevel;stroke-miterlimit:4;stroke-dasharray:none;stroke-opacity:1"
           id="path1590" />
      </g>
      <g
         style="stroke:#000000;stroke-width:6.58795872;stroke-miterlimit:4;stroke-dasharray:none;stroke-opacity:1"
         id="g1592"
         transform="matrix(0.06425865,0,0,0.06425865,39.047865,29.685535)">
        <path
           d="M 0,0 V 0 H -0.24 L -0.6,-0.25 -0.84,-0.61 -1.08,-1.09 v 0 -0.12 l -0.13,-0.12 v 0 l -0.12,-0.24 v -0.12 l -0.12,-0.36 -0.12,-0.36 -0.24,-0.85 -0.36,-1.08 -0.24,-1.08 -0.24,-1.33 v -0.24 l -0.12,-0.36 v -0.24 l -0.12,-0.12 v -0.24 -0.12 l -0.12,-0.72 -0.12,-0.85 -0.25,-1.56 -0.36,-1.69 -0.24,-1.8 -0.24,-1.930001 -0.12,-0.959999 -0.12,-1.08 -0.12,-0.479999 v -0.49 L -4.7,-20.23 v -0.479999 l -0.24,-2.17 -0.37,-2.280001 -0.24,-2.290001 -0.24,-2.41 L -6.03,-32.27 -6.27,-34.790001 -6.51,-37.32 -6.87,-39.970001 -7.11,-42.5 -7.36,-45.150002 -7.6,-47.790001 -7.84,-50.439999 -7.96,-51.16 v -0.61 l -0.12,-0.720002 V -53.09 l -0.24,-1.329998 -0.12,-1.320004 -0.24,-2.649997 -0.24,-2.650002 -0.24,-2.639999 -0.25,-2.529999 -0.12,-1.209999 -0.12,-1.32 -0.12,-0.36 v -0.239998 -0.360001 l -0.12,-0.240005 v -0.729996 l -0.12,-0.599999 -0.24,-2.410003 -0.24,-2.279999 -0.24,-2.290001 -0.24,-2.290001 -0.12,-1.080002 -0.25,-1.079994 v -0.490005 l -0.12,-0.599999 v -0.239998 -0.239998 -0.240005 l -0.12,-0.239998 -0.24,-2.050003 -0.24,-1.799995 -0.24,-1.810006 -0.24,-1.679992 -0.36,-1.570008 -0.24,-1.439994 v -0.120003 -0.239998 l -0.12,-0.120003 V -95.82 -96.07 l -0.13,-0.36 -0.12,-0.599999 -0.12,-0.599998 -0.24,-1.080002 -0.36,-0.970001 -0.24,-0.84 -0.24,-0.72 v -0.12 l -0.12,-0.12 -0.12,-0.24 v -0.12 l -0.12,-0.24 -0.12,-0.12 -0.25,-0.37 -0.36,-0.12 h -0.240001 l -0.24,0.12 -0.119999,0.12 -0.12,0.13 -0.119999,0.12 v 0 l -0.120001,0.12 v 0.12 l -0.360001,0.6 -0.25,0.6 -0.24,0.840002 L -17.85,-99.07 -17.969999,-98.470001 -18.09,-97.989998 -18.209999,-97.75 v 0.360001 l -0.120001,0.239997 -0.120001,0.360001 v 0.120003"
           style="fill:none;stroke:#000000;stroke-width:6.58795872;stroke-linecap:round;stroke-linejoin:bevel;stroke-miterlimit:4;stroke-dasharray:none;stroke-opacity:1"
           id="path1594" />
      </g>
      <g
         style="stroke:#000000;stroke-width:6.58795872;stroke-miterlimit:4;stroke-dasharray:none;stroke-opacity:1"
         id="g1596"
         transform="matrix(0.06425865,0,0,0.06425865,36.971027,29.685535)">
        <path
           d="m 0,0 h -0.24 v 0 l -0.12,-0.13 v 0 H -0.48 L -0.6,-0.37 -0.72,-0.49 -1.08,-0.97 -1.33,-1.45 -1.57,-2.17 -1.93,-3.01 V -3.26 L -2.05,-3.5 v -0.24 l -0.12,-0.24 -0.12,-0.6 -0.12,-0.48 -0.36,-1.2 -0.24,-1.45 -0.24,-1.44 -0.37,-1.57 -0.12,-0.72 -0.12,-0.96 -0.12,-0.36 v -0.49 l -0.12,-0.48 v -0.36 l -0.36,-1.93 -0.24,-2.039999 -0.36,-2.050002 -0.25,-2.039999 -0.12,-1.210001 -0.12,-1.08 -0.12,-0.6 V -25.52 l -0.12,-0.609999 -0.12,-0.600001 -0.24,-2.409999 -0.24,-2.400002 -0.36,-2.41 L -6.99,-36.48 -7.36,-39.130001 -7.6,-41.66 v -0.36 l -0.12,-0.360001 V -42.619999 -42.98 l -0.12,-0.720001 -0.12,-0.599998 -0.12,-1.330002 -0.12,-1.32 -0.24,-2.649997 L -8.8,-52.25 -9.04,-54.900002 -9.41,-57.540001 V -58.27 l -0.12,-0.599999 V -59.59 l -0.12,-0.599999 -0.12,-1.330001 -0.12,-1.32 -0.36,-2.530003 -0.24,-2.529999 -0.36,-2.529998 -0.24,-2.400002 -0.12,-1.209999 -0.25,-1.199997 v -0.599998 L -11.58,-76.440002 -11.7,-76.93 v -0.599999 l -0.36,-2.279999 -0.24,-2.170005 -0.36,-2.049996 -0.24,-2.040001 -0.24,-1.93 -0.37,-1.809998 -0.12,-0.480003 v -0.360001 l -0.12,-0.479995 v -0.360001 l -0.24,-0.840004 -0.12,-0.729996 -0.24,-1.560005 -0.36,-1.329994 -0.24,-1.32 -0.36,-1.080001 v -0.239998 l -0.13,-0.240006 v -0.119995 L -15.56,-99.07 V -99.199997 -99.32 l -0.12,-0.480003 -0.24,-0.479997 -0.24,-0.72 -0.36,-0.6 -0.24,-0.48 -0.360001,-0.37 -0.119999,-0.12 -0.120001,-0.12 H -17.49 v 0 H -17.610001 -17.73 -17.969999 l -0.360001,0.24 -0.24,0.37 -0.36,0.48 -0.119999,0.24 -0.120001,0.36 -0.120001,0.12 v 0.24 l -0.119999,0.12 -0.130001,0.24 v 0.24"
           style="fill:none;stroke:#000000;stroke-width:6.58795872;stroke-linecap:round;stroke-linejoin:bevel;stroke-miterlimit:4;stroke-dasharray:none;stroke-opacity:1"
           id="path1598" />
      </g>
      <g
         style="stroke:#000000;stroke-width:6.58795872;stroke-miterlimit:4;stroke-dasharray:none;stroke-opacity:1"
         id="g1600"
         transform="matrix(0.06425865,0,0,0.06425865,70.323835,27.426843)">
        <path
           d="m 0,0 0.25,1.2 0.24,1.08 0.12,0.6 0.12,0.49 0.24,0.48 0.12,0.6 0.24,0.48 0.12,0.48 0.12,0.24 0.12,0.24 0.12,0.12 0.12,0.24 0.12,0.25 0.12,0.12 V 6.74 L 2.3,6.86 h 0.12 l 0.12,0.12 v 0 0 h 0.12 v 0 L 2.78,7.1 H 2.9 L 3.02,6.98 v 0 h 0.12 v 0 -0.12 H 3.26 V 6.74 H 3.38 V 6.62 H 3.5 V 6.5 6.38 L 3.62,6.25 3.74,6.13 V 5.89 L 3.86,5.77 V 5.65 L 3.98,5.41 V 5.17 L 4.1,4.81 4.22,4.45 V 4.21 L 4.35,3.49 4.47,2.88 4.59,2.28 4.71,1.56 4.83,0.96 V 0.24 l 0.12,-0.61 v -0.6 l 0.12,-1.32 0.12,-1.33 0.12,-1.32 0.12,-1.32 v -0.73 -0.6 -0.72 l 0.12,-0.72 v -2.65 l 0.12,-2.65 v -2.77 l 0.12,-2.65 V -22.389999 -25.040001 -25.4 -25.77 -26.01 -26.370001 -27.09 -27.690001 -29.02 v -1.32 -2.529999 l -0.12,-2.41 V -37.68 v -2.41 -0.599999 l -0.12,-0.600002 v -0.239998 -0.25 -0.36 -0.240002 -1.079998 -1.080002 l -0.12,-2.169998 v -1.93 l -0.12,-1.920002 -0.12,-1.809998 v -0.479999 -0.360001 -0.240002 -0.239998 -0.120002 -0.239998 l -0.12,-0.850003 v -0.719997 l -0.12,-1.440002 -0.12,-1.329998 -0.12,-1.080002 -0.12,-1.079998 v -0.25 -0.240002 V -61.16 l -0.12,-0.240002 v -0.359996 -0.360001 l -0.12,-0.600002 -0.13,-0.48 -0.24,-0.36"
           style="fill:none;stroke:#000000;stroke-width:6.58795872;stroke-linecap:round;stroke-linejoin:bevel;stroke-miterlimit:4;stroke-dasharray:none;stroke-opacity:1"
           id="path1602" />
      </g>
      <g
         style="stroke:#000000;stroke-width:6.58795872;stroke-miterlimit:4;stroke-dasharray:none;stroke-opacity:1"
         id="g1604"
         transform="matrix(0.06425865,0,0,0.06425865,35.599746,29.429785)">
        <path
           d="m 0,0 0.36,0.97 0.24,0.84 0.24,0.72 0.24,0.6 0.36,0.36 0.24,0.36 v 0 H 1.8 l 0.13,0.13 v 0 H 2.05 2.17 L 2.53,3.85 2.77,3.61 3.01,3.25 3.25,2.65 3.49,2.41 3.61,2.05 V 1.93 1.81 H 3.73 V 1.69 1.45 L 3.85,1.21 4.22,-0.24"
           style="fill:none;stroke:#000000;stroke-width:6.58795872;stroke-linecap:round;stroke-linejoin:bevel;stroke-miterlimit:4;stroke-dasharray:none;stroke-opacity:1"
           id="path1606" />
      </g>
      <g
         style="stroke:#000000;stroke-width:6.58795872;stroke-miterlimit:4;stroke-dasharray:none;stroke-opacity:1"
         id="g1608"
         transform="matrix(0.06425865,0,0,0.06425865,36.777608,23.086814)">
        <path
           d="M 0,0 0.48,0.12 0.72,0.49 0.96,0.85 V 0.97 H 1.08 V 1.09 1.21 L 1.2,1.33 v 0.12 l 0.12,0.36 0.24,0.36 0.25,0.84 0.24,0.97 0.24,1.08 0.24,1.2 0.12,0.24 v 0.37 l 0.12,0.12 v 0.24 0.12 0.24 l 0.24,0.72 0.12,0.72 0.24,1.57 0.24,1.68 0.25,1.69 0.24,1.92 0.12,0.970001 L 4.46,17.82 v 0.479999 L 4.58,18.9 v 0.479999 l 0.12,0.490002 0.24,2.16 L 5.18,24.32 5.42,26.610001 5.66,28.889999 5.91,30.1 6.03,31.299999 V 31.9 l 0.12,0.730001 V 33.23 l 0.12,0.600002 0.24,2.529999 0.24,2.529998 0.24,2.64 0.36,2.530002 0.24,2.649998 0.24,2.650002 0.13,0.720001 V 50.68 l 0.12,0.720002 v 0.729999 l 0.12,1.32 0.12,1.329998 0.36,2.639999 0.24,2.530003 0.24,2.649997 0.24,2.529999 0.12,0.720001 v 0.599999 0.360001 l 0.12,0.240005 v 0.360001 0.369995 L 9.76,68.980003 9.89,70.18 10.25,72.709999 10.49,75 l 0.24,2.410004 0.24,2.159996 0.12,1.090004 0.12,1.079994 0.12,0.36 V 82.339996 82.580002 82.82 l 0.12,0.599998 0.12,0.490006 0.24,2.039993 0.25,1.93 0.24,1.800003 0.24,1.690003 0.12,0.839996 0.12,0.720001 0.12,0.489998 0.12,0.360001 v 0.36 L 13.14,94.5 l 0.24,1.32 0.24,1.330002 0.24,1.080001 0.25,1.079995 0.36,0.850002 0.24,0.72 v 0.24 l 0.12,0.12 v 0.12 l 0.12,0.24 0.12,0.24 0.12,0.24 0.24,0.36 0.24,0.12 0.370001,0.13 h 0.24 L 16.4,102.56 l 0.12,-0.12 v 0 l 0.119999,-0.12 v 0 0 L 16.76,102.2 v -0.12 L 17,101.6 17.360001,101 17.6,100.28 17.84,99.43 17.959999,98.949997 18.09,98.470001 18.209999,98.230003 v -0.36 V 97.75 L 18.33,97.629997 v -0.119995 -0.120003 l 0.479999,-2.169998"
           style="fill:none;stroke:#000000;stroke-width:6.58795872;stroke-linecap:round;stroke-linejoin:bevel;stroke-miterlimit:4;stroke-dasharray:none;stroke-opacity:1"
           id="path1610" />
      </g>
      <g
         style="stroke:#000000;stroke-width:6.58795872;stroke-miterlimit:4;stroke-dasharray:none;stroke-opacity:1"
         id="g1612"
         transform="matrix(0.06425865,0,0,0.06425865,38.830671,23.086814)">
        <path
           d="m 0,0 h 0.12 v 0 h 0.13 v 0 l 0.12,0.12 h 0.12 l 0.12,0.25 0.24,0.36 0.24,0.48 0.24,0.6 0.36,0.72 v 0.24 l 0.12,0.24 v 0.12 0.12 l 0.12,0.12 v 0.12 l 0.12,0.49 0.12,0.6 0.25,1.08 0.24,1.33 0.36,1.32 0.24,1.56 0.12,0.73 0.12,0.84 v 0.24 0.24 l 0.12,0.24 v 0.12 l 0.12,0.48 v 0.49 l 0.24,1.8 0.24,1.93 0.37,2.04 0.24,2.05 0.12,1.08 0.12,1.09 0.12,0.6 v 0.600001 L 5.31,24.92 v 0.6 l 0.24,2.41 0.36,2.41 0.24,2.41 0.25,2.52 0.24,2.529999 0.24,2.530003 0.12,0.719997 v 0.600003 l 0.12,0.729999 V 42.98 L 7.36,44.299999 7.48,45.630001 7.72,48.27 7.96,50.919998 8.2,53.57 8.45,56.220001 8.57,56.82 v 0.720001 l 0.12,0.610001 0.12,0.719997 0.12,1.32 L 9.05,61.52 9.29,64.040001 9.53,66.57 l 0.24,2.529998 0.24,2.529999 0.12,1.200005 0.25,1.209999 v 0.239998 0.36 0.239998 l 0.12,0.360001 v 0.599998 l 0.12,0.480004 0.24,2.290001 0.24,2.290001 0.24,2.04 0.24,2.049996 0.24,1.080002 0.12,0.970001 v 0.479996 L 12.06,88 v 0.120003 0.239998 l 0.12,0.239997 v 0.239998 l 0.25,1.810006 0.24,1.68 0.24,1.57 0.36,1.319999 0.24,1.330002 0.24,1.199997 v 0.360001 l 0.12,0.239997 0.12,0.239998 v 0.240006 l 0.12,0.479996 0.12,0.490005 0.25,0.839997 0.36,0.72 0.24,0.48 0.24,0.36 0.12,0.24 0.12,0.12 0.12,0.13 h 0.12 0.36 l 0.25,-0.13 0.24,-0.24 0.239999,-0.48 L 17.01,101.6 17.129999,101.36 17.25,101.12 V 101 l 0.120001,-0.12 v 0 -0.12 -0.12 L 17.73,99.800003 l 0.239999,-0.850006 0.24,-1.079994 0.25,-1.200005 0.240002,-1.330002 0.359998,-1.439994 v 0"
           style="fill:none;stroke:#000000;stroke-width:6.58795872;stroke-linecap:round;stroke-linejoin:bevel;stroke-miterlimit:4;stroke-dasharray:none;stroke-opacity:1"
           id="path1614" />
      </g>
      <g
         style="stroke:#000000;stroke-width:6.58795872;stroke-miterlimit:4;stroke-dasharray:none;stroke-opacity:1"
         id="g1616"
         transform="matrix(0.06425865,0,0,0.06425865,40.884379,23.086814)">
        <path
           d="m 0,0 h 0.24 l 0.24,0.24 0.25,0.25 0.12,0.12 v 0.12 l 0.12,0.12 v 0.12 l 0.12,0.24 0.12,0.36 0.36,0.72 0.24,0.84 0.24,0.97 0.24,1.08 0.12,0.6 0.12,0.6 0.12,0.12 v 0.24 0.13 0.12 l 0.13,0.36 v 0.36 l 0.36,1.44 0.24,1.57 0.24,1.68 0.24,1.81 0.12,0.96 0.12,0.959999 0.12,0.490002 V 17.1 l 0.12,0.24 v 0.24 0.24 L 4.46,18.059999 4.71,20.23 4.95,22.27 5.19,24.559999 5.43,26.85 l 0.24,2.41 0.36,2.4 v 0.599998 l 0.12,0.610001 v 0.600002 l 0.12,0.719998 0.12,1.2 0.12,1.330002 L 6.76,39.25 7,41.77 7.36,44.419998 7.6,47.07 v 0.599998 l 0.12,0.730004 v 0.719997 l 0.12,0.600002 0.12,1.32 0.12,1.329998 0.24,2.650001 0.24,2.64 0.37,2.650001 0.24,2.649998 0.12,1.200005 0.12,1.329994 0.12,0.599998 v 0.720002 l 0.12,0.600006 v 0.609993 l 0.24,2.520004 0.36,2.409996 0.24,2.410004 0.24,2.290001 0.13,1.080001 0.12,1.199997 0.12,0.489998 v 0.599999 0.240005 L 11.22,81.5 v 0.360001 0.239997 l 0.24,2.050004 0.36,2.04 0.24,1.930001 0.24,1.68 0.24,1.809998 0.24,1.569999 0.13,0.239998 v 0.120003 0.239998 0.120003 l 0.12,0.36 0.12,0.360001 0.12,0.719993 0.12,0.720002 0.24,1.209999 0.24,1.080001 0.24,1.080002 0.24,0.85 0.12,0.24 0.12,0.12 v 0.24 l 0.12,0.12 0.13,0.36 0.12,0.24 0.24,0.48 0.24,0.36 0.24,0.25 H 16.040001 16.16 16.280001 v -0.13 H 16.4 v -0.12 h 0.12 l 0.24,-0.36 0.25,-0.48 0.24,-0.6 0.360001,-0.72 0.239999,-0.970002 0.24,-0.96 v -0.119995 l 0.119999,-0.120002 V 97.870003 97.75 L 18.33,97.510002 v -0.36 L 18.450001,96.550003 18.57,95.940002 19.18,93.18"
           style="fill:none;stroke:#000000;stroke-width:6.58795872;stroke-linecap:round;stroke-linejoin:bevel;stroke-miterlimit:4;stroke-dasharray:none;stroke-opacity:1"
           id="path1618" />
      </g>
      <g
         style="stroke:#000000;stroke-width:6.58795872;stroke-miterlimit:4;stroke-dasharray:none;stroke-opacity:1"
         id="g1620"
         transform="matrix(0.06425865,0,0,0.06425865,42.938085,23.086814)">
        <path
           d="M 0,0 H 0.12 0.24 L 0.36,0.12 0.6,0.37 0.84,0.73 1.09,1.21 1.45,1.93 1.57,2.29 1.69,2.65 V 2.89 L 1.81,3.13 V 3.37 L 1.93,3.62 2.17,4.7 2.41,5.78 2.65,7.11 3.01,8.55 3.14,9.27 3.26,10 v 0.48 l 0.12,0.36 v 0.24 0.24 l 0.12,0.12 v 0.24 l 0.24,1.81 0.24,1.8 0.36,1.929999 L 4.58,19.26 4.82,21.309999 5.06,23.6 v 0.24 l 0.13,0.24 V 24.440001 24.68 l 0.12,0.600001 v 0.599998 l 0.12,1.09 0.24,1.200001 0.24,2.41 0.24,2.410002 0.24,2.519996 0.24,2.530003 L 6.75,38.77 v 0.599999 l 0.12,0.600002 v 0.719998 L 7.11,42.02 7.24,43.34 7.48,45.990002 7.72,48.52 7.96,51.16 8.2,53.810001 8.32,55.139999 8.44,56.580002 8.56,57.18 8.68,57.900002 v 0.609996 L 8.8,59.23 9.04,61.759998 9.29,64.410004 9.53,66.93 l 0.24,2.529999 0.12,1.200005 0.24,1.209999 v 0.599998 L 10.25,73.07 v 0.599998 l 0.12,0.610001 0.24,2.400001 0.24,2.290001 0.24,2.169998 0.25,2.040001 0.36,2.050003 0.24,2.049996 v 0.239998 0.240005 L 12.06,88 v 0.120003 0.479995 l 0.12,0.480004 0.12,0.970001 0.12,0.839996 0.24,1.559998 0.36,1.57 0.25,1.440002 0.24,1.330002 v 0.239998 l 0.12,0.36 v 0.120003 l 0.12,0.119995 V 97.75 97.870003 l 0.12,0.599998 0.12,0.479996 0.36,0.970001 0.24,0.840002 0.24,0.6 0.24,0.6 0.12,0.12 0.13,0.24 0.12,0.12 v 0 l 0.12,0.12 v 0 l 0.36,0.13 h 0.24 l 0.24,-0.13 0.239999,-0.36 0.24,-0.36 0.240002,-0.6 0.25,-0.36 0.119999,-0.36 0.120001,-0.36 0.119999,-0.359997 0.239999,-0.970001 0.24,-1.080002 0.240002,-1.199997 0.359998,-1.330002 v -0.36 L 18.93,94.5 v -0.360001 l 0.119999,-0.36 L 19.17,92.690002"
           style="fill:none;stroke:#000000;stroke-width:6.58795872;stroke-linecap:round;stroke-linejoin:bevel;stroke-miterlimit:4;stroke-dasharray:none;stroke-opacity:1"
           id="path1622" />
      </g>
      <g
         style="stroke:#000000;stroke-width:6.58795872;stroke-miterlimit:4;stroke-dasharray:none;stroke-opacity:1"
         id="g1624"
         transform="matrix(0.06425865,0,0,0.06425865,44.991792,23.086814)">
        <path
           d="M 0,0 0.48,0.24 0.6,0.37 0.72,0.61 0.84,0.73 0.96,0.97 1.32,1.57 1.57,2.29 1.81,3.13 2.05,4.22 2.17,4.7 2.29,5.3 2.41,5.54 V 5.9 L 2.53,6.26 V 6.5 l 0.36,1.45 0.24,1.44 0.24,1.57 0.25,1.68 0.24,1.81 0.24,1.929999 0.12,0.240002 v 0.24 V 17.1 l 0.12,0.24 v 0.48 l 0.12,0.479999 0.12,1.08 0.12,1.09 0.24,2.16 0.24,2.17 L 5.42,27.09 5.79,29.5 v 0.6 l 0.12,0.600001 v 0.359998 0.24 V 31.66 l 0.12,0.24 0.12,1.33 0.12,1.2 0.24,2.529999 0.24,2.530003 0.24,2.649997 0.36,2.64 0.12,1.330002 L 7.59,47.43 v 0.599999 l 0.13,0.729999 v 0.600003 l 0.12,0.720001 0.24,2.649998 0.24,2.650001 0.36,2.649998 0.24,2.639999 0.12,1.210003 0.12,1.32 v 0.719997 l 0.12,0.610001 0.12,0.599998 v 0.720001 l 0.25,2.529999 0.24,2.410004 0.36,2.400001 0.24,2.409996 0.24,2.290001 0.24,2.279999 0.12,0.490006 v 0.599998 l 0.12,0.599999 v 0.479995 l 0.12,1.080002 0.24,0.970001 0.25,2.040001 0.24,1.809998 0.24,1.810005 0.24,1.68 0.12,0.479996 V 92.57 l 0.12,0.239998 V 92.93 v 0.25 0.239998 l 0.24,0.720001 0.12,0.720002 0.24,1.319999 0.24,1.209999 0.25,1.080002 0.24,1.089997 0.12,0.36 0.12,0.480002 0.12,0.12 v 0 0.12 l 0.12,0.12 v 0.12 l 0.12,0.24 v 0"
           style="fill:none;stroke:#000000;stroke-width:6.58795872;stroke-linecap:round;stroke-linejoin:bevel;stroke-miterlimit:4;stroke-dasharray:none;stroke-opacity:1"
           id="path1626" />
      </g>
      <g
         style="stroke:#000000;stroke-width:6.58795872;stroke-miterlimit:4;stroke-dasharray:none;stroke-opacity:1"
         id="g1628"
         transform="matrix(0.06425865,0,0,0.06425865,63.295224,23.102236)">
        <path
           d="M 0,0 0.25,0.37 0.37,0.61 0.49,0.85 0.61,0.97 V 1.21 L 0.73,1.33 0.85,1.45 1.09,2.17 1.33,3.13 1.57,4.1 1.81,5.3 2.05,5.9 2.17,6.5 V 6.87 L 2.3,7.23 V 7.35 7.59 L 2.42,7.71 V 7.95 L 2.66,9.39 2.9,10.96 3.26,12.64 3.5,14.45 3.74,16.379999 3.98,18.42 4.1,18.66 v 0.24 0.36 0.25 l 0.12,0.48 0.13,0.6 0.12,1.08 0.12,1.09 0.24,2.16 0.24,2.289999 0.24,2.410002 0.36,2.530001 V 32.75 l 0.12,0.599998 v 0.600003 l 0.12,0.599998 0.12,1.330002 0.12,1.32 L 6.4,39.73 6.76,42.259998 7,44.91 l 0.24,2.639999 0.12,1.330002 0.12,1.32 0.12,0.719997 v 0.610001 L 7.72,52.25 v 0.599998 l 0.36,2.770001 0.25,2.530003 0.24,2.639999 0.24,2.649998 0.12,1.210003 0.24,1.319999 V 66.57 l 0.12,0.599998 v 0.730004 L 9.41,68.5 9.65,71.029999 9.89,73.43 l 0.24,2.290001 0.37,2.290001 0.24,2.290001 0.24,2.159996 v 0.239998 l 0.12,0.240005 V 83.18 83.43 l 0.12,0.599999 v 0.480003 l 0.24,0.959999 0.12,0.959999 0.24,1.930001 0.24,1.809997 0.24,1.560005 0.37,1.57 v 0.479996 l 0.12,0.36 V 94.260002 94.5 94.620003 l 0.12,0.239998 0.12,0.599998 0.12,0.730003 0.24,1.199997 0.24,1.080002 0.36,0.970001 0.24,0.839998 0.12,0.36 0.13,0.36 0.12,0.12 v 0.12 l 0.12,0.12 v 0.12 l 0.36,0.48 0.24,0.36 0.24,0.13 H 15.8 L 16.040001,102.32 16.4,102.08 v -0.12 h 0.130001 v -0.12 l 0.119999,-0.12 0.12,-0.24 0.119999,-0.24 0.480002,-1.2"
           style="fill:none;stroke:#000000;stroke-width:6.58795872;stroke-linecap:round;stroke-linejoin:bevel;stroke-miterlimit:4;stroke-dasharray:none;stroke-opacity:1"
           id="path1630" />
      </g>
      <g
         style="stroke:#000000;stroke-width:6.58795872;stroke-miterlimit:4;stroke-dasharray:none;stroke-opacity:1"
         id="g1632"
         transform="matrix(0.06425865,0,0,0.06425865,65.356642,23.086814)">
        <path
           d="m 0,0 h 0.12 0.12 0.12 v 0.12 h 0.12 l 0.25,0.37 0.24,0.36 0.24,0.6 0.36,0.6 0.12,0.48 0.12,0.36 v 0.24 l 0.12,0.24 v 0.12 0.13 l 0.12,0.12 v 0.12 l 0.24,1.08 0.37,1.2 0.24,1.33 0.24,1.44 0.24,1.57 0.24,1.68 0.12,0.24 v 0.12 0.24 L 3.86,13 v 0.49 l 0.12,0.36 0.12,0.96 0.12,0.96 0.24,1.930001 0.25,2.049999 0.36,2.16 0.24,2.17 v 0.6 l 0.12,0.600001 0.12,0.599998 V 26.49 l 0.12,1.08 0.12,1.2 0.36,2.41 0.24,2.529999 0.25,2.41 L 6.88,38.77 7,39.970001 l 0.24,1.32 V 42.02 l 0.12,0.599999 V 43.34 l 0.12,0.599999 0.24,2.650001 0.24,2.650002 0.36,2.649997 0.24,2.64 0.13,1.330002 0.12,1.319999 0.12,0.599999 v 0.729999 l 0.12,0.600003 v 0.720001 L 9.41,62.48 l 0.24,2.530002 0.24,2.529999 0.24,2.519997 0.24,2.410003 0.37,2.409996 v 0.240006 0.36 l 0.12,0.239998 V 76.080002 76.68 l 0.12,0.610001 0.12,1.080002 0.12,1.079994 0.24,2.170006 0.36,2.169998 0.24,1.919998 0.24,1.93 0.12,0.480004 v 0.479995 l 0.12,0.239998 V 89.080002 89.32 89.559998 l 0.25,0.850006 0.12,0.839996 0.24,1.68 0.24,1.449997 0.24,1.440003 0.36,1.209999 0.12,0.599998 0.12,0.600006 v 0.239998 l 0.12,0.239998 0.12,0.239998 v 0.240005 l 0.25,0.969998 0.36,0.72 0.24,0.6 0.24,0.48 0.24,0.36 0.36,0.24 v 0.13 h 0.120001 v 0 H 16.4 h 0.12 0.119999 l 0.25,-0.25 0.360001,-0.24 0.24,-0.48 0.24,-0.6 0.12,-0.24 v -0.12 -0.12 l 0.119999,-0.12 v 0"
           style="fill:none;stroke:#000000;stroke-width:6.58795872;stroke-linecap:round;stroke-linejoin:bevel;stroke-miterlimit:4;stroke-dasharray:none;stroke-opacity:1"
           id="path1634" />
      </g>
      <g
         style="stroke:#000000;stroke-width:6.58795872;stroke-miterlimit:4;stroke-dasharray:none;stroke-opacity:1"
         id="g1636"
         transform="matrix(0.06425865,0,0,0.06425865,67.472036,23.086814)">
        <path
           d="m 0,0 v 0 h 0.37 l 0.24,0.24 0.12,0.25 0.12,0.12 0.12,0.12 v 0.12 l 0.12,0.12 v 0 0.12 H 1.21 L 1.45,1.81 1.69,2.53 1.93,3.37 2.3,4.46 2.54,5.54 2.78,6.87 V 6.99 L 2.9,7.11 v 0.24 0.12 l 0.12,0.36 v 0.36 l 0.24,0.72 0.12,0.84 0.24,1.57 0.24,1.68 0.37,1.81 0.24,1.93 v 0.479999 L 4.59,17.82 4.71,18.299999 v 0.480002 l 0.12,1.09 0.12,1.08 0.36,2.17 0.24,2.16 0.24,2.289999 0.24,2.41 0.25,1.2 0.12,1.329998 v 0.600003 l 0.12,0.599998 v 0.600002 L 6.64,35.029999 6.88,37.560001 7.24,40.09 7.48,42.740002 7.72,45.27 l 0.12,1.32 0.12,1.32 0.12,0.729999 0.13,0.600003 V 49.599998 49.959999 50.32 L 8.33,50.560001 8.57,53.330002 8.81,55.98 9.17,58.509998 9.41,61.16 l 0.24,2.639999 0.24,2.530003 0.12,0.36 V 66.93 67.290001 l 0.12,0.370003 v 0.599998 l 0.13,0.599999 0.12,1.199997 0.12,1.330001 0.24,2.400002 0.36,2.290001 0.24,2.290001 0.24,2.290001 0.12,0.479995 v 0.599999 l 0.12,0.480003 v 0.479996 l 0.24,1.090004 0.13,1.080002 0.24,1.93 0.24,1.799995 0.36,1.810006 0.24,1.679992 0.12,0.840004 0.12,0.730004 0.12,0.359993 v 0.36 l 0.12,0.360001 v 0.36 l 0.36,1.330002 0.25,1.199997 0.24,1.080002 0.36,0.970001 0.24,0.84 0.24,0.72 0.12,0.12 v 0.12 l 0.12,0.24 0.12,0.12 0.12,0.24 0.120001,0.12 0.25,0.36 0.24,0.13 h 0.359998 l 0.24,-0.13 H 17.25 v -0.12 h 0.120001 v 0 -0.12 0 l 0.24,-0.12 0.119999,-0.24 0.36,-0.84"
           style="fill:none;stroke:#000000;stroke-width:6.58795872;stroke-linecap:round;stroke-linejoin:bevel;stroke-miterlimit:4;stroke-dasharray:none;stroke-opacity:1"
           id="path1638" />
      </g>
      <g
         style="stroke:#000000;stroke-width:6.58795872;stroke-miterlimit:4;stroke-dasharray:none;stroke-opacity:1"
         id="g1640"
         transform="matrix(0.06425865,0,0,0.06425865,69.649763,23.086814)">
        <path
           d="m 0,0 v 0 0 h 0.12 l 0.24,0.12 0.37,0.37 0.24,0.36 0.24,0.6 0.36,0.6 0.24,0.84 0.12,0.24 v 0.24 l 0.12,0.25 0.12,0.24 0.12,0.6 0.12,0.48 0.25,1.2 0.36,1.33 0.24,1.44 0.24,1.57 0.12,0.36 0.12,0.48 v 0.36 L 3.86,12.16 3.98,13 4.1,13.97 4.34,15.77 4.71,17.700001 4.95,19.75 5.31,21.91 5.43,23 5.55,24.08 v 0.360001 L 5.67,24.68 v 0.360001 0.24 l 0.12,0.599998 V 26.49 l 0.36,2.28 0.24,2.41 0.37,2.529999 0.24,2.41 0.12,1.32 0.12,1.330001 0.12,0.599999 v 0.600002 l 0.12,0.719998 0.12,0.600002 0.24,2.649998 0.24,2.650001 0.36,2.650002 0.25,2.649997 0.36,2.64 0.24,2.650001 0.12,0.599999 v 0.729999 l 0.12,0.600003 v 0.720001 L 9.77,61.16 l 0.12,1.32 0.24,2.530002 0.36,2.529999"
           style="fill:none;stroke:#000000;stroke-width:6.58795872;stroke-linecap:round;stroke-linejoin:bevel;stroke-miterlimit:4;stroke-dasharray:none;stroke-opacity:1"
           id="path1642" />
      </g>
      <g
         style="stroke:#000000;stroke-width:6.58795872;stroke-miterlimit:4;stroke-dasharray:none;stroke-opacity:1"
         id="g1644"
         transform="matrix(0.06425865,0,0,0.06425865,8.0456376,0.8796673)">
        <path
           d="M 447.13,345.59 H 432.41"
           style="fill:none;stroke:#000000;stroke-width:6.58795872;stroke-linecap:round;stroke-linejoin:bevel;stroke-miterlimit:4;stroke-dasharray:none;stroke-opacity:1"
           id="path1646" />
      </g>
      <g
         style="stroke:#000000;stroke-width:6.58795872;stroke-miterlimit:4;stroke-dasharray:none;stroke-opacity:1"
         id="g1648"
         transform="matrix(0.06425865,0,0,0.06425865,8.0456376,0.8796673)">
        <path
           d="M 479.07999,345.59 H 466.54001"
           style="fill:none;stroke:#000000;stroke-width:6.58795872;stroke-linecap:round;stroke-linejoin:bevel;stroke-miterlimit:4;stroke-dasharray:none;stroke-opacity:1"
           id="path1650" />
      </g>
      <g
         style="stroke:#000000;stroke-width:6.58795872;stroke-miterlimit:4;stroke-dasharray:none;stroke-opacity:1"
         id="g1652"
         transform="matrix(0.06425865,0,0,0.06425865,8.0456376,0.8796673)">
        <path
           d="m 511.04001,345.59 h -12.78"
           style="fill:none;stroke:#000000;stroke-width:6.58795872;stroke-linecap:round;stroke-linejoin:bevel;stroke-miterlimit:4;stroke-dasharray:none;stroke-opacity:1"
           id="path1654" />
      </g>
      <g
         style="stroke:#000000;stroke-width:6.58795872;stroke-miterlimit:4;stroke-dasharray:none;stroke-opacity:1"
         id="g1656"
         transform="matrix(0.06425865,0,0,0.06425865,8.0456376,0.8796673)">
        <path
           d="M 543,345.59 H 529.97998"
           style="fill:none;stroke:#000000;stroke-width:6.58795872;stroke-linecap:round;stroke-linejoin:bevel;stroke-miterlimit:4;stroke-dasharray:none;stroke-opacity:1"
           id="path1658" />
      </g>
      <g
         style="stroke:#000000;stroke-width:6.58795872;stroke-miterlimit:4;stroke-dasharray:none;stroke-opacity:1"
         id="g1660"
         transform="matrix(0.06425865,0,0,0.06425865,8.0456376,0.8796673)">
        <path
           d="M 574.96002,345.59 H 561.69"
           style="fill:none;stroke:#000000;stroke-width:6.58795872;stroke-linecap:round;stroke-linejoin:bevel;stroke-miterlimit:4;stroke-dasharray:none;stroke-opacity:1"
           id="path1662" />
      </g>
      <g
         style="stroke:#000000;stroke-width:6.58795872;stroke-miterlimit:4;stroke-dasharray:none;stroke-opacity:1"
         id="g1664"
         transform="matrix(0.06425865,0,0,0.06425865,8.0456376,0.8796673)">
        <path
           d="M 891.88,345.59 H 877.77002"
           style="fill:none;stroke:#000000;stroke-width:6.58795872;stroke-linecap:round;stroke-linejoin:bevel;stroke-miterlimit:4;stroke-dasharray:none;stroke-opacity:1"
           id="path1666" />
      </g>
      <g
         style="stroke:#000000;stroke-width:6.58795872;stroke-miterlimit:4;stroke-dasharray:none;stroke-opacity:1"
         id="g1668"
         transform="matrix(0.06425865,0,0,0.06425865,8.0456376,0.8796673)">
        <path
           d="M 924.79999,345.59 H 910.21002"
           style="fill:none;stroke:#000000;stroke-width:6.58795872;stroke-linecap:round;stroke-linejoin:bevel;stroke-miterlimit:4;stroke-dasharray:none;stroke-opacity:1"
           id="path1670" />
      </g>
      <g
         style="stroke:#000000;stroke-width:6.58795872;stroke-miterlimit:4;stroke-dasharray:none;stroke-opacity:1"
         id="g1672"
         transform="matrix(0.06425865,0,0,0.06425865,8.0456376,0.8796673)">
        <path
           d="M 958.69,345.59 H 942.89001"
           style="fill:none;stroke:#000000;stroke-width:6.58795872;stroke-linecap:round;stroke-linejoin:bevel;stroke-miterlimit:4;stroke-dasharray:none;stroke-opacity:1"
           id="path1674" />
      </g>
      <g
         style="stroke:#000000;stroke-width:6.58795872;stroke-miterlimit:4;stroke-dasharray:none;stroke-opacity:1"
         id="g1676"
         transform="matrix(0.06425865,0,0,0.06425865,8.0456376,0.8796673)">
        <path
           d="m 959.41998,448.28 h 9.76001"
           style="fill:none;stroke:#000000;stroke-width:6.58795872;stroke-linecap:round;stroke-linejoin:bevel;stroke-miterlimit:4;stroke-dasharray:none;stroke-opacity:1"
           id="path1678" />
      </g>
      <g
         style="stroke:#000000;stroke-width:6.58795872;stroke-miterlimit:4;stroke-dasharray:none;stroke-opacity:1"
         id="g1680"
         transform="matrix(0.06425865,0,0,0.06425865,8.0456376,0.8796673)">
        <path
           d="m 926.48999,448.28 h 15.08002"
           style="fill:none;stroke:#000000;stroke-width:6.58795872;stroke-linecap:round;stroke-linejoin:bevel;stroke-miterlimit:4;stroke-dasharray:none;stroke-opacity:1"
           id="path1682" />
      </g>
      <g
         style="stroke:#000000;stroke-width:6.58795872;stroke-miterlimit:4;stroke-dasharray:none;stroke-opacity:1"
         id="g1684"
         transform="matrix(0.06425865,0,0,0.06425865,8.0456376,0.8796673)">
        <path
           d="m 893.92999,448.28 h 14.35004"
           style="fill:none;stroke:#000000;stroke-width:6.58795872;stroke-linecap:round;stroke-linejoin:bevel;stroke-miterlimit:4;stroke-dasharray:none;stroke-opacity:1"
           id="path1686" />
      </g>
      <g
         style="stroke:#000000;stroke-width:6.58795872;stroke-miterlimit:4;stroke-dasharray:none;stroke-opacity:1"
         id="g1688"
         transform="matrix(0.06425865,0,0,0.06425865,8.0456376,0.8796673)">
        <path
           d="m 861.48999,448.28 h 14.10999"
           style="fill:none;stroke:#000000;stroke-width:6.58795872;stroke-linecap:round;stroke-linejoin:bevel;stroke-miterlimit:4;stroke-dasharray:none;stroke-opacity:1"
           id="path1690" />
      </g>
      <g
         style="stroke:#000000;stroke-width:6.58795872;stroke-miterlimit:4;stroke-dasharray:none;stroke-opacity:1"
         id="g1692"
         transform="matrix(0.06425865,0,0,0.06425865,8.0456376,0.8796673)">
        <path
           d="m 577.60999,448.28 h 12.05999"
           style="fill:none;stroke:#000000;stroke-width:6.58795872;stroke-linecap:round;stroke-linejoin:bevel;stroke-miterlimit:4;stroke-dasharray:none;stroke-opacity:1"
           id="path1694" />
      </g>
      <g
         style="stroke:#000000;stroke-width:6.58795872;stroke-miterlimit:4;stroke-dasharray:none;stroke-opacity:1"
         id="g1696"
         transform="matrix(0.06425865,0,0,0.06425865,8.0456376,0.8796673)">
        <path
           d="m 545.77002,448.28 h 13.14996"
           style="fill:none;stroke:#000000;stroke-width:6.58795872;stroke-linecap:round;stroke-linejoin:bevel;stroke-miterlimit:4;stroke-dasharray:none;stroke-opacity:1"
           id="path1698" />
      </g>
      <g
         style="stroke:#000000;stroke-width:6.58795872;stroke-miterlimit:4;stroke-dasharray:none;stroke-opacity:1"
         id="g1700"
         transform="matrix(0.06425865,0,0,0.06425865,8.0456376,0.8796673)">
        <path
           d="m 514.06,448.28 h 12.90002"
           style="fill:none;stroke:#000000;stroke-width:6.58795872;stroke-linecap:round;stroke-linejoin:bevel;stroke-miterlimit:4;stroke-dasharray:none;stroke-opacity:1"
           id="path1702" />
      </g>
      <g
         style="stroke:#000000;stroke-width:6.58795872;stroke-miterlimit:4;stroke-dasharray:none;stroke-opacity:1"
         id="g1704"
         transform="matrix(0.06425865,0,0,0.06425865,8.0456376,0.8796673)">
        <path
           d="M 482.45999,448.28 H 495.12"
           style="fill:none;stroke:#000000;stroke-width:6.58795872;stroke-linecap:round;stroke-linejoin:bevel;stroke-miterlimit:4;stroke-dasharray:none;stroke-opacity:1"
           id="path1706" />
      </g>
      <g
         style="stroke:#000000;stroke-width:6.58795872;stroke-miterlimit:4;stroke-dasharray:none;stroke-opacity:1"
         id="g1708"
         transform="matrix(0.06425865,0,0,0.06425865,8.0456376,0.8796673)">
        <path
           d="m 450.14001,448.28 h 13.03"
           style="fill:none;stroke:#000000;stroke-width:6.58795872;stroke-linecap:round;stroke-linejoin:bevel;stroke-miterlimit:4;stroke-dasharray:none;stroke-opacity:1"
           id="path1710" />
      </g>
      <g
         style="stroke:#000000;stroke-width:6.58795872;stroke-miterlimit:4;stroke-dasharray:none;stroke-opacity:1"
         id="g1712"
         transform="matrix(0.06425865,0,0,0.06425865,8.0456376,0.8796673)">
        <path
           d="M 428.79999,448.28 H 430.97"
           style="fill:none;stroke:#000000;stroke-width:6.58795872;stroke-linecap:round;stroke-linejoin:bevel;stroke-miterlimit:4;stroke-dasharray:none;stroke-opacity:1"
           id="path1714" />
      </g>
      <g
         style="stroke:#000000;stroke-width:6.58795872;stroke-miterlimit:4;stroke-dasharray:none;stroke-opacity:1"
         id="g1716"
         transform="matrix(0.06425865,0,0,0.06425865,70.323835,29.685535)">
        <path
           d="m 0,0 v -0.37 -0.96 -1.56 -2.29 -2.89 -3.37 -3.97 -4.34 -4.809999 -5.180001 -5.410002"
           style="fill:none;stroke:#000000;stroke-width:6.58795872;stroke-linecap:round;stroke-linejoin:bevel;stroke-miterlimit:4;stroke-dasharray:none;stroke-opacity:1"
           id="path1718" />
      </g>
      <g
         style="stroke:#000000;stroke-width:6.58795872;stroke-miterlimit:4;stroke-dasharray:none;stroke-opacity:1"
         id="g1720"
         transform="matrix(0.06425865,0,0,0.06425865,8.0456376,0.8796673)">
        <path
           d="M 428.79999,444.29999 V 446.47 447.79001 448.28"
           style="fill:none;stroke:#000000;stroke-width:6.58795872;stroke-linecap:round;stroke-linejoin:bevel;stroke-miterlimit:4;stroke-dasharray:none;stroke-opacity:1"
           id="path1722" />
      </g>
      <g
         style="stroke:#000000;stroke-width:6.58795872;stroke-miterlimit:4;stroke-dasharray:none;stroke-opacity:1"
         id="g1724"
         transform="matrix(0.06425865,0,0,0.06425865,8.0456376,0.8796673)">
        <path
           d="m 969.17999,448.28 6.40003,-6.38001"
           style="fill:none;stroke:#000000;stroke-width:6.58795872;stroke-linecap:round;stroke-linejoin:bevel;stroke-miterlimit:4;stroke-dasharray:none;stroke-opacity:1"
           id="path1726" />
      </g>
      <g
         style="stroke:#000000;stroke-width:6.58795872;stroke-miterlimit:4;stroke-dasharray:none;stroke-opacity:1"
         id="g1728"
         transform="matrix(0.06425865,0,0,0.06425865,8.0456376,0.8796673)">
        <path
           d="m 975.58002,351.97 -2.42005,-2.39999"
           style="fill:none;stroke:#000000;stroke-width:6.58795872;stroke-linecap:round;stroke-linejoin:bevel;stroke-miterlimit:4;stroke-dasharray:none;stroke-opacity:1"
           id="path1730" />
      </g>
      <g
         style="stroke:#000000;stroke-width:6.58795872;stroke-miterlimit:4;stroke-dasharray:none;stroke-opacity:1"
         id="g1732"
         transform="matrix(0.06425865,0,0,0.06425865,70.735093,23.496784)">
        <path
           d="m 0,0 v 0.36 0.85 1.56 2.05 2.65 3.01 3.61 4.09 4.33 4.699999 4.810001 5.180001 5.18 5.169998 5.180001 5.170002 4.819999 4.690003 4.339996 4.089996 3.490006 3.129997 2.650002 2.050003 1.559997 0.839997 V 89.93"
           style="fill:none;stroke:#000000;stroke-width:6.58795872;stroke-linecap:round;stroke-linejoin:bevel;stroke-miterlimit:4;stroke-dasharray:none;stroke-opacity:1"
           id="path1734" />
      </g>
      <g
         style="stroke:#000000;stroke-width:6.58795872;stroke-miterlimit:4;stroke-dasharray:none;stroke-opacity:1"
         id="g1736"
         transform="matrix(0.06425865,0,0,0.06425865,8.0456376,0.8796673)">
        <path
           d="m 422.39999,441.89999 6.4,6.38001"
           style="fill:none;stroke:#000000;stroke-width:6.58795872;stroke-linecap:round;stroke-linejoin:bevel;stroke-miterlimit:4;stroke-dasharray:none;stroke-opacity:1"
           id="path1738" />
      </g>
      <g
         style="stroke:#000000;stroke-width:6.58795872;stroke-miterlimit:4;stroke-dasharray:none;stroke-opacity:1"
         id="g1740"
         transform="matrix(0.06425865,0,0,0.06425865,35.188491,29.275564)">
        <path
           d="m 0,0 v -0.37 -0.96 -1.44 -2.17 -2.65 -3.25 -3.61 -4.090001 -4.58 -4.689998 -5.06 -5.170002 -5.299999 -5.299999 -5.170002 -5.180001 -4.929996 -4.580002 -4.330002 -3.979996 -3.490005 -3.009995 -2.520004 -1.93"
           style="fill:none;stroke:#000000;stroke-width:6.58795872;stroke-linecap:round;stroke-linejoin:bevel;stroke-miterlimit:4;stroke-dasharray:none;stroke-opacity:1"
           id="path1742" />
      </g>
      <g
         style="stroke:#000000;stroke-width:6.58795872;stroke-miterlimit:4;stroke-dasharray:none;stroke-opacity:1"
         id="g1744"
         transform="matrix(0.06425865,0,0,0.06425865,8.0456376,0.8796673)">
        <path
           d="M 422.39999,358.35001 H 171.57001"
           style="fill:none;stroke:#000000;stroke-width:6.58795872;stroke-linecap:round;stroke-linejoin:bevel;stroke-miterlimit:4;stroke-dasharray:none;stroke-opacity:1"
           id="path1746" />
      </g>
      <g
         style="stroke:#000000;stroke-width:6.58795872;stroke-miterlimit:4;stroke-dasharray:none;stroke-opacity:1"
         id="g1748"
         transform="matrix(0.06425865,0,0,0.06425865,8.0456376,0.8796673)">
        <path
           d="M 171.57001,435.39001 H 422.39999"
           style="fill:none;stroke:#000000;stroke-width:6.58795872;stroke-linecap:round;stroke-linejoin:bevel;stroke-miterlimit:4;stroke-dasharray:none;stroke-opacity:1"
           id="path1750" />
      </g>
      <g
         style="stroke:#000000;stroke-width:6.58795872;stroke-miterlimit:4;stroke-dasharray:none;stroke-opacity:1"
         id="g1752"
         transform="matrix(0.06425865,0,0,0.06425865,19.070495,23.906755)">
        <path
           d="m 0,0 v 0.36 0.97 1.44 2.05 2.65 3.01 3.49 3.970001 4.209999 4.58 4.69 4.699999 4.93 V 45.75 50.439999 55.02 v 4.21 3.850002 3.61 3.009995 2.650001 2.050004 1.439994 0.960007 0.239998"
           style="fill:none;stroke:#000000;stroke-width:6.58795872;stroke-linecap:round;stroke-linejoin:bevel;stroke-miterlimit:4;stroke-dasharray:none;stroke-opacity:1"
           id="path1754" />
      </g>
      <g
         style="stroke:#000000;stroke-width:6.58795872;stroke-miterlimit:4;stroke-dasharray:none;stroke-opacity:1"
         id="g1756"
         transform="matrix(0.06425865,0,0,0.06425865,8.0456376,0.8796673)">
        <path
           d="M 1039.85,364.85001 H 975.58002"
           style="fill:none;stroke:#000000;stroke-width:6.58795872;stroke-linecap:round;stroke-linejoin:bevel;stroke-miterlimit:4;stroke-dasharray:none;stroke-opacity:1"
           id="path1758" />
      </g>
      <g
         style="stroke:#000000;stroke-width:6.58795872;stroke-miterlimit:4;stroke-dasharray:none;stroke-opacity:1"
         id="g1760"
         transform="matrix(0.06425865,0,0,0.06425865,8.0456376,0.8796673)">
        <path
           d="M 975.58002,429.01001 H 1039.85"
           style="fill:none;stroke:#000000;stroke-width:6.58795872;stroke-linecap:round;stroke-linejoin:bevel;stroke-miterlimit:4;stroke-dasharray:none;stroke-opacity:1"
           id="path1762" />
      </g>
      <g
         style="stroke:#000000;stroke-width:6.58795872;stroke-miterlimit:4;stroke-dasharray:none;stroke-opacity:1"
         id="g1764"
         transform="matrix(0.06425865,0,0,0.06425865,74.864995,24.324436)">
        <path
           d="m 0,0 v 0.24 0.97 1.44 2.05 2.53 2.89 3.49 3.73 3.969999 4.210001 4.340001 4.45 4.329998 4.220002 3.970001 3.729999 3.369999 3.009999 2.530002 2.049999 1.439999 0.959999 0.240006"
           style="fill:none;stroke:#000000;stroke-width:6.58795872;stroke-linecap:round;stroke-linejoin:bevel;stroke-miterlimit:4;stroke-dasharray:none;stroke-opacity:1"
           id="path1766" />
      </g>
      <g
         style="stroke:#000000;stroke-width:6.58795872;stroke-miterlimit:4;stroke-dasharray:none;stroke-opacity:1"
         id="g1768"
         transform="matrix(0.06425865,0,0,0.06425865,8.0456376,0.8796673)">
        <path
           d="M 171.57001,364.85001 H 75.089996"
           style="fill:none;stroke:#000000;stroke-width:6.58795872;stroke-linecap:round;stroke-linejoin:bevel;stroke-miterlimit:4;stroke-dasharray:none;stroke-opacity:1"
           id="path1770" />
      </g>
      <g
         style="stroke:#000000;stroke-width:6.58795872;stroke-miterlimit:4;stroke-dasharray:none;stroke-opacity:1"
         id="g1772"
         transform="matrix(0.06425865,0,0,0.06425865,8.0456376,0.8796673)">
        <path
           d="M 75.089996,429.01001 H 171.57001"
           style="fill:none;stroke:#000000;stroke-width:6.58795872;stroke-linecap:round;stroke-linejoin:bevel;stroke-miterlimit:4;stroke-dasharray:none;stroke-opacity:1"
           id="path1774" />
      </g>
      <g
         style="stroke:#000000;stroke-width:6.58795872;stroke-miterlimit:4;stroke-dasharray:none;stroke-opacity:1"
         id="g1776"
         transform="matrix(0.06425865,0,0,0.06425865,12.870819,24.324436)">
        <path
           d="m 0,0 v 0.24 0.97 1.44 2.05 2.53 2.89 3.49 3.73 3.969999 4.210001 4.340001 4.45 4.329998 4.220002 3.970001 3.729999 3.369999 3.009999 2.530002 2.049999 1.439999 0.959999 0.240006"
           style="fill:none;stroke:#000000;stroke-width:6.58795872;stroke-linecap:round;stroke-linejoin:bevel;stroke-miterlimit:4;stroke-dasharray:none;stroke-opacity:1"
           id="path1778" />
      </g>
    </g>
    <g
       style="fill:#000000;fill-opacity:1;stroke-width:0.246944;stroke-miterlimit:4;stroke-dasharray:none"
       id="g3242">
      <g
         style="fill:#000000;fill-opacity:1;stroke:#000000;stroke-width:3.84298;stroke-miterlimit:4;stroke-dasharray:none;stroke-opacity:1"
         id="g1780"
         transform="matrix(0.06425865,0,0,0.06425865,8.0456376,0.8796673)">
        <path
           d="M 52.540001,396.87 H 59.049999 65.440002 213.41"
           style="fill:#000000;fill-opacity:1;stroke:#000000;stroke-width:3.84298;stroke-linecap:round;stroke-linejoin:bevel;stroke-miterlimit:4;stroke-dasharray:none;stroke-opacity:1"
           id="path1782" />
      </g>
      <g
         style="fill:#000000;fill-opacity:1;stroke:#000000;stroke-width:3.84298;stroke-miterlimit:4;stroke-dasharray:none;stroke-opacity:1"
         id="g1784"
         transform="matrix(0.06425865,0,0,0.06425865,8.0456376,0.8796673)">
        <path
           d="M 226.2,396.87 H 252"
           style="fill:#000000;fill-opacity:1;stroke:#000000;stroke-width:3.84298;stroke-linecap:round;stroke-linejoin:bevel;stroke-miterlimit:4;stroke-dasharray:none;stroke-opacity:1"
           id="path1786" />
      </g>
      <g
         style="fill:#000000;fill-opacity:1;stroke:#000000;stroke-width:3.84298;stroke-miterlimit:4;stroke-dasharray:none;stroke-opacity:1"
         id="g1788"
         transform="matrix(0.06425865,0,0,0.06425865,8.0456376,0.8796673)">
        <path
           d="M 264.79001,396.87 H 425.66"
           style="fill:#000000;fill-opacity:1;stroke:#000000;stroke-width:3.84298;stroke-linecap:round;stroke-linejoin:bevel;stroke-miterlimit:4;stroke-dasharray:none;stroke-opacity:1"
           id="path1790" />
      </g>
      <g
         style="fill:#000000;fill-opacity:1;stroke:#000000;stroke-width:3.84298;stroke-miterlimit:4;stroke-dasharray:none;stroke-opacity:1"
         id="g1792"
         transform="matrix(0.06425865,0,0,0.06425865,8.0456376,0.8796673)">
        <path
           d="m 438.44,396.87 h 25.81"
           style="fill:#000000;fill-opacity:1;stroke:#000000;stroke-width:3.84298;stroke-linecap:round;stroke-linejoin:bevel;stroke-miterlimit:4;stroke-dasharray:none;stroke-opacity:1"
           id="path1794" />
      </g>
      <g
         style="fill:#000000;fill-opacity:1;stroke:#000000;stroke-width:3.84298;stroke-miterlimit:4;stroke-dasharray:none;stroke-opacity:1"
         id="g1796"
         transform="matrix(0.06425865,0,0,0.06425865,8.0456376,0.8796673)">
        <path
           d="M 477.03,396.87 H 637.90997"
           style="fill:#000000;fill-opacity:1;stroke:#000000;stroke-width:3.84298;stroke-linecap:round;stroke-linejoin:bevel;stroke-miterlimit:4;stroke-dasharray:none;stroke-opacity:1"
           id="path1798" />
      </g>
      <g
         style="fill:#000000;fill-opacity:1;stroke:#000000;stroke-width:3.84298;stroke-miterlimit:4;stroke-dasharray:none;stroke-opacity:1"
         id="g1800"
         transform="matrix(0.06425865,0,0,0.06425865,8.0456376,0.8796673)">
        <path
           d="M 650.69,396.87 H 676.5"
           style="fill:#000000;fill-opacity:1;stroke:#000000;stroke-width:3.84298;stroke-linecap:round;stroke-linejoin:bevel;stroke-miterlimit:4;stroke-dasharray:none;stroke-opacity:1"
           id="path1802" />
      </g>
      <g
         style="fill:#000000;fill-opacity:1;stroke:#000000;stroke-width:3.84298;stroke-miterlimit:4;stroke-dasharray:none;stroke-opacity:1"
         id="g1804"
         transform="matrix(0.06425865,0,0,0.06425865,8.0456376,0.8796673)">
        <path
           d="M 689.28003,396.87 H 850.15997"
           style="fill:#000000;fill-opacity:1;stroke:#000000;stroke-width:3.84298;stroke-linecap:round;stroke-linejoin:bevel;stroke-miterlimit:4;stroke-dasharray:none;stroke-opacity:1"
           id="path1806" />
      </g>
      <g
         style="fill:#000000;fill-opacity:1;stroke:#000000;stroke-width:3.84298;stroke-miterlimit:4;stroke-dasharray:none;stroke-opacity:1"
         id="g1808"
         transform="matrix(0.06425865,0,0,0.06425865,8.0456376,0.8796673)">
        <path
           d="m 863.06,396.87 h 25.69"
           style="fill:#000000;fill-opacity:1;stroke:#000000;stroke-width:3.84298;stroke-linecap:round;stroke-linejoin:bevel;stroke-miterlimit:4;stroke-dasharray:none;stroke-opacity:1"
           id="path1810" />
      </g>
      <g
         style="fill:#000000;fill-opacity:1;stroke:#000000;stroke-width:3.84298;stroke-miterlimit:4;stroke-dasharray:none;stroke-opacity:1"
         id="g1812"
         transform="matrix(0.06425865,0,0,0.06425865,8.0456376,0.8796673)">
        <path
           d="M 901.65002,396.87 H 1049.5 h 6.51 6.39"
           style="fill:#000000;fill-opacity:1;stroke:#000000;stroke-width:3.84298;stroke-linecap:round;stroke-linejoin:bevel;stroke-miterlimit:4;stroke-dasharray:none;stroke-opacity:1"
           id="path1814" />
      </g>
    </g>
  </g>
</svg>
