<?xml version="1.0" encoding="UTF-8" standalone="no"?>
<svg
   xmlns:dc="http://purl.org/dc/elements/1.1/"
   xmlns:cc="http://creativecommons.org/ns#"
   xmlns:rdf="http://www.w3.org/1999/02/22-rdf-syntax-ns#"
   xmlns:svg="http://www.w3.org/2000/svg"
   xmlns="http://www.w3.org/2000/svg"
   xmlns:sodipodi="http://sodipodi.sourceforge.net/DTD/sodipodi-0.dtd"
   xmlns:inkscape="http://www.inkscape.org/namespaces/inkscape"
   width="50.180672mm"
   height="50.954185mm"
   viewBox="0 0 50.180672 50.954185"
   version="1.1"
   id="svg8"
   inkscape:version="1.0.1 (3bc2e813f5, 2020-09-07)"
   sodipodi:docname="imbalance_scheme.svg">
  <defs
     id="defs2">
    <clipPath
       clipPathUnits="userSpaceOnUse"
       id="clipPath863">
      <path
         d="M 404.79999,0.32 H 716.64001 V 792.64001 H 404.79999 Z"
         clip-rule="evenodd"
         id="path861" />
    </clipPath>
    <clipPath
       clipPathUnits="userSpaceOnUse"
       id="clipPath873">
      <path
         d="M 404.79999,0.32 V 792.64001 H 716.64001 V 0.32 Z"
         clip-rule="evenodd"
         id="path871" />
    </clipPath>
    <clipPath
       clipPathUnits="userSpaceOnUse"
       id="clipPath1738">
      <path
         d="M 404.79999,0.32 H 716.64001 V 792.64001 H 404.79999 Z"
         clip-rule="evenodd"
         id="path1736" />
    </clipPath>
    <clipPath
       clipPathUnits="userSpaceOnUse"
       id="clipPath1748">
      <path
         d="M 404.79999,0.32 V 792.64001 H 716.64001 V 0.32 Z"
         clip-rule="evenodd"
         id="path1746" />
    </clipPath>
  </defs>
  <sodipodi:namedview
     id="base"
     pagecolor="#ffffff"
     bordercolor="#666666"
     borderopacity="1.0"
     inkscape:pageopacity="0.0"
     inkscape:pageshadow="2"
     inkscape:zoom="2.49"
     inkscape:cx="70.658215"
     inkscape:cy="208.83346"
     inkscape:document-units="mm"
     inkscape:current-layer="layer1"
     inkscape:document-rotation="0"
     showgrid="false"
     fit-margin-top="0"
     fit-margin-left="0"
     fit-margin-right="0"
     fit-margin-bottom="0"
     inkscape:window-width="1896"
     inkscape:window-height="1334"
     inkscape:window-x="-10"
     inkscape:window-y="0"
     inkscape:window-maximized="0" />
  <metadata
     id="metadata5">
    <rdf:RDF>
      <cc:Work
         rdf:about="">
        <dc:format>image/svg+xml</dc:format>
        <dc:type
           rdf:resource="http://purl.org/dc/dcmitype/StillImage" />
        <dc:title></dc:title>
      </cc:Work>
    </rdf:RDF>
  </metadata>
  <g
     inkscape:label="Ebene 1"
     inkscape:groupmode="layer"
     id="layer1"
     transform="translate(-88.498571,-100.8702)">
    <g
       id="g2034"
       transform="matrix(0.77546909,0,0,0.77546909,19.890948,22.668762)"
       style="stroke-width:0.545906;stroke-miterlimit:4;stroke-dasharray:none">
      <g
         id="g1750"
         transform="matrix(0.26458333,0,0,0.26458333,140.93712,129.25283)"
         style="stroke-width:2.06327;stroke-miterlimit:4;stroke-dasharray:none">
        <path
           d="m 0,0 -0.21,-6.27 -0.76,-6.27 -1.29,-6.160001 -1.83,-6.049999 -2.26,-5.84 -2.8,-5.720001 -3.13,-5.41 -3.66,-5.079998 -4.100001,-4.860001 -4.41,-4.43 -4.849998,-4.110001 -5.060002,-3.669998 L -39.75,-67 l -5.709999,-2.809998 -5.82,-2.270004 -6.030002,-1.839996 -6.14,-1.300003 -6.249996,-0.75 -6.25,-0.330002 -6.360001,0.330002 -6.25,0.75 -6.139999,1.300003 -6.030003,1.839996 -5.82,2.270004 -5.6,2.809998 -5.39,3.130001 -5.17,3.669998 -4.74,4.110001 -4.52,4.43 -3.99001,4.860001 -3.65998,5.079998 -3.24001,5.41 -2.8,5.720001 -2.26,5.84 -1.83,6.049999 -1.28999,6.160001 -0.76001,6.27 -0.20999,6.27 0.20999,6.37 0.76001,6.16 1.28999,6.269999 1.83,5.940001 2.26,5.950001 2.8,5.62 3.24001,5.399998 3.65998,5.190003 3.99001,4.75 4.52,4.539997 4.74,4 5.17,3.670002 5.39,3.25 5.6,2.809997 5.82,2.260002 6.030003,1.730004 6.139999,1.299995 6.25,0.860001 6.360001,0.220001 6.25,-0.220001 6.249996,-0.860001 6.14,-1.299995 6.030002,-1.730004 5.82,-2.260002 5.709999,-2.809997 5.389999,-3.25 5.060002,-3.670002 4.849998,-4 4.41,-4.539997 4.100001,-4.75 3.66,-5.190003 3.13,-5.399998 2.8,-5.62 L -4.09,24.74 -2.26,18.799999 -0.97,12.53 -0.21,6.37 0,0"
           style="fill:none;stroke:#000000;stroke-width:2.06327;stroke-linecap:round;stroke-linejoin:bevel;stroke-miterlimit:4;stroke-dasharray:none;stroke-opacity:1"
           id="path1752" />
      </g>
      <g
         id="g1754"
         transform="matrix(0.26458333,0,0,0.26458333,151.00186,134.11322)"
         style="stroke-width:2.06327;stroke-miterlimit:4;stroke-dasharray:none">
        <path
           d="m 0,0 -0.22,-7.78 -0.75,-7.68 -1.3,-7.56 -1.83,-7.56 -2.26,-7.35 -2.8,-7.239998 -3.34,-7.030003 -3.77,-6.700001 -4.100001,-6.479995 L -25,-71.540001 -30.059999,-77.480003 -35.450001,-83 -41.16,-88.07 l -6.139999,-4.760002 -6.360001,-4.32 -6.68,-3.889998 -6.890003,-3.35 -7.219994,-2.92 -7.330002,-2.49 -7.43,-1.94 -7.540001,-1.41 -7.65,-0.86 -7.65,-0.43 -7.76,0.11 -7.65,0.64 -7.65,1.19 -7.53999,1.73 -7.32001,2.16 -7.22,2.7 -7.11,3.14 -6.79,3.670002 -6.47,4.11 -6.24,4.43 -5.93,4.970002 -5.6,5.299995 -5.28,5.720001 -4.74001,6.050003 -4.41999,6.379998 -3.98,6.59 -3.56,6.919998 -3.02,7.02 -2.47,7.350003 -2.16001,7.459999 -1.50999,7.559999 -1.08,7.68 -0.43,7.67 v 7.67 l 0.43,7.78 1.08,7.67 1.50999,7.569999 2.16001,7.450001 2.47,7.25 3.02,7.130001 3.56,6.809998 3.98,6.7 4.41999,6.260003 4.74001,6.049995 5.28,5.730003 5.6,5.300003 5.93,4.969994 6.24,4.540001 6.47,4 6.79,3.670002 7.11,3.13 7.22,2.71 7.32001,2.26 7.53999,1.63 7.65,1.18 7.65,0.65 7.76,0.11 7.65,-0.32 7.65,-0.98 7.540001,-1.4 7.43,-1.95 7.330002,-2.48 7.219994,-2.92 6.890003,-3.35 6.68,-3.889999 6.360001,-4.32 6.139999,-4.760002 5.709999,-5.080002 5.390002,-5.509994 L -25,71.540001 -20.370001,65.269997 -16.27,58.790001 -12.5,52.09 -9.16,45.060001 -6.36,37.82 -4.1,30.469999 -2.27,23.02 -0.97,15.34 -0.22,7.67 0,0"
           style="fill:none;stroke:#000000;stroke-width:2.06327;stroke-linecap:round;stroke-linejoin:bevel;stroke-miterlimit:4;stroke-dasharray:none;stroke-opacity:1"
           id="path1756" />
      </g>
    </g>
    <g
       id="g2028"
       transform="matrix(0.77546909,0,0,0.77546909,19.890948,22.668762)"
       style="stroke-width:0.318445;stroke-miterlimit:4;stroke-dasharray:none">
      <g
         id="g1758"
         transform="matrix(0.26458333,0,0,0.26458333,-26.82459,29.523437)"
         style="stroke-width:1.20357;stroke-miterlimit:4;stroke-dasharray:none">
        <path
           d="m 565.65002,395.29999 h -15.19"
           style="fill:none;stroke:#000000;stroke-width:1.20357;stroke-linecap:round;stroke-linejoin:bevel;stroke-miterlimit:4;stroke-dasharray:none;stroke-opacity:1"
           id="path1760" />
      </g>
      <g
         id="g1762"
         transform="matrix(0.26458333,0,0,0.26458333,-26.82459,29.523437)"
         style="stroke-width:1.20357;stroke-miterlimit:4;stroke-dasharray:none">
        <path
           d="m 641.71002,395.29999 h 38.02997"
           style="fill:none;stroke:#000000;stroke-width:1.20357;stroke-linecap:round;stroke-linejoin:bevel;stroke-miterlimit:4;stroke-dasharray:none;stroke-opacity:1"
           id="path1764" />
      </g>
      <g
         id="g1766"
         transform="matrix(0.26458333,0,0,0.26458333,-26.82459,29.523437)"
         style="stroke-width:1.20357;stroke-miterlimit:4;stroke-dasharray:none">
        <path
           d="m 573.29999,395.29999 h 38.03003"
           style="fill:none;stroke:#000000;stroke-width:1.20357;stroke-linecap:round;stroke-linejoin:bevel;stroke-miterlimit:4;stroke-dasharray:none;stroke-opacity:1"
           id="path1768" />
      </g>
      <g
         id="g1770"
         transform="matrix(0.26458333,0,0,0.26458333,-26.82459,29.523437)"
         style="stroke-width:1.20357;stroke-miterlimit:4;stroke-dasharray:none">
        <path
           d="M 618.86999,395.29999 H 634.06"
           style="fill:none;stroke:#000000;stroke-width:1.20357;stroke-linecap:round;stroke-linejoin:bevel;stroke-miterlimit:4;stroke-dasharray:none;stroke-opacity:1"
           id="path1772" />
      </g>
      <g
         id="g1774"
         transform="matrix(0.26458333,0,0,0.26458333,-26.82459,29.523437)"
         style="stroke-width:1.20357;stroke-miterlimit:4;stroke-dasharray:none">
        <path
           d="M 542.81,395.29999 H 504.89001"
           style="fill:none;stroke:#000000;stroke-width:1.20357;stroke-linecap:round;stroke-linejoin:bevel;stroke-miterlimit:4;stroke-dasharray:none;stroke-opacity:1"
           id="path1776" />
      </g>
      <g
         id="g1778"
         transform="matrix(0.26458333,0,0,0.26458333,-26.82459,29.523437)"
         style="stroke-width:1.20357;stroke-miterlimit:4;stroke-dasharray:none">
        <path
           d="m 497.23999,395.29999 h -15.19"
           style="fill:none;stroke:#000000;stroke-width:1.20357;stroke-linecap:round;stroke-linejoin:bevel;stroke-miterlimit:4;stroke-dasharray:none;stroke-opacity:1"
           id="path1780" />
      </g>
      <g
         id="g1782"
         transform="matrix(0.26458333,0,0,0.26458333,-26.82459,29.523437)"
         style="stroke-width:1.20357;stroke-miterlimit:4;stroke-dasharray:none">
        <path
           d="M 474.39999,395.29999 H 436.37"
           style="fill:none;stroke:#000000;stroke-width:1.20357;stroke-linecap:round;stroke-linejoin:bevel;stroke-miterlimit:4;stroke-dasharray:none;stroke-opacity:1"
           id="path1784" />
      </g>
      <g
         id="g1786"
         transform="matrix(0.26458333,0,0,0.26458333,-26.82459,29.523437)"
         style="stroke-width:1.20357;stroke-miterlimit:4;stroke-dasharray:none">
        <path
           d="m 565.65002,376.92999 h -15.19"
           style="fill:none;stroke:#000000;stroke-width:1.20357;stroke-linecap:round;stroke-linejoin:bevel;stroke-miterlimit:4;stroke-dasharray:none;stroke-opacity:1"
           id="path1788" />
      </g>
      <g
         id="g1790"
         transform="matrix(0.26458333,0,0,0.26458333,-26.82459,29.523437)"
         style="stroke-width:1.20357;stroke-miterlimit:4;stroke-dasharray:none">
        <path
           d="m 573.29999,376.92999 h 68.41003"
           style="fill:none;stroke:#000000;stroke-width:1.20357;stroke-linecap:round;stroke-linejoin:bevel;stroke-miterlimit:4;stroke-dasharray:none;stroke-opacity:1"
           id="path1792" />
      </g>
      <g
         id="g1794"
         transform="matrix(0.26458333,0,0,0.26458333,-26.82459,29.523437)"
         style="stroke-width:1.20357;stroke-miterlimit:4;stroke-dasharray:none">
        <path
           d="M 542.81,376.92999 H 474.39999"
           style="fill:none;stroke:#000000;stroke-width:1.20357;stroke-linecap:round;stroke-linejoin:bevel;stroke-miterlimit:4;stroke-dasharray:none;stroke-opacity:1"
           id="path1796" />
      </g>
      <g
         id="g1798"
         transform="matrix(0.26458333,0,0,0.26458333,-26.82459,29.523437)"
         style="stroke-width:1.20357;stroke-miterlimit:4;stroke-dasharray:none">
        <path
           d="m 558.10999,479.16 v 38.13999"
           style="fill:none;stroke:#000000;stroke-width:1.20357;stroke-linecap:round;stroke-linejoin:bevel;stroke-miterlimit:4;stroke-dasharray:none;stroke-opacity:1"
           id="path1800" />
      </g>
      <g
         id="g1802"
         transform="matrix(0.26458333,0,0,0.26458333,-26.82459,29.523437)"
         style="stroke-width:1.20357;stroke-miterlimit:4;stroke-dasharray:none">
        <path
           d="m 558.10999,410.54001 v 38.13998"
           style="fill:none;stroke:#000000;stroke-width:1.20357;stroke-linecap:round;stroke-linejoin:bevel;stroke-miterlimit:4;stroke-dasharray:none;stroke-opacity:1"
           id="path1804" />
      </g>
      <g
         id="g1806"
         transform="matrix(0.26458333,0,0,0.26458333,-26.82459,29.523437)"
         style="stroke-width:1.20357;stroke-miterlimit:4;stroke-dasharray:none">
        <path
           d="m 558.10999,456.25 v 15.23001"
           style="fill:none;stroke:#000000;stroke-width:1.20357;stroke-linecap:round;stroke-linejoin:bevel;stroke-miterlimit:4;stroke-dasharray:none;stroke-opacity:1"
           id="path1808" />
      </g>
      <g
         id="g1810"
         transform="matrix(0.26458333,0,0,0.26458333,-26.82459,29.523437)"
         style="stroke-width:1.20357;stroke-miterlimit:4;stroke-dasharray:none">
        <path
           d="M 558.10999,402.85999 V 387.63"
           style="fill:none;stroke:#000000;stroke-width:1.20357;stroke-linecap:round;stroke-linejoin:bevel;stroke-miterlimit:4;stroke-dasharray:none;stroke-opacity:1"
           id="path1812" />
      </g>
      <g
         id="g1814"
         transform="matrix(0.26458333,0,0,0.26458333,-26.82459,29.523437)"
         style="stroke-width:1.20357;stroke-miterlimit:4;stroke-dasharray:none">
        <path
           d="m 558.10999,379.95001 v -12.1"
           style="fill:none;stroke:#000000;stroke-width:1.20357;stroke-linecap:round;stroke-linejoin:bevel;stroke-miterlimit:4;stroke-dasharray:none;stroke-opacity:1"
           id="path1816" />
      </g>
      <g
         id="g1818"
         transform="matrix(0.26458333,0,0,0.26458333,-26.82459,29.523437)"
         style="stroke-width:1.20357;stroke-miterlimit:4;stroke-dasharray:none">
        <path
           d="M 558.10999,384.60001 V 369.35999"
           style="fill:none;stroke:#000000;stroke-width:1.20357;stroke-linecap:round;stroke-linejoin:bevel;stroke-miterlimit:4;stroke-dasharray:none;stroke-opacity:1"
           id="path1820" />
      </g>
      <g
         id="g1822"
         transform="matrix(0.26458333,0,0,0.26458333,-26.82459,29.523437)"
         style="stroke-width:1.20357;stroke-miterlimit:4;stroke-dasharray:none">
        <path
           d="M 558.10999,361.69 V 270.16"
           style="fill:none;stroke:#000000;stroke-width:1.20357;stroke-linecap:round;stroke-linejoin:bevel;stroke-miterlimit:4;stroke-dasharray:none;stroke-opacity:1"
           id="path1824" />
      </g>
    </g>
  </g>
</svg>
