<?xml version="1.0" encoding="UTF-8" standalone="no"?>
<svg
   xmlns:dc="http://purl.org/dc/elements/1.1/"
   xmlns:cc="http://creativecommons.org/ns#"
   xmlns:rdf="http://www.w3.org/1999/02/22-rdf-syntax-ns#"
   xmlns:svg="http://www.w3.org/2000/svg"
   xmlns="http://www.w3.org/2000/svg"
   xmlns:sodipodi="http://sodipodi.sourceforge.net/DTD/sodipodi-0.dtd"
   xmlns:inkscape="http://www.inkscape.org/namespaces/inkscape"
   width="50.282116mm"
   height="65.60537mm"
   viewBox="0 0 50.282117 65.605369"
   version="1.1"
   id="svg8"
   inkscape:version="1.0.1 (3bc2e813f5, 2020-09-07)"
   sodipodi:docname="modalShaker_scheme.svg">
  <defs
     id="defs2">
    <clipPath
       clipPathUnits="userSpaceOnUse"
       id="clipPath863">
      <path
         d="M 404.79999,0.32 H 716.64001 V 792.64001 H 404.79999 Z"
         clip-rule="evenodd"
         id="path861" />
    </clipPath>
    <clipPath
       clipPathUnits="userSpaceOnUse"
       id="clipPath873">
      <path
         d="M 404.79999,0.32 V 792.64001 H 716.64001 V 0.32 Z"
         clip-rule="evenodd"
         id="path871" />
    </clipPath>
    <clipPath
       clipPathUnits="userSpaceOnUse"
       id="clipPath1738">
      <path
         d="M 404.79999,0.32 H 716.64001 V 792.64001 H 404.79999 Z"
         clip-rule="evenodd"
         id="path1736" />
    </clipPath>
    <clipPath
       clipPathUnits="userSpaceOnUse"
       id="clipPath1748">
      <path
         d="M 404.79999,0.32 V 792.64001 H 716.64001 V 0.32 Z"
         clip-rule="evenodd"
         id="path1746" />
    </clipPath>
    <clipPath
       clipPathUnits="userSpaceOnUse"
       id="clipPath2182">
      <path
         d="M 404.79999,0.32 H 716.64001 V 792.64001 H 404.79999 Z"
         clip-rule="evenodd"
         id="path2180" />
    </clipPath>
    <clipPath
       clipPathUnits="userSpaceOnUse"
       id="clipPath2192">
      <path
         d="M 404.79999,0.32 V 792.64001 H 716.64001 V 0.32 Z"
         clip-rule="evenodd"
         id="path2190" />
    </clipPath>
  </defs>
  <sodipodi:namedview
     id="base"
     pagecolor="#ffffff"
     bordercolor="#666666"
     borderopacity="1.0"
     inkscape:pageopacity="0.0"
     inkscape:pageshadow="2"
     inkscape:zoom="2.49"
     inkscape:cx="203.84107"
     inkscape:cy="157.53013"
     inkscape:document-units="mm"
     inkscape:current-layer="layer1"
     inkscape:document-rotation="0"
     showgrid="false"
     fit-margin-top="0"
     fit-margin-left="0"
     fit-margin-right="0"
     fit-margin-bottom="0"
     inkscape:window-width="1896"
     inkscape:window-height="1334"
     inkscape:window-x="-10"
     inkscape:window-y="0"
     inkscape:window-maximized="0" />
  <metadata
     id="metadata5">
    <rdf:RDF>
      <cc:Work
         rdf:about="">
        <dc:format>image/svg+xml</dc:format>
        <dc:type
           rdf:resource="http://purl.org/dc/dcmitype/StillImage" />
        <dc:title></dc:title>
      </cc:Work>
    </rdf:RDF>
  </metadata>
  <g
     inkscape:label="Ebene 1"
     inkscape:groupmode="layer"
     id="layer1"
     transform="translate(-86.827407,-87.750142)">
    <g
       id="g2720"
       style="stroke-width:0.298887;stroke-miterlimit:4;stroke-dasharray:none"
       transform="matrix(0.82621286,0,0,0.82621286,15.114001,15.265169)">
      <g
         id="g2194"
         transform="matrix(0.26458333,0,0,0.26458333,-29.542653,24.092645)"
         style="stroke-width:1.12965;stroke-miterlimit:4;stroke-dasharray:none">
        <path
           d="m 554.65997,487.48001 v -3.78 V 479.81 379.51999"
           style="fill:none;stroke:#000000;stroke-width:1.12965;stroke-linecap:round;stroke-linejoin:bevel;stroke-miterlimit:4;stroke-dasharray:none;stroke-opacity:1"
           id="path2196" />
      </g>
      <g
         id="g2198"
         transform="matrix(0.26458333,0,0,0.26458333,-29.542653,24.092645)"
         style="stroke-width:1.12965;stroke-miterlimit:4;stroke-dasharray:none">
        <path
           d="m 554.65997,371.95999 v -15.35"
           style="fill:none;stroke:#000000;stroke-width:1.12965;stroke-linecap:round;stroke-linejoin:bevel;stroke-miterlimit:4;stroke-dasharray:none;stroke-opacity:1"
           id="path2200" />
      </g>
      <g
         id="g2202"
         transform="matrix(0.26458333,0,0,0.26458333,-29.542653,24.092645)"
         style="stroke-width:1.12965;stroke-miterlimit:4;stroke-dasharray:none">
        <path
           d="m 554.65997,349.04999 v -100.29 -3.89 -3.77999"
           style="fill:none;stroke:#000000;stroke-width:1.12965;stroke-linecap:round;stroke-linejoin:bevel;stroke-miterlimit:4;stroke-dasharray:none;stroke-opacity:1"
           id="path2204" />
      </g>
    </g>
    <g
       id="g2800"
       style="stroke-width:0.512378;stroke-miterlimit:4;stroke-dasharray:none"
       transform="matrix(0.82621286,0,0,0.82621286,15.114001,15.265169)">
      <g
         id="g2206"
         transform="matrix(0.26458333,0,0,0.26458333,-29.542653,24.092645)"
         style="stroke-width:1.93655;stroke-miterlimit:4;stroke-dasharray:none">
        <path
           d="m 649.78998,268.20999 -0.32001,-2.04999 -0.75,-1.83999 -1.18994,-1.51001 -1.61005,-1.19 -1.83996,-0.85999 -1.94001,-0.22"
           style="fill:none;stroke:#000000;stroke-width:1.93655;stroke-linecap:round;stroke-linejoin:bevel;stroke-miterlimit:4;stroke-dasharray:none;stroke-opacity:1"
           id="path2208" />
      </g>
      <g
         id="g2210"
         transform="matrix(0.26458333,0,0,0.26458333,-29.542653,24.092645)"
         style="stroke-width:1.93655;stroke-miterlimit:4;stroke-dasharray:none">
        <path
           d="m 467.29001,260.54001 -2.05002,0.22 -1.82999,0.85999 -1.51001,1.19 -1.17999,1.51001 -0.76001,1.83999 -0.31998,2.04999"
           style="fill:none;stroke:#000000;stroke-width:1.93655;stroke-linecap:round;stroke-linejoin:bevel;stroke-miterlimit:4;stroke-dasharray:none;stroke-opacity:1"
           id="path2212" />
      </g>
      <g
         id="g2214"
         transform="matrix(0.26458333,0,0,0.26458333,142.38094,95.056537)"
         style="stroke-width:1.93655;stroke-miterlimit:4;stroke-dasharray:none">
        <path
           d="m 0,0 h -0.32 -0.75 -1.3 -1.94 -2.26 -2.91 -3.34 -3.77 -4.200001 -4.629999 -5.07 -5.379999 -5.710003 -5.929996 -6.350003 -6.470001 -6.790001 -6.779999 -7.010002 -7.109993 -7.11 -7.110003 -7 -7 -6.9 -6.68001 -6.45999 -6.36 -6.03 -5.71 -5.39 -4.96 -4.63 -4.31 -3.77 -3.23 -2.91 -2.37 -1.83 -1.29001 -0.75999 -0.31999"
           style="fill:none;stroke:#000000;stroke-width:1.93655;stroke-linecap:round;stroke-linejoin:bevel;stroke-miterlimit:4;stroke-dasharray:none;stroke-opacity:1"
           id="path2216" />
      </g>
      <g
         id="g2218"
         transform="matrix(0.26458333,0,0,0.26458333,94.094494,93.027188)"
         style="stroke-width:1.93655;stroke-miterlimit:4;stroke-dasharray:none">
        <path
           d="m 0,0 h 0.21 0.86 1.3 1.83 2.48 2.8 3.34 3.880001 H 20.9 25.530001 30.59 h 5.39 5.709999 6.030002 6.25 6.469998 6.570003 6.68 6.89 6.790001 6.899994 6.780003 6.79 6.57 6.47 6.25 6.03 5.59999 5.5 4.95002 4.73999 4.21 3.76999 3.44 2.80001 2.36999 1.94001 1.3 0.86 0.21001"
           style="fill:none;stroke:#000000;stroke-width:1.93655;stroke-linecap:round;stroke-linejoin:bevel;stroke-miterlimit:4;stroke-dasharray:none;stroke-opacity:1"
           id="path2220" />
      </g>
      <g
         id="g2222"
         transform="matrix(0.26458333,0,0,0.26458333,-29.542653,24.092645)"
         style="stroke-width:1.93655;stroke-miterlimit:4;stroke-dasharray:none">
        <path
           d="M 459.64001,434.42001 V 478.72"
           style="fill:none;stroke:#000000;stroke-width:1.93655;stroke-linecap:round;stroke-linejoin:bevel;stroke-miterlimit:4;stroke-dasharray:none;stroke-opacity:1"
           id="path2224" />
      </g>
      <g
         id="g2226"
         transform="matrix(0.26458333,0,0,0.26458333,-29.542653,24.092645)"
         style="stroke-width:1.93655;stroke-miterlimit:4;stroke-dasharray:none">
        <path
           d="M 459.64001,268.20999 V 416.26001"
           style="fill:none;stroke:#000000;stroke-width:1.93655;stroke-linecap:round;stroke-linejoin:bevel;stroke-miterlimit:4;stroke-dasharray:none;stroke-opacity:1"
           id="path2228" />
      </g>
      <g
         id="g2230"
         transform="matrix(0.26458333,0,0,0.26458333,-29.542653,24.092645)"
         style="stroke-width:1.93655;stroke-miterlimit:4;stroke-dasharray:none">
        <path
           d="m 649.78998,416.14999 v -147.94"
           style="fill:none;stroke:#000000;stroke-width:1.93655;stroke-linecap:round;stroke-linejoin:bevel;stroke-miterlimit:4;stroke-dasharray:none;stroke-opacity:1"
           id="path2232" />
      </g>
      <g
         id="g2234"
         transform="matrix(0.26458333,0,0,0.26458333,-29.542653,24.092645)"
         style="stroke-width:1.93655;stroke-miterlimit:4;stroke-dasharray:none">
        <path
           d="M 649.78998,478.72 V 434.31"
           style="fill:none;stroke:#000000;stroke-width:1.93655;stroke-linecap:round;stroke-linejoin:bevel;stroke-miterlimit:4;stroke-dasharray:none;stroke-opacity:1"
           id="path2236" />
      </g>
      <g
         id="g2238"
         transform="matrix(0.26458333,0,0,0.26458333,92.070431,139.03294)"
         style="stroke-width:1.93655;stroke-miterlimit:4;stroke-dasharray:none">
        <path
           d="m 0,0 v 0 0 -0.11 0 -0.11 l 0.11,-0.11 v -0.1 0 0 0 -0.11 0 0 -0.11 -0.22 -0.21 -0.22 -0.22 l 0.1,-0.1 v -0.11 -0.11 -0.11 0 -0.11 -0.32 -0.32 -0.33 L 0.32,-3.35 V -3.68 -4 v -0.11 -0.11 -0.1 0 0 -0.11 -0.22 -0.11 -0.43 l 0.11,-0.43 v -0.43 -0.44 -0.21 -0.22 -0.11 -0.1 -0.11 -0.11 -0.43 -0.44 -0.43 -0.43 -0.54 -0.43 0 -0.11 0 -0.11 -0.11 -0.1 -0.22 -0.22 -0.43 -0.43 -0.43 -0.44 -0.21 -0.22 H 0.32 v -0.11 0 0 -0.1 -0.11 -0.43 -0.33 -0.43 -0.33 l -0.11,-0.32 v -0.32 -0.22 -0.11 -0.21 -0.109999 V -16.43 l -0.1,-0.32 v -0.219999 -0.210001 -0.110001 0 0 -0.109999 0 0 -0.11 -0.110001 -0.109999 -0.1 L 0,-18.049999 v 0 -0.110001 0 0 0 -0.11 0 0 0"
           style="fill:none;stroke:#000000;stroke-width:1.93655;stroke-linecap:round;stroke-linejoin:bevel;stroke-miterlimit:4;stroke-dasharray:none;stroke-opacity:1"
           id="path2240" />
      </g>
      <g
         id="g2242"
         transform="matrix(0.26458333,0,0,0.26458333,92.070431,150.75398)"
         style="stroke-width:1.93655;stroke-miterlimit:4;stroke-dasharray:none">
        <path
           d="M 0,0 H 0.32 1.08 2.37 4.2 6.57 9.48 12.71 16.48 20.790001 25.42 30.379999 35.77 h 5.71 6.029998 6.360001 6.460003 6.68 6.900002 7 7 7.109993 7.110003 7.11 7.01 6.78 6.79001 6.46998 6.35001 5.93001 5.70999 5.38 5.07 4.63 4.2 3.77 3.34 2.91 2.26 1.94 1.3 0.75 0.31999"
           style="fill:none;stroke:#000000;stroke-width:1.93655;stroke-linecap:round;stroke-linejoin:bevel;stroke-miterlimit:4;stroke-dasharray:none;stroke-opacity:1"
           id="path2244" />
      </g>
      <g
         id="g2246"
         transform="matrix(0.26458333,0,0,0.26458333,142.38094,139.03294)"
         style="stroke-width:1.93655;stroke-miterlimit:4;stroke-dasharray:none">
        <path
           d="m 0,0 v 0 -0.11 0 l -0.1,-0.11 v 0 0 0 0 0 -0.11 0 -0.21 -0.11 -0.22 -0.21 -0.11 -0.11 0 l -0.11,-0.11 v 0 -0.11 -0.21 -0.33 -0.32 -0.22 l -0.11,-0.32 v -0.43 0 0 -0.11 0 V -3.57 -3.68 -3.89 -4 -4.43 l -0.11,-0.33 v -0.43 -0.43 -0.22 -0.21 -0.11 -0.11 -0.11 -0.11 -0.43 -0.43 -0.43 -0.44 -0.43 -0.43 -0.11 0 -0.11 0 -0.1 -0.22 -0.22 -0.21 -0.43 -0.44 -0.43 -0.43 -0.11 -0.11 0 -0.11 0 -0.1 -0.22 -0.22 -0.43 -0.32 l 0.11,-0.43 v -0.33 -0.21 -0.22 -0.11 0 -0.11 -0.11 -0.32 l 0.11,-0.32 v -0.33 -0.319999 -0.220001 -0.32 0 -0.110001 h 0.11 v 0 -0.109998 0 -0.110001 -0.1 -0.22 -0.220001 -0.109999 -0.1 -0.110001 -0.109998 0 0 0 0 L 0,-18.16 v -0.11 0 0"
           style="fill:none;stroke:#000000;stroke-width:1.93655;stroke-linecap:round;stroke-linejoin:bevel;stroke-miterlimit:4;stroke-dasharray:none;stroke-opacity:1"
           id="path2248" />
      </g>
      <g
         id="g2250"
         transform="matrix(0.26458333,0,0,0.26458333,-29.542653,24.092645)"
         style="stroke-width:1.93655;stroke-miterlimit:4;stroke-dasharray:none">
        <path
           d="M 452.10001,417.67001 H 440.67999"
           style="fill:none;stroke:#000000;stroke-width:1.93655;stroke-linecap:round;stroke-linejoin:bevel;stroke-miterlimit:4;stroke-dasharray:none;stroke-opacity:1"
           id="path2252" />
      </g>
      <g
         id="g2254"
         transform="matrix(0.26458333,0,0,0.26458333,-29.542653,24.092645)"
         style="stroke-width:1.93655;stroke-miterlimit:4;stroke-dasharray:none">
        <path
           d="M 440.67999,417.67001 V 387.19"
           style="fill:none;stroke:#000000;stroke-width:1.93655;stroke-linecap:round;stroke-linejoin:bevel;stroke-miterlimit:4;stroke-dasharray:none;stroke-opacity:1"
           id="path2256" />
      </g>
      <g
         id="g2258"
         transform="matrix(0.26458333,0,0,0.26458333,-29.542653,24.092645)"
         style="stroke-width:1.93655;stroke-miterlimit:4;stroke-dasharray:none">
        <path
           d="m 440.67999,387.19 h 11.42002"
           style="fill:none;stroke:#000000;stroke-width:1.93655;stroke-linecap:round;stroke-linejoin:bevel;stroke-miterlimit:4;stroke-dasharray:none;stroke-opacity:1"
           id="path2260" />
      </g>
      <g
         id="g2262"
         transform="matrix(0.26458333,0,0,0.26458333,-29.542653,24.092645)"
         style="stroke-width:1.93655;stroke-miterlimit:4;stroke-dasharray:none">
        <path
           d="m 452.10001,387.19 v 30.48001"
           style="fill:none;stroke:#000000;stroke-width:1.93655;stroke-linecap:round;stroke-linejoin:bevel;stroke-miterlimit:4;stroke-dasharray:none;stroke-opacity:1"
           id="path2264" />
      </g>
      <g
         id="g2266"
         transform="matrix(0.26458333,0,0,0.26458333,141.55544,166.88033)"
         style="stroke-width:1.93655;stroke-miterlimit:4;stroke-dasharray:none">
        <path
           d="m 0,0 3.45,-0.21 3.44,-0.87 3.13,-1.29 3.02,-1.84 2.58,-2.27 2.259999,-2.59 1.84,-2.92 1.290001,-3.24 0.860001,-3.35 0.219999,-3.460001"
           style="fill:none;stroke:#000000;stroke-width:1.93655;stroke-linecap:round;stroke-linejoin:bevel;stroke-miterlimit:4;stroke-dasharray:none;stroke-opacity:1"
           id="path2268" />
      </g>
      <g
         id="g2270"
         transform="matrix(0.26458333,0,0,0.26458333,-29.542653,24.092645)"
         style="stroke-width:1.93655;stroke-miterlimit:4;stroke-dasharray:none">
        <path
           d="M 462.64999,539.66998 H 646.66998"
           style="fill:none;stroke:#000000;stroke-width:1.93655;stroke-linecap:round;stroke-linejoin:bevel;stroke-miterlimit:4;stroke-dasharray:none;stroke-opacity:1"
           id="path2272" />
      </g>
      <g
         id="g2274"
         transform="matrix(0.26458333,0,0,0.26458333,87.053926,161.04891)"
         style="stroke-width:1.93655;stroke-miterlimit:4;stroke-dasharray:none">
        <path
           d="m 0,0 0.21,3.46 0.86,3.35 1.3,3.24 1.83,2.92 2.26,2.59 2.59,2.27 2.91,1.84 3.23,1.289999 3.340001,0.870001 3.439998,0.210001"
           style="fill:none;stroke:#000000;stroke-width:1.93655;stroke-linecap:round;stroke-linejoin:bevel;stroke-miterlimit:4;stroke-dasharray:none;stroke-opacity:1"
           id="path2276" />
      </g>
      <g
         id="g2278"
         transform="matrix(0.26458333,0,0,0.26458333,-29.542653,24.092645)"
         style="stroke-width:1.93655;stroke-miterlimit:4;stroke-dasharray:none">
        <path
           d="M 440.67999,417.67001 V 517.63"
           style="fill:none;stroke:#000000;stroke-width:1.93655;stroke-linecap:round;stroke-linejoin:bevel;stroke-miterlimit:4;stroke-dasharray:none;stroke-opacity:1"
           id="path2280" />
      </g>
      <g
         id="g2282"
         transform="matrix(0.26458333,0,0,0.26458333,-29.542653,24.092645)"
         style="stroke-width:1.93655;stroke-miterlimit:4;stroke-dasharray:none">
        <path
           d="M 452.10001,517.63 V 417.67001"
           style="fill:none;stroke:#000000;stroke-width:1.93655;stroke-linecap:round;stroke-linejoin:bevel;stroke-miterlimit:4;stroke-dasharray:none;stroke-opacity:1"
           id="path2284" />
      </g>
      <g
         id="g2286"
         transform="matrix(0.26458333,0,0,0.26458333,92.866822,163.85084)"
         style="stroke-width:1.93655;stroke-miterlimit:4;stroke-dasharray:none">
        <path
           d="m 0,0 -2.37,-0.22 -2.15,-0.75 -2.05,-1.3 -1.72,-1.73 -1.29,-2.05 -0.76,-2.16 -0.21,-2.38"
           style="fill:none;stroke:#000000;stroke-width:1.93655;stroke-linecap:round;stroke-linejoin:bevel;stroke-miterlimit:4;stroke-dasharray:none;stroke-opacity:1"
           id="path2288" />
      </g>
      <g
         id="g2290"
         transform="matrix(0.26458333,0,0,0.26458333,-29.542653,24.092645)"
         style="stroke-width:1.93655;stroke-miterlimit:4;stroke-dasharray:none">
        <path
           d="M 646.66998,528.21997 H 462.64999"
           style="fill:none;stroke:#000000;stroke-width:1.93655;stroke-linecap:round;stroke-linejoin:bevel;stroke-miterlimit:4;stroke-dasharray:none;stroke-opacity:1"
           id="path2292" />
      </g>
      <g
         id="g2294"
         transform="matrix(0.26458333,0,0,0.26458333,144.37856,161.04891)"
         style="stroke-width:1.93655;stroke-miterlimit:4;stroke-dasharray:none">
        <path
           d="m 0,0 -0.22,2.38 -0.86,2.16 -1.19,2.05 -1.72,1.73 -2.05,1.3 -2.26,0.75 -2.37,0.22"
           style="fill:none;stroke:#000000;stroke-width:1.93655;stroke-linecap:round;stroke-linejoin:bevel;stroke-miterlimit:4;stroke-dasharray:none;stroke-opacity:1"
           id="path2296" />
      </g>
      <g
         id="g2298"
         transform="matrix(0.26458333,0,0,0.26458333,-29.542653,24.092645)"
         style="stroke-width:1.93655;stroke-miterlimit:4;stroke-dasharray:none">
        <path
           d="M 657.34003,417.67001 V 517.63"
           style="fill:none;stroke:#000000;stroke-width:1.93655;stroke-linecap:round;stroke-linejoin:bevel;stroke-miterlimit:4;stroke-dasharray:none;stroke-opacity:1"
           id="path2300" />
      </g>
      <g
         id="g2302"
         transform="matrix(0.26458333,0,0,0.26458333,-29.542653,24.092645)"
         style="stroke-width:1.93655;stroke-miterlimit:4;stroke-dasharray:none">
        <path
           d="M 668.76001,417.67001 H 657.34003"
           style="fill:none;stroke:#000000;stroke-width:1.93655;stroke-linecap:round;stroke-linejoin:bevel;stroke-miterlimit:4;stroke-dasharray:none;stroke-opacity:1"
           id="path2304" />
      </g>
      <g
         id="g2306"
         transform="matrix(0.26458333,0,0,0.26458333,-29.542653,24.092645)"
         style="stroke-width:1.93655;stroke-miterlimit:4;stroke-dasharray:none">
        <path
           d="M 668.76001,517.63 V 417.67001"
           style="fill:none;stroke:#000000;stroke-width:1.93655;stroke-linecap:round;stroke-linejoin:bevel;stroke-miterlimit:4;stroke-dasharray:none;stroke-opacity:1"
           id="path2308" />
      </g>
      <g
         id="g2310"
         transform="matrix(0.26458333,0,0,0.26458333,-29.542653,24.092645)"
         style="stroke-width:1.93655;stroke-miterlimit:4;stroke-dasharray:none">
        <path
           d="m 657.34003,387.19 h 11.41998"
           style="fill:none;stroke:#000000;stroke-width:1.93655;stroke-linecap:round;stroke-linejoin:bevel;stroke-miterlimit:4;stroke-dasharray:none;stroke-opacity:1"
           id="path2312" />
      </g>
      <g
         id="g2314"
         transform="matrix(0.26458333,0,0,0.26458333,-29.542653,24.092645)"
         style="stroke-width:1.93655;stroke-miterlimit:4;stroke-dasharray:none">
        <path
           d="M 657.34003,417.67001 V 387.19"
           style="fill:none;stroke:#000000;stroke-width:1.93655;stroke-linecap:round;stroke-linejoin:bevel;stroke-miterlimit:4;stroke-dasharray:none;stroke-opacity:1"
           id="path2316" />
      </g>
      <g
         id="g2318"
         transform="matrix(0.26458333,0,0,0.26458333,-29.542653,24.092645)"
         style="stroke-width:1.93655;stroke-miterlimit:4;stroke-dasharray:none">
        <path
           d="m 668.76001,387.19 v 30.48001"
           style="fill:none;stroke:#000000;stroke-width:1.93655;stroke-linecap:round;stroke-linejoin:bevel;stroke-miterlimit:4;stroke-dasharray:none;stroke-opacity:1"
           id="path2320" />
      </g>
      <g
         id="g2322"
         transform="matrix(0.26458333,0,0,0.26458333,-29.542653,24.092645)"
         style="stroke-width:1.93655;stroke-miterlimit:4;stroke-dasharray:none">
        <path
           d="M 594.52002,260.54001 592.69,257.51999"
           style="fill:none;stroke:#000000;stroke-width:1.93655;stroke-linecap:round;stroke-linejoin:bevel;stroke-miterlimit:4;stroke-dasharray:none;stroke-opacity:1"
           id="path2324" />
      </g>
      <g
         id="g2326"
         transform="matrix(0.26458333,0,0,0.26458333,-29.542653,24.092645)"
         style="stroke-width:1.93655;stroke-miterlimit:4;stroke-dasharray:none">
        <path
           d="m 516.73999,257.51999 -1.83002,3.02002"
           style="fill:none;stroke:#000000;stroke-width:1.93655;stroke-linecap:round;stroke-linejoin:bevel;stroke-miterlimit:4;stroke-dasharray:none;stroke-opacity:1"
           id="path2328" />
      </g>
      <g
         id="g2330"
         transform="matrix(0.26458333,0,0,0.26458333,107.17813,92.228141)"
         style="stroke-width:1.93655;stroke-miterlimit:4;stroke-dasharray:none">
        <path
           d="m 0,0 h 0.21 0.87 1.29 1.94 2.37 2.8 3.23 3.660001 3.879999 4.200001 4.42 4.530001 4.519996 4.630001 4.530003 4.419998 4.09 3.990002 3.549999 3.34 2.799996 2.370002 1.840004 1.399994 0.860001 0.209999"
           style="fill:none;stroke:#000000;stroke-width:1.93655;stroke-linecap:round;stroke-linejoin:bevel;stroke-miterlimit:4;stroke-dasharray:none;stroke-opacity:1"
           id="path2332" />
      </g>
      <g
         id="g2334"
         transform="matrix(0.26458333,0,0,0.26458333,-29.542653,24.092645)"
         style="stroke-width:1.93655;stroke-miterlimit:4;stroke-dasharray:none">
        <path
           d="M 592.69,257.51999 V 249.84"
           style="fill:none;stroke:#000000;stroke-width:1.93655;stroke-linecap:round;stroke-linejoin:bevel;stroke-miterlimit:4;stroke-dasharray:none;stroke-opacity:1"
           id="path2336" />
      </g>
      <g
         id="g2338"
         transform="matrix(0.26458333,0,0,0.26458333,-29.542653,24.092645)"
         style="stroke-width:1.93655;stroke-miterlimit:4;stroke-dasharray:none">
        <path
           d="m 516.73999,249.84 v 7.67999"
           style="fill:none;stroke:#000000;stroke-width:1.93655;stroke-linecap:round;stroke-linejoin:bevel;stroke-miterlimit:4;stroke-dasharray:none;stroke-opacity:1"
           id="path2340" />
      </g>
      <g
         id="g2342"
         transform="matrix(0.26458333,0,0,0.26458333,107.17813,90.196144)"
         style="stroke-width:1.93655;stroke-miterlimit:4;stroke-dasharray:none">
        <path
           d="m 0,0 h 0.21 0.87 1.29 1.94 2.37 2.8 3.23 3.660001 3.879999 4.200001 4.42 4.530001 4.519996 4.630001 4.530003 4.419998 4.09 3.990002 3.549999 3.34 2.799996 2.370002 1.840004 1.399994 0.860001 0.209999"
           style="fill:none;stroke:#000000;stroke-width:1.93655;stroke-linecap:round;stroke-linejoin:bevel;stroke-miterlimit:4;stroke-dasharray:none;stroke-opacity:1"
           id="path2344" />
      </g>
      <g
         id="g2346"
         transform="matrix(0.26458333,0,0,0.26458333,-29.542653,24.092645)"
         style="stroke-width:1.93655;stroke-miterlimit:4;stroke-dasharray:none">
        <path
           d="m 657.34003,416.14999 h -7.55005"
           style="fill:none;stroke:#000000;stroke-width:1.93655;stroke-linecap:round;stroke-linejoin:bevel;stroke-miterlimit:4;stroke-dasharray:none;stroke-opacity:1"
           id="path2348" />
      </g>
      <g
         id="g2350"
         transform="matrix(0.26458333,0,0,0.26458333,-29.542653,24.092645)"
         style="stroke-width:1.93655;stroke-miterlimit:4;stroke-dasharray:none">
        <path
           d="m 649.78998,434.42001 h 7.55005"
           style="fill:none;stroke:#000000;stroke-width:1.93655;stroke-linecap:round;stroke-linejoin:bevel;stroke-miterlimit:4;stroke-dasharray:none;stroke-opacity:1"
           id="path2352" />
      </g>
      <g
         id="g2354"
         transform="matrix(0.26458333,0,0,0.26458333,-29.542653,24.092645)"
         style="stroke-width:1.93655;stroke-miterlimit:4;stroke-dasharray:none">
        <path
           d="m 459.64001,416.14999 h -7.54"
           style="fill:none;stroke:#000000;stroke-width:1.93655;stroke-linecap:round;stroke-linejoin:bevel;stroke-miterlimit:4;stroke-dasharray:none;stroke-opacity:1"
           id="path2356" />
      </g>
      <g
         id="g2358"
         transform="matrix(0.26458333,0,0,0.26458333,-29.542653,24.092645)"
         style="stroke-width:1.93655;stroke-miterlimit:4;stroke-dasharray:none">
        <path
           d="m 452.10001,434.42001 h 7.54"
           style="fill:none;stroke:#000000;stroke-width:1.93655;stroke-linecap:round;stroke-linejoin:bevel;stroke-miterlimit:4;stroke-dasharray:none;stroke-opacity:1"
           id="path2360" />
      </g>
    </g>
  </g>
</svg>
