<?xml version="1.0" encoding="UTF-8" standalone="no"?>
<svg
   xmlns:dc="http://purl.org/dc/elements/1.1/"
   xmlns:cc="http://creativecommons.org/ns#"
   xmlns:rdf="http://www.w3.org/1999/02/22-rdf-syntax-ns#"
   xmlns:svg="http://www.w3.org/2000/svg"
   xmlns="http://www.w3.org/2000/svg"
   id="svg45"
   height="16.34mm"
   width="21.700001mm"
   version="1.0">
  <metadata
     id="metadata49">
    <rdf:RDF>
      <cc:Work
         rdf:about="">
        <dc:format>image/svg+xml</dc:format>
        <dc:type
           rdf:resource="http://purl.org/dc/dcmitype/StillImage" />
      </cc:Work>
    </rdf:RDF>
  </metadata>
  <defs
     id="defs3">
    <pattern
       y="0"
       x="0"
       height="6"
       width="6"
       patternUnits="userSpaceOnUse"
       id="EMFhbasepattern" />
  </defs>
  <path
     id="path5"
     d="  M 0,0   L 0,62.591811   L 82.868031,62.591811   L 82.868031,0   L 0,0   z "
     style="fill:#ffffff;fill-rule:evenodd;fill-opacity:1;stroke:none;" />
  <path
     id="path7"
     d="  M 0,0   L 0,62.591811   L 82.868031,62.591811   L 82.868031,0   L 0,0   z "
     style="fill:#ffffff;fill-rule:evenodd;fill-opacity:1;stroke:none;" />
  <path
     id="path9"
     d="  M 10.578898,4.6282677   L 10.578898,55.373917   L 74.933858,55.373917   L 74.933858,4.6282677   L 10.578898,4.6282677   z "
     style="fill:#ffffff;fill-rule:evenodd;fill-opacity:1;stroke:none;" />
  <path
     id="path11"
     d="  M 10.578898,55.373917   L 74.933858,55.373917  "
     style="fill:none;stroke:#262626;stroke-width:1.0468701px;stroke-linecap:butt;stroke-linejoin:round;stroke-miterlimit:4;stroke-dasharray:none;stroke-opacity:1;" />
  <path
     id="path13"
     d="  M 10.578898,4.6282677   L 74.933858,4.6282677  "
     style="fill:none;stroke:#262626;stroke-width:1.0468701px;stroke-linecap:butt;stroke-linejoin:round;stroke-miterlimit:4;stroke-dasharray:none;stroke-opacity:1;" />
  <path
     id="path15"
     d="  M 10.578898,55.373917   L 10.578898,4.6282677  "
     style="fill:none;stroke:#262626;stroke-width:1.0468701px;stroke-linecap:butt;stroke-linejoin:round;stroke-miterlimit:4;stroke-dasharray:none;stroke-opacity:1;" />
  <path
     id="path17"
     d="  M 74.933858,55.373917   L 74.933858,4.6282677  "
     style="fill:none;stroke:#262626;stroke-width:1.0468701px;stroke-linecap:butt;stroke-linejoin:round;stroke-miterlimit:4;stroke-dasharray:none;stroke-opacity:1;" />
  <path
     id="path19"
     d="  M 15.75815,29.973543   L 69.093425,29.973543  "
     style="fill:none;stroke:#000000;stroke-width:1.0468701px;stroke-linecap:butt;stroke-linejoin:round;stroke-miterlimit:4;stroke-dasharray:none;stroke-opacity:1;" />
  <path
     id="path21"
     d="  M 63.308091,27.934902   L 69.809705,29.973543   L 63.308091,32.067283   L 63.308091,27.934902  "
     style="fill:none;stroke:#000000;stroke-width:0.60608268px;stroke-linecap:butt;stroke-linejoin:round;stroke-miterlimit:4;stroke-dasharray:none;stroke-opacity:1;" />
  <path
     id="path23"
     d="  M 63.308091,32.067283   L 69.809705,29.973543   L 63.308091,27.934902   z "
     style="fill:#000000;fill-rule:nonzero;fill-opacity:1;stroke:none;" />
  <path
     id="path25"
     d="  M 15.75815,48.9825   L 15.75815,11.90126  "
     style="fill:none;stroke:#000000;stroke-width:1.0468701px;stroke-linecap:butt;stroke-linejoin:round;stroke-miterlimit:4;stroke-dasharray:none;stroke-opacity:1;" />
  <path
     id="path27"
     d="  M 13.719508,17.521299   L 15.75815,11.019685   L 17.796791,17.521299   L 13.719508,17.521299  "
     style="fill:none;stroke:#000000;stroke-width:0.60608268px;stroke-linecap:butt;stroke-linejoin:round;stroke-miterlimit:4;stroke-dasharray:none;stroke-opacity:1;" />
  <path
     id="path29"
     d="  M 17.796791,17.521299   L 15.75815,11.019685   L 13.719508,17.521299   z "
     style="fill:#000000;fill-rule:nonzero;fill-opacity:1;stroke:none;" />
  <path
     id="path31"
     d="  M 15.75815,29.973543   L 15.813248,29.973543   L 15.813248,29.973543   L 15.868346,29.973543   L 15.923445,29.973543   L 15.978543,29.973543   L 16.033642,29.973543   L 16.033642,29.973543   L 16.08874,29.973543   L 16.143839,29.973543   L 16.198937,29.918445   L 16.254035,29.918445   L 16.254035,29.918445   L 16.309134,29.918445   L 16.364232,29.863346   L 16.419331,29.863346   L 16.474429,29.863346   L 16.474429,29.863346   L 16.529528,29.808248   L 16.584626,29.808248   L 16.639724,29.75315   L 16.694823,29.75315   L 16.694823,29.75315   L 16.749921,29.698051   L 16.80502,29.698051   L 16.860118,29.642953   L 16.915217,29.642953   L 16.915217,29.587854   L 16.970315,29.587854   L 17.025413,29.532756   L 17.080512,29.477657   L 17.13561,29.477657   L 17.13561,29.422559   L 17.190709,29.367461   L 17.245807,29.367461   L 17.300906,29.312362   L 17.356004,29.257264   L 17.356004,29.257264   L 17.411102,29.202165   L 17.466201,29.147067   L 17.521299,29.091969   L 17.576398,29.03687   L 17.576398,29.03687   L 17.631496,28.981772   L 17.686594,28.926673   L 17.741693,28.871575   L 17.741693,28.816476   L 17.796791,28.761378   L 17.85189,28.70628   L 17.906988,28.651181   L 17.962087,28.596083   L 17.962087,28.540984   L 18.017185,28.485886   L 18.072283,28.430787   L 18.127382,28.375689   L 18.18248,28.320591   L 18.18248,28.265492   L 18.237579,28.210394   L 18.292677,28.155295   L 18.347776,28.045098   L 18.402874,27.99   L 18.402874,27.934902   L 18.457972,27.879803   L 18.513071,27.824705   L 18.568169,27.714508   L 18.623268,27.659409   L 18.623268,27.604311   L 18.678366,27.494114   L 18.733465,27.439016   L 18.788563,27.383917   L 18.843661,27.27372   L 18.843661,27.218622   L 18.89876,27.163524   L 18.953858,27.053327   L 19.008957,26.998228   L 19.064055,26.888031   L 19.064055,26.832933   L 19.119154,26.777835   L 19.174252,26.667638   L 19.22935,26.612539   L 19.284449,26.502343   L 19.284449,26.447244   L 19.339547,26.337047   L 19.394646,26.22685   L 19.449744,26.171752   L 19.449744,26.061555   L 19.504843,26.006457   L 19.559941,25.89626   L 19.615039,25.786063   L 19.670138,25.730965   L 19.670138,25.620768   L 19.725236,25.565669   L 19.780335,25.455472   L 19.835433,25.345276   L 19.890531,25.290177   L 19.890531,25.17998   L 19.94563,25.069783   L 20.000728,25.014685   L 20.055827,24.904488   L 20.110925,24.794291   L 20.110925,24.684094   L 20.166024,24.628996   L 20.221122,24.518799   L 20.27622,24.408602   L 20.331319,24.353504   L 20.331319,24.243307   L 20.386417,24.13311   L 20.441516,24.022913   L 20.496614,23.967815   L 20.551713,23.857618   L 20.551713,23.747421   L 20.606811,23.637224   L 20.661909,23.582126   L 20.717008,23.471929   L 20.772106,23.361732   L 20.772106,23.251535   L 20.827205,23.196437   L 20.882303,23.08624   L 20.937402,22.976043   L 20.9925,22.920945   L 20.9925,22.810748   L 21.047598,22.700551   L 21.102697,22.645453   L 21.157795,22.535256   L 21.157795,22.425059   L 21.212894,22.369961   L 21.267992,22.259764   L 21.323091,22.149567   L 21.378189,22.094469   L 21.378189,21.984272   L 21.433287,21.929173   L 21.488386,21.818976   L 21.543484,21.763878   L 21.598583,21.653681   L 21.598583,21.598583   L 21.653681,21.488386   L 21.70878,21.433287   L 21.763878,21.323091   L 21.818976,21.267992   L 21.818976,21.212894   L 21.874075,21.102697   L 21.929173,21.047598   L 21.984272,20.9925   L 22.03937,20.937402   L 22.03937,20.882303   L 22.094469,20.772106   L 22.149567,20.717008   L 22.204665,20.661909   L 22.259764,20.606811   L 22.259764,20.551713   L 22.314862,20.496614   L 22.369961,20.441516   L 22.425059,20.386417   L 22.480157,20.386417   L 22.480157,20.331319   L 22.535256,20.27622   L 22.590354,20.221122   L 22.645453,20.221122   L 22.700551,20.166024   L 22.700551,20.166024   L 22.75565,20.110925   L 22.810748,20.110925   L 22.865846,20.055827   L 22.865846,20.055827   L 22.920945,20.055827   L 22.976043,20.055827   L 23.031142,20.055827   L 23.08624,20.000728   L 23.08624,20.000728   L 23.141339,20.000728   L 23.196437,20.055827   L 23.251535,20.055827   L 23.306634,20.055827   L 23.306634,20.055827   L 23.361732,20.110925   L 23.416831,20.110925   L 23.471929,20.166024   L 23.527028,20.166024   L 23.527028,20.221122   L 23.582126,20.27622   L 23.637224,20.331319   L 23.692323,20.386417   L 23.747421,20.441516   L 23.747421,20.496614   L 23.80252,20.551713   L 23.857618,20.606811   L 23.912717,20.661909   L 23.967815,20.772106   L 23.967815,20.827205   L 24.022913,20.937402   L 24.078012,20.9925   L 24.13311,21.102697   L 24.188209,21.212894   L 24.188209,21.323091   L 24.243307,21.433287   L 24.298406,21.543484   L 24.353504,21.653681   L 24.408602,21.763878   L 24.408602,21.874075   L 24.463701,22.03937   L 24.518799,22.149567   L 24.573898,22.314862   L 24.628996,22.425059   L 24.628996,22.590354   L 24.684094,22.75565   L 24.739193,22.920945   L 24.794291,23.08624   L 24.794291,23.251535   L 24.84939,23.416831   L 24.904488,23.582126   L 24.959587,23.747421   L 25.014685,23.967815   L 25.014685,24.13311   L 25.069783,24.353504   L 25.124882,24.518799   L 25.17998,24.739193   L 25.235079,24.959587   L 25.235079,25.124882   L 25.290177,25.345276   L 25.345276,25.565669   L 25.400374,25.786063   L 25.455472,26.006457   L 25.455472,26.22685   L 25.510571,26.502343   L 25.565669,26.722736   L 25.620768,26.94313   L 25.675866,27.218622   L 25.675866,27.439016   L 25.730965,27.659409   L 25.786063,27.934902   L 25.841161,28.155295   L 25.89626,28.430787   L 25.89626,28.70628   L 25.951358,28.926673   L 26.006457,29.202165   L 26.061555,29.477657   L 26.116654,29.75315   L 26.116654,29.973543   L 26.171752,30.249035   L 26.22685,30.524528   L 26.281949,30.80002   L 26.337047,31.075512   L 26.337047,31.351004   L 26.392146,31.571398   L 26.447244,31.84689   L 26.502343,32.122382   L 26.502343,32.397874   L 26.557441,32.673366   L 26.612539,32.948858   L 26.667638,33.169252   L 26.722736,33.444744   L 26.722736,33.720236   L 26.777835,33.995728   L 26.832933,34.216122   L 26.888031,34.491614   L 26.94313,34.712008   L 26.94313,34.9875   L 26.998228,35.207894   L 27.053327,35.483386   L 27.108425,35.70378   L 27.163524,35.924173   L 27.163524,36.199665   L 27.218622,36.420059   L 27.27372,36.640453   L 27.328819,36.860846   L 27.383917,37.08124   L 27.383917,37.246535   L 27.439016,37.466929   L 27.494114,37.632224   L 27.549213,37.852618   L 27.604311,38.017913   L 27.604311,38.183209   L 27.659409,38.348504   L 27.714508,38.513799   L 27.769606,38.679094   L 27.824705,38.84439   L 27.824705,38.954587   L 27.879803,39.119882   L 27.934902,39.230079   L 27.99,39.340276   L 28.045098,39.450472   L 28.045098,39.560669   L 28.100197,39.615768   L 28.155295,39.725965   L 28.210394,39.781063   L 28.210394,39.836161   L 28.265492,39.89126   L 28.320591,39.89126   L 28.375689,39.946358   L 28.430787,39.946358   L 28.430787,40.001457   L 28.485886,39.946358   L 28.540984,39.946358   L 28.596083,39.946358   L 28.651181,39.89126   L 28.651181,39.836161   L 28.70628,39.781063   L 28.761378,39.725965   L 28.816476,39.670866   L 28.871575,39.560669   L 28.871575,39.450472   L 28.926673,39.340276   L 28.981772,39.230079   L 29.03687,39.119882   L 29.091969,38.954587   L 29.091969,38.789291   L 29.147067,38.623996   L 29.202165,38.458701   L 29.257264,38.293406   L 29.312362,38.073012   L 29.312362,37.852618   L 29.367461,37.632224   L 29.422559,37.411831   L 29.477657,37.191437   L 29.532756,36.915945   L 29.532756,36.695551   L 29.587854,36.420059   L 29.642953,36.144567   L 29.698051,35.869075   L 29.75315,35.593583   L 29.75315,35.262992   L 29.808248,34.9875   L 29.863346,34.656909   L 29.918445,34.326319   L 29.973543,33.995728   L 29.973543,33.665138   L 30.028642,33.334547   L 30.08374,33.003957   L 30.138839,32.618268   L 30.138839,32.287677   L 30.193937,31.901988   L 30.249035,31.571398   L 30.304134,31.185709   L 30.359232,30.80002   L 30.359232,30.469429   L 30.414331,30.08374   L 30.469429,29.698051   L 30.524528,29.312362   L 30.579626,28.926673   L 30.579626,28.596083   L 30.634724,28.210394   L 30.689823,27.824705   L 30.744921,27.439016   L 30.80002,27.108425   L 30.80002,26.722736   L 30.855118,26.337047   L 30.910217,26.006457   L 30.965315,25.675866   L 31.020413,25.290177   L 31.020413,24.959587   L 31.075512,24.628996   L 31.13061,24.298406   L 31.185709,23.967815   L 31.240807,23.692323   L 31.240807,23.361732   L 31.295906,23.08624   L 31.351004,22.810748   L 31.406102,22.535256   L 31.461201,22.259764   L 31.461201,22.03937   L 31.516299,21.818976   L 31.571398,21.598583   L 31.626496,21.378189   L 31.681594,21.157795   L 31.681594,20.9925   L 31.736693,20.827205   L 31.791791,20.661909   L 31.84689,20.551713   L 31.84689,20.441516   L 31.901988,20.331319   L 31.957087,20.221122   L 32.012185,20.166024   L 32.067283,20.110925   L 32.067283,20.055827   L 32.122382,20.055827   L 32.17748,20.000728   L 32.232579,20.055827   L 32.287677,20.055827   L 32.287677,20.110925   L 32.342776,20.166024   L 32.397874,20.27622   L 32.452972,20.386417   L 32.508071,20.496614   L 32.508071,20.606811   L 32.563169,20.772106   L 32.618268,20.937402   L 32.673366,21.157795   L 32.728465,21.378189   L 32.728465,21.598583   L 32.783563,21.818976   L 32.838661,22.094469   L 32.89376,22.314862   L 32.948858,22.645453   L 32.948858,22.920945   L 33.003957,23.251535   L 33.059055,23.582126   L 33.114154,23.912717   L 33.169252,24.298406   L 33.169252,24.628996   L 33.22435,25.014685   L 33.279449,25.400374   L 33.334547,25.841161   L 33.389646,26.22685   L 33.389646,26.667638   L 33.444744,27.053327   L 33.499843,27.494114   L 33.554941,27.934902   L 33.554941,28.375689   L 33.610039,28.871575   L 33.665138,29.312362   L 33.720236,29.75315   L 33.775335,30.193937   L 33.775335,30.689823   L 33.830433,31.13061   L 33.885531,31.571398   L 33.94063,32.067283   L 33.995728,32.508071   L 33.995728,32.948858   L 34.050827,33.389646   L 34.105925,33.830433   L 34.161024,34.27122   L 34.216122,34.656909   L 34.216122,35.097697   L 34.27122,35.483386   L 34.326319,35.869075   L 34.381417,36.254764   L 34.436516,36.585354   L 34.436516,36.971043   L 34.491614,37.301634   L 34.546713,37.632224   L 34.601811,37.907717   L 34.656909,38.183209   L 34.656909,38.458701   L 34.712008,38.679094   L 34.767106,38.954587   L 34.822205,39.119882   L 34.877303,39.340276   L 34.877303,39.505571   L 34.932402,39.615768   L 34.9875,39.725965   L 35.042598,39.836161   L 35.097697,39.89126   L 35.097697,39.946358   L 35.152795,39.946358   L 35.207894,39.946358   L 35.262992,39.946358   L 35.262992,39.89126   L 35.318091,39.836161   L 35.373189,39.725965   L 35.428287,39.615768   L 35.483386,39.450472   L 35.483386,39.285177   L 35.538484,39.064783   L 35.593583,38.84439   L 35.648681,38.623996   L 35.70378,38.348504   L 35.70378,38.017913   L 35.758878,37.742421   L 35.813976,37.411831   L 35.869075,37.026142   L 35.924173,36.695551   L 35.924173,36.309862   L 35.979272,35.869075   L 36.03437,35.428287   L 36.089469,34.9875   L 36.144567,34.546713   L 36.144567,34.105925   L 36.199665,33.610039   L 36.254764,33.114154   L 36.309862,32.618268   L 36.364961,32.122382   L 36.364961,31.571398   L 36.420059,31.075512   L 36.475157,30.524528   L 36.530256,30.028642   L 36.585354,29.477657   L 36.585354,28.981772   L 36.640453,28.430787   L 36.695551,27.934902   L 36.75065,27.383917   L 36.805748,26.888031   L 36.805748,26.392146   L 36.860846,25.89626   L 36.915945,25.400374   L 36.971043,24.904488   L 37.026142,24.463701   L 37.026142,24.022913   L 37.08124,23.582126   L 37.136339,23.196437   L 37.191437,22.810748   L 37.191437,22.425059   L 37.246535,22.094469   L 37.301634,21.763878   L 37.356732,21.488386   L 37.411831,21.212894   L 37.411831,20.937402   L 37.466929,20.717008   L 37.522028,20.551713   L 37.577126,20.386417   L 37.632224,20.221122   L 37.632224,20.166024   L 37.687323,20.055827   L 37.742421,20.055827   L 37.79752,20.000728   L 37.852618,20.055827   L 37.852618,20.110925   L 37.907717,20.166024   L 37.962815,20.331319   L 38.017913,20.441516   L 38.073012,20.606811   L 38.073012,20.827205   L 38.12811,21.102697   L 38.183209,21.378189   L 38.238307,21.653681   L 38.293406,21.984272   L 38.293406,22.314862   L 38.348504,22.700551   L 38.403602,23.141339   L 38.458701,23.582126   L 38.513799,24.022913   L 38.513799,24.463701   L 38.568898,24.959587   L 38.623996,25.510571   L 38.679094,26.006457   L 38.734193,26.557441   L 38.734193,27.108425   L 38.789291,27.659409   L 38.84439,28.265492   L 38.899488,28.816476   L 38.899488,29.422559   L 38.954587,30.028642   L 39.009685,30.579626   L 39.064783,31.185709   L 39.119882,31.791791   L 39.119882,32.342776   L 39.17498,32.948858   L 39.230079,33.499843   L 39.285177,34.050827   L 39.340276,34.601811   L 39.340276,35.097697   L 39.395374,35.648681   L 39.450472,36.089469   L 39.505571,36.585354   L 39.560669,37.026142   L 39.560669,37.411831   L 39.615768,37.852618   L 39.670866,38.183209   L 39.725965,38.513799   L 39.781063,38.84439   L 39.781063,39.119882   L 39.836161,39.340276   L 39.89126,39.505571   L 39.946358,39.670866   L 40.001457,39.836161   L 40.001457,39.89126   L 40.056555,39.946358   L 40.111654,40.001457   L 40.166752,39.946358   L 40.22185,39.89126   L 40.22185,39.781063   L 40.276949,39.615768   L 40.332047,39.450472   L 40.387146,39.230079   L 40.442244,39.009685   L 40.442244,38.679094   L 40.497343,38.403602   L 40.552441,38.017913   L 40.607539,37.632224   L 40.607539,37.191437   L 40.662638,36.75065   L 40.717736,36.254764   L 40.772835,35.758878   L 40.827933,35.207894   L 40.827933,34.656909   L 40.883031,34.105925   L 40.93813,33.499843   L 40.993228,32.89376   L 41.048327,32.287677   L 41.048327,31.626496   L 41.103425,31.020413   L 41.158524,30.359232   L 41.213622,29.698051   L 41.26872,29.091969   L 41.26872,28.430787   L 41.323819,27.769606   L 41.378917,27.163524   L 41.434016,26.557441   L 41.489114,25.951358   L 41.489114,25.345276   L 41.544213,24.794291   L 41.599311,24.243307   L 41.654409,23.692323   L 41.709508,23.196437   L 41.709508,22.75565   L 41.764606,22.314862   L 41.819705,21.874075   L 41.874803,21.543484   L 41.929902,21.212894   L 41.929902,20.882303   L 41.985,20.661909   L 42.040098,20.441516   L 42.095197,20.27622   L 42.150295,20.166024   L 42.150295,20.055827   L 42.205394,20.000728   L 42.260492,20.055827   L 42.315591,20.110925   L 42.315591,20.221122   L 42.370689,20.331319   L 42.425787,20.551713   L 42.480886,20.772106   L 42.535984,21.047598   L 42.535984,21.378189   L 42.591083,21.70878   L 42.646181,22.149567   L 42.70128,22.590354   L 42.756378,23.031142   L 42.756378,23.582126   L 42.811476,24.078012   L 42.866575,24.684094   L 42.921673,25.290177   L 42.976772,25.89626   L 42.976772,26.502343   L 43.03187,27.163524   L 43.086969,27.879803   L 43.142067,28.540984   L 43.197165,29.257264   L 43.197165,29.918445   L 43.252264,30.634724   L 43.307362,31.351004   L 43.362461,32.012185   L 43.417559,32.728465   L 43.417559,33.389646   L 43.472657,34.050827   L 43.527756,34.656909   L 43.582854,35.262992   L 43.637953,35.869075   L 43.637953,36.420059   L 43.693051,36.971043   L 43.74815,37.466929   L 43.803248,37.907717   L 43.858346,38.293406   L 43.858346,38.679094   L 43.913445,39.009685   L 43.968543,39.285177   L 44.023642,39.560669   L 44.07874,39.725965   L 44.07874,39.836161   L 44.133839,39.946358   L 44.188937,40.001457   L 44.244035,39.946358   L 44.244035,39.89126   L 44.299134,39.725965   L 44.354232,39.560669   L 44.409331,39.340276   L 44.464429,39.064783   L 44.464429,38.734193   L 44.519528,38.348504   L 44.574626,37.962815   L 44.629724,37.466929   L 44.684823,36.971043   L 44.684823,36.420059   L 44.739921,35.813976   L 44.79502,35.207894   L 44.850118,34.601811   L 44.905217,33.885531   L 44.905217,33.22435   L 44.960315,32.508071   L 45.015413,31.791791   L 45.070512,31.020413   L 45.12561,30.304134   L 45.12561,29.532756   L 45.180709,28.816476   L 45.235807,28.045098   L 45.290906,27.328819   L 45.346004,26.612539   L 45.346004,25.89626   L 45.401102,25.235079   L 45.456201,24.573898   L 45.511299,23.967815   L 45.566398,23.361732   L 45.566398,22.810748   L 45.621496,22.314862   L 45.676594,21.874075   L 45.731693,21.433287   L 45.786791,21.047598   L 45.786791,20.772106   L 45.84189,20.496614   L 45.896988,20.27622   L 45.952087,20.166024   L 45.952087,20.055827   L 46.007185,20.000728   L 46.062283,20.055827   L 46.117382,20.166024   L 46.17248,20.27622   L 46.17248,20.496614   L 46.227579,20.772106   L 46.282677,21.102697   L 46.337776,21.433287   L 46.392874,21.874075   L 46.392874,22.369961   L 46.447972,22.865846   L 46.503071,23.471929   L 46.558169,24.078012   L 46.613268,24.739193   L 46.613268,25.400374   L 46.668366,26.116654   L 46.723465,26.832933   L 46.778563,27.604311   L 46.833661,28.375689   L 46.833661,29.147067   L 46.88876,29.973543   L 46.943858,30.744921   L 46.998957,31.516299   L 47.054055,32.342776   L 47.054055,33.114154   L 47.109154,33.830433   L 47.164252,34.546713   L 47.21935,35.262992   L 47.274449,35.924173   L 47.274449,36.530256   L 47.329547,37.136339   L 47.384646,37.687323   L 47.439744,38.183209   L 47.494843,38.623996   L 47.494843,38.954587   L 47.549941,39.285177   L 47.605039,39.560669   L 47.660138,39.781063   L 47.660138,39.89126   L 47.715236,39.946358   L 47.770335,39.946358   L 47.825433,39.89126   L 47.880531,39.781063   L 47.880531,39.560669   L 47.93563,39.340276   L 47.990728,39.009685   L 48.045827,38.623996   L 48.100925,38.183209   L 48.100925,37.632224   L 48.156024,37.08124   L 48.211122,36.475157   L 48.26622,35.869075   L 48.321319,35.152795   L 48.321319,34.436516   L 48.376417,33.665138   L 48.431516,32.89376   L 48.486614,32.067283   L 48.541713,31.240807   L 48.541713,30.414331   L 48.596811,29.587854   L 48.651909,28.761378   L 48.707008,27.934902   L 48.762106,27.108425   L 48.762106,26.337047   L 48.817205,25.565669   L 48.872303,24.794291   L 48.927402,24.13311   L 48.9825,23.471929   L 48.9825,22.865846   L 49.037598,22.259764   L 49.092697,21.763878   L 49.147795,21.323091   L 49.202894,20.937402   L 49.202894,20.606811   L 49.257992,20.331319   L 49.313091,20.166024   L 49.368189,20.055827   L 49.368189,20.000728   L 49.423287,20.055827   L 49.478386,20.166024   L 49.533484,20.331319   L 49.588583,20.606811   L 49.588583,20.937402   L 49.643681,21.323091   L 49.69878,21.763878   L 49.753878,22.314862   L 49.808976,22.865846   L 49.808976,23.527028   L 49.864075,24.188209   L 49.919173,24.904488   L 49.974272,25.675866   L 50.02937,26.502343   L 50.02937,27.328819   L 50.084469,28.155295   L 50.139567,29.03687   L 50.194665,29.918445   L 50.249764,30.80002   L 50.249764,31.681594   L 50.304862,32.508071   L 50.359961,33.389646   L 50.415059,34.161024   L 50.470157,34.9875   L 50.470157,35.70378   L 50.525256,36.420059   L 50.580354,37.08124   L 50.635453,37.687323   L 50.690551,38.183209   L 50.690551,38.679094   L 50.74565,39.064783   L 50.800748,39.395374   L 50.855846,39.670866   L 50.910945,39.836161   L 50.910945,39.946358   L 50.966043,39.946358   L 51.021142,39.89126   L 51.07624,39.781063   L 51.131339,39.560669   L 51.131339,39.230079   L 51.186437,38.899488   L 51.241535,38.458701   L 51.296634,37.907717   L 51.296634,37.356732   L 51.351732,36.695551   L 51.406831,35.979272   L 51.461929,35.262992   L 51.517028,34.436516   L 51.517028,33.610039   L 51.572126,32.728465   L 51.627224,31.84689   L 51.682323,30.965315   L 51.737421,30.028642   L 51.737421,29.147067   L 51.79252,28.210394   L 51.847618,27.328819   L 51.902717,26.447244   L 51.957815,25.620768   L 51.957815,24.794291   L 52.012913,24.022913   L 52.068012,23.306634   L 52.12311,22.645453   L 52.178209,22.094469   L 52.178209,21.543484   L 52.233307,21.102697   L 52.288406,20.717008   L 52.343504,20.386417   L 52.398602,20.221122   L 52.398602,20.055827   L 52.453701,20.000728   L 52.508799,20.055827   L 52.563898,20.221122   L 52.618996,20.441516   L 52.618996,20.717008   L 52.674094,21.102697   L 52.729193,21.598583   L 52.784291,22.149567   L 52.83939,22.75565   L 52.83939,23.416831   L 52.894488,24.13311   L 52.949587,24.959587   L 53.004685,25.786063   L 53.004685,26.667638   L 53.059783,27.549213   L 53.114882,28.485886   L 53.16998,29.477657   L 53.225079,30.414331   L 53.225079,31.351004   L 53.280177,32.287677   L 53.335276,33.22435   L 53.390374,34.105925   L 53.445472,34.932402   L 53.445472,35.758878   L 53.500571,36.530256   L 53.555669,37.191437   L 53.610768,37.852618   L 53.665866,38.403602   L 53.665866,38.899488   L 53.720965,39.285177   L 53.776063,39.615768   L 53.831161,39.836161   L 53.88626,39.946358   L 53.88626,39.946358   L 53.941358,39.89126   L 53.996457,39.781063   L 54.051555,39.505571   L 54.106654,39.17498   L 54.106654,38.734193   L 54.161752,38.238307   L 54.21685,37.632224   L 54.271949,36.971043   L 54.327047,36.254764   L 54.327047,35.428287   L 54.382146,34.601811   L 54.437244,33.720236   L 54.492343,32.783563   L 54.547441,31.791791   L 54.547441,30.80002   L 54.602539,29.863346   L 54.657638,28.871575   L 54.712736,27.879803   L 54.712736,26.888031   L 54.767835,26.006457   L 54.822933,25.124882   L 54.878031,24.243307   L 54.93313,23.471929   L 54.93313,22.75565   L 54.988228,22.094469   L 55.043327,21.543484   L 55.098425,21.047598   L 55.153524,20.661909   L 55.153524,20.331319   L 55.208622,20.166024   L 55.26372,20.055827   L 55.318819,20.055827   L 55.373917,20.110925   L 55.373917,20.331319   L 55.429016,20.606811   L 55.484114,21.047598   L 55.539213,21.488386   L 55.594311,22.094469   L 55.594311,22.75565   L 55.649409,23.471929   L 55.704508,24.298406   L 55.759606,25.124882   L 55.814705,26.061555   L 55.814705,26.998228   L 55.869803,27.99   L 55.924902,29.03687   L 55.98,30.028642   L 56.035098,31.075512   L 56.035098,32.067283   L 56.090197,33.059055   L 56.145295,34.050827   L 56.200394,34.932402   L 56.255492,35.813976   L 56.255492,36.640453   L 56.310591,37.356732   L 56.365689,38.017913   L 56.420787,38.568898   L 56.420787,39.064783   L 56.475886,39.450472   L 56.530984,39.725965   L 56.586083,39.89126   L 56.641181,39.946358   L 56.641181,39.946358   L 56.69628,39.781063   L 56.751378,39.505571   L 56.806476,39.17498   L 56.861575,38.734193   L 56.861575,38.12811   L 56.916673,37.522028   L 56.971772,36.75065   L 57.02687,35.979272   L 57.081969,35.097697   L 57.081969,34.161024   L 57.137067,33.169252   L 57.192165,32.17748   L 57.247264,31.13061   L 57.302362,30.08374   L 57.302362,29.03687   L 57.357461,27.99   L 57.412559,26.94313   L 57.467657,25.951358   L 57.522756,25.014685   L 57.522756,24.13311   L 57.577854,23.306634   L 57.632953,22.535256   L 57.688051,21.874075   L 57.74315,21.323091   L 57.74315,20.827205   L 57.798248,20.441516   L 57.853346,20.221122   L 57.908445,20.055827   L 57.963543,20.000728   L 57.963543,20.110925   L 58.018642,20.331319   L 58.07374,20.606811   L 58.128839,21.047598   L 58.183937,21.598583   L 58.183937,22.204665   L 58.239035,22.920945   L 58.294134,23.747421   L 58.349232,24.573898   L 58.349232,25.565669   L 58.404331,26.557441   L 58.459429,27.604311   L 58.514528,28.651181   L 58.569626,29.75315   L 58.569626,30.80002   L 58.624724,31.901988   L 58.679823,32.948858   L 58.734921,33.995728   L 58.79002,34.9875   L 58.79002,35.869075   L 58.845118,36.75065   L 58.900217,37.522028   L 58.955315,38.183209   L 59.010413,38.734193   L 59.010413,39.230079   L 59.065512,39.615768   L 59.12061,39.836161   L 59.175709,39.946358   L 59.230807,39.946358   L 59.230807,39.836161   L 59.285906,39.615768   L 59.341004,39.230079   L 59.396102,38.734193   L 59.451201,38.183209   L 59.451201,37.466929   L 59.506299,36.695551  "
     style="fill:none;stroke:#1269b0;stroke-width:1.432559px;stroke-linecap:butt;stroke-linejoin:round;stroke-miterlimit:4;stroke-dasharray:none;stroke-opacity:1;" />
  <text
     id="text37"
     y="0.000000"
     x="0.000000"
     transform="matrix(1.000000,-0.000000,0.000000,1.000000,60.828661,24.684094)"
     style="font-size:16.750000px;font-style:normal;font-variant:normal;font-weight:400;font-stretch:Normal;line-height:125.000000%;letter-spacing:0px;word-spacing:0px;fill:#000000;fill-opacity:1;stroke:none;font-family:Arial;text-align:start;text-anchor:start;"
     xml:space="preserve"><tspan
       id="tspan35"
       y="0.000000"
       x="0.000000"><tspan
         id="tspan33"
         style="fill:#000000;font-size:16.750000px;font-style:normal;font-variant:normal;font-weight:400;font-stretch:Normal;font-family:Arial;"
         dy="0.000000"
         dx="0.000000">t</tspan></tspan></text>
  <text
     id="text43"
     y="-7.934173"
     x="-41.434016"
     transform="matrix(1.000000,-0.000000,0.000000,1.000000,60.828661,24.684094)"
     style="font-size:16.750000px;font-style:normal;font-variant:normal;font-weight:400;font-stretch:Normal;line-height:125.000000%;letter-spacing:0px;word-spacing:0px;fill:#000000;fill-opacity:1;stroke:none;font-family:Arial;text-align:start;text-anchor:start;"
     xml:space="preserve"><tspan
       id="tspan41"
       y="-7.934173"
       x="-41.434016"><tspan
         id="tspan39"
         style="fill:#000000;font-size:16.750000px;font-style:normal;font-variant:normal;font-weight:400;font-stretch:Normal;font-family:Arial;"
         dy="0.000000"
         dx="0.000000">x</tspan></tspan></text>
</svg>
