<?xml version="1.0" encoding="UTF-8" standalone="no"?>
<svg
   xmlns:dc="http://purl.org/dc/elements/1.1/"
   xmlns:cc="http://creativecommons.org/ns#"
   xmlns:rdf="http://www.w3.org/1999/02/22-rdf-syntax-ns#"
   xmlns:svg="http://www.w3.org/2000/svg"
   xmlns="http://www.w3.org/2000/svg"
   id="svg53"
   height="98.940002mm"
   width="132mm"
   version="1.0">
  <metadata
     id="metadata57">
    <rdf:RDF>
      <cc:Work
         rdf:about="">
        <dc:format>image/svg+xml</dc:format>
        <dc:type
           rdf:resource="http://purl.org/dc/dcmitype/StillImage" />
      </cc:Work>
    </rdf:RDF>
  </metadata>
  <defs
     id="defs3">
    <pattern
       y="0"
       x="0"
       height="6"
       width="6"
       patternUnits="userSpaceOnUse"
       id="EMFhbasepattern" />
  </defs>
  <path
     id="path5"
     d="  M 0,0   L 0,374.66929   L 499.85291,374.66929   L 499.85291,0   L 0,0   z "
     style="fill:#ffffff;fill-rule:evenodd;fill-opacity:1;stroke:none;" />
  <path
     id="path7"
     d="  M 0,0   L 0,374.66929   L 499.85291,374.66929   L 499.85291,0   L 0,0   z "
     style="fill:#ffffff;fill-rule:evenodd;fill-opacity:1;stroke:none;" />
  <path
     id="path9"
     d="  M 65.401831,28.210394   L 65.401831,333.23528   L 452.13768,333.23528   L 452.13768,28.210394   L 65.401831,28.210394   z "
     style="fill:#ffffff;fill-rule:evenodd;fill-opacity:1;stroke:none;" />
  <path
     id="path11"
     d="  M 65.401831,333.23528   L 452.13768,333.23528  "
     style="fill:none;stroke:#262626;stroke-width:1.0468701px;stroke-linecap:butt;stroke-linejoin:round;stroke-miterlimit:4;stroke-dasharray:none;stroke-opacity:1;" />
  <path
     id="path13"
     d="  M 65.401831,333.23528   L 65.401831,28.210394  "
     style="fill:none;stroke:#262626;stroke-width:1.0468701px;stroke-linecap:butt;stroke-linejoin:round;stroke-miterlimit:4;stroke-dasharray:none;stroke-opacity:1;" />
  <path
     id="path15"
     d="  M 65.401831,180.72283   L 452.13768,180.72283  "
     style="fill:none;stroke:#262626;stroke-width:0.60608268px;stroke-linecap:butt;stroke-linejoin:round;stroke-miterlimit:4;stroke-dasharray:none;stroke-opacity:1;" />
  <path
     id="path17"
     d="  M 96.312047,180.72283   L 96.587539,178.62909   L 96.863031,176.53535   L 97.138524,174.38652   L 97.414016,172.29278   L 97.689508,170.19904   L 97.965,168.1053   L 98.240492,166.06665   L 98.515984,164.02801   L 98.791476,161.98937   L 99.066969,160.00583   L 99.342461,158.02228   L 99.562854,156.03874   L 99.838346,154.16539   L 100.11384,152.23695   L 100.38933,150.4187   L 100.66482,148.60045   L 100.94031,146.8373   L 101.21581,145.12925   L 101.4913,143.4212   L 101.76679,141.76825   L 102.04228,140.22549   L 102.31778,138.68274   L 102.59327,137.19508   L 102.86876,135.76252   L 103.08915,134.38506   L 103.36465,133.0627   L 103.64014,131.79543   L 103.91563,130.63837   L 104.19112,129.4813   L 104.46661,128.43443   L 104.74211,127.38756   L 105.0176,126.50598   L 105.29309,125.62441   L 105.56858,124.79793   L 105.84407,124.08165   L 106.11957,123.42047   L 106.33996,122.86949   L 106.61545,122.3185   L 106.89094,121.87772   L 107.16644,121.54713   L 107.44193,121.21654   L 107.71742,120.99614   L 107.99291,120.88594   L 108.26841,120.83085   L 108.5439,120.83085   L 108.81939,120.88594   L 109.09488,121.05124   L 109.37037,121.27163   L 109.59077,121.60222   L 109.86626,121.98791   L 110.14175,122.4287   L 110.41724,122.97969   L 110.69274,123.53067   L 110.96823,124.24695   L 111.24372,124.96323   L 111.51921,125.7897   L 111.7947,126.67128   L 112.0702,127.60795   L 112.34569,128.59972   L 112.62118,129.70169   L 112.84157,130.85876   L 113.11707,132.07093   L 113.39256,133.33819   L 113.66805,134.66055   L 113.94354,136.03801   L 114.21904,137.47057   L 114.49453,138.95823   L 114.77002,140.50098   L 115.04551,142.09884   L 115.321,143.75179   L 115.5965,145.45984   L 115.87199,147.16789   L 116.09238,148.98614   L 116.36787,150.74929   L 116.64337,152.62264   L 116.91886,154.49598   L 117.19435,156.42443   L 117.46984,158.40797   L 117.74533,160.39152   L 118.02083,162.37506   L 118.29632,164.4137   L 118.57181,166.45234   L 118.8473,168.54608   L 119.1228,170.63982   L 119.39829,172.73356   L 119.61868,174.8273   L 119.89417,176.92104   L 120.16967,179.06988   L 120.44516,181.16362   L 120.72065,183.31246   L 120.99614,185.4062   L 121.27163,187.49994   L 121.54713,189.64878   L 121.82262,191.68742   L 122.09811,193.78116   L 122.3736,195.8749   L 122.64909,197.91354   L 122.86949,199.89709   L 123.14498,201.93573   L 123.42047,203.86417   L 123.69596,205.84772   L 123.97146,207.72106   L 124.24695,209.59441   L 124.52244,211.46776   L 124.79793,213.23091   L 125.07343,214.99406   L 125.34892,216.7572   L 125.62441,218.41016   L 125.8999,220.00801   L 126.1203,221.60587   L 126.39579,223.14862   L 126.67128,224.58118   L 126.94677,226.01374   L 127.22226,227.3912   L 127.49776,228.71356   L 127.77325,229.92573   L 128.04874,231.13789   L 128.32423,232.23986   L 128.59972,233.28673   L 128.87522,234.2785   L 129.15071,235.21518   L 129.3711,236.04165   L 129.64659,236.81303   L 129.92209,237.52931   L 130.19758,238.19049   L 130.47307,238.74148   L 130.74856,239.23736   L 131.02406,239.67815   L 131.29955,240.00874   L 131.57504,240.28423   L 131.85053,240.50463   L 132.12602,240.61482   L 132.40152,240.66992   L 132.67701,240.66992   L 132.8974,240.55972   L 133.17289,240.39443   L 133.44839,240.17404   L 133.72388,239.84344   L 133.99937,239.45776   L 134.27486,238.96187   L 134.55035,238.41089   L 134.82585,237.8048   L 135.10134,237.14362   L 135.37683,236.37224   L 135.65232,235.54577   L 135.92781,234.66419   L 136.14821,233.67242   L 136.4237,232.68065   L 136.69919,231.57868   L 136.97469,230.42161   L 137.25018,229.20945   L 137.52567,227.94219   L 137.80116,226.56472   L 138.07665,225.18726   L 138.35215,223.7547   L 138.62764,222.21195   L 138.90313,220.66919   L 139.17862,219.07134   L 139.39902,217.41839   L 139.67451,215.71033   L 139.95,213.94719   L 140.22549,212.18404   L 140.50098,210.36579   L 140.77648,208.49244   L 141.05197,206.61909   L 141.32746,204.69065   L 141.60295,202.70711   L 141.87844,200.72356   L 142.15394,198.68492   L 142.42943,196.64628   L 142.64982,194.60764   L 142.92531,192.569   L 143.20081,190.47526   L 143.4763,188.38152   L 143.75179,186.23268   L 144.02728,184.13894   L 144.30278,182.0452   L 144.57827,179.89636   L 144.85376,177.80262   L 145.12925,175.65378   L 145.40474,173.56004   L 145.68024,171.4663   L 145.95573,169.37256   L 146.17612,167.27882   L 146.45161,165.24018   L 146.72711,163.20154   L 147.0026,161.16289   L 147.27809,159.17935   L 147.55358,157.19581   L 147.82907,155.26736   L 148.10457,153.39402   L 148.38006,151.52067   L 148.65555,149.70242   L 148.93104,147.88417   L 149.20654,146.12102   L 149.42693,144.41297   L 149.70242,142.76002   L 149.97791,141.16217   L 150.25341,139.56431   L 150.5289,138.07665   L 150.80439,136.589   L 151.07988,135.21154   L 151.35537,133.83407   L 151.63087,132.56681   L 151.90636,131.29955   L 152.18185,130.14248   L 152.45734,129.04051   L 152.67774,127.99364   L 152.95323,127.05697   L 153.22872,126.1203   L 153.50421,125.29382   L 153.7797,124.52244   L 154.0552,123.80616   L 154.33069,123.20008   L 154.60618,122.64909   L 154.88167,122.15321   L 155.15717,121.71242   L 155.43266,121.38183   L 155.70815,121.16144   L 155.92854,120.94104   L 156.20404,120.83085   L 156.47953,120.83085   L 156.75502,120.83085   L 157.03051,120.94104   L 157.306,121.16144   L 157.5815,121.38183   L 157.85699,121.71242   L 158.13248,122.15321   L 158.40797,122.64909   L 158.68346,123.20008   L 158.95896,123.80616   L 159.23445,124.52244   L 159.45484,125.29382   L 159.73033,126.1203   L 160.00583,127.05697   L 160.28132,127.99364   L 160.55681,129.04051   L 160.8323,130.14248   L 161.1078,131.29955   L 161.38329,132.56681   L 161.65878,133.83407   L 161.93427,135.21154   L 162.20976,136.589   L 162.48526,138.07665   L 162.70565,139.56431   L 162.98114,141.16217   L 163.25663,142.76002   L 163.53213,144.41297   L 163.80762,146.12102   L 164.08311,147.88417   L 164.3586,149.70242   L 164.63409,151.52067   L 164.90959,153.39402   L 165.18508,155.26736   L 165.46057,157.19581   L 165.73606,159.17935   L 165.95646,161.16289   L 166.23195,163.20154   L 166.50744,165.24018   L 166.78293,167.27882   L 167.05843,169.37256   L 167.33392,171.4663   L 167.60941,173.56004   L 167.8849,175.65378   L 168.16039,177.80262   L 168.43589,179.89636   L 168.71138,182.0452   L 168.98687,184.13894   L 169.20726,186.23268   L 169.48276,188.38152   L 169.75825,190.47526   L 170.03374,192.569   L 170.30923,194.60764   L 170.58472,196.64628   L 170.86022,198.68492   L 171.13571,200.72356   L 171.4112,202.70711   L 171.68669,204.69065   L 171.96219,206.61909   L 172.23768,208.49244   L 172.45807,210.36579   L 172.73356,212.18404   L 173.00906,213.94719   L 173.28455,215.71033   L 173.56004,217.41839   L 173.83553,219.07134   L 174.11102,220.66919   L 174.38652,222.21195   L 174.66201,223.7547   L 174.9375,225.18726   L 175.21299,226.56472   L 175.48848,227.94219   L 175.76398,229.20945   L 175.98437,230.42161   L 176.25986,231.57868   L 176.53535,232.68065   L 176.81085,233.67242   L 177.08634,234.66419   L 177.36183,235.54577   L 177.63732,236.37224   L 177.91281,237.14362   L 178.18831,237.8048   L 178.4638,238.41089   L 178.73929,238.96187   L 179.01478,239.45776   L 179.23518,239.84344   L 179.51067,240.17404   L 179.78616,240.39443   L 180.06165,240.55972   L 180.33715,240.66992   L 180.61264,240.66992   L 180.88813,240.61482   L 181.16362,240.50463   L 181.43911,240.28423   L 181.71461,240.00874   L 181.9901,239.67815   L 182.26559,239.23736   L 182.48598,238.74148   L 182.76148,238.19049   L 183.03697,237.52931   L 183.31246,236.81303   L 183.58795,236.04165   L 183.86344,235.21518   L 184.13894,234.2785   L 184.41443,233.28673   L 184.68992,232.23986   L 184.96541,231.13789   L 185.24091,229.92573   L 185.5164,228.71356   L 185.73679,227.3912   L 186.01228,226.01374   L 186.28778,224.58118   L 186.56327,223.14862   L 186.83876,221.60587   L 187.11425,220.00801   L 187.38974,218.41016   L 187.66524,216.7572   L 187.94073,214.99406   L 188.21622,213.23091   L 188.49171,211.46776   L 188.7672,209.59441   L 189.0427,207.72106   L 189.26309,205.84772   L 189.53858,203.86417   L 189.81407,201.93573   L 190.08957,199.89709   L 190.36506,197.91354   L 190.64055,195.8749   L 190.91604,193.78116   L 191.19154,191.68742   L 191.46703,189.64878   L 191.74252,187.49994   L 192.01801,185.4062   L 192.2935,183.31246   L 192.5139,181.16362   L 192.78939,179.06988   L 193.06488,176.92104   L 193.34037,174.8273   L 193.61587,172.73356   L 193.89136,170.63982   L 194.16685,168.54608   L 194.44234,166.45234   L 194.71783,164.4137   L 194.99333,162.37506   L 195.26882,160.39152   L 195.54431,158.40797   L 195.7647,156.42443   L 196.0402,154.49598   L 196.31569,152.62264   L 196.59118,150.74929   L 196.86667,148.98614   L 197.14217,147.16789   L 197.41766,145.45984   L 197.69315,143.75179   L 197.96864,142.09884   L 198.24413,140.50098   L 198.51963,138.95823   L 198.79512,137.47057   L 199.01551,136.03801   L 199.291,134.66055   L 199.5665,133.33819   L 199.84199,132.07093   L 200.11748,130.85876   L 200.39297,129.70169   L 200.66846,128.59972   L 200.94396,127.60795   L 201.21945,126.67128   L 201.49494,125.7897   L 201.77043,124.96323   L 202.04593,124.24695   L 202.32142,123.53067   L 202.54181,122.97969   L 202.8173,122.4287   L 203.0928,121.98791   L 203.36829,121.60222   L 203.64378,121.27163   L 203.91927,121.05124   L 204.19476,120.88594   L 204.47026,120.83085   L 204.74575,120.83085   L 205.02124,120.88594   L 205.29673,120.99614   L 205.57222,121.21654   L 205.79262,121.54713   L 206.06811,121.87772   L 206.3436,122.3185   L 206.61909,122.86949   L 206.89459,123.42047   L 207.17008,124.08165   L 207.44557,124.79793   L 207.72106,125.62441   L 207.99656,126.50598   L 208.27205,127.38756   L 208.54754,128.43443   L 208.82303,129.4813   L 209.04343,130.63837   L 209.31892,131.79543   L 209.59441,133.0627   L 209.8699,134.38506   L 210.14539,135.76252   L 210.42089,137.19508   L 210.69638,138.68274   L 210.97187,140.22549   L 211.24736,141.76825   L 211.52285,143.4212   L 211.79835,145.12925   L 212.07384,146.8373   L 212.29423,148.60045   L 212.56972,150.4187   L 212.84522,152.23695   L 213.12071,154.16539   L 213.3962,156.03874   L 213.67169,158.02228   L 213.94719,160.00583   L 214.22268,161.98937   L 214.49817,164.02801   L 214.77366,166.06665   L 215.04915,168.1053   L 215.32465,170.19904   L 215.54504,172.29278   L 215.82053,174.38652   L 216.09602,176.53535   L 216.37152,178.62909   L 216.64701,180.72283   L 216.9225,182.87167   L 217.19799,184.96541   L 217.47348,187.11425   L 217.74898,189.20799   L 218.02447,191.30173   L 218.29996,193.39547   L 218.57545,195.43411   L 218.85094,197.47276   L 219.07134,199.5114   L 219.34683,201.49494   L 219.62232,203.47848   L 219.89781,205.46203   L 220.17331,207.33537   L 220.4488,209.26382   L 220.72429,211.08207   L 220.99978,212.90031   L 221.27528,214.66346   L 221.55077,216.37152   L 221.82626,218.07957   L 222.10175,219.73252   L 222.32215,221.27528   L 222.59764,222.81803   L 222.87313,224.30569   L 223.14862,225.73825   L 223.42411,227.11571   L 223.69961,228.43807   L 223.9751,229.70533   L 224.25059,230.8624   L 224.52608,232.01947   L 224.80157,233.06634   L 225.07707,234.05811   L 225.35256,234.99478   L 225.57295,235.87636   L 225.84844,236.70283   L 226.12394,237.41911   L 226.39943,238.0803   L 226.67492,238.63128   L 226.95041,239.18226   L 227.22591,239.62305   L 227.5014,239.95364   L 227.77689,240.28423   L 228.05238,240.50463   L 228.32787,240.61482   L 228.60337,240.66992   L 228.82376,240.66992   L 229.09925,240.61482   L 229.37474,240.44953   L 229.65024,240.22913   L 229.92573,239.89854   L 230.20122,239.51285   L 230.47671,239.07207   L 230.7522,238.52108   L 231.0277,237.915   L 231.30319,237.25382   L 231.57868,236.53754   L 231.85417,235.71106   L 232.12967,234.82949   L 232.35006,233.89281   L 232.62555,232.84594   L 232.90104,231.79907   L 233.17654,230.64201   L 233.45203,229.42984   L 233.72752,228.16258   L 234.00301,226.84022   L 234.2785,225.46276   L 234.554,224.0302   L 234.82949,222.54254   L 235.10498,220.99978   L 235.38047,219.40193   L 235.60087,217.74898   L 235.87636,216.04093   L 236.15185,214.33287   L 236.42734,212.51463   L 236.70283,210.69638   L 236.97833,208.87813   L 237.25382,206.94969   L 237.52931,205.07634   L 237.8048,203.0928   L 238.0803,201.10925   L 238.35579,199.12571   L 238.63128,197.08707   L 238.85167,195.04843   L 239.12717,192.95469   L 239.40266,190.86094   L 239.67815,188.7672   L 239.95364,186.67346   L 240.22913,184.57972   L 240.50463,182.43089   L 240.78012,180.33715   L 241.05561,178.18831   L 241.3311,176.09457   L 241.60659,174.00083   L 241.88209,171.85199   L 242.10248,169.75825   L 242.37797,167.71961   L 242.65346,165.62587   L 242.92896,163.58722   L 243.20445,161.60368   L 243.47994,159.56504   L 243.75543,157.63659   L 244.03093,155.65305   L 244.30642,153.7797   L 244.58191,151.90636   L 244.8574,150.03301   L 245.13289,148.26986   L 245.40839,146.50671   L 245.62878,144.74356   L 245.90427,143.09061   L 246.17976,141.43766   L 246.45526,139.8949   L 246.73075,138.35215   L 247.00624,136.86449   L 247.28173,135.48703   L 247.55722,134.10957   L 247.83272,132.7872   L 248.10821,131.57504   L 248.3837,130.36287   L 248.65919,129.26091   L 248.87959,128.21404   L 249.15508,127.22226   L 249.43057,126.28559   L 249.70606,125.45911   L 249.98156,124.68774   L 250.25705,123.97146   L 250.53254,123.31028   L 250.80803,122.75929   L 251.08352,122.26341   L 251.35902,121.82262   L 251.63451,121.49203   L 251.91,121.16144   L 252.13039,120.99614   L 252.40589,120.83085   L 252.68138,120.83085   L 252.95687,120.83085   L 253.23236,120.94104   L 253.50785,121.10634   L 253.78335,121.32673   L 254.05884,121.65732   L 254.33433,122.04301   L 254.60982,122.5389   L 254.88531,123.08988   L 255.16081,123.69596   L 255.3812,124.35715   L 255.65669,125.12852   L 255.93219,125.955   L 256.20768,126.83657   L 256.48317,127.82835   L 256.75866,128.82012   L 257.03415,129.92209   L 257.30965,131.07915   L 257.58514,132.29132   L 257.86063,133.55858   L 258.13612,134.93604   L 258.41161,136.3135   L 258.68711,137.74606   L 258.9075,139.28882   L 259.18299,140.83157   L 259.45848,142.42943   L 259.73398,144.08238   L 260.00947,145.79043   L 260.28496,147.55358   L 260.56045,149.31673   L 260.83594,151.13498   L 261.11144,153.00833   L 261.38693,154.88167   L 261.66242,156.81012   L 261.93791,158.79366   L 262.15831,160.7772   L 262.4338,162.81585   L 262.70929,164.79939   L 262.98478,166.89313   L 263.26028,168.93177   L 263.53577,171.02551   L 263.81126,173.11925   L 264.08675,175.26809   L 264.36224,177.36183   L 264.63774,179.45557   L 264.91323,181.60441   L 265.18872,183.69815   L 265.40911,185.84699   L 265.68461,187.94073   L 265.9601,190.03447   L 266.23559,192.12821   L 266.51108,194.22195   L 266.78657,196.26059   L 267.06207,198.29923   L 267.33756,200.33787   L 267.61305,202.32142   L 267.88854,204.24986   L 268.16404,206.23341   L 268.43953,208.10675   L 268.65992,209.9801   L 268.93541,211.79835   L 269.21091,213.61659   L 269.4864,215.37974   L 269.76189,217.0878   L 270.03738,218.74075   L 270.31287,220.3386   L 270.58837,221.93646   L 270.86386,223.42411   L 271.13935,224.91177   L 271.41484,226.28923   L 271.69033,227.66669   L 271.91073,228.93396   L 272.18622,230.20122   L 272.46171,231.35829   L 272.7372,232.46026   L 273.0127,233.50713   L 273.28819,234.4438   L 273.56368,235.38047   L 273.83917,236.20695   L 274.11467,236.97833   L 274.39016,237.69461   L 274.66565,238.30069   L 274.94114,238.85167   L 275.21663,239.34756   L 275.43703,239.73325   L 275.71252,240.11894   L 275.98801,240.33933   L 276.2635,240.55972   L 276.539,240.66992   L 276.81449,240.66992   L 277.08998,240.66992   L 277.36547,240.55972   L 277.64096,240.33933   L 277.91646,240.11894   L 278.19195,239.73325   L 278.46744,239.34756   L 278.68783,238.85167   L 278.96333,238.30069   L 279.23882,237.69461   L 279.51431,236.97833   L 279.7898,236.20695   L 280.0653,235.38047   L 280.34079,234.4438   L 280.61628,233.50713   L 280.89177,232.46026   L 281.16726,231.35829   L 281.44276,230.20122   L 281.71825,228.93396   L 281.93864,227.66669   L 282.21413,226.28923   L 282.48963,224.91177   L 282.76512,223.42411   L 283.04061,221.93646   L 283.3161,220.3386   L 283.59159,218.74075   L 283.86709,217.0878   L 284.14258,215.37974   L 284.41807,213.61659   L 284.69356,211.79835   L 284.96906,209.9801   L 285.18945,208.10675   L 285.46494,206.23341   L 285.74043,204.24986   L 286.01593,202.32142   L 286.29142,200.33787   L 286.56691,198.29923   L 286.8424,196.26059   L 287.11789,194.22195   L 287.39339,192.12821   L 287.66888,190.03447   L 287.94437,187.94073   L 288.21986,185.84699   L 288.49535,183.69815   L 288.71575,181.60441   L 288.99124,179.45557   L 289.26673,177.36183   L 289.54222,175.26809   L 289.81772,173.11925   L 290.09321,171.02551   L 290.3687,168.93177   L 290.64419,166.89313   L 290.91969,164.79939   L 291.19518,162.81585   L 291.47067,160.7772   L 291.74616,158.79366   L 291.96656,156.81012   L 292.24205,154.88167   L 292.51754,153.00833   L 292.79303,151.13498   L 293.06852,149.31673   L 293.34402,147.55358   L 293.61951,145.79043   L 293.895,144.08238   L 294.17049,142.42943   L 294.44598,140.83157   L 294.72148,139.28882   L 294.99697,137.74606   L 295.21736,136.3135   L 295.49285,134.93604   L 295.76835,133.55858   L 296.04384,132.29132   L 296.31933,131.07915   L 296.59482,129.92209   L 296.87031,128.82012   L 297.14581,127.82835   L 297.4213,126.83657   L 297.69679,125.955   L 297.97228,125.12852   L 298.24778,124.35715   L 298.46817,123.69596   L 298.74366,123.08988   L 299.01915,122.5389   L 299.29465,122.04301   L 299.57014,121.65732   L 299.84563,121.32673   L 300.12112,121.10634   L 300.39661,120.94104   L 300.67211,120.83085   L 300.9476,120.83085   L 301.22309,120.83085   L 301.49858,120.99614   L 301.77407,121.16144   L 301.99447,121.49203   L 302.26996,121.82262   L 302.54545,122.26341   L 302.82094,122.75929   L 303.09644,123.31028   L 303.37193,123.97146   L 303.64742,124.68774   L 303.92291,125.45911   L 304.19841,126.28559   L 304.4739,127.22226   L 304.74939,128.21404   L 305.02488,129.26091   L 305.24528,130.36287   L 305.52077,131.57504   L 305.79626,132.7872   L 306.07175,134.10957   L 306.34724,135.48703   L 306.62274,136.86449   L 306.89823,138.35215   L 307.17372,139.8949   L 307.44921,141.43766   L 307.7247,143.09061   L 308.0002,144.74356   L 308.27569,146.50671   L 308.49608,148.26986   L 308.77157,150.03301   L 309.04707,151.90636   L 309.32256,153.7797   L 309.59805,155.65305   L 309.87354,157.63659   L 310.14904,159.56504   L 310.42453,161.60368   L 310.70002,163.58722   L 310.97551,165.62587   L 311.251,167.71961   L 311.5265,169.75825   L 311.74689,171.85199   L 312.02238,174.00083   L 312.29787,176.09457   L 312.57337,178.18831   L 312.84886,180.33715   L 313.12435,182.43089   L 313.39984,184.57972   L 313.67533,186.67346   L 313.95083,188.7672   L 314.22632,190.86094   L 314.50181,192.95469   L 314.7773,195.04843   L 314.9977,197.08707   L 315.27319,199.12571   L 315.54868,201.10925   L 315.82417,203.0928   L 316.09967,205.07634   L 316.37516,206.94969   L 316.65065,208.87813   L 316.92614,210.69638   L 317.20163,212.51463   L 317.47713,214.33287   L 317.75262,216.04093   L 318.02811,217.74898   L 318.3036,219.40193   L 318.524,220.99978   L 318.79949,222.54254   L 319.07498,224.0302   L 319.35047,225.46276   L 319.62596,226.84022   L 319.90146,228.16258   L 320.17695,229.42984   L 320.45244,230.64201   L 320.72793,231.79907   L 321.00343,232.84594   L 321.27892,233.89281   L 321.55441,234.82949   L 321.7748,235.71106   L 322.0503,236.53754   L 322.32579,237.25382   L 322.60128,237.915   L 322.87677,238.52108   L 323.15226,239.07207   L 323.42776,239.51285   L 323.70325,239.89854   L 323.97874,240.22913   L 324.25423,240.44953   L 324.52972,240.61482   L 324.80522,240.66992   L 325.02561,240.66992   L 325.3011,240.61482   L 325.57659,240.50463   L 325.85209,240.28423   L 326.12758,239.95364   L 326.40307,239.62305   L 326.67856,239.18226   L 326.95406,238.63128   L 327.22955,238.0803   L 327.50504,237.41911   L 327.78053,236.70283   L 328.05602,235.87636   L 328.27642,234.99478   L 328.55191,234.05811   L 328.8274,233.06634   L 329.10289,232.01947   L 329.37839,230.8624   L 329.65388,229.70533   L 329.92937,228.43807   L 330.20486,227.11571   L 330.48035,225.73825   L 330.75585,224.30569   L 331.03134,222.81803   L 331.30683,221.27528   L 331.58232,219.73252   L 331.80272,218.07957   L 332.07821,216.37152   L 332.3537,214.66346   L 332.62919,212.90031   L 332.90469,211.08207   L 333.18018,209.26382   L 333.45567,207.33537   L 333.73116,205.46203   L 334.00665,203.47848   L 334.28215,201.49494   L 334.55764,199.5114   L 334.83313,197.47276   L 335.05352,195.43411   L 335.32902,193.39547   L 335.60451,191.30173   L 335.88,189.20799   L 336.15549,187.11425   L 336.43098,184.96541   L 336.70648,182.87167   L 336.98197,180.72283   L 337.25746,178.62909   L 337.53295,176.53535   L 337.80844,174.38652   L 338.08394,172.29278   L 338.30433,170.19904   L 338.57982,168.1053   L 338.85531,166.06665   L 339.13081,164.02801   L 339.4063,161.98937   L 339.68179,160.00583   L 339.95728,158.02228   L 340.23278,156.03874   L 340.50827,154.16539   L 340.78376,152.23695   L 341.05925,150.4187   L 341.33474,148.60045   L 341.55514,146.8373   L 341.83063,145.12925   L 342.10612,143.4212   L 342.38161,141.76825   L 342.65711,140.22549   L 342.9326,138.68274   L 343.20809,137.19508   L 343.48358,135.76252   L 343.75907,134.38506   L 344.03457,133.0627   L 344.31006,131.79543   L 344.58555,130.63837   L 344.86104,129.4813   L 345.08144,128.43443   L 345.35693,127.38756   L 345.63242,126.50598   L 345.90791,125.62441   L 346.18341,124.79793   L 346.4589,124.08165   L 346.73439,123.42047   L 347.00988,122.86949   L 347.28537,122.3185   L 347.56087,121.87772   L 347.83636,121.54713   L 348.11185,121.21654   L 348.33224,120.99614   L 348.60774,120.88594   L 348.88323,120.83085   L 349.15872,120.83085   L 349.43421,120.88594   L 349.7097,121.05124   L 349.9852,121.27163   L 350.26069,121.60222   L 350.53618,121.98791   L 350.81167,122.4287   L 351.08717,122.97969   L 351.36266,123.53067   L 351.58305,124.24695   L 351.85854,124.96323   L 352.13404,125.7897   L 352.40953,126.67128   L 352.68502,127.60795   L 352.96051,128.59972   L 353.236,129.70169   L 353.5115,130.85876   L 353.78699,132.07093   L 354.06248,133.33819   L 354.33797,134.66055   L 354.61346,136.03801   L 354.83386,137.47057   L 355.10935,138.95823   L 355.38484,140.50098   L 355.66033,142.09884   L 355.93583,143.75179   L 356.21132,145.45984   L 356.48681,147.16789   L 356.7623,148.98614   L 357.0378,150.74929   L 357.31329,152.62264   L 357.58878,154.49598   L 357.86427,156.42443   L 358.13976,158.40797   L 358.36016,160.39152   L 358.63565,162.37506   L 358.91114,164.4137   L 359.18663,166.45234   L 359.46213,168.54608   L 359.73762,170.63982   L 360.01311,172.73356   L 360.2886,174.8273   L 360.56409,176.92104   L 360.83959,179.06988   L 361.11508,181.16362   L 361.39057,183.31246   L 361.61096,185.4062   L 361.88646,187.49994   L 362.16195,189.64878   L 362.43744,191.68742   L 362.71293,193.78116   L 362.98843,195.8749   L 363.26392,197.91354   L 363.53941,199.89709   L 363.8149,201.93573   L 364.09039,203.86417   L 364.36589,205.84772   L 364.64138,207.72106   L 364.86177,209.59441   L 365.13726,211.46776   L 365.41276,213.23091   L 365.68825,214.99406   L 365.96374,216.7572   L 366.23923,218.41016   L 366.51472,220.00801   L 366.79022,221.60587   L 367.06571,223.14862  "
     style="fill:none;stroke:#1269b0;stroke-width:1.432559px;stroke-linecap:butt;stroke-linejoin:round;stroke-miterlimit:4;stroke-dasharray:none;stroke-opacity:1;" />
  <path
     id="path19"
     d="  M 156.47953,117.96573   C 158.07738,117.96573 159.34465,119.23299 159.34465,120.83085   L 159.34465,120.83085   C 159.34465,122.3736 158.07738,123.64087 156.47953,123.64087   C 154.93677,123.64087 153.66951,122.3736 153.66951,120.83085   C 153.66951,119.23299 154.93677,117.96573 156.47953,117.96573   z  M 156.47953,116.58827   C 154.16539,116.58827 152.29205,118.46161 152.29205,120.83085   C 152.29205,123.14498 154.16539,125.01833 156.47953,125.01833   C 158.84876,125.01833 160.72211,123.14498 160.72211,120.83085   L 160.72211,120.83085   C 160.72211,118.46161 158.84876,116.58827 156.47953,116.58827   z "
     style="fill:#000000;fill-rule:nonzero;fill-opacity:1;stroke:none;" />
  <path
     id="path21"
     d="  M 276.81449,237.8599   C 278.35724,237.8599 279.62451,239.12717 279.62451,240.66992   L 279.62451,240.66992   C 279.62451,242.26778 278.35724,243.53504 276.81449,243.53504   C 275.27173,243.53504 274.00447,242.26778 274.00447,240.66992   C 274.00447,239.12717 275.27173,237.8599 276.81449,237.8599   z  M 276.81449,236.48244   C 274.50035,236.48244 272.57191,238.35579 272.57191,240.66992   C 272.57191,243.03915 274.50035,244.9125 276.81449,244.9125   C 279.12862,244.9125 281.05707,243.03915 281.05707,240.66992   L 281.05707,240.66992   C 281.05707,238.35579 279.12862,236.48244 276.81449,236.48244   z "
     style="fill:#000000;fill-rule:nonzero;fill-opacity:1;stroke:none;" />
  <path
     id="path23"
     d="  M 156.47953,180.72283   L 156.47953,120.83085  "
     style="fill:none;stroke:#000000;stroke-width:1.432559px;stroke-linecap:butt;stroke-linejoin:round;stroke-miterlimit:4;stroke-dasharray:none;stroke-opacity:1;" />
  <path
     id="path25"
     d="  M 276.81449,180.72283   L 276.81449,240.66992  "
     style="fill:none;stroke:#000000;stroke-width:1.432559px;stroke-linecap:butt;stroke-linejoin:round;stroke-miterlimit:4;stroke-dasharray:none;stroke-opacity:1;" />
  <text
     id="text31"
     y="0.000000"
     x="0.000000"
     transform="matrix(1.000000,-0.000000,0.000000,1.000000,108.433701,89.920630)"
     style="font-size:16.750000px;font-style:normal;font-variant:normal;font-weight:400;font-stretch:Normal;line-height:125.000000%;letter-spacing:0px;word-spacing:0px;fill:#000000;fill-opacity:1;stroke:none;font-family:Arial;text-align:start;text-anchor:start;"
     xml:space="preserve"><tspan
       id="tspan29"
       y="0.000000"
       x="0.000000"><tspan
         id="tspan27"
         style="fill:#000000;font-size:16.750000px;font-style:normal;font-variant:normal;font-weight:400;font-stretch:Normal;font-family:Arial;"
         dy="0.000000"
         dx="0.000000">x</tspan></tspan></text>
  <path
     id="path33"
     d="  M 96.312047,294.83167   L 96.312047,67.109882  "
     style="fill:none;stroke:#000000;stroke-width:1.0468701px;stroke-linecap:butt;stroke-linejoin:round;stroke-miterlimit:4;stroke-dasharray:none;stroke-opacity:1;" />
  <path
     id="path35"
     d="  M 90.747106,84.465886   L 96.312047,66.669094   L 101.93209,84.465886   L 90.747106,84.465886  "
     style="fill:none;stroke:#000000;stroke-width:0.60608268px;stroke-linecap:butt;stroke-linejoin:round;stroke-miterlimit:4;stroke-dasharray:none;stroke-opacity:1;" />
  <path
     id="path37"
     d="  M 101.93209,84.465886   L 96.312047,66.669094   L 90.747106,84.465886   z "
     style="fill:#000000;fill-rule:nonzero;fill-opacity:1;stroke:none;" />
  <text
     id="text43"
     y="0.000000"
     x="0.000000"
     transform="matrix(1.000000,-0.000000,0.000000,1.000000,401.998110,164.854488)"
     style="font-size:16.750000px;font-style:normal;font-variant:normal;font-weight:400;font-stretch:Normal;line-height:125.000000%;letter-spacing:0px;word-spacing:0px;fill:#000000;fill-opacity:1;stroke:none;font-family:Arial;text-align:start;text-anchor:start;"
     xml:space="preserve"><tspan
       id="tspan41"
       y="0.000000"
       x="0.000000"><tspan
         id="tspan39"
         style="fill:#000000;font-size:16.750000px;font-style:normal;font-variant:normal;font-weight:400;font-stretch:Normal;font-family:Arial;"
         dy="0.000000"
         dx="0.000000">t</tspan></tspan></text>
  <path
     id="path45"
     d="  M 104.57681,169.26236   L 104.7972,168.93177   L 105.0727,168.49098   L 105.34819,168.1053   L 105.62368,167.66451   L 105.84407,167.27882   L 106.11957,166.83803   L 106.39506,166.45234   L 106.67055,166.01156   L 106.94604,165.62587   L 107.22154,165.24018   L 107.49703,164.79939   L 107.77252,164.4137   L 108.04801,163.97291   L 108.3235,163.58722   L 108.599,163.20154   L 108.81939,162.76075   L 109.09488,162.37506   L 109.37037,161.98937   L 109.42547,161.93427   L 108.26841,161.16289   L 108.21331,161.16289   L 107.93781,161.60368   L 107.66232,161.98937   L 107.38683,162.37506   L 107.11134,162.81585   L 106.83585,163.20154   L 106.61545,163.64232   L 106.33996,164.02801   L 106.06447,164.4137   L 105.78898,164.85449   L 105.51348,165.24018   L 105.23799,165.68096   L 104.9625,166.06665   L 104.68701,166.50744   L 104.41152,166.89313   L 104.13602,167.33392   L 103.86053,167.71961   L 103.58504,168.16039   L 103.36465,168.49098   L 104.57681,169.26236  z    M 112.40079,157.5815   L 112.62118,157.25091   L 112.89667,156.86522   L 113.17217,156.47953   L 113.44766,156.09384   L 113.72315,155.70815   L 113.99864,155.32246   L 114.27413,154.93677   L 114.54963,154.55108   L 114.77002,154.16539   L 115.04551,153.7797   L 115.321,153.39402   L 115.5965,153.06343   L 115.87199,152.67774   L 116.14748,152.29205   L 116.42297,151.90636   L 116.69846,151.57577   L 116.97396,151.19008   L 117.24945,150.80439   L 117.52494,150.4738   L 116.36787,149.64732   L 116.09238,149.97791   L 115.81689,150.3636   L 115.5414,150.74929   L 115.26591,151.07988   L 114.99041,151.46557   L 114.71492,151.85126   L 114.43943,152.23695   L 114.21904,152.56754   L 113.94354,152.95323   L 113.66805,153.33892   L 113.39256,153.72461   L 113.11707,154.1103   L 112.84157,154.49598   L 112.56608,154.88167   L 112.29059,155.26736   L 112.0151,155.65305   L 111.73961,156.03874   L 111.46411,156.42443   L 111.24372,156.75502   L 112.40079,157.5815  z    M 120.72065,146.23122   L 120.99614,145.90063   L 121.27163,145.51494   L 121.54713,145.18435   L 121.82262,144.85376   L 122.09811,144.52317   L 122.3736,144.19258   L 122.64909,143.86199   L 122.92459,143.5314   L 123.14498,143.20081   L 123.42047,142.87022   L 123.69596,142.53963   L 123.97146,142.26413   L 124.24695,141.93354   L 124.52244,141.60295   L 124.79793,141.27236   L 125.07343,140.99687   L 125.34892,140.66628   L 125.56931,140.33569   L 125.8448,140.0602   L 126.1203,139.72961   L 126.34069,139.50921   L 125.29382,138.57254   L 125.07343,138.79293   L 124.79793,139.12352   L 124.52244,139.39902   L 124.24695,139.72961   L 123.97146,140.0602   L 123.69596,140.39079   L 123.42047,140.66628   L 123.14498,140.99687   L 122.92459,141.32746   L 122.64909,141.65805   L 122.3736,141.98864   L 122.09811,142.31923   L 121.82262,142.64982   L 121.54713,142.98041   L 121.27163,143.311   L 120.99614,143.64159   L 120.72065,143.97219   L 120.44516,144.30278   L 120.16967,144.68846   L 119.89417,145.01906   L 119.61868,145.34965   L 120.72065,146.23122  z    M 129.92209,135.65232   L 130.19758,135.43193   L 130.41797,135.15644   L 130.69346,134.88094   L 130.96896,134.60545   L 131.24445,134.32996   L 131.51994,134.10957   L 131.79543,133.83407   L 132.07093,133.55858   L 132.34642,133.33819   L 132.56681,133.0627   L 132.8423,132.8423   L 133.1178,132.56681   L 133.39329,132.34642   L 133.66878,132.07093   L 133.94427,131.85053   L 134.21976,131.63014   L 134.49526,131.35465   L 134.71565,131.13425   L 134.99114,130.91386   L 135.26663,130.69346   L 135.54213,130.47307   L 135.81762,130.25268   L 136.09311,130.03228   L 136.3686,129.81189   L 135.48703,128.70992   L 135.21154,128.93031   L 134.93604,129.15071   L 134.66055,129.3711   L 134.38506,129.5915   L 134.10957,129.86699   L 133.83407,130.08738   L 133.55858,130.30778   L 133.28309,130.52817   L 133.0076,130.80366   L 132.73211,131.02406   L 132.45661,131.29955   L 132.18112,131.51994   L 131.90563,131.79543   L 131.63014,132.01583   L 131.35465,132.29132   L 131.07915,132.56681   L 130.80366,132.7872   L 130.52817,133.0627   L 130.25268,133.33819   L 129.97719,133.61368   L 129.70169,133.88917   L 129.4262,134.16467   L 129.15071,134.44016   L 128.93031,134.66055   L 129.92209,135.65232  z    M 140.61118,126.72638   L 140.88667,126.56108   L 141.16217,126.39579   L 141.43766,126.23049   L 141.71315,126.0652   L 141.93354,125.8999   L 142.20904,125.73461   L 142.48453,125.56931   L 142.76002,125.40402   L 143.03551,125.29382   L 143.311,125.12852   L 143.5314,125.01833   L 143.80689,124.85303   L 144.08238,124.68774   L 144.35787,124.57754   L 144.63337,124.46734   L 144.85376,124.30205   L 145.12925,124.19185   L 145.40474,124.08165   L 145.68024,123.97146   L 145.95573,123.86126   L 146.23122,123.69596   L 146.45161,123.58577   L 146.72711,123.47557   L 147.0026,123.42047   L 147.27809,123.31028   L 147.55358,123.20008   L 147.77398,123.08988   L 148.04947,122.97969   L 148.32496,122.92459   L 147.88417,121.54713   L 147.60868,121.65732   L 147.33319,121.76752   L 147.0577,121.87772   L 146.7822,121.98791   L 146.50671,122.09811   L 146.23122,122.20831   L 145.95573,122.3185   L 145.68024,122.4287   L 145.40474,122.5389   L 145.07415,122.64909   L 144.79866,122.81439   L 144.52317,122.92459   L 144.24768,123.03478   L 143.97219,123.20008   L 143.69669,123.31028   L 143.4212,123.47557   L 143.14571,123.58577   L 142.87022,123.75106   L 142.59472,123.91636   L 142.31923,124.02656   L 142.04374,124.19185   L 141.76825,124.35715   L 141.49276,124.52244   L 141.21726,124.68774   L 140.94177,124.85303   L 140.66628,125.01833   L 140.39079,125.18362   L 140.1153,125.34892   L 139.8398,125.51421   L 140.61118,126.72638  z    M 153.33892,121.71242   L 153.61441,121.71242   L 153.8899,121.65732   L 154.1103,121.60222   L 154.38579,121.60222   L 154.66128,121.60222   L 154.93677,121.54713   L 155.15717,121.54713   L 155.43266,121.54713   L 155.70815,121.54713   L 155.98364,121.49203   L 156.25913,121.49203   L 156.47953,121.49203   L 156.75502,121.49203   L 157.03051,121.49203   L 157.306,121.54713   L 157.5264,121.54713   L 157.80189,121.54713   L 158.07738,121.54713   L 158.35287,121.60222   L 158.62837,121.60222   L 158.84876,121.60222   L 159.12425,121.65732   L 159.39974,121.71242   L 159.67524,121.71242   L 159.89563,121.76752   L 160.17112,121.82262   L 160.44661,121.82262   L 160.72211,121.87772   L 160.9976,121.93281   L 161.21799,121.98791   L 161.49348,122.04301   L 161.76898,122.09811   L 161.82407,122.09811   L 162.15467,120.72065   L 162.09957,120.72065   L 161.76898,120.66555   L 161.49348,120.61045   L 161.21799,120.55535   L 160.9425,120.50026   L 160.66701,120.44516   L 160.39152,120.39006   L 160.11602,120.33496   L 159.84053,120.33496   L 159.56504,120.27986   L 159.28955,120.27986   L 159.01406,120.22476   L 158.73856,120.22476   L 158.46307,120.16967   L 158.18758,120.16967   L 157.91209,120.11457   L 157.63659,120.11457   L 157.3611,120.11457   L 157.08561,120.11457   L 156.75502,120.11457   L 156.47953,120.11457   L 156.20404,120.11457   L 155.92854,120.11457   L 155.65305,120.11457   L 155.37756,120.11457   L 155.10207,120.11457   L 154.82657,120.16967   L 154.55108,120.16967   L 154.27559,120.22476   L 154.0001,120.22476   L 153.72461,120.27986   L 153.44911,120.27986   L 153.17362,120.33496   L 153.33892,121.71242  z    M 166.78293,123.69596   L 167.05843,123.86126   L 167.33392,123.97146   L 167.60941,124.08165   L 167.8298,124.19185   L 168.1053,124.30205   L 168.38079,124.46734   L 168.65628,124.57754   L 168.93177,124.74283   L 169.20726,124.85303   L 169.42766,125.01833   L 169.70315,125.12852   L 169.97864,125.29382   L 170.25413,125.45911   L 170.52963,125.56931   L 170.75002,125.73461   L 171.02551,125.8999   L 171.301,126.0652   L 171.5765,126.23049   L 171.85199,126.39579   L 172.12748,126.56108   L 172.40297,126.72638   L 172.62337,126.89167   L 172.89886,127.05697   L 173.17435,127.22226   L 173.44984,127.44266   L 173.72533,127.60795   L 174.00083,127.77325   L 174.22122,127.99364   L 175.0477,126.83657   L 174.7722,126.67128   L 174.49671,126.45089   L 174.22122,126.28559   L 173.94573,126.0652   L 173.67024,125.8999   L 173.39474,125.73461   L 173.11925,125.51421   L 172.84376,125.34892   L 172.56827,125.18362   L 172.29278,125.01833   L 172.01728,124.85303   L 171.74179,124.68774   L 171.4663,124.52244   L 171.19081,124.35715   L 170.91531,124.19185   L 170.63982,124.02656   L 170.36433,123.91636   L 170.08884,123.75106   L 169.81335,123.58577   L 169.53785,123.47557   L 169.26236,123.31028   L 168.98687,123.20008   L 168.71138,123.03478   L 168.43589,122.92459   L 168.16039,122.81439   L 167.8849,122.64909   L 167.60941,122.5389   L 167.33392,122.4287   L 166.78293,123.69596  z    M 178.3536,131.24445   L 178.5189,131.35465   L 178.79439,131.63014   L 179.06988,131.85053   L 179.34537,132.07093   L 179.62087,132.34642   L 179.89636,132.56681   L 180.11675,132.8423   L 180.39224,133.0627   L 180.66774,133.33819   L 180.94323,133.55858   L 181.21872,133.83407   L 181.49421,134.10957   L 181.7697,134.32996   L 182.0452,134.60545   L 182.26559,134.88094   L 182.54108,135.15644   L 182.81657,135.43193   L 183.09207,135.70742   L 183.36756,135.98291   L 183.64305,136.25841   L 183.91854,136.5339   L 184.19404,136.80939   L 184.41443,137.08488   L 184.63482,137.30528   L 185.68169,136.3135   L 185.4613,136.09311   L 185.18581,135.81762   L 184.91031,135.54213   L 184.63482,135.26663   L 184.35933,134.99114   L 184.08384,134.71565   L 183.80835,134.44016   L 183.53285,134.16467   L 183.25736,133.88917   L 182.98187,133.61368   L 182.76148,133.33819   L 182.48598,133.0627   L 182.21049,132.7872   L 181.935,132.56681   L 181.65951,132.29132   L 181.38402,132.01583   L 181.10852,131.79543   L 180.83303,131.51994   L 180.55754,131.29955   L 180.28205,131.02406   L 180.00656,130.80366   L 179.73106,130.52817   L 179.45557,130.30778   L 179.29028,130.14248   L 178.3536,131.24445  z    M 188.16112,141.21726   L 188.21622,141.27236   L 188.49171,141.60295   L 188.7672,141.93354   L 189.0427,142.26413   L 189.26309,142.53963   L 189.53858,142.87022   L 189.81407,143.20081   L 190.08957,143.5314   L 190.36506,143.86199   L 190.64055,144.19258   L 190.91604,144.52317   L 191.19154,144.85376   L 191.46703,145.18435   L 191.74252,145.57004   L 191.96291,145.90063   L 192.23841,146.23122   L 192.5139,146.56181   L 192.78939,146.8924   L 193.06488,147.27809   L 193.34037,147.60868   L 193.61587,147.93927   L 193.67096,148.04947   L 194.77293,147.16789   L 194.71783,147.1128   L 194.44234,146.72711   L 194.16685,146.39652   L 193.89136,146.06593   L 193.61587,145.68024   L 193.34037,145.34965   L 193.11998,145.01906   L 192.84449,144.68846   L 192.569,144.30278   L 192.2935,143.97219   L 192.01801,143.64159   L 191.74252,143.311   L 191.46703,142.98041   L 191.19154,142.64982   L 190.91604,142.31923   L 190.64055,141.98864   L 190.36506,141.65805   L 190.08957,141.32746   L 189.81407,140.99687   L 189.53858,140.66628   L 189.26309,140.39079   L 189.20799,140.28059   L 188.16112,141.21726  z    M 196.86667,152.29205   L 197.14217,152.67774   L 197.36256,153.06343   L 197.63805,153.39402   L 197.91354,153.7797   L 198.18904,154.16539   L 198.46453,154.55108   L 198.74002,154.93677   L 199.01551,155.32246   L 199.291,155.70815   L 199.5665,156.09384   L 199.84199,156.47953   L 200.11748,156.86522   L 200.33787,157.25091   L 200.61337,157.63659   L 200.88886,158.02228   L 201.16435,158.40797   L 201.43984,158.79366   L 201.71533,159.17935   L 201.88063,159.45484   L 203.0377,158.62837   L 202.8724,158.40797   L 202.59691,158.02228   L 202.32142,157.5815   L 202.04593,157.19581   L 201.77043,156.81012   L 201.49494,156.42443   L 201.21945,156.03874   L 200.99906,155.65305   L 200.72356,155.26736   L 200.44807,154.88167   L 200.17258,154.49598   L 199.89709,154.1103   L 199.62159,153.72461   L 199.3461,153.33892   L 199.07061,152.95323   L 198.79512,152.56754   L 198.51963,152.23695   L 198.24413,151.85126   L 197.96864,151.46557   L 196.86667,152.29205  z    M 204.85594,163.80762   L 204.96614,163.97291   L 205.24163,164.4137   L 205.51713,164.79939   L 205.79262,165.24018   L 206.06811,165.62587   L 206.2885,166.01156   L 206.564,166.45234   L 206.83949,166.83803   L 207.11498,167.27882   L 207.39047,167.66451   L 207.66596,168.1053   L 207.94146,168.49098   L 208.21695,168.93177   L 208.49244,169.31746   L 208.76793,169.75825   L 209.04343,170.14394   L 209.26382,170.58472   L 209.53931,171.02551   L 209.70461,171.19081   L 210.86167,170.41943   L 210.75148,170.25413   L 210.47598,169.81335   L 210.20049,169.37256   L 209.925,168.98687   L 209.64951,168.54608   L 209.37402,168.16039   L 209.09852,167.71961   L 208.82303,167.33392   L 208.54754,166.89313   L 208.32715,166.50744   L 208.05165,166.06665   L 207.77616,165.68096   L 207.50067,165.24018   L 207.22518,164.85449   L 206.94969,164.4137   L 206.67419,164.02801   L 206.3987,163.64232   L 206.12321,163.20154   L 206.01301,163.03624   L 204.85594,163.80762  z    M 212.56972,175.65378   L 212.79012,176.03947   L 213.06561,176.48026   L 213.3411,176.86594   L 213.61659,177.30673   L 213.89209,177.74752   L 214.16758,178.18831   L 214.44307,178.574   L 214.71856,179.01478   L 214.99406,179.45557   L 215.26955,179.84126   L 215.54504,180.28205   L 215.76543,180.72283   L 216.04093,181.10852   L 216.31642,181.54931   L 216.59191,181.9901   L 216.8674,182.37579   L 217.14289,182.81657   L 217.30819,183.03697   L 218.46526,182.32069   L 218.35506,182.0452   L 218.07957,181.65951   L 217.80407,181.21872   L 217.52858,180.77793   L 217.25309,180.39224   L 216.9776,179.95146   L 216.70211,179.51067   L 216.42661,179.06988   L 216.15112,178.68419   L 215.87563,178.24341   L 215.60014,177.80262   L 215.37974,177.41693   L 215.10425,176.97614   L 214.82876,176.53535   L 214.55327,176.14967   L 214.27778,175.70888   L 214.00228,175.26809   L 213.72679,174.8824   L 212.56972,175.65378  z    M 220.17331,187.49994   L 220.3937,187.88563   L 220.66919,188.32642   L 220.94469,188.7672   L 221.22018,189.15289   L 221.49567,189.59368   L 221.77116,189.97937   L 222.04665,190.42016   L 222.32215,190.86094   L 222.54254,191.24663   L 222.81803,191.68742   L 223.09352,192.07311   L 223.36902,192.5139   L 223.64451,192.95469   L 223.92,193.34037   L 224.19549,193.78116   L 224.47098,194.16685   L 224.74648,194.60764   L 224.96687,194.93823   L 226.12394,194.11175   L 225.90354,193.83626   L 225.62805,193.39547   L 225.35256,193.00978   L 225.13217,192.569   L 224.85667,192.18331   L 224.58118,191.74252   L 224.30569,191.35683   L 224.0302,190.91604   L 223.7547,190.47526   L 223.47921,190.08957   L 223.20372,189.64878   L 222.92823,189.26309   L 222.65274,188.8223   L 222.37724,188.38152   L 222.10175,187.99583   L 221.88136,187.55504   L 221.60587,187.11425   L 221.33037,186.72856   L 220.17331,187.49994  z    M 227.88709,199.3461   L 227.99728,199.5114   L 228.27278,199.89709   L 228.54827,200.33787   L 228.82376,200.72356   L 229.09925,201.10925   L 229.37474,201.49494   L 229.59514,201.93573   L 229.87063,202.32142   L 230.14612,202.70711   L 230.42161,203.0928   L 230.69711,203.47848   L 230.9726,203.91927   L 231.24809,204.30496   L 231.52358,204.69065   L 231.79907,205.07634   L 232.07457,205.46203   L 232.35006,205.84772   L 232.62555,206.23341   L 232.90104,206.61909   L 234.00301,205.79262   L 233.78262,205.40693   L 233.50713,205.02124   L 233.23163,204.63555   L 232.95614,204.24986   L 232.68065,203.86417   L 232.40516,203.47848   L 232.12967,203.0928   L 231.85417,202.70711   L 231.57868,202.32142   L 231.30319,201.93573   L 231.0828,201.49494   L 230.8073,201.10925   L 230.53181,200.72356   L 230.25632,200.33787   L 229.98083,199.89709   L 229.70533,199.5114   L 229.42984,199.12571   L 229.15435,198.74002   L 229.04415,198.51963   L 227.88709,199.3461  z    M 235.98656,210.91677   L 236.15185,211.13717   L 236.42734,211.52285   L 236.70283,211.85344   L 236.97833,212.23913   L 237.25382,212.62482   L 237.47421,212.95541   L 237.7497,213.3411   L 238.0252,213.67169   L 238.30069,214.05738   L 238.57618,214.38797   L 238.85167,214.77366   L 239.12717,215.10425   L 239.40266,215.43484   L 239.67815,215.82053   L 239.95364,216.15112   L 240.22913,216.48171   L 240.50463,216.8123   L 240.78012,217.19799   L 241.05561,217.52858   L 241.3311,217.85917   L 241.3862,217.91427   L 242.48817,217.0327   L 242.43307,216.9776   L 242.15758,216.64701   L 241.88209,216.31642   L 241.60659,215.93073   L 241.3311,215.60014   L 241.05561,215.26955   L 240.78012,214.93896   L 240.50463,214.60837   L 240.22913,214.22268   L 239.95364,213.89209   L 239.73325,213.5064   L 239.45776,213.17581   L 239.18226,212.84522   L 238.90677,212.45953   L 238.63128,212.12894   L 238.35579,211.74325   L 238.0803,211.41266   L 237.8048,211.02697   L 237.52931,210.64128   L 237.25382,210.31069   L 237.08852,210.0903   L 235.98656,210.91677  z    M 244.8023,221.99156   L 244.8574,222.04665   L 245.13289,222.37724   L 245.40839,222.70783   L 245.68388,222.98333   L 245.95937,223.31392   L 246.23486,223.58941   L 246.51035,223.92   L 246.73075,224.19549   L 247.00624,224.52608   L 247.28173,224.80157   L 247.55722,225.07707   L 247.83272,225.35256   L 248.10821,225.68315   L 248.3837,225.95864   L 248.65919,226.23413   L 248.93469,226.50963   L 249.21018,226.78512   L 249.48567,227.06061   L 249.76116,227.3361   L 250.03665,227.61159   L 250.31215,227.88709   L 250.58764,228.16258   L 250.86313,228.43807   L 251.8549,227.3912   L 251.57941,227.17081   L 251.30392,226.89531   L 251.02843,226.61982   L 250.75293,226.34433   L 250.47744,226.06884   L 250.20195,225.79335   L 249.92646,225.51785   L 249.70606,225.24236   L 249.43057,224.96687   L 249.15508,224.69138   L 248.87959,224.41589   L 248.60409,224.14039   L 248.3286,223.8098   L 248.05311,223.53431   L 247.77762,223.25882   L 247.50213,222.98333   L 247.28173,222.65274   L 247.00624,222.37724   L 246.73075,222.04665   L 246.45526,221.77116   L 246.17976,221.44057   L 245.90427,221.16508   L 245.84917,221.05488   L 244.8023,221.99156  z    M 254.83022,232.01947   L 254.94041,232.12967   L 255.21591,232.35006   L 255.4914,232.57045   L 255.76689,232.79085   L 256.04238,233.01124   L 256.31787,233.23163   L 256.59337,233.45203   L 256.86886,233.61732   L 257.14435,233.83772   L 257.41984,234.05811   L 257.69533,234.2785   L 257.97083,234.4438   L 258.24632,234.66419   L 258.52181,234.82949   L 258.7973,235.04988   L 259.0728,235.21518   L 259.34829,235.43557   L 259.62378,235.60087   L 259.89927,235.76616   L 260.17476,235.98656   L 260.45026,236.15185   L 260.72575,236.31715   L 261.00124,236.48244   L 261.27673,236.64774   L 261.55222,236.81303   L 261.82772,236.97833   L 262.10321,237.14362   L 262.81949,235.93146   L 262.544,235.76616   L 262.2685,235.60087   L 261.99301,235.43557   L 261.71752,235.27028   L 261.44203,235.10498   L 261.22163,234.93969   L 260.94614,234.77439   L 260.67065,234.60909   L 260.39516,234.4438   L 260.11967,234.22341   L 259.84417,234.05811   L 259.62378,233.89281   L 259.34829,233.67242   L 259.0728,233.50713   L 258.7973,233.34183   L 258.52181,233.12144   L 258.24632,232.90104   L 258.02593,232.73575   L 257.75043,232.51535   L 257.47494,232.29496   L 257.19945,232.12967   L 256.92396,231.90927   L 256.64846,231.68888   L 256.37297,231.46848   L 256.09748,231.24809   L 255.87709,231.0277   L 255.76689,230.9175   L 254.83022,232.01947  z    M 267.00697,239.51285   L 267.06207,239.51285   L 267.33756,239.62305   L 267.61305,239.73325   L 267.88854,239.84344   L 268.16404,239.89854   L 268.43953,240.00874   L 268.71502,240.11894   L 268.99051,240.17404   L 269.3211,240.28423   L 269.59659,240.33933   L 269.87209,240.44953   L 270.14758,240.50463   L 270.42307,240.55972   L 270.69856,240.66992   L 270.97406,240.72502   L 271.24955,240.78012   L 271.52504,240.83522   L 271.80053,240.89031   L 272.07602,240.94541   L 272.35152,241.00051   L 272.62701,241.05561   L 272.9025,241.11071   L 273.17799,241.11071   L 273.45348,241.16581   L 273.72898,241.22091   L 274.00447,241.22091   L 274.27996,241.276   L 274.55545,241.276   L 274.88604,241.3311   L 275.16154,241.3311   L 275.43703,241.3862   L 275.71252,241.3862   L 275.82272,241.3862   L 275.87781,239.95364   L 275.76762,239.95364   L 275.49213,239.95364   L 275.21663,239.95364   L 274.99624,239.89854   L 274.72075,239.89854   L 274.44526,239.84344   L 274.16976,239.84344   L 273.89427,239.78835   L 273.67388,239.78835   L 273.39839,239.73325   L 273.12289,239.67815   L 272.8474,239.67815   L 272.57191,239.62305   L 272.35152,239.56795   L 272.07602,239.51285   L 271.80053,239.45776   L 271.52504,239.40266   L 271.30465,239.34756   L 271.02915,239.29246   L 270.75366,239.23736   L 270.47817,239.12717   L 270.20268,239.07207   L 269.98228,239.01697   L 269.70679,238.90677   L 269.4313,238.85167   L 269.15581,238.74148   L 268.88031,238.68638   L 268.65992,238.57618   L 268.38443,238.52108   L 268.10894,238.41089   L 267.83344,238.30069   L 267.55795,238.19049   L 267.50285,238.19049   L 267.00697,239.51285  z    M 281.27746,241.00051   L 281.55295,240.94541   L 281.82844,240.89031   L 282.10394,240.83522   L 282.37943,240.78012   L 282.65492,240.72502   L 282.93041,240.66992   L 283.20591,240.55972   L 283.4814,240.50463   L 283.75689,240.44953   L 284.03238,240.33933   L 284.30787,240.28423   L 284.58337,240.17404   L 284.85886,240.11894   L 285.18945,240.00874   L 285.46494,239.89854   L 285.74043,239.84344   L 286.01593,239.73325   L 286.29142,239.62305   L 286.56691,239.51285   L 286.8424,239.40266   L 287.11789,239.29246   L 287.39339,239.18226   L 287.66888,239.07207   L 287.94437,238.96187   L 288.21986,238.85167   L 288.49535,238.68638   L 288.77085,238.57618   L 289.04634,238.46598   L 289.32183,238.30069   L 289.59732,238.19049   L 289.70752,238.0803   L 289.10144,236.86813   L 288.93614,236.92323   L 288.71575,237.03343   L 288.44026,237.19872   L 288.16476,237.30892   L 287.88927,237.41911   L 287.61378,237.52931   L 287.39339,237.63951   L 287.11789,237.8048   L 286.8424,237.915   L 286.56691,238.0252   L 286.29142,238.0803   L 286.07102,238.19049   L 285.79553,238.30069   L 285.52004,238.41089   L 285.24455,238.52108   L 284.96906,238.57618   L 284.74866,238.68638   L 284.47317,238.74148   L 284.19768,238.85167   L 283.92219,238.90677   L 283.64669,239.01697   L 283.4263,239.07207   L 283.15081,239.12717   L 282.87531,239.23736   L 282.59982,239.29246   L 282.32433,239.34756   L 282.10394,239.40266   L 281.82844,239.45776   L 281.55295,239.51285   L 281.27746,239.56795   L 281.00197,239.62305   L 281.27746,241.00051  z    M 294.33579,235.38047   L 294.55618,235.21518   L 294.83167,235.04988   L 295.10717,234.82949   L 295.38266,234.66419   L 295.65815,234.4438   L 295.93364,234.2785   L 296.20913,234.05811   L 296.48463,233.83772   L 296.76012,233.61732   L 297.03561,233.45203   L 297.3111,233.23163   L 297.58659,233.01124   L 297.86209,232.79085   L 298.13758,232.57045   L 298.41307,232.35006   L 298.68856,232.12967   L 298.96406,231.90927   L 299.23955,231.63378   L 299.51504,231.41339   L 299.79053,231.19299   L 300.06602,230.9175   L 300.34152,230.69711   L 300.61701,230.47671   L 300.8374,230.20122   L 301.11289,229.98083   L 301.33329,229.81553   L 300.34152,228.76866   L 300.17622,228.93396   L 299.90073,229.15435   L 299.62524,229.42984   L 299.40484,229.65024   L 299.12935,229.87063   L 298.85386,230.09102   L 298.57837,230.36652   L 298.30287,230.58691   L 298.02738,230.8073   L 297.75189,231.0277   L 297.4764,231.24809   L 297.256,231.46848   L 296.98051,231.68888   L 296.70502,231.90927   L 296.42953,232.12967   L 296.15404,232.29496   L 295.87854,232.51535   L 295.60305,232.73575   L 295.38266,232.90104   L 295.10717,233.12144   L 294.83167,233.34183   L 294.55618,233.50713   L 294.28069,233.67242   L 294.0052,233.89281   L 293.7848,234.05811   L 293.56441,234.22341   L 294.33579,235.38047  z    M 305.13508,226.06884   L 305.24528,225.95864   L 305.52077,225.68315   L 305.79626,225.40766   L 306.07175,225.07707   L 306.34724,224.80157   L 306.62274,224.52608   L 306.89823,224.19549   L 307.11862,223.92   L 307.39411,223.58941   L 307.66961,223.31392   L 307.9451,222.98333   L 308.22059,222.70783   L 308.49608,222.37724   L 308.77157,222.10175   L 309.04707,221.77116   L 309.32256,221.44057   L 309.59805,221.10998   L 309.87354,220.83449   L 310.14904,220.5039   L 310.42453,220.17331   L 310.70002,219.84272   L 310.97551,219.51213   L 311.03061,219.45703   L 309.92864,218.52035   L 309.87354,218.63055   L 309.59805,218.96114   L 309.32256,219.23663   L 309.04707,219.56722   L 308.77157,219.89781   L 308.55118,220.22841   L 308.27569,220.5039   L 308.0002,220.83449   L 307.7247,221.16508   L 307.44921,221.44057   L 307.17372,221.77116   L 306.89823,222.04665   L 306.62274,222.37724   L 306.34724,222.65274   L 306.12685,222.98333   L 305.85136,223.25882   L 305.57587,223.53431   L 305.30037,223.8649   L 305.02488,224.14039   L 304.74939,224.41589   L 304.4739,224.69138   L 304.19841,224.96687   L 304.08821,225.07707   L 305.13508,226.06884  z    M 314.33652,215.32465   L 314.50181,215.10425   L 314.7773,214.77366   L 315.0528,214.38797   L 315.32829,214.05738   L 315.60378,213.67169   L 315.87927,213.3411   L 316.15476,212.95541   L 316.37516,212.62482   L 316.65065,212.23913   L 316.92614,211.85344   L 317.20163,211.52285   L 317.47713,211.13717   L 317.75262,210.75148   L 318.02811,210.42089   L 318.3036,210.0352   L 318.57909,209.64951   L 318.85459,209.26382   L 319.13008,208.87813   L 319.40557,208.54754   L 319.62596,208.21695   L 318.4689,207.39047   L 318.2485,207.72106   L 317.97301,208.05165   L 317.69752,208.43734   L 317.42203,208.82303   L 317.14654,209.20872   L 316.87104,209.59441   L 316.65065,209.925   L 316.37516,210.31069   L 316.09967,210.64128   L 315.82417,211.02697   L 315.54868,211.41266   L 315.27319,211.74325   L 314.9977,212.12894   L 314.7222,212.45953   L 314.44671,212.84522   L 314.17122,213.17581   L 313.95083,213.5615   L 313.67533,213.89209   L 313.39984,214.22268   L 313.23455,214.44307   L 314.33652,215.32465  z    M 322.65638,203.86417   L 322.93187,203.47848   L 323.20736,203.0928   L 323.48285,202.70711   L 323.75835,202.32142   L 324.03384,201.93573   L 324.25423,201.49494   L 324.52972,201.10925   L 324.80522,200.72356   L 325.08071,200.33787   L 325.3562,199.89709   L 325.63169,199.5114   L 325.90719,199.12571   L 326.18268,198.68492   L 326.45817,198.29923   L 326.73366,197.85844   L 327.00915,197.47276   L 327.28465,197.08707   L 327.56014,196.64628   L 327.61524,196.53608   L 326.40307,195.7647   L 326.34797,195.8749   L 326.07248,196.26059   L 325.79699,196.70138   L 325.5215,197.08707   L 325.3011,197.52785   L 325.02561,197.91354   L 324.75012,198.29923   L 324.47463,198.74002   L 324.19913,199.12571   L 323.92364,199.5114   L 323.64815,199.89709   L 323.37266,200.33787   L 323.09717,200.72356   L 322.82167,201.10925   L 322.54618,201.49494   L 322.32579,201.93573   L 322.0503,202.32142   L 321.7748,202.70711   L 321.49931,203.0928   L 322.65638,203.86417  z    M 330.53545,192.07311   L 330.81094,191.68742   L 331.08644,191.24663   L 331.30683,190.86094   L 331.58232,190.42016   L 331.85781,189.97937   L 332.13331,189.59368   L 332.4088,189.15289   L 332.68429,188.7672   L 332.95978,188.32642   L 333.23528,187.88563   L 333.51077,187.49994   L 333.78626,187.05915   L 334.06175,186.61837   L 334.33724,186.23268   L 334.61274,185.79189   L 334.83313,185.3511   L 335.10862,184.96541   L 335.27392,184.68992   L 334.11685,183.91854   L 333.95156,184.19404   L 333.67606,184.57972   L 333.40057,185.02051   L 333.12508,185.4613   L 332.84959,185.84699   L 332.57409,186.28778   L 332.2986,186.72856   L 332.02311,187.11425   L 331.80272,187.55504   L 331.52722,187.99583   L 331.25173,188.38152   L 330.97624,188.8223   L 330.70075,189.26309   L 330.42526,189.64878   L 330.14976,190.08957   L 329.87427,190.47526   L 329.59878,190.91604   L 329.32329,191.35683   L 330.53545,192.07311  z    M 338.13904,180.22695   L 338.35943,179.84126   L 338.63492,179.45557   L 338.91041,179.01478   L 339.18591,178.574   L 339.4614,178.18831   L 339.73689,177.74752   L 340.01238,177.30673   L 340.28787,176.86594   L 340.56337,176.48026   L 340.83886,176.03947   L 341.11435,175.59868   L 341.38984,175.21299   L 341.61024,174.7722   L 341.88573,174.33142   L 342.16122,173.94573   L 342.43671,173.50494   L 342.7122,173.11925   L 342.8775,172.84376   L 341.72043,172.07238   L 341.55514,172.34787   L 341.27965,172.73356   L 341.00415,173.17435   L 340.72866,173.61514   L 340.45317,174.00083   L 340.17768,174.44161   L 339.90219,174.8824   L 339.62669,175.26809   L 339.3512,175.70888   L 339.07571,176.14967   L 338.80022,176.53535   L 338.52472,176.97614   L 338.30433,177.41693   L 338.02884,177.80262   L 337.75335,178.24341   L 337.47785,178.68419   L 337.20236,179.06988   L 336.92687,179.51067   L 338.13904,180.22695  z    M 345.74262,168.38079   L 345.96301,168.1053   L 346.2385,167.66451   L 346.514,167.27882   L 346.78949,166.83803   L 347.06498,166.45234   L 347.34047,166.01156   L 347.61596,165.62587   L 347.83636,165.24018   L 348.11185,164.79939   L 348.38734,164.4137   L 348.66283,163.97291   L 348.93833,163.58722   L 349.21382,163.20154   L 349.48931,162.76075   L 349.7648,162.37506   L 350.0403,161.98937   L 350.31579,161.54858   L 350.59128,161.16289   L 350.64638,161.0527   L 349.48931,160.28132   L 349.37911,160.39152   L 349.10362,160.7772   L 348.88323,161.16289   L 348.60774,161.60368   L 348.33224,161.98937   L 348.05675,162.37506   L 347.78126,162.81585   L 347.50577,163.20154   L 347.23028,163.64232   L 346.95478,164.02801   L 346.67929,164.4137   L 346.4038,164.85449   L 346.12831,165.24018   L 345.85281,165.68096   L 345.57732,166.06665   L 345.30183,166.50744   L 345.08144,166.89313   L 344.80594,167.33392   L 344.58555,167.60941   L 345.74262,168.38079  z    M 353.62169,156.69992   L 353.78699,156.47953   L 354.06248,156.09384   L 354.33797,155.70815   L 354.61346,155.32246   L 354.88896,154.93677   L 355.16445,154.55108   L 355.43994,154.16539   L 355.71543,153.7797   L 355.99093,153.39402   L 356.26642,153.06343   L 356.54191,152.67774   L 356.7623,152.29205   L 357.0378,151.90636   L 357.31329,151.57577   L 357.58878,151.19008   L 357.86427,150.80439   L 358.13976,150.4738   L 358.41526,150.08811   L 358.69075,149.75752   L 358.80094,149.59222   L 357.64388,148.76575   L 357.53368,148.87594   L 357.25819,149.26163   L 356.9827,149.64732   L 356.7072,149.97791   L 356.48681,150.3636   L 356.21132,150.74929   L 355.93583,151.07988   L 355.66033,151.46557   L 355.38484,151.85126   L 355.10935,152.23695   L 354.83386,152.56754   L 354.55837,152.95323   L 354.28287,153.33892   L 354.00738,153.72461   L 353.73189,154.1103   L 353.4564,154.49598   L 353.18091,154.88167   L 352.90541,155.26736   L 352.62992,155.65305   L 352.46463,155.92854   L 353.62169,156.69992  z    M 361.99665,145.40474   L 362.16195,145.18435   L 362.43744,144.85376   L 362.71293,144.52317   L 362.98843,144.19258   L 363.26392,143.86199   L 363.53941,143.5314   L 363.8149,143.20081   L 364.09039,142.87022   L 364.36589,142.53963   L 364.64138,142.26413   L 364.86177,141.93354   L 365.13726,141.60295   L 365.41276,141.27236   L 365.68825,140.99687   L 365.96374,140.66628   L 366.23923,140.33569   L 366.51472,140.0602   L 366.79022,139.72961   L 367.06571,139.45411   L 367.2861,139.12352   L 367.56159,138.84803   L 366.51472,137.91136   L 366.23923,138.18685   L 365.96374,138.51744   L 365.68825,138.79293   L 365.46785,139.12352   L 365.19236,139.39902   L 364.91687,139.72961   L 364.64138,140.0602   L 364.36589,140.39079   L 364.09039,140.66628   L 363.8149,140.99687   L 363.53941,141.32746   L 363.26392,141.65805   L 362.98843,141.98864   L 362.71293,142.31923   L 362.43744,142.64982   L 362.16195,142.98041   L 361.88646,143.311   L 361.61096,143.64159   L 361.33547,143.97219   L 361.05998,144.30278   L 360.89469,144.52317   L 361.99665,145.40474  z    M 96.91813,181.10852   L 97.193622,180.72283   L 97.469114,180.28205   L 97.744606,179.84126   L 98.020098,179.45557   L 98.295591,179.01478   L 98.571083,178.574   L 98.846575,178.18831   L 99.122067,177.74752   L 99.397559,177.30673   L 99.617953,176.86594   L 99.893445,176.48026   L 100.16894,176.03947   L 100.44443,175.59868   L 100.71992,175.21299   L 100.99541,174.7722   L 101.27091,174.33142   L 101.5464,173.94573   L 101.71169,173.72533   L 100.49953,172.95396   L 100.33423,173.17435   L 100.05874,173.61514   L 99.783248,174.00083   L 99.562854,174.44161   L 99.287362,174.8824   L 99.01187,175.26809   L 98.736378,175.70888   L 98.460886,176.14967   L 98.185394,176.53535   L 97.909902,176.97614   L 97.634409,177.41693   L 97.358917,177.80262   L 97.083425,178.24341   L 96.807933,178.68419   L 96.532441,179.06988   L 96.312047,179.51067   L 96.036555,179.95146   L 95.761063,180.39224   L 96.91813,181.10852  z   "
     style="fill:#a8322d;fill-rule:nonzero;fill-opacity:1;stroke:none;" />
  <path
     id="path47"
     d="  M 96.312047,180.72283   L 420.84177,180.72283  "
     style="fill:none;stroke:#000000;stroke-width:1.0468701px;stroke-linecap:butt;stroke-linejoin:round;stroke-miterlimit:4;stroke-dasharray:none;stroke-opacity:1;" />
  <path
     id="path49"
     d="  M 403.37557,175.15789   L 421.17236,180.72283   L 403.37557,186.34287   L 403.37557,175.15789  "
     style="fill:none;stroke:#000000;stroke-width:0.60608268px;stroke-linecap:butt;stroke-linejoin:round;stroke-miterlimit:4;stroke-dasharray:none;stroke-opacity:1;" />
  <path
     id="path51"
     d="  M 403.37557,186.34287   L 421.17236,180.72283   L 403.37557,175.15789   z "
     style="fill:#000000;fill-rule:nonzero;fill-opacity:1;stroke:none;" />
</svg>
