<?xml version="1.0" encoding="UTF-8" standalone="no"?>
<svg
   xmlns:dc="http://purl.org/dc/elements/1.1/"
   xmlns:cc="http://creativecommons.org/ns#"
   xmlns:rdf="http://www.w3.org/1999/02/22-rdf-syntax-ns#"
   xmlns:svg="http://www.w3.org/2000/svg"
   xmlns="http://www.w3.org/2000/svg"
   id="svg213"
   height="16.34mm"
   width="21.700001mm"
   version="1.0">
  <metadata
     id="metadata217">
    <rdf:RDF>
      <cc:Work
         rdf:about="">
        <dc:format>image/svg+xml</dc:format>
        <dc:type
           rdf:resource="http://purl.org/dc/dcmitype/StillImage" />
      </cc:Work>
    </rdf:RDF>
  </metadata>
  <defs
     id="defs3">
    <pattern
       y="0"
       x="0"
       height="6"
       width="6"
       patternUnits="userSpaceOnUse"
       id="EMFhbasepattern" />
  </defs>
  <path
     id="path5"
     d="  M 0,0   L 0,62.591811   L 82.868031,62.591811   L 82.868031,0   L 0,0   z "
     style="fill:#ffffff;fill-rule:evenodd;fill-opacity:1;stroke:none;" />
  <path
     id="path7"
     d="  M 0,0   L 0,62.591811   L 82.868031,62.591811   L 82.868031,0   L 0,0   z "
     style="fill:#ffffff;fill-rule:evenodd;fill-opacity:1;stroke:none;" />
  <path
     id="path9"
     d="  M 10.578898,4.6282677   L 10.578898,55.373917   L 74.933858,55.373917   L 74.933858,4.6282677   L 10.578898,4.6282677   z "
     style="fill:#ffffff;fill-rule:evenodd;fill-opacity:1;stroke:none;" />
  <path
     id="path11"
     d="  M 10.578898,55.373917   L 10.578898,4.6282677  "
     style="fill:none;stroke:#262626;stroke-width:1.0468701px;stroke-linecap:butt;stroke-linejoin:round;stroke-miterlimit:4;stroke-dasharray:none;stroke-opacity:1;" />
  <path
     id="path13"
     d="  M 74.933858,55.373917   L 74.933858,4.6282677  "
     style="fill:none;stroke:#262626;stroke-width:1.0468701px;stroke-linecap:butt;stroke-linejoin:round;stroke-miterlimit:4;stroke-dasharray:none;stroke-opacity:1;" />
  <path
     id="path15"
     d="  M 10.578898,34.822205   L 74.933858,34.822205  "
     style="fill:none;stroke:#262626;stroke-width:0.60608268px;stroke-linecap:butt;stroke-linejoin:round;stroke-miterlimit:4;stroke-dasharray:none;stroke-opacity:1;" />
  <path
     id="path17"
     d="  M 15.75815,34.822205   L 69.589311,34.822205  "
     style="fill:none;stroke:#000000;stroke-width:1.0468701px;stroke-linecap:butt;stroke-linejoin:round;stroke-miterlimit:4;stroke-dasharray:none;stroke-opacity:1;" />
  <path
     id="path19"
     d="  M 62.922402,32.673366   L 69.809705,34.822205   L 62.922402,37.026142   L 62.922402,32.673366  "
     style="fill:none;stroke:#000000;stroke-width:0.60608268px;stroke-linecap:butt;stroke-linejoin:round;stroke-miterlimit:4;stroke-dasharray:none;stroke-opacity:1;" />
  <path
     id="path21"
     d="  M 62.922402,37.026142   L 69.809705,34.822205   L 62.922402,32.673366   z "
     style="fill:#000000;fill-rule:nonzero;fill-opacity:1;stroke:none;" />
  <path
     id="path23"
     d="  M 15.75815,48.26622   L 15.75815,10.578898  "
     style="fill:none;stroke:#000000;stroke-width:1.0468701px;stroke-linecap:butt;stroke-linejoin:round;stroke-miterlimit:4;stroke-dasharray:none;stroke-opacity:1;" />
  <path
     id="path25"
     d="  M 13.554213,17.190709   L 15.75815,10.303406   L 17.906988,17.190709   L 13.554213,17.190709  "
     style="fill:none;stroke:#000000;stroke-width:0.60608268px;stroke-linecap:butt;stroke-linejoin:round;stroke-miterlimit:4;stroke-dasharray:none;stroke-opacity:1;" />
  <path
     id="path27"
     d="  M 17.906988,17.190709   L 15.75815,10.303406   L 13.554213,17.190709   z "
     style="fill:#000000;fill-rule:nonzero;fill-opacity:1;stroke:none;" />
  <path
     id="path29"
     d="  M 16.309134,28.045098   C 16.309134,27.769606 16.033642,27.494114 15.75815,27.494114   C 15.482657,27.494114 15.207165,27.769606 15.207165,28.045098   C 15.207165,28.320591 15.482657,28.540984 15.75815,28.540984   C 16.033642,28.540984 16.309134,28.320591 16.309134,28.045098   z "
     style="fill:#1269b0;fill-rule:nonzero;fill-opacity:1;stroke:none;" />
  <path
     id="path31"
     d="  M 15.75815,27.934902   C 15.813248,27.934902 15.868346,27.99 15.868346,28.045098   L 15.868346,28.045098   C 15.868346,28.100197 15.813248,28.155295 15.75815,28.155295   C 15.703051,28.155295 15.647953,28.100197 15.647953,28.045098   C 15.647953,27.99 15.703051,27.934902 15.75815,27.934902   z  M 15.75815,27.108425   C 15.207165,27.108425 14.821476,27.494114 14.821476,28.045098   C 14.821476,28.540984 15.207165,28.981772 15.75815,28.981772   C 16.254035,28.981772 16.694823,28.540984 16.694823,28.045098   L 16.694823,28.045098   C 16.694823,27.494114 16.254035,27.108425 15.75815,27.108425   z "
     style="fill:#1269b0;fill-rule:nonzero;fill-opacity:1;stroke:none;" />
  <path
     id="path33"
     d="  M 17.906988,20.827205   C 17.906988,20.551713 17.686594,20.27622 17.411102,20.27622   C 17.080512,20.27622 16.860118,20.551713 16.860118,20.827205   C 16.860118,21.102697 17.080512,21.378189 17.411102,21.378189   C 17.686594,21.378189 17.906988,21.102697 17.906988,20.827205   z "
     style="fill:#1269b0;fill-rule:nonzero;fill-opacity:1;stroke:none;" />
  <path
     id="path35"
     d="  M 17.411102,20.717008   C 17.466201,20.717008 17.521299,20.772106 17.521299,20.827205   L 17.521299,20.827205   C 17.521299,20.882303 17.466201,20.937402 17.411102,20.937402   C 17.300906,20.937402 17.245807,20.882303 17.245807,20.827205   C 17.245807,20.772106 17.300906,20.717008 17.411102,20.717008   z  M 17.411102,19.890531   C 16.860118,19.890531 16.419331,20.331319 16.419331,20.827205   C 16.419331,21.323091 16.860118,21.763878 17.411102,21.763878   C 17.906988,21.763878 18.347776,21.323091 18.347776,20.827205   L 18.347776,20.827205   C 18.347776,20.331319 17.906988,19.890531 17.411102,19.890531   z "
     style="fill:#1269b0;fill-rule:nonzero;fill-opacity:1;stroke:none;" />
  <path
     id="path37"
     d="  M 19.559941,20.772106   C 19.559941,20.496614 19.284449,20.27622 19.008957,20.27622   C 18.733465,20.27622 18.513071,20.496614 18.513071,20.772106   C 18.513071,21.102697 18.733465,21.323091 19.008957,21.323091   C 19.284449,21.323091 19.559941,21.102697 19.559941,20.772106   z "
     style="fill:#1269b0;fill-rule:nonzero;fill-opacity:1;stroke:none;" />
  <path
     id="path39"
     d="  M 19.008957,20.661909   C 19.064055,20.661909 19.119154,20.717008 19.119154,20.772106   L 19.119154,20.772106   C 19.119154,20.882303 19.064055,20.937402 19.008957,20.937402   C 18.953858,20.937402 18.89876,20.882303 18.89876,20.772106   C 18.89876,20.717008 18.953858,20.661909 19.008957,20.661909   z  M 19.008957,19.835433   C 18.513071,19.835433 18.072283,20.27622 18.072283,20.772106   C 18.072283,21.323091 18.513071,21.763878 19.008957,21.763878   C 19.559941,21.763878 19.94563,21.323091 19.94563,20.772106   L 19.94563,20.772106   C 19.94563,20.27622 19.559941,19.835433 19.008957,19.835433   z "
     style="fill:#1269b0;fill-rule:nonzero;fill-opacity:1;stroke:none;" />
  <path
     id="path41"
     d="  M 21.157795,25.290177   C 21.157795,25.014685 20.937402,24.794291 20.661909,24.794291   C 20.331319,24.794291 20.110925,25.014685 20.110925,25.290177   C 20.110925,25.620768 20.331319,25.841161 20.661909,25.841161   C 20.937402,25.841161 21.157795,25.620768 21.157795,25.290177   z "
     style="fill:#1269b0;fill-rule:nonzero;fill-opacity:1;stroke:none;" />
  <path
     id="path43"
     d="  M 20.661909,25.17998   C 20.717008,25.17998 20.772106,25.235079 20.772106,25.290177   L 20.772106,25.290177   C 20.772106,25.400374 20.717008,25.400374 20.661909,25.400374   C 20.606811,25.400374 20.551713,25.400374 20.551713,25.290177   C 20.551713,25.235079 20.606811,25.17998 20.661909,25.17998   z  M 20.661909,24.353504   C 20.110925,24.353504 19.725236,24.794291 19.725236,25.290177   C 19.725236,25.841161 20.110925,26.22685 20.661909,26.22685   C 21.157795,26.22685 21.598583,25.841161 21.598583,25.290177   L 21.598583,25.290177   C 21.598583,24.794291 21.157795,24.353504 20.661909,24.353504   z "
     style="fill:#1269b0;fill-rule:nonzero;fill-opacity:1;stroke:none;" />
  <path
     id="path45"
     d="  M 22.810748,31.240807   C 22.810748,30.910217 22.590354,30.689823 22.259764,30.689823   C 21.984272,30.689823 21.763878,30.910217 21.763878,31.240807   C 21.763878,31.516299 21.984272,31.736693 22.259764,31.736693   C 22.590354,31.736693 22.810748,31.516299 22.810748,31.240807   z "
     style="fill:#1269b0;fill-rule:nonzero;fill-opacity:1;stroke:none;" />
  <path
     id="path47"
     d="  M 22.259764,31.13061   C 22.369961,31.13061 22.425059,31.185709 22.425059,31.240807   L 22.425059,31.240807   C 22.425059,31.295906 22.369961,31.351004 22.259764,31.351004   C 22.204665,31.351004 22.149567,31.295906 22.149567,31.240807   C 22.149567,31.185709 22.204665,31.13061 22.259764,31.13061   z  M 22.259764,30.304134   C 21.763878,30.304134 21.323091,30.689823 21.323091,31.240807   C 21.323091,31.736693 21.763878,32.17748 22.259764,32.17748   C 22.810748,32.17748 23.196437,31.736693 23.196437,31.240807   L 23.196437,31.240807   C 23.196437,30.689823 22.810748,30.304134 22.259764,30.304134   z "
     style="fill:#1269b0;fill-rule:nonzero;fill-opacity:1;stroke:none;" />
  <path
     id="path49"
     d="  M 24.463701,36.144567   C 24.463701,35.813976 24.188209,35.593583 23.912717,35.593583   C 23.637224,35.593583 23.361732,35.813976 23.361732,36.144567   C 23.361732,36.420059 23.637224,36.640453 23.912717,36.640453   C 24.188209,36.640453 24.463701,36.420059 24.463701,36.144567   z "
     style="fill:#1269b0;fill-rule:nonzero;fill-opacity:1;stroke:none;" />
  <path
     id="path51"
     d="  M 23.912717,35.979272   C 23.967815,35.979272 24.022913,36.03437 24.022913,36.144567   L 24.022913,36.144567   C 24.022913,36.199665 23.967815,36.254764 23.912717,36.254764   C 23.857618,36.254764 23.80252,36.199665 23.80252,36.144567   C 23.80252,36.03437 23.857618,35.979272 23.912717,35.979272   z  M 23.912717,35.207894   C 23.416831,35.207894 22.976043,35.593583 22.976043,36.144567   C 22.976043,36.640453 23.416831,37.08124 23.912717,37.08124   C 24.408602,37.08124 24.84939,36.640453 24.84939,36.144567   L 24.84939,36.144567   C 24.84939,35.593583 24.408602,35.207894 23.912717,35.207894   z "
     style="fill:#1269b0;fill-rule:nonzero;fill-opacity:1;stroke:none;" />
  <path
     id="path53"
     d="  M 26.061555,38.789291   C 26.061555,38.513799 25.841161,38.293406 25.565669,38.293406   C 25.235079,38.293406 25.014685,38.513799 25.014685,38.789291   C 25.014685,39.064783 25.235079,39.340276 25.565669,39.340276   C 25.841161,39.340276 26.061555,39.064783 26.061555,38.789291   z "
     style="fill:#1269b0;fill-rule:nonzero;fill-opacity:1;stroke:none;" />
  <path
     id="path55"
     d="  M 25.565669,38.679094   C 25.620768,38.679094 25.675866,38.734193 25.675866,38.789291   L 25.675866,38.789291   C 25.675866,38.84439 25.620768,38.899488 25.565669,38.899488   C 25.455472,38.899488 25.455472,38.84439 25.455472,38.789291   C 25.455472,38.734193 25.455472,38.679094 25.565669,38.679094   z  M 25.565669,37.852618   C 25.014685,37.852618 24.628996,38.293406 24.628996,38.789291   C 24.628996,39.340276 25.014685,39.725965 25.565669,39.725965   C 26.061555,39.725965 26.502343,39.340276 26.502343,38.789291   L 26.502343,38.789291   C 26.502343,38.293406 26.061555,37.852618 25.565669,37.852618   z "
     style="fill:#1269b0;fill-rule:nonzero;fill-opacity:1;stroke:none;" />
  <path
     id="path57"
     d="  M 27.714508,39.17498   C 27.714508,38.899488 27.494114,38.679094 27.163524,38.679094   C 26.888031,38.679094 26.667638,38.899488 26.667638,39.17498   C 26.667638,39.505571 26.888031,39.725965 27.163524,39.725965   C 27.494114,39.725965 27.714508,39.505571 27.714508,39.17498   z "
     style="fill:#1269b0;fill-rule:nonzero;fill-opacity:1;stroke:none;" />
  <path
     id="path59"
     d="  M 27.163524,39.064783   C 27.218622,39.064783 27.27372,39.119882 27.27372,39.17498   L 27.27372,39.17498   C 27.27372,39.285177 27.218622,39.340276 27.163524,39.340276   C 27.108425,39.340276 27.053327,39.285177 27.053327,39.17498   C 27.053327,39.119882 27.108425,39.064783 27.163524,39.064783   z  M 27.163524,38.238307   C 26.667638,38.238307 26.22685,38.679094 26.22685,39.17498   C 26.22685,39.725965 26.667638,40.166752 27.163524,40.166752   C 27.714508,40.166752 28.100197,39.725965 28.100197,39.17498   L 28.100197,39.17498   C 28.100197,38.679094 27.714508,38.238307 27.163524,38.238307   z "
     style="fill:#1269b0;fill-rule:nonzero;fill-opacity:1;stroke:none;" />
  <path
     id="path61"
     d="  M 29.312362,38.017913   C 29.312362,37.742421 29.091969,37.522028 28.816476,37.522028   C 28.540984,37.522028 28.265492,37.742421 28.265492,38.017913   C 28.265492,38.348504 28.540984,38.568898 28.816476,38.568898   C 29.091969,38.568898 29.312362,38.348504 29.312362,38.017913   z "
     style="fill:#1269b0;fill-rule:nonzero;fill-opacity:1;stroke:none;" />
  <path
     id="path63"
     d="  M 28.816476,37.907717   C 28.871575,37.907717 28.926673,37.962815 28.926673,38.017913   L 28.926673,38.017913   C 28.926673,38.12811 28.871575,38.183209 28.816476,38.183209   C 28.761378,38.183209 28.70628,38.12811 28.70628,38.017913   C 28.70628,37.962815 28.761378,37.907717 28.816476,37.907717   z  M 28.816476,37.08124   C 28.265492,37.08124 27.879803,37.522028 27.879803,38.017913   C 27.879803,38.568898 28.265492,39.009685 28.816476,39.009685   C 29.312362,39.009685 29.75315,38.568898 29.75315,38.017913   L 29.75315,38.017913   C 29.75315,37.522028 29.312362,37.08124 28.816476,37.08124   z "
     style="fill:#1269b0;fill-rule:nonzero;fill-opacity:1;stroke:none;" />
  <path
     id="path65"
     d="  M 30.965315,36.254764   C 30.965315,35.979272 30.744921,35.758878 30.469429,35.758878   C 30.138839,35.758878 29.918445,35.979272 29.918445,36.254764   C 29.918445,36.585354 30.138839,36.805748 30.469429,36.805748   C 30.744921,36.805748 30.965315,36.585354 30.965315,36.254764   z "
     style="fill:#1269b0;fill-rule:nonzero;fill-opacity:1;stroke:none;" />
  <path
     id="path67"
     d="  M 30.469429,36.144567   C 30.524528,36.144567 30.579626,36.199665 30.579626,36.254764   L 30.579626,36.254764   C 30.579626,36.364961 30.524528,36.420059 30.469429,36.420059   C 30.359232,36.420059 30.304134,36.364961 30.304134,36.254764   C 30.304134,36.199665 30.359232,36.144567 30.469429,36.144567   z  M 30.469429,35.318091   C 29.918445,35.318091 29.477657,35.758878 29.477657,36.254764   C 29.477657,36.805748 29.918445,37.191437 30.469429,37.191437   C 30.965315,37.191437 31.406102,36.805748 31.406102,36.254764   L 31.406102,36.254764   C 31.406102,35.758878 30.965315,35.318091 30.469429,35.318091   z "
     style="fill:#1269b0;fill-rule:nonzero;fill-opacity:1;stroke:none;" />
  <path
     id="path69"
     d="  M 32.618268,34.712008   C 32.618268,34.381417 32.342776,34.161024 32.067283,34.161024   C 31.791791,34.161024 31.571398,34.381417 31.571398,34.712008   C 31.571398,34.9875 31.791791,35.207894 32.067283,35.207894   C 32.342776,35.207894 32.618268,34.9875 32.618268,34.712008   z "
     style="fill:#1269b0;fill-rule:nonzero;fill-opacity:1;stroke:none;" />
  <path
     id="path71"
     d="  M 32.067283,34.601811   C 32.122382,34.601811 32.17748,34.601811 32.17748,34.712008   L 32.17748,34.712008   C 32.17748,34.767106 32.122382,34.822205 32.067283,34.822205   C 32.012185,34.822205 31.957087,34.767106 31.957087,34.712008   C 31.957087,34.601811 32.012185,34.601811 32.067283,34.601811   z  M 32.067283,33.775335   C 31.571398,33.775335 31.13061,34.161024 31.13061,34.712008   C 31.13061,35.207894 31.571398,35.648681 32.067283,35.648681   C 32.618268,35.648681 33.003957,35.207894 33.003957,34.712008   L 33.003957,34.712008   C 33.003957,34.161024 32.618268,33.775335 32.067283,33.775335   z "
     style="fill:#1269b0;fill-rule:nonzero;fill-opacity:1;stroke:none;" />
  <path
     id="path73"
     d="  M 34.216122,33.720236   C 34.216122,33.444744 33.995728,33.22435 33.720236,33.22435   C 33.389646,33.22435 33.169252,33.444744 33.169252,33.720236   C 33.169252,34.050827 33.389646,34.27122 33.720236,34.27122   C 33.995728,34.27122 34.216122,34.050827 34.216122,33.720236   z "
     style="fill:#1269b0;fill-rule:nonzero;fill-opacity:1;stroke:none;" />
  <path
     id="path75"
     d="  M 33.720236,33.610039   C 33.775335,33.610039 33.830433,33.665138 33.830433,33.720236   L 33.830433,33.720236   C 33.830433,33.830433 33.775335,33.830433 33.720236,33.830433   C 33.665138,33.830433 33.610039,33.830433 33.610039,33.720236   C 33.610039,33.665138 33.665138,33.610039 33.720236,33.610039   z  M 33.720236,32.783563   C 33.169252,32.783563 32.783563,33.22435 32.783563,33.720236   C 32.783563,34.27122 33.169252,34.656909 33.720236,34.656909   C 34.216122,34.656909 34.656909,34.27122 34.656909,33.720236   L 34.656909,33.720236   C 34.656909,33.22435 34.216122,32.783563 33.720236,32.783563   z "
     style="fill:#1269b0;fill-rule:nonzero;fill-opacity:1;stroke:none;" />
  <path
     id="path77"
     d="  M 35.869075,33.499843   C 35.869075,33.169252 35.648681,32.948858 35.318091,32.948858   C 35.042598,32.948858 34.822205,33.169252 34.822205,33.499843   C 34.822205,33.775335 35.042598,33.995728 35.318091,33.995728   C 35.648681,33.995728 35.869075,33.775335 35.869075,33.499843   z "
     style="fill:#1269b0;fill-rule:nonzero;fill-opacity:1;stroke:none;" />
  <path
     id="path79"
     d="  M 35.318091,33.389646   C 35.428287,33.389646 35.483386,33.444744 35.483386,33.499843   L 35.483386,33.499843   C 35.483386,33.554941 35.428287,33.610039 35.318091,33.610039   C 35.262992,33.610039 35.207894,33.554941 35.207894,33.499843   C 35.207894,33.444744 35.262992,33.389646 35.318091,33.389646   z  M 35.318091,32.563169   C 34.822205,32.563169 34.381417,32.948858 34.381417,33.499843   C 34.381417,33.995728 34.822205,34.436516 35.318091,34.436516   C 35.869075,34.436516 36.254764,33.995728 36.254764,33.499843   L 36.254764,33.499843   C 36.254764,32.948858 35.869075,32.563169 35.318091,32.563169   z "
     style="fill:#1269b0;fill-rule:nonzero;fill-opacity:1;stroke:none;" />
  <path
     id="path81"
     d="  M 37.522028,33.775335   C 37.522028,33.444744 37.246535,33.22435 36.971043,33.22435   C 36.695551,33.22435 36.420059,33.444744 36.420059,33.775335   C 36.420059,34.050827 36.695551,34.27122 36.971043,34.27122   C 37.246535,34.27122 37.522028,34.050827 37.522028,33.775335   z "
     style="fill:#1269b0;fill-rule:nonzero;fill-opacity:1;stroke:none;" />
  <path
     id="path83"
     d="  M 36.971043,33.665138   C 37.026142,33.665138 37.08124,33.720236 37.08124,33.775335   L 37.08124,33.775335   C 37.08124,33.830433 37.026142,33.885531 36.971043,33.885531   C 36.915945,33.885531 36.860846,33.830433 36.860846,33.775335   C 36.860846,33.720236 36.915945,33.665138 36.971043,33.665138   z  M 36.971043,32.838661   C 36.475157,32.838661 36.03437,33.22435 36.03437,33.775335   C 36.03437,34.27122 36.475157,34.712008 36.971043,34.712008   C 37.466929,34.712008 37.907717,34.27122 37.907717,33.775335   L 37.907717,33.775335   C 37.907717,33.22435 37.466929,32.838661 36.971043,32.838661   z "
     style="fill:#1269b0;fill-rule:nonzero;fill-opacity:1;stroke:none;" />
  <path
     id="path85"
     d="  M 39.119882,34.27122   C 39.119882,33.995728 38.899488,33.775335 38.623996,33.775335   C 38.293406,33.775335 38.073012,33.995728 38.073012,34.27122   C 38.073012,34.546713 38.293406,34.822205 38.623996,34.822205   C 38.899488,34.822205 39.119882,34.546713 39.119882,34.27122   z "
     style="fill:#1269b0;fill-rule:nonzero;fill-opacity:1;stroke:none;" />
  <path
     id="path87"
     d="  M 38.623996,34.161024   C 38.679094,34.161024 38.734193,34.216122 38.734193,34.27122   L 38.734193,34.27122   C 38.734193,34.326319 38.679094,34.381417 38.623996,34.381417   C 38.513799,34.381417 38.513799,34.326319 38.513799,34.27122   C 38.513799,34.216122 38.513799,34.161024 38.623996,34.161024   z  M 38.623996,33.334547   C 38.073012,33.334547 37.687323,33.775335 37.687323,34.27122   C 37.687323,34.822205 38.073012,35.207894 38.623996,35.207894   C 39.119882,35.207894 39.560669,34.822205 39.560669,34.27122   L 39.560669,34.27122   C 39.560669,33.775335 39.119882,33.334547 38.623996,33.334547   z "
     style="fill:#1269b0;fill-rule:nonzero;fill-opacity:1;stroke:none;" />
  <path
     id="path89"
     d="  M 40.772835,34.767106   C 40.772835,34.491614 40.552441,34.27122 40.22185,34.27122   C 39.946358,34.27122 39.725965,34.491614 39.725965,34.767106   C 39.725965,35.097697 39.946358,35.318091 40.22185,35.318091   C 40.552441,35.318091 40.772835,35.097697 40.772835,34.767106   z "
     style="fill:#1269b0;fill-rule:nonzero;fill-opacity:1;stroke:none;" />
  <path
     id="path91"
     d="  M 40.22185,34.656909   C 40.276949,34.656909 40.332047,34.712008 40.332047,34.767106   L 40.332047,34.767106   C 40.332047,34.822205 40.276949,34.877303 40.22185,34.877303   C 40.166752,34.877303 40.111654,34.822205 40.111654,34.767106   C 40.111654,34.712008 40.166752,34.656909 40.22185,34.656909   z  M 40.22185,33.830433   C 39.725965,33.830433 39.285177,34.27122 39.285177,34.767106   C 39.285177,35.318091 39.725965,35.70378 40.22185,35.70378   C 40.772835,35.70378 41.158524,35.318091 41.158524,34.767106   L 41.158524,34.767106   C 41.158524,34.27122 40.772835,33.830433 40.22185,33.830433   z "
     style="fill:#1269b0;fill-rule:nonzero;fill-opacity:1;stroke:none;" />
  <path
     id="path93"
     d="  M 42.370689,35.097697   C 42.370689,34.822205 42.150295,34.601811 41.874803,34.601811   C 41.599311,34.601811 41.323819,34.822205 41.323819,35.097697   C 41.323819,35.428287 41.599311,35.648681 41.874803,35.648681   C 42.150295,35.648681 42.370689,35.428287 42.370689,35.097697   z "
     style="fill:#1269b0;fill-rule:nonzero;fill-opacity:1;stroke:none;" />
  <path
     id="path95"
     d="  M 41.874803,34.9875   C 41.929902,34.9875 41.985,35.042598 41.985,35.097697   L 41.985,35.097697   C 41.985,35.152795 41.929902,35.207894 41.874803,35.207894   C 41.819705,35.207894 41.764606,35.152795 41.764606,35.097697   C 41.764606,35.042598 41.819705,34.9875 41.874803,34.9875   z  M 41.874803,34.161024   C 41.323819,34.161024 40.93813,34.601811 40.93813,35.097697   C 40.93813,35.648681 41.323819,36.03437 41.874803,36.03437   C 42.370689,36.03437 42.811476,35.648681 42.811476,35.097697   L 42.811476,35.097697   C 42.811476,34.601811 42.370689,34.161024 41.874803,34.161024   z "
     style="fill:#1269b0;fill-rule:nonzero;fill-opacity:1;stroke:none;" />
  <path
     id="path97"
     d="  M 44.023642,35.207894   C 44.023642,34.932402 43.803248,34.712008 43.527756,34.712008   C 43.197165,34.712008 42.976772,34.932402 42.976772,35.207894   C 42.976772,35.538484 43.197165,35.758878 43.527756,35.758878   C 43.803248,35.758878 44.023642,35.538484 44.023642,35.207894   z "
     style="fill:#1269b0;fill-rule:nonzero;fill-opacity:1;stroke:none;" />
  <path
     id="path99"
     d="  M 43.527756,35.097697   C 43.582854,35.097697 43.637953,35.152795 43.637953,35.207894   L 43.637953,35.207894   C 43.637953,35.318091 43.582854,35.373189 43.527756,35.373189   C 43.417559,35.373189 43.362461,35.318091 43.362461,35.207894   C 43.362461,35.152795 43.417559,35.097697 43.527756,35.097697   z  M 43.527756,34.27122   C 42.976772,34.27122 42.535984,34.712008 42.535984,35.207894   C 42.535984,35.758878 42.976772,36.199665 43.527756,36.199665   C 44.023642,36.199665 44.464429,35.758878 44.464429,35.207894   L 44.464429,35.207894   C 44.464429,34.712008 44.023642,34.27122 43.527756,34.27122   z "
     style="fill:#1269b0;fill-rule:nonzero;fill-opacity:1;stroke:none;" />
  <path
     id="path101"
     d="  M 45.676594,35.152795   C 45.676594,34.877303 45.401102,34.656909 45.12561,34.656909   C 44.850118,34.656909 44.629724,34.877303 44.629724,35.152795   C 44.629724,35.483386 44.850118,35.70378 45.12561,35.70378   C 45.401102,35.70378 45.676594,35.483386 45.676594,35.152795   z "
     style="fill:#1269b0;fill-rule:nonzero;fill-opacity:1;stroke:none;" />
  <path
     id="path103"
     d="  M 45.12561,35.042598   C 45.180709,35.042598 45.235807,35.097697 45.235807,35.152795   L 45.235807,35.152795   C 45.235807,35.262992 45.180709,35.318091 45.12561,35.318091   C 45.070512,35.318091 45.015413,35.262992 45.015413,35.152795   C 45.015413,35.097697 45.070512,35.042598 45.12561,35.042598   z  M 45.12561,34.216122   C 44.629724,34.216122 44.188937,34.656909 44.188937,35.152795   C 44.188937,35.70378 44.629724,36.089469 45.12561,36.089469   C 45.676594,36.089469 46.062283,35.70378 46.062283,35.152795   L 46.062283,35.152795   C 46.062283,34.656909 45.676594,34.216122 45.12561,34.216122   z "
     style="fill:#1269b0;fill-rule:nonzero;fill-opacity:1;stroke:none;" />
  <path
     id="path105"
     d="  M 47.274449,35.042598   C 47.274449,34.712008 47.054055,34.491614 46.778563,34.491614   C 46.447972,34.491614 46.227579,34.712008 46.227579,35.042598   C 46.227579,35.318091 46.447972,35.538484 46.778563,35.538484   C 47.054055,35.538484 47.274449,35.318091 47.274449,35.042598   z "
     style="fill:#1269b0;fill-rule:nonzero;fill-opacity:1;stroke:none;" />
  <path
     id="path107"
     d="  M 46.778563,34.932402   C 46.833661,34.932402 46.88876,34.9875 46.88876,35.042598   L 46.88876,35.042598   C 46.88876,35.097697 46.833661,35.152795 46.778563,35.152795   C 46.723465,35.152795 46.668366,35.097697 46.668366,35.042598   C 46.668366,34.9875 46.723465,34.932402 46.778563,34.932402   z  M 46.778563,34.105925   C 46.227579,34.105925 45.84189,34.491614 45.84189,35.042598   C 45.84189,35.538484 46.227579,35.979272 46.778563,35.979272   C 47.274449,35.979272 47.715236,35.538484 47.715236,35.042598   L 47.715236,35.042598   C 47.715236,34.491614 47.274449,34.105925 46.778563,34.105925   z "
     style="fill:#1269b0;fill-rule:nonzero;fill-opacity:1;stroke:none;" />
  <path
     id="path109"
     d="  M 48.927402,34.877303   C 48.927402,34.601811 48.707008,34.326319 48.376417,34.326319   C 48.100925,34.326319 47.880531,34.601811 47.880531,34.877303   C 47.880531,35.152795 48.100925,35.373189 48.376417,35.373189   C 48.707008,35.373189 48.927402,35.152795 48.927402,34.877303   z "
     style="fill:#1269b0;fill-rule:nonzero;fill-opacity:1;stroke:none;" />
  <path
     id="path111"
     d="  M 48.376417,34.767106   C 48.486614,34.767106 48.541713,34.822205 48.541713,34.877303   L 48.541713,34.877303   C 48.541713,34.932402 48.486614,34.9875 48.376417,34.9875   C 48.321319,34.9875 48.26622,34.932402 48.26622,34.877303   C 48.26622,34.822205 48.321319,34.767106 48.376417,34.767106   z  M 48.376417,33.94063   C 47.880531,33.94063 47.439744,34.326319 47.439744,34.877303   C 47.439744,35.373189 47.880531,35.813976 48.376417,35.813976   C 48.927402,35.813976 49.313091,35.373189 49.313091,34.877303   L 49.313091,34.877303   C 49.313091,34.326319 48.927402,33.94063 48.376417,33.94063   z "
     style="fill:#1269b0;fill-rule:nonzero;fill-opacity:1;stroke:none;" />
  <path
     id="path113"
     d="  M 50.580354,34.767106   C 50.580354,34.491614 50.304862,34.216122 50.02937,34.216122   C 49.753878,34.216122 49.478386,34.491614 49.478386,34.767106   C 49.478386,35.042598 49.753878,35.262992 50.02937,35.262992   C 50.304862,35.262992 50.580354,35.042598 50.580354,34.767106   z "
     style="fill:#1269b0;fill-rule:nonzero;fill-opacity:1;stroke:none;" />
  <path
     id="path115"
     d="  M 50.02937,34.656909   C 50.084469,34.656909 50.139567,34.712008 50.139567,34.767106   L 50.139567,34.767106   C 50.139567,34.822205 50.084469,34.877303 50.02937,34.877303   C 49.974272,34.877303 49.919173,34.822205 49.919173,34.767106   C 49.919173,34.712008 49.974272,34.656909 50.02937,34.656909   z  M 50.02937,33.830433   C 49.533484,33.830433 49.092697,34.216122 49.092697,34.767106   C 49.092697,35.262992 49.533484,35.70378 50.02937,35.70378   C 50.525256,35.70378 50.966043,35.262992 50.966043,34.767106   L 50.966043,34.767106   C 50.966043,34.216122 50.525256,33.830433 50.02937,33.830433   z "
     style="fill:#1269b0;fill-rule:nonzero;fill-opacity:1;stroke:none;" />
  <path
     id="path117"
     d="  M 52.178209,34.712008   C 52.178209,34.436516 51.957815,34.161024 51.682323,34.161024   C 51.351732,34.161024 51.131339,34.436516 51.131339,34.712008   C 51.131339,34.9875 51.351732,35.262992 51.682323,35.262992   C 51.957815,35.262992 52.178209,34.9875 52.178209,34.712008   z "
     style="fill:#1269b0;fill-rule:nonzero;fill-opacity:1;stroke:none;" />
  <path
     id="path119"
     d="  M 51.682323,34.601811   C 51.737421,34.601811 51.79252,34.656909 51.79252,34.712008   L 51.79252,34.712008   C 51.79252,34.767106 51.737421,34.822205 51.682323,34.822205   C 51.572126,34.822205 51.517028,34.767106 51.517028,34.712008   C 51.517028,34.656909 51.572126,34.601811 51.682323,34.601811   z  M 51.682323,33.775335   C 51.131339,33.775335 50.74565,34.216122 50.74565,34.712008   C 50.74565,35.207894 51.131339,35.648681 51.682323,35.648681   C 52.178209,35.648681 52.618996,35.207894 52.618996,34.712008   L 52.618996,34.712008   C 52.618996,34.216122 52.178209,33.775335 51.682323,33.775335   z "
     style="fill:#1269b0;fill-rule:nonzero;fill-opacity:1;stroke:none;" />
  <path
     id="path121"
     d="  M 53.831161,34.712008   C 53.831161,34.436516 53.610768,34.161024 53.280177,34.161024   C 53.004685,34.161024 52.784291,34.436516 52.784291,34.712008   C 52.784291,34.9875 53.004685,35.262992 53.280177,35.262992   C 53.610768,35.262992 53.831161,34.9875 53.831161,34.712008   z "
     style="fill:#1269b0;fill-rule:nonzero;fill-opacity:1;stroke:none;" />
  <path
     id="path123"
     d="  M 53.280177,34.601811   C 53.335276,34.601811 53.390374,34.656909 53.390374,34.712008   L 53.390374,34.712008   C 53.390374,34.767106 53.335276,34.822205 53.280177,34.822205   C 53.225079,34.822205 53.16998,34.767106 53.16998,34.712008   C 53.16998,34.656909 53.225079,34.601811 53.280177,34.601811   z  M 53.280177,33.775335   C 52.784291,33.775335 52.343504,34.216122 52.343504,34.712008   C 52.343504,35.262992 52.784291,35.648681 53.280177,35.648681   C 53.831161,35.648681 54.21685,35.262992 54.21685,34.712008   L 54.21685,34.712008   C 54.21685,34.216122 53.831161,33.775335 53.280177,33.775335   z "
     style="fill:#1269b0;fill-rule:nonzero;fill-opacity:1;stroke:none;" />
  <path
     id="path125"
     d="  M 55.429016,34.767106   C 55.429016,34.491614 55.208622,34.216122 54.93313,34.216122   C 54.657638,34.216122 54.382146,34.491614 54.382146,34.767106   C 54.382146,35.042598 54.657638,35.262992 54.93313,35.262992   C 55.208622,35.262992 55.429016,35.042598 55.429016,34.767106   z "
     style="fill:#1269b0;fill-rule:nonzero;fill-opacity:1;stroke:none;" />
  <path
     id="path127"
     d="  M 54.93313,34.656909   C 54.988228,34.656909 55.043327,34.712008 55.043327,34.767106   L 55.043327,34.767106   C 55.043327,34.822205 54.988228,34.877303 54.93313,34.877303   C 54.878031,34.877303 54.822933,34.822205 54.822933,34.767106   C 54.822933,34.712008 54.878031,34.656909 54.93313,34.656909   z  M 54.93313,33.830433   C 54.382146,33.830433 53.996457,34.216122 53.996457,34.767106   C 53.996457,35.262992 54.382146,35.70378 54.93313,35.70378   C 55.429016,35.70378 55.869803,35.262992 55.869803,34.767106   L 55.869803,34.767106   C 55.869803,34.216122 55.429016,33.830433 54.93313,33.830433   z "
     style="fill:#1269b0;fill-rule:nonzero;fill-opacity:1;stroke:none;" />
  <path
     id="path129"
     d="  M 57.081969,34.822205   C 57.081969,34.491614 56.861575,34.27122 56.530984,34.27122   C 56.255492,34.27122 56.035098,34.491614 56.035098,34.822205   C 56.035098,35.097697 56.255492,35.318091 56.530984,35.318091   C 56.861575,35.318091 57.081969,35.097697 57.081969,34.822205   z "
     style="fill:#1269b0;fill-rule:nonzero;fill-opacity:1;stroke:none;" />
  <path
     id="path131"
     d="  M 56.530984,34.712008   C 56.641181,34.712008 56.69628,34.767106 56.69628,34.822205   L 56.69628,34.822205   C 56.69628,34.877303 56.641181,34.932402 56.530984,34.932402   C 56.475886,34.932402 56.420787,34.877303 56.420787,34.822205   C 56.420787,34.767106 56.475886,34.712008 56.530984,34.712008   z  M 56.530984,33.885531   C 56.035098,33.885531 55.594311,34.27122 55.594311,34.822205   C 55.594311,35.318091 56.035098,35.758878 56.530984,35.758878   C 57.081969,35.758878 57.522756,35.318091 57.522756,34.822205   L 57.522756,34.822205   C 57.522756,34.27122 57.081969,33.885531 56.530984,33.885531   z "
     style="fill:#1269b0;fill-rule:nonzero;fill-opacity:1;stroke:none;" />
  <path
     id="path133"
     d="  M 58.734921,34.822205   C 58.734921,34.546713 58.459429,34.326319 58.183937,34.326319   C 57.908445,34.326319 57.688051,34.546713 57.688051,34.822205   C 57.688051,35.152795 57.908445,35.373189 58.183937,35.373189   C 58.459429,35.373189 58.734921,35.152795 58.734921,34.822205   z "
     style="fill:#1269b0;fill-rule:nonzero;fill-opacity:1;stroke:none;" />
  <path
     id="path135"
     d="  M 58.183937,34.712008   C 58.239035,34.712008 58.294134,34.767106 58.294134,34.822205   L 58.294134,34.822205   C 58.294134,34.932402 58.239035,34.9875 58.183937,34.9875   C 58.128839,34.9875 58.07374,34.932402 58.07374,34.822205   C 58.07374,34.767106 58.128839,34.712008 58.183937,34.712008   z  M 58.183937,33.885531   C 57.688051,33.885531 57.247264,34.326319 57.247264,34.822205   C 57.247264,35.373189 57.688051,35.758878 58.183937,35.758878   C 58.734921,35.758878 59.12061,35.373189 59.12061,34.822205   L 59.12061,34.822205   C 59.12061,34.326319 58.734921,33.885531 58.183937,33.885531   z "
     style="fill:#1269b0;fill-rule:nonzero;fill-opacity:1;stroke:none;" />
  <path
     id="path137"
     d="  M 60.332776,34.877303   C 60.332776,34.546713 60.112382,34.326319 59.83689,34.326319   C 59.506299,34.326319 59.285906,34.546713 59.285906,34.877303   C 59.285906,35.152795 59.506299,35.373189 59.83689,35.373189   C 60.112382,35.373189 60.332776,35.152795 60.332776,34.877303   z "
     style="fill:#1269b0;fill-rule:nonzero;fill-opacity:1;stroke:none;" />
  <path
     id="path139"
     d="  M 59.83689,34.767106   C 59.891988,34.767106 59.947087,34.822205 59.947087,34.877303   L 59.947087,34.877303   C 59.947087,34.932402 59.891988,34.9875 59.83689,34.9875   C 59.781791,34.9875 59.726693,34.932402 59.726693,34.877303   C 59.726693,34.822205 59.781791,34.767106 59.83689,34.767106   z  M 59.83689,33.94063   C 59.285906,33.94063 58.900217,34.326319 58.900217,34.877303   C 58.900217,35.373189 59.285906,35.813976 59.83689,35.813976   C 60.332776,35.813976 60.773563,35.373189 60.773563,34.877303   L 60.773563,34.877303   C 60.773563,34.326319 60.332776,33.94063 59.83689,33.94063   z "
     style="fill:#1269b0;fill-rule:nonzero;fill-opacity:1;stroke:none;" />
  <path
     id="path141"
     d="  M 15.75815,34.822205   L 15.75815,28.045098  "
     style="fill:none;stroke:#1269b0;stroke-width:0.8264764px;stroke-linecap:butt;stroke-linejoin:round;stroke-miterlimit:4;stroke-dasharray:none;stroke-opacity:1;" />
  <path
     id="path143"
     d="  M 17.411102,34.822205   L 17.411102,20.827205  "
     style="fill:none;stroke:#1269b0;stroke-width:0.8264764px;stroke-linecap:butt;stroke-linejoin:round;stroke-miterlimit:4;stroke-dasharray:none;stroke-opacity:1;" />
  <path
     id="path145"
     d="  M 19.008957,34.822205   L 19.008957,20.772106  "
     style="fill:none;stroke:#1269b0;stroke-width:0.8264764px;stroke-linecap:butt;stroke-linejoin:round;stroke-miterlimit:4;stroke-dasharray:none;stroke-opacity:1;" />
  <path
     id="path147"
     d="  M 20.661909,34.822205   L 20.661909,25.290177  "
     style="fill:none;stroke:#1269b0;stroke-width:0.8264764px;stroke-linecap:butt;stroke-linejoin:round;stroke-miterlimit:4;stroke-dasharray:none;stroke-opacity:1;" />
  <path
     id="path149"
     d="  M 22.259764,34.822205   L 22.259764,31.240807  "
     style="fill:none;stroke:#1269b0;stroke-width:0.8264764px;stroke-linecap:butt;stroke-linejoin:round;stroke-miterlimit:4;stroke-dasharray:none;stroke-opacity:1;" />
  <path
     id="path151"
     d="  M 23.912717,34.822205   L 23.912717,36.144567  "
     style="fill:none;stroke:#1269b0;stroke-width:0.8264764px;stroke-linecap:butt;stroke-linejoin:round;stroke-miterlimit:4;stroke-dasharray:none;stroke-opacity:1;" />
  <path
     id="path153"
     d="  M 25.565669,34.822205   L 25.565669,38.789291  "
     style="fill:none;stroke:#1269b0;stroke-width:0.8264764px;stroke-linecap:butt;stroke-linejoin:round;stroke-miterlimit:4;stroke-dasharray:none;stroke-opacity:1;" />
  <path
     id="path155"
     d="  M 27.163524,34.822205   L 27.163524,39.17498  "
     style="fill:none;stroke:#1269b0;stroke-width:0.8264764px;stroke-linecap:butt;stroke-linejoin:round;stroke-miterlimit:4;stroke-dasharray:none;stroke-opacity:1;" />
  <path
     id="path157"
     d="  M 28.816476,34.822205   L 28.816476,38.017913  "
     style="fill:none;stroke:#1269b0;stroke-width:0.8264764px;stroke-linecap:butt;stroke-linejoin:round;stroke-miterlimit:4;stroke-dasharray:none;stroke-opacity:1;" />
  <path
     id="path159"
     d="  M 30.469429,34.822205   L 30.469429,36.254764  "
     style="fill:none;stroke:#1269b0;stroke-width:0.8264764px;stroke-linecap:butt;stroke-linejoin:round;stroke-miterlimit:4;stroke-dasharray:none;stroke-opacity:1;" />
  <path
     id="path161"
     d="  M 32.067283,34.822205   L 32.067283,34.712008  "
     style="fill:none;stroke:#1269b0;stroke-width:0.8264764px;stroke-linecap:butt;stroke-linejoin:round;stroke-miterlimit:4;stroke-dasharray:none;stroke-opacity:1;" />
  <path
     id="path163"
     d="  M 33.720236,34.822205   L 33.720236,33.720236  "
     style="fill:none;stroke:#1269b0;stroke-width:0.8264764px;stroke-linecap:butt;stroke-linejoin:round;stroke-miterlimit:4;stroke-dasharray:none;stroke-opacity:1;" />
  <path
     id="path165"
     d="  M 35.318091,34.822205   L 35.318091,33.499843  "
     style="fill:none;stroke:#1269b0;stroke-width:0.8264764px;stroke-linecap:butt;stroke-linejoin:round;stroke-miterlimit:4;stroke-dasharray:none;stroke-opacity:1;" />
  <path
     id="path167"
     d="  M 36.971043,34.822205   L 36.971043,33.775335  "
     style="fill:none;stroke:#1269b0;stroke-width:0.8264764px;stroke-linecap:butt;stroke-linejoin:round;stroke-miterlimit:4;stroke-dasharray:none;stroke-opacity:1;" />
  <path
     id="path169"
     d="  M 38.623996,34.822205   L 38.623996,34.27122  "
     style="fill:none;stroke:#1269b0;stroke-width:0.8264764px;stroke-linecap:butt;stroke-linejoin:round;stroke-miterlimit:4;stroke-dasharray:none;stroke-opacity:1;" />
  <path
     id="path171"
     d="  M 40.22185,34.822205   L 40.22185,34.767106  "
     style="fill:none;stroke:#1269b0;stroke-width:0.8264764px;stroke-linecap:butt;stroke-linejoin:round;stroke-miterlimit:4;stroke-dasharray:none;stroke-opacity:1;" />
  <path
     id="path173"
     d="  M 41.874803,34.822205   L 41.874803,35.097697  "
     style="fill:none;stroke:#1269b0;stroke-width:0.8264764px;stroke-linecap:butt;stroke-linejoin:round;stroke-miterlimit:4;stroke-dasharray:none;stroke-opacity:1;" />
  <path
     id="path175"
     d="  M 43.527756,34.822205   L 43.527756,35.207894  "
     style="fill:none;stroke:#1269b0;stroke-width:0.8264764px;stroke-linecap:butt;stroke-linejoin:round;stroke-miterlimit:4;stroke-dasharray:none;stroke-opacity:1;" />
  <path
     id="path177"
     d="  M 45.12561,34.822205   L 45.12561,35.152795  "
     style="fill:none;stroke:#1269b0;stroke-width:0.8264764px;stroke-linecap:butt;stroke-linejoin:round;stroke-miterlimit:4;stroke-dasharray:none;stroke-opacity:1;" />
  <path
     id="path179"
     d="  M 46.778563,34.822205   L 46.778563,35.042598  "
     style="fill:none;stroke:#1269b0;stroke-width:0.8264764px;stroke-linecap:butt;stroke-linejoin:round;stroke-miterlimit:4;stroke-dasharray:none;stroke-opacity:1;" />
  <path
     id="path181"
     d="  M 48.376417,34.822205   L 48.376417,34.877303  "
     style="fill:none;stroke:#1269b0;stroke-width:0.8264764px;stroke-linecap:butt;stroke-linejoin:round;stroke-miterlimit:4;stroke-dasharray:none;stroke-opacity:1;" />
  <path
     id="path183"
     d="  M 50.02937,34.822205   L 50.02937,34.767106  "
     style="fill:none;stroke:#1269b0;stroke-width:0.8264764px;stroke-linecap:butt;stroke-linejoin:round;stroke-miterlimit:4;stroke-dasharray:none;stroke-opacity:1;" />
  <path
     id="path185"
     d="  M 51.682323,34.822205   L 51.682323,34.712008  "
     style="fill:none;stroke:#1269b0;stroke-width:0.8264764px;stroke-linecap:butt;stroke-linejoin:round;stroke-miterlimit:4;stroke-dasharray:none;stroke-opacity:1;" />
  <path
     id="path187"
     d="  M 53.280177,34.822205   L 53.280177,34.712008  "
     style="fill:none;stroke:#1269b0;stroke-width:0.8264764px;stroke-linecap:butt;stroke-linejoin:round;stroke-miterlimit:4;stroke-dasharray:none;stroke-opacity:1;" />
  <path
     id="path189"
     d="  M 54.93313,34.822205   L 54.93313,34.767106  "
     style="fill:none;stroke:#1269b0;stroke-width:0.8264764px;stroke-linecap:butt;stroke-linejoin:round;stroke-miterlimit:4;stroke-dasharray:none;stroke-opacity:1;" />
  <path
     id="path191"
     d="  M 56.530984,34.822205   L 56.530984,34.822205  "
     style="fill:none;stroke:#1269b0;stroke-width:0.8264764px;stroke-linecap:butt;stroke-linejoin:round;stroke-miterlimit:4;stroke-dasharray:none;stroke-opacity:1;" />
  <path
     id="path193"
     d="  M 58.183937,34.822205   L 58.183937,34.822205  "
     style="fill:none;stroke:#1269b0;stroke-width:0.8264764px;stroke-linecap:butt;stroke-linejoin:round;stroke-miterlimit:4;stroke-dasharray:none;stroke-opacity:1;" />
  <path
     id="path195"
     d="  M 59.83689,34.822205   L 59.83689,34.877303  "
     style="fill:none;stroke:#1269b0;stroke-width:0.8264764px;stroke-linecap:butt;stroke-linejoin:round;stroke-miterlimit:4;stroke-dasharray:none;stroke-opacity:1;" />
  <text
     id="text201"
     y="0.000000"
     x="0.000000"
     transform="matrix(1.000000,-0.000000,0.000000,1.000000,59.947087,29.973543)"
     style="font-size:16.750000px;font-style:normal;font-variant:normal;font-weight:400;font-stretch:Normal;line-height:125.000000%;letter-spacing:0px;word-spacing:0px;fill:#000000;fill-opacity:1;stroke:none;font-family:Arial;text-align:start;text-anchor:start;"
     xml:space="preserve"><tspan
       id="tspan199"
       y="0.000000"
       x="0.000000"><tspan
         id="tspan197"
         style="fill:#000000;font-size:16.750000px;font-style:normal;font-variant:normal;font-weight:400;font-stretch:Normal;font-family:Arial;"
         dy="0.000000"
         dx="0.000000">t</tspan></tspan></text>
  <text
     id="text207"
     y="-13.223622"
     x="-40.552441"
     transform="matrix(1.000000,-0.000000,0.000000,1.000000,59.947087,29.973543)"
     style="font-size:16.750000px;font-style:normal;font-variant:normal;font-weight:400;font-stretch:Normal;line-height:125.000000%;letter-spacing:0px;word-spacing:0px;fill:#000000;fill-opacity:1;stroke:none;font-family:Arial;text-align:start;text-anchor:start;"
     xml:space="preserve"><tspan
       id="tspan205"
       y="-13.223622"
       x="-40.552441"><tspan
         id="tspan203"
         style="fill:#000000;font-size:16.750000px;font-style:normal;font-variant:normal;font-weight:400;font-stretch:Normal;font-family:Arial;"
         dy="0.000000"
         dx="0.000000">u</tspan></tspan></text>
  <path
     id="path209"
     d="  M 10.578898,55.373917   L 74.933858,55.373917  "
     style="fill:none;stroke:#262626;stroke-width:1.0468701px;stroke-linecap:butt;stroke-linejoin:round;stroke-miterlimit:4;stroke-dasharray:none;stroke-opacity:1;" />
  <path
     id="path211"
     d="  M 10.578898,4.6282677   L 74.933858,4.6282677  "
     style="fill:none;stroke:#262626;stroke-width:1.0468701px;stroke-linecap:butt;stroke-linejoin:round;stroke-miterlimit:4;stroke-dasharray:none;stroke-opacity:1;" />
</svg>
