<?xml version="1.0" encoding="utf-8" standalone="no"?>
<!DOCTYPE svg PUBLIC "-//W3C//DTD SVG 1.1//EN"
  "http://www.w3.org/Graphics/SVG/1.1/DTD/svg11.dtd">
<!-- Created with matplotlib (https://matplotlib.org/) -->
<svg height="46.771654pt" version="1.1" viewBox="0 0 62.362205 46.771654" width="62.362205pt" xmlns="http://www.w3.org/2000/svg" xmlns:xlink="http://www.w3.org/1999/xlink">
 <metadata>
  <rdf:RDF xmlns:cc="http://creativecommons.org/ns#" xmlns:dc="http://purl.org/dc/elements/1.1/" xmlns:rdf="http://www.w3.org/1999/02/22-rdf-syntax-ns#">
   <cc:Work>
    <dc:type rdf:resource="http://purl.org/dc/dcmitype/StillImage"/>
    <dc:date>2020-10-26T12:00:11.557430</dc:date>
    <dc:format>image/svg+xml</dc:format>
    <dc:creator>
     <cc:Agent>
      <dc:title>Matplotlib v3.3.2, https://matplotlib.org/</dc:title>
     </cc:Agent>
    </dc:creator>
   </cc:Work>
  </rdf:RDF>
 </metadata>
 <defs>
  <style type="text/css">*{stroke-linecap:butt;stroke-linejoin:round;}</style>
 </defs>
 <g id="figure_1">
  <g id="patch_1">
   <path d="M 0 46.771654 
L 62.362205 46.771654 
L 62.362205 0 
L 0 0 
z
" style="fill:none;"/>
  </g>
  <g id="axes_1">
   <g id="patch_2">
    <path d="M 7.795276 40.925197 
L 56.125984 40.925197 
L 56.125984 5.612598 
L 7.795276 5.612598 
z
" style="fill:#ffffff;"/>
   </g>
   <g id="matplotlib.axis_1">
    <g id="text_1">
     <!-- t -->
     <g transform="translate(53.969812 35.732131)scale(0.11 -0.11)">
      <defs>
       <path d="M 18.3125 70.21875 
L 18.3125 54.6875 
L 36.8125 54.6875 
L 36.8125 47.703125 
L 18.3125 47.703125 
L 18.3125 18.015625 
Q 18.3125 11.328125 20.140625 9.421875 
Q 21.96875 7.515625 27.59375 7.515625 
L 36.8125 7.515625 
L 36.8125 0 
L 27.59375 0 
Q 17.1875 0 13.234375 3.875 
Q 9.28125 7.765625 9.28125 18.015625 
L 9.28125 47.703125 
L 2.6875 47.703125 
L 2.6875 54.6875 
L 9.28125 54.6875 
L 9.28125 70.21875 
z
" id="DejaVuSans-116"/>
      </defs>
      <use xlink:href="#DejaVuSans-116"/>
     </g>
    </g>
   </g>
   <g id="matplotlib.axis_2">
    <g id="text_2">
     <!-- F -->
     <g transform="translate(11.881523 13.973967)scale(0.11 -0.11)">
      <defs>
       <path d="M 9.8125 72.90625 
L 51.703125 72.90625 
L 51.703125 64.59375 
L 19.671875 64.59375 
L 19.671875 43.109375 
L 48.578125 43.109375 
L 48.578125 34.8125 
L 19.671875 34.8125 
L 19.671875 0 
L 9.8125 0 
z
" id="DejaVuSans-70"/>
      </defs>
      <use xlink:href="#DejaVuSans-70"/>
     </g>
    </g>
   </g>
   <g id="line2d_1">
    <defs>
     <path d="M 2.902354 -0 
C 2.103843 -0.19483 -1.406197 -1.298915 -3.6 -2.500432 
L -3.6 2.500432 
C -1.406197 1.298915 2.103843 0.19483 2.902354 -0 
" id="m1623b5c6ee" style="stroke:#000000;"/>
    </defs>
    <g>
     <use style="stroke:#000000;" x="56.125984" xlink:href="#m1623b5c6ee" y="39.380133"/>
    </g>
   </g>
   <g id="line2d_2">
    <defs>
     <path d="M 0 -2.902354 
C -0.19483 -2.103843 -1.298915 1.406197 -2.500432 3.6 
L 2.500432 3.6 
C 1.298915 1.406197 0.19483 -2.103843 0 -2.902354 
" id="me935cadc0a" style="stroke:#000000;"/>
    </defs>
    <g>
     <use style="stroke:#000000;" x="7.795276" xlink:href="#me935cadc0a" y="5.612598"/>
    </g>
   </g>
   <g id="patch_3">
    <path d="M 7.795276 40.925197 
L 7.795276 5.612598 
" style="fill:none;stroke:#000000;stroke-linecap:square;stroke-linejoin:miter;stroke-width:0.9;"/>
   </g>
   <g id="patch_4">
    <path d="M 7.795276 39.380133 
L 56.125984 39.380133 
" style="fill:none;stroke:#000000;stroke-linecap:square;stroke-linejoin:miter;stroke-width:0.9;"/>
   </g>
   <g id="line2d_3">
    <path clip-path="url(#pb703cfc82b)" d="M 7.795276 35.419394 
L 8.199573 32.355769 
L 8.60387 28.795534 
L 9.008167 24.798657 
L 9.412465 20.46813 
L 9.816762 15.956693 
L 10.221059 20.673188 
L 10.625357 24.958497 
L 11.029654 28.639958 
L 11.433951 31.666829 
L 11.838248 34.06349 
L 12.242546 35.896034 
L 12.646843 37.24938 
L 13.05114 38.212409 
L 13.455438 38.868991 
L 13.859735 39.293168 
L 14.264032 39.54717 
L 14.66833 39.681223 
L 15.072627 39.734435 
L 15.476924 39.73622 
L 15.881221 39.707933 
L 16.285519 39.664475 
L 16.689816 39.615768 
L 17.094113 39.568017 
L 17.498411 39.524757 
L 17.902708 39.487671 
L 18.307005 39.457234 
L 18.711302 39.433171 
L 19.1156 39.414801 
L 19.519897 39.401255 
L 19.924194 39.391633 
L 20.328492 39.385087 
L 20.732789 39.380869 
L 21.137086 39.378354 
L 21.541383 39.377037 
L 21.945681 39.376526 
L 22.349978 39.376525 
L 22.754275 39.376822 
L 23.158573 39.377267 
L 23.56287 39.377763 
L 23.967167 39.378246 
L 24.371464 39.378683 
L 24.775762 39.379056 
L 25.180059 39.379362 
L 25.584356 39.379604 
L 25.988654 39.379788 
L 26.392951 39.379923 
L 26.797248 39.38002 
L 27.201545 39.380085 
L 27.605843 39.380127 
L 28.01014 39.380152 
L 28.414437 39.380165 
L 28.818735 39.38017 
L 29.223032 39.380169 
L 29.627329 39.380166 
L 30.031626 39.380162 
L 30.435924 39.380157 
L 30.840221 39.380152 
L 31.244518 39.380147 
L 31.648816 39.380144 
L 32.053113 39.38014 
L 32.45741 39.380138 
L 32.861708 39.380136 
L 33.266005 39.380135 
L 33.670302 39.380134 
L 34.074599 39.380133 
L 34.478897 39.380133 
L 34.883194 39.380133 
L 35.287491 39.380132 
L 35.691789 39.380132 
L 36.096086 39.380132 
L 36.500383 39.380132 
L 36.90468 39.380133 
L 37.308978 39.380133 
L 37.713275 39.380133 
L 38.117572 39.380133 
L 38.52187 39.380133 
L 38.926167 39.380133 
L 39.330464 39.380133 
L 39.734761 39.380133 
L 40.139059 39.380133 
L 40.543356 39.380133 
L 40.947653 39.380133 
L 41.351951 39.380133 
L 41.756248 39.380133 
L 42.160545 39.380133 
L 42.564842 39.380133 
L 42.96914 39.380133 
L 43.373437 39.380133 
L 43.777734 39.380133 
L 44.182032 39.380133 
L 44.586329 39.380133 
L 44.990626 39.380133 
L 45.394923 39.380133 
L 45.799221 39.380133 
L 46.203518 39.380133 
L 46.607815 39.380133 
L 47.012113 39.380133 
L 47.41641 39.380133 
L 47.820707 39.380133 
" style="fill:none;stroke:#7fa3ae;stroke-linecap:square;stroke-width:1.5;"/>
   </g>
  </g>
 </g>
 <defs>
  <clipPath id="pb703cfc82b">
   <rect height="35.312598" width="48.330709" x="7.795276" y="5.612598"/>
  </clipPath>
 </defs>
</svg>
