<?xml version="1.0" encoding="utf-8" standalone="no"?>
<!DOCTYPE svg PUBLIC "-//W3C//DTD SVG 1.1//EN"
  "http://www.w3.org/Graphics/SVG/1.1/DTD/svg11.dtd">
<!-- Created with matplotlib (https://matplotlib.org/) -->
<svg height="46.771654pt" version="1.1" viewBox="0 0 62.362205 46.771654" width="62.362205pt" xmlns="http://www.w3.org/2000/svg" xmlns:xlink="http://www.w3.org/1999/xlink">
 <metadata>
  <rdf:RDF xmlns:cc="http://creativecommons.org/ns#" xmlns:dc="http://purl.org/dc/elements/1.1/" xmlns:rdf="http://www.w3.org/1999/02/22-rdf-syntax-ns#">
   <cc:Work>
    <dc:type rdf:resource="http://purl.org/dc/dcmitype/StillImage"/>
    <dc:date>2020-10-26T11:56:58.682029</dc:date>
    <dc:format>image/svg+xml</dc:format>
    <dc:creator>
     <cc:Agent>
      <dc:title>Matplotlib v3.3.2, https://matplotlib.org/</dc:title>
     </cc:Agent>
    </dc:creator>
   </cc:Work>
  </rdf:RDF>
 </metadata>
 <defs>
  <style type="text/css">*{stroke-linecap:butt;stroke-linejoin:round;}</style>
 </defs>
 <g id="figure_1">
  <g id="patch_1">
   <path d="M 0 46.771654 
L 62.362205 46.771654 
L 62.362205 0 
L 0 0 
z
" style="fill:none;"/>
  </g>
  <g id="axes_1">
   <g id="patch_2">
    <path d="M 7.795276 40.925197 
L 56.125984 40.925197 
L 56.125984 5.612598 
L 7.795276 5.612598 
z
" style="fill:#ffffff;"/>
   </g>
   <g id="matplotlib.axis_1">
    <g id="text_1">
     <!-- t -->
     <g transform="translate(53.969812 23.976006)scale(0.11 -0.11)">
      <defs>
       <path d="M 18.3125 70.21875 
L 18.3125 54.6875 
L 36.8125 54.6875 
L 36.8125 47.703125 
L 18.3125 47.703125 
L 18.3125 18.015625 
Q 18.3125 11.328125 20.140625 9.421875 
Q 21.96875 7.515625 27.59375 7.515625 
L 36.8125 7.515625 
L 36.8125 0 
L 27.59375 0 
Q 17.1875 0 13.234375 3.875 
Q 9.28125 7.765625 9.28125 18.015625 
L 9.28125 47.703125 
L 2.6875 47.703125 
L 2.6875 54.6875 
L 9.28125 54.6875 
L 9.28125 70.21875 
z
" id="DejaVuSans-116"/>
      </defs>
      <use xlink:href="#DejaVuSans-116"/>
     </g>
    </g>
   </g>
   <g id="matplotlib.axis_2">
    <g id="text_2">
     <!-- F -->
     <g transform="translate(11.881523 17.226737)scale(0.11 -0.11)">
      <defs>
       <path d="M 9.8125 72.90625 
L 51.703125 72.90625 
L 51.703125 64.59375 
L 19.671875 64.59375 
L 19.671875 43.109375 
L 48.578125 43.109375 
L 48.578125 34.8125 
L 19.671875 34.8125 
L 19.671875 0 
L 9.8125 0 
z
" id="DejaVuSans-70"/>
      </defs>
      <use xlink:href="#DejaVuSans-70"/>
     </g>
    </g>
   </g>
   <g id="line2d_1">
    <defs>
     <path d="M 2.902354 -0 
C 2.103843 -0.19483 -1.406197 -1.298915 -3.6 -2.500432 
L -3.6 2.500432 
C -1.406197 1.298915 2.103843 0.19483 2.902354 -0 
" id="m542ed58cb7" style="stroke:#000000;"/>
    </defs>
    <g>
     <use style="stroke:#000000;" x="56.125984" xlink:href="#m542ed58cb7" y="27.624008"/>
    </g>
   </g>
   <g id="line2d_2">
    <defs>
     <path d="M 0 -2.902354 
C -0.19483 -2.103843 -1.298915 1.406197 -2.500432 3.6 
L 2.500432 3.6 
C 1.298915 1.406197 0.19483 -2.103843 0 -2.902354 
" id="mb95236ed92" style="stroke:#000000;"/>
    </defs>
    <g>
     <use style="stroke:#000000;" x="7.795276" xlink:href="#mb95236ed92" y="5.612598"/>
    </g>
   </g>
   <g id="patch_3">
    <path d="M 7.795276 40.925197 
L 7.795276 5.612598 
" style="fill:none;stroke:#000000;stroke-linecap:square;stroke-linejoin:miter;stroke-width:0.9;"/>
   </g>
   <g id="patch_4">
    <path d="M 7.795276 27.624008 
L 56.125984 27.624008 
" style="fill:none;stroke:#000000;stroke-linecap:square;stroke-linejoin:miter;stroke-width:0.9;"/>
   </g>
   <g id="line2d_3">
    <path clip-path="url(#p44be6b11e4)" d="M 7.795276 21.617763 
L 8.301927 39.277415 
L 8.808578 24.740814 
L 9.315229 24.312048 
L 9.82188 21.061599 
L 10.328531 35.102636 
L 10.835182 34.723577 
L 11.341833 25.985645 
L 11.848484 25.352065 
L 12.355135 33.392946 
L 12.861786 22.46164 
L 13.368437 29.080017 
L 13.875088 23.755985 
L 14.381739 13.959213 
L 14.88839 25.298779 
L 15.395041 34.154816 
L 15.901692 23.895574 
L 16.408343 29.431993 
L 16.914994 22.388678 
L 17.421645 16.385097 
L 17.928296 30.768135 
L 18.434947 19.622853 
L 18.941598 38.429839 
L 19.448249 35.042246 
L 19.9549 29.973317 
L 20.461551 38.357666 
L 20.968202 28.950871 
L 21.474853 18.423771 
L 21.981505 30.755486 
L 22.488156 16.319258 
L 22.994807 28.244865 
L 23.501458 17.098747 
L 24.008109 28.966869 
L 24.51476 28.874371 
L 25.021411 29.374892 
L 25.528062 25.108668 
L 26.034713 22.950143 
L 26.541364 28.493651 
L 27.048015 23.854969 
L 27.554666 25.37885 
L 28.061317 36.540374 
L 28.567968 22.608234 
L 29.074619 18.109373 
L 29.58127 26.784397 
L 30.087921 18.545378 
L 30.594572 29.317779 
L 31.101223 26.781357 
L 31.607874 36.855145 
L 32.114525 21.009915 
L 32.621176 25.188027 
L 33.127827 26.163126 
L 33.634478 26.012494 
L 34.141129 21.738745 
L 34.64778 30.889168 
L 35.154431 31.331758 
L 35.661082 39.641102 
L 36.167733 32.118993 
L 36.674384 24.43353 
L 37.181036 27.908742 
L 37.687687 29.741038 
L 38.194338 28.753753 
L 38.700989 28.252939 
L 39.20764 25.937544 
L 39.714291 29.308391 
L 40.220942 26.793639 
L 40.727593 24.473321 
L 41.234244 36.529186 
L 41.740895 30.321113 
L 42.247546 28.42282 
L 42.754197 29.809014 
L 43.260848 31.400136 
L 43.767499 27.218313 
L 44.27415 28.508056 
L 44.780801 26.969601 
L 45.287452 27.416335 
L 45.794103 36.022962 
L 46.300754 24.595588 
L 46.807405 22.774381 
L 47.314056 22.196633 
L 47.820707 33.7074 
" style="fill:none;stroke:#7fa3ae;stroke-linecap:square;stroke-width:1.5;"/>
   </g>
  </g>
 </g>
 <defs>
  <clipPath id="p44be6b11e4">
   <rect height="35.312598" width="48.330709" x="7.795276" y="5.612598"/>
  </clipPath>
 </defs>
</svg>
