<?xml version="1.0" encoding="utf-8" standalone="no"?>
<!DOCTYPE svg PUBLIC "-//W3C//DTD SVG 1.1//EN"
  "http://www.w3.org/Graphics/SVG/1.1/DTD/svg11.dtd">
<!-- Created with matplotlib (https://matplotlib.org/) -->
<svg height="46.771654pt" version="1.1" viewBox="0 0 62.362205 46.771654" width="62.362205pt" xmlns="http://www.w3.org/2000/svg" xmlns:xlink="http://www.w3.org/1999/xlink">
 <metadata>
  <rdf:RDF xmlns:cc="http://creativecommons.org/ns#" xmlns:dc="http://purl.org/dc/elements/1.1/" xmlns:rdf="http://www.w3.org/1999/02/22-rdf-syntax-ns#">
   <cc:Work>
    <dc:type rdf:resource="http://purl.org/dc/dcmitype/StillImage"/>
    <dc:date>2020-10-26T11:54:09.551505</dc:date>
    <dc:format>image/svg+xml</dc:format>
    <dc:creator>
     <cc:Agent>
      <dc:title>Matplotlib v3.3.2, https://matplotlib.org/</dc:title>
     </cc:Agent>
    </dc:creator>
   </cc:Work>
  </rdf:RDF>
 </metadata>
 <defs>
  <style type="text/css">*{stroke-linecap:butt;stroke-linejoin:round;}</style>
 </defs>
 <g id="figure_1">
  <g id="patch_1">
   <path d="M 0 46.771654 
L 62.362205 46.771654 
L 62.362205 0 
L 0 0 
z
" style="fill:none;"/>
  </g>
  <g id="axes_1">
   <g id="patch_2">
    <path d="M 7.795276 40.925197 
L 56.125984 40.925197 
L 56.125984 5.612598 
L 7.795276 5.612598 
z
" style="fill:#ffffff;"/>
   </g>
   <g id="matplotlib.axis_1">
    <g id="text_1">
     <!-- t -->
     <g transform="translate(53.969812 30.580499)scale(0.11 -0.11)">
      <defs>
       <path d="M 18.3125 70.21875 
L 18.3125 54.6875 
L 36.8125 54.6875 
L 36.8125 47.703125 
L 18.3125 47.703125 
L 18.3125 18.015625 
Q 18.3125 11.328125 20.140625 9.421875 
Q 21.96875 7.515625 27.59375 7.515625 
L 36.8125 7.515625 
L 36.8125 0 
L 27.59375 0 
Q 17.1875 0 13.234375 3.875 
Q 9.28125 7.765625 9.28125 18.015625 
L 9.28125 47.703125 
L 2.6875 47.703125 
L 2.6875 54.6875 
L 9.28125 54.6875 
L 9.28125 70.21875 
z
" id="DejaVuSans-116"/>
      </defs>
      <use xlink:href="#DejaVuSans-116"/>
     </g>
    </g>
   </g>
   <g id="matplotlib.axis_2">
    <g id="text_2">
     <!-- x -->
     <g transform="translate(11.789569 10.023666)scale(0.11 -0.11)">
      <defs>
       <path d="M 54.890625 54.6875 
L 35.109375 28.078125 
L 55.90625 0 
L 45.3125 0 
L 29.390625 21.484375 
L 13.484375 0 
L 2.875 0 
L 24.125 28.609375 
L 4.6875 54.6875 
L 15.28125 54.6875 
L 29.78125 35.203125 
L 44.28125 54.6875 
z
" id="DejaVuSans-120"/>
      </defs>
      <use xlink:href="#DejaVuSans-120"/>
     </g>
    </g>
   </g>
   <g id="line2d_1">
    <defs>
     <path d="M 2.902354 -0 
C 2.103843 -0.19483 -1.406197 -1.298915 -3.6 -2.500432 
L -3.6 2.500432 
C -1.406197 1.298915 2.103843 0.19483 2.902354 -0 
" id="m9834062d1d" style="stroke:#000000;"/>
    </defs>
    <g>
     <use style="stroke:#000000;" x="56.125984" xlink:href="#m9834062d1d" y="34.228501"/>
    </g>
   </g>
   <g id="line2d_2">
    <defs>
     <path d="M 0 -2.902354 
C -0.19483 -2.103843 -1.298915 1.406197 -2.500432 3.6 
L 2.500432 3.6 
C 1.298915 1.406197 0.19483 -2.103843 0 -2.902354 
" id="mebfd60b857" style="stroke:#000000;"/>
    </defs>
    <g>
     <use style="stroke:#000000;" x="7.795276" xlink:href="#mebfd60b857" y="5.612598"/>
    </g>
   </g>
   <g id="patch_3">
    <path d="M 7.795276 40.925197 
L 7.795276 5.612598 
" style="fill:none;stroke:#000000;stroke-linecap:square;stroke-linejoin:miter;stroke-width:0.9;"/>
   </g>
   <g id="patch_4">
    <path d="M 7.795276 34.228501 
L 56.125984 34.228501 
" style="fill:none;stroke:#000000;stroke-linecap:square;stroke-linejoin:miter;stroke-width:0.9;"/>
   </g>
   <g id="line2d_3">
    <path clip-path="url(#p0cb5bc2b99)" d="M 7.795276 25.830005 
L 8.199573 22.033736 
L 8.60387 19.183856 
L 9.008167 17.25974 
L 9.412465 16.209643 
L 9.816762 15.956693 
L 10.221059 16.405017 
L 10.625357 17.445749 
L 11.029654 18.962725 
L 11.433951 20.83769 
L 11.838248 22.954897 
L 12.242546 25.205009 
L 12.646843 27.488247 
L 13.05114 29.716781 
L 13.455438 31.816361 
L 13.859735 33.727244 
L 14.264032 35.404461 
L 14.66833 36.817516 
L 15.072627 37.949591 
L 15.476924 38.796357 
L 15.881221 39.364483 
L 16.285519 39.669947 
L 16.689816 39.73622 
L 17.094113 39.592422 
L 17.498411 39.271511 
L 17.902708 38.808574 
L 18.307005 38.239262 
L 18.711302 37.598414 
L 19.1156 36.918889 
L 19.519897 36.230627 
L 19.924194 35.55994 
L 20.328492 34.929027 
L 20.732789 34.355705 
L 21.137086 33.853337 
L 21.541383 33.430931 
L 21.945681 33.093382 
L 22.349978 32.84184 
L 22.754275 32.674157 
L 23.158573 32.585405 
L 23.56287 32.568419 
L 23.967167 32.614357 
L 24.371464 32.713241 
L 24.775762 32.854475 
L 25.180059 33.027312 
L 25.584356 33.221265 
L 25.988654 33.42646 
L 26.392951 33.633915 
L 26.797248 33.835747 
L 27.201545 34.025321 
L 27.605843 34.197322 
L 28.01014 34.347782 
L 28.414437 34.47404 
L 28.818735 34.574673 
L 29.223032 34.649381 
L 29.627329 34.698852 
L 30.031626 34.724606 
L 30.435924 34.72883 
L 30.840221 34.714206 
L 31.244518 34.683757 
L 31.648816 34.640681 
L 32.053113 34.588219 
L 32.45741 34.529525 
L 32.861708 34.467568 
L 33.266005 34.405042 
L 33.670302 34.344308 
L 34.074599 34.28735 
L 34.478897 34.235752 
L 34.883194 34.190693 
L 35.287491 34.152958 
L 35.691789 34.12296 
L 36.096086 34.100776 
L 36.500383 34.086187 
L 36.90468 34.078724 
L 37.308978 34.07772 
L 37.713275 34.08236 
L 38.117572 34.09173 
L 38.52187 34.104865 
L 38.926167 34.120786 
L 39.330464 34.138546 
L 39.734761 34.157252 
L 40.139059 34.176096 
L 40.543356 34.19437 
L 40.947653 34.211482 
L 41.351951 34.22696 
L 41.756248 34.240453 
L 42.160545 34.25173 
L 42.564842 34.26067 
L 42.96914 34.267256 
L 43.373437 34.271557 
L 43.777734 34.273716 
L 44.182032 34.273938 
L 44.586329 34.27247 
L 44.990626 34.269588 
L 45.394923 34.265585 
L 45.799221 34.260753 
L 46.203518 34.25538 
L 46.607815 34.249733 
L 47.012113 34.244054 
L 47.41641 34.238556 
L 47.820707 34.233415 
" style="fill:none;stroke:#7fa3ae;stroke-linecap:square;stroke-width:1.5;"/>
   </g>
  </g>
 </g>
 <defs>
  <clipPath id="p0cb5bc2b99">
   <rect height="35.312598" width="48.330709" x="7.795276" y="5.612598"/>
  </clipPath>
 </defs>
</svg>
