<?xml version="1.0" encoding="utf-8" standalone="no"?>
<!DOCTYPE svg PUBLIC "-//W3C//DTD SVG 1.1//EN"
  "http://www.w3.org/Graphics/SVG/1.1/DTD/svg11.dtd">
<!-- Created with matplotlib (https://matplotlib.org/) -->
<svg height="46.771654pt" version="1.1" viewBox="0 0 62.362205 46.771654" width="62.362205pt" xmlns="http://www.w3.org/2000/svg" xmlns:xlink="http://www.w3.org/1999/xlink">
 <metadata>
  <rdf:RDF xmlns:cc="http://creativecommons.org/ns#" xmlns:dc="http://purl.org/dc/elements/1.1/" xmlns:rdf="http://www.w3.org/1999/02/22-rdf-syntax-ns#">
   <cc:Work>
    <dc:type rdf:resource="http://purl.org/dc/dcmitype/StillImage"/>
    <dc:date>2020-10-26T11:55:36.692210</dc:date>
    <dc:format>image/svg+xml</dc:format>
    <dc:creator>
     <cc:Agent>
      <dc:title>Matplotlib v3.3.2, https://matplotlib.org/</dc:title>
     </cc:Agent>
    </dc:creator>
   </cc:Work>
  </rdf:RDF>
 </metadata>
 <defs>
  <style type="text/css">*{stroke-linecap:butt;stroke-linejoin:round;}</style>
 </defs>
 <g id="figure_1">
  <g id="patch_1">
   <path d="M 0 46.771654 
L 62.362205 46.771654 
L 62.362205 0 
L 0 0 
z
" style="fill:none;"/>
  </g>
  <g id="axes_1">
   <g id="patch_2">
    <path d="M 7.795276 40.925197 
L 56.125984 40.925197 
L 56.125984 5.612598 
L 7.795276 5.612598 
z
" style="fill:#ffffff;"/>
   </g>
   <g id="matplotlib.axis_1">
    <g id="text_1">
     <!-- t -->
     <g transform="translate(53.969812 23.152311)scale(0.11 -0.11)">
      <defs>
       <path d="M 18.3125 70.21875 
L 18.3125 54.6875 
L 36.8125 54.6875 
L 36.8125 47.703125 
L 18.3125 47.703125 
L 18.3125 18.015625 
Q 18.3125 11.328125 20.140625 9.421875 
Q 21.96875 7.515625 27.59375 7.515625 
L 36.8125 7.515625 
L 36.8125 0 
L 27.59375 0 
Q 17.1875 0 13.234375 3.875 
Q 9.28125 7.765625 9.28125 18.015625 
L 9.28125 47.703125 
L 2.6875 47.703125 
L 2.6875 54.6875 
L 9.28125 54.6875 
L 9.28125 70.21875 
z
" id="DejaVuSans-116"/>
      </defs>
      <use xlink:href="#DejaVuSans-116"/>
     </g>
    </g>
   </g>
   <g id="matplotlib.axis_2">
    <g id="text_2">
     <!-- F -->
     <g transform="translate(11.881523 8.153126)scale(0.11 -0.11)">
      <defs>
       <path d="M 9.8125 72.90625 
L 51.703125 72.90625 
L 51.703125 64.59375 
L 19.671875 64.59375 
L 19.671875 43.109375 
L 48.578125 43.109375 
L 48.578125 34.8125 
L 19.671875 34.8125 
L 19.671875 0 
L 9.8125 0 
z
" id="DejaVuSans-70"/>
      </defs>
      <use xlink:href="#DejaVuSans-70"/>
     </g>
    </g>
   </g>
   <g id="line2d_1">
    <defs>
     <path d="M 2.902354 -0 
C 2.103843 -0.19483 -1.406197 -1.298915 -3.6 -2.500432 
L -3.6 2.500432 
C -1.406197 1.298915 2.103843 0.19483 2.902354 -0 
" id="md7f87dab69" style="stroke:#000000;"/>
    </defs>
    <g>
     <use style="stroke:#000000;" x="56.125984" xlink:href="#md7f87dab69" y="26.800313"/>
    </g>
   </g>
   <g id="line2d_2">
    <defs>
     <path d="M 0 -2.902354 
C -0.19483 -2.103843 -1.298915 1.406197 -2.500432 3.6 
L 2.500432 3.6 
C 1.298915 1.406197 0.19483 -2.103843 0 -2.902354 
" id="m0d1ce51330" style="stroke:#000000;"/>
    </defs>
    <g>
     <use style="stroke:#000000;" x="7.795276" xlink:href="#m0d1ce51330" y="5.612598"/>
    </g>
   </g>
   <g id="patch_3">
    <path d="M 7.795276 40.925197 
L 7.795276 5.612598 
" style="fill:none;stroke:#000000;stroke-linecap:square;stroke-linejoin:miter;stroke-width:0.9;"/>
   </g>
   <g id="patch_4">
    <path d="M 7.795276 26.800313 
L 56.125984 26.800313 
" style="fill:none;stroke:#000000;stroke-linecap:square;stroke-linejoin:miter;stroke-width:0.9;"/>
   </g>
   <g id="line2d_3">
    <path clip-path="url(#p002a324638)" d="M 7.795276 26.800313 
L 8.276062 26.696906 
L 8.796913 26.351583 
L 9.397895 25.652862 
L 10.079009 24.479975 
L 10.880319 22.620197 
L 12.002153 19.375255 
L 13.444511 15.288248 
L 14.005428 14.289334 
L 14.406083 13.974171 
L 14.686541 14.004083 
L 14.967 14.271613 
L 15.287524 14.898121 
L 15.688179 16.198627 
L 16.20903 18.772083 
L 16.850078 23.186673 
L 18.933484 38.675078 
L 19.254008 39.519162 
L 19.454335 39.637959 
L 19.614597 39.488829 
L 19.85499 38.843863 
L 20.175514 37.197401 
L 20.616235 33.58497 
L 21.337414 25.445636 
L 22.178789 16.551025 
L 22.579444 14.32554 
L 22.819837 13.95987 
L 22.940033 14.078703 
L 23.140361 14.734733 
L 23.420819 16.592652 
L 23.821474 20.903795 
L 25.343963 39.186201 
L 25.544291 39.638667 
L 25.664487 39.53568 
L 25.824749 38.953321 
L 26.105208 36.75359 
L 26.505863 31.445775 
L 27.667762 14.871384 
L 27.908155 13.971814 
L 27.988286 13.989047 
L 28.108483 14.32059 
L 28.30881 15.674043 
L 28.629334 19.694904 
L 29.991561 39.556505 
L 30.071692 39.640895 
L 30.111757 39.608778 
L 30.231954 39.214047 
L 30.432281 37.588413 
L 30.752805 32.825358 
L 31.834574 14.488225 
L 31.994836 13.96145 
L 32.034901 13.974549 
L 32.155098 14.366062 
L 32.355425 16.157413 
L 32.675949 21.506675 
L 33.637521 39.080944 
L 33.797783 39.641102 
L 33.837849 39.613838 
L 33.958045 39.126452 
L 34.158373 37.017167 
L 34.518962 30.016734 
L 35.240141 15.311309 
L 35.480534 13.959213 
L 35.560665 14.110128 
L 35.720927 15.319209 
L 36.001386 20.001538 
L 37.003023 39.54074 
L 37.083154 39.632161 
L 37.123219 39.549383 
L 37.243416 38.791278 
L 37.483809 35.166895 
L 38.00466 22.070166 
L 38.405315 14.714295 
L 38.565577 13.959226 
L 38.645708 14.144474 
L 38.80597 15.62768 
L 39.086429 21.254028 
L 39.887739 39.248535 
L 40.007935 39.638522 
L 40.048001 39.562051 
L 40.168197 38.71654 
L 40.40859 34.517262 
L 41.370162 13.959221 
L 41.450293 14.18889 
L 41.610555 15.962569 
L 41.891014 22.504073 
L 42.532062 38.750332 
L 42.692324 39.640158 
L 42.772455 39.361704 
L 42.932717 37.394419 
L 43.213175 30.359691 
L 43.814157 14.764348 
L 43.974419 13.97344 
L 44.05455 14.356224 
L 44.214812 16.617414 
L 44.535336 25.533929 
L 45.016122 38.468328 
L 45.176384 39.64012 
L 45.21645 39.589274 
L 45.336646 38.607402 
L 45.536974 34.482835 
L 46.378349 13.963233 
L 46.45848 14.329391 
L 46.618742 16.761702 
L 46.939266 26.455371 
L 47.379987 38.682613 
L 47.540249 39.622688 
L 47.62038 39.154894 
L 47.780642 36.439517 
L 47.820707 35.433947 
L 47.820707 35.433947 
" style="fill:none;stroke:#7fa3ae;stroke-linecap:square;stroke-width:1.5;"/>
   </g>
  </g>
 </g>
 <defs>
  <clipPath id="p002a324638">
   <rect height="35.312598" width="48.330709" x="7.795276" y="5.612598"/>
  </clipPath>
 </defs>
</svg>
