<?xml version="1.0" encoding="utf-8" standalone="no"?>
<!DOCTYPE svg PUBLIC "-//W3C//DTD SVG 1.1//EN"
  "http://www.w3.org/Graphics/SVG/1.1/DTD/svg11.dtd">
<!-- Created with matplotlib (https://matplotlib.org/) -->
<svg height="288pt" version="1.1" viewBox="0 0 432 288" width="432pt" xmlns="http://www.w3.org/2000/svg" xmlns:xlink="http://www.w3.org/1999/xlink">
 <metadata>
  <rdf:RDF xmlns:cc="http://creativecommons.org/ns#" xmlns:dc="http://purl.org/dc/elements/1.1/" xmlns:rdf="http://www.w3.org/1999/02/22-rdf-syntax-ns#">
   <cc:Work>
    <dc:type rdf:resource="http://purl.org/dc/dcmitype/StillImage"/>
    <dc:date>2020-10-24T17:36:07.897058</dc:date>
    <dc:format>image/svg+xml</dc:format>
    <dc:creator>
     <cc:Agent>
      <dc:title>Matplotlib v3.3.2, https://matplotlib.org/</dc:title>
     </cc:Agent>
    </dc:creator>
   </cc:Work>
  </rdf:RDF>
 </metadata>
 <defs>
  <style type="text/css">*{stroke-linecap:butt;stroke-linejoin:round;}</style>
 </defs>
 <g id="figure_1">
  <g id="patch_1">
   <path d="M 0 288 
L 432 288 
L 432 0 
L 0 0 
z
" style="fill:none;"/>
  </g>
  <g id="axes_1">
   <g id="patch_2">
    <path d="M 54 133.396364 
L 388.8 133.396364 
L 388.8 34.56 
L 54 34.56 
z
" style="fill:#ffffff;"/>
   </g>
   <g id="matplotlib.axis_1">
    <g id="xtick_1">
     <g id="line2d_1">
      <path clip-path="url(#p947289de0e)" d="M 69.218182 133.396364 
L 69.218182 34.56 
" style="fill:none;stroke:#b0b0b0;stroke-linecap:square;stroke-width:0.8;"/>
     </g>
     <g id="line2d_2">
      <defs>
       <path d="M 0 0 
L 0 3.5 
" id="mb11962a055" style="stroke:#000000;stroke-width:0.8;"/>
      </defs>
      <g>
       <use style="stroke:#000000;stroke-width:0.8;" x="69.218182" xlink:href="#mb11962a055" y="133.396364"/>
      </g>
     </g>
     <g id="text_1">
      <!-- $\mathdefault{10^{-1}}$ -->
      <g transform="translate(57.468182 147.994801)scale(0.1 -0.1)">
       <defs>
        <path d="M 12.40625 8.296875 
L 28.515625 8.296875 
L 28.515625 63.921875 
L 10.984375 60.40625 
L 10.984375 69.390625 
L 28.421875 72.90625 
L 38.28125 72.90625 
L 38.28125 8.296875 
L 54.390625 8.296875 
L 54.390625 0 
L 12.40625 0 
z
" id="DejaVuSans-49"/>
        <path d="M 31.78125 66.40625 
Q 24.171875 66.40625 20.328125 58.90625 
Q 16.5 51.421875 16.5 36.375 
Q 16.5 21.390625 20.328125 13.890625 
Q 24.171875 6.390625 31.78125 6.390625 
Q 39.453125 6.390625 43.28125 13.890625 
Q 47.125 21.390625 47.125 36.375 
Q 47.125 51.421875 43.28125 58.90625 
Q 39.453125 66.40625 31.78125 66.40625 
z
M 31.78125 74.21875 
Q 44.046875 74.21875 50.515625 64.515625 
Q 56.984375 54.828125 56.984375 36.375 
Q 56.984375 17.96875 50.515625 8.265625 
Q 44.046875 -1.421875 31.78125 -1.421875 
Q 19.53125 -1.421875 13.0625 8.265625 
Q 6.59375 17.96875 6.59375 36.375 
Q 6.59375 54.828125 13.0625 64.515625 
Q 19.53125 74.21875 31.78125 74.21875 
z
" id="DejaVuSans-48"/>
        <path d="M 10.59375 35.5 
L 73.1875 35.5 
L 73.1875 27.203125 
L 10.59375 27.203125 
z
" id="DejaVuSans-8722"/>
       </defs>
       <use transform="translate(0 0.684375)" xlink:href="#DejaVuSans-49"/>
       <use transform="translate(63.623047 0.684375)" xlink:href="#DejaVuSans-48"/>
       <use transform="translate(128.203125 38.965625)scale(0.7)" xlink:href="#DejaVuSans-8722"/>
       <use transform="translate(186.855469 38.965625)scale(0.7)" xlink:href="#DejaVuSans-49"/>
      </g>
     </g>
    </g>
    <g id="xtick_2">
     <g id="line2d_3">
      <path clip-path="url(#p947289de0e)" d="M 221.4 133.396364 
L 221.4 34.56 
" style="fill:none;stroke:#b0b0b0;stroke-linecap:square;stroke-width:0.8;"/>
     </g>
     <g id="line2d_4">
      <g>
       <use style="stroke:#000000;stroke-width:0.8;" x="221.4" xlink:href="#mb11962a055" y="133.396364"/>
      </g>
     </g>
     <g id="text_2">
      <!-- $\mathdefault{10^{0}}$ -->
      <g transform="translate(212.6 147.994801)scale(0.1 -0.1)">
       <use transform="translate(0 0.765625)" xlink:href="#DejaVuSans-49"/>
       <use transform="translate(63.623047 0.765625)" xlink:href="#DejaVuSans-48"/>
       <use transform="translate(128.203125 39.046875)scale(0.7)" xlink:href="#DejaVuSans-48"/>
      </g>
     </g>
    </g>
    <g id="xtick_3">
     <g id="line2d_5">
      <path clip-path="url(#p947289de0e)" d="M 373.581818 133.396364 
L 373.581818 34.56 
" style="fill:none;stroke:#b0b0b0;stroke-linecap:square;stroke-width:0.8;"/>
     </g>
     <g id="line2d_6">
      <g>
       <use style="stroke:#000000;stroke-width:0.8;" x="373.581818" xlink:href="#mb11962a055" y="133.396364"/>
      </g>
     </g>
     <g id="text_3">
      <!-- $\mathdefault{10^{1}}$ -->
      <g transform="translate(364.781818 147.994801)scale(0.1 -0.1)">
       <use transform="translate(0 0.684375)" xlink:href="#DejaVuSans-49"/>
       <use transform="translate(63.623047 0.684375)" xlink:href="#DejaVuSans-48"/>
       <use transform="translate(128.203125 38.965625)scale(0.7)" xlink:href="#DejaVuSans-49"/>
      </g>
     </g>
    </g>
    <g id="xtick_4">
     <g id="line2d_7">
      <path clip-path="url(#p947289de0e)" d="M 54.47024 133.396364 
L 54.47024 34.56 
" style="fill:none;stroke:#b0b0b0;stroke-linecap:square;stroke-width:0.8;"/>
     </g>
     <g id="line2d_8">
      <defs>
       <path d="M 0 0 
L 0 2 
" id="m7913873fac" style="stroke:#000000;stroke-width:0.6;"/>
      </defs>
      <g>
       <use style="stroke:#000000;stroke-width:0.6;" x="54.47024" xlink:href="#m7913873fac" y="133.396364"/>
      </g>
     </g>
    </g>
    <g id="xtick_5">
     <g id="line2d_9">
      <path clip-path="url(#p947289de0e)" d="M 62.254724 133.396364 
L 62.254724 34.56 
" style="fill:none;stroke:#b0b0b0;stroke-linecap:square;stroke-width:0.8;"/>
     </g>
     <g id="line2d_10">
      <g>
       <use style="stroke:#000000;stroke-width:0.6;" x="62.254724" xlink:href="#m7913873fac" y="133.396364"/>
      </g>
     </g>
    </g>
    <g id="xtick_6">
     <g id="line2d_11">
      <path clip-path="url(#p947289de0e)" d="M 115.029474 133.396364 
L 115.029474 34.56 
" style="fill:none;stroke:#b0b0b0;stroke-linecap:square;stroke-width:0.8;"/>
     </g>
     <g id="line2d_12">
      <g>
       <use style="stroke:#000000;stroke-width:0.6;" x="115.029474" xlink:href="#m7913873fac" y="133.396364"/>
      </g>
     </g>
    </g>
    <g id="xtick_7">
     <g id="line2d_13">
      <path clip-path="url(#p947289de0e)" d="M 141.827362 133.396364 
L 141.827362 34.56 
" style="fill:none;stroke:#b0b0b0;stroke-linecap:square;stroke-width:0.8;"/>
     </g>
     <g id="line2d_14">
      <g>
       <use style="stroke:#000000;stroke-width:0.6;" x="141.827362" xlink:href="#m7913873fac" y="133.396364"/>
      </g>
     </g>
    </g>
    <g id="xtick_8">
     <g id="line2d_15">
      <path clip-path="url(#p947289de0e)" d="M 160.840766 133.396364 
L 160.840766 34.56 
" style="fill:none;stroke:#b0b0b0;stroke-linecap:square;stroke-width:0.8;"/>
     </g>
     <g id="line2d_16">
      <g>
       <use style="stroke:#000000;stroke-width:0.6;" x="160.840766" xlink:href="#m7913873fac" y="133.396364"/>
      </g>
     </g>
    </g>
    <g id="xtick_9">
     <g id="line2d_17">
      <path clip-path="url(#p947289de0e)" d="M 175.588708 133.396364 
L 175.588708 34.56 
" style="fill:none;stroke:#b0b0b0;stroke-linecap:square;stroke-width:0.8;"/>
     </g>
     <g id="line2d_18">
      <g>
       <use style="stroke:#000000;stroke-width:0.6;" x="175.588708" xlink:href="#m7913873fac" y="133.396364"/>
      </g>
     </g>
    </g>
    <g id="xtick_10">
     <g id="line2d_19">
      <path clip-path="url(#p947289de0e)" d="M 187.638654 133.396364 
L 187.638654 34.56 
" style="fill:none;stroke:#b0b0b0;stroke-linecap:square;stroke-width:0.8;"/>
     </g>
     <g id="line2d_20">
      <g>
       <use style="stroke:#000000;stroke-width:0.6;" x="187.638654" xlink:href="#m7913873fac" y="133.396364"/>
      </g>
     </g>
    </g>
    <g id="xtick_11">
     <g id="line2d_21">
      <path clip-path="url(#p947289de0e)" d="M 197.826738 133.396364 
L 197.826738 34.56 
" style="fill:none;stroke:#b0b0b0;stroke-linecap:square;stroke-width:0.8;"/>
     </g>
     <g id="line2d_22">
      <g>
       <use style="stroke:#000000;stroke-width:0.6;" x="197.826738" xlink:href="#m7913873fac" y="133.396364"/>
      </g>
     </g>
    </g>
    <g id="xtick_12">
     <g id="line2d_23">
      <path clip-path="url(#p947289de0e)" d="M 206.652058 133.396364 
L 206.652058 34.56 
" style="fill:none;stroke:#b0b0b0;stroke-linecap:square;stroke-width:0.8;"/>
     </g>
     <g id="line2d_24">
      <g>
       <use style="stroke:#000000;stroke-width:0.6;" x="206.652058" xlink:href="#m7913873fac" y="133.396364"/>
      </g>
     </g>
    </g>
    <g id="xtick_13">
     <g id="line2d_25">
      <path clip-path="url(#p947289de0e)" d="M 214.436542 133.396364 
L 214.436542 34.56 
" style="fill:none;stroke:#b0b0b0;stroke-linecap:square;stroke-width:0.8;"/>
     </g>
     <g id="line2d_26">
      <g>
       <use style="stroke:#000000;stroke-width:0.6;" x="214.436542" xlink:href="#m7913873fac" y="133.396364"/>
      </g>
     </g>
    </g>
    <g id="xtick_14">
     <g id="line2d_27">
      <path clip-path="url(#p947289de0e)" d="M 267.211292 133.396364 
L 267.211292 34.56 
" style="fill:none;stroke:#b0b0b0;stroke-linecap:square;stroke-width:0.8;"/>
     </g>
     <g id="line2d_28">
      <g>
       <use style="stroke:#000000;stroke-width:0.6;" x="267.211292" xlink:href="#m7913873fac" y="133.396364"/>
      </g>
     </g>
    </g>
    <g id="xtick_15">
     <g id="line2d_29">
      <path clip-path="url(#p947289de0e)" d="M 294.00918 133.396364 
L 294.00918 34.56 
" style="fill:none;stroke:#b0b0b0;stroke-linecap:square;stroke-width:0.8;"/>
     </g>
     <g id="line2d_30">
      <g>
       <use style="stroke:#000000;stroke-width:0.6;" x="294.00918" xlink:href="#m7913873fac" y="133.396364"/>
      </g>
     </g>
    </g>
    <g id="xtick_16">
     <g id="line2d_31">
      <path clip-path="url(#p947289de0e)" d="M 313.022584 133.396364 
L 313.022584 34.56 
" style="fill:none;stroke:#b0b0b0;stroke-linecap:square;stroke-width:0.8;"/>
     </g>
     <g id="line2d_32">
      <g>
       <use style="stroke:#000000;stroke-width:0.6;" x="313.022584" xlink:href="#m7913873fac" y="133.396364"/>
      </g>
     </g>
    </g>
    <g id="xtick_17">
     <g id="line2d_33">
      <path clip-path="url(#p947289de0e)" d="M 327.770526 133.396364 
L 327.770526 34.56 
" style="fill:none;stroke:#b0b0b0;stroke-linecap:square;stroke-width:0.8;"/>
     </g>
     <g id="line2d_34">
      <g>
       <use style="stroke:#000000;stroke-width:0.6;" x="327.770526" xlink:href="#m7913873fac" y="133.396364"/>
      </g>
     </g>
    </g>
    <g id="xtick_18">
     <g id="line2d_35">
      <path clip-path="url(#p947289de0e)" d="M 339.820472 133.396364 
L 339.820472 34.56 
" style="fill:none;stroke:#b0b0b0;stroke-linecap:square;stroke-width:0.8;"/>
     </g>
     <g id="line2d_36">
      <g>
       <use style="stroke:#000000;stroke-width:0.6;" x="339.820472" xlink:href="#m7913873fac" y="133.396364"/>
      </g>
     </g>
    </g>
    <g id="xtick_19">
     <g id="line2d_37">
      <path clip-path="url(#p947289de0e)" d="M 350.008556 133.396364 
L 350.008556 34.56 
" style="fill:none;stroke:#b0b0b0;stroke-linecap:square;stroke-width:0.8;"/>
     </g>
     <g id="line2d_38">
      <g>
       <use style="stroke:#000000;stroke-width:0.6;" x="350.008556" xlink:href="#m7913873fac" y="133.396364"/>
      </g>
     </g>
    </g>
    <g id="xtick_20">
     <g id="line2d_39">
      <path clip-path="url(#p947289de0e)" d="M 358.833876 133.396364 
L 358.833876 34.56 
" style="fill:none;stroke:#b0b0b0;stroke-linecap:square;stroke-width:0.8;"/>
     </g>
     <g id="line2d_40">
      <g>
       <use style="stroke:#000000;stroke-width:0.6;" x="358.833876" xlink:href="#m7913873fac" y="133.396364"/>
      </g>
     </g>
    </g>
    <g id="xtick_21">
     <g id="line2d_41">
      <path clip-path="url(#p947289de0e)" d="M 366.61836 133.396364 
L 366.61836 34.56 
" style="fill:none;stroke:#b0b0b0;stroke-linecap:square;stroke-width:0.8;"/>
     </g>
     <g id="line2d_42">
      <g>
       <use style="stroke:#000000;stroke-width:0.6;" x="366.61836" xlink:href="#m7913873fac" y="133.396364"/>
      </g>
     </g>
    </g>
   </g>
   <g id="matplotlib.axis_2">
    <g id="ytick_1">
     <g id="line2d_43">
      <path clip-path="url(#p947289de0e)" d="M 54 101.71877 
L 388.8 101.71877 
" style="fill:none;stroke:#b0b0b0;stroke-linecap:square;stroke-width:0.8;"/>
     </g>
     <g id="line2d_44">
      <defs>
       <path d="M 0 0 
L -3.5 0 
" id="mf3cfd7afce" style="stroke:#000000;stroke-width:0.8;"/>
      </defs>
      <g>
       <use style="stroke:#000000;stroke-width:0.8;" x="54" xlink:href="#mf3cfd7afce" y="101.71877"/>
      </g>
     </g>
     <g id="text_4">
      <!-- $\mathdefault{10^{-1}}$ -->
      <g transform="translate(23.5 105.517989)scale(0.1 -0.1)">
       <use transform="translate(0 0.684375)" xlink:href="#DejaVuSans-49"/>
       <use transform="translate(63.623047 0.684375)" xlink:href="#DejaVuSans-48"/>
       <use transform="translate(128.203125 38.965625)scale(0.7)" xlink:href="#DejaVuSans-8722"/>
       <use transform="translate(186.855469 38.965625)scale(0.7)" xlink:href="#DejaVuSans-49"/>
      </g>
     </g>
    </g>
    <g id="ytick_2">
     <g id="line2d_45">
      <path clip-path="url(#p947289de0e)" d="M 54 47.230988 
L 388.8 47.230988 
" style="fill:none;stroke:#b0b0b0;stroke-linecap:square;stroke-width:0.8;"/>
     </g>
     <g id="line2d_46">
      <g>
       <use style="stroke:#000000;stroke-width:0.8;" x="54" xlink:href="#mf3cfd7afce" y="47.230988"/>
      </g>
     </g>
     <g id="text_5">
      <!-- $\mathdefault{10^{1}}$ -->
      <g transform="translate(29.4 51.030207)scale(0.1 -0.1)">
       <use transform="translate(0 0.684375)" xlink:href="#DejaVuSans-49"/>
       <use transform="translate(63.623047 0.684375)" xlink:href="#DejaVuSans-48"/>
       <use transform="translate(128.203125 38.965625)scale(0.7)" xlink:href="#DejaVuSans-49"/>
      </g>
     </g>
    </g>
    <g id="text_6">
     <!-- Magnitude -->
     <g transform="translate(17.420312 110.468026)rotate(-90)scale(0.1 -0.1)">
      <defs>
       <path d="M 9.8125 72.90625 
L 24.515625 72.90625 
L 43.109375 23.296875 
L 61.8125 72.90625 
L 76.515625 72.90625 
L 76.515625 0 
L 66.890625 0 
L 66.890625 64.015625 
L 48.09375 14.015625 
L 38.1875 14.015625 
L 19.390625 64.015625 
L 19.390625 0 
L 9.8125 0 
z
" id="DejaVuSans-77"/>
       <path d="M 34.28125 27.484375 
Q 23.390625 27.484375 19.1875 25 
Q 14.984375 22.515625 14.984375 16.5 
Q 14.984375 11.71875 18.140625 8.90625 
Q 21.296875 6.109375 26.703125 6.109375 
Q 34.1875 6.109375 38.703125 11.40625 
Q 43.21875 16.703125 43.21875 25.484375 
L 43.21875 27.484375 
z
M 52.203125 31.203125 
L 52.203125 0 
L 43.21875 0 
L 43.21875 8.296875 
Q 40.140625 3.328125 35.546875 0.953125 
Q 30.953125 -1.421875 24.3125 -1.421875 
Q 15.921875 -1.421875 10.953125 3.296875 
Q 6 8.015625 6 15.921875 
Q 6 25.140625 12.171875 29.828125 
Q 18.359375 34.515625 30.609375 34.515625 
L 43.21875 34.515625 
L 43.21875 35.40625 
Q 43.21875 41.609375 39.140625 45 
Q 35.0625 48.390625 27.6875 48.390625 
Q 23 48.390625 18.546875 47.265625 
Q 14.109375 46.140625 10.015625 43.890625 
L 10.015625 52.203125 
Q 14.9375 54.109375 19.578125 55.046875 
Q 24.21875 56 28.609375 56 
Q 40.484375 56 46.34375 49.84375 
Q 52.203125 43.703125 52.203125 31.203125 
z
" id="DejaVuSans-97"/>
       <path d="M 45.40625 27.984375 
Q 45.40625 37.75 41.375 43.109375 
Q 37.359375 48.484375 30.078125 48.484375 
Q 22.859375 48.484375 18.828125 43.109375 
Q 14.796875 37.75 14.796875 27.984375 
Q 14.796875 18.265625 18.828125 12.890625 
Q 22.859375 7.515625 30.078125 7.515625 
Q 37.359375 7.515625 41.375 12.890625 
Q 45.40625 18.265625 45.40625 27.984375 
z
M 54.390625 6.78125 
Q 54.390625 -7.171875 48.1875 -13.984375 
Q 42 -20.796875 29.203125 -20.796875 
Q 24.46875 -20.796875 20.265625 -20.09375 
Q 16.0625 -19.390625 12.109375 -17.921875 
L 12.109375 -9.1875 
Q 16.0625 -11.328125 19.921875 -12.34375 
Q 23.78125 -13.375 27.78125 -13.375 
Q 36.625 -13.375 41.015625 -8.765625 
Q 45.40625 -4.15625 45.40625 5.171875 
L 45.40625 9.625 
Q 42.625 4.78125 38.28125 2.390625 
Q 33.9375 0 27.875 0 
Q 17.828125 0 11.671875 7.65625 
Q 5.515625 15.328125 5.515625 27.984375 
Q 5.515625 40.671875 11.671875 48.328125 
Q 17.828125 56 27.875 56 
Q 33.9375 56 38.28125 53.609375 
Q 42.625 51.21875 45.40625 46.390625 
L 45.40625 54.6875 
L 54.390625 54.6875 
z
" id="DejaVuSans-103"/>
       <path d="M 54.890625 33.015625 
L 54.890625 0 
L 45.90625 0 
L 45.90625 32.71875 
Q 45.90625 40.484375 42.875 44.328125 
Q 39.84375 48.1875 33.796875 48.1875 
Q 26.515625 48.1875 22.3125 43.546875 
Q 18.109375 38.921875 18.109375 30.90625 
L 18.109375 0 
L 9.078125 0 
L 9.078125 54.6875 
L 18.109375 54.6875 
L 18.109375 46.1875 
Q 21.34375 51.125 25.703125 53.5625 
Q 30.078125 56 35.796875 56 
Q 45.21875 56 50.046875 50.171875 
Q 54.890625 44.34375 54.890625 33.015625 
z
" id="DejaVuSans-110"/>
       <path d="M 9.421875 54.6875 
L 18.40625 54.6875 
L 18.40625 0 
L 9.421875 0 
z
M 9.421875 75.984375 
L 18.40625 75.984375 
L 18.40625 64.59375 
L 9.421875 64.59375 
z
" id="DejaVuSans-105"/>
       <path d="M 18.3125 70.21875 
L 18.3125 54.6875 
L 36.8125 54.6875 
L 36.8125 47.703125 
L 18.3125 47.703125 
L 18.3125 18.015625 
Q 18.3125 11.328125 20.140625 9.421875 
Q 21.96875 7.515625 27.59375 7.515625 
L 36.8125 7.515625 
L 36.8125 0 
L 27.59375 0 
Q 17.1875 0 13.234375 3.875 
Q 9.28125 7.765625 9.28125 18.015625 
L 9.28125 47.703125 
L 2.6875 47.703125 
L 2.6875 54.6875 
L 9.28125 54.6875 
L 9.28125 70.21875 
z
" id="DejaVuSans-116"/>
       <path d="M 8.5 21.578125 
L 8.5 54.6875 
L 17.484375 54.6875 
L 17.484375 21.921875 
Q 17.484375 14.15625 20.5 10.265625 
Q 23.53125 6.390625 29.59375 6.390625 
Q 36.859375 6.390625 41.078125 11.03125 
Q 45.3125 15.671875 45.3125 23.6875 
L 45.3125 54.6875 
L 54.296875 54.6875 
L 54.296875 0 
L 45.3125 0 
L 45.3125 8.40625 
Q 42.046875 3.421875 37.71875 1 
Q 33.40625 -1.421875 27.6875 -1.421875 
Q 18.265625 -1.421875 13.375 4.4375 
Q 8.5 10.296875 8.5 21.578125 
z
M 31.109375 56 
z
" id="DejaVuSans-117"/>
       <path d="M 45.40625 46.390625 
L 45.40625 75.984375 
L 54.390625 75.984375 
L 54.390625 0 
L 45.40625 0 
L 45.40625 8.203125 
Q 42.578125 3.328125 38.25 0.953125 
Q 33.9375 -1.421875 27.875 -1.421875 
Q 17.96875 -1.421875 11.734375 6.484375 
Q 5.515625 14.40625 5.515625 27.296875 
Q 5.515625 40.1875 11.734375 48.09375 
Q 17.96875 56 27.875 56 
Q 33.9375 56 38.25 53.625 
Q 42.578125 51.265625 45.40625 46.390625 
z
M 14.796875 27.296875 
Q 14.796875 17.390625 18.875 11.75 
Q 22.953125 6.109375 30.078125 6.109375 
Q 37.203125 6.109375 41.296875 11.75 
Q 45.40625 17.390625 45.40625 27.296875 
Q 45.40625 37.203125 41.296875 42.84375 
Q 37.203125 48.484375 30.078125 48.484375 
Q 22.953125 48.484375 18.875 42.84375 
Q 14.796875 37.203125 14.796875 27.296875 
z
" id="DejaVuSans-100"/>
       <path d="M 56.203125 29.59375 
L 56.203125 25.203125 
L 14.890625 25.203125 
Q 15.484375 15.921875 20.484375 11.0625 
Q 25.484375 6.203125 34.421875 6.203125 
Q 39.59375 6.203125 44.453125 7.46875 
Q 49.3125 8.734375 54.109375 11.28125 
L 54.109375 2.78125 
Q 49.265625 0.734375 44.1875 -0.34375 
Q 39.109375 -1.421875 33.890625 -1.421875 
Q 20.796875 -1.421875 13.15625 6.1875 
Q 5.515625 13.8125 5.515625 26.8125 
Q 5.515625 40.234375 12.765625 48.109375 
Q 20.015625 56 32.328125 56 
Q 43.359375 56 49.78125 48.890625 
Q 56.203125 41.796875 56.203125 29.59375 
z
M 47.21875 32.234375 
Q 47.125 39.59375 43.09375 43.984375 
Q 39.0625 48.390625 32.421875 48.390625 
Q 24.90625 48.390625 20.390625 44.140625 
Q 15.875 39.890625 15.1875 32.171875 
z
" id="DejaVuSans-101"/>
      </defs>
      <use xlink:href="#DejaVuSans-77"/>
      <use x="86.279297" xlink:href="#DejaVuSans-97"/>
      <use x="147.558594" xlink:href="#DejaVuSans-103"/>
      <use x="211.035156" xlink:href="#DejaVuSans-110"/>
      <use x="274.414062" xlink:href="#DejaVuSans-105"/>
      <use x="302.197266" xlink:href="#DejaVuSans-116"/>
      <use x="341.40625" xlink:href="#DejaVuSans-117"/>
      <use x="404.785156" xlink:href="#DejaVuSans-100"/>
      <use x="468.261719" xlink:href="#DejaVuSans-101"/>
     </g>
    </g>
   </g>
   <g id="line2d_47">
    <path clip-path="url(#p947289de0e)" d="M 69.218182 74.356116 
L 105.47371 74.115504 
L 127.714496 73.759887 
L 143.557248 73.297663 
L 155.74398 72.732485 
L 165.493366 72.070317 
L 173.71941 71.291989 
L 180.422113 70.441453 
L 186.210811 69.484481 
L 191.085504 68.455544 
L 195.35086 67.323898 
L 199.00688 66.118176 
L 202.053563 64.887081 
L 204.795577 63.540599 
L 207.232924 62.086547 
L 209.365602 60.54335 
L 211.193612 58.945494 
L 212.716953 57.350106 
L 214.240295 55.426076 
L 215.458968 53.563193 
L 216.677641 51.301715 
L 217.896314 48.488487 
L 219.114988 44.946459 
L 220.638329 40.033362 
L 220.942998 39.384048 
L 221.247666 39.052562 
L 221.552334 39.107104 
L 221.857002 39.547675 
L 222.466339 41.280679 
L 224.903686 49.742961 
L 226.122359 52.992527 
L 227.341032 55.690344 
L 228.864373 58.51521 
L 230.387715 60.910227 
L 232.215725 63.384215 
L 234.348403 65.87731 
L 236.785749 68.357644 
L 239.527764 70.811405 
L 242.574447 73.235625 
L 246.230467 75.840223 
L 250.191155 78.388513 
L 254.761179 81.071199 
L 260.245209 84.025183 
L 266.643243 87.208314 
L 274.259951 90.73625 
L 283.4 94.709595 
L 294.368059 99.225074 
L 308.078133 104.6191 
L 326.053563 111.436814 
L 351.036364 120.654283 
L 373.581818 128.843898 
L 373.581818 128.843898 
" style="fill:none;stroke:#548ea9;stroke-linecap:square;stroke-width:0.9;"/>
   </g>
   <g id="line2d_48">
    <path clip-path="url(#p947289de0e)" d="M 69.218182 74.356569 
L 105.778378 74.11355 
L 128.019165 73.756029 
L 143.861916 73.291384 
L 156.048649 72.723352 
L 165.798034 72.058027 
L 174.024079 71.276326 
L 180.726781 70.422647 
L 186.515479 69.463033 
L 191.390172 68.432643 
L 195.655528 67.301596 
L 199.311548 66.099874 
L 202.358231 64.877603 
L 205.100246 63.54805 
L 207.537592 62.123653 
L 209.67027 60.629259 
L 211.49828 59.107182 
L 213.32629 57.296563 
L 214.849631 55.510658 
L 216.372973 53.427457 
L 218.505651 50.082748 
L 219.724324 48.284997 
L 220.333661 47.626133 
L 220.942998 47.261251 
L 221.552334 47.270818 
L 222.161671 47.673579 
L 222.771007 48.416115 
L 223.685012 49.952621 
L 227.950369 57.855978 
L 229.778378 60.621408 
L 231.911057 63.406539 
L 234.043735 65.82951 
L 236.481081 68.268432 
L 239.223096 70.698911 
L 242.269779 73.110928 
L 245.925799 75.70966 
L 250.191155 78.442983 
L 255.065848 81.281131 
L 260.549877 84.210533 
L 266.947912 87.374201 
L 274.564619 90.886572 
L 283.704668 94.847612 
L 294.977396 99.475871 
L 308.992138 104.975175 
L 327.272236 111.893911 
L 352.864373 121.32248 
L 373.581818 128.844351 
L 373.581818 128.844351 
" style="fill:none;stroke:#94b3a2;stroke-linecap:square;stroke-width:0.9;"/>
   </g>
   <g id="line2d_49">
    <path clip-path="url(#p947289de0e)" d="M 69.218182 74.358379 
L 105.778378 74.11925 
L 128.323833 73.761153 
L 144.471253 73.289392 
L 156.657985 72.721946 
L 166.407371 72.058867 
L 174.633415 71.282333 
L 181.336118 70.438036 
L 187.124816 69.494628 
L 191.999509 68.489832 
L 196.264865 67.398997 
L 200.225553 66.15188 
L 203.576904 64.867301 
L 206.623587 63.467531 
L 209.365602 61.978452 
L 212.107617 60.247942 
L 218.810319 55.813973 
L 220.028993 55.436057 
L 220.942998 55.378622 
L 221.857002 55.542249 
L 222.771007 55.926938 
L 223.989681 56.741193 
L 225.513022 58.107234 
L 228.255037 60.991059 
L 232.215725 65.11173 
L 235.262408 67.960427 
L 238.613759 70.769925 
L 242.269779 73.516959 
L 246.230467 76.202292 
L 250.800491 79.0165 
L 255.979853 81.931488 
L 262.073219 85.087387 
L 269.08059 88.452823 
L 277.306634 92.148388 
L 287.05602 96.280928 
L 299.242752 101.194407 
L 314.476167 107.086514 
L 334.888943 114.729206 
L 364.441769 125.53627 
L 373.581818 128.846161 
L 373.581818 128.846161 
" style="fill:none;stroke:#d3c348;stroke-linecap:square;stroke-width:0.9;"/>
   </g>
   <g id="line2d_50">
    <path clip-path="url(#p947289de0e)" d="M 69.218182 74.386059 
L 110.653071 74.163111 
L 135.026536 73.821698 
L 152.392629 73.36882 
L 166.407371 72.787104 
L 178.289435 72.075782 
L 189.86683 71.155499 
L 207.537592 69.697857 
L 212.107617 69.583083 
L 215.763636 69.698897 
L 219.114988 70.019753 
L 222.466339 70.575688 
L 225.81769 71.371468 
L 229.47371 72.48837 
L 233.739066 74.051934 
L 239.223096 76.329667 
L 249.27715 80.807853 
L 263.59656 87.119515 
L 275.478624 92.102804 
L 288.884029 97.478873 
L 305.336118 103.824366 
L 326.662899 111.795431 
L 357.12973 122.925892 
L 373.581818 128.873841 
L 373.581818 128.873841 
" style="fill:none;stroke:#d37d1a;stroke-linecap:square;stroke-width:0.9;"/>
   </g>
   <g id="line2d_51">
    <path clip-path="url(#p947289de0e)" d="M 69.218182 74.41602 
L 118.574447 74.217664 
L 146.9086 73.891255 
L 169.454054 73.411444 
L 198.092875 72.773258 
L 205.100246 72.86875 
L 210.888943 73.167912 
L 215.763636 73.635899 
L 220.333661 74.290138 
L 224.903686 75.168309 
L 229.778378 76.345273 
L 234.95774 77.834356 
L 241.051106 79.830017 
L 248.972482 82.679239 
L 262.073219 87.667382 
L 293.758722 99.762974 
L 319.35086 109.248717 
L 355.30172 122.315633 
L 373.581818 128.903802 
L 373.581818 128.903802 
" style="fill:none;stroke:#d44310;stroke-linecap:square;stroke-width:1.2;"/>
   </g>
   <g id="patch_3">
    <path d="M 54 133.396364 
L 54 34.56 
" style="fill:none;stroke:#000000;stroke-linecap:square;stroke-linejoin:miter;stroke-width:0.8;"/>
   </g>
   <g id="patch_4">
    <path d="M 388.8 133.396364 
L 388.8 34.56 
" style="fill:none;stroke:#000000;stroke-linecap:square;stroke-linejoin:miter;stroke-width:0.8;"/>
   </g>
   <g id="patch_5">
    <path d="M 54 133.396364 
L 388.8 133.396364 
" style="fill:none;stroke:#000000;stroke-linecap:square;stroke-linejoin:miter;stroke-width:0.8;"/>
   </g>
   <g id="patch_6">
    <path d="M 54 34.56 
L 388.8 34.56 
" style="fill:none;stroke:#000000;stroke-linecap:square;stroke-linejoin:miter;stroke-width:0.8;"/>
   </g>
   <g id="legend_1">
    <g id="patch_7">
     <path d="M 304.2 116.06 
L 381.8 116.06 
Q 383.8 116.06 383.8 114.06 
L 383.8 41.56 
Q 383.8 39.56 381.8 39.56 
L 304.2 39.56 
Q 302.2 39.56 302.2 41.56 
L 302.2 114.06 
Q 302.2 116.06 304.2 116.06 
z
" style="fill:#ffffff;opacity:0.8;stroke:#cccccc;stroke-linejoin:miter;"/>
    </g>
    <g id="line2d_52">
     <path d="M 306.2 47.66 
L 326.2 47.66 
" style="fill:none;stroke:#548ea9;stroke-linecap:square;stroke-width:0.9;"/>
    </g>
    <g id="line2d_53"/>
    <g id="text_7">
     <!-- $\zeta = 0.05$ -->
     <g transform="translate(334.2 51.16)scale(0.1 -0.1)">
      <defs>
       <path d="M 30.71875 6.203125 
Q 37.15625 6.15625 40.28125 2.484375 
Q 43.65625 -1.375 42.53125 -7.234375 
Q 41.40625 -12.84375 37.0625 -16.75 
Q 32.328125 -21 24.359375 -21 
Q 25.09375 -17.328125 25.78125 -13.625 
Q 29.109375 -13.875 31.59375 -11.71875 
Q 33.5 -10.015625 33.84375 -8.203125 
Q 34.328125 -5.609375 33.203125 -3.46875 
Q 32.03125 -1.421875 29.25 -1.421875 
Q -0.34375 -1.421875 4.9375 26.078125 
Q 9.625 50.09375 40.765625 66.9375 
L 14.796875 66.9375 
L 16.546875 75.984375 
L 59.03125 75.984375 
L 57.28125 66.9375 
Q 18.453125 49.171875 13.96875 26.078125 
Q 10.109375 6.203125 30.71875 6.203125 
z
" id="DejaVuSans-Oblique-950"/>
       <path d="M 10.59375 45.40625 
L 73.1875 45.40625 
L 73.1875 37.203125 
L 10.59375 37.203125 
z
M 10.59375 25.484375 
L 73.1875 25.484375 
L 73.1875 17.1875 
L 10.59375 17.1875 
z
" id="DejaVuSans-61"/>
       <path d="M 10.6875 12.40625 
L 21 12.40625 
L 21 0 
L 10.6875 0 
z
" id="DejaVuSans-46"/>
       <path d="M 10.796875 72.90625 
L 49.515625 72.90625 
L 49.515625 64.59375 
L 19.828125 64.59375 
L 19.828125 46.734375 
Q 21.96875 47.46875 24.109375 47.828125 
Q 26.265625 48.1875 28.421875 48.1875 
Q 40.625 48.1875 47.75 41.5 
Q 54.890625 34.8125 54.890625 23.390625 
Q 54.890625 11.625 47.5625 5.09375 
Q 40.234375 -1.421875 26.90625 -1.421875 
Q 22.3125 -1.421875 17.546875 -0.640625 
Q 12.796875 0.140625 7.71875 1.703125 
L 7.71875 11.625 
Q 12.109375 9.234375 16.796875 8.0625 
Q 21.484375 6.890625 26.703125 6.890625 
Q 35.15625 6.890625 40.078125 11.328125 
Q 45.015625 15.765625 45.015625 23.390625 
Q 45.015625 31 40.078125 35.4375 
Q 35.15625 39.890625 26.703125 39.890625 
Q 22.75 39.890625 18.8125 39.015625 
Q 14.890625 38.140625 10.796875 36.28125 
z
" id="DejaVuSans-53"/>
      </defs>
      <use transform="translate(0 0.015625)" xlink:href="#DejaVuSans-Oblique-950"/>
      <use transform="translate(73.876953 0.015625)" xlink:href="#DejaVuSans-61"/>
      <use transform="translate(177.148438 0.015625)" xlink:href="#DejaVuSans-48"/>
      <use transform="translate(240.771484 0.015625)" xlink:href="#DejaVuSans-46"/>
      <use transform="translate(272.558594 0.015625)" xlink:href="#DejaVuSans-48"/>
      <use transform="translate(336.181641 0.015625)" xlink:href="#DejaVuSans-53"/>
     </g>
    </g>
    <g id="line2d_54">
     <path d="M 306.2 62.36 
L 326.2 62.36 
" style="fill:none;stroke:#94b3a2;stroke-linecap:square;stroke-width:0.9;"/>
    </g>
    <g id="line2d_55"/>
    <g id="text_8">
     <!-- $\zeta = 0.1$ -->
     <g transform="translate(334.2 65.86)scale(0.1 -0.1)">
      <use transform="translate(0 0.015625)" xlink:href="#DejaVuSans-Oblique-950"/>
      <use transform="translate(73.876953 0.015625)" xlink:href="#DejaVuSans-61"/>
      <use transform="translate(177.148438 0.015625)" xlink:href="#DejaVuSans-48"/>
      <use transform="translate(240.771484 0.015625)" xlink:href="#DejaVuSans-46"/>
      <use transform="translate(272.558594 0.015625)" xlink:href="#DejaVuSans-49"/>
     </g>
    </g>
    <g id="line2d_56">
     <path d="M 306.2 77.06 
L 326.2 77.06 
" style="fill:none;stroke:#d3c348;stroke-linecap:square;stroke-width:0.9;"/>
    </g>
    <g id="line2d_57"/>
    <g id="text_9">
     <!-- $\zeta = 0.2$ -->
     <g transform="translate(334.2 80.56)scale(0.1 -0.1)">
      <defs>
       <path d="M 19.1875 8.296875 
L 53.609375 8.296875 
L 53.609375 0 
L 7.328125 0 
L 7.328125 8.296875 
Q 12.9375 14.109375 22.625 23.890625 
Q 32.328125 33.6875 34.8125 36.53125 
Q 39.546875 41.84375 41.421875 45.53125 
Q 43.3125 49.21875 43.3125 52.78125 
Q 43.3125 58.59375 39.234375 62.25 
Q 35.15625 65.921875 28.609375 65.921875 
Q 23.96875 65.921875 18.8125 64.3125 
Q 13.671875 62.703125 7.8125 59.421875 
L 7.8125 69.390625 
Q 13.765625 71.78125 18.9375 73 
Q 24.125 74.21875 28.421875 74.21875 
Q 39.75 74.21875 46.484375 68.546875 
Q 53.21875 62.890625 53.21875 53.421875 
Q 53.21875 48.921875 51.53125 44.890625 
Q 49.859375 40.875 45.40625 35.40625 
Q 44.1875 33.984375 37.640625 27.21875 
Q 31.109375 20.453125 19.1875 8.296875 
z
" id="DejaVuSans-50"/>
      </defs>
      <use transform="translate(0 0.015625)" xlink:href="#DejaVuSans-Oblique-950"/>
      <use transform="translate(73.876953 0.015625)" xlink:href="#DejaVuSans-61"/>
      <use transform="translate(177.148438 0.015625)" xlink:href="#DejaVuSans-48"/>
      <use transform="translate(240.771484 0.015625)" xlink:href="#DejaVuSans-46"/>
      <use transform="translate(267.058594 0.015625)" xlink:href="#DejaVuSans-50"/>
     </g>
    </g>
    <g id="line2d_58">
     <path d="M 306.2 91.76 
L 326.2 91.76 
" style="fill:none;stroke:#d37d1a;stroke-linecap:square;stroke-width:0.9;"/>
    </g>
    <g id="line2d_59"/>
    <g id="text_10">
     <!-- $\zeta = 0.707$ -->
     <g transform="translate(334.2 95.26)scale(0.1 -0.1)">
      <defs>
       <path d="M 8.203125 72.90625 
L 55.078125 72.90625 
L 55.078125 68.703125 
L 28.609375 0 
L 18.3125 0 
L 43.21875 64.59375 
L 8.203125 64.59375 
z
" id="DejaVuSans-55"/>
      </defs>
      <use transform="translate(0 0.015625)" xlink:href="#DejaVuSans-Oblique-950"/>
      <use transform="translate(73.876953 0.015625)" xlink:href="#DejaVuSans-61"/>
      <use transform="translate(177.148438 0.015625)" xlink:href="#DejaVuSans-48"/>
      <use transform="translate(240.771484 0.015625)" xlink:href="#DejaVuSans-46"/>
      <use transform="translate(264.808594 0.015625)" xlink:href="#DejaVuSans-55"/>
      <use transform="translate(328.431641 0.015625)" xlink:href="#DejaVuSans-48"/>
      <use transform="translate(392.054688 0.015625)" xlink:href="#DejaVuSans-55"/>
     </g>
    </g>
    <g id="line2d_60">
     <path d="M 306.2 106.46 
L 326.2 106.46 
" style="fill:none;stroke:#d44310;stroke-linecap:square;stroke-width:1.2;"/>
    </g>
    <g id="line2d_61"/>
    <g id="text_11">
     <!-- $\zeta = 1$ -->
     <g transform="translate(334.2 109.96)scale(0.1 -0.1)">
      <use transform="translate(0 0.015625)" xlink:href="#DejaVuSans-Oblique-950"/>
      <use transform="translate(73.876953 0.015625)" xlink:href="#DejaVuSans-61"/>
      <use transform="translate(177.148438 0.015625)" xlink:href="#DejaVuSans-49"/>
     </g>
    </g>
   </g>
  </g>
  <g id="axes_2">
   <g id="patch_8">
    <path d="M 54 252 
L 388.8 252 
L 388.8 153.163636 
L 54 153.163636 
z
" style="fill:#ffffff;"/>
   </g>
   <g id="matplotlib.axis_3">
    <g id="xtick_22">
     <g id="line2d_62">
      <path clip-path="url(#p4fd53f266e)" d="M 69.218182 252 
L 69.218182 153.163636 
" style="fill:none;stroke:#b0b0b0;stroke-linecap:square;stroke-width:0.8;"/>
     </g>
     <g id="line2d_63">
      <g>
       <use style="stroke:#000000;stroke-width:0.8;" x="69.218182" xlink:href="#mb11962a055" y="252"/>
      </g>
     </g>
     <g id="text_12">
      <!-- $\mathdefault{10^{-1}}$ -->
      <g transform="translate(57.468182 266.598437)scale(0.1 -0.1)">
       <use transform="translate(0 0.684375)" xlink:href="#DejaVuSans-49"/>
       <use transform="translate(63.623047 0.684375)" xlink:href="#DejaVuSans-48"/>
       <use transform="translate(128.203125 38.965625)scale(0.7)" xlink:href="#DejaVuSans-8722"/>
       <use transform="translate(186.855469 38.965625)scale(0.7)" xlink:href="#DejaVuSans-49"/>
      </g>
     </g>
    </g>
    <g id="xtick_23">
     <g id="line2d_64">
      <path clip-path="url(#p4fd53f266e)" d="M 221.4 252 
L 221.4 153.163636 
" style="fill:none;stroke:#b0b0b0;stroke-linecap:square;stroke-width:0.8;"/>
     </g>
     <g id="line2d_65">
      <g>
       <use style="stroke:#000000;stroke-width:0.8;" x="221.4" xlink:href="#mb11962a055" y="252"/>
      </g>
     </g>
     <g id="text_13">
      <!-- $\mathdefault{10^{0}}$ -->
      <g transform="translate(212.6 266.598437)scale(0.1 -0.1)">
       <use transform="translate(0 0.765625)" xlink:href="#DejaVuSans-49"/>
       <use transform="translate(63.623047 0.765625)" xlink:href="#DejaVuSans-48"/>
       <use transform="translate(128.203125 39.046875)scale(0.7)" xlink:href="#DejaVuSans-48"/>
      </g>
     </g>
    </g>
    <g id="xtick_24">
     <g id="line2d_66">
      <path clip-path="url(#p4fd53f266e)" d="M 373.581818 252 
L 373.581818 153.163636 
" style="fill:none;stroke:#b0b0b0;stroke-linecap:square;stroke-width:0.8;"/>
     </g>
     <g id="line2d_67">
      <g>
       <use style="stroke:#000000;stroke-width:0.8;" x="373.581818" xlink:href="#mb11962a055" y="252"/>
      </g>
     </g>
     <g id="text_14">
      <!-- $\mathdefault{10^{1}}$ -->
      <g transform="translate(364.781818 266.598437)scale(0.1 -0.1)">
       <use transform="translate(0 0.684375)" xlink:href="#DejaVuSans-49"/>
       <use transform="translate(63.623047 0.684375)" xlink:href="#DejaVuSans-48"/>
       <use transform="translate(128.203125 38.965625)scale(0.7)" xlink:href="#DejaVuSans-49"/>
      </g>
     </g>
    </g>
    <g id="xtick_25">
     <g id="line2d_68">
      <path clip-path="url(#p4fd53f266e)" d="M 54.47024 252 
L 54.47024 153.163636 
" style="fill:none;stroke:#b0b0b0;stroke-linecap:square;stroke-width:0.8;"/>
     </g>
     <g id="line2d_69">
      <g>
       <use style="stroke:#000000;stroke-width:0.6;" x="54.47024" xlink:href="#m7913873fac" y="252"/>
      </g>
     </g>
    </g>
    <g id="xtick_26">
     <g id="line2d_70">
      <path clip-path="url(#p4fd53f266e)" d="M 62.254724 252 
L 62.254724 153.163636 
" style="fill:none;stroke:#b0b0b0;stroke-linecap:square;stroke-width:0.8;"/>
     </g>
     <g id="line2d_71">
      <g>
       <use style="stroke:#000000;stroke-width:0.6;" x="62.254724" xlink:href="#m7913873fac" y="252"/>
      </g>
     </g>
    </g>
    <g id="xtick_27">
     <g id="line2d_72">
      <path clip-path="url(#p4fd53f266e)" d="M 115.029474 252 
L 115.029474 153.163636 
" style="fill:none;stroke:#b0b0b0;stroke-linecap:square;stroke-width:0.8;"/>
     </g>
     <g id="line2d_73">
      <g>
       <use style="stroke:#000000;stroke-width:0.6;" x="115.029474" xlink:href="#m7913873fac" y="252"/>
      </g>
     </g>
    </g>
    <g id="xtick_28">
     <g id="line2d_74">
      <path clip-path="url(#p4fd53f266e)" d="M 141.827362 252 
L 141.827362 153.163636 
" style="fill:none;stroke:#b0b0b0;stroke-linecap:square;stroke-width:0.8;"/>
     </g>
     <g id="line2d_75">
      <g>
       <use style="stroke:#000000;stroke-width:0.6;" x="141.827362" xlink:href="#m7913873fac" y="252"/>
      </g>
     </g>
    </g>
    <g id="xtick_29">
     <g id="line2d_76">
      <path clip-path="url(#p4fd53f266e)" d="M 160.840766 252 
L 160.840766 153.163636 
" style="fill:none;stroke:#b0b0b0;stroke-linecap:square;stroke-width:0.8;"/>
     </g>
     <g id="line2d_77">
      <g>
       <use style="stroke:#000000;stroke-width:0.6;" x="160.840766" xlink:href="#m7913873fac" y="252"/>
      </g>
     </g>
    </g>
    <g id="xtick_30">
     <g id="line2d_78">
      <path clip-path="url(#p4fd53f266e)" d="M 175.588708 252 
L 175.588708 153.163636 
" style="fill:none;stroke:#b0b0b0;stroke-linecap:square;stroke-width:0.8;"/>
     </g>
     <g id="line2d_79">
      <g>
       <use style="stroke:#000000;stroke-width:0.6;" x="175.588708" xlink:href="#m7913873fac" y="252"/>
      </g>
     </g>
    </g>
    <g id="xtick_31">
     <g id="line2d_80">
      <path clip-path="url(#p4fd53f266e)" d="M 187.638654 252 
L 187.638654 153.163636 
" style="fill:none;stroke:#b0b0b0;stroke-linecap:square;stroke-width:0.8;"/>
     </g>
     <g id="line2d_81">
      <g>
       <use style="stroke:#000000;stroke-width:0.6;" x="187.638654" xlink:href="#m7913873fac" y="252"/>
      </g>
     </g>
    </g>
    <g id="xtick_32">
     <g id="line2d_82">
      <path clip-path="url(#p4fd53f266e)" d="M 197.826738 252 
L 197.826738 153.163636 
" style="fill:none;stroke:#b0b0b0;stroke-linecap:square;stroke-width:0.8;"/>
     </g>
     <g id="line2d_83">
      <g>
       <use style="stroke:#000000;stroke-width:0.6;" x="197.826738" xlink:href="#m7913873fac" y="252"/>
      </g>
     </g>
    </g>
    <g id="xtick_33">
     <g id="line2d_84">
      <path clip-path="url(#p4fd53f266e)" d="M 206.652058 252 
L 206.652058 153.163636 
" style="fill:none;stroke:#b0b0b0;stroke-linecap:square;stroke-width:0.8;"/>
     </g>
     <g id="line2d_85">
      <g>
       <use style="stroke:#000000;stroke-width:0.6;" x="206.652058" xlink:href="#m7913873fac" y="252"/>
      </g>
     </g>
    </g>
    <g id="xtick_34">
     <g id="line2d_86">
      <path clip-path="url(#p4fd53f266e)" d="M 214.436542 252 
L 214.436542 153.163636 
" style="fill:none;stroke:#b0b0b0;stroke-linecap:square;stroke-width:0.8;"/>
     </g>
     <g id="line2d_87">
      <g>
       <use style="stroke:#000000;stroke-width:0.6;" x="214.436542" xlink:href="#m7913873fac" y="252"/>
      </g>
     </g>
    </g>
    <g id="xtick_35">
     <g id="line2d_88">
      <path clip-path="url(#p4fd53f266e)" d="M 267.211292 252 
L 267.211292 153.163636 
" style="fill:none;stroke:#b0b0b0;stroke-linecap:square;stroke-width:0.8;"/>
     </g>
     <g id="line2d_89">
      <g>
       <use style="stroke:#000000;stroke-width:0.6;" x="267.211292" xlink:href="#m7913873fac" y="252"/>
      </g>
     </g>
    </g>
    <g id="xtick_36">
     <g id="line2d_90">
      <path clip-path="url(#p4fd53f266e)" d="M 294.00918 252 
L 294.00918 153.163636 
" style="fill:none;stroke:#b0b0b0;stroke-linecap:square;stroke-width:0.8;"/>
     </g>
     <g id="line2d_91">
      <g>
       <use style="stroke:#000000;stroke-width:0.6;" x="294.00918" xlink:href="#m7913873fac" y="252"/>
      </g>
     </g>
    </g>
    <g id="xtick_37">
     <g id="line2d_92">
      <path clip-path="url(#p4fd53f266e)" d="M 313.022584 252 
L 313.022584 153.163636 
" style="fill:none;stroke:#b0b0b0;stroke-linecap:square;stroke-width:0.8;"/>
     </g>
     <g id="line2d_93">
      <g>
       <use style="stroke:#000000;stroke-width:0.6;" x="313.022584" xlink:href="#m7913873fac" y="252"/>
      </g>
     </g>
    </g>
    <g id="xtick_38">
     <g id="line2d_94">
      <path clip-path="url(#p4fd53f266e)" d="M 327.770526 252 
L 327.770526 153.163636 
" style="fill:none;stroke:#b0b0b0;stroke-linecap:square;stroke-width:0.8;"/>
     </g>
     <g id="line2d_95">
      <g>
       <use style="stroke:#000000;stroke-width:0.6;" x="327.770526" xlink:href="#m7913873fac" y="252"/>
      </g>
     </g>
    </g>
    <g id="xtick_39">
     <g id="line2d_96">
      <path clip-path="url(#p4fd53f266e)" d="M 339.820472 252 
L 339.820472 153.163636 
" style="fill:none;stroke:#b0b0b0;stroke-linecap:square;stroke-width:0.8;"/>
     </g>
     <g id="line2d_97">
      <g>
       <use style="stroke:#000000;stroke-width:0.6;" x="339.820472" xlink:href="#m7913873fac" y="252"/>
      </g>
     </g>
    </g>
    <g id="xtick_40">
     <g id="line2d_98">
      <path clip-path="url(#p4fd53f266e)" d="M 350.008556 252 
L 350.008556 153.163636 
" style="fill:none;stroke:#b0b0b0;stroke-linecap:square;stroke-width:0.8;"/>
     </g>
     <g id="line2d_99">
      <g>
       <use style="stroke:#000000;stroke-width:0.6;" x="350.008556" xlink:href="#m7913873fac" y="252"/>
      </g>
     </g>
    </g>
    <g id="xtick_41">
     <g id="line2d_100">
      <path clip-path="url(#p4fd53f266e)" d="M 358.833876 252 
L 358.833876 153.163636 
" style="fill:none;stroke:#b0b0b0;stroke-linecap:square;stroke-width:0.8;"/>
     </g>
     <g id="line2d_101">
      <g>
       <use style="stroke:#000000;stroke-width:0.6;" x="358.833876" xlink:href="#m7913873fac" y="252"/>
      </g>
     </g>
    </g>
    <g id="xtick_42">
     <g id="line2d_102">
      <path clip-path="url(#p4fd53f266e)" d="M 366.61836 252 
L 366.61836 153.163636 
" style="fill:none;stroke:#b0b0b0;stroke-linecap:square;stroke-width:0.8;"/>
     </g>
     <g id="line2d_103">
      <g>
       <use style="stroke:#000000;stroke-width:0.6;" x="366.61836" xlink:href="#m7913873fac" y="252"/>
      </g>
     </g>
    </g>
    <g id="text_15">
     <!-- Frequency (rad/sec) -->
     <g transform="translate(171.671094 280.276562)scale(0.1 -0.1)">
      <defs>
       <path d="M 9.8125 72.90625 
L 51.703125 72.90625 
L 51.703125 64.59375 
L 19.671875 64.59375 
L 19.671875 43.109375 
L 48.578125 43.109375 
L 48.578125 34.8125 
L 19.671875 34.8125 
L 19.671875 0 
L 9.8125 0 
z
" id="DejaVuSans-70"/>
       <path d="M 41.109375 46.296875 
Q 39.59375 47.171875 37.8125 47.578125 
Q 36.03125 48 33.890625 48 
Q 26.265625 48 22.1875 43.046875 
Q 18.109375 38.09375 18.109375 28.8125 
L 18.109375 0 
L 9.078125 0 
L 9.078125 54.6875 
L 18.109375 54.6875 
L 18.109375 46.1875 
Q 20.953125 51.171875 25.484375 53.578125 
Q 30.03125 56 36.53125 56 
Q 37.453125 56 38.578125 55.875 
Q 39.703125 55.765625 41.0625 55.515625 
z
" id="DejaVuSans-114"/>
       <path d="M 14.796875 27.296875 
Q 14.796875 17.390625 18.875 11.75 
Q 22.953125 6.109375 30.078125 6.109375 
Q 37.203125 6.109375 41.296875 11.75 
Q 45.40625 17.390625 45.40625 27.296875 
Q 45.40625 37.203125 41.296875 42.84375 
Q 37.203125 48.484375 30.078125 48.484375 
Q 22.953125 48.484375 18.875 42.84375 
Q 14.796875 37.203125 14.796875 27.296875 
z
M 45.40625 8.203125 
Q 42.578125 3.328125 38.25 0.953125 
Q 33.9375 -1.421875 27.875 -1.421875 
Q 17.96875 -1.421875 11.734375 6.484375 
Q 5.515625 14.40625 5.515625 27.296875 
Q 5.515625 40.1875 11.734375 48.09375 
Q 17.96875 56 27.875 56 
Q 33.9375 56 38.25 53.625 
Q 42.578125 51.265625 45.40625 46.390625 
L 45.40625 54.6875 
L 54.390625 54.6875 
L 54.390625 -20.796875 
L 45.40625 -20.796875 
z
" id="DejaVuSans-113"/>
       <path d="M 48.78125 52.59375 
L 48.78125 44.1875 
Q 44.96875 46.296875 41.140625 47.34375 
Q 37.3125 48.390625 33.40625 48.390625 
Q 24.65625 48.390625 19.8125 42.84375 
Q 14.984375 37.3125 14.984375 27.296875 
Q 14.984375 17.28125 19.8125 11.734375 
Q 24.65625 6.203125 33.40625 6.203125 
Q 37.3125 6.203125 41.140625 7.25 
Q 44.96875 8.296875 48.78125 10.40625 
L 48.78125 2.09375 
Q 45.015625 0.34375 40.984375 -0.53125 
Q 36.96875 -1.421875 32.421875 -1.421875 
Q 20.0625 -1.421875 12.78125 6.34375 
Q 5.515625 14.109375 5.515625 27.296875 
Q 5.515625 40.671875 12.859375 48.328125 
Q 20.21875 56 33.015625 56 
Q 37.15625 56 41.109375 55.140625 
Q 45.0625 54.296875 48.78125 52.59375 
z
" id="DejaVuSans-99"/>
       <path d="M 32.171875 -5.078125 
Q 28.375 -14.84375 24.75 -17.8125 
Q 21.140625 -20.796875 15.09375 -20.796875 
L 7.90625 -20.796875 
L 7.90625 -13.28125 
L 13.1875 -13.28125 
Q 16.890625 -13.28125 18.9375 -11.515625 
Q 21 -9.765625 23.484375 -3.21875 
L 25.09375 0.875 
L 2.984375 54.6875 
L 12.5 54.6875 
L 29.59375 11.921875 
L 46.6875 54.6875 
L 56.203125 54.6875 
z
" id="DejaVuSans-121"/>
       <path id="DejaVuSans-32"/>
       <path d="M 31 75.875 
Q 24.46875 64.65625 21.28125 53.65625 
Q 18.109375 42.671875 18.109375 31.390625 
Q 18.109375 20.125 21.3125 9.0625 
Q 24.515625 -2 31 -13.1875 
L 23.1875 -13.1875 
Q 15.875 -1.703125 12.234375 9.375 
Q 8.59375 20.453125 8.59375 31.390625 
Q 8.59375 42.28125 12.203125 53.3125 
Q 15.828125 64.359375 23.1875 75.875 
z
" id="DejaVuSans-40"/>
       <path d="M 25.390625 72.90625 
L 33.6875 72.90625 
L 8.296875 -9.28125 
L 0 -9.28125 
z
" id="DejaVuSans-47"/>
       <path d="M 44.28125 53.078125 
L 44.28125 44.578125 
Q 40.484375 46.53125 36.375 47.5 
Q 32.28125 48.484375 27.875 48.484375 
Q 21.1875 48.484375 17.84375 46.4375 
Q 14.5 44.390625 14.5 40.28125 
Q 14.5 37.15625 16.890625 35.375 
Q 19.28125 33.59375 26.515625 31.984375 
L 29.59375 31.296875 
Q 39.15625 29.25 43.1875 25.515625 
Q 47.21875 21.78125 47.21875 15.09375 
Q 47.21875 7.46875 41.1875 3.015625 
Q 35.15625 -1.421875 24.609375 -1.421875 
Q 20.21875 -1.421875 15.453125 -0.5625 
Q 10.6875 0.296875 5.421875 2 
L 5.421875 11.28125 
Q 10.40625 8.6875 15.234375 7.390625 
Q 20.0625 6.109375 24.8125 6.109375 
Q 31.15625 6.109375 34.5625 8.28125 
Q 37.984375 10.453125 37.984375 14.40625 
Q 37.984375 18.0625 35.515625 20.015625 
Q 33.0625 21.96875 24.703125 23.78125 
L 21.578125 24.515625 
Q 13.234375 26.265625 9.515625 29.90625 
Q 5.8125 33.546875 5.8125 39.890625 
Q 5.8125 47.609375 11.28125 51.796875 
Q 16.75 56 26.8125 56 
Q 31.78125 56 36.171875 55.265625 
Q 40.578125 54.546875 44.28125 53.078125 
z
" id="DejaVuSans-115"/>
       <path d="M 8.015625 75.875 
L 15.828125 75.875 
Q 23.140625 64.359375 26.78125 53.3125 
Q 30.421875 42.28125 30.421875 31.390625 
Q 30.421875 20.453125 26.78125 9.375 
Q 23.140625 -1.703125 15.828125 -13.1875 
L 8.015625 -13.1875 
Q 14.5 -2 17.703125 9.0625 
Q 20.90625 20.125 20.90625 31.390625 
Q 20.90625 42.671875 17.703125 53.65625 
Q 14.5 64.65625 8.015625 75.875 
z
" id="DejaVuSans-41"/>
      </defs>
      <use xlink:href="#DejaVuSans-70"/>
      <use x="50.269531" xlink:href="#DejaVuSans-114"/>
      <use x="89.132812" xlink:href="#DejaVuSans-101"/>
      <use x="150.65625" xlink:href="#DejaVuSans-113"/>
      <use x="214.132812" xlink:href="#DejaVuSans-117"/>
      <use x="277.511719" xlink:href="#DejaVuSans-101"/>
      <use x="339.035156" xlink:href="#DejaVuSans-110"/>
      <use x="402.414062" xlink:href="#DejaVuSans-99"/>
      <use x="457.394531" xlink:href="#DejaVuSans-121"/>
      <use x="516.574219" xlink:href="#DejaVuSans-32"/>
      <use x="548.361328" xlink:href="#DejaVuSans-40"/>
      <use x="587.375" xlink:href="#DejaVuSans-114"/>
      <use x="628.488281" xlink:href="#DejaVuSans-97"/>
      <use x="689.767578" xlink:href="#DejaVuSans-100"/>
      <use x="753.244141" xlink:href="#DejaVuSans-47"/>
      <use x="786.935547" xlink:href="#DejaVuSans-115"/>
      <use x="839.035156" xlink:href="#DejaVuSans-101"/>
      <use x="900.558594" xlink:href="#DejaVuSans-99"/>
      <use x="955.539062" xlink:href="#DejaVuSans-41"/>
     </g>
    </g>
   </g>
   <g id="matplotlib.axis_4">
    <g id="ytick_3">
     <g id="line2d_104">
      <path clip-path="url(#p4fd53f266e)" d="M 54 247.65235 
L 388.8 247.65235 
" style="fill:none;stroke:#b0b0b0;stroke-linecap:square;stroke-width:0.8;"/>
     </g>
     <g id="line2d_105">
      <g>
       <use style="stroke:#000000;stroke-width:0.8;" x="54" xlink:href="#mf3cfd7afce" y="247.65235"/>
      </g>
     </g>
     <g id="text_16">
      <!-- −180 -->
      <g transform="translate(19.532812 251.451569)scale(0.1 -0.1)">
       <defs>
        <path d="M 31.78125 34.625 
Q 24.75 34.625 20.71875 30.859375 
Q 16.703125 27.09375 16.703125 20.515625 
Q 16.703125 13.921875 20.71875 10.15625 
Q 24.75 6.390625 31.78125 6.390625 
Q 38.8125 6.390625 42.859375 10.171875 
Q 46.921875 13.96875 46.921875 20.515625 
Q 46.921875 27.09375 42.890625 30.859375 
Q 38.875 34.625 31.78125 34.625 
z
M 21.921875 38.8125 
Q 15.578125 40.375 12.03125 44.71875 
Q 8.5 49.078125 8.5 55.328125 
Q 8.5 64.0625 14.71875 69.140625 
Q 20.953125 74.21875 31.78125 74.21875 
Q 42.671875 74.21875 48.875 69.140625 
Q 55.078125 64.0625 55.078125 55.328125 
Q 55.078125 49.078125 51.53125 44.71875 
Q 48 40.375 41.703125 38.8125 
Q 48.828125 37.15625 52.796875 32.3125 
Q 56.78125 27.484375 56.78125 20.515625 
Q 56.78125 9.90625 50.3125 4.234375 
Q 43.84375 -1.421875 31.78125 -1.421875 
Q 19.734375 -1.421875 13.25 4.234375 
Q 6.78125 9.90625 6.78125 20.515625 
Q 6.78125 27.484375 10.78125 32.3125 
Q 14.796875 37.15625 21.921875 38.8125 
z
M 18.3125 54.390625 
Q 18.3125 48.734375 21.84375 45.5625 
Q 25.390625 42.390625 31.78125 42.390625 
Q 38.140625 42.390625 41.71875 45.5625 
Q 45.3125 48.734375 45.3125 54.390625 
Q 45.3125 60.0625 41.71875 63.234375 
Q 38.140625 66.40625 31.78125 66.40625 
Q 25.390625 66.40625 21.84375 63.234375 
Q 18.3125 60.0625 18.3125 54.390625 
z
" id="DejaVuSans-56"/>
       </defs>
       <use xlink:href="#DejaVuSans-8722"/>
       <use x="83.789062" xlink:href="#DejaVuSans-49"/>
       <use x="147.412109" xlink:href="#DejaVuSans-56"/>
       <use x="211.035156" xlink:href="#DejaVuSans-48"/>
      </g>
     </g>
    </g>
    <g id="ytick_4">
     <g id="line2d_106">
      <path clip-path="url(#p4fd53f266e)" d="M 54 225.117084 
L 388.8 225.117084 
" style="fill:none;stroke:#b0b0b0;stroke-linecap:square;stroke-width:0.8;"/>
     </g>
     <g id="line2d_107">
      <g>
       <use style="stroke:#000000;stroke-width:0.8;" x="54" xlink:href="#mf3cfd7afce" y="225.117084"/>
      </g>
     </g>
     <g id="text_17">
      <!-- −135 -->
      <g transform="translate(19.532812 228.916303)scale(0.1 -0.1)">
       <defs>
        <path d="M 40.578125 39.3125 
Q 47.65625 37.796875 51.625 33 
Q 55.609375 28.21875 55.609375 21.1875 
Q 55.609375 10.40625 48.1875 4.484375 
Q 40.765625 -1.421875 27.09375 -1.421875 
Q 22.515625 -1.421875 17.65625 -0.515625 
Q 12.796875 0.390625 7.625 2.203125 
L 7.625 11.71875 
Q 11.71875 9.328125 16.59375 8.109375 
Q 21.484375 6.890625 26.8125 6.890625 
Q 36.078125 6.890625 40.9375 10.546875 
Q 45.796875 14.203125 45.796875 21.1875 
Q 45.796875 27.640625 41.28125 31.265625 
Q 36.765625 34.90625 28.71875 34.90625 
L 20.21875 34.90625 
L 20.21875 43.015625 
L 29.109375 43.015625 
Q 36.375 43.015625 40.234375 45.921875 
Q 44.09375 48.828125 44.09375 54.296875 
Q 44.09375 59.90625 40.109375 62.90625 
Q 36.140625 65.921875 28.71875 65.921875 
Q 24.65625 65.921875 20.015625 65.03125 
Q 15.375 64.15625 9.8125 62.3125 
L 9.8125 71.09375 
Q 15.4375 72.65625 20.34375 73.4375 
Q 25.25 74.21875 29.59375 74.21875 
Q 40.828125 74.21875 47.359375 69.109375 
Q 53.90625 64.015625 53.90625 55.328125 
Q 53.90625 49.265625 50.4375 45.09375 
Q 46.96875 40.921875 40.578125 39.3125 
z
" id="DejaVuSans-51"/>
       </defs>
       <use xlink:href="#DejaVuSans-8722"/>
       <use x="83.789062" xlink:href="#DejaVuSans-49"/>
       <use x="147.412109" xlink:href="#DejaVuSans-51"/>
       <use x="211.035156" xlink:href="#DejaVuSans-53"/>
      </g>
     </g>
    </g>
    <g id="ytick_5">
     <g id="line2d_108">
      <path clip-path="url(#p4fd53f266e)" d="M 54 202.581818 
L 388.8 202.581818 
" style="fill:none;stroke:#b0b0b0;stroke-linecap:square;stroke-width:0.8;"/>
     </g>
     <g id="line2d_109">
      <g>
       <use style="stroke:#000000;stroke-width:0.8;" x="54" xlink:href="#mf3cfd7afce" y="202.581818"/>
      </g>
     </g>
     <g id="text_18">
      <!-- −90 -->
      <g transform="translate(25.895312 206.381037)scale(0.1 -0.1)">
       <defs>
        <path d="M 10.984375 1.515625 
L 10.984375 10.5 
Q 14.703125 8.734375 18.5 7.8125 
Q 22.3125 6.890625 25.984375 6.890625 
Q 35.75 6.890625 40.890625 13.453125 
Q 46.046875 20.015625 46.78125 33.40625 
Q 43.953125 29.203125 39.59375 26.953125 
Q 35.25 24.703125 29.984375 24.703125 
Q 19.046875 24.703125 12.671875 31.3125 
Q 6.296875 37.9375 6.296875 49.421875 
Q 6.296875 60.640625 12.9375 67.421875 
Q 19.578125 74.21875 30.609375 74.21875 
Q 43.265625 74.21875 49.921875 64.515625 
Q 56.59375 54.828125 56.59375 36.375 
Q 56.59375 19.140625 48.40625 8.859375 
Q 40.234375 -1.421875 26.421875 -1.421875 
Q 22.703125 -1.421875 18.890625 -0.6875 
Q 15.09375 0.046875 10.984375 1.515625 
z
M 30.609375 32.421875 
Q 37.25 32.421875 41.125 36.953125 
Q 45.015625 41.5 45.015625 49.421875 
Q 45.015625 57.28125 41.125 61.84375 
Q 37.25 66.40625 30.609375 66.40625 
Q 23.96875 66.40625 20.09375 61.84375 
Q 16.21875 57.28125 16.21875 49.421875 
Q 16.21875 41.5 20.09375 36.953125 
Q 23.96875 32.421875 30.609375 32.421875 
z
" id="DejaVuSans-57"/>
       </defs>
       <use xlink:href="#DejaVuSans-8722"/>
       <use x="83.789062" xlink:href="#DejaVuSans-57"/>
       <use x="147.412109" xlink:href="#DejaVuSans-48"/>
      </g>
     </g>
    </g>
    <g id="ytick_6">
     <g id="line2d_110">
      <path clip-path="url(#p4fd53f266e)" d="M 54 180.046552 
L 388.8 180.046552 
" style="fill:none;stroke:#b0b0b0;stroke-linecap:square;stroke-width:0.8;"/>
     </g>
     <g id="line2d_111">
      <g>
       <use style="stroke:#000000;stroke-width:0.8;" x="54" xlink:href="#mf3cfd7afce" y="180.046552"/>
      </g>
     </g>
     <g id="text_19">
      <!-- −45 -->
      <g transform="translate(25.895312 183.845771)scale(0.1 -0.1)">
       <defs>
        <path d="M 37.796875 64.3125 
L 12.890625 25.390625 
L 37.796875 25.390625 
z
M 35.203125 72.90625 
L 47.609375 72.90625 
L 47.609375 25.390625 
L 58.015625 25.390625 
L 58.015625 17.1875 
L 47.609375 17.1875 
L 47.609375 0 
L 37.796875 0 
L 37.796875 17.1875 
L 4.890625 17.1875 
L 4.890625 26.703125 
z
" id="DejaVuSans-52"/>
       </defs>
       <use xlink:href="#DejaVuSans-8722"/>
       <use x="83.789062" xlink:href="#DejaVuSans-52"/>
       <use x="147.412109" xlink:href="#DejaVuSans-53"/>
      </g>
     </g>
    </g>
    <g id="ytick_7">
     <g id="line2d_112">
      <path clip-path="url(#p4fd53f266e)" d="M 54 157.511286 
L 388.8 157.511286 
" style="fill:none;stroke:#b0b0b0;stroke-linecap:square;stroke-width:0.8;"/>
     </g>
     <g id="line2d_113">
      <g>
       <use style="stroke:#000000;stroke-width:0.8;" x="54" xlink:href="#mf3cfd7afce" y="157.511286"/>
      </g>
     </g>
     <g id="text_20">
      <!-- 0 -->
      <g transform="translate(40.6375 161.310505)scale(0.1 -0.1)">
       <use xlink:href="#DejaVuSans-48"/>
      </g>
     </g>
    </g>
    <g id="ytick_8">
     <g id="line2d_114">
      <path clip-path="url(#p4fd53f266e)" d="M 54 240.140595 
L 388.8 240.140595 
" style="fill:none;stroke:#b0b0b0;stroke-linecap:square;stroke-width:0.8;"/>
     </g>
     <g id="line2d_115">
      <defs>
       <path d="M 0 0 
L -2 0 
" id="mdfddff9e5d" style="stroke:#000000;stroke-width:0.6;"/>
      </defs>
      <g>
       <use style="stroke:#000000;stroke-width:0.6;" x="54" xlink:href="#mdfddff9e5d" y="240.140595"/>
      </g>
     </g>
    </g>
    <g id="ytick_9">
     <g id="line2d_116">
      <path clip-path="url(#p4fd53f266e)" d="M 54 232.628839 
L 388.8 232.628839 
" style="fill:none;stroke:#b0b0b0;stroke-linecap:square;stroke-width:0.8;"/>
     </g>
     <g id="line2d_117">
      <g>
       <use style="stroke:#000000;stroke-width:0.6;" x="54" xlink:href="#mdfddff9e5d" y="232.628839"/>
      </g>
     </g>
    </g>
    <g id="ytick_10">
     <g id="line2d_118">
      <path clip-path="url(#p4fd53f266e)" d="M 54 217.605329 
L 388.8 217.605329 
" style="fill:none;stroke:#b0b0b0;stroke-linecap:square;stroke-width:0.8;"/>
     </g>
     <g id="line2d_119">
      <g>
       <use style="stroke:#000000;stroke-width:0.6;" x="54" xlink:href="#mdfddff9e5d" y="217.605329"/>
      </g>
     </g>
    </g>
    <g id="ytick_11">
     <g id="line2d_120">
      <path clip-path="url(#p4fd53f266e)" d="M 54 210.093573 
L 388.8 210.093573 
" style="fill:none;stroke:#b0b0b0;stroke-linecap:square;stroke-width:0.8;"/>
     </g>
     <g id="line2d_121">
      <g>
       <use style="stroke:#000000;stroke-width:0.6;" x="54" xlink:href="#mdfddff9e5d" y="210.093573"/>
      </g>
     </g>
    </g>
    <g id="ytick_12">
     <g id="line2d_122">
      <path clip-path="url(#p4fd53f266e)" d="M 54 195.070063 
L 388.8 195.070063 
" style="fill:none;stroke:#b0b0b0;stroke-linecap:square;stroke-width:0.8;"/>
     </g>
     <g id="line2d_123">
      <g>
       <use style="stroke:#000000;stroke-width:0.6;" x="54" xlink:href="#mdfddff9e5d" y="195.070063"/>
      </g>
     </g>
    </g>
    <g id="ytick_13">
     <g id="line2d_124">
      <path clip-path="url(#p4fd53f266e)" d="M 54 187.558308 
L 388.8 187.558308 
" style="fill:none;stroke:#b0b0b0;stroke-linecap:square;stroke-width:0.8;"/>
     </g>
     <g id="line2d_125">
      <g>
       <use style="stroke:#000000;stroke-width:0.6;" x="54" xlink:href="#mdfddff9e5d" y="187.558308"/>
      </g>
     </g>
    </g>
    <g id="ytick_14">
     <g id="line2d_126">
      <path clip-path="url(#p4fd53f266e)" d="M 54 172.534797 
L 388.8 172.534797 
" style="fill:none;stroke:#b0b0b0;stroke-linecap:square;stroke-width:0.8;"/>
     </g>
     <g id="line2d_127">
      <g>
       <use style="stroke:#000000;stroke-width:0.6;" x="54" xlink:href="#mdfddff9e5d" y="172.534797"/>
      </g>
     </g>
    </g>
    <g id="ytick_15">
     <g id="line2d_128">
      <path clip-path="url(#p4fd53f266e)" d="M 54 165.023042 
L 388.8 165.023042 
" style="fill:none;stroke:#b0b0b0;stroke-linecap:square;stroke-width:0.8;"/>
     </g>
     <g id="line2d_129">
      <g>
       <use style="stroke:#000000;stroke-width:0.6;" x="54" xlink:href="#mdfddff9e5d" y="165.023042"/>
      </g>
     </g>
    </g>
    <g id="text_21">
     <!-- Phase (deg) -->
     <g transform="translate(13.453125 232.426349)rotate(-90)scale(0.1 -0.1)">
      <defs>
       <path d="M 19.671875 64.796875 
L 19.671875 37.40625 
L 32.078125 37.40625 
Q 38.96875 37.40625 42.71875 40.96875 
Q 46.484375 44.53125 46.484375 51.125 
Q 46.484375 57.671875 42.71875 61.234375 
Q 38.96875 64.796875 32.078125 64.796875 
z
M 9.8125 72.90625 
L 32.078125 72.90625 
Q 44.34375 72.90625 50.609375 67.359375 
Q 56.890625 61.8125 56.890625 51.125 
Q 56.890625 40.328125 50.609375 34.8125 
Q 44.34375 29.296875 32.078125 29.296875 
L 19.671875 29.296875 
L 19.671875 0 
L 9.8125 0 
z
" id="DejaVuSans-80"/>
       <path d="M 54.890625 33.015625 
L 54.890625 0 
L 45.90625 0 
L 45.90625 32.71875 
Q 45.90625 40.484375 42.875 44.328125 
Q 39.84375 48.1875 33.796875 48.1875 
Q 26.515625 48.1875 22.3125 43.546875 
Q 18.109375 38.921875 18.109375 30.90625 
L 18.109375 0 
L 9.078125 0 
L 9.078125 75.984375 
L 18.109375 75.984375 
L 18.109375 46.1875 
Q 21.34375 51.125 25.703125 53.5625 
Q 30.078125 56 35.796875 56 
Q 45.21875 56 50.046875 50.171875 
Q 54.890625 44.34375 54.890625 33.015625 
z
" id="DejaVuSans-104"/>
      </defs>
      <use xlink:href="#DejaVuSans-80"/>
      <use x="60.302734" xlink:href="#DejaVuSans-104"/>
      <use x="123.681641" xlink:href="#DejaVuSans-97"/>
      <use x="184.960938" xlink:href="#DejaVuSans-115"/>
      <use x="237.060547" xlink:href="#DejaVuSans-101"/>
      <use x="298.583984" xlink:href="#DejaVuSans-32"/>
      <use x="330.371094" xlink:href="#DejaVuSans-40"/>
      <use x="369.384766" xlink:href="#DejaVuSans-100"/>
      <use x="432.861328" xlink:href="#DejaVuSans-101"/>
      <use x="494.384766" xlink:href="#DejaVuSans-103"/>
      <use x="557.861328" xlink:href="#DejaVuSans-41"/>
     </g>
    </g>
   </g>
   <g id="line2d_130">
    <path clip-path="url(#p4fd53f266e)" d="M 69.218182 157.656198 
L 131.675184 157.906534 
L 163.665356 158.236451 
L 181.03145 158.615179 
L 191.69484 159.053289 
L 198.397543 159.527967 
L 203.272236 160.087103 
L 206.623587 160.680183 
L 209.060934 161.308904 
L 210.888943 161.966558 
L 212.412285 162.712201 
L 213.630958 163.51056 
L 214.849631 164.589855 
L 215.763636 165.683926 
L 216.677641 167.160938 
L 217.286978 168.465251 
L 217.896314 170.149871 
L 218.505651 172.390976 
L 219.114988 175.472036 
L 219.724324 179.843421 
L 220.333661 186.137041 
L 220.942998 194.839272 
L 222.466339 219.026595 
L 223.075676 225.320215 
L 223.685012 229.691601 
L 224.294349 232.77266 
L 224.903686 235.013765 
L 225.81769 237.389951 
L 226.731695 239.038542 
L 227.6457 240.242249 
L 228.864373 241.414636 
L 230.083047 242.272046 
L 231.606388 243.065222 
L 233.434398 243.758664 
L 235.871744 244.416211 
L 238.918428 244.985259 
L 242.879115 245.487637 
L 248.363145 245.943929 
L 256.284521 246.35532 
L 267.861916 246.711745 
L 285.837346 247.02153 
L 315.390172 247.284955 
L 365.965111 247.489311 
L 373.581818 247.507438 
L 373.581818 247.507438 
" style="fill:none;stroke:#548ea9;stroke-linecap:square;stroke-width:0.9;"/>
   </g>
   <g id="line2d_131">
    <path clip-path="url(#p4fd53f266e)" d="M 69.218182 157.801103 
L 116.441769 158.122984 
L 145.994595 158.531907 
L 164.884029 158.999396 
L 177.680098 159.526272 
L 186.515479 160.100067 
L 192.913514 160.725426 
L 197.788206 161.418484 
L 201.444226 162.150397 
L 204.490909 162.990493 
L 206.928256 163.903266 
L 208.756265 164.803745 
L 210.279607 165.762438 
L 211.802948 166.995352 
L 213.021622 168.264558 
L 214.240295 169.897294 
L 215.1543 171.457106 
L 216.068305 173.417594 
L 216.98231 175.928763 
L 217.896314 179.200999 
L 218.810319 183.506172 
L 219.724324 189.115275 
L 220.942998 198.638773 
L 223.075676 216.048362 
L 223.989681 221.657465 
L 224.903686 225.962637 
L 225.81769 229.234874 
L 226.731695 231.746042 
L 227.6457 233.70653 
L 228.864373 235.716356 
L 230.083047 237.245525 
L 231.30172 238.442124 
L 232.825061 239.611737 
L 234.653071 240.685868 
L 236.785749 241.634767 
L 239.223096 242.453981 
L 242.269779 243.21929 
L 245.925799 243.895252 
L 250.495823 244.509103 
L 256.589189 245.087904 
L 264.510565 245.604978 
L 275.478624 246.081961 
L 290.712039 246.506909 
L 312.648157 246.882462 
L 345.247666 247.20124 
L 373.581818 247.362534 
L 373.581818 247.362534 
" style="fill:none;stroke:#94b3a2;stroke-linecap:square;stroke-width:0.9;"/>
   </g>
   <g id="line2d_132">
    <path clip-path="url(#p4fd53f266e)" d="M 69.218182 158.09086 
L 104.255037 158.514929 
L 129.237838 159.02608 
L 147.517936 159.608531 
L 161.22801 160.257758 
L 171.586732 160.963566 
L 179.508108 161.718182 
L 185.601474 162.507062 
L 190.476167 163.343781 
L 194.436855 164.227638 
L 197.788206 165.185927 
L 200.530221 166.175333 
L 202.967568 167.272418 
L 205.100246 168.463576 
L 206.928256 169.717216 
L 208.756265 171.259829 
L 210.279607 172.83815 
L 211.802948 174.768277 
L 213.021622 176.637775 
L 214.240295 178.871957 
L 215.458968 181.553434 
L 216.677641 184.769208 
L 217.896314 188.589785 
L 219.419656 194.227519 
L 221.552334 203.243039 
L 223.685012 212.134521 
L 225.208354 217.587917 
L 226.427027 221.252904 
L 227.6457 224.327324 
L 228.864373 226.888763 
L 230.083047 229.024441 
L 231.606388 231.215906 
L 233.12973 232.993928 
L 234.653071 234.455633 
L 236.481081 235.892377 
L 238.613759 237.241668 
L 240.746437 238.33121 
L 243.183784 239.342996 
L 246.230467 240.353501 
L 249.886486 241.302769 
L 254.151843 242.160691 
L 259.331204 242.95945 
L 265.729238 243.704245 
L 273.650614 244.389347 
L 283.704668 245.024129 
L 296.805405 245.613685 
L 313.86683 246.145414 
L 336.412285 246.613765 
L 366.574447 247.006431 
L 373.581818 247.072776 
L 373.581818 247.072776 
" style="fill:none;stroke:#d3c348;stroke-linecap:square;stroke-width:0.9;"/>
   </g>
   <g id="line2d_133">
    <path clip-path="url(#p4fd53f266e)" d="M 69.218182 159.556885 
L 89.021622 160.290626 
L 105.778378 161.129172 
L 119.79312 162.044782 
L 131.979853 163.059745 
L 142.338575 164.140709 
L 151.173956 165.276851 
L 158.790663 166.467401 
L 165.493366 167.728149 
L 171.586732 169.100136 
L 176.766093 170.48398 
L 181.640786 172.018916 
L 185.906143 173.593285 
L 189.86683 175.293707 
L 193.52285 177.110283 
L 196.874201 179.023084 
L 199.920885 181.000589 
L 202.967568 183.235422 
L 206.014251 185.753381 
L 209.060934 188.571061 
L 212.107617 191.687689 
L 215.458968 195.427792 
L 220.028993 200.899882 
L 227.950369 210.437219 
L 231.606388 214.441305 
L 234.653071 217.469736 
L 237.699754 220.196614 
L 240.746437 222.627334 
L 243.79312 224.782017 
L 247.144472 226.866008 
L 250.495823 228.688003 
L 254.151843 230.420475 
L 258.112531 232.045103 
L 262.377887 233.552612 
L 267.25258 235.026054 
L 272.431941 236.358007 
L 278.220639 237.621286 
L 284.923342 238.851414 
L 292.540049 240.015337 
L 301.37543 241.128125 
L 311.429484 242.160576 
L 323.00688 243.118855 
L 336.412285 243.999217 
L 351.950369 244.792576 
L 370.230467 245.498424 
L 373.581818 245.606752 
L 373.581818 245.606752 
" style="fill:none;stroke:#d37d1a;stroke-linecap:square;stroke-width:0.9;"/>
   </g>
   <g id="line2d_134">
    <path clip-path="url(#p4fd53f266e)" d="M 69.218182 160.399751 
L 86.279607 161.267358 
L 100.903686 162.226766 
L 113.699754 163.28122 
L 124.972482 164.425539 
L 135.026536 165.664572 
L 143.861916 166.969647 
L 151.783292 168.356623 
L 158.790663 169.796888 
L 165.188698 171.327964 
L 170.977396 172.930107 
L 176.461425 174.677484 
L 181.336118 176.453786 
L 185.906143 178.342235 
L 190.476167 180.478952 
L 194.741523 182.725371 
L 199.00688 185.238694 
L 202.967568 187.824581 
L 207.232924 190.881332 
L 211.802948 194.445025 
L 217.286978 199.026598 
L 232.215725 211.695406 
L 236.785749 215.183713 
L 241.051106 218.160898 
L 245.316462 220.854367 
L 249.581818 223.270125 
L 253.847174 225.426508 
L 258.417199 227.476874 
L 263.291892 229.402871 
L 268.471253 231.194922 
L 273.955283 232.850407 
L 280.048649 234.446085 
L 286.751351 235.957111 
L 294.063391 237.367884 
L 301.984767 238.670051 
L 310.820147 239.899507 
L 320.874201 241.070394 
L 332.146929 242.154733 
L 344.942998 243.156186 
L 359.567076 244.069018 
L 373.581818 244.763885 
L 373.581818 244.763885 
" style="fill:none;stroke:#d44310;stroke-linecap:square;stroke-width:1.2;"/>
   </g>
   <g id="patch_9">
    <path d="M 54 252 
L 54 153.163636 
" style="fill:none;stroke:#000000;stroke-linecap:square;stroke-linejoin:miter;stroke-width:0.8;"/>
   </g>
   <g id="patch_10">
    <path d="M 388.8 252 
L 388.8 153.163636 
" style="fill:none;stroke:#000000;stroke-linecap:square;stroke-linejoin:miter;stroke-width:0.8;"/>
   </g>
   <g id="patch_11">
    <path d="M 54 252 
L 388.8 252 
" style="fill:none;stroke:#000000;stroke-linecap:square;stroke-linejoin:miter;stroke-width:0.8;"/>
   </g>
   <g id="patch_12">
    <path d="M 54 153.163636 
L 388.8 153.163636 
" style="fill:none;stroke:#000000;stroke-linecap:square;stroke-linejoin:miter;stroke-width:0.8;"/>
   </g>
   <g id="legend_2">
    <g id="patch_13">
     <path d="M 304.2 234.663636 
L 381.8 234.663636 
Q 383.8 234.663636 383.8 232.663636 
L 383.8 160.163636 
Q 383.8 158.163636 381.8 158.163636 
L 304.2 158.163636 
Q 302.2 158.163636 302.2 160.163636 
L 302.2 232.663636 
Q 302.2 234.663636 304.2 234.663636 
z
" style="fill:#ffffff;opacity:0.8;stroke:#cccccc;stroke-linejoin:miter;"/>
    </g>
    <g id="line2d_135">
     <path d="M 306.2 166.263636 
L 326.2 166.263636 
" style="fill:none;stroke:#548ea9;stroke-linecap:square;stroke-width:0.9;"/>
    </g>
    <g id="line2d_136"/>
    <g id="text_22">
     <!-- $\zeta = 0.05$ -->
     <g transform="translate(334.2 169.763636)scale(0.1 -0.1)">
      <use transform="translate(0 0.015625)" xlink:href="#DejaVuSans-Oblique-950"/>
      <use transform="translate(73.876953 0.015625)" xlink:href="#DejaVuSans-61"/>
      <use transform="translate(177.148438 0.015625)" xlink:href="#DejaVuSans-48"/>
      <use transform="translate(240.771484 0.015625)" xlink:href="#DejaVuSans-46"/>
      <use transform="translate(272.558594 0.015625)" xlink:href="#DejaVuSans-48"/>
      <use transform="translate(336.181641 0.015625)" xlink:href="#DejaVuSans-53"/>
     </g>
    </g>
    <g id="line2d_137">
     <path d="M 306.2 180.963636 
L 326.2 180.963636 
" style="fill:none;stroke:#94b3a2;stroke-linecap:square;stroke-width:0.9;"/>
    </g>
    <g id="line2d_138"/>
    <g id="text_23">
     <!-- $\zeta = 0.1$ -->
     <g transform="translate(334.2 184.463636)scale(0.1 -0.1)">
      <use transform="translate(0 0.015625)" xlink:href="#DejaVuSans-Oblique-950"/>
      <use transform="translate(73.876953 0.015625)" xlink:href="#DejaVuSans-61"/>
      <use transform="translate(177.148438 0.015625)" xlink:href="#DejaVuSans-48"/>
      <use transform="translate(240.771484 0.015625)" xlink:href="#DejaVuSans-46"/>
      <use transform="translate(272.558594 0.015625)" xlink:href="#DejaVuSans-49"/>
     </g>
    </g>
    <g id="line2d_139">
     <path d="M 306.2 195.663636 
L 326.2 195.663636 
" style="fill:none;stroke:#d3c348;stroke-linecap:square;stroke-width:0.9;"/>
    </g>
    <g id="line2d_140"/>
    <g id="text_24">
     <!-- $\zeta = 0.2$ -->
     <g transform="translate(334.2 199.163636)scale(0.1 -0.1)">
      <use transform="translate(0 0.015625)" xlink:href="#DejaVuSans-Oblique-950"/>
      <use transform="translate(73.876953 0.015625)" xlink:href="#DejaVuSans-61"/>
      <use transform="translate(177.148438 0.015625)" xlink:href="#DejaVuSans-48"/>
      <use transform="translate(240.771484 0.015625)" xlink:href="#DejaVuSans-46"/>
      <use transform="translate(267.058594 0.015625)" xlink:href="#DejaVuSans-50"/>
     </g>
    </g>
    <g id="line2d_141">
     <path d="M 306.2 210.363636 
L 326.2 210.363636 
" style="fill:none;stroke:#d37d1a;stroke-linecap:square;stroke-width:0.9;"/>
    </g>
    <g id="line2d_142"/>
    <g id="text_25">
     <!-- $\zeta = 0.707$ -->
     <g transform="translate(334.2 213.863636)scale(0.1 -0.1)">
      <use transform="translate(0 0.015625)" xlink:href="#DejaVuSans-Oblique-950"/>
      <use transform="translate(73.876953 0.015625)" xlink:href="#DejaVuSans-61"/>
      <use transform="translate(177.148438 0.015625)" xlink:href="#DejaVuSans-48"/>
      <use transform="translate(240.771484 0.015625)" xlink:href="#DejaVuSans-46"/>
      <use transform="translate(264.808594 0.015625)" xlink:href="#DejaVuSans-55"/>
      <use transform="translate(328.431641 0.015625)" xlink:href="#DejaVuSans-48"/>
      <use transform="translate(392.054688 0.015625)" xlink:href="#DejaVuSans-55"/>
     </g>
    </g>
    <g id="line2d_143">
     <path d="M 306.2 225.063636 
L 326.2 225.063636 
" style="fill:none;stroke:#d44310;stroke-linecap:square;stroke-width:1.2;"/>
    </g>
    <g id="line2d_144"/>
    <g id="text_26">
     <!-- $\zeta = 1$ -->
     <g transform="translate(334.2 228.563636)scale(0.1 -0.1)">
      <use transform="translate(0 0.015625)" xlink:href="#DejaVuSans-Oblique-950"/>
      <use transform="translate(73.876953 0.015625)" xlink:href="#DejaVuSans-61"/>
      <use transform="translate(177.148438 0.015625)" xlink:href="#DejaVuSans-49"/>
     </g>
    </g>
   </g>
  </g>
 </g>
 <defs>
  <clipPath id="p947289de0e">
   <rect height="98.836364" width="334.8" x="54" y="34.56"/>
  </clipPath>
  <clipPath id="p4fd53f266e">
   <rect height="98.836364" width="334.8" x="54" y="153.163636"/>
  </clipPath>
 </defs>
</svg>
