<?xml version="1.0" encoding="utf-8" standalone="no"?>
<!DOCTYPE svg PUBLIC "-//W3C//DTD SVG 1.1//EN"
  "http://www.w3.org/Graphics/SVG/1.1/DTD/svg11.dtd">
<!-- Created with matplotlib (http://matplotlib.org/) -->
<svg height="311pt" version="1.1" viewBox="0 0 763 311" width="763pt" xmlns="http://www.w3.org/2000/svg" xmlns:xlink="http://www.w3.org/1999/xlink">
 <defs>
  <style type="text/css">
*{stroke-linecap:butt;stroke-linejoin:round;}
  </style>
 </defs>
 <g id="figure_1">
  <g id="patch_1">
   <path d="M 0 311.76 
L 763.2 311.76 
L 763.2 0 
L 0 0 
z
" style="fill:#ffffff;"/>
  </g>
  <g id="axes_1">
   <g id="patch_2">
    <path d="M 68.528 260.076207 
L 736.47 260.076207 
L 736.47 17.519257 
L 68.528 17.519257 
z
" style="fill:#ffffff;"/>
   </g>
   <g id="matplotlib.axis_1">
    <g id="xtick_1">
     <g id="line2d_1">
      <path clip-path="url(#paddd89abc9)" d="M 68.528 260.076207 
L 68.528 17.519257 
" style="fill:none;stroke:#b0b0b0;stroke-linecap:square;stroke-width:0.8;"/>
     </g>
     <g id="line2d_2">
      <defs>
       <path d="M 0 0 
L 0 3.5 
" id="m3f69163a2c" style="stroke:#000000;stroke-width:0.8;"/>
      </defs>
      <g>
       <use style="stroke:#000000;stroke-width:0.8;" x="68.528" xlink:href="#m3f69163a2c" y="260.076207"/>
      </g>
     </g>
     <g id="text_1">
      <!-- 0 -->
      <defs>
       <path d="M 4.15625 35.296875 
Q 4.15625 48 6.765625 55.734375 
Q 9.375 63.484375 14.515625 67.671875 
Q 19.671875 71.875 27.484375 71.875 
Q 33.25 71.875 37.59375 69.546875 
Q 41.9375 67.234375 44.765625 62.859375 
Q 47.609375 58.5 49.21875 52.21875 
Q 50.828125 45.953125 50.828125 35.296875 
Q 50.828125 22.703125 48.234375 14.96875 
Q 45.65625 7.234375 40.5 3 
Q 35.359375 -1.21875 27.484375 -1.21875 
Q 17.140625 -1.21875 11.234375 6.203125 
Q 4.15625 15.140625 4.15625 35.296875 
z
M 13.1875 35.296875 
Q 13.1875 17.671875 17.3125 11.828125 
Q 21.4375 6 27.484375 6 
Q 33.546875 6 37.671875 11.859375 
Q 41.796875 17.71875 41.796875 35.296875 
Q 41.796875 52.984375 37.671875 58.78125 
Q 33.546875 64.59375 27.390625 64.59375 
Q 21.34375 64.59375 17.71875 59.46875 
Q 13.1875 52.9375 13.1875 35.296875 
z
" id="ArialMT-30"/>
      </defs>
      <g transform="translate(64.635344 277.097144)scale(0.14 -0.14)">
       <use xlink:href="#ArialMT-30"/>
      </g>
     </g>
    </g>
    <g id="xtick_2">
     <g id="line2d_3">
      <path clip-path="url(#paddd89abc9)" d="M 152.02075 260.076207 
L 152.02075 17.519257 
" style="fill:none;stroke:#b0b0b0;stroke-linecap:square;stroke-width:0.8;"/>
     </g>
     <g id="line2d_4">
      <g>
       <use style="stroke:#000000;stroke-width:0.8;" x="152.02075" xlink:href="#m3f69163a2c" y="260.076207"/>
      </g>
     </g>
     <g id="text_2">
      <!-- 100 -->
      <defs>
       <path d="M 37.25 0 
L 28.46875 0 
L 28.46875 56 
Q 25.296875 52.984375 20.140625 49.953125 
Q 14.984375 46.921875 10.890625 45.40625 
L 10.890625 53.90625 
Q 18.265625 57.375 23.78125 62.296875 
Q 29.296875 67.234375 31.59375 71.875 
L 37.25 71.875 
z
" id="ArialMT-31"/>
      </defs>
      <g transform="translate(140.342781 277.097144)scale(0.14 -0.14)">
       <use xlink:href="#ArialMT-31"/>
       <use x="55.615234" xlink:href="#ArialMT-30"/>
       <use x="111.230469" xlink:href="#ArialMT-30"/>
      </g>
     </g>
    </g>
    <g id="xtick_3">
     <g id="line2d_5">
      <path clip-path="url(#paddd89abc9)" d="M 235.5135 260.076207 
L 235.5135 17.519257 
" style="fill:none;stroke:#b0b0b0;stroke-linecap:square;stroke-width:0.8;"/>
     </g>
     <g id="line2d_6">
      <g>
       <use style="stroke:#000000;stroke-width:0.8;" x="235.5135" xlink:href="#m3f69163a2c" y="260.076207"/>
      </g>
     </g>
     <g id="text_3">
      <!-- 200 -->
      <defs>
       <path d="M 50.34375 8.453125 
L 50.34375 0 
L 3.03125 0 
Q 2.9375 3.171875 4.046875 6.109375 
Q 5.859375 10.9375 9.828125 15.625 
Q 13.8125 20.3125 21.34375 26.46875 
Q 33.015625 36.03125 37.109375 41.625 
Q 41.21875 47.21875 41.21875 52.203125 
Q 41.21875 57.421875 37.46875 61 
Q 33.734375 64.59375 27.734375 64.59375 
Q 21.390625 64.59375 17.578125 60.78125 
Q 13.765625 56.984375 13.71875 50.25 
L 4.6875 51.171875 
Q 5.609375 61.28125 11.65625 66.578125 
Q 17.71875 71.875 27.9375 71.875 
Q 38.234375 71.875 44.234375 66.15625 
Q 50.25 60.453125 50.25 52 
Q 50.25 47.703125 48.484375 43.546875 
Q 46.734375 39.40625 42.65625 34.8125 
Q 38.578125 30.21875 29.109375 22.21875 
Q 21.1875 15.578125 18.9375 13.203125 
Q 16.703125 10.84375 15.234375 8.453125 
z
" id="ArialMT-32"/>
      </defs>
      <g transform="translate(223.835531 277.097144)scale(0.14 -0.14)">
       <use xlink:href="#ArialMT-32"/>
       <use x="55.615234" xlink:href="#ArialMT-30"/>
       <use x="111.230469" xlink:href="#ArialMT-30"/>
      </g>
     </g>
    </g>
    <g id="xtick_4">
     <g id="line2d_7">
      <path clip-path="url(#paddd89abc9)" d="M 319.00625 260.076207 
L 319.00625 17.519257 
" style="fill:none;stroke:#b0b0b0;stroke-linecap:square;stroke-width:0.8;"/>
     </g>
     <g id="line2d_8">
      <g>
       <use style="stroke:#000000;stroke-width:0.8;" x="319.00625" xlink:href="#m3f69163a2c" y="260.076207"/>
      </g>
     </g>
     <g id="text_4">
      <!-- 300 -->
      <defs>
       <path d="M 4.203125 18.890625 
L 12.984375 20.0625 
Q 14.5 12.59375 18.140625 9.296875 
Q 21.78125 6 27 6 
Q 33.203125 6 37.46875 10.296875 
Q 41.75 14.59375 41.75 20.953125 
Q 41.75 27 37.796875 30.921875 
Q 33.84375 34.859375 27.734375 34.859375 
Q 25.25 34.859375 21.53125 33.890625 
L 22.515625 41.609375 
Q 23.390625 41.5 23.921875 41.5 
Q 29.546875 41.5 34.03125 44.421875 
Q 38.53125 47.359375 38.53125 53.46875 
Q 38.53125 58.296875 35.25 61.46875 
Q 31.984375 64.65625 26.8125 64.65625 
Q 21.6875 64.65625 18.265625 61.421875 
Q 14.84375 58.203125 13.875 51.765625 
L 5.078125 53.328125 
Q 6.6875 62.15625 12.390625 67.015625 
Q 18.109375 71.875 26.609375 71.875 
Q 32.46875 71.875 37.390625 69.359375 
Q 42.328125 66.84375 44.9375 62.5 
Q 47.5625 58.15625 47.5625 53.265625 
Q 47.5625 48.640625 45.0625 44.828125 
Q 42.578125 41.015625 37.703125 38.765625 
Q 44.046875 37.3125 47.5625 32.6875 
Q 51.078125 28.078125 51.078125 21.140625 
Q 51.078125 11.765625 44.234375 5.25 
Q 37.40625 -1.265625 26.953125 -1.265625 
Q 17.53125 -1.265625 11.296875 4.34375 
Q 5.078125 9.96875 4.203125 18.890625 
z
" id="ArialMT-33"/>
      </defs>
      <g transform="translate(307.328281 277.097144)scale(0.14 -0.14)">
       <use xlink:href="#ArialMT-33"/>
       <use x="55.615234" xlink:href="#ArialMT-30"/>
       <use x="111.230469" xlink:href="#ArialMT-30"/>
      </g>
     </g>
    </g>
    <g id="xtick_5">
     <g id="line2d_9">
      <path clip-path="url(#paddd89abc9)" d="M 402.499 260.076207 
L 402.499 17.519257 
" style="fill:none;stroke:#b0b0b0;stroke-linecap:square;stroke-width:0.8;"/>
     </g>
     <g id="line2d_10">
      <g>
       <use style="stroke:#000000;stroke-width:0.8;" x="402.499" xlink:href="#m3f69163a2c" y="260.076207"/>
      </g>
     </g>
     <g id="text_5">
      <!-- 400 -->
      <defs>
       <path d="M 32.328125 0 
L 32.328125 17.140625 
L 1.265625 17.140625 
L 1.265625 25.203125 
L 33.9375 71.578125 
L 41.109375 71.578125 
L 41.109375 25.203125 
L 50.78125 25.203125 
L 50.78125 17.140625 
L 41.109375 17.140625 
L 41.109375 0 
z
M 32.328125 25.203125 
L 32.328125 57.46875 
L 9.90625 25.203125 
z
" id="ArialMT-34"/>
      </defs>
      <g transform="translate(390.821031 277.097144)scale(0.14 -0.14)">
       <use xlink:href="#ArialMT-34"/>
       <use x="55.615234" xlink:href="#ArialMT-30"/>
       <use x="111.230469" xlink:href="#ArialMT-30"/>
      </g>
     </g>
    </g>
    <g id="xtick_6">
     <g id="line2d_11">
      <path clip-path="url(#paddd89abc9)" d="M 485.99175 260.076207 
L 485.99175 17.519257 
" style="fill:none;stroke:#b0b0b0;stroke-linecap:square;stroke-width:0.8;"/>
     </g>
     <g id="line2d_12">
      <g>
       <use style="stroke:#000000;stroke-width:0.8;" x="485.99175" xlink:href="#m3f69163a2c" y="260.076207"/>
      </g>
     </g>
     <g id="text_6">
      <!-- 500 -->
      <defs>
       <path d="M 4.15625 18.75 
L 13.375 19.53125 
Q 14.40625 12.796875 18.140625 9.390625 
Q 21.875 6 27.15625 6 
Q 33.5 6 37.890625 10.78125 
Q 42.28125 15.578125 42.28125 23.484375 
Q 42.28125 31 38.0625 35.34375 
Q 33.84375 39.703125 27 39.703125 
Q 22.75 39.703125 19.328125 37.765625 
Q 15.921875 35.84375 13.96875 32.765625 
L 5.71875 33.84375 
L 12.640625 70.609375 
L 48.25 70.609375 
L 48.25 62.203125 
L 19.671875 62.203125 
L 15.828125 42.96875 
Q 22.265625 47.46875 29.34375 47.46875 
Q 38.71875 47.46875 45.15625 40.96875 
Q 51.609375 34.46875 51.609375 24.265625 
Q 51.609375 14.546875 45.953125 7.46875 
Q 39.0625 -1.21875 27.15625 -1.21875 
Q 17.390625 -1.21875 11.203125 4.25 
Q 5.03125 9.71875 4.15625 18.75 
z
" id="ArialMT-35"/>
      </defs>
      <g transform="translate(474.313781 277.097144)scale(0.14 -0.14)">
       <use xlink:href="#ArialMT-35"/>
       <use x="55.615234" xlink:href="#ArialMT-30"/>
       <use x="111.230469" xlink:href="#ArialMT-30"/>
      </g>
     </g>
    </g>
    <g id="xtick_7">
     <g id="line2d_13">
      <path clip-path="url(#paddd89abc9)" d="M 569.4845 260.076207 
L 569.4845 17.519257 
" style="fill:none;stroke:#b0b0b0;stroke-linecap:square;stroke-width:0.8;"/>
     </g>
     <g id="line2d_14">
      <g>
       <use style="stroke:#000000;stroke-width:0.8;" x="569.4845" xlink:href="#m3f69163a2c" y="260.076207"/>
      </g>
     </g>
     <g id="text_7">
      <!-- 600 -->
      <defs>
       <path d="M 49.75 54.046875 
L 41.015625 53.375 
Q 39.84375 58.546875 37.703125 60.890625 
Q 34.125 64.65625 28.90625 64.65625 
Q 24.703125 64.65625 21.53125 62.3125 
Q 17.390625 59.28125 14.984375 53.46875 
Q 12.59375 47.65625 12.5 36.921875 
Q 15.671875 41.75 20.265625 44.09375 
Q 24.859375 46.4375 29.890625 46.4375 
Q 38.671875 46.4375 44.84375 39.96875 
Q 51.03125 33.5 51.03125 23.25 
Q 51.03125 16.5 48.125 10.71875 
Q 45.21875 4.9375 40.140625 1.859375 
Q 35.0625 -1.21875 28.609375 -1.21875 
Q 17.625 -1.21875 10.6875 6.859375 
Q 3.765625 14.9375 3.765625 33.5 
Q 3.765625 54.25 11.421875 63.671875 
Q 18.109375 71.875 29.4375 71.875 
Q 37.890625 71.875 43.28125 67.140625 
Q 48.6875 62.40625 49.75 54.046875 
z
M 13.875 23.1875 
Q 13.875 18.65625 15.796875 14.5 
Q 17.71875 10.359375 21.1875 8.171875 
Q 24.65625 6 28.46875 6 
Q 34.03125 6 38.03125 10.484375 
Q 42.046875 14.984375 42.046875 22.703125 
Q 42.046875 30.125 38.078125 34.390625 
Q 34.125 38.671875 28.125 38.671875 
Q 22.171875 38.671875 18.015625 34.390625 
Q 13.875 30.125 13.875 23.1875 
z
" id="ArialMT-36"/>
      </defs>
      <g transform="translate(557.806531 277.097144)scale(0.14 -0.14)">
       <use xlink:href="#ArialMT-36"/>
       <use x="55.615234" xlink:href="#ArialMT-30"/>
       <use x="111.230469" xlink:href="#ArialMT-30"/>
      </g>
     </g>
    </g>
    <g id="xtick_8">
     <g id="line2d_15">
      <path clip-path="url(#paddd89abc9)" d="M 652.97725 260.076207 
L 652.97725 17.519257 
" style="fill:none;stroke:#b0b0b0;stroke-linecap:square;stroke-width:0.8;"/>
     </g>
     <g id="line2d_16">
      <g>
       <use style="stroke:#000000;stroke-width:0.8;" x="652.97725" xlink:href="#m3f69163a2c" y="260.076207"/>
      </g>
     </g>
     <g id="text_8">
      <!-- 700 -->
      <defs>
       <path d="M 4.734375 62.203125 
L 4.734375 70.65625 
L 51.078125 70.65625 
L 51.078125 63.8125 
Q 44.234375 56.546875 37.515625 44.484375 
Q 30.8125 32.421875 27.15625 19.671875 
Q 24.515625 10.6875 23.78125 0 
L 14.75 0 
Q 14.890625 8.453125 18.0625 20.40625 
Q 21.234375 32.375 27.171875 43.484375 
Q 33.109375 54.59375 39.796875 62.203125 
z
" id="ArialMT-37"/>
      </defs>
      <g transform="translate(641.299281 277.097144)scale(0.14 -0.14)">
       <use xlink:href="#ArialMT-37"/>
       <use x="55.615234" xlink:href="#ArialMT-30"/>
       <use x="111.230469" xlink:href="#ArialMT-30"/>
      </g>
     </g>
    </g>
    <g id="xtick_9">
     <g id="line2d_17">
      <path clip-path="url(#paddd89abc9)" d="M 736.47 260.076207 
L 736.47 17.519257 
" style="fill:none;stroke:#b0b0b0;stroke-linecap:square;stroke-width:0.8;"/>
     </g>
     <g id="line2d_18">
      <g>
       <use style="stroke:#000000;stroke-width:0.8;" x="736.47" xlink:href="#m3f69163a2c" y="260.076207"/>
      </g>
     </g>
     <g id="text_9">
      <!-- 800 -->
      <defs>
       <path d="M 17.671875 38.8125 
Q 12.203125 40.828125 9.5625 44.53125 
Q 6.9375 48.25 6.9375 53.421875 
Q 6.9375 61.234375 12.546875 66.546875 
Q 18.171875 71.875 27.484375 71.875 
Q 36.859375 71.875 42.578125 66.421875 
Q 48.296875 60.984375 48.296875 53.171875 
Q 48.296875 48.1875 45.671875 44.5 
Q 43.0625 40.828125 37.75 38.8125 
Q 44.34375 36.671875 47.78125 31.875 
Q 51.21875 27.09375 51.21875 20.453125 
Q 51.21875 11.28125 44.71875 5.03125 
Q 38.234375 -1.21875 27.640625 -1.21875 
Q 17.046875 -1.21875 10.546875 5.046875 
Q 4.046875 11.328125 4.046875 20.703125 
Q 4.046875 27.6875 7.59375 32.390625 
Q 11.140625 37.109375 17.671875 38.8125 
z
M 15.921875 53.71875 
Q 15.921875 48.640625 19.1875 45.40625 
Q 22.46875 42.1875 27.6875 42.1875 
Q 32.765625 42.1875 36.015625 45.375 
Q 39.265625 48.578125 39.265625 53.21875 
Q 39.265625 58.0625 35.90625 61.359375 
Q 32.5625 64.65625 27.59375 64.65625 
Q 22.5625 64.65625 19.234375 61.421875 
Q 15.921875 58.203125 15.921875 53.71875 
z
M 13.09375 20.65625 
Q 13.09375 16.890625 14.875 13.375 
Q 16.65625 9.859375 20.171875 7.921875 
Q 23.6875 6 27.734375 6 
Q 34.03125 6 38.125 10.046875 
Q 42.234375 14.109375 42.234375 20.359375 
Q 42.234375 26.703125 38.015625 30.859375 
Q 33.796875 35.015625 27.4375 35.015625 
Q 21.234375 35.015625 17.15625 30.90625 
Q 13.09375 26.8125 13.09375 20.65625 
z
" id="ArialMT-38"/>
      </defs>
      <g transform="translate(724.792031 277.097144)scale(0.14 -0.14)">
       <use xlink:href="#ArialMT-38"/>
       <use x="55.615234" xlink:href="#ArialMT-30"/>
       <use x="111.230469" xlink:href="#ArialMT-30"/>
      </g>
     </g>
    </g>
    <g id="text_10">
     <!-- Time [ms] -->
     <defs>
      <path d="M 25.921875 0 
L 25.921875 63.140625 
L 2.34375 63.140625 
L 2.34375 71.578125 
L 59.078125 71.578125 
L 59.078125 63.140625 
L 35.40625 63.140625 
L 35.40625 0 
z
" id="ArialMT-54"/>
      <path d="M 6.640625 61.46875 
L 6.640625 71.578125 
L 15.4375 71.578125 
L 15.4375 61.46875 
z
M 6.640625 0 
L 6.640625 51.859375 
L 15.4375 51.859375 
L 15.4375 0 
z
" id="ArialMT-69"/>
      <path d="M 6.59375 0 
L 6.59375 51.859375 
L 14.453125 51.859375 
L 14.453125 44.578125 
Q 16.890625 48.390625 20.9375 50.703125 
Q 25 53.03125 30.171875 53.03125 
Q 35.9375 53.03125 39.625 50.640625 
Q 43.3125 48.25 44.828125 43.953125 
Q 50.984375 53.03125 60.84375 53.03125 
Q 68.5625 53.03125 72.703125 48.75 
Q 76.859375 44.484375 76.859375 35.59375 
L 76.859375 0 
L 68.109375 0 
L 68.109375 32.671875 
Q 68.109375 37.9375 67.25 40.25 
Q 66.40625 42.578125 64.15625 43.984375 
Q 61.921875 45.40625 58.890625 45.40625 
Q 53.421875 45.40625 49.796875 41.765625 
Q 46.1875 38.140625 46.1875 30.125 
L 46.1875 0 
L 37.40625 0 
L 37.40625 33.6875 
Q 37.40625 39.546875 35.25 42.46875 
Q 33.109375 45.40625 28.21875 45.40625 
Q 24.515625 45.40625 21.359375 43.453125 
Q 18.21875 41.5 16.796875 37.734375 
Q 15.375 33.984375 15.375 26.90625 
L 15.375 0 
z
" id="ArialMT-6d"/>
      <path d="M 42.09375 16.703125 
L 51.171875 15.578125 
Q 49.03125 7.625 43.21875 3.21875 
Q 37.40625 -1.171875 28.375 -1.171875 
Q 17 -1.171875 10.328125 5.828125 
Q 3.65625 12.84375 3.65625 25.484375 
Q 3.65625 38.578125 10.390625 45.796875 
Q 17.140625 53.03125 27.875 53.03125 
Q 38.28125 53.03125 44.875 45.953125 
Q 51.46875 38.875 51.46875 26.03125 
Q 51.46875 25.25 51.421875 23.6875 
L 12.75 23.6875 
Q 13.234375 15.140625 17.578125 10.59375 
Q 21.921875 6.0625 28.421875 6.0625 
Q 33.25 6.0625 36.671875 8.59375 
Q 40.09375 11.140625 42.09375 16.703125 
z
M 13.234375 30.90625 
L 42.1875 30.90625 
Q 41.609375 37.453125 38.875 40.71875 
Q 34.671875 45.796875 27.984375 45.796875 
Q 21.921875 45.796875 17.796875 41.75 
Q 13.671875 37.703125 13.234375 30.90625 
z
" id="ArialMT-65"/>
      <path id="ArialMT-20"/>
      <path d="M 6.78125 -19.875 
L 6.78125 71.578125 
L 26.171875 71.578125 
L 26.171875 64.3125 
L 15.578125 64.3125 
L 15.578125 -12.59375 
L 26.171875 -12.59375 
L 26.171875 -19.875 
z
" id="ArialMT-5b"/>
      <path d="M 3.078125 15.484375 
L 11.765625 16.84375 
Q 12.5 11.625 15.84375 8.84375 
Q 19.1875 6.0625 25.203125 6.0625 
Q 31.25 6.0625 34.171875 8.515625 
Q 37.109375 10.984375 37.109375 14.3125 
Q 37.109375 17.28125 34.515625 19 
Q 32.71875 20.171875 25.53125 21.96875 
Q 15.875 24.421875 12.140625 26.203125 
Q 8.40625 27.984375 6.46875 31.125 
Q 4.546875 34.28125 4.546875 38.09375 
Q 4.546875 41.546875 6.125 44.5 
Q 7.71875 47.46875 10.453125 49.421875 
Q 12.5 50.921875 16.03125 51.96875 
Q 19.578125 53.03125 23.640625 53.03125 
Q 29.734375 53.03125 34.34375 51.265625 
Q 38.96875 49.515625 41.15625 46.5 
Q 43.359375 43.5 44.1875 38.484375 
L 35.59375 37.3125 
Q 35.015625 41.3125 32.203125 43.546875 
Q 29.390625 45.796875 24.265625 45.796875 
Q 18.21875 45.796875 15.625 43.796875 
Q 13.03125 41.796875 13.03125 39.109375 
Q 13.03125 37.40625 14.109375 36.03125 
Q 15.1875 34.625 17.484375 33.6875 
Q 18.796875 33.203125 25.25 31.453125 
Q 34.578125 28.953125 38.25 27.359375 
Q 41.9375 25.78125 44.03125 22.75 
Q 46.140625 19.734375 46.140625 15.234375 
Q 46.140625 10.84375 43.578125 6.953125 
Q 41.015625 3.078125 36.171875 0.953125 
Q 31.34375 -1.171875 25.25 -1.171875 
Q 15.140625 -1.171875 9.84375 3.03125 
Q 4.546875 7.234375 3.078125 15.484375 
z
" id="ArialMT-73"/>
      <path d="M 21.296875 -19.875 
L 1.90625 -19.875 
L 1.90625 -12.59375 
L 12.5 -12.59375 
L 12.5 64.3125 
L 1.90625 64.3125 
L 1.90625 71.578125 
L 21.296875 71.578125 
z
" id="ArialMT-5d"/>
     </defs>
     <g transform="translate(371.783219 293.900582)scale(0.14 -0.14)">
      <use xlink:href="#ArialMT-54"/>
      <use x="61.037109" xlink:href="#ArialMT-69"/>
      <use x="83.253906" xlink:href="#ArialMT-6d"/>
      <use x="166.554688" xlink:href="#ArialMT-65"/>
      <use x="222.169922" xlink:href="#ArialMT-20"/>
      <use x="249.953125" xlink:href="#ArialMT-5b"/>
      <use x="277.736328" xlink:href="#ArialMT-6d"/>
      <use x="361.037109" xlink:href="#ArialMT-73"/>
      <use x="411.037109" xlink:href="#ArialMT-5d"/>
     </g>
    </g>
   </g>
   <g id="matplotlib.axis_2">
    <g id="ytick_1">
     <g id="line2d_19">
      <path clip-path="url(#paddd89abc9)" d="M 68.528 246.288184 
L 736.47 246.288184 
" style="fill:none;stroke:#b0b0b0;stroke-linecap:square;stroke-width:0.8;"/>
     </g>
     <g id="line2d_20">
      <defs>
       <path d="M 0 0 
L -3.5 0 
" id="m4cd382bd9e" style="stroke:#000000;stroke-width:0.8;"/>
      </defs>
      <g>
       <use style="stroke:#000000;stroke-width:0.8;" x="68.528" xlink:href="#m4cd382bd9e" y="246.288184"/>
      </g>
     </g>
     <g id="text_11">
      <!-- −15 -->
      <defs>
       <path d="M 52.828125 31.203125 
L 5.5625 31.203125 
L 5.5625 39.40625 
L 52.828125 39.40625 
z
" id="ArialMT-2212"/>
      </defs>
      <g transform="translate(37.7805 251.298653)scale(0.14 -0.14)">
       <use xlink:href="#ArialMT-2212"/>
       <use x="58.398438" xlink:href="#ArialMT-31"/>
       <use x="114.013672" xlink:href="#ArialMT-35"/>
      </g>
     </g>
    </g>
    <g id="ytick_2">
     <g id="line2d_21">
      <path clip-path="url(#paddd89abc9)" d="M 68.528 203.792853 
L 736.47 203.792853 
" style="fill:none;stroke:#b0b0b0;stroke-linecap:square;stroke-width:0.8;"/>
     </g>
     <g id="line2d_22">
      <g>
       <use style="stroke:#000000;stroke-width:0.8;" x="68.528" xlink:href="#m4cd382bd9e" y="203.792853"/>
      </g>
     </g>
     <g id="text_12">
      <!-- −10 -->
      <g transform="translate(37.7805 208.803322)scale(0.14 -0.14)">
       <use xlink:href="#ArialMT-2212"/>
       <use x="58.398438" xlink:href="#ArialMT-31"/>
       <use x="114.013672" xlink:href="#ArialMT-30"/>
      </g>
     </g>
    </g>
    <g id="ytick_3">
     <g id="line2d_23">
      <path clip-path="url(#paddd89abc9)" d="M 68.528 161.297522 
L 736.47 161.297522 
" style="fill:none;stroke:#b0b0b0;stroke-linecap:square;stroke-width:0.8;"/>
     </g>
     <g id="line2d_24">
      <g>
       <use style="stroke:#000000;stroke-width:0.8;" x="68.528" xlink:href="#m4cd382bd9e" y="161.297522"/>
      </g>
     </g>
     <g id="text_13">
      <!-- −5 -->
      <g transform="translate(45.565813 166.307991)scale(0.14 -0.14)">
       <use xlink:href="#ArialMT-2212"/>
       <use x="58.398438" xlink:href="#ArialMT-35"/>
      </g>
     </g>
    </g>
    <g id="ytick_4">
     <g id="line2d_25">
      <path clip-path="url(#paddd89abc9)" d="M 68.528 118.802191 
L 736.47 118.802191 
" style="fill:none;stroke:#b0b0b0;stroke-linecap:square;stroke-width:0.8;"/>
     </g>
     <g id="line2d_26">
      <g>
       <use style="stroke:#000000;stroke-width:0.8;" x="68.528" xlink:href="#m4cd382bd9e" y="118.802191"/>
      </g>
     </g>
     <g id="text_14">
      <!-- 0 -->
      <g transform="translate(53.742688 123.81266)scale(0.14 -0.14)">
       <use xlink:href="#ArialMT-30"/>
      </g>
     </g>
    </g>
    <g id="ytick_5">
     <g id="line2d_27">
      <path clip-path="url(#paddd89abc9)" d="M 68.528 76.30686 
L 736.47 76.30686 
" style="fill:none;stroke:#b0b0b0;stroke-linecap:square;stroke-width:0.8;"/>
     </g>
     <g id="line2d_28">
      <g>
       <use style="stroke:#000000;stroke-width:0.8;" x="68.528" xlink:href="#m4cd382bd9e" y="76.30686"/>
      </g>
     </g>
     <g id="text_15">
      <!-- 5 -->
      <g transform="translate(53.742688 81.317329)scale(0.14 -0.14)">
       <use xlink:href="#ArialMT-35"/>
      </g>
     </g>
    </g>
    <g id="ytick_6">
     <g id="line2d_29">
      <path clip-path="url(#paddd89abc9)" d="M 68.528 33.811529 
L 736.47 33.811529 
" style="fill:none;stroke:#b0b0b0;stroke-linecap:square;stroke-width:0.8;"/>
     </g>
     <g id="line2d_30">
      <g>
       <use style="stroke:#000000;stroke-width:0.8;" x="68.528" xlink:href="#m4cd382bd9e" y="33.811529"/>
      </g>
     </g>
     <g id="text_16">
      <!-- 10 -->
      <g transform="translate(45.957375 38.821998)scale(0.14 -0.14)">
       <use xlink:href="#ArialMT-31"/>
       <use x="55.615234" xlink:href="#ArialMT-30"/>
      </g>
     </g>
    </g>
    <g id="text_17">
     <!-- Acceleration [$m/s^2$] -->
     <defs>
      <path d="M -0.140625 0 
L 27.34375 71.578125 
L 37.546875 71.578125 
L 66.84375 0 
L 56.0625 0 
L 47.703125 21.6875 
L 17.78125 21.6875 
L 9.90625 0 
z
M 20.515625 29.390625 
L 44.78125 29.390625 
L 37.3125 49.21875 
Q 33.890625 58.25 32.234375 64.0625 
Q 30.859375 57.171875 28.375 50.390625 
z
" id="ArialMT-41"/>
      <path d="M 40.4375 19 
L 49.078125 17.875 
Q 47.65625 8.9375 41.8125 3.875 
Q 35.984375 -1.171875 27.484375 -1.171875 
Q 16.84375 -1.171875 10.375 5.78125 
Q 3.90625 12.75 3.90625 25.734375 
Q 3.90625 34.125 6.6875 40.421875 
Q 9.46875 46.734375 15.15625 49.875 
Q 20.84375 53.03125 27.546875 53.03125 
Q 35.984375 53.03125 41.359375 48.75 
Q 46.734375 44.484375 48.25 36.625 
L 39.703125 35.296875 
Q 38.484375 40.53125 35.375 43.15625 
Q 32.28125 45.796875 27.875 45.796875 
Q 21.234375 45.796875 17.078125 41.03125 
Q 12.9375 36.28125 12.9375 25.984375 
Q 12.9375 15.53125 16.9375 10.796875 
Q 20.953125 6.0625 27.390625 6.0625 
Q 32.5625 6.0625 36.03125 9.234375 
Q 39.5 12.40625 40.4375 19 
z
" id="ArialMT-63"/>
      <path d="M 6.390625 0 
L 6.390625 71.578125 
L 15.1875 71.578125 
L 15.1875 0 
z
" id="ArialMT-6c"/>
      <path d="M 6.5 0 
L 6.5 51.859375 
L 14.40625 51.859375 
L 14.40625 44 
Q 17.4375 49.515625 20 51.265625 
Q 22.5625 53.03125 25.640625 53.03125 
Q 30.078125 53.03125 34.671875 50.203125 
L 31.640625 42.046875 
Q 28.421875 43.953125 25.203125 43.953125 
Q 22.3125 43.953125 20.015625 42.21875 
Q 17.71875 40.484375 16.75 37.40625 
Q 15.28125 32.71875 15.28125 27.15625 
L 15.28125 0 
z
" id="ArialMT-72"/>
      <path d="M 40.4375 6.390625 
Q 35.546875 2.25 31.03125 0.53125 
Q 26.515625 -1.171875 21.34375 -1.171875 
Q 12.796875 -1.171875 8.203125 3 
Q 3.609375 7.171875 3.609375 13.671875 
Q 3.609375 17.484375 5.34375 20.625 
Q 7.078125 23.78125 9.890625 25.6875 
Q 12.703125 27.59375 16.21875 28.5625 
Q 18.796875 29.25 24.03125 29.890625 
Q 34.671875 31.15625 39.703125 32.90625 
Q 39.75 34.71875 39.75 35.203125 
Q 39.75 40.578125 37.25 42.78125 
Q 33.890625 45.75 27.25 45.75 
Q 21.046875 45.75 18.09375 43.578125 
Q 15.140625 41.40625 13.71875 35.890625 
L 5.125 37.0625 
Q 6.296875 42.578125 8.984375 45.96875 
Q 11.671875 49.359375 16.75 51.1875 
Q 21.828125 53.03125 28.515625 53.03125 
Q 35.15625 53.03125 39.296875 51.46875 
Q 43.453125 49.90625 45.40625 47.53125 
Q 47.359375 45.171875 48.140625 41.546875 
Q 48.578125 39.3125 48.578125 33.453125 
L 48.578125 21.734375 
Q 48.578125 9.46875 49.140625 6.21875 
Q 49.703125 2.984375 51.375 0 
L 42.1875 0 
Q 40.828125 2.734375 40.4375 6.390625 
z
M 39.703125 26.03125 
Q 34.90625 24.078125 25.34375 22.703125 
Q 19.921875 21.921875 17.671875 20.9375 
Q 15.4375 19.96875 14.203125 18.09375 
Q 12.984375 16.21875 12.984375 13.921875 
Q 12.984375 10.40625 15.640625 8.0625 
Q 18.3125 5.71875 23.4375 5.71875 
Q 28.515625 5.71875 32.46875 7.9375 
Q 36.421875 10.15625 38.28125 14.015625 
Q 39.703125 17 39.703125 22.796875 
z
" id="ArialMT-61"/>
      <path d="M 25.78125 7.859375 
L 27.046875 0.09375 
Q 23.34375 -0.6875 20.40625 -0.6875 
Q 15.625 -0.6875 12.984375 0.828125 
Q 10.359375 2.34375 9.28125 4.8125 
Q 8.203125 7.28125 8.203125 15.1875 
L 8.203125 45.015625 
L 1.765625 45.015625 
L 1.765625 51.859375 
L 8.203125 51.859375 
L 8.203125 64.703125 
L 16.9375 69.96875 
L 16.9375 51.859375 
L 25.78125 51.859375 
L 25.78125 45.015625 
L 16.9375 45.015625 
L 16.9375 14.703125 
Q 16.9375 10.9375 17.40625 9.859375 
Q 17.875 8.796875 18.921875 8.15625 
Q 19.96875 7.515625 21.921875 7.515625 
Q 23.390625 7.515625 25.78125 7.859375 
z
" id="ArialMT-74"/>
      <path d="M 3.328125 25.921875 
Q 3.328125 40.328125 11.328125 47.265625 
Q 18.015625 53.03125 27.640625 53.03125 
Q 38.328125 53.03125 45.109375 46.015625 
Q 51.90625 39.015625 51.90625 26.65625 
Q 51.90625 16.65625 48.90625 10.90625 
Q 45.90625 5.171875 40.15625 2 
Q 34.421875 -1.171875 27.640625 -1.171875 
Q 16.75 -1.171875 10.03125 5.8125 
Q 3.328125 12.796875 3.328125 25.921875 
z
M 12.359375 25.921875 
Q 12.359375 15.96875 16.703125 11.015625 
Q 21.046875 6.0625 27.640625 6.0625 
Q 34.1875 6.0625 38.53125 11.03125 
Q 42.875 16.015625 42.875 26.21875 
Q 42.875 35.84375 38.5 40.796875 
Q 34.125 45.75 27.640625 45.75 
Q 21.046875 45.75 16.703125 40.8125 
Q 12.359375 35.890625 12.359375 25.921875 
z
" id="ArialMT-6f"/>
      <path d="M 6.59375 0 
L 6.59375 51.859375 
L 14.5 51.859375 
L 14.5 44.484375 
Q 20.21875 53.03125 31 53.03125 
Q 35.6875 53.03125 39.625 51.34375 
Q 43.5625 49.65625 45.515625 46.921875 
Q 47.46875 44.1875 48.25 40.4375 
Q 48.734375 37.984375 48.734375 31.890625 
L 48.734375 0 
L 39.9375 0 
L 39.9375 31.546875 
Q 39.9375 36.921875 38.90625 39.578125 
Q 37.890625 42.234375 35.28125 43.8125 
Q 32.671875 45.40625 29.15625 45.40625 
Q 23.53125 45.40625 19.453125 41.84375 
Q 15.375 38.28125 15.375 28.328125 
L 15.375 0 
z
" id="ArialMT-6e"/>
      <path d="M 89.796875 33.015625 
L 83.40625 0 
L 74.421875 0 
L 80.71875 32.71875 
Q 81.109375 34.8125 81.296875 36.328125 
Q 81.5 37.84375 81.5 38.921875 
Q 81.5 43.3125 79.046875 45.75 
Q 76.609375 48.1875 72.21875 48.1875 
Q 65.671875 48.1875 60.546875 43.28125 
Q 55.421875 38.375 53.90625 30.515625 
L 47.90625 0 
L 38.921875 0 
L 45.3125 32.71875 
Q 45.703125 34.515625 45.890625 36.046875 
Q 46.09375 37.59375 46.09375 38.8125 
Q 46.09375 43.265625 43.65625 45.71875 
Q 41.21875 48.1875 36.921875 48.1875 
Q 30.28125 48.1875 25.140625 43.28125 
Q 20.015625 38.375 18.5 30.515625 
L 12.5 0 
L 3.515625 0 
L 14.203125 54.6875 
L 23.1875 54.6875 
L 21.484375 46.1875 
Q 25.140625 50.984375 30.046875 53.484375 
Q 34.96875 56 40.578125 56 
Q 46.53125 56 50.359375 52.875 
Q 54.203125 49.75 54.984375 44.1875 
Q 59.078125 49.953125 64.46875 52.96875 
Q 69.875 56 75.875 56 
Q 82.90625 56 86.734375 51.953125 
Q 90.578125 47.90625 90.578125 40.484375 
Q 90.578125 38.875 90.375 36.9375 
Q 90.1875 35.015625 89.796875 33.015625 
z
" id="DejaVuSans-Oblique-6d"/>
      <path d="M 25.390625 72.90625 
L 33.6875 72.90625 
L 8.296875 -9.28125 
L 0 -9.28125 
z
" id="DejaVuSans-2f"/>
      <path d="M 50 53.078125 
L 48.296875 44.578125 
Q 44.734375 46.53125 40.765625 47.5 
Q 36.8125 48.484375 32.625 48.484375 
Q 25.53125 48.484375 21.453125 46.0625 
Q 17.390625 43.65625 17.390625 39.5 
Q 17.390625 34.671875 26.859375 32.078125 
Q 27.59375 31.890625 27.9375 31.78125 
L 30.8125 30.90625 
Q 39.796875 28.421875 42.796875 25.6875 
Q 45.796875 22.953125 45.796875 18.21875 
Q 45.796875 9.515625 38.890625 4.046875 
Q 31.984375 -1.421875 20.796875 -1.421875 
Q 16.453125 -1.421875 11.671875 -0.578125 
Q 6.890625 0.25 1.125 2 
L 2.875 11.28125 
Q 7.8125 8.734375 12.59375 7.421875 
Q 17.390625 6.109375 21.78125 6.109375 
Q 28.375 6.109375 32.5 8.9375 
Q 36.625 11.765625 36.625 16.109375 
Q 36.625 20.796875 25.78125 23.6875 
L 24.859375 23.921875 
L 21.78125 24.703125 
Q 14.9375 26.515625 11.765625 29.46875 
Q 8.59375 32.421875 8.59375 37.015625 
Q 8.59375 45.75 15.15625 50.875 
Q 21.734375 56 33.015625 56 
Q 37.453125 56 41.671875 55.265625 
Q 45.90625 54.546875 50 53.078125 
z
" id="DejaVuSans-Oblique-73"/>
      <path d="M 19.1875 8.296875 
L 53.609375 8.296875 
L 53.609375 0 
L 7.328125 0 
L 7.328125 8.296875 
Q 12.9375 14.109375 22.625 23.890625 
Q 32.328125 33.6875 34.8125 36.53125 
Q 39.546875 41.84375 41.421875 45.53125 
Q 43.3125 49.21875 43.3125 52.78125 
Q 43.3125 58.59375 39.234375 62.25 
Q 35.15625 65.921875 28.609375 65.921875 
Q 23.96875 65.921875 18.8125 64.3125 
Q 13.671875 62.703125 7.8125 59.421875 
L 7.8125 69.390625 
Q 13.765625 71.78125 18.9375 73 
Q 24.125 74.21875 28.421875 74.21875 
Q 39.75 74.21875 46.484375 68.546875 
Q 53.21875 62.890625 53.21875 53.421875 
Q 53.21875 48.921875 51.53125 44.890625 
Q 49.859375 40.875 45.40625 35.40625 
Q 44.1875 33.984375 37.640625 27.21875 
Q 31.109375 20.453125 19.1875 8.296875 
z
" id="DejaVuSans-32"/>
     </defs>
     <g transform="translate(30.9805 199.627732)rotate(-90)scale(0.14 -0.14)">
      <use transform="translate(0 0.765625)" xlink:href="#ArialMT-41"/>
      <use transform="translate(66.699219 0.765625)" xlink:href="#ArialMT-63"/>
      <use transform="translate(116.699219 0.765625)" xlink:href="#ArialMT-63"/>
      <use transform="translate(166.699219 0.765625)" xlink:href="#ArialMT-65"/>
      <use transform="translate(222.314453 0.765625)" xlink:href="#ArialMT-6c"/>
      <use transform="translate(244.53125 0.765625)" xlink:href="#ArialMT-65"/>
      <use transform="translate(300.146484 0.765625)" xlink:href="#ArialMT-72"/>
      <use transform="translate(333.447266 0.765625)" xlink:href="#ArialMT-61"/>
      <use transform="translate(389.0625 0.765625)" xlink:href="#ArialMT-74"/>
      <use transform="translate(416.845703 0.765625)" xlink:href="#ArialMT-69"/>
      <use transform="translate(439.0625 0.765625)" xlink:href="#ArialMT-6f"/>
      <use transform="translate(494.677734 0.765625)" xlink:href="#ArialMT-6e"/>
      <use transform="translate(550.292969 0.765625)" xlink:href="#ArialMT-20"/>
      <use transform="translate(578.076172 0.765625)" xlink:href="#ArialMT-5b"/>
      <use transform="translate(605.859375 0.765625)" xlink:href="#DejaVuSans-Oblique-6d"/>
      <use transform="translate(703.271484 0.765625)" xlink:href="#DejaVuSans-2f"/>
      <use transform="translate(736.962891 0.765625)" xlink:href="#DejaVuSans-Oblique-73"/>
      <use transform="translate(793.712396 39.046875)scale(0.7)" xlink:href="#DejaVuSans-32"/>
      <use transform="translate(840.982904 0.765625)" xlink:href="#ArialMT-5d"/>
     </g>
    </g>
   </g>
   <g id="line2d_31">
    <path clip-path="url(#paddd89abc9)" d="M 68.438312 118.842989 
L 73.941987 118.894928 
L 74.145826 118.752179 
L 74.349666 118.928099 
L 74.553505 118.657325 
L 74.757344 119.0491 
L 74.961183 118.359131 
L 75.165022 120.982773 
L 75.368862 114.811595 
L 75.572701 113.060702 
L 75.77654 106.812108 
L 75.980379 104.291769 
L 76.388058 94.20444 
L 76.795736 75.099695 
L 77.407262 63.194416 
L 77.611101 63.128199 
L 77.81494 71.781889 
L 78.426458 120.094999 
L 78.834136 162.639882 
L 79.241815 191.043497 
L 79.649493 218.677608 
L 79.853332 220.850224 
L 80.057172 219.034654 
L 80.261011 213.644546 
L 81.076376 177.367633 
L 81.891733 151.911621 
L 82.299411 122.194666 
L 82.910929 75.015622 
L 83.114768 68.448513 
L 83.318607 68.363701 
L 83.522446 70.03064 
L 84.133972 81.881839 
L 84.541651 86.027123 
L 85.153168 99.329496 
L 86.376203 148.283582 
L 86.580043 150.054566 
L 86.783882 150.412284 
L 86.987729 152.324429 
L 87.191569 149.140356 
L 87.803086 119.628656 
L 88.414604 81.03659 
L 88.822282 70.245147 
L 89.229961 64.642368 
L 89.4338 62.894577 
L 90.249165 48.467361 
L 90.453004 46.86125 
L 90.656843 49.228283 
L 91.064522 65.267363 
L 92.491396 151.736294 
L 93.918279 209.619133 
L 94.529796 217.759284 
L 94.733636 218.843765 
L 94.937475 216.804584 
L 95.345153 208.054625 
L 96.16051 180.719027 
L 96.772036 169.601518 
L 96.975875 164.02285 
L 97.383554 142.774445 
L 98.606589 61.008243 
L 99.014267 48.189076 
L 99.829624 31.064461 
L 100.033472 28.788581 
L 100.237311 28.544573 
L 100.44115 30.607211 
L 100.848828 41.300141 
L 101.256507 60.522726 
L 102.071864 122.810193 
L 102.88722 187.483264 
L 103.294907 200.901836 
L 103.498746 202.259375 
L 103.702586 201.938365 
L 103.906425 200.352015 
L 104.110264 196.757199 
L 104.517942 183.275674 
L 104.925621 157.403496 
L 106.148656 62.552932 
L 106.556343 51.115143 
L 106.964021 46.143096 
L 107.16786 44.980101 
L 107.371699 44.81663 
L 107.575539 46.244745 
L 107.779378 49.61352 
L 108.187056 64.891756 
L 108.594735 91.385733 
L 109.613931 180.372036 
L 110.225457 230.025476 
L 110.633135 247.865866 
L 110.836974 249.050891 
L 111.040813 246.629847 
L 111.448492 234.445585 
L 112.060009 208.401472 
L 112.671527 166.41481 
L 113.690731 88.634501 
L 114.302249 64.662689 
L 114.913767 47.920259 
L 115.321445 40.287316 
L 115.525284 38.952555 
L 115.729123 39.57659 
L 115.932963 41.667428 
L 116.340649 49.255165 
L 116.748328 60.296795 
L 117.156006 76.80137 
L 117.767524 109.788872 
L 118.58288 157.022211 
L 119.194398 182.66777 
L 119.602085 194.300722 
L 119.805924 196.487532 
L 120.009763 195.595589 
L 120.213602 191.557946 
L 120.621281 175.772953 
L 122.048155 104.333296 
L 122.86352 72.736156 
L 123.271199 63.241696 
L 123.475038 60.70583 
L 123.678877 59.669113 
L 123.882716 60.410827 
L 124.290395 65.653646 
L 124.698073 74.491017 
L 125.105752 88.466245 
L 125.717269 121.355913 
L 126.940313 187.799438 
L 127.55183 209.775346 
L 127.75567 212.412011 
L 127.959509 211.823196 
L 128.163348 207.453741 
L 128.571026 190.163411 
L 129.997909 102.856192 
L 130.813266 55.609373 
L 131.220944 43.484342 
L 131.628623 38.650855 
L 131.832462 38.0878 
L 132.036301 38.536032 
L 132.24014 39.946563 
L 132.443979 42.881622 
L 132.851666 54.49993 
L 133.259345 76.026544 
L 134.074701 134.970942 
L 135.297737 228.419152 
L 135.501576 237.127721 
L 135.705415 241.079022 
L 135.909263 240.633416 
L 136.113102 236.67829 
L 136.52078 221.660015 
L 136.928459 199.464262 
L 137.539976 150.24186 
L 138.355333 81.044222 
L 138.763011 59.06766 
L 139.170698 46.205437 
L 139.57841 39.067275 
L 139.782216 37.804033 
L 139.986022 38.387137 
L 140.189911 40.825392 
L 140.597606 50.312381 
L 141.209107 73.790261 
L 142.228303 124.052323 
L 143.04361 162.678569 
L 143.451305 172.757349 
L 143.859 177.128427 
L 144.062889 177.314403 
L 144.266695 176.104009 
L 144.67439 170.719544 
L 145.082085 160.78989 
L 145.693586 137.854522 
L 146.508893 107.944736 
L 147.120477 91.737748 
L 147.731978 81.123026 
L 148.139673 78.184142 
L 148.343479 77.986207 
L 148.547285 78.79667 
L 148.95498 82.747061 
L 149.362675 89.518327 
L 149.77037 100.083151 
L 150.58576 130.685772 
L 151.401067 160.717741 
L 152.012568 177.75542 
L 152.420263 184.423439 
L 152.624152 184.94461 
L 152.827958 183.388847 
L 153.031764 179.886408 
L 153.439459 166.577108 
L 154.254849 125.882774 
L 155.274045 74.24989 
L 155.68174 61.376142 
L 156.089352 54.383221 
L 156.293241 52.826073 
L 156.497047 52.565033 
L 156.700936 53.969436 
L 157.108631 60.55107 
L 157.516243 71.825778 
L 158.127827 99.483278 
L 159.350829 155.807644 
L 159.758524 167.949537 
L 160.166219 175.063077 
L 160.370025 176.103065 
L 160.573831 175.232217 
L 160.77772 172.235336 
L 161.389221 153.733345 
L 163.223807 88.309428 
L 163.631502 82.338443 
L 163.835308 81.662903 
L 164.039114 81.958747 
L 164.243003 83.213023 
L 164.650698 88.22924 
L 165.05831 97.027277 
L 165.8737 123.037844 
L 166.485201 140.445871 
L 167.096702 150.152816 
L 167.504397 154.077234 
L 167.708286 154.18824 
L 167.912092 153.129036 
L 168.319787 147.57895 
L 168.931288 132.150136 
L 170.358179 95.789584 
L 170.765874 88.465913 
L 171.173569 84.532409 
L 171.377375 83.662649 
L 171.581181 83.423451 
L 171.78507 83.909181 
L 172.192765 86.889107 
L 172.600377 92.661103 
L 173.211961 107.148586 
L 174.231157 132.764058 
L 174.842658 144.39067 
L 175.250353 149.318292 
L 175.454159 150.357499 
L 175.657965 150.511893 
L 175.861854 149.925134 
L 176.06566 148.772185 
L 176.473355 144.424258 
L 177.084856 134.514925 
L 178.104052 113.723177 
L 178.919442 96.590136 
L 179.327137 91.100802 
L 179.734832 87.74328 
L 179.938638 86.660201 
L 180.142444 86.209309 
L 180.346333 86.68105 
L 180.550139 88.095141 
L 180.957834 94.009735 
L 181.773224 112.471696 
L 182.588531 135.640702 
L 183.200116 151.60579 
L 183.607727 157.153488 
L 183.811616 158.122551 
L 184.015422 158.167962 
L 184.219312 157.460398 
L 184.423117 155.827617 
L 184.830812 149.437993 
L 185.442313 132.567185 
L 186.869204 86.490917 
L 187.2769 77.955721 
L 187.684511 73.456868 
L 187.8884 72.97458 
L 188.092206 73.617925 
L 188.296096 75.324453 
L 188.703707 81.960277 
L 189.111402 92.64147 
L 189.926792 124.081202 
L 190.742183 155.975152 
L 191.149794 166.225961 
L 191.353684 169.192789 
L 191.557489 170.517513 
L 191.761379 170.114921 
L 191.965184 168.107373 
L 192.37288 159.98723 
L 192.98438 140.718181 
L 194.411272 89.013414 
L 194.818967 81.233539 
L 195.226578 76.865121 
L 195.430468 76.217671 
L 195.634273 76.500605 
L 195.838163 77.786046 
L 196.245858 83.51513 
L 196.857359 98.026564 
L 197.876555 130.166598 
L 198.488056 148.483208 
L 198.895751 155.773987 
L 199.303446 158.927311 
L 199.507252 159.05982 
L 199.711057 158.190816 
L 200.118752 153.750105 
L 200.526448 146.129332 
L 201.545644 119.235065 
L 202.361034 100.26934 
L 202.972535 91.065692 
L 203.38023 87.934934 
L 203.584036 87.387441 
L 203.787925 87.5067 
L 203.991731 88.205595 
L 204.399426 91.275228 
L 204.807121 96.476759 
L 205.418622 107.760901 
L 207.049319 140.880241 
L 207.457014 145.263269 
L 207.864709 147.236115 
L 208.068515 146.956325 
L 208.27232 145.681074 
L 208.680016 140.018877 
L 209.2916 125.895892 
L 210.718408 90.582767 
L 211.126103 84.171454 
L 211.533798 81.242072 
L 211.737604 81.156589 
L 211.941493 81.954464 
L 212.349188 86.008264 
L 212.7568 93.675356 
L 213.368384 111.864142 
L 214.795192 159.062633 
L 215.202887 167.734987 
L 215.610582 171.605045 
L 215.814471 171.440988 
L 216.018277 169.837214 
L 216.425972 162.473691 
L 217.037473 143.3183 
L 218.66817 83.752832 
L 219.075865 75.661551 
L 219.48356 71.750434 
L 219.687366 71.434226 
L 219.891255 72.253791 
L 220.095061 74.18347 
L 220.502756 81.196118 
L 221.114257 98.694718 
L 222.744954 153.650232 
L 223.152649 160.342108 
L 223.356538 161.917801 
L 223.560344 162.137544 
L 223.76415 160.905766 
L 224.171845 154.210856 
L 224.783346 137.958551 
L 226.617932 84.329825 
L 227.025627 79.182179 
L 227.229433 77.776 
L 227.433322 77.17645 
L 227.637128 77.440015 
L 227.840934 78.629417 
L 228.248629 83.864876 
L 228.860213 97.333507 
L 230.083215 132.970942 
L 230.694716 148.70341 
L 231.102411 155.436999 
L 231.510106 158.685997 
L 231.713912 158.916764 
L 231.917801 158.220758 
L 232.325413 154.571786 
L 232.733108 148.282214 
L 233.344609 134.118452 
L 234.7715 97.59261 
L 235.383084 87.885665 
L 235.790696 84.609547 
L 235.994585 84.197682 
L 236.198391 84.594129 
L 236.40228 85.785868 
L 236.809892 90.577965 
L 237.217587 98.359455 
L 237.829088 114.59246 
L 239.052173 149.985418 
L 239.459868 157.094853 
L 239.86748 160.135445 
L 240.071369 160.016704 
L 240.275175 158.773537 
L 240.68287 152.808944 
L 241.294371 135.898173 
L 242.925151 85.440934 
L 243.332763 78.186394 
L 243.740458 74.940142 
L 243.944347 74.897621 
L 244.148153 75.783547 
L 244.555848 79.955501 
L 244.963543 87.672151 
L 245.575044 105.233508 
L 246.798046 142.625023 
L 247.205741 150.741214 
L 247.613436 154.911239 
L 247.817242 155.155782 
L 248.021131 154.137322 
L 248.428827 149.086404 
L 249.040327 136.2273 
L 250.467219 100.651441 
L 250.87483 94.515387 
L 251.282525 91.182172 
L 251.486415 90.580175 
L 251.69022 90.774718 
L 251.894026 91.78932 
L 252.301721 96.045695 
L 252.913222 106.738336 
L 254.951698 149.339132 
L 255.359309 152.320698 
L 255.563199 152.730081 
L 255.767004 152.351898 
L 255.970894 151.08869 
L 256.378505 146.082672 
L 256.99009 134.473211 
L 258.824592 95.271396 
L 259.232287 90.742753 
L 259.639983 88.264103 
L 259.843788 87.745116 
L 260.047678 87.849603 
L 260.251483 88.671148 
L 260.659179 92.163083 
L 261.270679 100.966714 
L 263.309071 137.440218 
L 263.716767 140.376476 
L 263.920572 140.924665 
L 264.124462 140.759928 
L 264.328267 139.824011 
L 264.735962 135.906672 
L 265.347463 126.014069 
L 266.774354 98.623232 
L 267.18205 93.473996 
L 267.589745 90.751167 
L 267.79355 90.376036 
L 267.99744 90.650241 
L 268.201246 91.620443 
L 268.608941 95.580787 
L 269.016636 102.132709 
L 269.628137 116.139149 
L 271.055028 150.704303 
L 271.462639 155.860576 
L 271.666529 156.989566 
L 271.870334 157.202137 
L 272.074224 156.490459 
L 272.27803 154.812361 
L 272.685725 148.799314 
L 273.297226 134.803927 
L 274.520311 103.639984 
L 275.131812 93.83066 
L 275.539507 90.797054 
L 275.743313 90.413874 
L 275.947118 90.771829 
L 276.151008 91.870367 
L 276.558703 95.981527 
L 277.170204 105.746257 
L 278.597095 131.962825 
L 279.004706 136.187762 
L 279.412402 137.904225 
L 279.616291 137.815155 
L 279.820097 137.089683 
L 280.227792 133.663259 
L 280.839293 124.778926 
L 282.266184 100.68882 
L 282.673879 96.383873 
L 283.081574 94.034748 
L 283.28538 93.639167 
L 283.489186 93.730388 
L 283.693075 94.316951 
L 284.10077 96.818234 
L 284.712271 103.298424 
L 285.527578 114.996978 
L 286.546774 129.523134 
L 287.158358 135.684243 
L 287.566053 137.976382 
L 287.769859 138.537065 
L 287.973665 138.664101 
L 288.177554 138.336955 
L 288.585249 136.316429 
L 288.992861 132.697833 
L 289.808251 122.694352 
L 290.827447 110.560692 
L 291.235142 107.551935 
L 291.642837 106.073352 
L 291.846643 105.943614 
L 292.050449 106.267377 
L 292.458144 108.2151 
L 293.069645 113.79586 
L 294.904231 133.659519 
L 295.311926 135.175778 
L 295.515732 135.202125 
L 295.719621 134.733495 
L 296.127316 132.233801 
L 296.534928 127.637812 
L 297.350318 114.6002 
L 298.369514 98.558155 
L 298.777209 94.201856 
L 299.184904 92.085147 
L 299.38871 91.978067 
L 299.592516 92.457669 
L 299.796405 93.453828 
L 300.2041 97.1511 
L 300.815601 106.535922 
L 302.242492 131.906357 
L 302.650187 136.477113 
L 303.057799 138.882408 
L 303.261688 139.083139 
L 303.465494 138.613378 
L 303.873189 135.747247 
L 304.280884 130.727239 
L 305.30008 113.865275 
L 305.911581 104.571091 
L 306.319276 100.345219 
L 306.726971 98.091777 
L 306.930777 97.784995 
L 307.134666 98.055027 
L 307.338472 98.894862 
L 307.746167 102.341191 
L 308.357668 111.233545 
L 309.988365 139.122583 
L 310.39606 142.856155 
L 310.599866 143.852033 
L 310.803755 144.273952 
L 311.007561 144.091477 
L 311.21145 143.299449 
L 311.619062 139.947927 
L 312.230646 131.408439 
L 314.065149 101.759167 
L 314.472844 97.870682 
L 314.880539 95.792134 
L 315.084345 95.483618 
L 315.288234 95.638114 
L 315.49204 96.265668 
L 315.899735 98.78989 
L 316.30743 103.075986 
L 317.122737 114.785285 
L 318.345822 132.388892 
L 318.753517 135.935442 
L 318.957323 136.916565 
L 319.161129 137.309384 
L 319.365018 137.146329 
L 319.568824 136.526178 
L 319.976519 133.99598 
L 320.384214 129.661601 
L 321.199605 117.23679 
L 322.218801 101.241216 
L 322.830301 94.948185 
L 323.237997 93.332036 
L 323.441802 93.462888 
L 323.645608 94.103811 
L 324.053303 97.068566 
L 324.460998 102.102784 
L 325.072499 113.228191 
L 326.49939 140.770314 
L 326.907085 145.25222 
L 327.110891 146.465147 
L 327.314781 146.813167 
L 327.518586 146.406954 
L 327.926281 143.51445 
L 328.333977 138.387023 
L 328.945477 127.233413 
L 330.168479 103.977023 
L 330.780064 97.138666 
L 331.187675 95.35535 
L 331.391565 95.417937 
L 331.59537 96.108137 
L 332.003065 99.285496 
L 332.410761 104.36345 
L 333.226151 118.542497 
L 334.041457 132.59502 
L 334.449153 137.2709 
L 334.856848 139.585085 
L 335.060653 139.889794 
L 335.264543 139.590813 
L 335.468349 138.679688 
L 335.876044 135.05419 
L 336.487545 126.609629 
L 337.914436 104.507748 
L 338.525937 98.670223 
L 338.933632 96.823461 
L 339.137437 96.510551 
L 339.341327 96.595066 
L 339.545133 97.130516 
L 339.952828 99.498823 
L 340.564329 105.878426 
L 341.379719 117.624163 
L 342.398915 131.321078 
L 342.80661 134.763939 
L 343.214221 136.473891 
L 343.418111 136.650324 
L 343.621917 136.306944 
L 344.029612 134.156307 
L 344.437307 130.392691 
L 345.252613 119.891357 
L 346.271893 107.322069 
L 346.883394 102.646078 
L 347.291089 101.366 
L 347.494895 101.276564 
L 347.698701 101.569705 
L 347.90259 102.270487 
L 348.310285 105.021023 
L 348.921786 112.009692 
L 350.756289 136.886479 
L 351.163984 139.238995 
L 351.367873 139.548344 
L 351.571679 139.268724 
L 351.775485 138.4508 
L 352.18318 135.238399 
L 352.794764 127.101023 
L 354.425461 102.604178 
L 354.833156 99.161231 
L 355.240768 97.554857 
L 355.444657 97.502953 
L 355.648463 97.931646 
L 356.056158 100.287876 
L 356.463853 104.26351 
L 357.27916 115.452722 
L 358.298356 129.944773 
L 358.706051 133.790184 
L 359.113746 135.789564 
L 359.317635 135.98766 
L 359.521441 135.646295 
L 359.725247 134.741102 
L 360.132942 131.437226 
L 360.744443 123.805769 
L 361.967528 107.448263 
L 362.375223 103.917326 
L 362.782835 102.005971 
L 362.986724 101.690307 
L 363.19053 101.805061 
L 363.394419 102.305979 
L 363.802031 104.413484 
L 364.413615 109.875103 
L 366.248118 128.850229 
L 366.655813 131.159901 
L 367.063508 132.179568 
L 367.267314 132.153102 
L 367.471203 131.795852 
L 367.878898 130.107972 
L 368.490399 125.53933 
L 370.324902 109.031503 
L 370.732597 107.036968 
L 371.140292 106.156762 
L 371.344098 106.151263 
L 371.547987 106.436441 
L 371.955682 107.80219 
L 372.567183 111.495671 
L 373.586379 119.95342 
L 374.401769 126.358032 
L 374.809381 128.51098 
L 375.217076 129.671315 
L 375.420965 129.806119 
L 375.624771 129.595606 
L 375.828577 129.06585 
L 376.236272 127.063957 
L 376.847773 122.153736 
L 378.478553 107.387342 
L 378.886248 105.781622 
L 379.090054 105.492738 
L 379.29386 105.544107 
L 379.497749 105.937316 
L 379.905444 107.752436 
L 380.516945 112.470032 
L 382.147642 127.5291 
L 382.555337 129.452855 
L 382.759143 129.928846 
L 382.963032 130.065188 
L 383.166838 129.828047 
L 383.370644 129.228752 
L 383.778339 126.927059 
L 384.38984 121.397836 
L 385.816731 106.853243 
L 386.224426 104.377576 
L 386.632121 103.372247 
L 386.835927 103.455002 
L 387.039816 103.929854 
L 387.447511 105.966247 
L 387.855123 109.302377 
L 388.874319 120.733837 
L 389.689709 128.81336 
L 390.097404 131.185101 
L 390.505099 132.188484 
L 390.708905 132.146634 
L 390.912711 131.779772 
L 391.320406 130.084115 
L 391.728101 127.16266 
L 392.747297 117.337298 
L 393.562687 109.978656 
L 393.970383 107.598509 
L 394.377994 106.462244 
L 394.581883 106.358904 
L 394.785689 106.573097 
L 395.193384 107.831222 
L 395.601079 110.208199 
L 396.21258 115.471771 
L 397.435582 126.484373 
L 397.843277 128.814873 
L 398.250972 129.974749 
L 398.454862 130.079542 
L 398.658667 129.89337 
L 399.066363 128.671672 
L 399.474058 126.47695 
L 400.085559 121.668884 
L 401.920061 105.351994 
L 402.327756 103.332777 
L 402.735451 102.399937 
L 402.939257 102.382955 
L 403.143147 102.682335 
L 403.550842 104.239865 
L 403.958453 107.02212 
L 404.570038 112.968035 
L 405.996929 128.022947 
L 406.40454 130.605405 
L 406.812235 131.782313 
L 407.016125 131.836469 
L 407.219931 131.524358 
L 407.627626 129.893702 
L 408.035321 127.055164 
L 408.850627 119.205088 
L 409.869823 109.602334 
L 410.277519 107.266434 
L 410.685214 106.070828 
L 410.889019 106.006167 
L 411.092909 106.324278 
L 411.500604 108.079905 
L 411.908215 111.144979 
L 412.723606 119.791852 
L 413.742802 130.427129 
L 414.150497 132.825999 
L 414.354303 133.448487 
L 414.558192 133.651649 
L 414.761998 133.465995 
L 414.965803 132.880452 
L 415.373499 130.563955 
L 415.984999 124.819674 
L 417.61578 107.915261 
L 418.023475 105.368796 
L 418.431087 103.981553 
L 418.634976 103.725417 
L 418.838782 103.767402 
L 419.042671 104.098942 
L 419.450283 105.599206 
L 420.061867 109.613808 
L 421.89637 124.06203 
L 422.304065 125.626091 
L 422.507871 126.014714 
L 422.71176 126.116513 
L 422.915566 125.97891 
L 423.323261 124.8735 
L 423.730956 122.856686 
L 425.769348 110.576034 
L 426.177043 109.548136 
L 426.380849 109.322851 
L 426.584738 109.290444 
L 426.788544 109.46017 
L 427.196239 110.431668 
L 427.603934 112.278754 
L 428.215435 116.261302 
L 429.846132 128.313955 
L 430.253827 130.027911 
L 430.661522 130.727137 
L 430.865328 130.688671 
L 431.069217 130.361567 
L 431.476829 128.852949 
L 432.088413 124.837317 
L 433.922916 110.540681 
L 434.330611 108.862967 
L 434.738306 108.164292 
L 434.942112 108.197175 
L 435.146001 108.454858 
L 435.553613 109.693495 
L 436.165197 113.058712 
L 437.9997 125.028009 
L 438.407395 125.973502 
L 438.611284 126.01083 
L 438.81509 125.77387 
L 439.222785 124.435119 
L 439.63048 122.061881 
L 440.445787 115.637306 
L 441.261177 109.369298 
L 441.668872 107.232115 
L 442.076484 106.069128 
L 442.280373 105.905079 
L 442.484179 106.034656 
L 442.891874 107.16385 
L 443.299569 109.280874 
L 443.91107 113.805611 
L 445.337961 125.317554 
L 445.745656 127.366836 
L 446.153351 128.517287 
L 446.357157 128.652881 
L 446.560963 128.538007 
L 446.968658 127.58935 
L 447.376353 125.783002 
L 448.599355 118.050236 
L 449.210939 114.675043 
L 449.618551 113.198275 
L 450.026246 112.453471 
L 450.230135 112.383251 
L 450.433941 112.512115 
L 450.841636 113.305655 
L 451.249331 114.611996 
L 451.860832 117.428898 
L 453.083834 123.271241 
L 453.695418 125.153212 
L 454.10303 125.625438 
L 454.306919 125.595609 
L 454.510725 125.382321 
L 454.91842 124.426359 
L 455.326115 122.788369 
L 456.141422 118.057558 
L 457.364507 110.655174 
L 457.976008 108.509456 
L 458.383703 107.981341 
L 458.587509 108.038948 
L 458.791398 108.301833 
L 459.199094 109.378817 
L 459.810594 112.108676 
L 461.645097 122.4006 
L 462.052792 123.6421 
L 462.460487 124.112409 
L 462.664293 124.027806 
L 463.071988 123.244877 
L 463.479683 121.802314 
L 464.091184 118.667737 
L 465.11038 113.254964 
L 465.518075 111.941033 
L 465.92577 111.421321 
L 466.129576 111.469515 
L 466.333466 111.736982 
L 466.741161 112.994686 
L 467.352662 116.207744 
L 469.187164 127.44881 
L 469.594859 128.511065 
L 469.798749 128.701079 
L 470.002554 128.645308 
L 470.206444 128.382678 
L 470.614055 127.241977 
L 471.02175 125.286692 
L 471.837141 119.812518 
L 472.856337 113.050949 
L 473.467837 110.513779 
L 473.875533 109.885676 
L 474.079338 109.903108 
L 474.283228 110.115278 
L 474.690839 111.11723 
L 475.302424 113.746523 
L 476.729315 120.871569 
L 477.136926 121.983469 
L 477.544621 122.452659 
L 477.748511 122.401774 
L 478.156122 121.791866 
L 478.563817 120.613132 
L 479.175318 118.050994 
L 480.602209 111.570902 
L 481.009905 110.442316 
L 481.4176 109.849258 
L 481.621405 109.784716 
L 481.825295 109.901297 
L 482.232906 110.666592 
L 482.640601 112.064012 
L 483.252186 115.158343 
L 485.086689 125.691994 
L 485.494384 126.939389 
L 485.902079 127.465094 
L 486.105885 127.430205 
L 486.309774 127.210143 
L 486.717385 126.237353 
L 487.125081 124.643598 
L 487.940471 120.209459 
L 488.959667 114.639291 
L 489.571168 112.499337 
L 489.978863 111.94677 
L 490.182669 111.952986 
L 490.386558 112.141572 
L 490.794253 113.051853 
L 491.201865 114.591784 
L 492.221061 119.941206 
L 492.832645 122.821382 
L 493.240257 124.045245 
L 493.647952 124.559168 
L 493.851841 124.502312 
L 494.055647 124.235586 
L 494.463342 123.052861 
L 495.074843 120.05169 
L 496.70554 110.618673 
L 497.113235 109.259524 
L 497.52093 108.682667 
L 497.724736 108.696062 
L 497.928625 108.927806 
L 498.33632 109.983968 
L 498.947821 112.804822 
L 500.782324 123.18481 
L 501.190019 124.360656 
L 501.597714 124.80416 
L 501.80152 124.759141 
L 502.209215 124.090005 
L 502.61691 122.817753 
L 504.859191 114.281654 
L 505.266803 113.824293 
L 505.470692 113.816574 
L 505.878387 114.210224 
L 506.285999 115.102117 
L 506.897583 117.131989 
L 508.324391 122.370562 
L 508.935975 123.541854 
L 509.139781 123.72321 
L 509.34367 123.754643 
L 509.547476 123.641302 
L 509.955171 123.007968 
L 510.362866 121.86809 
L 511.178173 118.618292 
L 512.401258 113.614783 
L 513.012759 112.186243 
L 513.420454 111.840054 
L 513.62426 111.863311 
L 514.031955 112.317485 
L 514.43965 113.255098 
L 515.051151 115.467453 
L 516.681848 122.177518 
L 517.089543 123.045439 
L 517.293349 123.258242 
L 517.497238 123.307968 
L 517.701044 123.194735 
L 518.108739 122.496459 
L 518.516434 121.267387 
L 519.331741 117.648898 
L 520.350937 113.095688 
L 520.758632 111.989216 
L 521.166327 111.493159 
L 521.370133 111.507981 
L 521.574022 111.709592 
L 521.981717 112.601396 
L 522.389412 114.088196 
L 523.204719 118.212839 
L 524.223915 123.400795 
L 524.63161 124.710205 
L 525.039305 125.318032 
L 525.243111 125.357509 
L 525.447 125.207663 
L 525.854612 124.293612 
L 526.262307 122.709109 
L 527.281503 117.233365 
L 528.096893 113.237813 
L 528.504588 111.967167 
L 528.912284 111.423197 
L 529.116089 111.421735 
L 529.319895 111.604843 
L 529.72759 112.499737 
L 530.339091 114.940054 
L 532.173677 123.569924 
L 532.581372 124.507231 
L 532.989068 124.805018 
L 533.192873 124.711627 
L 533.600568 124.046323 
L 534.008264 122.799922 
L 534.82357 119.214573 
L 536.046656 113.606249 
L 536.658156 111.878228 
L 537.065852 111.430479 
L 537.269657 111.430695 
L 537.473547 111.567452 
L 537.881158 112.282841 
L 538.492743 114.264254 
L 540.531135 122.503944 
L 540.938746 123.232675 
L 541.142636 123.386609 
L 541.346441 123.387864 
L 541.550331 123.242776 
L 541.958026 122.52032 
L 542.569527 120.531238 
L 544.607919 112.422107 
L 545.015614 111.858795 
L 545.21942 111.801067 
L 545.423225 111.898694 
L 545.83092 112.610583 
L 546.238616 113.92732 
L 546.850116 116.767202 
L 548.073202 123.085257 
L 548.684703 124.994307 
L 549.092398 125.470546 
L 549.296204 125.450962 
L 549.500093 125.251275 
L 549.907704 124.346909 
L 550.519289 121.944847 
L 552.353792 113.459975 
L 552.761487 112.566038 
L 552.965292 112.352498 
L 553.169182 112.3002 
L 553.372988 112.396983 
L 553.780683 113.059819 
L 554.188378 114.270021 
L 555.003768 117.803077 
L 556.022964 122.115478 
L 556.430576 123.157863 
L 556.838271 123.604916 
L 557.04216 123.569617 
L 557.449772 122.997618 
L 557.857467 121.871501 
L 558.468968 119.424912 
L 559.895859 113.33674 
L 560.303554 112.318001 
L 560.711249 111.827407 
L 560.915055 111.787702 
L 561.118944 111.884071 
L 561.526639 112.471323 
L 561.934251 113.497014 
L 562.749641 116.504493 
L 563.972643 121.243937 
L 564.584227 122.73918 
L 564.991839 123.131193 
L 565.195728 123.135417 
L 565.603423 122.790182 
L 566.011035 122.013688 
L 566.622619 120.245141 
L 568.04951 115.646639 
L 568.457122 114.819706 
L 568.864817 114.39232 
L 569.272512 114.444156 
L 569.680207 114.959891 
L 570.291708 116.49278 
L 571.310904 120.095615 
L 572.126294 122.758336 
L 572.533906 123.587884 
L 572.941601 123.952306 
L 573.14549 123.925636 
L 573.349296 123.769215 
L 573.756991 123.029526 
L 574.164686 121.809338 
L 574.979993 118.429358 
L 575.999189 114.27945 
L 576.406884 113.151883 
L 576.814579 112.562764 
L 577.018385 112.471659 
L 577.222274 112.518714 
L 577.629969 113.012334 
L 578.037581 113.945269 
L 578.852971 116.648835 
L 579.872167 119.898416 
L 580.279862 120.722499 
L 580.687557 121.120025 
L 581.095252 121.018788 
L 581.502864 120.503634 
L 582.114448 119.062239 
L 583.745145 114.554339 
L 584.15284 114.027158 
L 584.560452 113.897546 
L 584.968147 114.236894 
L 585.375842 114.994799 
L 585.987343 116.722332 
L 587.618123 121.967741 
L 588.025735 122.762071 
L 588.43343 123.180676 
L 588.841125 123.186528 
L 589.24882 122.854889 
L 589.860321 121.761308 
L 592.102519 116.662663 
L 592.510214 116.327569 
L 592.917909 116.295661 
L 593.325604 116.549013 
L 593.733299 117.038436 
L 595.567802 119.897004 
L 595.975497 120.09805 
L 596.383192 120.000949 
L 596.790887 119.620279 
L 597.198582 118.9587 
L 597.810083 117.54405 
L 599.44078 113.313104 
L 599.848475 112.727421 
L 600.25617 112.514479 
L 600.663866 112.692838 
L 601.071477 113.300042 
L 601.683062 114.833538 
L 602.702258 118.384851 
L 603.517564 120.916292 
L 603.925259 121.748398 
L 604.332954 122.161017 
L 604.74065 122.166802 
L 605.148261 121.765554 
L 605.759846 120.60142 
L 607.390542 116.923818 
L 607.798238 116.50407 
L 608.205933 116.47897 
L 608.613544 116.822775 
L 609.021239 117.540275 
L 609.63274 119.167773 
L 610.855826 122.603062 
L 611.263521 123.269232 
L 611.671132 123.505953 
L 611.875022 123.438396 
L 612.282717 122.924355 
L 612.690328 121.961068 
L 613.301913 119.915164 
L 614.93261 113.945267 
L 615.54411 112.671444 
L 615.951806 112.307189 
L 616.359501 112.379006 
L 616.767196 112.81839 
L 617.174807 113.586793 
L 617.990198 115.821444 
L 619.009394 118.731996 
L 619.620894 119.843191 
L 620.02859 120.184361 
L 620.436285 120.156325 
L 620.84398 119.787066 
L 621.455481 118.781749 
L 622.882372 116.055949 
L 623.290067 115.656347 
L 623.697678 115.527997 
L 624.105374 115.695549 
L 624.513069 116.181503 
L 625.12457 117.441905 
L 626.143766 120.470948 
L 626.959156 122.819732 
L 627.570657 123.898348 
L 627.978352 124.118909 
L 628.386047 123.893235 
L 628.793742 123.212878 
L 629.405243 121.552786 
L 631.239746 115.523157 
L 631.647441 114.793387 
L 632.055136 114.429975 
L 632.462831 114.468077 
L 632.870526 114.836914 
L 633.482027 115.929574 
L 635.112724 119.45548 
L 635.520419 119.866695 
L 635.928114 119.932631 
L 636.335809 119.626577 
L 636.743421 118.97822 
L 637.355005 117.517108 
L 638.578007 114.417976 
L 638.985702 113.797306 
L 639.393397 113.57542 
L 639.801092 113.762612 
L 640.208704 114.326743 
L 640.820288 115.804521 
L 643.062486 122.019897 
L 643.470181 122.450184 
L 643.877876 122.538596 
L 644.285488 122.281485 
L 644.693183 121.732356 
L 645.508573 120.063033 
L 646.527769 117.856136 
L 647.13927 117.056915 
L 647.546965 116.843922 
L 647.95466 116.904871 
L 648.362355 117.243386 
L 648.973856 118.099238 
L 650.604553 120.747656 
L 651.012248 121.057698 
L 651.419943 121.131669 
L 651.827555 120.921054 
L 652.23525 120.42332 
L 652.846834 119.22775 
L 655.089032 114.039124 
L 655.496727 113.726932 
L 655.904422 113.768994 
L 656.312034 114.149871 
L 656.923618 115.309517 
L 658.96201 120.107473 
L 659.369705 120.506782 
L 659.777317 120.592892 
L 660.185012 120.349918 
L 660.592707 119.846327 
L 661.408097 118.291808 
L 662.223404 116.740414 
L 662.834905 116.069255 
L 663.2426 115.997498 
L 663.650295 116.253439 
L 664.05799 116.840581 
L 664.669491 118.169813 
L 666.300188 122.086963 
L 666.707883 122.56456 
L 667.115578 122.731363 
L 667.523273 122.548564 
L 667.930969 122.056429 
L 668.542469 120.811438 
L 670.580861 116.007027 
L 670.988557 115.556846 
L 671.396168 115.391809 
L 671.803863 115.525855 
L 672.211558 115.915985 
L 672.823059 116.83371 
L 674.046145 118.852601 
L 674.657645 119.382743 
L 675.065341 119.449824 
L 675.473036 119.289714 
L 675.880647 118.903606 
L 676.492232 118.022217 
L 677.919039 115.708901 
L 678.530624 115.182479 
L 678.938319 115.115566 
L 679.34593 115.316934 
L 679.957515 116.095176 
L 680.569016 117.356216 
L 682.199712 121.088361 
L 682.811213 121.812682 
L 683.218908 121.927324 
L 683.626604 121.738132 
L 684.034299 121.296013 
L 684.6458 120.262076 
L 686.276496 117.156399 
L 686.684192 116.730992 
L 687.091887 116.546521 
L 687.499582 116.619072 
L 687.907193 116.954196 
L 688.518778 117.860059 
L 690.149475 120.69447 
L 690.55717 120.965465 
L 690.964781 120.929939 
L 691.372476 120.568628 
L 691.984061 119.50328 
L 694.022453 115.041983 
L 694.430064 114.670163 
L 694.83776 114.605497 
L 695.245455 114.837606 
L 695.65315 115.339997 
L 696.468456 116.911377 
L 697.691542 119.516341 
L 698.303043 120.322166 
L 698.710738 120.53973 
L 699.118433 120.513928 
L 699.526128 120.233207 
L 700.137629 119.447941 
L 701.768326 117.050221 
L 702.176021 116.735674 
L 702.583716 116.629133 
L 702.991328 116.710788 
L 703.602912 117.189641 
L 704.418219 118.314853 
L 705.84511 120.388809 
L 706.456611 120.866318 
L 706.864306 120.929212 
L 707.272001 120.772204 
L 707.883502 120.141033 
L 708.698892 118.818709 
L 709.718088 117.149023 
L 710.329589 116.517132 
L 710.737284 116.361126 
L 711.144979 116.42627 
L 711.552674 116.684655 
L 712.164175 117.389472 
L 713.998678 119.696126 
L 714.406373 119.848813 
L 714.814068 119.799246 
L 715.221763 119.522315 
L 715.833264 118.772895 
L 717.66785 116.055335 
L 718.075545 115.796291 
L 718.483157 115.734337 
L 718.890852 115.910463 
L 719.298547 116.291599 
L 719.910048 117.159658 
L 721.336939 119.410116 
L 721.744634 119.808691 
L 722.152329 120.026492 
L 722.559941 120.03401 
L 722.967636 119.864327 
L 723.579137 119.308642 
L 725.209917 117.52068 
L 725.617612 117.331666 
L 726.025224 117.332727 
L 726.432919 117.523383 
L 727.04442 118.122962 
L 729.082812 120.620283 
L 729.490507 120.791137 
L 729.898202 120.766898 
L 730.305897 120.564499 
L 730.917398 119.931639 
L 731.732788 118.637919 
L 732.95579 116.707224 
L 733.567291 116.127064 
L 733.974986 115.952948 
L 734.382681 115.990278 
L 734.994182 116.349777 
L 735.809572 117.236456 
L 736.624879 118.225016 
L 736.624879 118.225016 
" style="fill:none;stroke:#d69e70;stroke-linecap:square;stroke-width:1.5;"/>
   </g>
   <g id="line2d_32">
    <path clip-path="url(#paddd89abc9)" d="M 68.051336 118.619399 
L 68.573166 118.17158 
L 69.094996 118.161402 
L 69.61766 118.812776 
L 70.13949 118.945086 
L 70.66132 118.680466 
L 70.66132 118.680466 
L 71.18315 119.250418 
L 71.704979 119.14864 
L 72.226809 119.270773 
L 72.749473 119.067219 
L 73.272138 119.626993 
L 73.793968 119.677882 
L 73.793968 119.677882 
L 74.315797 119.087574 
L 74.837627 119.280951 
L 75.881287 106.935383 
L 76.924946 81.755716 
L 76.924946 81.755716 
L 77.447611 77.867829 
L 77.96944 99.607428 
L 78.49127 133.427974 
L 79.0131 159.717012 
L 79.534929 178.667917 
L 80.056759 176.683262 
L 80.056759 176.683262 
L 80.578589 162.800859 
L 81.100418 152.5519 
L 81.622248 147.534287 
L 82.144913 130.710524 
L 82.667577 97.846683 
L 83.190242 81.358785 
L 83.190242 81.358785 
L 83.712072 96.106294 
L 84.233901 99.790627 
L 84.755731 109.724077 
L 85.800225 135.738316 
L 86.32289 140.420064 
L 86.32289 140.420064 
L 86.84472 135.789204 
L 87.366549 117.214875 
L 87.888379 93.622932 
L 88.411044 81.246831 
L 88.932873 77.582853 
L 89.454703 68.819841 
L 89.454703 68.819841 
L 89.976533 62.784456 
L 90.499197 70.081877 
L 91.543692 124.542829 
L 92.065521 140.308109 
L 93.63101 173.599415 
L 94.153675 178.69845 
L 94.67634 179.288757 
L 95.199004 171.97098 
L 95.721669 158.393909 
L 96.766998 145.91603 
L 97.288828 127.341701 
L 97.810657 98.243614 
L 98.332487 76.463305 
L 99.377816 51.49737 
L 99.900481 44.291548 
L 100.422311 51.94519 
L 100.94414 71.812089 
L 102.509629 154.953841 
L 103.031459 168.144159 
L 103.554124 169.843838 
L 104.076788 164.123962 
L 104.598618 152.348346 
L 105.120448 127.270457 
L 105.120448 127.270457 
L 105.642277 95.119056 
L 106.164107 72.646662 
L 106.685937 63.842938 
L 107.207766 61.634374 
L 107.729596 65.959903 
L 108.251426 84.819208 
L 109.81775 171.004097 
L 110.339579 191.725925 
L 110.861409 195.735944 
L 111.905903 161.335268 
L 113.472227 88.065899 
L 114.516722 62.8557 
L 115.039386 56.535339 
L 115.562051 59.547943 
L 116.083881 70.234543 
L 116.606545 84.747964 
L 118.172034 144.552217 
L 118.694699 157.925734 
L 119.217364 166.831234 
L 119.740028 166.444481 
L 120.261858 155.330417 
L 121.306352 121.082406 
L 122.872676 80.544568 
L 123.394506 76.229217 
L 123.91717 79.46573 
L 124.439835 87.292393 
L 124.961665 102.202745 
L 126.005324 141.244459 
L 127.048983 170.027037 
L 127.048983 170.027037 
L 127.570813 177.029304 
L 128.092643 170.658055 
L 128.614473 155.84948 
L 129.658132 115.138621 
L 130.702626 69.277838 
L 131.224456 57.614177 
L 131.747121 54.937438 
L 132.269785 60.026295 
L 132.791615 73.705144 
L 135.401598 189.771803 
L 135.923428 192.275521 
L 136.445258 183.156289 
L 136.445258 183.156289 
L 136.967087 165.101023 
L 137.489752 141.203748 
L 138.535081 82.915976 
L 139.056911 56.667649 
L 139.579575 57.227424 
L 139.579575 57.227424 
L 140.10224 67.832602 
L 141.669399 120.461566 
L 142.191229 137.824747 
L 142.713893 149.783562 
L 142.713893 149.783562 
L 143.236558 155.941079 
L 143.758388 155.49326 
L 144.280217 152.745277 
L 144.802047 144.328307 
L 146.367536 107.88191 
L 147.41203 92.136985 
L 147.93386 89.796111 
L 148.45569 91.821476 
L 148.977519 98.213081 
L 149.499349 108.502751 
L 151.065673 145.285012 
L 151.587503 153.549316 
L 152.109332 160.012165 
L 152.109332 160.012165 
L 152.631997 158.546574 
L 153.153827 150.679201 
L 154.198321 118.680466 
L 155.242815 82.346024 
L 155.764645 72.107243 
L 156.28731 69.49157 
L 156.809974 74.906114 
L 157.332639 86.152489 
L 158.898128 135.982581 
L 159.419958 147.473221 
L 159.941787 154.170157 
L 160.464452 155.035263 
L 160.986282 148.185661 
L 163.07527 100.034892 
L 163.5971 94.722125 
L 164.11893 94.956212 
L 164.640759 99.129075 
L 164.640759 99.129075 
L 165.162589 107.311958 
L 166.206248 130.01844 
L 166.728078 137.030885 
L 167.249908 142.282586 
L 167.771737 139.117317 
L 167.771737 139.117317 
L 169.859891 104.289177 
L 170.381721 97.561707 
L 170.90355 94.752658 
L 170.90355 94.752658 
L 171.42538 96.075761 
L 171.948045 98.894988 
L 172.470709 106.019388 
L 173.514369 124.878694 
L 174.037033 132.308426 
L 174.037033 132.308426 
L 174.559698 136.91893 
L 175.081528 139.931534 
L 175.603357 139.320871 
L 176.125187 136.196313 
L 176.647017 131.595986 
L 177.691511 117.510028 
L 178.73517 102.843941 
L 179.257 98.935699 
L 179.77883 96.859445 
L 180.300659 98.986587 
L 180.300659 98.986587 
L 180.823324 105.408725 
L 182.910643 140.511664 
L 183.432472 144.257063 
L 183.432472 144.257063 
L 183.954302 144.287596 
L 184.476132 141.15286 
L 184.997962 134.364324 
L 186.563451 99.709205 
L 186.563451 99.709205 
L 187.086115 91.027614 
L 187.607945 85.898046 
L 188.13061 87.587547 
L 188.653274 95.465098 
L 189.175104 105.724235 
L 190.740593 145.498744 
L 191.263257 151.869993 
L 191.785087 151.208442 
L 192.306917 146.312961 
L 193.351411 123.270615 
L 193.874076 109.245724 
L 194.39674 98.905166 
L 194.919405 92.523739 
L 195.441235 91.220991 
L 196.485729 106.90485 
L 198.051218 139.50407 
L 198.573048 143.87031 
L 199.094877 145.122169 
L 199.094877 145.122169 
L 199.616707 142.730406 
L 200.138537 136.929108 
L 202.225856 103.434249 
L 202.747685 99.841515 
L 203.27035 98.386102 
L 203.79218 99.068009 
L 204.314009 103.200161 
L 204.835839 108.797904 
L 206.402998 130.710524 
L 206.925662 135.544939 
L 207.448327 137.539771 
L 207.970157 137.376928 
L 208.491986 132.074338 
L 208.491986 132.074338 
L 209.536481 115.891772 
L 210.05831 105.764945 
L 211.102805 93.327778 
L 211.625469 93.276889 
L 211.625469 93.276889 
L 212.147299 97.10371 
L 212.669129 104.45202 
L 214.235453 138.343811 
L 214.757282 146.903269 
L 214.757282 146.903269 
L 215.279112 151.747861 
L 215.800942 152.28728 
L 216.322771 147.045757 
L 216.845436 137.336217 
L 218.41176 98.325036 
L 218.93359 89.215981 
L 219.455419 85.12454 
L 219.977249 87.12955 
L 220.499079 94.182706 
L 221.021743 104.828596 
L 221.021743 104.828596 
L 222.587233 146.241717 
L 223.109062 146.94398 
L 223.630892 143.056092 
L 224.674551 124.80745 
L 225.718211 102.782875 
L 226.240875 93.806131 
L 226.76354 90.213397 
L 227.28537 90.213397 
L 227.28537 90.213397 
L 227.807199 94.467682 
L 228.329029 102.925363 
L 229.894518 132.8682 
L 230.417183 140.379353 
L 230.417183 140.379353 
L 230.939847 145.264657 
L 231.461677 145.610699 
L 231.983507 142.333475 
L 232.505336 137.600837 
L 234.592655 103.647981 
L 235.114485 97.520996 
L 235.636314 94.96639 
L 236.158979 96.452336 
L 236.681644 101.846525 
L 236.681644 101.846525 
L 237.203473 109.255902 
L 238.770632 139.402293 
L 239.292462 145.020391 
L 239.814292 147.035579 
L 240.336121 144.430084 
L 240.857951 136.257379 
L 242.946105 93.470266 
L 242.946105 93.470266 
L 243.467934 89.26687 
L 243.989764 88.605318 
L 244.511594 92.788359 
L 245.034258 100.930531 
L 246.599747 132.613757 
L 247.121577 139.656736 
L 247.643407 143.127336 
L 248.165236 141.254637 
L 248.687066 136.145424 
L 250.776055 99.922937 
L 251.297884 100.289335 
L 251.819714 103.902424 
L 252.342379 109.245724 
L 252.342379 109.245724 
L 253.386873 126.344285 
L 253.908703 133.254953 
L 254.430532 138.007946 
L 254.952362 140.888239 
L 255.475027 140.308109 
L 255.475027 140.308109 
L 255.996856 136.410045 
L 256.519521 130.944612 
L 258.607675 102.151857 
L 258.607675 102.151857 
L 259.129504 98.986587 
L 259.651334 97.846683 
L 260.173164 100.167202 
L 260.694993 104.757352 
L 262.783147 130.405193 
L 263.304977 133.061577 
L 263.826807 133.987749 
L 264.349471 131.657052 
L 264.871301 127.78952 
L 264.871301 127.78952 
L 266.43679 107.311958 
L 266.95862 102.080613 
L 267.481284 99.933115 
L 268.003114 101.011953 
L 268.003114 101.011953 
L 268.524944 104.665752 
L 269.046773 110.925047 
L 270.613097 136.4304 
L 271.134927 141.692279 
L 271.134927 141.692279 
L 271.657592 144.13493 
L 272.179421 142.618451 
L 272.702086 137.784036 
L 274.26841 111.759619 
L 274.26841 111.759619 
L 274.79024 104.859129 
L 275.312069 101.480128 
L 275.833899 100.370757 
L 276.355729 102.426655 
L 276.878393 107.810666 
L 277.922053 121.611647 
L 278.443882 130.812302 
L 278.966547 132.664646 
L 279.489211 130.822479 
L 280.011041 127.647032 
L 282.099195 105.510503 
L 282.621859 102.53861 
L 283.144524 102.039902 
L 283.666354 103.994023 
L 286.277172 127.972719 
L 287.321666 132.959799 
L 287.843496 132.603579 
L 288.366161 130.211816 
L 289.932485 118.497267 
L 289.932485 118.497267 
L 290.454314 114.456714 
L 290.976144 111.596776 
L 291.498809 110.59936 
L 292.021473 111.810508 
L 292.543303 114.344759 
L 293.586962 123.016172 
L 294.108792 126.771749 
L 295.152451 130.110039 
L 295.674281 129.733464 
L 296.196111 126.954948 
L 297.23977 116.482079 
L 298.28343 105.001617 
L 298.805259 101.388528 
L 299.327089 101.184974 
L 299.327089 101.184974 
L 299.848919 102.884652 
L 300.370748 106.955738 
L 300.893413 112.73668 
L 301.937907 126.181441 
L 302.459737 130.73088 
L 302.459737 130.73088 
L 302.981567 133.489041 
L 303.503396 132.898733 
L 304.547891 124.471585 
L 305.592385 113.153966 
L 305.592385 113.153966 
L 306.115049 105.357837 
L 306.636879 105.632635 
L 307.158709 107.800488 
L 308.202368 118.5278 
L 309.246863 129.763997 
L 309.768692 133.600995 
L 310.290522 135.911337 
L 310.812352 135.860448 
L 311.334181 132.410203 
L 311.856011 127.697921 
L 311.856011 127.697921 
L 313.42317 110.039586 
L 313.945 106.54863 
L 314.466829 104.044912 
L 314.989494 103.342649 
L 315.511324 105.683524 
L 317.078482 119.850903 
L 317.600312 124.919405 
L 318.122142 128.59356 
L 318.122142 128.59356 
L 318.643972 131.422964 
L 319.165801 131.992916 
L 319.687631 130.160928 
L 320.732125 121.520048 
L 321.775785 110.37545 
L 322.297614 105.663168 
L 322.820279 102.18239 
L 323.342109 102.599676 
L 323.863938 105.408725 
L 324.385768 109.571411 
L 325.429427 122.486931 
L 325.952092 129.367066 
L 326.473922 134.374502 
L 326.995751 137.916347 
L 327.518416 136.837509 
L 327.518416 136.837509 
L 328.041081 133.753661 
L 329.08474 121.896623 
L 329.60657 114.405825 
L 330.129234 108.716483 
L 330.651064 105.357837 
L 330.651064 105.357837 
L 331.172894 103.424071 
L 331.695558 104.228111 
L 332.217388 108.146531 
L 333.261882 120.17659 
L 333.783712 130.934434 
L 334.306376 133.366908 
L 334.829041 132.929266 
L 335.351706 130.496792 
L 336.3962 120.970451 
L 337.439859 109.571411 
L 337.961689 106.54863 
L 338.484354 105.062683 
L 339.006183 104.31971 
L 339.528013 106.416319 
L 340.049843 109.836031 
L 340.049843 109.836031 
L 341.094337 119.423439 
L 341.617002 125.397757 
L 342.660661 131.097278 
L 343.182491 131.565452 
L 343.182491 131.565452 
L 343.70432 129.590976 
L 346.315139 109.551055 
L 346.315139 109.551055 
L 346.836968 107.993865 
L 347.358798 107.658 
L 347.881463 109.194835 
L 348.403292 112.51277 
L 350.490611 131.31101 
L 351.012441 133.112465 
L 351.535105 133.102287 
L 352.05777 130.160928 
L 353.101429 119.983213 
L 354.145089 108.675772 
L 354.666919 105.673346 
L 355.188748 104.299355 
L 355.711413 106.019388 
L 355.711413 106.019388 
L 356.234077 108.390796 
L 357.799566 122.894039 
L 358.843226 130.710524 
L 358.843226 130.710524 
L 359.365056 130.853012 
L 359.886885 129.672398 
L 360.408715 126.049131 
L 360.930545 121.275783 
L 361.452374 111.606954 
L 361.974204 109.39839 
L 361.974204 109.39839 
L 362.496034 107.769955 
L 363.018698 107.993865 
L 363.541363 111.067535 
L 364.585857 118.242824 
L 365.107687 121.24525 
L 365.107687 121.24525 
L 365.629517 125.723444 
L 366.674011 128.023608 
L 367.196676 128.491783 
L 367.71934 126.415529 
L 368.763834 120.146056 
L 369.285664 116.614389 
L 370.329323 111.729086 
L 370.851988 110.874158 
L 371.374653 111.3118 
L 371.374653 111.3118 
L 372.418312 115.433775 
L 373.461971 121.184183 
L 374.506466 125.794688 
L 374.506466 125.794688 
L 375.02913 126.781927 
L 375.551795 126.466417 
L 376.073625 125.184025 
L 377.118119 119.230062 
L 377.639949 115.108088 
L 378.161778 112.095484 
L 378.683608 110.762203 
L 379.205438 110.945402 
L 379.727267 112.451704 
L 380.249932 114.639913 
L 382.339756 126.191619 
L 382.861585 126.496951 
L 383.38425 125.87611 
L 383.906914 123.779501 
L 383.906914 123.779501 
L 385.473238 112.940234 
L 386.516898 108.624883 
L 387.038728 109.489989 
L 387.038728 109.489989 
L 387.560557 111.352511 
L 388.605052 118.619399 
L 389.126881 125.977887 
L 389.648711 127.718276 
L 390.170541 128.216984 
L 390.170541 128.216984 
L 390.69237 127.402767 
L 391.736865 122.059467 
L 392.259529 118.354779 
L 392.781359 115.728928 
L 393.303189 112.299038 
L 393.303189 112.299038 
L 393.825853 111.026824 
L 394.347683 110.762203 
L 395.393012 114.538136 
L 396.437506 121.163828 
L 396.437506 121.163828 
L 396.960171 124.888872 
L 397.482001 126.252685 
L 398.004665 126.995659 
L 399.04916 125.489357 
L 399.571824 122.191777 
L 399.571824 122.191777 
L 400.093654 119.759303 
L 400.616319 115.963016 
L 401.138148 113.194677 
L 401.660813 109.764787 
L 402.183477 107.88191 
L 403.227972 108.665594 
L 404.272466 114.935067 
L 405.316125 123.362214 
L 405.837955 126.496951 
L 406.359785 127.647032 
L 406.882449 127.830231 
L 407.404279 126.873526 
L 407.926944 124.71585 
L 408.970603 117.917137 
L 408.970603 117.917137 
L 410.015097 111.993707 
L 410.536927 111.037002 
L 411.058757 110.792737 
L 411.580586 113.143789 
L 413.14691 123.311326 
L 413.66874 127.351879 
L 414.19057 129.356888 
L 414.7124 128.990491 
L 415.234229 127.5249 
L 415.234229 127.5249 
L 415.756894 125.499534 
L 416.279558 117.72376 
L 416.801388 113.703563 
L 417.324053 110.792737 
L 417.846717 109.133769 
L 418.368547 109.103236 
L 418.368547 109.103236 
L 418.890377 109.998875 
L 419.412206 111.841041 
L 420.456701 117.72376 
L 420.979365 120.909385 
L 422.024695 124.624251 
L 422.547359 124.257853 
L 423.069189 123.443636 
L 424.112848 119.230062 
L 425.156508 113.917295 
L 425.678337 112.930057 
L 426.721997 113.388054 
L 427.243826 114.527958 
L 429.33198 124.217142 
L 430.377309 127.199213 
L 430.899139 127.158502 
L 430.899139 127.158502 
L 431.420969 126.150908 
L 432.465463 120.919563 
L 432.988128 117.581272 
L 434.032622 113.153966 
L 434.555286 112.675614 
L 435.598946 113.958006 
L 437.164435 120.563343 
L 437.164435 120.563343 
L 437.686265 122.955106 
L 438.208929 124.22732 
L 438.730759 123.983055 
L 439.252589 122.955106 
L 439.774418 120.44121 
L 440.296248 117.225052 
L 440.296248 117.225052 
L 441.340742 113.367698 
L 441.863407 111.362689 
L 442.386072 110.701137 
L 442.908736 111.729086 
L 443.952396 116.329413 
L 444.474225 122.059467 
L 444.996055 124.960116 
L 445.517885 125.285802 
L 446.039714 126.038953 
L 446.561544 125.194203 
L 446.561544 125.194203 
L 449.171527 115.32182 
L 449.693357 115.260753 
L 449.693357 115.260753 
L 450.215187 116.573679 
L 450.737016 116.207281 
L 451.258846 117.337007 
L 451.780676 119.189351 
L 452.302505 121.621825 
L 452.824335 122.853329 
L 452.824335 122.853329 
L 453.347 123.687901 
L 453.868829 124.217142 
L 454.390659 123.372392 
L 455.435153 120.481921 
L 456.478813 116.227636 
L 457.000642 113.825696 
L 457.522472 112.82828 
L 458.044302 112.573837 
L 458.566966 112.614548 
L 459.088796 113.744274 
L 459.088796 113.744274 
L 459.611461 115.973193 
L 460.13329 117.662694 
L 460.65512 118.965442 
L 461.17695 121.204539 
L 461.699614 122.680307 
L 462.222279 123.433458 
L 462.222279 123.433458 
L 462.744109 122.792262 
L 463.265938 121.784669 
L 464.831427 115.545729 
L 465.353257 114.507602 
L 465.353257 114.507602 
L 465.875922 114.324404 
L 466.398586 114.29387 
L 466.920416 116.227636 
L 467.964075 120.909385 
L 469.007735 125.153492 
L 469.529565 125.6522 
L 470.051394 125.642022 
L 471.095889 123.698079 
L 471.617718 118.79242 
L 471.617718 118.79242 
L 472.140383 116.441368 
L 472.662213 114.670446 
L 473.184042 113.438942 
L 473.706707 112.970768 
L 474.228537 114.507602 
L 474.751201 115.627151 
L 474.751201 115.627151 
L 476.31669 121.163828 
L 476.83852 121.285961 
L 477.36035 121.642181 
L 477.883014 121.520048 
L 477.883014 121.520048 
L 479.448503 116.431191 
L 479.970333 115.505019 
L 480.492163 113.988539 
L 481.013992 113.683208 
L 481.013992 113.683208 
L 481.535822 113.998717 
L 482.057652 114.059783 
L 482.580316 114.700979 
L 483.624811 120.013746 
L 484.66847 123.250259 
L 485.191135 124.471585 
L 485.713799 125.29598 
L 486.235629 124.573362 
L 486.758294 124.054299 
L 487.280123 122.283377 
L 487.802788 119.86108 
L 488.847282 116.807766 
L 489.369947 115.525374 
L 489.892611 114.812934 
L 490.414441 115.270931 
L 490.414441 115.270931 
L 490.937106 116.156392 
L 491.9816 119.189351 
L 492.50343 121.387738 
L 493.025259 122.721018 
L 494.068919 122.873684 
L 494.590748 121.652358 
L 495.635243 117.795004 
L 496.157907 115.525374 
L 496.679737 114.599202 
L 496.679737 114.599202 
L 497.201567 112.909701 
L 497.723396 112.299038 
L 498.246061 113.388054 
L 498.768726 114.772223 
L 499.290555 118.79242 
L 499.81322 120.807608 
L 499.81322 120.807608 
L 500.33505 122.263021 
L 500.856879 122.812618 
L 501.900539 123.077238 
L 502.944198 119.474327 
L 502.944198 119.474327 
L 503.466028 118.334423 
L 503.988692 116.756877 
L 504.511357 115.81035 
L 505.034022 116.074971 
L 505.555851 116.553323 
L 506.077681 116.532968 
L 506.077681 116.532968 
L 506.599511 118.487089 
L 507.64317 121.174006 
L 508.165835 121.560759 
L 508.687664 122.436042 
L 509.209494 122.181599 
L 509.209494 122.181599 
L 509.731324 121.336849 
L 510.253153 121.408093 
L 511.297648 117.408251 
L 512.342142 115.118265 
L 512.863972 114.497425 
L 513.385801 114.782401 
L 514.429461 116.013904 
L 514.95129 117.245408 
L 516.518449 122.273199 
L 517.562109 122.273199 
L 518.085608 121.805024 
L 518.607438 120.2173 
L 519.130103 117.978203 
L 519.652767 117.316652 
L 520.696427 114.527958 
L 521.218256 113.998717 
L 522.261916 115.596618 
L 524.351739 122.924573 
L 524.874404 123.616657 
L 524.874404 123.616657 
L 525.396233 123.901633 
L 525.918063 123.413103 
L 526.439893 119.82037 
L 527.485222 115.627151 
L 528.007887 114.375292 
L 528.007887 114.375292 
L 528.529716 114.16156 
L 529.051546 114.416003 
L 529.573376 115.413419 
L 530.095205 117.520206 
L 530.617035 118.690643 
L 531.661529 122.263021 
L 532.183359 123.280793 
L 532.705189 123.565769 
L 533.749683 121.978045 
L 534.272348 121.133295 
L 534.794177 118.314068 
L 535.316007 117.296296 
L 535.837837 115.311642 
L 536.360501 114.334581 
L 536.882331 114.181916 
L 538.448655 116.461724 
L 540.015814 121.489515 
L 540.538479 122.232488 
L 541.061143 122.721018 
L 541.582973 122.80244 
L 543.671127 116.940076 
L 543.671127 116.940076 
L 544.193791 116.207281 
L 544.716456 114.731512 
L 545.238285 114.25316 
L 545.760115 114.416003 
L 546.803775 118.018914 
L 547.326439 119.830547 
L 547.848269 122.456398 
L 548.370099 122.710841 
L 548.891928 123.575946 
L 549.414593 124.176432 
L 549.937257 122.283377 
L 550.459087 121.662536 
L 552.025411 116.319236 
L 552.547241 115.342175 
L 553.59257 116.227636 
L 554.1144 117.174164 
L 555.158059 120.359788 
L 555.679889 121.967867 
L 556.201718 122.690485 
L 556.201718 122.690485 
L 556.723548 122.924573 
L 558.290707 119.067219 
L 558.813372 117.306474 
L 559.336036 116.644923 
L 559.336036 116.644923 
L 560.379696 114.639913 
L 560.901525 114.894356 
L 562.991349 119.046863 
L 563.513179 120.827963 
L 564.035008 121.326671 
L 564.557673 122.069645 
L 565.080337 122.22231 
L 565.602167 121.652358 
L 565.602167 121.652358 
L 566.123997 120.095168 
L 566.646661 119.37255 
L 567.168491 117.978203 
L 567.690321 117.408251 
L 568.212151 116.39048 
L 569.256645 116.777233 
L 569.778475 117.479495 
L 570.300304 117.957848 
L 570.822969 119.311484 
L 571.345633 120.990807 
L 571.867463 122.039111 
L 571.867463 122.039111 
L 572.390128 122.751551 
L 572.911957 122.517464 
L 573.955617 121.570937 
L 574.477447 120.369966 
L 575.521941 116.767055 
L 576.566435 115.372708 
L 577.0891 115.45413 
L 577.610929 115.993549 
L 578.132759 116.929899 
L 578.132759 116.929899 
L 578.655424 117.387896 
L 579.178088 118.5278 
L 579.699918 119.342017 
L 580.221748 121.174006 
L 581.266242 120.196945 
L 581.266242 120.196945 
L 581.788907 119.46415 
L 582.311571 117.662694 
L 582.834236 117.062209 
L 583.3569 115.800172 
L 583.87873 115.881594 
L 584.401395 115.515196 
L 584.401395 115.515196 
L 584.924059 116.6551 
L 585.445889 117.225052 
L 586.491218 120.17659 
L 587.013048 121.174006 
L 587.534878 121.296138 
L 587.534878 121.296138 
L 588.057542 121.652358 
L 588.579372 122.629419 
L 589.101202 121.896623 
L 589.623866 120.756719 
L 590.146531 120.237656 
L 590.668361 119.270773 
L 590.668361 119.270773 
L 591.191025 117.978203 
L 591.71369 118.222468 
L 592.23552 117.713583 
L 593.280014 117.571095 
L 593.801843 118.629577 
L 593.801843 118.629577 
L 594.323673 119.138463 
L 594.846338 119.901791 
L 595.368167 119.067219 
L 595.890832 120.685475 
L 596.413497 120.349611 
L 597.457991 118.853487 
L 597.979821 118.456556 
L 599.02348 115.545729 
L 599.546145 115.036844 
L 600.068809 114.914711 
L 600.068809 114.914711 
L 600.590639 114.975777 
L 601.113304 115.545729 
L 601.635133 116.410835 
L 602.157798 117.866248 
L 603.201457 119.718592 
L 603.201457 119.718592 
L 603.723287 121.387738 
L 604.245117 121.367382 
L 605.289611 121.621825 
L 606.334105 119.311484 
L 606.334105 119.311484 
L 606.855935 119.342017 
L 607.377765 118.4362 
L 607.900429 118.018914 
L 608.423094 118.161402 
L 608.944924 119.59646 
L 609.467588 119.392906 
L 609.467588 119.392906 
L 609.990253 121.224894 
L 610.512082 121.73378 
L 611.034747 122.069645 
L 611.556577 122.028934 
L 612.078406 121.37756 
L 614.167395 117.683049 
L 614.689225 115.993549 
L 615.211889 114.863823 
L 615.734554 115.464308 
L 615.734554 115.464308 
L 616.256384 115.108088 
L 617.823543 117.438784 
L 618.346207 118.446378 
L 619.911696 120.3089 
L 620.433526 120.2173 
L 621.477185 118.782243 
L 621.999015 117.408251 
L 621.999015 117.408251 
L 622.520845 117.632161 
L 623.043509 116.950254 
L 623.566174 117.052031 
L 624.088839 117.672872 
L 624.610668 117.795004 
L 625.132498 118.497267 
L 625.132498 118.497267 
L 625.654328 119.82037 
L 626.697987 121.835557 
L 627.743316 122.67013 
L 628.265146 121.723602 
L 628.265146 121.723602 
L 628.787811 121.764313 
L 629.310475 121.082406 
L 629.832305 119.973035 
L 630.354135 118.161402 
L 630.876799 117.214875 
L 631.398629 116.52279 
L 631.398629 116.52279 
L 632.443123 116.278525 
L 632.964953 117.601628 
L 633.487617 117.428607 
L 634.009447 117.805182 
L 635.053941 119.759303 
L 635.575771 120.054457 
L 636.097601 119.983213 
L 636.61943 119.14864 
L 637.14126 117.113097 
L 637.66309 117.306474 
L 637.66309 117.306474 
L 638.18492 116.349769 
L 638.706749 115.840883 
L 639.228579 115.67804 
L 639.750409 115.912127 
L 640.272238 116.858655 
L 640.794068 118.568511 
L 640.794068 118.568511 
L 641.315898 118.772065 
L 641.837727 120.593876 
L 642.359557 121.082406 
L 642.881387 121.774491 
L 644.448546 121.37756 
L 645.49304 119.280951 
L 646.01487 119.352195 
L 646.537534 118.242824 
L 647.059364 118.364956 
L 647.059364 118.364956 
L 647.581194 117.59145 
L 648.103023 117.886604 
L 648.625688 118.4362 
L 649.147518 118.79242 
L 649.669347 119.382728 
L 650.713007 121.133295 
L 651.234836 121.112939 
L 651.756666 120.644765 
L 652.801995 119.230062 
L 653.323825 117.886604 
L 653.323825 117.886604 
L 653.845655 117.571095 
L 654.367484 116.919721 
L 654.890149 115.851061 
L 655.411979 115.912127 
L 655.934643 116.665278 
L 656.456473 116.278525 
L 656.456473 116.278525 
L 656.978303 116.604212 
L 657.500132 117.744116 
L 658.022797 119.219884 
L 658.545462 118.934908 
L 659.067291 120.258011 
L 659.589956 120.298722 
L 659.589956 120.298722 
L 660.11262 120.034102 
L 660.63445 120.319078 
L 661.15628 119.901791 
L 661.67811 117.713583 
L 662.721769 117.540561 
L 662.721769 117.540561 
L 663.244434 117.296296 
L 664.288928 119.097752 
L 664.811592 119.37255 
L 665.333422 120.563343 
L 665.855252 121.37756 
L 665.855252 121.37756 
L 666.377082 121.652358 
L 666.899746 121.092584 
L 667.422411 120.878852 
L 668.988735 119.37255 
L 668.988735 119.37255 
L 669.510564 118.924731 
L 670.032394 117.225052 
L 671.600388 116.919721 
L 672.122218 117.347185 
L 672.122218 117.347185 
L 672.644882 118.415845 
L 673.166712 118.476911 
L 673.688542 118.680466 
L 674.210371 119.545571 
L 674.732201 119.14864 
L 675.254031 119.810192 
L 675.254031 119.810192 
L 675.776695 118.88402 
L 676.82119 118.354779 
L 677.343019 117.163986 
L 677.864849 116.899365 
L 679.430338 117.062209 
L 679.952168 118.090158 
L 680.473997 118.110514 
L 680.995827 119.342017 
L 682.561316 120.950096 
L 683.083146 121.184183 
L 683.604976 120.53281 
L 684.12764 120.634587 
L 684.64947 120.237656 
L 684.64947 120.237656 
L 685.1713 119.260595 
L 685.693964 117.927315 
L 687.260288 117.621983 
L 687.782953 118.578688 
L 687.782953 118.578688 
L 688.305617 119.260595 
L 688.827447 118.782243 
L 689.871941 120.634587 
L 690.393771 120.593876 
L 690.915601 120.013746 
L 690.915601 120.013746 
L 691.43743 119.962858 
L 691.960095 118.680466 
L 692.48276 118.242824 
L 693.004589 116.817944 
L 693.526419 116.716167 
L 694.048249 115.952838 
L 694.048249 115.952838 
L 694.570078 116.695811 
L 695.091908 116.461724 
L 695.614573 117.092742 
L 696.136402 117.978203 
L 696.658232 119.352195 
L 697.180062 119.301306 
L 697.180062 119.301306 
L 698.223721 120.593876 
L 699.268215 120.502276 
L 699.790045 119.50486 
L 700.311875 119.382728 
L 700.311875 119.382728 
L 700.834539 118.599044 
L 701.356369 117.316652 
L 701.879034 117.052031 
L 702.400863 117.713583 
L 702.922693 117.59145 
L 703.966352 119.046863 
L 704.488182 118.578688 
L 705.010012 119.555749 
L 705.531842 120.146056 
L 706.053671 121.123117 
L 706.575501 120.950096 
L 706.575501 120.950096 
L 707.097331 120.970451 
L 708.141825 119.586282 
L 708.66449 119.230062 
L 709.186319 118.446378 
L 709.708149 118.222468 
L 709.708149 118.222468 
L 710.229979 117.347185 
L 710.752643 117.520206 
L 711.275308 117.021498 
L 712.320637 118.599044 
L 712.842467 118.5278 
L 712.842467 118.5278 
L 713.364296 118.772065 
L 713.886126 119.830547 
L 714.407956 119.59646 
L 714.93062 120.095168 
L 715.45245 119.46415 
L 715.97428 119.738948 
L 715.97428 119.738948 
L 716.496109 118.934908 
L 717.018774 118.364956 
L 717.541439 117.601628 
L 718.064103 117.59145 
L 718.586768 117.306474 
L 719.108598 117.438784 
L 719.108598 117.438784 
L 719.630427 117.968026 
L 720.152257 118.242824 
L 720.674922 119.413261 
L 721.197586 120.135879 
L 721.720251 119.515038 
L 722.242915 119.443794 
L 722.242915 119.443794 
L 722.76558 119.067219 
L 723.28741 119.535394 
L 724.331069 118.029092 
L 724.852899 118.5278 
L 725.374729 117.978203 
L 725.374729 117.978203 
L 725.896558 118.894198 
L 726.418388 118.741532 
L 726.941052 119.026508 
L 727.462882 120.054457 
L 728.506542 120.461566 
L 728.506542 120.461566 
L 729.029206 119.973035 
L 729.551871 119.270773 
L 730.596365 119.484505 
L 733.207183 117.184341 
L 733.729013 117.275941 
L 734.251678 117.214875 
L 734.773507 117.876426 
L 734.773507 117.876426 
L 735.296172 117.713583 
L 736.339831 119.067219 
L 736.861661 118.476911 
L 736.861661 118.476911 
" style="fill:none;stroke:#7fa3ae;stroke-linecap:square;stroke-width:1.5;"/>
   </g>
   <g id="patch_3">
    <path d="M 68.528 260.076207 
L 68.528 17.519257 
" style="fill:none;stroke:#000000;stroke-linecap:square;stroke-linejoin:miter;stroke-width:0.8;"/>
   </g>
   <g id="patch_4">
    <path d="M 736.47 260.076207 
L 736.47 17.519257 
" style="fill:none;stroke:#000000;stroke-linecap:square;stroke-linejoin:miter;stroke-width:0.8;"/>
   </g>
   <g id="patch_5">
    <path d="M 68.528 260.076207 
L 736.47 260.076207 
" style="fill:none;stroke:#000000;stroke-linecap:square;stroke-linejoin:miter;stroke-width:0.8;"/>
   </g>
   <g id="patch_6">
    <path d="M 68.528 17.519257 
L 736.47 17.519257 
" style="fill:none;stroke:#000000;stroke-linecap:square;stroke-linejoin:miter;stroke-width:0.8;"/>
   </g>
   <g id="legend_1">
    <g id="patch_7">
     <path d="M 605.99 70.782694 
L 726.67 70.782694 
Q 729.47 70.782694 729.47 67.982694 
L 729.47 27.319257 
Q 729.47 24.519257 726.67 24.519257 
L 605.99 24.519257 
Q 603.19 24.519257 603.19 27.319257 
L 603.19 67.982694 
Q 603.19 70.782694 605.99 70.782694 
z
" style="fill:#ffffff;opacity:0.8;stroke:#cccccc;stroke-linejoin:miter;"/>
    </g>
    <g id="line2d_33">
     <path d="M 608.79 35.240194 
L 636.79 35.240194 
" style="fill:none;stroke:#d69e70;stroke-linecap:square;stroke-width:1.5;"/>
    </g>
    <g id="line2d_34"/>
    <g id="text_18">
     <!-- $\ddot{z}$ Reference -->
     <defs>
      <path d="M -20.40625 75.78125 
L -10.5 75.78125 
L -10.5 65.921875 
L -20.40625 65.921875 
z
M -39.5 75.78125 
L -29.59375 75.78125 
L -29.59375 65.921875 
L -39.5 65.921875 
z
M -25 56 
z
" id="DejaVuSans-308"/>
      <path d="M 11.625 54.6875 
L 54.296875 54.6875 
L 52.6875 46.484375 
L 11.53125 7.171875 
L 45.515625 7.171875 
L 44.09375 0 
L -0.296875 0 
L 1.3125 8.203125 
L 42.484375 47.515625 
L 10.203125 47.515625 
z
" id="DejaVuSans-Oblique-7a"/>
      <path d="M 7.859375 0 
L 7.859375 71.578125 
L 39.59375 71.578125 
Q 49.171875 71.578125 54.140625 69.640625 
Q 59.125 67.71875 62.109375 62.828125 
Q 65.09375 57.953125 65.09375 52.046875 
Q 65.09375 44.4375 60.15625 39.203125 
Q 55.21875 33.984375 44.921875 32.5625 
Q 48.6875 30.765625 50.640625 29 
Q 54.78125 25.203125 58.5 19.484375 
L 70.953125 0 
L 59.03125 0 
L 49.5625 14.890625 
Q 45.40625 21.34375 42.71875 24.75 
Q 40.046875 28.171875 37.921875 29.53125 
Q 35.796875 30.90625 33.59375 31.453125 
Q 31.984375 31.78125 28.328125 31.78125 
L 17.328125 31.78125 
L 17.328125 0 
z
M 17.328125 39.984375 
L 37.703125 39.984375 
Q 44.1875 39.984375 47.84375 41.328125 
Q 51.515625 42.671875 53.421875 45.625 
Q 55.328125 48.578125 55.328125 52.046875 
Q 55.328125 57.125 51.640625 60.390625 
Q 47.953125 63.671875 39.984375 63.671875 
L 17.328125 63.671875 
z
" id="ArialMT-52"/>
      <path d="M 8.6875 0 
L 8.6875 45.015625 
L 0.921875 45.015625 
L 0.921875 51.859375 
L 8.6875 51.859375 
L 8.6875 57.375 
Q 8.6875 62.59375 9.625 65.140625 
Q 10.890625 68.5625 14.078125 70.671875 
Q 17.28125 72.796875 23.046875 72.796875 
Q 26.765625 72.796875 31.25 71.921875 
L 29.9375 64.265625 
Q 27.203125 64.75 24.75 64.75 
Q 20.75 64.75 19.09375 63.03125 
Q 17.4375 61.328125 17.4375 56.640625 
L 17.4375 51.859375 
L 27.546875 51.859375 
L 27.546875 45.015625 
L 17.4375 45.015625 
L 17.4375 0 
z
" id="ArialMT-66"/>
     </defs>
     <g transform="translate(647.99 40.140194)scale(0.14 -0.14)">
      <use transform="translate(57.622559 11.21875)" xlink:href="#DejaVuSans-308"/>
      <use transform="translate(0 0.03125)" xlink:href="#DejaVuSans-Oblique-7a"/>
      <use transform="translate(52.490234 0.03125)" xlink:href="#ArialMT-20"/>
      <use transform="translate(80.273438 0.03125)" xlink:href="#ArialMT-52"/>
      <use transform="translate(152.490234 0.03125)" xlink:href="#ArialMT-65"/>
      <use transform="translate(208.105469 0.03125)" xlink:href="#ArialMT-66"/>
      <use transform="translate(235.888672 0.03125)" xlink:href="#ArialMT-65"/>
      <use transform="translate(291.503906 0.03125)" xlink:href="#ArialMT-72"/>
      <use transform="translate(324.804688 0.03125)" xlink:href="#ArialMT-65"/>
      <use transform="translate(380.419922 0.03125)" xlink:href="#ArialMT-6e"/>
      <use transform="translate(436.035156 0.03125)" xlink:href="#ArialMT-63"/>
      <use transform="translate(486.035156 0.03125)" xlink:href="#ArialMT-65"/>
     </g>
    </g>
    <g id="line2d_35">
     <path d="M 608.79 57.202694 
L 636.79 57.202694 
" style="fill:none;stroke:#7fa3ae;stroke-linecap:square;stroke-width:1.5;"/>
    </g>
    <g id="line2d_36"/>
    <g id="text_19">
     <!-- $\ddot{z}$ Prototype -->
     <defs>
      <path d="M 7.71875 0 
L 7.71875 71.578125 
L 34.71875 71.578125 
Q 41.84375 71.578125 45.609375 70.90625 
Q 50.875 70.015625 54.4375 67.546875 
Q 58.015625 65.09375 60.1875 60.640625 
Q 62.359375 56.203125 62.359375 50.875 
Q 62.359375 41.75 56.546875 35.421875 
Q 50.734375 29.109375 35.546875 29.109375 
L 17.1875 29.109375 
L 17.1875 0 
z
M 17.1875 37.546875 
L 35.6875 37.546875 
Q 44.875 37.546875 48.734375 40.96875 
Q 52.59375 44.390625 52.59375 50.59375 
Q 52.59375 55.078125 50.3125 58.265625 
Q 48.046875 61.46875 44.34375 62.5 
Q 41.9375 63.140625 35.5 63.140625 
L 17.1875 63.140625 
z
" id="ArialMT-50"/>
      <path d="M 6.203125 -19.96875 
L 5.21875 -11.71875 
Q 8.109375 -12.5 10.25 -12.5 
Q 13.1875 -12.5 14.9375 -11.515625 
Q 16.703125 -10.546875 17.828125 -8.796875 
Q 18.65625 -7.46875 20.515625 -2.25 
Q 20.75 -1.515625 21.296875 -0.09375 
L 1.609375 51.859375 
L 11.078125 51.859375 
L 21.875 21.828125 
Q 23.96875 16.109375 25.640625 9.8125 
Q 27.15625 15.875 29.25 21.625 
L 40.328125 51.859375 
L 49.125 51.859375 
L 29.390625 -0.875 
Q 26.21875 -9.421875 24.46875 -12.640625 
Q 22.125 -17 19.09375 -19.015625 
Q 16.0625 -21.046875 11.859375 -21.046875 
Q 9.328125 -21.046875 6.203125 -19.96875 
z
" id="ArialMT-79"/>
      <path d="M 6.59375 -19.875 
L 6.59375 51.859375 
L 14.59375 51.859375 
L 14.59375 45.125 
Q 17.4375 49.078125 21 51.046875 
Q 24.5625 53.03125 29.640625 53.03125 
Q 36.28125 53.03125 41.359375 49.609375 
Q 46.4375 46.1875 49.015625 39.953125 
Q 51.609375 33.734375 51.609375 26.3125 
Q 51.609375 18.359375 48.75 11.984375 
Q 45.90625 5.609375 40.453125 2.21875 
Q 35.015625 -1.171875 29 -1.171875 
Q 24.609375 -1.171875 21.109375 0.6875 
Q 17.625 2.546875 15.375 5.375 
L 15.375 -19.875 
z
M 14.546875 25.640625 
Q 14.546875 15.625 18.59375 10.84375 
Q 22.65625 6.0625 28.421875 6.0625 
Q 34.28125 6.0625 38.453125 11.015625 
Q 42.625 15.96875 42.625 26.375 
Q 42.625 36.28125 38.546875 41.203125 
Q 34.46875 46.140625 28.8125 46.140625 
Q 23.1875 46.140625 18.859375 40.890625 
Q 14.546875 35.640625 14.546875 25.640625 
z
" id="ArialMT-70"/>
     </defs>
     <g transform="translate(647.99 62.102694)scale(0.14 -0.14)">
      <use transform="translate(57.622559 11.21875)" xlink:href="#DejaVuSans-308"/>
      <use transform="translate(0 0.03125)" xlink:href="#DejaVuSans-Oblique-7a"/>
      <use transform="translate(52.490234 0.03125)" xlink:href="#ArialMT-20"/>
      <use transform="translate(80.273438 0.03125)" xlink:href="#ArialMT-50"/>
      <use transform="translate(146.972656 0.03125)" xlink:href="#ArialMT-72"/>
      <use transform="translate(180.273438 0.03125)" xlink:href="#ArialMT-6f"/>
      <use transform="translate(235.888672 0.03125)" xlink:href="#ArialMT-74"/>
      <use transform="translate(263.671875 0.03125)" xlink:href="#ArialMT-6f"/>
      <use transform="translate(319.287109 0.03125)" xlink:href="#ArialMT-74"/>
      <use transform="translate(347.070312 0.03125)" xlink:href="#ArialMT-79"/>
      <use transform="translate(397.070312 0.03125)" xlink:href="#ArialMT-70"/>
      <use transform="translate(452.685547 0.03125)" xlink:href="#ArialMT-65"/>
     </g>
    </g>
   </g>
  </g>
 </g>
 <defs>
  <clipPath id="paddd89abc9">
   <rect height="242.55695" width="667.942" x="68.528" y="17.519257"/>
  </clipPath>
 </defs>
</svg>
