<?xml version="1.0" encoding="utf-8" standalone="no"?>
<!DOCTYPE svg PUBLIC "-//W3C//DTD SVG 1.1//EN"
  "http://www.w3.org/Graphics/SVG/1.1/DTD/svg11.dtd">
<!-- Created with matplotlib (https://matplotlib.org/) -->
<svg height="297.637795pt" version="1.1" viewBox="0 0 396.850394 297.637795" width="396.850394pt" xmlns="http://www.w3.org/2000/svg" xmlns:xlink="http://www.w3.org/1999/xlink">
 <metadata>
  <rdf:RDF xmlns:cc="http://creativecommons.org/ns#" xmlns:dc="http://purl.org/dc/elements/1.1/" xmlns:rdf="http://www.w3.org/1999/02/22-rdf-syntax-ns#">
   <cc:Work>
    <dc:type rdf:resource="http://purl.org/dc/dcmitype/StillImage"/>
    <dc:date>2020-11-20T22:48:44.705632</dc:date>
    <dc:format>image/svg+xml</dc:format>
    <dc:creator>
     <cc:Agent>
      <dc:title>Matplotlib v3.3.2, https://matplotlib.org/</dc:title>
     </cc:Agent>
    </dc:creator>
   </cc:Work>
  </rdf:RDF>
 </metadata>
 <defs>
  <style type="text/css">*{stroke-linecap:butt;stroke-linejoin:round;}</style>
 </defs>
 <g id="figure_1">
  <g id="patch_1">
   <path d="M 0 297.637795 
L 396.850394 297.637795 
L 396.850394 0 
L 0 0 
z
" style="fill:none;"/>
  </g>
  <g id="axes_1">
   <g id="patch_2">
    <path d="M 49.606299 260.433071 
L 357.165354 260.433071 
L 357.165354 35.716535 
L 49.606299 35.716535 
z
" style="fill:#ffffff;"/>
   </g>
   <g id="matplotlib.axis_1">
    <g id="xtick_1">
     <g id="line2d_1">
      <path clip-path="url(#pd0eff0df71)" d="M 63.586256 260.433071 
L 63.586256 35.716535 
" style="fill:none;stroke:#b0b0b0;stroke-linecap:square;stroke-width:0.8;"/>
     </g>
     <g id="line2d_2">
      <defs>
       <path d="M 0 0 
L 0 3.5 
" id="me1448a2a7a" style="stroke:#000000;stroke-width:0.8;"/>
      </defs>
      <g>
       <use style="stroke:#000000;stroke-width:0.8;" x="63.586256" xlink:href="#me1448a2a7a" y="260.433071"/>
      </g>
     </g>
     <g id="text_1">
      <!-- 0 -->
      <g transform="translate(60.086881 275.791352)scale(0.11 -0.11)">
       <defs>
        <path d="M 31.78125 3.421875 
Q 39.265625 3.421875 42.96875 11.625 
Q 46.6875 19.828125 46.6875 36.375 
Q 46.6875 52.984375 42.96875 61.1875 
Q 39.265625 69.390625 31.78125 69.390625 
Q 24.3125 69.390625 20.59375 61.1875 
Q 16.890625 52.984375 16.890625 36.375 
Q 16.890625 19.828125 20.59375 11.625 
Q 24.3125 3.421875 31.78125 3.421875 
z
M 31.78125 -1.421875 
Q 19.921875 -1.421875 13.25 8.53125 
Q 6.59375 18.5 6.59375 36.375 
Q 6.59375 54.296875 13.25 64.25 
Q 19.921875 74.21875 31.78125 74.21875 
Q 43.703125 74.21875 50.34375 64.25 
Q 56.984375 54.296875 56.984375 36.375 
Q 56.984375 18.5 50.34375 8.53125 
Q 43.703125 -1.421875 31.78125 -1.421875 
z
" id="DejaVuSerif-48"/>
       </defs>
       <use xlink:href="#DejaVuSerif-48"/>
      </g>
     </g>
    </g>
    <g id="xtick_2">
     <g id="line2d_3">
      <path clip-path="url(#pd0eff0df71)" d="M 106.125268 260.433071 
L 106.125268 35.716535 
" style="fill:none;stroke:#b0b0b0;stroke-linecap:square;stroke-width:0.8;"/>
     </g>
     <g id="line2d_4">
      <g>
       <use style="stroke:#000000;stroke-width:0.8;" x="106.125268" xlink:href="#me1448a2a7a" y="260.433071"/>
      </g>
     </g>
     <g id="text_2">
      <!-- 2 -->
      <g transform="translate(102.625893 275.791352)scale(0.11 -0.11)">
       <defs>
        <path d="M 12.796875 55.515625 
L 7.328125 55.515625 
L 7.328125 68.5 
Q 12.546875 71.296875 17.84375 72.75 
Q 23.140625 74.21875 28.21875 74.21875 
Q 39.59375 74.21875 46.1875 68.703125 
Q 52.78125 63.1875 52.78125 53.71875 
Q 52.78125 43.015625 37.84375 28.125 
Q 36.671875 27 36.078125 26.421875 
L 17.671875 8.015625 
L 48.09375 8.015625 
L 48.09375 17 
L 53.8125 17 
L 53.8125 0 
L 6.78125 0 
L 6.78125 5.328125 
L 28.90625 27.390625 
Q 36.234375 34.71875 39.359375 40.84375 
Q 42.484375 46.96875 42.484375 53.71875 
Q 42.484375 61.078125 38.640625 65.234375 
Q 34.8125 69.390625 28.078125 69.390625 
Q 21.09375 69.390625 17.28125 65.921875 
Q 13.484375 62.453125 12.796875 55.515625 
z
" id="DejaVuSerif-50"/>
       </defs>
       <use xlink:href="#DejaVuSerif-50"/>
      </g>
     </g>
    </g>
    <g id="xtick_3">
     <g id="line2d_5">
      <path clip-path="url(#pd0eff0df71)" d="M 148.664281 260.433071 
L 148.664281 35.716535 
" style="fill:none;stroke:#b0b0b0;stroke-linecap:square;stroke-width:0.8;"/>
     </g>
     <g id="line2d_6">
      <g>
       <use style="stroke:#000000;stroke-width:0.8;" x="148.664281" xlink:href="#me1448a2a7a" y="260.433071"/>
      </g>
     </g>
     <g id="text_3">
      <!-- 4 -->
      <g transform="translate(145.164906 275.791352)scale(0.11 -0.11)">
       <defs>
        <path d="M 34.90625 24.703125 
L 34.90625 63.484375 
L 10.015625 24.703125 
z
M 56.390625 0 
L 23.1875 0 
L 23.1875 5.171875 
L 34.90625 5.171875 
L 34.90625 19.484375 
L 3.078125 19.484375 
L 3.078125 24.8125 
L 35.015625 74.21875 
L 44.671875 74.21875 
L 44.671875 24.703125 
L 58.59375 24.703125 
L 58.59375 19.484375 
L 44.671875 19.484375 
L 44.671875 5.171875 
L 56.390625 5.171875 
z
" id="DejaVuSerif-52"/>
       </defs>
       <use xlink:href="#DejaVuSerif-52"/>
      </g>
     </g>
    </g>
    <g id="xtick_4">
     <g id="line2d_7">
      <path clip-path="url(#pd0eff0df71)" d="M 191.203293 260.433071 
L 191.203293 35.716535 
" style="fill:none;stroke:#b0b0b0;stroke-linecap:square;stroke-width:0.8;"/>
     </g>
     <g id="line2d_8">
      <g>
       <use style="stroke:#000000;stroke-width:0.8;" x="191.203293" xlink:href="#me1448a2a7a" y="260.433071"/>
      </g>
     </g>
     <g id="text_4">
      <!-- 6 -->
      <g transform="translate(187.703918 275.791352)scale(0.11 -0.11)">
       <defs>
        <path d="M 32.71875 3.421875 
Q 39.59375 3.421875 43.296875 8.46875 
Q 47.015625 13.53125 47.015625 23 
Q 47.015625 32.46875 43.296875 37.515625 
Q 39.59375 42.578125 32.71875 42.578125 
Q 25.734375 42.578125 22.0625 37.6875 
Q 18.40625 32.8125 18.40625 23.578125 
Q 18.40625 13.875 22.109375 8.640625 
Q 25.828125 3.421875 32.71875 3.421875 
z
M 16.796875 40.140625 
Q 20.125 43.796875 24.3125 45.59375 
Q 28.515625 47.40625 33.796875 47.40625 
Q 44.671875 47.40625 51 40.859375 
Q 57.328125 34.328125 57.328125 23 
Q 57.328125 11.921875 50.515625 5.25 
Q 43.703125 -1.421875 32.328125 -1.421875 
Q 19.96875 -1.421875 13.328125 7.78125 
Q 6.6875 17 6.6875 34.078125 
Q 6.6875 53.21875 14.546875 63.71875 
Q 22.40625 74.21875 36.71875 74.21875 
Q 40.578125 74.21875 44.828125 73.484375 
Q 49.078125 72.75 53.515625 71.296875 
L 53.515625 59.28125 
L 48 59.28125 
Q 47.40625 64.203125 44.234375 66.796875 
Q 41.0625 69.390625 35.6875 69.390625 
Q 26.21875 69.390625 21.578125 62.203125 
Q 16.9375 55.03125 16.796875 40.140625 
z
" id="DejaVuSerif-54"/>
       </defs>
       <use xlink:href="#DejaVuSerif-54"/>
      </g>
     </g>
    </g>
    <g id="xtick_5">
     <g id="line2d_9">
      <path clip-path="url(#pd0eff0df71)" d="M 233.742305 260.433071 
L 233.742305 35.716535 
" style="fill:none;stroke:#b0b0b0;stroke-linecap:square;stroke-width:0.8;"/>
     </g>
     <g id="line2d_10">
      <g>
       <use style="stroke:#000000;stroke-width:0.8;" x="233.742305" xlink:href="#me1448a2a7a" y="260.433071"/>
      </g>
     </g>
     <g id="text_5">
      <!-- 8 -->
      <g transform="translate(230.24293 275.791352)scale(0.11 -0.11)">
       <defs>
        <path d="M 46.578125 19.921875 
Q 46.578125 27.734375 42.6875 32.046875 
Q 38.8125 36.375 31.78125 36.375 
Q 24.75 36.375 20.875 32.046875 
Q 17 27.734375 17 19.921875 
Q 17 12.0625 20.875 7.734375 
Q 24.75 3.421875 31.78125 3.421875 
Q 38.8125 3.421875 42.6875 7.734375 
Q 46.578125 12.0625 46.578125 19.921875 
z
M 44.578125 55.328125 
Q 44.578125 61.96875 41.203125 65.671875 
Q 37.84375 69.390625 31.78125 69.390625 
Q 25.78125 69.390625 22.390625 65.671875 
Q 19 61.96875 19 55.328125 
Q 19 48.640625 22.390625 44.921875 
Q 25.78125 41.21875 31.78125 41.21875 
Q 37.84375 41.21875 41.203125 44.921875 
Q 44.578125 48.640625 44.578125 55.328125 
z
M 39.3125 38.8125 
Q 47.609375 37.703125 52.25 32.6875 
Q 56.890625 27.6875 56.890625 19.921875 
Q 56.890625 9.671875 50.390625 4.125 
Q 43.890625 -1.421875 31.78125 -1.421875 
Q 19.734375 -1.421875 13.203125 4.125 
Q 6.6875 9.671875 6.6875 19.921875 
Q 6.6875 27.6875 11.328125 32.6875 
Q 15.96875 37.703125 24.3125 38.8125 
Q 16.9375 40.140625 13 44.40625 
Q 9.078125 48.6875 9.078125 55.328125 
Q 9.078125 64.109375 15.125 69.15625 
Q 21.1875 74.21875 31.78125 74.21875 
Q 42.390625 74.21875 48.4375 69.15625 
Q 54.5 64.109375 54.5 55.328125 
Q 54.5 48.6875 50.5625 44.40625 
Q 46.625 40.140625 39.3125 38.8125 
z
" id="DejaVuSerif-56"/>
       </defs>
       <use xlink:href="#DejaVuSerif-56"/>
      </g>
     </g>
    </g>
    <g id="xtick_6">
     <g id="line2d_11">
      <path clip-path="url(#pd0eff0df71)" d="M 276.281317 260.433071 
L 276.281317 35.716535 
" style="fill:none;stroke:#b0b0b0;stroke-linecap:square;stroke-width:0.8;"/>
     </g>
     <g id="line2d_12">
      <g>
       <use style="stroke:#000000;stroke-width:0.8;" x="276.281317" xlink:href="#me1448a2a7a" y="260.433071"/>
      </g>
     </g>
     <g id="text_6">
      <!-- 10 -->
      <g transform="translate(269.282567 275.791352)scale(0.11 -0.11)">
       <defs>
        <path d="M 14.203125 0 
L 14.203125 5.171875 
L 26.90625 5.171875 
L 26.90625 65.828125 
L 12.203125 56.296875 
L 12.203125 62.703125 
L 29.984375 74.21875 
L 36.71875 74.21875 
L 36.71875 5.171875 
L 49.421875 5.171875 
L 49.421875 0 
z
" id="DejaVuSerif-49"/>
       </defs>
       <use xlink:href="#DejaVuSerif-49"/>
       <use x="63.623047" xlink:href="#DejaVuSerif-48"/>
      </g>
     </g>
    </g>
    <g id="xtick_7">
     <g id="line2d_13">
      <path clip-path="url(#pd0eff0df71)" d="M 318.820329 260.433071 
L 318.820329 35.716535 
" style="fill:none;stroke:#b0b0b0;stroke-linecap:square;stroke-width:0.8;"/>
     </g>
     <g id="line2d_14">
      <g>
       <use style="stroke:#000000;stroke-width:0.8;" x="318.820329" xlink:href="#me1448a2a7a" y="260.433071"/>
      </g>
     </g>
     <g id="text_7">
      <!-- 12 -->
      <g transform="translate(311.821579 275.791352)scale(0.11 -0.11)">
       <use xlink:href="#DejaVuSerif-49"/>
       <use x="63.623047" xlink:href="#DejaVuSerif-50"/>
      </g>
     </g>
    </g>
    <g id="text_8">
     <!-- Time -->
     <g transform="translate(189.487155 290.43729)scale(0.11 -0.11)">
      <defs>
       <path d="M 19.09375 0 
L 19.09375 5.171875 
L 28.421875 5.171875 
L 28.421875 67.09375 
L 6.984375 67.09375 
L 6.984375 55.71875 
L 0.984375 55.71875 
L 0.984375 72.90625 
L 65.71875 72.90625 
L 65.71875 55.71875 
L 59.71875 55.71875 
L 59.71875 67.09375 
L 38.28125 67.09375 
L 38.28125 5.171875 
L 47.609375 5.171875 
L 47.609375 0 
z
" id="DejaVuSerif-84"/>
       <path d="M 9.71875 68.015625 
Q 9.71875 70.265625 11.34375 71.921875 
Q 12.984375 73.578125 15.28125 73.578125 
Q 17.53125 73.578125 19.15625 71.921875 
Q 20.796875 70.265625 20.796875 68.015625 
Q 20.796875 65.71875 19.1875 64.109375 
Q 17.578125 62.5 15.28125 62.5 
Q 12.984375 62.5 11.34375 64.109375 
Q 9.71875 65.71875 9.71875 68.015625 
z
M 21.1875 5.171875 
L 29.6875 5.171875 
L 29.6875 0 
L 3.609375 0 
L 3.609375 5.171875 
L 12.203125 5.171875 
L 12.203125 46.6875 
L 3.609375 46.6875 
L 3.609375 51.90625 
L 21.1875 51.90625 
z
" id="DejaVuSerif-105"/>
       <path d="M 51.8125 41.796875 
Q 54.390625 47.515625 58.421875 50.421875 
Q 62.453125 53.328125 67.828125 53.328125 
Q 75.984375 53.328125 79.984375 48.265625 
Q 83.984375 43.21875 83.984375 33.015625 
L 83.984375 5.171875 
L 92.09375 5.171875 
L 92.09375 0 
L 67.1875 0 
L 67.1875 5.171875 
L 75 5.171875 
L 75 31.984375 
Q 75 39.9375 72.65625 43.3125 
Q 70.3125 46.6875 64.890625 46.6875 
Q 58.890625 46.6875 55.734375 42.140625 
Q 52.59375 37.59375 52.59375 28.90625 
L 52.59375 5.171875 
L 60.40625 5.171875 
L 60.40625 0 
L 35.796875 0 
L 35.796875 5.171875 
L 43.609375 5.171875 
L 43.609375 32.328125 
Q 43.609375 40.09375 41.265625 43.390625 
Q 38.921875 46.6875 33.5 46.6875 
Q 27.484375 46.6875 24.328125 42.140625 
Q 21.1875 37.59375 21.1875 28.90625 
L 21.1875 5.171875 
L 29 5.171875 
L 29 0 
L 4.109375 0 
L 4.109375 5.171875 
L 12.203125 5.171875 
L 12.203125 46.78125 
L 3.609375 46.78125 
L 3.609375 51.90625 
L 21.1875 51.90625 
L 21.1875 42.671875 
Q 23.6875 47.859375 27.53125 50.59375 
Q 31.390625 53.328125 36.28125 53.328125 
Q 42.328125 53.328125 46.375 50.3125 
Q 50.4375 47.3125 51.8125 41.796875 
z
" id="DejaVuSerif-109"/>
       <path d="M 54.203125 25 
L 15.484375 25 
L 15.484375 24.609375 
Q 15.484375 14.109375 19.4375 8.765625 
Q 23.390625 3.421875 31.109375 3.421875 
Q 37.015625 3.421875 40.796875 6.515625 
Q 44.578125 9.625 46.09375 15.71875 
L 53.328125 15.71875 
Q 51.171875 7.171875 45.375 2.875 
Q 39.59375 -1.421875 30.171875 -1.421875 
Q 18.796875 -1.421875 11.890625 6.078125 
Q 4.984375 13.578125 4.984375 25.984375 
Q 4.984375 38.28125 11.765625 45.796875 
Q 18.5625 53.328125 29.59375 53.328125 
Q 41.359375 53.328125 47.65625 46.0625 
Q 53.953125 38.8125 54.203125 25 
z
M 43.609375 30.171875 
Q 43.3125 39.265625 39.765625 43.875 
Q 36.234375 48.484375 29.59375 48.484375 
Q 23.390625 48.484375 19.828125 43.84375 
Q 16.265625 39.203125 15.484375 30.171875 
z
" id="DejaVuSerif-101"/>
      </defs>
      <use xlink:href="#DejaVuSerif-84"/>
      <use x="66.699219" xlink:href="#DejaVuSerif-105"/>
      <use x="98.681641" xlink:href="#DejaVuSerif-109"/>
      <use x="193.505859" xlink:href="#DejaVuSerif-101"/>
     </g>
    </g>
   </g>
   <g id="matplotlib.axis_2">
    <g id="ytick_1">
     <g id="line2d_15">
      <path clip-path="url(#pd0eff0df71)" d="M 49.606299 250.218683 
L 357.165354 250.218683 
" style="fill:none;stroke:#b0b0b0;stroke-linecap:square;stroke-width:0.8;"/>
     </g>
     <g id="line2d_16">
      <defs>
       <path d="M 0 0 
L -3.5 0 
" id="mc8f055b2bf" style="stroke:#000000;stroke-width:0.8;"/>
      </defs>
      <g>
       <use style="stroke:#000000;stroke-width:0.8;" x="49.606299" xlink:href="#mc8f055b2bf" y="250.218683"/>
      </g>
     </g>
     <g id="text_9">
      <!-- 0.0 -->
      <g transform="translate(25.112862 254.397824)scale(0.11 -0.11)">
       <defs>
        <path d="M 9.421875 5.078125 
Q 9.421875 7.8125 11.28125 9.71875 
Q 13.140625 11.625 15.921875 11.625 
Q 18.609375 11.625 20.5 9.71875 
Q 22.40625 7.8125 22.40625 5.078125 
Q 22.40625 2.390625 20.5 0.484375 
Q 18.609375 -1.421875 15.921875 -1.421875 
Q 13.140625 -1.421875 11.28125 0.453125 
Q 9.421875 2.34375 9.421875 5.078125 
z
" id="DejaVuSerif-46"/>
       </defs>
       <use xlink:href="#DejaVuSerif-48"/>
       <use x="63.623047" xlink:href="#DejaVuSerif-46"/>
       <use x="95.410156" xlink:href="#DejaVuSerif-48"/>
      </g>
     </g>
    </g>
    <g id="ytick_2">
     <g id="line2d_17">
      <path clip-path="url(#pd0eff0df71)" d="M 49.606299 218.064283 
L 357.165354 218.064283 
" style="fill:none;stroke:#b0b0b0;stroke-linecap:square;stroke-width:0.8;"/>
     </g>
     <g id="line2d_18">
      <g>
       <use style="stroke:#000000;stroke-width:0.8;" x="49.606299" xlink:href="#mc8f055b2bf" y="218.064283"/>
      </g>
     </g>
     <g id="text_10">
      <!-- 0.2 -->
      <g transform="translate(25.112862 222.243424)scale(0.11 -0.11)">
       <use xlink:href="#DejaVuSerif-48"/>
       <use x="63.623047" xlink:href="#DejaVuSerif-46"/>
       <use x="95.410156" xlink:href="#DejaVuSerif-50"/>
      </g>
     </g>
    </g>
    <g id="ytick_3">
     <g id="line2d_19">
      <path clip-path="url(#pd0eff0df71)" d="M 49.606299 185.909884 
L 357.165354 185.909884 
" style="fill:none;stroke:#b0b0b0;stroke-linecap:square;stroke-width:0.8;"/>
     </g>
     <g id="line2d_20">
      <g>
       <use style="stroke:#000000;stroke-width:0.8;" x="49.606299" xlink:href="#mc8f055b2bf" y="185.909884"/>
      </g>
     </g>
     <g id="text_11">
      <!-- 0.4 -->
      <g transform="translate(25.112862 190.089025)scale(0.11 -0.11)">
       <use xlink:href="#DejaVuSerif-48"/>
       <use x="63.623047" xlink:href="#DejaVuSerif-46"/>
       <use x="95.410156" xlink:href="#DejaVuSerif-52"/>
      </g>
     </g>
    </g>
    <g id="ytick_4">
     <g id="line2d_21">
      <path clip-path="url(#pd0eff0df71)" d="M 49.606299 153.755484 
L 357.165354 153.755484 
" style="fill:none;stroke:#b0b0b0;stroke-linecap:square;stroke-width:0.8;"/>
     </g>
     <g id="line2d_22">
      <g>
       <use style="stroke:#000000;stroke-width:0.8;" x="49.606299" xlink:href="#mc8f055b2bf" y="153.755484"/>
      </g>
     </g>
     <g id="text_12">
      <!-- 0.6 -->
      <g transform="translate(25.112862 157.934625)scale(0.11 -0.11)">
       <use xlink:href="#DejaVuSerif-48"/>
       <use x="63.623047" xlink:href="#DejaVuSerif-46"/>
       <use x="95.410156" xlink:href="#DejaVuSerif-54"/>
      </g>
     </g>
    </g>
    <g id="ytick_5">
     <g id="line2d_23">
      <path clip-path="url(#pd0eff0df71)" d="M 49.606299 121.601085 
L 357.165354 121.601085 
" style="fill:none;stroke:#b0b0b0;stroke-linecap:square;stroke-width:0.8;"/>
     </g>
     <g id="line2d_24">
      <g>
       <use style="stroke:#000000;stroke-width:0.8;" x="49.606299" xlink:href="#mc8f055b2bf" y="121.601085"/>
      </g>
     </g>
     <g id="text_13">
      <!-- 0.8 -->
      <g transform="translate(25.112862 125.780226)scale(0.11 -0.11)">
       <use xlink:href="#DejaVuSerif-48"/>
       <use x="63.623047" xlink:href="#DejaVuSerif-46"/>
       <use x="95.410156" xlink:href="#DejaVuSerif-56"/>
      </g>
     </g>
    </g>
    <g id="ytick_6">
     <g id="line2d_25">
      <path clip-path="url(#pd0eff0df71)" d="M 49.606299 89.446686 
L 357.165354 89.446686 
" style="fill:none;stroke:#b0b0b0;stroke-linecap:square;stroke-width:0.8;"/>
     </g>
     <g id="line2d_26">
      <g>
       <use style="stroke:#000000;stroke-width:0.8;" x="49.606299" xlink:href="#mc8f055b2bf" y="89.446686"/>
      </g>
     </g>
     <g id="text_14">
      <!-- 1.0 -->
      <g transform="translate(25.112862 93.625826)scale(0.11 -0.11)">
       <use xlink:href="#DejaVuSerif-49"/>
       <use x="63.623047" xlink:href="#DejaVuSerif-46"/>
       <use x="95.410156" xlink:href="#DejaVuSerif-48"/>
      </g>
     </g>
    </g>
    <g id="ytick_7">
     <g id="line2d_27">
      <path clip-path="url(#pd0eff0df71)" d="M 49.606299 57.292286 
L 357.165354 57.292286 
" style="fill:none;stroke:#b0b0b0;stroke-linecap:square;stroke-width:0.8;"/>
     </g>
     <g id="line2d_28">
      <g>
       <use style="stroke:#000000;stroke-width:0.8;" x="49.606299" xlink:href="#mc8f055b2bf" y="57.292286"/>
      </g>
     </g>
     <g id="text_15">
      <!-- 1.2 -->
      <g transform="translate(25.112862 61.471427)scale(0.11 -0.11)">
       <use xlink:href="#DejaVuSerif-49"/>
       <use x="63.623047" xlink:href="#DejaVuSerif-46"/>
       <use x="95.410156" xlink:href="#DejaVuSerif-50"/>
      </g>
     </g>
    </g>
    <g id="text_16">
     <!-- Signal -->
     <g transform="translate(18.668799 165.703163)rotate(-90)scale(0.11 -0.11)">
      <defs>
       <path d="M 9.28125 3.515625 
L 9.28125 20.125 
L 14.890625 20.0625 
Q 15.140625 11.765625 19.703125 7.78125 
Q 24.265625 3.8125 33.59375 3.8125 
Q 42.28125 3.8125 46.84375 7.25 
Q 51.421875 10.6875 51.421875 17.28125 
Q 51.421875 22.5625 48.65625 25.390625 
Q 45.90625 28.21875 37.015625 30.90625 
L 27.390625 33.796875 
Q 16.9375 36.96875 12.671875 41.703125 
Q 8.40625 46.4375 8.40625 54.6875 
Q 8.40625 63.96875 14.984375 69.09375 
Q 21.578125 74.21875 33.5 74.21875 
Q 38.578125 74.21875 44.625 73.109375 
Q 50.6875 72.015625 57.515625 69.921875 
L 57.515625 54.390625 
L 52 54.390625 
Q 51.171875 62.109375 46.84375 65.546875 
Q 42.53125 69 33.6875 69 
Q 25.984375 69 21.953125 65.84375 
Q 17.921875 62.703125 17.921875 56.6875 
Q 17.921875 51.46875 20.9375 48.484375 
Q 23.96875 45.515625 33.796875 42.578125 
L 42.828125 39.890625 
Q 52.734375 36.921875 56.953125 32.296875 
Q 61.1875 27.6875 61.1875 19.921875 
Q 61.1875 9.328125 54.390625 3.953125 
Q 47.609375 -1.421875 34.1875 -1.421875 
Q 28.171875 -1.421875 21.9375 -0.1875 
Q 15.71875 1.03125 9.28125 3.515625 
z
" id="DejaVuSerif-83"/>
       <path d="M 52.484375 46.6875 
L 52.484375 1.125 
Q 52.484375 -10.0625 46.328125 -16.140625 
Q 40.1875 -22.21875 28.8125 -22.21875 
Q 23.6875 -22.21875 19 -21.28125 
Q 14.3125 -20.359375 10.015625 -18.5 
L 10.015625 -7.625 
L 14.703125 -7.625 
Q 15.578125 -12.703125 18.84375 -15.046875 
Q 22.125 -17.390625 28.21875 -17.390625 
Q 36.140625 -17.390625 39.8125 -12.921875 
Q 43.5 -8.453125 43.5 1.125 
L 43.5 8.109375 
Q 40.875 3.21875 36.796875 0.890625 
Q 32.71875 -1.421875 26.703125 -1.421875 
Q 17.140625 -1.421875 11.0625 6.171875 
Q 4.984375 13.765625 4.984375 25.984375 
Q 4.984375 38.1875 11.03125 45.75 
Q 17.09375 53.328125 26.703125 53.328125 
Q 32.71875 53.328125 36.796875 51 
Q 40.875 48.6875 43.5 43.796875 
L 43.5 51.90625 
L 61.078125 51.90625 
L 61.078125 46.6875 
z
M 43.5 28.515625 
Q 43.5 37.84375 39.90625 42.765625 
Q 36.328125 47.703125 29.5 47.703125 
Q 22.5625 47.703125 19.015625 42.234375 
Q 15.484375 36.765625 15.484375 25.984375 
Q 15.484375 15.234375 19.015625 9.71875 
Q 22.5625 4.203125 29.5 4.203125 
Q 36.328125 4.203125 39.90625 9.109375 
Q 43.5 14.015625 43.5 23.390625 
z
" id="DejaVuSerif-103"/>
       <path d="M 4.109375 0 
L 4.109375 5.171875 
L 12.203125 5.171875 
L 12.203125 46.6875 
L 3.609375 46.6875 
L 3.609375 51.90625 
L 21.1875 51.90625 
L 21.1875 42.671875 
Q 23.6875 47.953125 27.65625 50.640625 
Q 31.640625 53.328125 36.921875 53.328125 
Q 45.515625 53.328125 49.5625 48.390625 
Q 53.609375 43.453125 53.609375 33.015625 
L 53.609375 5.171875 
L 61.625 5.171875 
L 61.625 0 
L 36.8125 0 
L 36.8125 5.171875 
L 44.578125 5.171875 
L 44.578125 30.171875 
Q 44.578125 39.703125 42.234375 43.234375 
Q 39.890625 46.78125 33.984375 46.78125 
Q 27.734375 46.78125 24.453125 42.203125 
Q 21.1875 37.640625 21.1875 28.90625 
L 21.1875 5.171875 
L 29 5.171875 
L 29 0 
z
" id="DejaVuSerif-110"/>
       <path d="M 39.796875 16.3125 
L 39.796875 27.296875 
L 28.21875 27.296875 
Q 21.53125 27.296875 18.25 24.40625 
Q 14.984375 21.53125 14.984375 15.578125 
Q 14.984375 10.15625 18.296875 6.984375 
Q 21.625 3.8125 27.296875 3.8125 
Q 32.90625 3.8125 36.34375 7.28125 
Q 39.796875 10.75 39.796875 16.3125 
z
M 48.78125 32.421875 
L 48.78125 5.171875 
L 56.78125 5.171875 
L 56.78125 0 
L 39.796875 0 
L 39.796875 5.609375 
Q 36.8125 2 32.90625 0.28125 
Q 29 -1.421875 23.78125 -1.421875 
Q 15.140625 -1.421875 10.0625 3.171875 
Q 4.984375 7.765625 4.984375 15.578125 
Q 4.984375 23.640625 10.796875 28.078125 
Q 16.609375 32.515625 27.203125 32.515625 
L 39.796875 32.515625 
L 39.796875 36.078125 
Q 39.796875 42 36.203125 45.234375 
Q 32.625 48.484375 26.125 48.484375 
Q 20.75 48.484375 17.578125 46.046875 
Q 14.40625 43.609375 13.625 38.8125 
L 8.984375 38.8125 
L 8.984375 49.3125 
Q 13.671875 51.3125 18.09375 52.3125 
Q 22.515625 53.328125 26.703125 53.328125 
Q 37.5 53.328125 43.140625 47.96875 
Q 48.78125 42.625 48.78125 32.421875 
z
" id="DejaVuSerif-97"/>
       <path d="M 20.515625 5.171875 
L 29 5.171875 
L 29 0 
L 2.875 0 
L 2.875 5.171875 
L 11.53125 5.171875 
L 11.53125 70.796875 
L 2.875 70.796875 
L 2.875 75.984375 
L 20.515625 75.984375 
z
" id="DejaVuSerif-108"/>
      </defs>
      <use xlink:href="#DejaVuSerif-83"/>
      <use x="68.505859" xlink:href="#DejaVuSerif-105"/>
      <use x="100.488281" xlink:href="#DejaVuSerif-103"/>
      <use x="164.501953" xlink:href="#DejaVuSerif-110"/>
      <use x="228.90625" xlink:href="#DejaVuSerif-97"/>
      <use x="288.525391" xlink:href="#DejaVuSerif-108"/>
     </g>
    </g>
   </g>
   <g id="line2d_29">
    <path clip-path="url(#pd0eff0df71)" d="M 63.586256 250.218683 
L 65.939704 249.829882 
L 68.293152 248.734955 
L 70.6466 247.032814 
L 73.000048 244.812109 
L 75.353496 242.152169 
L 77.706943 239.12387 
L 80.060391 235.790418 
L 82.413839 232.208073 
L 84.767287 228.426798 
L 87.120735 224.490867 
L 89.474183 220.439406 
L 91.827631 216.306892 
L 94.181079 212.12361 
L 96.534526 207.916063 
L 98.887974 203.707351 
L 101.241422 199.517513 
L 103.59487 195.363838 
L 105.948318 191.261151 
L 108.301766 187.222065 
L 110.655214 183.257221 
L 113.008661 179.375495 
L 115.362109 175.584193 
L 117.715557 171.889223 
L 120.069005 168.295254 
L 122.422453 164.805859 
L 124.775901 161.423641 
L 127.129349 158.150351 
L 129.482797 154.986995 
L 131.836244 151.933924 
L 134.189692 148.990923 
L 136.54314 146.157283 
L 138.896588 143.431876 
L 141.250036 140.813209 
L 143.603484 138.299484 
L 145.956932 135.888648 
L 148.310379 133.578432 
L 150.663827 131.366392 
L 153.017275 129.249948 
L 155.370723 127.226408 
L 157.724171 125.293 
L 160.077619 123.446893 
L 162.431067 121.68522 
L 164.784515 120.005095 
L 167.137962 118.403631 
L 169.49141 116.877952 
L 171.844858 115.425206 
L 174.198306 114.042574 
L 176.551754 112.727281 
L 178.905202 111.476602 
L 181.25865 110.287869 
L 183.612097 109.158474 
L 185.965545 108.085876 
L 188.318993 107.067603 
L 190.672441 106.101255 
L 193.025889 105.184503 
L 195.379337 104.315095 
L 197.732785 103.490855 
L 200.086233 102.709679 
L 202.43968 101.969542 
L 204.793128 101.268493 
L 207.146576 100.604656 
L 209.500024 99.976226 
L 211.853472 99.381472 
L 214.20692 98.818734 
L 216.560368 98.286421 
L 218.913816 97.783008 
L 221.267263 97.307037 
L 223.620711 96.857115 
L 225.974159 96.431908 
L 228.327607 96.030146 
L 230.681055 95.650613 
L 233.034503 95.292153 
L 235.387951 94.95366 
L 237.741398 94.634084 
L 240.094846 94.332424 
L 242.448294 94.047726 
L 244.801742 93.779084 
L 247.15519 93.525635 
L 249.508638 93.28656 
L 251.862086 93.06108 
L 254.215534 92.848457 
L 256.568981 92.647987 
L 258.922429 92.459005 
L 261.275877 92.280878 
L 263.629325 92.113007 
L 265.982773 91.954824 
L 268.336221 91.805789 
L 270.689669 91.665393 
L 273.043116 91.533152 
L 275.396564 91.408609 
L 277.750012 91.291329 
L 280.10346 91.180903 
L 282.456908 91.076943 
L 284.810356 90.979081 
L 287.163804 90.88697 
L 289.517252 90.800283 
L 291.870699 90.718708 
L 294.224147 90.641952 
L 296.577595 90.569738 
" style="fill:none;stroke:#7fa3ae;stroke-dasharray:;stroke-dashoffset:0;stroke-width:1.5;"/>
   </g>
   <g id="line2d_30">
    <path clip-path="url(#pd0eff0df71)" d="M 63.586256 250.218683 
L 65.795119 249.707565 
L 68.003983 248.268325 
L 70.212846 246.032294 
L 72.421709 243.118436 
L 74.630572 239.634235 
L 76.839435 235.676548 
L 79.048298 231.332397 
L 81.257161 226.679731 
L 83.466025 221.788136 
L 85.674888 216.719506 
L 87.883751 211.528671 
L 90.092614 206.263993 
L 92.301477 200.967912 
L 94.51034 195.677469 
L 96.719203 190.424783 
L 98.928067 185.237505 
L 101.13693 180.139232 
L 103.345793 175.149897 
L 105.554656 170.286128 
L 107.763519 165.561579 
L 109.972382 160.98724 
L 112.181245 156.571717 
L 114.390109 152.321497 
L 116.598972 148.241183 
L 118.807835 144.333716 
L 121.016698 140.600575 
L 123.225561 137.041962 
L 125.434424 133.656967 
L 127.643287 130.443722 
L 129.852151 127.39954 
L 132.061014 124.521036 
L 134.269877 121.804243 
L 136.47874 119.244712 
L 138.687603 116.837605 
L 140.896466 114.577774 
L 143.105329 112.459836 
L 145.314193 110.478236 
L 147.523056 108.627304 
L 149.731919 106.901307 
L 151.940782 105.294492 
L 154.149645 103.801123 
L 156.358508 102.415516 
L 158.567371 101.132069 
L 160.776235 99.945282 
L 162.985098 98.849781 
L 165.193961 97.840333 
L 167.402824 96.91186 
L 169.611687 96.059453 
L 171.82055 95.278375 
L 174.029413 94.564072 
L 176.238277 93.912175 
L 178.44714 93.318506 
L 180.656003 92.779072 
L 182.864866 92.290073 
L 185.073729 91.847896 
L 187.282592 91.449113 
L 189.491455 91.090478 
L 191.700319 90.768926 
L 193.909182 90.481563 
L 196.118045 90.225667 
L 198.326908 89.998676 
L 200.535771 89.79819 
L 202.744634 89.621959 
L 204.953497 89.467878 
L 207.162361 89.333985 
L 209.371224 89.218448 
L 211.580087 89.119565 
L 213.78895 89.035753 
L 215.997813 88.965547 
L 218.206676 88.907587 
L 220.415539 88.86062 
L 222.624403 88.823486 
L 224.833266 88.795121 
L 227.042129 88.774544 
L 229.250992 88.760855 
L 231.459855 88.753232 
L 233.668718 88.750922 
L 235.877581 88.753238 
L 238.086445 88.759557 
L 240.295308 88.769311 
L 242.504171 88.781986 
L 244.713034 88.797119 
L 246.921897 88.814291 
L 249.13076 88.833127 
L 251.339623 88.853291 
L 253.548487 88.874482 
L 255.75735 88.896432 
L 257.966213 88.918907 
L 260.175076 88.941696 
L 262.383939 88.964616 
L 264.592802 88.987509 
L 266.801665 89.010236 
L 269.010529 89.032676 
L 271.219392 89.054729 
L 273.428255 89.076309 
L 275.637118 89.097344 
L 277.845981 89.117775 
L 280.054844 89.137554 
L 282.263707 89.156646 
" style="fill:none;stroke:#d69e70;stroke-dasharray:6,4.5;stroke-dashoffset:0;stroke-width:1.5;"/>
   </g>
   <g id="line2d_31">
    <path clip-path="url(#pd0eff0df71)" d="M 63.586256 250.218683 
L 65.713119 249.452109 
L 67.839981 247.295921 
L 69.966844 243.953456 
L 72.093706 239.612288 
L 74.220569 234.444562 
L 76.347431 228.607422 
L 78.474294 222.243525 
L 80.601156 215.481626 
L 82.728019 208.437206 
L 84.854881 201.213151 
L 86.981744 193.900454 
L 89.108606 186.578933 
L 91.235469 179.317963 
L 93.362331 172.177207 
L 95.489194 165.207339 
L 97.616056 158.450759 
L 99.742919 151.94229 
L 101.869781 145.70985 
L 103.996644 139.775103 
L 106.123506 134.154085 
L 108.250369 128.857791 
L 110.377231 123.892746 
L 112.504094 119.261522 
L 114.630956 114.963248 
L 116.757819 110.994061 
L 118.884681 107.347544 
L 121.011544 104.015119 
L 123.138406 100.986415 
L 125.265269 98.249596 
L 127.392131 95.791669 
L 129.518994 93.598756 
L 131.645856 91.65634 
L 133.772719 89.949485 
L 135.899581 88.463028 
L 138.026444 87.181756 
L 140.153306 86.090546 
L 142.280169 85.174503 
L 144.407031 84.41906 
L 146.533894 83.810079 
L 148.660756 83.333917 
L 150.787619 82.977498 
L 152.914481 82.72835 
L 155.041344 82.574649 
L 157.168206 82.505241 
L 159.295069 82.509656 
L 161.421931 82.578118 
L 163.548794 82.701543 
L 165.675656 82.871534 
L 167.802519 83.080367 
L 169.929381 83.320972 
L 172.056244 83.58692 
L 174.183106 83.87239 
L 176.309969 84.172148 
L 178.436831 84.481518 
L 180.563694 84.79635 
L 182.690556 85.112989 
L 184.817419 85.428249 
L 186.944281 85.739373 
L 189.071144 86.044009 
L 191.198006 86.340173 
L 193.324868 86.626225 
L 195.451731 86.900831 
L 197.578593 87.162944 
L 199.705456 87.411769 
L 201.832318 87.646739 
L 203.959181 87.867494 
L 206.086043 88.07385 
L 208.212906 88.265784 
L 210.339768 88.443409 
L 212.466631 88.606958 
L 214.593493 88.756763 
L 216.720356 88.893241 
L 218.847218 89.016878 
L 220.974081 89.128215 
L 223.100943 89.227837 
L 225.227806 89.316361 
L 227.354668 89.394426 
L 229.481531 89.462682 
L 231.608393 89.521789 
L 233.735256 89.572402 
L 235.862118 89.615169 
L 237.988981 89.650727 
L 240.115843 89.679694 
L 242.242706 89.702671 
L 244.369568 89.720233 
L 246.496431 89.732931 
L 248.623293 89.741287 
L 250.750156 89.745797 
L 252.877018 89.746925 
L 255.003881 89.745108 
L 257.130743 89.740749 
L 259.257606 89.734226 
L 261.384468 89.725884 
L 263.511331 89.716041 
L 265.638193 89.704987 
L 267.765056 89.692983 
L 269.891918 89.680268 
L 272.018781 89.667054 
L 274.145643 89.653529 
" style="fill:none;stroke:#e5c36b;stroke-dasharray:1.5,1.5;stroke-dashoffset:0;stroke-width:1.5;"/>
   </g>
   <g id="line2d_32">
    <path clip-path="url(#pd0eff0df71)" d="M 63.586256 250.218683 
L 65.795606 249.075395 
L 68.004956 245.864842 
L 70.214306 240.904247 
L 72.423656 234.493314 
L 74.633006 226.912379 
L 76.842356 218.421068 
L 79.051705 209.257418 
L 81.261055 199.637419 
L 83.470405 189.75492 
L 85.679755 179.781852 
L 87.889105 169.868735 
L 90.098455 160.145404 
L 92.307805 150.721938 
L 94.517155 141.689731 
L 96.726505 133.122691 
L 98.935855 125.078514 
L 101.145204 117.600022 
L 103.354554 110.716533 
L 105.563904 104.445229 
L 107.773254 98.792519 
L 109.982604 93.755374 
L 112.191954 89.32261 
L 114.401304 85.47612 
L 116.610654 82.192039 
L 118.820004 79.441833 
L 121.029353 77.193314 
L 123.238703 75.411568 
L 125.448053 74.059798 
L 127.657403 73.100086 
L 129.866753 72.494067 
L 132.076103 72.203519 
L 134.285453 72.190878 
L 136.494803 72.419673 
L 138.704153 72.854886 
L 140.913502 73.463248 
L 143.122852 74.213475 
L 145.332202 75.076434 
L 147.541552 76.025267 
L 149.750902 77.035468 
L 151.960252 78.084906 
L 154.169602 79.153825 
L 156.378952 80.224804 
L 158.588302 81.282691 
L 160.797651 82.314512 
L 163.007001 83.309367 
L 165.216351 84.258308 
L 167.425701 85.154204 
L 169.635051 85.991602 
L 171.844401 86.76658 
L 174.053751 87.476601 
L 176.263101 88.120366 
L 178.472451 88.697667 
L 180.6818 89.209246 
L 182.89115 89.656662 
L 185.1005 90.04216 
L 187.30985 90.368548 
L 189.5192 90.639086 
L 191.72855 90.85738 
L 193.9379 91.027285 
L 196.14725 91.152823 
L 198.3566 91.2381 
L 200.565949 91.287239 
L 202.775299 91.304324 
L 204.984649 91.293345 
L 207.193999 91.258154 
L 209.403349 91.202433 
L 211.612699 91.129664 
L 213.822049 91.043107 
L 216.031399 90.945782 
L 218.240749 90.840461 
L 220.450099 90.729662 
L 222.659448 90.615648 
L 224.868798 90.500426 
L 227.078148 90.385756 
L 229.287498 90.27316 
L 231.496848 90.163929 
L 233.706198 90.059135 
L 235.915548 89.959651 
L 238.124898 89.866158 
L 240.334248 89.779166 
L 242.543597 89.699025 
L 244.752947 89.625946 
L 246.962297 89.560014 
L 249.171647 89.501201 
L 251.380997 89.449387 
L 253.590347 89.404367 
L 255.799697 89.365873 
L 258.009047 89.333577 
L 260.218397 89.307113 
L 262.427746 89.286077 
L 264.637096 89.270047 
L 266.846446 89.258585 
L 269.055796 89.251248 
L 271.265146 89.247595 
L 273.474496 89.247189 
L 275.683846 89.249609 
L 277.893196 89.254449 
L 280.102546 89.261321 
L 282.311895 89.269863 
" style="fill:none;stroke:#6f64a3;stroke-dasharray:6,4.5,1.5,4.5;stroke-dashoffset:0;stroke-width:1.5;"/>
   </g>
   <g id="line2d_33">
    <path clip-path="url(#pd0eff0df71)" d="M 63.586256 250.218683 
L 66.41049 247.614424 
L 69.234724 240.347524 
L 72.058958 229.262847 
L 74.883191 215.214678 
L 77.707425 199.038444 
L 80.531659 181.526756 
L 83.355892 163.409973 
L 86.180126 145.34129 
L 89.00436 127.886246 
L 91.828594 111.516378 
L 94.652827 96.606695 
L 97.477061 83.43654 
L 100.301295 72.19336 
L 103.125529 62.978896 
L 105.949762 55.81726 
L 108.773996 50.664415 
L 111.59823 47.41855 
L 114.422464 45.930923 
L 117.246697 46.01676 
L 120.070931 47.46585 
L 122.895165 50.052556 
L 125.719399 53.544991 
L 128.543632 57.713179 
L 131.367866 62.336083 
L 134.1921 67.207424 
L 137.016334 72.140261 
L 139.840567 76.970357 
L 142.664801 81.558387 
L 145.489035 85.79106 
L 148.313269 89.581271 
L 151.137502 92.867406 
L 153.961736 95.611931 
L 156.78597 97.799402 
L 159.610204 99.434044 
L 162.434437 100.537022 
L 165.258671 101.143536 
L 168.082905 101.299861 
L 170.907139 101.060413 
L 173.731372 100.484963 
L 176.555606 99.636032 
L 179.37984 98.576553 
L 182.204074 97.367825 
L 185.028307 96.067785 
L 187.852541 94.729622 
L 190.676775 93.400715 
L 193.501009 92.121906 
L 196.325242 90.927062 
L 199.149476 89.842928 
L 201.97371 88.889217 
L 204.797944 88.078917 
L 207.622177 87.418762 
L 210.446411 86.909846 
L 213.270645 86.548333 
L 216.094879 86.326227 
L 218.919112 86.232173 
L 221.743346 86.252263 
L 224.56758 86.370808 
L 227.391814 86.571073 
L 230.216047 86.835944 
L 233.040281 87.148516 
L 235.864515 87.492608 
L 238.688749 87.853171 
L 241.512982 88.216622 
L 244.337216 88.571077 
L 247.16145 88.906503 
L 249.985684 89.214793 
L 252.809917 89.489768 
L 255.634151 89.727119 
L 258.458385 89.924294 
L 261.282619 90.080352 
L 264.106852 90.195774 
L 266.931086 90.272266 
L 269.75532 90.312542 
L 272.579554 90.320102 
L 275.403787 90.29902 
L 278.228021 90.253743 
L 281.052255 90.188892 
L 283.876489 90.109102 
L 286.700722 90.018868 
L 289.524956 89.922424 
L 292.34919 89.823641 
L 295.173424 89.725953 
L 297.997657 89.632308 
L 300.821891 89.545138 
L 303.646125 89.466346 
L 306.470359 89.397323 
L 309.294592 89.338964 
L 312.118826 89.29171 
L 314.94306 89.255593 
L 317.767294 89.230287 
L 320.591527 89.215166 
L 323.415761 89.209368 
L 326.239995 89.211845 
L 329.064229 89.221429 
L 331.888462 89.236878 
L 334.712696 89.25693 
L 337.53693 89.280344 
L 340.361164 89.305935 
L 343.185397 89.332606 
" style="fill:none;stroke:#4ea981;stroke-dasharray:6,1.5,1.5,1.5;stroke-dashoffset:0;stroke-width:1.5;"/>
   </g>
   <g id="patch_3">
    <path d="M 49.606299 260.433071 
L 49.606299 35.716535 
" style="fill:none;stroke:#000000;stroke-linecap:square;stroke-linejoin:miter;stroke-width:0.8;"/>
   </g>
   <g id="patch_4">
    <path d="M 357.165354 260.433071 
L 357.165354 35.716535 
" style="fill:none;stroke:#000000;stroke-linecap:square;stroke-linejoin:miter;stroke-width:0.8;"/>
   </g>
   <g id="patch_5">
    <path d="M 49.606299 260.433071 
L 357.165354 260.433071 
" style="fill:none;stroke:#000000;stroke-linecap:square;stroke-linejoin:miter;stroke-width:0.8;"/>
   </g>
   <g id="patch_6">
    <path d="M 49.606299 35.716535 
L 357.165354 35.716535 
" style="fill:none;stroke:#000000;stroke-linecap:square;stroke-linejoin:miter;stroke-width:0.8;"/>
   </g>
   <g id="legend_1">
    <g id="patch_7">
     <path d="M 178.338011 254.933071 
L 349.465354 254.933071 
Q 351.665354 254.933071 351.665354 252.733071 
L 351.665354 172.634165 
Q 351.665354 170.434165 349.465354 170.434165 
L 178.338011 170.434165 
Q 176.138011 170.434165 176.138011 172.634165 
L 176.138011 252.733071 
Q 176.138011 254.933071 178.338011 254.933071 
z
" style="fill:#ffffff;opacity:0.8;stroke:#cccccc;stroke-linejoin:miter;"/>
    </g>
    <g id="line2d_34">
     <path d="M 180.538011 179.342446 
L 202.538011 179.342446 
" style="fill:none;stroke:#7fa3ae;stroke-dasharray:;stroke-dashoffset:0;stroke-width:1.5;"/>
    </g>
    <g id="line2d_35"/>
    <g id="text_17">
     <!-- Critically damped -->
     <g transform="translate(211.338011 183.192446)scale(0.11 -0.11)">
      <defs>
       <path d="M 70.515625 19.28125 
Q 67.28125 9.078125 59.6875 3.828125 
Q 52.09375 -1.421875 40.484375 -1.421875 
Q 33.34375 -1.421875 27.234375 1.015625 
Q 21.140625 3.46875 16.40625 8.203125 
Q 10.9375 13.671875 8.265625 20.625 
Q 5.609375 27.59375 5.609375 36.375 
Q 5.609375 53.375 15.421875 63.796875 
Q 25.25 74.21875 41.3125 74.21875 
Q 47.265625 74.21875 54 72.65625 
Q 60.75 71.09375 68.5 67.921875 
L 68.5 51.125 
L 62.984375 51.125 
Q 61.1875 60.296875 55.734375 64.640625 
Q 50.296875 69 40.484375 69 
Q 28.8125 69 22.796875 60.71875 
Q 16.796875 52.4375 16.796875 36.375 
Q 16.796875 20.359375 22.796875 12.078125 
Q 28.8125 3.8125 40.484375 3.8125 
Q 48.640625 3.8125 53.90625 7.6875 
Q 59.1875 11.578125 61.53125 19.28125 
z
" id="DejaVuSerif-67"/>
       <path d="M 47.796875 52 
L 47.796875 39.015625 
L 42.625 39.015625 
Q 42.390625 42.875 40.484375 44.78125 
Q 38.578125 46.6875 34.90625 46.6875 
Q 28.265625 46.6875 24.71875 42.09375 
Q 21.1875 37.5 21.1875 28.90625 
L 21.1875 5.171875 
L 31.59375 5.171875 
L 31.59375 0 
L 4.109375 0 
L 4.109375 5.171875 
L 12.203125 5.171875 
L 12.203125 46.78125 
L 3.609375 46.78125 
L 3.609375 51.90625 
L 21.1875 51.90625 
L 21.1875 42.671875 
Q 23.828125 48.09375 27.96875 50.703125 
Q 32.125 53.328125 38.09375 53.328125 
Q 40.28125 53.328125 42.703125 52.984375 
Q 45.125 52.640625 47.796875 52 
z
" id="DejaVuSerif-114"/>
       <path d="M 10.796875 46.6875 
L 2.875 46.6875 
L 2.875 51.90625 
L 10.796875 51.90625 
L 10.796875 68.015625 
L 19.828125 68.015625 
L 19.828125 51.90625 
L 36.71875 51.90625 
L 36.71875 46.6875 
L 19.828125 46.6875 
L 19.828125 13.71875 
Q 19.828125 7.125 21.09375 5.265625 
Q 22.359375 3.421875 25.78125 3.421875 
Q 29.296875 3.421875 30.90625 5.484375 
Q 32.515625 7.5625 32.625 12.203125 
L 39.40625 12.203125 
Q 39.015625 5.125 35.546875 1.84375 
Q 32.078125 -1.421875 25 -1.421875 
Q 17.234375 -1.421875 14.015625 2.015625 
Q 10.796875 5.46875 10.796875 13.71875 
z
" id="DejaVuSerif-116"/>
       <path d="M 51.421875 15.578125 
Q 49.515625 7.28125 44.09375 2.921875 
Q 38.671875 -1.421875 30.078125 -1.421875 
Q 18.75 -1.421875 11.859375 6.078125 
Q 4.984375 13.578125 4.984375 25.984375 
Q 4.984375 38.421875 11.859375 45.875 
Q 18.75 53.328125 30.078125 53.328125 
Q 35.015625 53.328125 39.890625 52.171875 
Q 44.78125 51.03125 49.703125 48.6875 
L 49.703125 35.40625 
L 44.484375 35.40625 
Q 43.453125 42.234375 40.015625 45.359375 
Q 36.578125 48.484375 30.171875 48.484375 
Q 22.90625 48.484375 19.1875 42.84375 
Q 15.484375 37.203125 15.484375 25.984375 
Q 15.484375 14.75 19.171875 9.078125 
Q 22.859375 3.421875 30.171875 3.421875 
Q 35.984375 3.421875 39.453125 6.4375 
Q 42.921875 9.46875 44.1875 15.578125 
z
" id="DejaVuSerif-99"/>
       <path d="M 21.578125 -9.515625 
L 25 -0.875 
L 5.609375 46.6875 
L -0.296875 46.6875 
L -0.296875 51.90625 
L 23.578125 51.90625 
L 23.578125 46.6875 
L 15.28125 46.6875 
L 29.890625 10.984375 
L 44.484375 46.6875 
L 36.71875 46.6875 
L 36.71875 51.90625 
L 56.203125 51.90625 
L 56.203125 46.6875 
L 50.390625 46.6875 
L 26.609375 -11.71875 
Q 24.171875 -17.78125 21.1875 -20 
Q 18.21875 -22.21875 12.796875 -22.21875 
Q 10.5 -22.21875 8.078125 -21.828125 
Q 5.671875 -21.4375 3.21875 -20.703125 
L 3.21875 -10.796875 
L 7.8125 -10.796875 
Q 8.109375 -14.109375 9.5 -15.546875 
Q 10.890625 -17 13.8125 -17 
Q 16.5 -17 18.140625 -15.5 
Q 19.78125 -14.015625 21.578125 -9.515625 
z
" id="DejaVuSerif-121"/>
       <path id="DejaVuSerif-32"/>
       <path d="M 52.484375 5.171875 
L 61.078125 5.171875 
L 61.078125 0 
L 43.5 0 
L 43.5 8.109375 
Q 40.875 3.21875 36.796875 0.890625 
Q 32.71875 -1.421875 26.703125 -1.421875 
Q 17.140625 -1.421875 11.0625 6.171875 
Q 4.984375 13.765625 4.984375 25.984375 
Q 4.984375 38.1875 11.03125 45.75 
Q 17.09375 53.328125 26.703125 53.328125 
Q 32.71875 53.328125 36.796875 51 
Q 40.875 48.6875 43.5 43.796875 
L 43.5 70.796875 
L 35.015625 70.796875 
L 35.015625 75.984375 
L 52.484375 75.984375 
z
M 43.5 23.390625 
L 43.5 28.515625 
Q 43.5 37.84375 39.90625 42.765625 
Q 36.328125 47.703125 29.5 47.703125 
Q 22.5625 47.703125 19.015625 42.234375 
Q 15.484375 36.765625 15.484375 25.984375 
Q 15.484375 15.234375 19.015625 9.71875 
Q 22.5625 4.203125 29.5 4.203125 
Q 36.328125 4.203125 39.90625 9.109375 
Q 43.5 14.015625 43.5 23.390625 
z
" id="DejaVuSerif-100"/>
       <path d="M 20.515625 28.515625 
L 20.515625 23.390625 
Q 20.515625 14.015625 24.09375 9.109375 
Q 27.6875 4.203125 34.515625 4.203125 
Q 41.40625 4.203125 44.9375 9.71875 
Q 48.484375 15.234375 48.484375 25.984375 
Q 48.484375 36.765625 44.9375 42.234375 
Q 41.40625 47.703125 34.515625 47.703125 
Q 27.6875 47.703125 24.09375 42.765625 
Q 20.515625 37.84375 20.515625 28.515625 
z
M 11.53125 46.6875 
L 2.875 46.6875 
L 2.875 51.90625 
L 20.515625 51.90625 
L 20.515625 43.796875 
Q 23.140625 48.6875 27.21875 51 
Q 31.296875 53.328125 37.3125 53.328125 
Q 46.875 53.328125 52.921875 45.75 
Q 58.984375 38.1875 58.984375 25.984375 
Q 58.984375 13.765625 52.921875 6.171875 
Q 46.875 -1.421875 37.3125 -1.421875 
Q 31.296875 -1.421875 27.21875 0.890625 
Q 23.140625 3.21875 20.515625 8.109375 
L 20.515625 -15.578125 
L 29 -15.578125 
L 29 -20.796875 
L 2.875 -20.796875 
L 2.875 -15.578125 
L 11.53125 -15.578125 
z
" id="DejaVuSerif-112"/>
      </defs>
      <use xlink:href="#DejaVuSerif-67"/>
      <use x="76.513672" xlink:href="#DejaVuSerif-114"/>
      <use x="124.316406" xlink:href="#DejaVuSerif-105"/>
      <use x="156.298828" xlink:href="#DejaVuSerif-116"/>
      <use x="196.484375" xlink:href="#DejaVuSerif-105"/>
      <use x="228.466797" xlink:href="#DejaVuSerif-99"/>
      <use x="284.472656" xlink:href="#DejaVuSerif-97"/>
      <use x="344.091797" xlink:href="#DejaVuSerif-108"/>
      <use x="376.074219" xlink:href="#DejaVuSerif-108"/>
      <use x="408.056641" xlink:href="#DejaVuSerif-121"/>
      <use x="464.550781" xlink:href="#DejaVuSerif-32"/>
      <use x="496.337891" xlink:href="#DejaVuSerif-100"/>
      <use x="560.351562" xlink:href="#DejaVuSerif-97"/>
      <use x="619.970703" xlink:href="#DejaVuSerif-109"/>
      <use x="714.794922" xlink:href="#DejaVuSerif-112"/>
      <use x="778.808594" xlink:href="#DejaVuSerif-101"/>
      <use x="837.988281" xlink:href="#DejaVuSerif-100"/>
     </g>
    </g>
    <g id="line2d_36">
     <path d="M 180.538011 195.64479 
L 202.538011 195.64479 
" style="fill:none;stroke:#d69e70;stroke-dasharray:6,4.5;stroke-dashoffset:0;stroke-width:1.5;"/>
    </g>
    <g id="line2d_37"/>
    <g id="text_18">
     <!-- Bessel -->
     <g transform="translate(211.338011 199.49479)scale(0.11 -0.11)">
      <defs>
       <path d="M 24.703125 5.171875 
L 39.3125 5.171875 
Q 48.09375 5.171875 52.140625 8.984375 
Q 56.203125 12.796875 56.203125 21.09375 
Q 56.203125 29.34375 52.171875 33.125 
Q 48.140625 36.921875 39.3125 36.921875 
L 24.703125 36.921875 
z
M 24.703125 42.09375 
L 37.109375 42.09375 
Q 45.125 42.09375 48.796875 45.171875 
Q 52.484375 48.25 52.484375 54.890625 
Q 52.484375 61.578125 48.796875 64.625 
Q 45.125 67.671875 37.109375 67.671875 
L 24.703125 67.671875 
z
M 5.515625 0 
L 5.515625 5.171875 
L 14.796875 5.171875 
L 14.796875 67.671875 
L 5.515625 67.671875 
L 5.515625 72.90625 
L 41.5 72.90625 
Q 52.546875 72.90625 58.125 68.390625 
Q 63.71875 63.875 63.71875 54.890625 
Q 63.71875 48.390625 59.828125 44.53125 
Q 55.953125 40.671875 48.484375 39.796875 
Q 57.765625 38.625 62.578125 33.859375 
Q 67.390625 29.109375 67.390625 21.09375 
Q 67.390625 10.25 60.546875 5.125 
Q 53.71875 0 39.203125 0 
z
" id="DejaVuSerif-66"/>
       <path d="M 5.609375 2.875 
L 5.609375 14.984375 
L 10.796875 14.984375 
Q 10.984375 9.1875 14.421875 6.296875 
Q 17.875 3.421875 24.609375 3.421875 
Q 30.671875 3.421875 33.84375 5.6875 
Q 37.015625 7.953125 37.015625 12.3125 
Q 37.015625 15.71875 34.6875 17.8125 
Q 32.375 19.921875 24.90625 22.3125 
L 18.40625 24.515625 
Q 11.71875 26.65625 8.71875 29.875 
Q 5.71875 33.109375 5.71875 38.09375 
Q 5.71875 45.21875 10.9375 49.265625 
Q 16.15625 53.328125 25.390625 53.328125 
Q 29.5 53.328125 34.03125 52.25 
Q 38.578125 51.171875 43.40625 49.125 
L 43.40625 37.796875 
L 38.234375 37.796875 
Q 38.03125 42.828125 34.703125 45.65625 
Q 31.390625 48.484375 25.6875 48.484375 
Q 20.015625 48.484375 17.109375 46.484375 
Q 14.203125 44.484375 14.203125 40.484375 
Q 14.203125 37.203125 16.40625 35.21875 
Q 18.609375 33.25 25.203125 31.203125 
L 32.328125 29 
Q 39.703125 26.703125 42.9375 23.265625 
Q 46.1875 19.828125 46.1875 14.40625 
Q 46.1875 7.03125 40.546875 2.796875 
Q 34.90625 -1.421875 25 -1.421875 
Q 19.96875 -1.421875 15.1875 -0.34375 
Q 10.40625 0.734375 5.609375 2.875 
z
" id="DejaVuSerif-115"/>
      </defs>
      <use xlink:href="#DejaVuSerif-66"/>
      <use x="73.486328" xlink:href="#DejaVuSerif-101"/>
      <use x="132.666016" xlink:href="#DejaVuSerif-115"/>
      <use x="183.984375" xlink:href="#DejaVuSerif-115"/>
      <use x="235.302734" xlink:href="#DejaVuSerif-101"/>
      <use x="294.482422" xlink:href="#DejaVuSerif-108"/>
     </g>
    </g>
    <g id="line2d_38">
     <path d="M 180.538011 211.790727 
L 202.538011 211.790727 
" style="fill:none;stroke:#e5c36b;stroke-dasharray:1.5,1.5;stroke-dashoffset:0;stroke-width:1.5;"/>
    </g>
    <g id="line2d_39"/>
    <g id="text_19">
     <!-- Butterworth -->
     <g transform="translate(211.338011 215.640727)scale(0.11 -0.11)">
      <defs>
       <path d="M 35.40625 51.90625 
L 52.203125 51.90625 
L 52.203125 5.171875 
L 60.6875 5.171875 
L 60.6875 0 
L 43.21875 0 
L 43.21875 9.1875 
Q 40.71875 4 36.765625 1.28125 
Q 32.8125 -1.421875 27.59375 -1.421875 
Q 18.953125 -1.421875 14.875 3.484375 
Q 10.796875 8.40625 10.796875 18.890625 
L 10.796875 46.6875 
L 2.6875 46.6875 
L 2.6875 51.90625 
L 19.828125 51.90625 
L 19.828125 21.6875 
Q 19.828125 12.203125 22.140625 8.6875 
Q 24.46875 5.171875 30.421875 5.171875 
Q 36.671875 5.171875 39.9375 9.765625 
Q 43.21875 14.359375 43.21875 23.09375 
L 43.21875 46.6875 
L 35.40625 46.6875 
z
" id="DejaVuSerif-117"/>
       <path d="M 48 51.90625 
L 61.28125 11.375 
L 73 46.6875 
L 65.484375 46.6875 
L 65.484375 51.90625 
L 84.28125 51.90625 
L 84.28125 46.6875 
L 78.515625 46.6875 
L 63.09375 0 
L 55.609375 0 
L 42.828125 38.8125 
L 29.984375 0 
L 22.796875 0 
L 7.421875 46.6875 
L 1.609375 46.6875 
L 1.609375 51.90625 
L 25.09375 51.90625 
L 25.09375 46.6875 
L 16.703125 46.6875 
L 28.328125 11.375 
L 41.703125 51.90625 
z
" id="DejaVuSerif-119"/>
       <path d="M 30.078125 3.421875 
Q 37.3125 3.421875 40.984375 9.125 
Q 44.671875 14.84375 44.671875 25.984375 
Q 44.671875 37.109375 40.984375 42.796875 
Q 37.3125 48.484375 30.078125 48.484375 
Q 22.859375 48.484375 19.171875 42.796875 
Q 15.484375 37.109375 15.484375 25.984375 
Q 15.484375 14.84375 19.1875 9.125 
Q 22.90625 3.421875 30.078125 3.421875 
z
M 30.078125 -1.421875 
Q 18.75 -1.421875 11.859375 6.078125 
Q 4.984375 13.578125 4.984375 25.984375 
Q 4.984375 38.375 11.84375 45.84375 
Q 18.703125 53.328125 30.078125 53.328125 
Q 41.453125 53.328125 48.3125 45.84375 
Q 55.171875 38.375 55.171875 25.984375 
Q 55.171875 13.578125 48.3125 6.078125 
Q 41.453125 -1.421875 30.078125 -1.421875 
z
" id="DejaVuSerif-111"/>
       <path d="M 4.109375 0 
L 4.109375 5.171875 
L 12.203125 5.171875 
L 12.203125 70.796875 
L 3.609375 70.796875 
L 3.609375 75.984375 
L 21.1875 75.984375 
L 21.1875 42.671875 
Q 23.6875 47.953125 27.65625 50.640625 
Q 31.640625 53.328125 36.921875 53.328125 
Q 45.515625 53.328125 49.5625 48.390625 
Q 53.609375 43.453125 53.609375 33.015625 
L 53.609375 5.171875 
L 61.625 5.171875 
L 61.625 0 
L 36.8125 0 
L 36.8125 5.171875 
L 44.578125 5.171875 
L 44.578125 30.171875 
Q 44.578125 39.703125 42.25 43.1875 
Q 39.9375 46.6875 33.984375 46.6875 
Q 27.734375 46.6875 24.453125 42.140625 
Q 21.1875 37.59375 21.1875 28.90625 
L 21.1875 5.171875 
L 29 5.171875 
L 29 0 
z
" id="DejaVuSerif-104"/>
      </defs>
      <use xlink:href="#DejaVuSerif-66"/>
      <use x="73.486328" xlink:href="#DejaVuSerif-117"/>
      <use x="137.890625" xlink:href="#DejaVuSerif-116"/>
      <use x="178.076172" xlink:href="#DejaVuSerif-116"/>
      <use x="218.261719" xlink:href="#DejaVuSerif-101"/>
      <use x="277.441406" xlink:href="#DejaVuSerif-114"/>
      <use x="325.244141" xlink:href="#DejaVuSerif-119"/>
      <use x="410.839844" xlink:href="#DejaVuSerif-111"/>
      <use x="471.044922" xlink:href="#DejaVuSerif-114"/>
      <use x="518.847656" xlink:href="#DejaVuSerif-116"/>
      <use x="559.033203" xlink:href="#DejaVuSerif-104"/>
     </g>
    </g>
    <g id="line2d_40">
     <path d="M 180.538011 227.936665 
L 202.538011 227.936665 
" style="fill:none;stroke:#6f64a3;stroke-dasharray:6,4.5,1.5,4.5;stroke-dashoffset:0;stroke-width:1.5;"/>
    </g>
    <g id="line2d_41"/>
    <g id="text_20">
     <!-- Chebychev, 0.5dB ripple -->
     <g transform="translate(211.338011 231.786665)scale(0.11 -0.11)">
      <defs>
       <path d="M 11.53125 5.171875 
L 11.53125 70.796875 
L 2.875 70.796875 
L 2.875 75.984375 
L 20.515625 75.984375 
L 20.515625 43.796875 
Q 23.140625 48.6875 27.21875 51 
Q 31.296875 53.328125 37.3125 53.328125 
Q 46.875 53.328125 52.921875 45.75 
Q 58.984375 38.1875 58.984375 25.984375 
Q 58.984375 13.765625 52.921875 6.171875 
Q 46.875 -1.421875 37.3125 -1.421875 
Q 31.296875 -1.421875 27.21875 0.890625 
Q 23.140625 3.21875 20.515625 8.109375 
L 20.515625 0 
L 2.875 0 
L 2.875 5.171875 
z
M 20.515625 23.390625 
Q 20.515625 14.015625 24.09375 9.109375 
Q 27.6875 4.203125 34.515625 4.203125 
Q 41.40625 4.203125 44.9375 9.71875 
Q 48.484375 15.234375 48.484375 25.984375 
Q 48.484375 36.765625 44.9375 42.234375 
Q 41.40625 47.703125 34.515625 47.703125 
Q 27.6875 47.703125 24.09375 42.765625 
Q 20.515625 37.84375 20.515625 28.515625 
z
" id="DejaVuSerif-98"/>
       <path d="M 24.703125 0 
L 5.609375 46.6875 
L -0.296875 46.6875 
L -0.296875 51.90625 
L 23.578125 51.90625 
L 23.578125 46.6875 
L 15.28125 46.6875 
L 29.890625 10.984375 
L 44.484375 46.6875 
L 36.71875 46.6875 
L 36.71875 51.90625 
L 56.203125 51.90625 
L 56.203125 46.6875 
L 50.390625 46.6875 
L 31.296875 0 
z
" id="DejaVuSerif-118"/>
       <path d="M 3.609375 -9.71875 
Q 8.203125 -6.34375 10.34375 -1.78125 
Q 12.5 2.78125 12.5 9.28125 
L 12.5 11.078125 
L 22.125 11.078125 
Q 21.734375 2.734375 18.1875 -3.25 
Q 14.65625 -9.234375 7.515625 -13.625 
z
" id="DejaVuSerif-44"/>
       <path d="M 50.296875 72.90625 
L 50.296875 64.890625 
L 16.890625 64.890625 
L 16.890625 44 
Q 19.4375 45.75 22.828125 46.625 
Q 26.21875 47.515625 30.421875 47.515625 
Q 42.234375 47.515625 49.0625 40.96875 
Q 55.90625 34.421875 55.90625 23.09375 
Q 55.90625 11.53125 49 5.046875 
Q 42.09375 -1.421875 29.59375 -1.421875 
Q 24.5625 -1.421875 19.28125 -0.1875 
Q 14.015625 1.03125 8.5 3.515625 
L 8.5 17.671875 
L 14.015625 17.671875 
Q 14.453125 10.75 18.421875 7.078125 
Q 22.40625 3.421875 29.59375 3.421875 
Q 37.3125 3.421875 41.453125 8.5 
Q 45.609375 13.578125 45.609375 23.09375 
Q 45.609375 32.5625 41.484375 37.609375 
Q 37.359375 42.671875 29.59375 42.671875 
Q 25.203125 42.671875 21.84375 41.109375 
Q 18.5 39.546875 15.921875 36.28125 
L 11.71875 36.28125 
L 11.71875 72.90625 
z
" id="DejaVuSerif-53"/>
      </defs>
      <use xlink:href="#DejaVuSerif-67"/>
      <use x="76.513672" xlink:href="#DejaVuSerif-104"/>
      <use x="140.917969" xlink:href="#DejaVuSerif-101"/>
      <use x="200.097656" xlink:href="#DejaVuSerif-98"/>
      <use x="264.111328" xlink:href="#DejaVuSerif-121"/>
      <use x="320.605469" xlink:href="#DejaVuSerif-99"/>
      <use x="376.611328" xlink:href="#DejaVuSerif-104"/>
      <use x="441.015625" xlink:href="#DejaVuSerif-101"/>
      <use x="500.195312" xlink:href="#DejaVuSerif-118"/>
      <use x="544.814453" xlink:href="#DejaVuSerif-44"/>
      <use x="576.601562" xlink:href="#DejaVuSerif-32"/>
      <use x="608.388672" xlink:href="#DejaVuSerif-48"/>
      <use x="672.011719" xlink:href="#DejaVuSerif-46"/>
      <use x="703.798828" xlink:href="#DejaVuSerif-53"/>
      <use x="767.421875" xlink:href="#DejaVuSerif-100"/>
      <use x="831.435547" xlink:href="#DejaVuSerif-66"/>
      <use x="904.921875" xlink:href="#DejaVuSerif-32"/>
      <use x="936.708984" xlink:href="#DejaVuSerif-114"/>
      <use x="984.511719" xlink:href="#DejaVuSerif-105"/>
      <use x="1016.494141" xlink:href="#DejaVuSerif-112"/>
      <use x="1080.507812" xlink:href="#DejaVuSerif-112"/>
      <use x="1144.521484" xlink:href="#DejaVuSerif-108"/>
      <use x="1176.503906" xlink:href="#DejaVuSerif-101"/>
     </g>
    </g>
    <g id="line2d_42">
     <path d="M 180.538011 244.239008 
L 202.538011 244.239008 
" style="fill:none;stroke:#4ea981;stroke-dasharray:6,1.5,1.5,1.5;stroke-dashoffset:0;stroke-width:1.5;"/>
    </g>
    <g id="line2d_43"/>
    <g id="text_21">
     <!-- Chebychev, 3dB ripple -->
     <g transform="translate(211.338011 248.089008)scale(0.11 -0.11)">
      <defs>
       <path d="M 9.71875 69.828125 
Q 15.4375 71.96875 20.671875 73.09375 
Q 25.921875 74.21875 30.515625 74.21875 
Q 41.21875 74.21875 47.21875 69.59375 
Q 53.21875 64.984375 53.21875 56.78125 
Q 53.21875 50.203125 49.0625 45.78125 
Q 44.921875 41.359375 37.3125 39.796875 
Q 46.296875 38.53125 51.25 33.28125 
Q 56.203125 28.03125 56.203125 19.671875 
Q 56.203125 9.46875 49.34375 4.015625 
Q 42.484375 -1.421875 29.59375 -1.421875 
Q 23.875 -1.421875 18.421875 -0.1875 
Q 12.984375 1.03125 7.625 3.515625 
L 7.625 17.671875 
L 13.09375 17.671875 
Q 13.578125 10.640625 17.828125 7.03125 
Q 22.078125 3.421875 29.78125 3.421875 
Q 37.25 3.421875 41.578125 7.734375 
Q 45.90625 12.0625 45.90625 19.578125 
Q 45.90625 28.171875 41.453125 32.59375 
Q 37.015625 37.015625 28.421875 37.015625 
L 23.78125 37.015625 
L 23.78125 42 
L 26.21875 42 
Q 34.765625 42 39.03125 45.53125 
Q 43.3125 49.078125 43.3125 56.203125 
Q 43.3125 62.59375 39.796875 65.984375 
Q 36.28125 69.390625 29.6875 69.390625 
Q 23.09375 69.390625 19.453125 66.265625 
Q 15.828125 63.140625 15.1875 56.984375 
L 9.71875 56.984375 
z
" id="DejaVuSerif-51"/>
      </defs>
      <use xlink:href="#DejaVuSerif-67"/>
      <use x="76.513672" xlink:href="#DejaVuSerif-104"/>
      <use x="140.917969" xlink:href="#DejaVuSerif-101"/>
      <use x="200.097656" xlink:href="#DejaVuSerif-98"/>
      <use x="264.111328" xlink:href="#DejaVuSerif-121"/>
      <use x="320.605469" xlink:href="#DejaVuSerif-99"/>
      <use x="376.611328" xlink:href="#DejaVuSerif-104"/>
      <use x="441.015625" xlink:href="#DejaVuSerif-101"/>
      <use x="500.195312" xlink:href="#DejaVuSerif-118"/>
      <use x="544.814453" xlink:href="#DejaVuSerif-44"/>
      <use x="576.601562" xlink:href="#DejaVuSerif-32"/>
      <use x="608.388672" xlink:href="#DejaVuSerif-51"/>
      <use x="672.011719" xlink:href="#DejaVuSerif-100"/>
      <use x="736.025391" xlink:href="#DejaVuSerif-66"/>
      <use x="809.511719" xlink:href="#DejaVuSerif-32"/>
      <use x="841.298828" xlink:href="#DejaVuSerif-114"/>
      <use x="889.101562" xlink:href="#DejaVuSerif-105"/>
      <use x="921.083984" xlink:href="#DejaVuSerif-112"/>
      <use x="985.097656" xlink:href="#DejaVuSerif-112"/>
      <use x="1049.111328" xlink:href="#DejaVuSerif-108"/>
      <use x="1081.09375" xlink:href="#DejaVuSerif-101"/>
     </g>
    </g>
   </g>
  </g>
 </g>
 <defs>
  <clipPath id="pd0eff0df71">
   <rect height="224.716535" width="307.559055" x="49.606299" y="35.716535"/>
  </clipPath>
 </defs>
</svg>
